<svg width="200" height="200" viewBox="0 0 200 200" fill="none" xmlns="http://www.w3.org/2000/svg">
<rect width="200" height="200" fill="white"/>
<line y1="66" x2="67" y2="66" stroke="black" stroke-width="2"/>
<line y1="131" x2="67" y2="131" stroke="black" stroke-width="2"/>
<line y1="99" x2="67" y2="99" stroke="black" stroke-width="2"/>
<line x1="130" y1="77" x2="200" y2="77" stroke="black" stroke-width="2"/>
<line x1="130" y1="129" x2="200" y2="129" stroke="black" stroke-width="2"/>
<line x1="130" y1="113" x2="200" y2="113" stroke="black" stroke-width="2"/>
<line x1="130" y1="95" x2="200" y2="95" stroke="black" stroke-width="2"/>
<rect x="68.5" y="51.5" width="71" height="97" fill="white" stroke="black" stroke-width="3"/>
<path d="M78.9434 64.0547L79.0312 65.918H78.8086C78.7656 65.5898 78.707 65.3555 78.6328 65.2148C78.5117 64.9883 78.3496 64.8223 78.1465 64.7168C77.9473 64.6074 77.6836 64.5527 77.3555 64.5527H76.2363V70.623C76.2363 71.1113 76.2891 71.416 76.3945 71.5371C76.543 71.7012 76.7715 71.7832 77.0801 71.7832H77.3555V72H73.9863V71.7832H74.2676C74.6035 71.7832 74.8418 71.6816 74.9824 71.4785C75.0684 71.3535 75.1113 71.0684 75.1113 70.623V64.5527H74.1562C73.7852 64.5527 73.5215 64.5801 73.3652 64.6348C73.1621 64.709 72.9883 64.8516 72.8438 65.0625C72.6992 65.2734 72.6133 65.5586 72.5859 65.918H72.3633L72.457 64.0547H78.9434Z" fill="black"/>
<path d="M79.2246 95.873L79.4062 98.5742H79.2246C78.9824 97.7656 78.6367 97.1836 78.1875 96.8281C77.7383 96.4727 77.1992 96.2949 76.5703 96.2949C76.043 96.2949 75.5664 96.4297 75.1406 96.6992C74.7148 96.9648 74.3789 97.3906 74.1328 97.9766C73.8906 98.5625 73.7695 99.291 73.7695 100.162C73.7695 100.881 73.8848 101.504 74.1152 102.031C74.3457 102.559 74.6914 102.963 75.1523 103.244C75.6172 103.525 76.1465 103.666 76.7402 103.666C77.2559 103.666 77.7109 103.557 78.1055 103.338C78.5 103.115 78.9336 102.676 79.4062 102.02L79.5879 102.137C79.1895 102.844 78.7246 103.361 78.1934 103.689C77.6621 104.018 77.0312 104.182 76.3008 104.182C74.9844 104.182 73.9648 103.693 73.2422 102.717C72.7031 101.99 72.4336 101.135 72.4336 100.15C72.4336 99.3574 72.6113 98.6289 72.9668 97.9648C73.3223 97.3008 73.8105 96.7871 74.4316 96.4238C75.0566 96.0566 75.7383 95.873 76.4766 95.873C77.0508 95.873 77.6172 96.0137 78.1758 96.2949C78.3398 96.3809 78.457 96.4238 78.5273 96.4238C78.6328 96.4238 78.7246 96.3867 78.8027 96.3125C78.9043 96.207 78.9766 96.0605 79.0195 95.873H79.2246ZM79.8457 96.0547H82.002L86.8594 102.014V97.4316C86.8594 96.9434 86.8047 96.6387 86.6953 96.5176C86.5508 96.3535 86.3223 96.2715 86.0098 96.2715H85.7344V96.0547H88.5V96.2715H88.2188C87.8828 96.2715 87.6445 96.373 87.5039 96.5762C87.418 96.7012 87.375 96.9863 87.375 97.4316V104.129H87.1641L81.9258 97.7305V102.623C81.9258 103.111 81.9785 103.416 82.084 103.537C82.2324 103.701 82.4609 103.783 82.7695 103.783H83.0508V104H80.2852V103.783H80.5605C80.9004 103.783 81.1406 103.682 81.2812 103.479C81.3672 103.354 81.4102 103.068 81.4102 102.623V97.0977C81.1797 96.8281 81.0039 96.6504 80.8828 96.5645C80.7656 96.4785 80.5918 96.3984 80.3613 96.3242C80.248 96.2891 80.0762 96.2715 79.8457 96.2715V96.0547ZM95.6191 96.0547L95.707 97.918H95.4844C95.4414 97.5898 95.3828 97.3555 95.3086 97.2148C95.1875 96.9883 95.0254 96.8223 94.8223 96.7168C94.623 96.6074 94.3594 96.5527 94.0312 96.5527H92.9121V102.623C92.9121 103.111 92.9648 103.416 93.0703 103.537C93.2188 103.701 93.4473 103.783 93.7559 103.783H94.0312V104H90.6621V103.783H90.9434C91.2793 103.783 91.5176 103.682 91.6582 103.479C91.7441 103.354 91.7871 103.068 91.7871 102.623V96.5527H90.832C90.4609 96.5527 90.1973 96.5801 90.041 96.6348C89.8379 96.709 89.6641 96.8516 89.5195 97.0625C89.375 97.2734 89.2891 97.5586 89.2617 97.918H89.0391L89.1328 96.0547H95.6191Z" fill="black"/>
<path d="M80.1094 132H77.9883L75.2988 128.285C75.0996 128.293 74.9375 128.297 74.8125 128.297C74.7617 128.297 74.707 128.297 74.6484 128.297C74.5898 128.293 74.5293 128.289 74.4668 128.285V130.594C74.4668 131.094 74.5215 131.404 74.6309 131.525C74.7793 131.697 75.002 131.783 75.2988 131.783H75.6094V132H72.2051V131.783H72.5039C72.8398 131.783 73.0801 131.674 73.2246 131.455C73.3066 131.334 73.3477 131.047 73.3477 130.594V125.461C73.3477 124.961 73.293 124.65 73.1836 124.529C73.0312 124.357 72.8047 124.271 72.5039 124.271H72.2051V124.055H75.0996C75.9434 124.055 76.5645 124.117 76.9629 124.242C77.3652 124.363 77.7051 124.59 77.9824 124.922C78.2637 125.25 78.4043 125.643 78.4043 126.1C78.4043 126.588 78.2441 127.012 77.9238 127.371C77.6074 127.73 77.1152 127.984 76.4473 128.133L78.0879 130.412C78.4629 130.936 78.7852 131.283 79.0547 131.455C79.3242 131.627 79.6758 131.736 80.1094 131.783V132ZM74.4668 127.916C74.541 127.916 74.6055 127.918 74.6602 127.922C74.7148 127.922 74.7598 127.922 74.7949 127.922C75.5527 127.922 76.123 127.758 76.5059 127.43C76.8926 127.102 77.0859 126.684 77.0859 126.176C77.0859 125.68 76.9297 125.277 76.6172 124.969C76.3086 124.656 75.8984 124.5 75.3867 124.5C75.1602 124.5 74.8535 124.537 74.4668 124.611V127.916ZM85.5059 123.873V126.621H85.2891C85.2188 126.094 85.0918 125.674 84.9082 125.361C84.7285 125.049 84.4707 124.801 84.1348 124.617C83.7988 124.434 83.4512 124.342 83.0918 124.342C82.6855 124.342 82.3496 124.467 82.084 124.717C81.8184 124.963 81.6855 125.244 81.6855 125.561C81.6855 125.803 81.7695 126.023 81.9375 126.223C82.1797 126.516 82.7559 126.906 83.666 127.395C84.4082 127.793 84.9141 128.1 85.1836 128.314C85.457 128.525 85.666 128.775 85.8105 129.064C85.959 129.354 86.0332 129.656 86.0332 129.973C86.0332 130.574 85.7988 131.094 85.3301 131.531C84.8652 131.965 84.2656 132.182 83.5312 132.182C83.3008 132.182 83.084 132.164 82.8809 132.129C82.7598 132.109 82.5078 132.039 82.125 131.918C81.7461 131.793 81.5059 131.73 81.4043 131.73C81.3066 131.73 81.2285 131.76 81.1699 131.818C81.1152 131.877 81.0742 131.998 81.0469 132.182H80.8301V129.457H81.0469C81.1484 130.027 81.2852 130.455 81.457 130.74C81.6289 131.021 81.8906 131.256 82.2422 131.443C82.5977 131.631 82.9863 131.725 83.4082 131.725C83.8965 131.725 84.2812 131.596 84.5625 131.338C84.8477 131.08 84.9902 130.775 84.9902 130.424C84.9902 130.229 84.9355 130.031 84.8262 129.832C84.7207 129.633 84.5547 129.447 84.3281 129.275C84.1758 129.158 83.7598 128.91 83.0801 128.531C82.4004 128.148 81.916 127.844 81.627 127.617C81.3418 127.391 81.125 127.141 80.9766 126.867C80.8281 126.594 80.7539 126.293 80.7539 125.965C80.7539 125.395 80.9727 124.904 81.4102 124.494C81.8477 124.08 82.4043 123.873 83.0801 123.873C83.502 123.873 83.9492 123.977 84.4219 124.184C84.6406 124.281 84.7949 124.33 84.8848 124.33C84.9863 124.33 85.0684 124.301 85.1309 124.242C85.1973 124.18 85.25 124.057 85.2891 123.873H85.5059ZM93.627 124.055L93.7148 125.918H93.4922C93.4492 125.59 93.3906 125.355 93.3164 125.215C93.1953 124.988 93.0332 124.822 92.8301 124.717C92.6309 124.607 92.3672 124.553 92.0391 124.553H90.9199V130.623C90.9199 131.111 90.9727 131.416 91.0781 131.537C91.2266 131.701 91.4551 131.783 91.7637 131.783H92.0391V132H88.6699V131.783H88.9512C89.2871 131.783 89.5254 131.682 89.666 131.479C89.752 131.354 89.7949 131.068 89.7949 130.623V124.553H88.8398C88.4688 124.553 88.2051 124.58 88.0488 124.635C87.8457 124.709 87.6719 124.852 87.5273 125.062C87.3828 125.273 87.2969 125.559 87.2695 125.918H87.0469L87.1406 124.055H93.627Z" fill="black"/>
<path d="M125.285 78.0879C125.684 78.7754 126.113 79.2812 126.574 79.6055C127.039 79.9297 127.566 80.1152 128.156 80.1621V80.3496C127.617 80.3301 127.041 80.2207 126.428 80.0215C125.814 79.8262 125.232 79.5527 124.682 79.2012C124.135 78.8535 123.662 78.4824 123.264 78.0879C122.701 77.8613 122.256 77.6211 121.928 77.3672C121.451 76.9883 121.08 76.5234 120.814 75.9727C120.553 75.418 120.422 74.7637 120.422 74.0098C120.422 72.8223 120.807 71.8359 121.576 71.0508C122.346 70.2656 123.277 69.873 124.371 69.873C125.41 69.873 126.309 70.2676 127.066 71.0566C127.828 71.8418 128.209 72.834 128.209 74.0332C128.209 75.0059 127.938 75.8594 127.395 76.5938C126.855 77.3281 126.152 77.8262 125.285 78.0879ZM124.301 70.3242C123.59 70.3242 123.018 70.5781 122.584 71.0859C122.037 71.7227 121.764 72.6973 121.764 74.0098C121.764 75.2949 122.041 76.2852 122.596 76.9805C123.025 77.5156 123.594 77.7832 124.301 77.7832C125.035 77.7832 125.627 77.5156 126.076 76.9805C126.604 76.3477 126.867 75.4141 126.867 74.1797C126.867 73.2305 126.723 72.4316 126.434 71.7832C126.211 71.2832 125.914 70.916 125.543 70.6816C125.176 70.4434 124.762 70.3242 124.301 70.3242ZM129.105 74.0742C129.105 73.168 129.242 72.3887 129.516 71.7363C129.789 71.0801 130.152 70.5918 130.605 70.2715C130.957 70.0176 131.32 69.8906 131.695 69.8906C132.305 69.8906 132.852 70.2012 133.336 70.8223C133.941 71.5918 134.244 72.6348 134.244 73.9512C134.244 74.873 134.111 75.6562 133.846 76.3008C133.58 76.9453 133.24 77.4141 132.826 77.707C132.416 77.9961 132.02 78.1406 131.637 78.1406C130.879 78.1406 130.248 77.6934 129.744 76.7988C129.318 76.0449 129.105 75.1367 129.105 74.0742ZM130.254 74.2207C130.254 75.3145 130.389 76.207 130.658 76.8984C130.881 77.4805 131.213 77.7715 131.654 77.7715C131.865 77.7715 132.084 77.6777 132.311 77.4902C132.537 77.2988 132.709 76.9805 132.826 76.5352C133.006 75.8633 133.096 74.916 133.096 73.6934C133.096 72.7871 133.002 72.0312 132.814 71.4258C132.674 70.9766 132.492 70.6582 132.27 70.4707C132.109 70.3418 131.916 70.2773 131.689 70.2773C131.424 70.2773 131.188 70.3965 130.98 70.6348C130.699 70.959 130.508 71.4688 130.406 72.1641C130.305 72.8594 130.254 73.5449 130.254 74.2207Z" fill="black"/>
<path d="M125.285 96.0879C125.684 96.7754 126.113 97.2812 126.574 97.6055C127.039 97.9297 127.566 98.1152 128.156 98.1621V98.3496C127.617 98.3301 127.041 98.2207 126.428 98.0215C125.814 97.8262 125.232 97.5527 124.682 97.2012C124.135 96.8535 123.662 96.4824 123.264 96.0879C122.701 95.8613 122.256 95.6211 121.928 95.3672C121.451 94.9883 121.08 94.5234 120.814 93.9727C120.553 93.418 120.422 92.7637 120.422 92.0098C120.422 90.8223 120.807 89.8359 121.576 89.0508C122.346 88.2656 123.277 87.873 124.371 87.873C125.41 87.873 126.309 88.2676 127.066 89.0566C127.828 89.8418 128.209 90.834 128.209 92.0332C128.209 93.0059 127.938 93.8594 127.395 94.5938C126.855 95.3281 126.152 95.8262 125.285 96.0879ZM124.301 88.3242C123.59 88.3242 123.018 88.5781 122.584 89.0859C122.037 89.7227 121.764 90.6973 121.764 92.0098C121.764 93.2949 122.041 94.2852 122.596 94.9805C123.025 95.5156 123.594 95.7832 124.301 95.7832C125.035 95.7832 125.627 95.5156 126.076 94.9805C126.604 94.3477 126.867 93.4141 126.867 92.1797C126.867 91.2305 126.723 90.4316 126.434 89.7832C126.211 89.2832 125.914 88.916 125.543 88.6816C125.176 88.4434 124.762 88.3242 124.301 88.3242ZM130.078 88.834L132.012 87.8906H132.205V94.5996C132.205 95.0449 132.223 95.3223 132.258 95.4316C132.297 95.541 132.375 95.625 132.492 95.6836C132.609 95.7422 132.848 95.7754 133.207 95.7832V96H130.219V95.7832C130.594 95.7754 130.836 95.7441 130.945 95.6895C131.055 95.6309 131.131 95.5547 131.174 95.4609C131.217 95.3633 131.238 95.0762 131.238 94.5996V90.3105C131.238 89.7324 131.219 89.3613 131.18 89.1973C131.152 89.0723 131.102 88.9805 131.027 88.9219C130.957 88.8633 130.871 88.834 130.77 88.834C130.625 88.834 130.424 88.8945 130.166 89.0156L130.078 88.834Z" fill="black"/>
<path d="M125.285 114.088C125.684 114.775 126.113 115.281 126.574 115.605C127.039 115.93 127.566 116.115 128.156 116.162V116.35C127.617 116.33 127.041 116.221 126.428 116.021C125.814 115.826 125.232 115.553 124.682 115.201C124.135 114.854 123.662 114.482 123.264 114.088C122.701 113.861 122.256 113.621 121.928 113.367C121.451 112.988 121.08 112.523 120.814 111.973C120.553 111.418 120.422 110.764 120.422 110.01C120.422 108.822 120.807 107.836 121.576 107.051C122.346 106.266 123.277 105.873 124.371 105.873C125.41 105.873 126.309 106.268 127.066 107.057C127.828 107.842 128.209 108.834 128.209 110.033C128.209 111.006 127.938 111.859 127.395 112.594C126.855 113.328 126.152 113.826 125.285 114.088ZM124.301 106.324C123.59 106.324 123.018 106.578 122.584 107.086C122.037 107.723 121.764 108.697 121.764 110.01C121.764 111.295 122.041 112.285 122.596 112.98C123.025 113.516 123.594 113.783 124.301 113.783C125.035 113.783 125.627 113.516 126.076 112.98C126.604 112.348 126.867 111.414 126.867 110.18C126.867 109.23 126.723 108.432 126.434 107.783C126.211 107.283 125.914 106.916 125.543 106.682C125.176 106.443 124.762 106.324 124.301 106.324ZM134.174 112.471L133.617 114H128.93V113.783C130.309 112.525 131.279 111.498 131.842 110.701C132.404 109.904 132.686 109.176 132.686 108.516C132.686 108.012 132.531 107.598 132.223 107.273C131.914 106.949 131.545 106.787 131.115 106.787C130.725 106.787 130.373 106.902 130.061 107.133C129.752 107.359 129.523 107.693 129.375 108.135H129.158C129.256 107.412 129.506 106.857 129.908 106.471C130.314 106.084 130.82 105.891 131.426 105.891C132.07 105.891 132.607 106.098 133.037 106.512C133.471 106.926 133.688 107.414 133.688 107.977C133.688 108.379 133.594 108.781 133.406 109.184C133.117 109.816 132.648 110.486 132 111.193C131.027 112.256 130.42 112.896 130.178 113.115H132.252C132.674 113.115 132.969 113.1 133.137 113.068C133.309 113.037 133.463 112.975 133.6 112.881C133.736 112.783 133.855 112.646 133.957 112.471H134.174Z" fill="black"/>
<path d="M125.285 132.088C125.684 132.775 126.113 133.281 126.574 133.605C127.039 133.93 127.566 134.115 128.156 134.162V134.35C127.617 134.33 127.041 134.221 126.428 134.021C125.814 133.826 125.232 133.553 124.682 133.201C124.135 132.854 123.662 132.482 123.264 132.088C122.701 131.861 122.256 131.621 121.928 131.367C121.451 130.988 121.08 130.523 120.814 129.973C120.553 129.418 120.422 128.764 120.422 128.01C120.422 126.822 120.807 125.836 121.576 125.051C122.346 124.266 123.277 123.873 124.371 123.873C125.41 123.873 126.309 124.268 127.066 125.057C127.828 125.842 128.209 126.834 128.209 128.033C128.209 129.006 127.938 129.859 127.395 130.594C126.855 131.328 126.152 131.826 125.285 132.088ZM124.301 124.324C123.59 124.324 123.018 124.578 122.584 125.086C122.037 125.723 121.764 126.697 121.764 128.01C121.764 129.295 122.041 130.285 122.596 130.98C123.025 131.516 123.594 131.783 124.301 131.783C125.035 131.783 125.627 131.516 126.076 130.98C126.604 130.348 126.867 129.414 126.867 128.18C126.867 127.23 126.723 126.432 126.434 125.783C126.211 125.283 125.914 124.916 125.543 124.682C125.176 124.443 124.762 124.324 124.301 124.324ZM129.281 125.566C129.508 125.031 129.793 124.619 130.137 124.33C130.484 124.037 130.916 123.891 131.432 123.891C132.068 123.891 132.557 124.098 132.896 124.512C133.154 124.82 133.283 125.15 133.283 125.502C133.283 126.08 132.92 126.678 132.193 127.295C132.682 127.486 133.051 127.76 133.301 128.115C133.551 128.471 133.676 128.889 133.676 129.369C133.676 130.057 133.457 130.652 133.02 131.156C132.449 131.812 131.623 132.141 130.541 132.141C130.006 132.141 129.641 132.074 129.445 131.941C129.254 131.809 129.158 131.666 129.158 131.514C129.158 131.4 129.203 131.301 129.293 131.215C129.387 131.129 129.498 131.086 129.627 131.086C129.725 131.086 129.824 131.102 129.926 131.133C129.992 131.152 130.143 131.225 130.377 131.35C130.611 131.471 130.773 131.543 130.863 131.566C131.008 131.609 131.162 131.631 131.326 131.631C131.725 131.631 132.07 131.477 132.363 131.168C132.66 130.859 132.809 130.494 132.809 130.072C132.809 129.764 132.74 129.463 132.604 129.17C132.502 128.951 132.391 128.785 132.27 128.672C132.102 128.516 131.871 128.375 131.578 128.25C131.285 128.121 130.986 128.057 130.682 128.057H130.494V127.881C130.803 127.842 131.111 127.73 131.42 127.547C131.732 127.363 131.959 127.143 132.1 126.885C132.24 126.627 132.311 126.344 132.311 126.035C132.311 125.633 132.184 125.309 131.93 125.062C131.68 124.812 131.367 124.688 130.992 124.688C130.387 124.688 129.881 125.012 129.475 125.66L129.281 125.566Z" fill="black"/>
<path d="M62.6533 21.5586V22.252H61.7646V24H60.959V22.252H58.1562V21.627L61.2275 17.2422H61.7646V21.5586H62.6533ZM60.959 21.5586V18.2725L58.6348 21.5586H60.959ZM70.1191 20.6211C70.5781 20.7188 70.9215 20.875 71.1494 21.0898C71.4652 21.3893 71.623 21.7555 71.623 22.1885C71.623 22.5173 71.5189 22.833 71.3105 23.1357C71.1022 23.4352 70.8158 23.6549 70.4512 23.7949C70.0898 23.9316 69.5365 24 68.791 24H65.666V23.8193H65.915C66.1917 23.8193 66.3903 23.7314 66.5107 23.5557C66.5856 23.4417 66.623 23.1992 66.623 22.8281V18.5508C66.623 18.1406 66.5758 17.8818 66.4814 17.7744C66.3545 17.6312 66.1657 17.5596 65.915 17.5596H65.666V17.3789H68.5273C69.0612 17.3789 69.4893 17.418 69.8115 17.4961C70.2998 17.6133 70.6725 17.8216 70.9297 18.1211C71.1868 18.4173 71.3154 18.7591 71.3154 19.1465C71.3154 19.4785 71.2145 19.7764 71.0127 20.04C70.8109 20.3005 70.513 20.4941 70.1191 20.6211ZM67.5605 20.3574C67.681 20.3802 67.8177 20.3981 67.9707 20.4111C68.127 20.4209 68.2979 20.4258 68.4834 20.4258C68.9587 20.4258 69.3151 20.3753 69.5527 20.2744C69.7936 20.1702 69.9775 20.0124 70.1045 19.8008C70.2314 19.5892 70.2949 19.3581 70.2949 19.1074C70.2949 18.7201 70.137 18.3896 69.8213 18.1162C69.5055 17.8428 69.0449 17.7061 68.4395 17.7061C68.1139 17.7061 67.821 17.7419 67.5605 17.8135V20.3574ZM67.5605 23.5215C67.9382 23.6094 68.3109 23.6533 68.6787 23.6533C69.2679 23.6533 69.7171 23.5215 70.0264 23.2578C70.3356 22.9909 70.4902 22.6621 70.4902 22.2715C70.4902 22.0143 70.4202 21.7669 70.2803 21.5293C70.1403 21.2917 69.9124 21.1045 69.5967 20.9678C69.2809 20.8311 68.8903 20.7627 68.4248 20.7627C68.223 20.7627 68.0505 20.766 67.9072 20.7725C67.764 20.779 67.6484 20.7904 67.5605 20.8066V23.5215ZM73.6201 17.0566C73.7568 17.0566 73.8724 17.1055 73.9668 17.2031C74.0645 17.2975 74.1133 17.4131 74.1133 17.5498C74.1133 17.6865 74.0645 17.8037 73.9668 17.9014C73.8724 17.999 73.7568 18.0479 73.6201 18.0479C73.4834 18.0479 73.3662 17.999 73.2686 17.9014C73.1709 17.8037 73.1221 17.6865 73.1221 17.5498C73.1221 17.4131 73.1693 17.2975 73.2637 17.2031C73.3613 17.1055 73.4801 17.0566 73.6201 17.0566ZM74.0254 19.3955V22.9893C74.0254 23.2692 74.0449 23.4564 74.084 23.5508C74.1263 23.6419 74.1865 23.7103 74.2646 23.7559C74.346 23.8014 74.4925 23.8242 74.7041 23.8242V24H72.5312V23.8242C72.7493 23.8242 72.8958 23.8031 72.9707 23.7607C73.0456 23.7184 73.1042 23.6484 73.1465 23.5508C73.1921 23.4531 73.2148 23.266 73.2148 22.9893V21.2656C73.2148 20.7806 73.2002 20.4665 73.1709 20.3232C73.1481 20.2191 73.1123 20.1475 73.0635 20.1084C73.0146 20.0661 72.9479 20.0449 72.8633 20.0449C72.7721 20.0449 72.6615 20.0693 72.5312 20.1182L72.4629 19.9424L73.8105 19.3955H74.0254ZM76.5645 18.0576V19.5273H77.6094V19.8691H76.5645V22.7695C76.5645 23.0592 76.6051 23.2546 76.6865 23.3555C76.7712 23.4564 76.8786 23.5068 77.0088 23.5068C77.1162 23.5068 77.2204 23.4743 77.3213 23.4092C77.4222 23.3408 77.5003 23.2415 77.5557 23.1113H77.7461C77.6322 23.4303 77.471 23.6712 77.2627 23.834C77.0544 23.9935 76.8395 24.0732 76.6182 24.0732C76.4684 24.0732 76.3219 24.0326 76.1787 23.9512C76.0355 23.8665 75.9297 23.7477 75.8613 23.5947C75.793 23.4385 75.7588 23.1992 75.7588 22.877V19.8691H75.0508V19.708C75.2298 19.6364 75.4121 19.516 75.5977 19.3467C75.7865 19.1742 75.9541 18.9707 76.1006 18.7363C76.1755 18.6126 76.2796 18.3864 76.4131 18.0576H76.5645ZM86.9941 24H85.2266L82.9854 20.9043C82.8193 20.9108 82.6842 20.9141 82.5801 20.9141C82.5378 20.9141 82.4922 20.9141 82.4434 20.9141C82.3945 20.9108 82.3441 20.9076 82.292 20.9043V22.8281C82.292 23.2448 82.3376 23.5036 82.4287 23.6045C82.5524 23.7477 82.738 23.8193 82.9854 23.8193H83.2441V24H80.4072V23.8193H80.6562C80.9362 23.8193 81.1364 23.7282 81.2568 23.5459C81.3252 23.445 81.3594 23.2057 81.3594 22.8281V18.5508C81.3594 18.1341 81.3138 17.8753 81.2227 17.7744C81.0957 17.6312 80.9069 17.5596 80.6562 17.5596H80.4072V17.3789H82.8193C83.5225 17.3789 84.04 17.431 84.3721 17.5352C84.7074 17.6361 84.9906 17.8249 85.2217 18.1016C85.4561 18.375 85.5732 18.7021 85.5732 19.083C85.5732 19.4899 85.4398 19.8431 85.1729 20.1426C84.9092 20.4421 84.499 20.6536 83.9424 20.7773L85.3096 22.6768C85.6221 23.113 85.8906 23.4027 86.1152 23.5459C86.3398 23.6891 86.6328 23.7803 86.9941 23.8193V24ZM82.292 20.5967C82.3538 20.5967 82.4076 20.5983 82.4531 20.6016C82.4987 20.6016 82.5361 20.6016 82.5654 20.6016C83.1969 20.6016 83.6722 20.4648 83.9912 20.1914C84.3135 19.918 84.4746 19.5697 84.4746 19.1465C84.4746 18.7331 84.3444 18.3978 84.084 18.1406C83.8268 17.8802 83.485 17.75 83.0586 17.75C82.8698 17.75 82.6143 17.7809 82.292 17.8428V20.5967ZM88.3564 17.0566C88.4932 17.0566 88.6087 17.1055 88.7031 17.2031C88.8008 17.2975 88.8496 17.4131 88.8496 17.5498C88.8496 17.6865 88.8008 17.8037 88.7031 17.9014C88.6087 17.999 88.4932 18.0479 88.3564 18.0479C88.2197 18.0479 88.1025 17.999 88.0049 17.9014C87.9072 17.8037 87.8584 17.6865 87.8584 17.5498C87.8584 17.4131 87.9056 17.2975 88 17.2031C88.0977 17.1055 88.2165 17.0566 88.3564 17.0566ZM88.7617 19.3955V22.9893C88.7617 23.2692 88.7812 23.4564 88.8203 23.5508C88.8626 23.6419 88.9229 23.7103 89.001 23.7559C89.0824 23.8014 89.2288 23.8242 89.4404 23.8242V24H87.2676V23.8242C87.4857 23.8242 87.6322 23.8031 87.707 23.7607C87.7819 23.7184 87.8405 23.6484 87.8828 23.5508C87.9284 23.4531 87.9512 23.266 87.9512 22.9893V21.2656C87.9512 20.7806 87.9365 20.4665 87.9072 20.3232C87.8844 20.2191 87.8486 20.1475 87.7998 20.1084C87.751 20.0661 87.6842 20.0449 87.5996 20.0449C87.5085 20.0449 87.3978 20.0693 87.2676 20.1182L87.1992 19.9424L88.5469 19.3955H88.7617ZM89.6797 19.9717L91.0566 19.415H91.2422V20.46C91.4733 20.0661 91.7044 19.791 91.9355 19.6348C92.1699 19.4753 92.4157 19.3955 92.6729 19.3955C93.1221 19.3955 93.4964 19.5713 93.7959 19.9229C94.1637 20.3525 94.3477 20.9124 94.3477 21.6025C94.3477 22.374 94.1263 23.012 93.6836 23.5166C93.319 23.93 92.86 24.1367 92.3066 24.1367C92.0658 24.1367 91.8574 24.1025 91.6816 24.0342C91.5514 23.9854 91.4049 23.8877 91.2422 23.7412V25.1035C91.2422 25.4095 91.2601 25.6032 91.2959 25.6846C91.335 25.7692 91.4001 25.8359 91.4912 25.8848C91.5856 25.9336 91.7549 25.958 91.999 25.958V26.1387H89.6553V25.958H89.7773C89.9564 25.9613 90.1094 25.9271 90.2363 25.8555C90.2982 25.8197 90.3454 25.7611 90.3779 25.6797C90.4137 25.6016 90.4316 25.3997 90.4316 25.0742V20.8457C90.4316 20.556 90.4186 20.3721 90.3926 20.2939C90.3665 20.2158 90.3242 20.1572 90.2656 20.1182C90.2103 20.0791 90.1338 20.0596 90.0361 20.0596C89.958 20.0596 89.8587 20.0824 89.7383 20.1279L89.6797 19.9717ZM91.2422 20.748V22.418C91.2422 22.7793 91.2568 23.0169 91.2861 23.1309C91.3317 23.3197 91.4424 23.4857 91.6182 23.6289C91.7972 23.7721 92.0218 23.8438 92.292 23.8438C92.6175 23.8438 92.8812 23.7168 93.083 23.4629C93.3467 23.1309 93.4785 22.6637 93.4785 22.0615C93.4785 21.3779 93.3288 20.8522 93.0293 20.4844C92.821 20.2305 92.5736 20.1035 92.2871 20.1035C92.1309 20.1035 91.9762 20.1426 91.8232 20.2207C91.7061 20.2793 91.5124 20.4551 91.2422 20.748ZM94.6797 19.9717L96.0566 19.415H96.2422V20.46C96.4733 20.0661 96.7044 19.791 96.9355 19.6348C97.1699 19.4753 97.4157 19.3955 97.6729 19.3955C98.1221 19.3955 98.4964 19.5713 98.7959 19.9229C99.1637 20.3525 99.3477 20.9124 99.3477 21.6025C99.3477 22.374 99.1263 23.012 98.6836 23.5166C98.319 23.93 97.86 24.1367 97.3066 24.1367C97.0658 24.1367 96.8574 24.1025 96.6816 24.0342C96.5514 23.9854 96.4049 23.8877 96.2422 23.7412V25.1035C96.2422 25.4095 96.2601 25.6032 96.2959 25.6846C96.335 25.7692 96.4001 25.8359 96.4912 25.8848C96.5856 25.9336 96.7549 25.958 96.999 25.958V26.1387H94.6553V25.958H94.7773C94.9564 25.9613 95.1094 25.9271 95.2363 25.8555C95.2982 25.8197 95.3454 25.7611 95.3779 25.6797C95.4137 25.6016 95.4316 25.3997 95.4316 25.0742V20.8457C95.4316 20.556 95.4186 20.3721 95.3926 20.2939C95.3665 20.2158 95.3242 20.1572 95.2656 20.1182C95.2103 20.0791 95.1338 20.0596 95.0361 20.0596C94.958 20.0596 94.8587 20.0824 94.7383 20.1279L94.6797 19.9717ZM96.2422 20.748V22.418C96.2422 22.7793 96.2568 23.0169 96.2861 23.1309C96.3317 23.3197 96.4424 23.4857 96.6182 23.6289C96.7972 23.7721 97.0218 23.8438 97.292 23.8438C97.6175 23.8438 97.8812 23.7168 98.083 23.4629C98.3467 23.1309 98.4785 22.6637 98.4785 22.0615C98.4785 21.3779 98.3288 20.8522 98.0293 20.4844C97.821 20.2305 97.5736 20.1035 97.2871 20.1035C97.1309 20.1035 96.9762 20.1426 96.8232 20.2207C96.7061 20.2793 96.5124 20.4551 96.2422 20.748ZM101.54 17.0566V22.9893C101.54 23.2692 101.56 23.4548 101.599 23.5459C101.641 23.637 101.704 23.707 101.789 23.7559C101.874 23.8014 102.032 23.8242 102.263 23.8242V24H100.07V23.8242C100.275 23.8242 100.415 23.8031 100.49 23.7607C100.565 23.7184 100.624 23.6484 100.666 23.5508C100.708 23.4531 100.729 23.266 100.729 22.9893V18.9268C100.729 18.4222 100.718 18.113 100.695 17.999C100.673 17.8818 100.635 17.8021 100.583 17.7598C100.534 17.7174 100.471 17.6963 100.393 17.6963C100.308 17.6963 100.201 17.7223 100.07 17.7744L99.9873 17.6035L101.32 17.0566H101.54ZM103.537 21.2119C103.534 21.876 103.695 22.3968 104.021 22.7744C104.346 23.152 104.729 23.3408 105.168 23.3408C105.461 23.3408 105.715 23.2611 105.93 23.1016C106.148 22.9388 106.33 22.6621 106.477 22.2715L106.628 22.3691C106.56 22.8151 106.361 23.222 106.032 23.5898C105.703 23.9544 105.292 24.1367 104.797 24.1367C104.26 24.1367 103.799 23.9284 103.415 23.5117C103.034 23.0918 102.844 22.5286 102.844 21.8223C102.844 21.0573 103.039 20.4616 103.43 20.0352C103.824 19.6055 104.317 19.3906 104.909 19.3906C105.41 19.3906 105.822 19.5566 106.145 19.8887C106.467 20.2174 106.628 20.6585 106.628 21.2119H103.537ZM103.537 20.9287H105.607C105.591 20.6423 105.557 20.4404 105.505 20.3232C105.424 20.141 105.301 19.9977 105.139 19.8936C104.979 19.7894 104.812 19.7373 104.636 19.7373C104.366 19.7373 104.123 19.8431 103.908 20.0547C103.697 20.263 103.573 20.5544 103.537 20.9287ZM115.437 17.2275L115.588 19.4785H115.437C115.235 18.8047 114.947 18.3197 114.572 18.0234C114.198 17.7272 113.749 17.5791 113.225 17.5791C112.785 17.5791 112.388 17.6914 112.033 17.916C111.678 18.1374 111.398 18.4922 111.193 18.9805C110.992 19.4688 110.891 20.0758 110.891 20.8018C110.891 21.4007 110.987 21.9199 111.179 22.3594C111.371 22.7988 111.659 23.1357 112.043 23.3701C112.43 23.6045 112.871 23.7217 113.366 23.7217C113.796 23.7217 114.175 23.6305 114.504 23.4482C114.833 23.2627 115.194 22.8965 115.588 22.3496L115.739 22.4473C115.407 23.0365 115.02 23.4678 114.577 23.7412C114.134 24.0146 113.609 24.1514 113 24.1514C111.903 24.1514 111.053 23.7445 110.451 22.9307C110.002 22.3252 109.777 21.6123 109.777 20.792C109.777 20.1312 109.925 19.5241 110.222 18.9707C110.518 18.4173 110.925 17.9893 111.442 17.6865C111.963 17.3805 112.531 17.2275 113.146 17.2275C113.625 17.2275 114.097 17.3447 114.562 17.5791C114.699 17.6507 114.797 17.6865 114.855 17.6865C114.943 17.6865 115.02 17.6556 115.085 17.5938C115.17 17.5059 115.23 17.3838 115.266 17.2275H115.437ZM118.586 19.3955C119.263 19.3955 119.807 19.6527 120.217 20.167C120.565 20.6064 120.739 21.111 120.739 21.6807C120.739 22.0811 120.643 22.4863 120.451 22.8965C120.259 23.3066 119.994 23.6159 119.655 23.8242C119.32 24.0326 118.946 24.1367 118.532 24.1367C117.858 24.1367 117.323 23.8682 116.926 23.3311C116.59 22.8786 116.423 22.3708 116.423 21.8076C116.423 21.3975 116.524 20.9906 116.726 20.5869C116.931 20.18 117.199 19.8805 117.531 19.6885C117.863 19.4932 118.215 19.3955 118.586 19.3955ZM118.435 19.7129C118.262 19.7129 118.088 19.765 117.912 19.8691C117.74 19.9701 117.6 20.1491 117.492 20.4062C117.385 20.6634 117.331 20.9938 117.331 21.3975C117.331 22.0485 117.46 22.61 117.717 23.082C117.977 23.554 118.319 23.79 118.742 23.79C119.058 23.79 119.318 23.6598 119.523 23.3994C119.729 23.139 119.831 22.6914 119.831 22.0566C119.831 21.2624 119.66 20.6374 119.318 20.1816C119.087 19.8691 118.793 19.7129 118.435 19.7129ZM125.319 19.5273V22.2373C125.319 22.7549 125.331 23.0723 125.354 23.1895C125.38 23.3034 125.419 23.3831 125.471 23.4287C125.526 23.4743 125.59 23.4971 125.661 23.4971C125.762 23.4971 125.876 23.4694 126.003 23.4141L126.071 23.585L124.733 24.1367H124.514V23.1895C124.13 23.6061 123.837 23.8682 123.635 23.9756C123.433 24.083 123.22 24.1367 122.995 24.1367C122.744 24.1367 122.526 24.0651 122.341 23.9219C122.159 23.7754 122.032 23.5882 121.96 23.3604C121.888 23.1325 121.853 22.8102 121.853 22.3936V20.3965C121.853 20.1849 121.83 20.0384 121.784 19.957C121.739 19.8757 121.67 19.8138 121.579 19.7715C121.491 19.7259 121.33 19.7048 121.096 19.708V19.5273H122.663V22.5205C122.663 22.9372 122.735 23.2106 122.878 23.3408C123.024 23.471 123.2 23.5361 123.405 23.5361C123.545 23.5361 123.703 23.4922 123.879 23.4043C124.058 23.3164 124.27 23.1488 124.514 22.9014V20.3672C124.514 20.1133 124.466 19.9424 124.372 19.8545C124.281 19.7633 124.089 19.7145 123.796 19.708V19.5273H125.319ZM127.702 20.3428C128.226 19.7113 128.726 19.3955 129.201 19.3955C129.445 19.3955 129.655 19.4574 129.831 19.5811C130.007 19.7015 130.147 19.9017 130.251 20.1816C130.323 20.377 130.358 20.6764 130.358 21.0801V22.9893C130.358 23.2725 130.381 23.4645 130.427 23.5654C130.463 23.6468 130.52 23.7103 130.598 23.7559C130.679 23.8014 130.827 23.8242 131.042 23.8242V24H128.83V23.8242H128.923C129.131 23.8242 129.276 23.7933 129.357 23.7314C129.442 23.6663 129.501 23.5719 129.533 23.4482C129.546 23.3994 129.553 23.2464 129.553 22.9893V21.1582C129.553 20.7513 129.499 20.4567 129.392 20.2744C129.287 20.0889 129.11 19.9961 128.859 19.9961C128.472 19.9961 128.086 20.2077 127.702 20.6309V22.9893C127.702 23.292 127.72 23.4792 127.756 23.5508C127.801 23.6452 127.863 23.7152 127.941 23.7607C128.023 23.8031 128.186 23.8242 128.43 23.8242V24H126.218V23.8242H126.315C126.543 23.8242 126.696 23.7673 126.774 23.6533C126.856 23.5361 126.896 23.3148 126.896 22.9893V21.3291C126.896 20.792 126.883 20.4648 126.857 20.3477C126.835 20.2305 126.797 20.1507 126.745 20.1084C126.696 20.0661 126.63 20.0449 126.545 20.0449C126.454 20.0449 126.345 20.0693 126.218 20.1182L126.145 19.9424L127.492 19.3955H127.702V20.3428ZM132.697 18.0576V19.5273H133.742V19.8691H132.697V22.7695C132.697 23.0592 132.738 23.2546 132.819 23.3555C132.904 23.4564 133.011 23.5068 133.142 23.5068C133.249 23.5068 133.353 23.4743 133.454 23.4092C133.555 23.3408 133.633 23.2415 133.688 23.1113H133.879C133.765 23.4303 133.604 23.6712 133.396 23.834C133.187 23.9935 132.972 24.0732 132.751 24.0732C132.601 24.0732 132.455 24.0326 132.312 23.9512C132.168 23.8665 132.062 23.7477 131.994 23.5947C131.926 23.4385 131.892 23.1992 131.892 22.877V19.8691H131.184V19.708C131.363 19.6364 131.545 19.516 131.73 19.3467C131.919 19.1742 132.087 18.9707 132.233 18.7363C132.308 18.6126 132.412 18.3864 132.546 18.0576H132.697ZM134.934 21.2119C134.93 21.876 135.091 22.3968 135.417 22.7744C135.743 23.152 136.125 23.3408 136.564 23.3408C136.857 23.3408 137.111 23.2611 137.326 23.1016C137.544 22.9388 137.727 22.6621 137.873 22.2715L138.024 22.3691C137.956 22.8151 137.757 23.222 137.429 23.5898C137.1 23.9544 136.688 24.1367 136.193 24.1367C135.656 24.1367 135.196 23.9284 134.812 23.5117C134.431 23.0918 134.24 22.5286 134.24 21.8223C134.24 21.0573 134.436 20.4616 134.826 20.0352C135.22 19.6055 135.713 19.3906 136.306 19.3906C136.807 19.3906 137.219 19.5566 137.541 19.8887C137.863 20.2174 138.024 20.6585 138.024 21.2119H134.934ZM134.934 20.9287H137.004C136.988 20.6423 136.953 20.4404 136.901 20.3232C136.82 20.141 136.698 19.9977 136.535 19.8936C136.376 19.7894 136.208 19.7373 136.032 19.7373C135.762 19.7373 135.52 19.8431 135.305 20.0547C135.093 20.263 134.969 20.5544 134.934 20.9287ZM139.934 19.3955V20.4014C140.308 19.7308 140.692 19.3955 141.086 19.3955C141.265 19.3955 141.413 19.4508 141.53 19.5615C141.647 19.6689 141.706 19.7943 141.706 19.9375C141.706 20.0645 141.664 20.1719 141.579 20.2598C141.494 20.3477 141.394 20.3916 141.276 20.3916C141.162 20.3916 141.034 20.3363 140.891 20.2256C140.751 20.1117 140.646 20.0547 140.578 20.0547C140.52 20.0547 140.456 20.0872 140.388 20.1523C140.241 20.2858 140.09 20.5055 139.934 20.8115V22.9551C139.934 23.2025 139.965 23.3896 140.026 23.5166C140.069 23.6045 140.144 23.6777 140.251 23.7363C140.358 23.7949 140.513 23.8242 140.715 23.8242V24H138.425V23.8242C138.653 23.8242 138.822 23.7884 138.933 23.7168C139.014 23.6647 139.071 23.5817 139.104 23.4678C139.12 23.4124 139.128 23.2546 139.128 22.9941V21.2607C139.128 20.7399 139.117 20.4307 139.094 20.333C139.074 20.2321 139.035 20.1589 138.977 20.1133C138.921 20.0677 138.851 20.0449 138.767 20.0449C138.666 20.0449 138.552 20.0693 138.425 20.1182L138.376 19.9424L139.729 19.3955H139.934Z" fill="black"/>
<circle cx="65" cy="131" r="3" fill="white" stroke="black" stroke-width="2"/>
</svg>
