<svg width="200" height="200" viewBox="0 0 200 200" fill="none" xmlns="http://www.w3.org/2000/svg">
<rect width="200" height="200" fill="white"/>
<line y1="66" x2="67" y2="66" stroke="black" stroke-width="2"/>
<line y1="131" x2="67" y2="131" stroke="black" stroke-width="2"/>
<line y1="99" x2="67" y2="99" stroke="black" stroke-width="2"/>
<line x1="130" y1="77" x2="200" y2="77" stroke="black" stroke-width="2"/>
<line x1="130" y1="129" x2="200" y2="129" stroke="black" stroke-width="2"/>
<line x1="130" y1="113" x2="200" y2="113" stroke="black" stroke-width="2"/>
<line x1="130" y1="95" x2="200" y2="95" stroke="black" stroke-width="2"/>
<rect x="68.5" y="51.5" width="71" height="97" fill="white" stroke="black" stroke-width="3"/>
<path d="M79.2246 63.873L79.4062 66.5742H79.2246C78.9824 65.7656 78.6367 65.1836 78.1875 64.8281C77.7383 64.4727 77.1992 64.2949 76.5703 64.2949C76.043 64.2949 75.5664 64.4297 75.1406 64.6992C74.7148 64.9648 74.3789 65.3906 74.1328 65.9766C73.8906 66.5625 73.7695 67.291 73.7695 68.1621C73.7695 68.8809 73.8848 69.5039 74.1152 70.0312C74.3457 70.5586 74.6914 70.9629 75.1523 71.2441C75.6172 71.5254 76.1465 71.666 76.7402 71.666C77.2559 71.666 77.7109 71.5566 78.1055 71.3379C78.5 71.1152 78.9336 70.6758 79.4062 70.0195L79.5879 70.1367C79.1895 70.8438 78.7246 71.3613 78.1934 71.6895C77.6621 72.0176 77.0312 72.1816 76.3008 72.1816C74.9844 72.1816 73.9648 71.6934 73.2422 70.7168C72.7031 69.9902 72.4336 69.1348 72.4336 68.1504C72.4336 67.3574 72.6113 66.6289 72.9668 65.9648C73.3223 65.3008 73.8105 64.7871 74.4316 64.4238C75.0566 64.0566 75.7383 63.873 76.4766 63.873C77.0508 63.873 77.6172 64.0137 78.1758 64.2949C78.3398 64.3809 78.457 64.4238 78.5273 64.4238C78.6328 64.4238 78.7246 64.3867 78.8027 64.3125C78.9043 64.207 78.9766 64.0605 79.0195 63.873H79.2246ZM79.8457 64.0547H82.002L86.8594 70.0137V65.4316C86.8594 64.9434 86.8047 64.6387 86.6953 64.5176C86.5508 64.3535 86.3223 64.2715 86.0098 64.2715H85.7344V64.0547H88.5V64.2715H88.2188C87.8828 64.2715 87.6445 64.373 87.5039 64.5762C87.418 64.7012 87.375 64.9863 87.375 65.4316V72.1289H87.1641L81.9258 65.7305V70.623C81.9258 71.1113 81.9785 71.416 82.084 71.5371C82.2324 71.7012 82.4609 71.7832 82.7695 71.7832H83.0508V72H80.2852V71.7832H80.5605C80.9004 71.7832 81.1406 71.6816 81.2812 71.4785C81.3672 71.3535 81.4102 71.0684 81.4102 70.623V65.0977C81.1797 64.8281 81.0039 64.6504 80.8828 64.5645C80.7656 64.4785 80.5918 64.3984 80.3613 64.3242C80.248 64.2891 80.0762 64.2715 79.8457 64.2715V64.0547ZM95.6191 64.0547L95.707 65.918H95.4844C95.4414 65.5898 95.3828 65.3555 95.3086 65.2148C95.1875 64.9883 95.0254 64.8223 94.8223 64.7168C94.623 64.6074 94.3594 64.5527 94.0312 64.5527H92.9121V70.623C92.9121 71.1113 92.9648 71.416 93.0703 71.5371C93.2188 71.7012 93.4473 71.7832 93.7559 71.7832H94.0312V72H90.6621V71.7832H90.9434C91.2793 71.7832 91.5176 71.6816 91.6582 71.4785C91.7441 71.3535 91.7871 71.0684 91.7871 70.623V64.5527H90.832C90.4609 64.5527 90.1973 64.5801 90.041 64.6348C89.8379 64.709 89.6641 64.8516 89.5195 65.0625C89.375 65.2734 89.2891 65.5586 89.2617 65.918H89.0391L89.1328 64.0547H95.6191Z" fill="black"/>
<path d="M77.502 95.873V98.6211H77.2852C77.2148 98.0938 77.0879 97.6738 76.9043 97.3613C76.7246 97.0488 76.4668 96.8008 76.1309 96.6172C75.7949 96.4336 75.4473 96.3418 75.0879 96.3418C74.6816 96.3418 74.3457 96.4668 74.0801 96.7168C73.8145 96.9629 73.6816 97.2441 73.6816 97.5605C73.6816 97.8027 73.7656 98.0234 73.9336 98.2227C74.1758 98.5156 74.752 98.9062 75.6621 99.3945C76.4043 99.793 76.9102 100.1 77.1797 100.314C77.4531 100.525 77.6621 100.775 77.8066 101.064C77.9551 101.354 78.0293 101.656 78.0293 101.973C78.0293 102.574 77.7949 103.094 77.3262 103.531C76.8613 103.965 76.2617 104.182 75.5273 104.182C75.2969 104.182 75.0801 104.164 74.877 104.129C74.7559 104.109 74.5039 104.039 74.1211 103.918C73.7422 103.793 73.502 103.73 73.4004 103.73C73.3027 103.73 73.2246 103.76 73.166 103.818C73.1113 103.877 73.0703 103.998 73.043 104.182H72.8262V101.457H73.043C73.1445 102.027 73.2812 102.455 73.4531 102.74C73.625 103.021 73.8867 103.256 74.2383 103.443C74.5938 103.631 74.9824 103.725 75.4043 103.725C75.8926 103.725 76.2773 103.596 76.5586 103.338C76.8438 103.08 76.9863 102.775 76.9863 102.424C76.9863 102.229 76.9316 102.031 76.8223 101.832C76.7168 101.633 76.5508 101.447 76.3242 101.275C76.1719 101.158 75.7559 100.91 75.0762 100.531C74.3965 100.148 73.9121 99.8438 73.623 99.6172C73.3379 99.3906 73.1211 99.1406 72.9727 98.8672C72.8242 98.5938 72.75 98.293 72.75 97.9648C72.75 97.3945 72.9688 96.9043 73.4062 96.4941C73.8438 96.0801 74.4004 95.873 75.0762 95.873C75.498 95.873 75.9453 95.9766 76.418 96.1836C76.6367 96.2812 76.791 96.3301 76.8809 96.3301C76.9824 96.3301 77.0645 96.3008 77.127 96.2422C77.1934 96.1797 77.2461 96.0566 77.2852 95.873H77.502ZM81.1875 96.4883V99.6289H82.9336C83.3867 99.6289 83.6895 99.5605 83.8418 99.4238C84.0449 99.2441 84.1582 98.9277 84.1816 98.4746H84.3984V101.24H84.1816C84.127 100.854 84.0723 100.605 84.0176 100.496C83.9473 100.359 83.832 100.252 83.6719 100.174C83.5117 100.096 83.2656 100.057 82.9336 100.057H81.1875V102.676C81.1875 103.027 81.2031 103.242 81.2344 103.32C81.2656 103.395 81.3203 103.455 81.3984 103.502C81.4766 103.545 81.625 103.566 81.8438 103.566H83.1914C83.6406 103.566 83.9668 103.535 84.1699 103.473C84.373 103.41 84.5684 103.287 84.7559 103.104C84.998 102.861 85.2461 102.496 85.5 102.008H85.7344L85.0488 104H78.9258V103.783H79.207C79.3945 103.783 79.5723 103.738 79.7402 103.648C79.8652 103.586 79.9492 103.492 79.9922 103.367C80.0391 103.242 80.0625 102.986 80.0625 102.6V97.4375C80.0625 96.9336 80.0117 96.623 79.9102 96.5059C79.7695 96.3496 79.5352 96.2715 79.207 96.2715H78.9258V96.0547H85.0488L85.1367 97.7949H84.9082C84.8262 97.377 84.7344 97.0898 84.6328 96.9336C84.5352 96.7773 84.3887 96.6582 84.1934 96.5762C84.0371 96.5176 83.7617 96.4883 83.3672 96.4883H81.1875ZM92.959 96.0547L93.0469 97.918H92.8242C92.7812 97.5898 92.7227 97.3555 92.6484 97.2148C92.5273 96.9883 92.3652 96.8223 92.1621 96.7168C91.9629 96.6074 91.6992 96.5527 91.3711 96.5527H90.252V102.623C90.252 103.111 90.3047 103.416 90.4102 103.537C90.5586 103.701 90.7871 103.783 91.0957 103.783H91.3711V104H88.002V103.783H88.2832C88.6191 103.783 88.8574 103.682 88.998 103.479C89.084 103.354 89.127 103.068 89.127 102.623V96.5527H88.1719C87.8008 96.5527 87.5371 96.5801 87.3809 96.6348C87.1777 96.709 87.0039 96.8516 86.8594 97.0625C86.7148 97.2734 86.6289 97.5586 86.6016 97.918H86.3789L86.4727 96.0547H92.959Z" fill="black"/>
<path d="M80.1094 132H77.9883L75.2988 128.285C75.0996 128.293 74.9375 128.297 74.8125 128.297C74.7617 128.297 74.707 128.297 74.6484 128.297C74.5898 128.293 74.5293 128.289 74.4668 128.285V130.594C74.4668 131.094 74.5215 131.404 74.6309 131.525C74.7793 131.697 75.002 131.783 75.2988 131.783H75.6094V132H72.2051V131.783H72.5039C72.8398 131.783 73.0801 131.674 73.2246 131.455C73.3066 131.334 73.3477 131.047 73.3477 130.594V125.461C73.3477 124.961 73.293 124.65 73.1836 124.529C73.0312 124.357 72.8047 124.271 72.5039 124.271H72.2051V124.055H75.0996C75.9434 124.055 76.5645 124.117 76.9629 124.242C77.3652 124.363 77.7051 124.59 77.9824 124.922C78.2637 125.25 78.4043 125.643 78.4043 126.1C78.4043 126.588 78.2441 127.012 77.9238 127.371C77.6074 127.73 77.1152 127.984 76.4473 128.133L78.0879 130.412C78.4629 130.936 78.7852 131.283 79.0547 131.455C79.3242 131.627 79.6758 131.736 80.1094 131.783V132ZM74.4668 127.916C74.541 127.916 74.6055 127.918 74.6602 127.922C74.7148 127.922 74.7598 127.922 74.7949 127.922C75.5527 127.922 76.123 127.758 76.5059 127.43C76.8926 127.102 77.0859 126.684 77.0859 126.176C77.0859 125.68 76.9297 125.277 76.6172 124.969C76.3086 124.656 75.8984 124.5 75.3867 124.5C75.1602 124.5 74.8535 124.537 74.4668 124.611V127.916ZM85.5059 123.873V126.621H85.2891C85.2188 126.094 85.0918 125.674 84.9082 125.361C84.7285 125.049 84.4707 124.801 84.1348 124.617C83.7988 124.434 83.4512 124.342 83.0918 124.342C82.6855 124.342 82.3496 124.467 82.084 124.717C81.8184 124.963 81.6855 125.244 81.6855 125.561C81.6855 125.803 81.7695 126.023 81.9375 126.223C82.1797 126.516 82.7559 126.906 83.666 127.395C84.4082 127.793 84.9141 128.1 85.1836 128.314C85.457 128.525 85.666 128.775 85.8105 129.064C85.959 129.354 86.0332 129.656 86.0332 129.973C86.0332 130.574 85.7988 131.094 85.3301 131.531C84.8652 131.965 84.2656 132.182 83.5312 132.182C83.3008 132.182 83.084 132.164 82.8809 132.129C82.7598 132.109 82.5078 132.039 82.125 131.918C81.7461 131.793 81.5059 131.73 81.4043 131.73C81.3066 131.73 81.2285 131.76 81.1699 131.818C81.1152 131.877 81.0742 131.998 81.0469 132.182H80.8301V129.457H81.0469C81.1484 130.027 81.2852 130.455 81.457 130.74C81.6289 131.021 81.8906 131.256 82.2422 131.443C82.5977 131.631 82.9863 131.725 83.4082 131.725C83.8965 131.725 84.2812 131.596 84.5625 131.338C84.8477 131.08 84.9902 130.775 84.9902 130.424C84.9902 130.229 84.9355 130.031 84.8262 129.832C84.7207 129.633 84.5547 129.447 84.3281 129.275C84.1758 129.158 83.7598 128.91 83.0801 128.531C82.4004 128.148 81.916 127.844 81.627 127.617C81.3418 127.391 81.125 127.141 80.9766 126.867C80.8281 126.594 80.7539 126.293 80.7539 125.965C80.7539 125.395 80.9727 124.904 81.4102 124.494C81.8477 124.08 82.4043 123.873 83.0801 123.873C83.502 123.873 83.9492 123.977 84.4219 124.184C84.6406 124.281 84.7949 124.33 84.8848 124.33C84.9863 124.33 85.0684 124.301 85.1309 124.242C85.1973 124.18 85.25 124.057 85.2891 123.873H85.5059ZM93.627 124.055L93.7148 125.918H93.4922C93.4492 125.59 93.3906 125.355 93.3164 125.215C93.1953 124.988 93.0332 124.822 92.8301 124.717C92.6309 124.607 92.3672 124.553 92.0391 124.553H90.9199V130.623C90.9199 131.111 90.9727 131.416 91.0781 131.537C91.2266 131.701 91.4551 131.783 91.7637 131.783H92.0391V132H88.6699V131.783H88.9512C89.2871 131.783 89.5254 131.682 89.666 131.479C89.752 131.354 89.7949 131.068 89.7949 130.623V124.553H88.8398C88.4688 124.553 88.2051 124.58 88.0488 124.635C87.8457 124.709 87.6719 124.852 87.5273 125.062C87.3828 125.273 87.2969 125.559 87.2695 125.918H87.0469L87.1406 124.055H93.627Z" fill="black"/>
<path d="M125.285 78.0879C125.684 78.7754 126.113 79.2812 126.574 79.6055C127.039 79.9297 127.566 80.1152 128.156 80.1621V80.3496C127.617 80.3301 127.041 80.2207 126.428 80.0215C125.814 79.8262 125.232 79.5527 124.682 79.2012C124.135 78.8535 123.662 78.4824 123.264 78.0879C122.701 77.8613 122.256 77.6211 121.928 77.3672C121.451 76.9883 121.08 76.5234 120.814 75.9727C120.553 75.418 120.422 74.7637 120.422 74.0098C120.422 72.8223 120.807 71.8359 121.576 71.0508C122.346 70.2656 123.277 69.873 124.371 69.873C125.41 69.873 126.309 70.2676 127.066 71.0566C127.828 71.8418 128.209 72.834 128.209 74.0332C128.209 75.0059 127.938 75.8594 127.395 76.5938C126.855 77.3281 126.152 77.8262 125.285 78.0879ZM124.301 70.3242C123.59 70.3242 123.018 70.5781 122.584 71.0859C122.037 71.7227 121.764 72.6973 121.764 74.0098C121.764 75.2949 122.041 76.2852 122.596 76.9805C123.025 77.5156 123.594 77.7832 124.301 77.7832C125.035 77.7832 125.627 77.5156 126.076 76.9805C126.604 76.3477 126.867 75.4141 126.867 74.1797C126.867 73.2305 126.723 72.4316 126.434 71.7832C126.211 71.2832 125.914 70.916 125.543 70.6816C125.176 70.4434 124.762 70.3242 124.301 70.3242ZM129.105 74.0742C129.105 73.168 129.242 72.3887 129.516 71.7363C129.789 71.0801 130.152 70.5918 130.605 70.2715C130.957 70.0176 131.32 69.8906 131.695 69.8906C132.305 69.8906 132.852 70.2012 133.336 70.8223C133.941 71.5918 134.244 72.6348 134.244 73.9512C134.244 74.873 134.111 75.6562 133.846 76.3008C133.58 76.9453 133.24 77.4141 132.826 77.707C132.416 77.9961 132.02 78.1406 131.637 78.1406C130.879 78.1406 130.248 77.6934 129.744 76.7988C129.318 76.0449 129.105 75.1367 129.105 74.0742ZM130.254 74.2207C130.254 75.3145 130.389 76.207 130.658 76.8984C130.881 77.4805 131.213 77.7715 131.654 77.7715C131.865 77.7715 132.084 77.6777 132.311 77.4902C132.537 77.2988 132.709 76.9805 132.826 76.5352C133.006 75.8633 133.096 74.916 133.096 73.6934C133.096 72.7871 133.002 72.0312 132.814 71.4258C132.674 70.9766 132.492 70.6582 132.27 70.4707C132.109 70.3418 131.916 70.2773 131.689 70.2773C131.424 70.2773 131.188 70.3965 130.98 70.6348C130.699 70.959 130.508 71.4688 130.406 72.1641C130.305 72.8594 130.254 73.5449 130.254 74.2207Z" fill="black"/>
<path d="M125.285 96.0879C125.684 96.7754 126.113 97.2812 126.574 97.6055C127.039 97.9297 127.566 98.1152 128.156 98.1621V98.3496C127.617 98.3301 127.041 98.2207 126.428 98.0215C125.814 97.8262 125.232 97.5527 124.682 97.2012C124.135 96.8535 123.662 96.4824 123.264 96.0879C122.701 95.8613 122.256 95.6211 121.928 95.3672C121.451 94.9883 121.08 94.5234 120.814 93.9727C120.553 93.418 120.422 92.7637 120.422 92.0098C120.422 90.8223 120.807 89.8359 121.576 89.0508C122.346 88.2656 123.277 87.873 124.371 87.873C125.41 87.873 126.309 88.2676 127.066 89.0566C127.828 89.8418 128.209 90.834 128.209 92.0332C128.209 93.0059 127.938 93.8594 127.395 94.5938C126.855 95.3281 126.152 95.8262 125.285 96.0879ZM124.301 88.3242C123.59 88.3242 123.018 88.5781 122.584 89.0859C122.037 89.7227 121.764 90.6973 121.764 92.0098C121.764 93.2949 122.041 94.2852 122.596 94.9805C123.025 95.5156 123.594 95.7832 124.301 95.7832C125.035 95.7832 125.627 95.5156 126.076 94.9805C126.604 94.3477 126.867 93.4141 126.867 92.1797C126.867 91.2305 126.723 90.4316 126.434 89.7832C126.211 89.2832 125.914 88.916 125.543 88.6816C125.176 88.4434 124.762 88.3242 124.301 88.3242ZM130.078 88.834L132.012 87.8906H132.205V94.5996C132.205 95.0449 132.223 95.3223 132.258 95.4316C132.297 95.541 132.375 95.625 132.492 95.6836C132.609 95.7422 132.848 95.7754 133.207 95.7832V96H130.219V95.7832C130.594 95.7754 130.836 95.7441 130.945 95.6895C131.055 95.6309 131.131 95.5547 131.174 95.4609C131.217 95.3633 131.238 95.0762 131.238 94.5996V90.3105C131.238 89.7324 131.219 89.3613 131.18 89.1973C131.152 89.0723 131.102 88.9805 131.027 88.9219C130.957 88.8633 130.871 88.834 130.77 88.834C130.625 88.834 130.424 88.8945 130.166 89.0156L130.078 88.834Z" fill="black"/>
<path d="M125.285 114.088C125.684 114.775 126.113 115.281 126.574 115.605C127.039 115.93 127.566 116.115 128.156 116.162V116.35C127.617 116.33 127.041 116.221 126.428 116.021C125.814 115.826 125.232 115.553 124.682 115.201C124.135 114.854 123.662 114.482 123.264 114.088C122.701 113.861 122.256 113.621 121.928 113.367C121.451 112.988 121.08 112.523 120.814 111.973C120.553 111.418 120.422 110.764 120.422 110.01C120.422 108.822 120.807 107.836 121.576 107.051C122.346 106.266 123.277 105.873 124.371 105.873C125.41 105.873 126.309 106.268 127.066 107.057C127.828 107.842 128.209 108.834 128.209 110.033C128.209 111.006 127.938 111.859 127.395 112.594C126.855 113.328 126.152 113.826 125.285 114.088ZM124.301 106.324C123.59 106.324 123.018 106.578 122.584 107.086C122.037 107.723 121.764 108.697 121.764 110.01C121.764 111.295 122.041 112.285 122.596 112.98C123.025 113.516 123.594 113.783 124.301 113.783C125.035 113.783 125.627 113.516 126.076 112.98C126.604 112.348 126.867 111.414 126.867 110.18C126.867 109.23 126.723 108.432 126.434 107.783C126.211 107.283 125.914 106.916 125.543 106.682C125.176 106.443 124.762 106.324 124.301 106.324ZM134.174 112.471L133.617 114H128.93V113.783C130.309 112.525 131.279 111.498 131.842 110.701C132.404 109.904 132.686 109.176 132.686 108.516C132.686 108.012 132.531 107.598 132.223 107.273C131.914 106.949 131.545 106.787 131.115 106.787C130.725 106.787 130.373 106.902 130.061 107.133C129.752 107.359 129.523 107.693 129.375 108.135H129.158C129.256 107.412 129.506 106.857 129.908 106.471C130.314 106.084 130.82 105.891 131.426 105.891C132.07 105.891 132.607 106.098 133.037 106.512C133.471 106.926 133.688 107.414 133.688 107.977C133.688 108.379 133.594 108.781 133.406 109.184C133.117 109.816 132.648 110.486 132 111.193C131.027 112.256 130.42 112.896 130.178 113.115H132.252C132.674 113.115 132.969 113.1 133.137 113.068C133.309 113.037 133.463 112.975 133.6 112.881C133.736 112.783 133.855 112.646 133.957 112.471H134.174Z" fill="black"/>
<path d="M125.285 132.088C125.684 132.775 126.113 133.281 126.574 133.605C127.039 133.93 127.566 134.115 128.156 134.162V134.35C127.617 134.33 127.041 134.221 126.428 134.021C125.814 133.826 125.232 133.553 124.682 133.201C124.135 132.854 123.662 132.482 123.264 132.088C122.701 131.861 122.256 131.621 121.928 131.367C121.451 130.988 121.08 130.523 120.814 129.973C120.553 129.418 120.422 128.764 120.422 128.01C120.422 126.822 120.807 125.836 121.576 125.051C122.346 124.266 123.277 123.873 124.371 123.873C125.41 123.873 126.309 124.268 127.066 125.057C127.828 125.842 128.209 126.834 128.209 128.033C128.209 129.006 127.938 129.859 127.395 130.594C126.855 131.328 126.152 131.826 125.285 132.088ZM124.301 124.324C123.59 124.324 123.018 124.578 122.584 125.086C122.037 125.723 121.764 126.697 121.764 128.01C121.764 129.295 122.041 130.285 122.596 130.98C123.025 131.516 123.594 131.783 124.301 131.783C125.035 131.783 125.627 131.516 126.076 130.98C126.604 130.348 126.867 129.414 126.867 128.18C126.867 127.23 126.723 126.432 126.434 125.783C126.211 125.283 125.914 124.916 125.543 124.682C125.176 124.443 124.762 124.324 124.301 124.324ZM129.281 125.566C129.508 125.031 129.793 124.619 130.137 124.33C130.484 124.037 130.916 123.891 131.432 123.891C132.068 123.891 132.557 124.098 132.896 124.512C133.154 124.82 133.283 125.15 133.283 125.502C133.283 126.08 132.92 126.678 132.193 127.295C132.682 127.486 133.051 127.76 133.301 128.115C133.551 128.471 133.676 128.889 133.676 129.369C133.676 130.057 133.457 130.652 133.02 131.156C132.449 131.812 131.623 132.141 130.541 132.141C130.006 132.141 129.641 132.074 129.445 131.941C129.254 131.809 129.158 131.666 129.158 131.514C129.158 131.4 129.203 131.301 129.293 131.215C129.387 131.129 129.498 131.086 129.627 131.086C129.725 131.086 129.824 131.102 129.926 131.133C129.992 131.152 130.143 131.225 130.377 131.35C130.611 131.471 130.773 131.543 130.863 131.566C131.008 131.609 131.162 131.631 131.326 131.631C131.725 131.631 132.07 131.477 132.363 131.168C132.66 130.859 132.809 130.494 132.809 130.072C132.809 129.764 132.74 129.463 132.604 129.17C132.502 128.951 132.391 128.785 132.27 128.672C132.102 128.516 131.871 128.375 131.578 128.25C131.285 128.121 130.986 128.057 130.682 128.057H130.494V127.881C130.803 127.842 131.111 127.73 131.42 127.547C131.732 127.363 131.959 127.143 132.1 126.885C132.24 126.627 132.311 126.344 132.311 126.035C132.311 125.633 132.184 125.309 131.93 125.062C131.68 124.812 131.367 124.688 130.992 124.688C130.387 124.688 129.881 125.012 129.475 125.66L129.281 125.566Z" fill="black"/>
<path d="M65.6533 21.5586V22.252H64.7646V24H63.959V22.252H61.1562V21.627L64.2275 17.2422H64.7646V21.5586H65.6533ZM63.959 21.5586V18.2725L61.6348 21.5586H63.959ZM73.1191 20.6211C73.5781 20.7188 73.9215 20.875 74.1494 21.0898C74.4652 21.3893 74.623 21.7555 74.623 22.1885C74.623 22.5173 74.5189 22.833 74.3105 23.1357C74.1022 23.4352 73.8158 23.6549 73.4512 23.7949C73.0898 23.9316 72.5365 24 71.791 24H68.666V23.8193H68.915C69.1917 23.8193 69.3903 23.7314 69.5107 23.5557C69.5856 23.4417 69.623 23.1992 69.623 22.8281V18.5508C69.623 18.1406 69.5758 17.8818 69.4814 17.7744C69.3545 17.6312 69.1657 17.5596 68.915 17.5596H68.666V17.3789H71.5273C72.0612 17.3789 72.4893 17.418 72.8115 17.4961C73.2998 17.6133 73.6725 17.8216 73.9297 18.1211C74.1868 18.4173 74.3154 18.7591 74.3154 19.1465C74.3154 19.4785 74.2145 19.7764 74.0127 20.04C73.8109 20.3005 73.513 20.4941 73.1191 20.6211ZM70.5605 20.3574C70.681 20.3802 70.8177 20.3981 70.9707 20.4111C71.127 20.4209 71.2979 20.4258 71.4834 20.4258C71.9587 20.4258 72.3151 20.3753 72.5527 20.2744C72.7936 20.1702 72.9775 20.0124 73.1045 19.8008C73.2314 19.5892 73.2949 19.3581 73.2949 19.1074C73.2949 18.7201 73.137 18.3896 72.8213 18.1162C72.5055 17.8428 72.0449 17.7061 71.4395 17.7061C71.1139 17.7061 70.821 17.7419 70.5605 17.8135V20.3574ZM70.5605 23.5215C70.9382 23.6094 71.3109 23.6533 71.6787 23.6533C72.2679 23.6533 72.7171 23.5215 73.0264 23.2578C73.3356 22.9909 73.4902 22.6621 73.4902 22.2715C73.4902 22.0143 73.4202 21.7669 73.2803 21.5293C73.1403 21.2917 72.9124 21.1045 72.5967 20.9678C72.2809 20.8311 71.8903 20.7627 71.4248 20.7627C71.223 20.7627 71.0505 20.766 70.9072 20.7725C70.764 20.779 70.6484 20.7904 70.5605 20.8066V23.5215ZM76.6201 17.0566C76.7568 17.0566 76.8724 17.1055 76.9668 17.2031C77.0645 17.2975 77.1133 17.4131 77.1133 17.5498C77.1133 17.6865 77.0645 17.8037 76.9668 17.9014C76.8724 17.999 76.7568 18.0479 76.6201 18.0479C76.4834 18.0479 76.3662 17.999 76.2686 17.9014C76.1709 17.8037 76.1221 17.6865 76.1221 17.5498C76.1221 17.4131 76.1693 17.2975 76.2637 17.2031C76.3613 17.1055 76.4801 17.0566 76.6201 17.0566ZM77.0254 19.3955V22.9893C77.0254 23.2692 77.0449 23.4564 77.084 23.5508C77.1263 23.6419 77.1865 23.7103 77.2646 23.7559C77.346 23.8014 77.4925 23.8242 77.7041 23.8242V24H75.5312V23.8242C75.7493 23.8242 75.8958 23.8031 75.9707 23.7607C76.0456 23.7184 76.1042 23.6484 76.1465 23.5508C76.1921 23.4531 76.2148 23.266 76.2148 22.9893V21.2656C76.2148 20.7806 76.2002 20.4665 76.1709 20.3232C76.1481 20.2191 76.1123 20.1475 76.0635 20.1084C76.0146 20.0661 75.9479 20.0449 75.8633 20.0449C75.7721 20.0449 75.6615 20.0693 75.5312 20.1182L75.4629 19.9424L76.8105 19.3955H77.0254ZM79.5645 18.0576V19.5273H80.6094V19.8691H79.5645V22.7695C79.5645 23.0592 79.6051 23.2546 79.6865 23.3555C79.7712 23.4564 79.8786 23.5068 80.0088 23.5068C80.1162 23.5068 80.2204 23.4743 80.3213 23.4092C80.4222 23.3408 80.5003 23.2415 80.5557 23.1113H80.7461C80.6322 23.4303 80.471 23.6712 80.2627 23.834C80.0544 23.9935 79.8395 24.0732 79.6182 24.0732C79.4684 24.0732 79.3219 24.0326 79.1787 23.9512C79.0355 23.8665 78.9297 23.7477 78.8613 23.5947C78.793 23.4385 78.7588 23.1992 78.7588 22.877V19.8691H78.0508V19.708C78.2298 19.6364 78.4121 19.516 78.5977 19.3467C78.7865 19.1742 78.9541 18.9707 79.1006 18.7363C79.1755 18.6126 79.2796 18.3864 79.4131 18.0576H79.5645ZM89.9941 24H88.2266L85.9854 20.9043C85.8193 20.9108 85.6842 20.9141 85.5801 20.9141C85.5378 20.9141 85.4922 20.9141 85.4434 20.9141C85.3945 20.9108 85.3441 20.9076 85.292 20.9043V22.8281C85.292 23.2448 85.3376 23.5036 85.4287 23.6045C85.5524 23.7477 85.738 23.8193 85.9854 23.8193H86.2441V24H83.4072V23.8193H83.6562C83.9362 23.8193 84.1364 23.7282 84.2568 23.5459C84.3252 23.445 84.3594 23.2057 84.3594 22.8281V18.5508C84.3594 18.1341 84.3138 17.8753 84.2227 17.7744C84.0957 17.6312 83.9069 17.5596 83.6562 17.5596H83.4072V17.3789H85.8193C86.5225 17.3789 87.04 17.431 87.3721 17.5352C87.7074 17.6361 87.9906 17.8249 88.2217 18.1016C88.4561 18.375 88.5732 18.7021 88.5732 19.083C88.5732 19.4899 88.4398 19.8431 88.1729 20.1426C87.9092 20.4421 87.499 20.6536 86.9424 20.7773L88.3096 22.6768C88.6221 23.113 88.8906 23.4027 89.1152 23.5459C89.3398 23.6891 89.6328 23.7803 89.9941 23.8193V24ZM85.292 20.5967C85.3538 20.5967 85.4076 20.5983 85.4531 20.6016C85.4987 20.6016 85.5361 20.6016 85.5654 20.6016C86.1969 20.6016 86.6722 20.4648 86.9912 20.1914C87.3135 19.918 87.4746 19.5697 87.4746 19.1465C87.4746 18.7331 87.3444 18.3978 87.084 18.1406C86.8268 17.8802 86.485 17.75 86.0586 17.75C85.8698 17.75 85.6143 17.7809 85.292 17.8428V20.5967ZM91.3564 17.0566C91.4932 17.0566 91.6087 17.1055 91.7031 17.2031C91.8008 17.2975 91.8496 17.4131 91.8496 17.5498C91.8496 17.6865 91.8008 17.8037 91.7031 17.9014C91.6087 17.999 91.4932 18.0479 91.3564 18.0479C91.2197 18.0479 91.1025 17.999 91.0049 17.9014C90.9072 17.8037 90.8584 17.6865 90.8584 17.5498C90.8584 17.4131 90.9056 17.2975 91 17.2031C91.0977 17.1055 91.2165 17.0566 91.3564 17.0566ZM91.7617 19.3955V22.9893C91.7617 23.2692 91.7812 23.4564 91.8203 23.5508C91.8626 23.6419 91.9229 23.7103 92.001 23.7559C92.0824 23.8014 92.2288 23.8242 92.4404 23.8242V24H90.2676V23.8242C90.4857 23.8242 90.6322 23.8031 90.707 23.7607C90.7819 23.7184 90.8405 23.6484 90.8828 23.5508C90.9284 23.4531 90.9512 23.266 90.9512 22.9893V21.2656C90.9512 20.7806 90.9365 20.4665 90.9072 20.3232C90.8844 20.2191 90.8486 20.1475 90.7998 20.1084C90.751 20.0661 90.6842 20.0449 90.5996 20.0449C90.5085 20.0449 90.3978 20.0693 90.2676 20.1182L90.1992 19.9424L91.5469 19.3955H91.7617ZM94.3057 20.3428C94.8298 19.7113 95.3294 19.3955 95.8047 19.3955C96.0488 19.3955 96.2588 19.4574 96.4346 19.5811C96.6104 19.7015 96.7503 19.9017 96.8545 20.1816C96.9261 20.377 96.9619 20.6764 96.9619 21.0801V22.9893C96.9619 23.2725 96.9847 23.4645 97.0303 23.5654C97.0661 23.6468 97.123 23.7103 97.2012 23.7559C97.2826 23.8014 97.4307 23.8242 97.6455 23.8242V24H95.4336V23.8242H95.5264C95.7347 23.8242 95.8796 23.7933 95.9609 23.7314C96.0456 23.6663 96.1042 23.5719 96.1367 23.4482C96.1497 23.3994 96.1562 23.2464 96.1562 22.9893V21.1582C96.1562 20.7513 96.1025 20.4567 95.9951 20.2744C95.891 20.0889 95.7135 19.9961 95.4629 19.9961C95.0755 19.9961 94.6898 20.2077 94.3057 20.6309V22.9893C94.3057 23.292 94.3236 23.4792 94.3594 23.5508C94.4049 23.6452 94.4668 23.7152 94.5449 23.7607C94.6263 23.8031 94.7891 23.8242 95.0332 23.8242V24H92.8213V23.8242H92.9189C93.1468 23.8242 93.2998 23.7673 93.3779 23.6533C93.4593 23.5361 93.5 23.3148 93.5 22.9893V21.3291C93.5 20.792 93.487 20.4648 93.4609 20.3477C93.4382 20.2305 93.4007 20.1507 93.3486 20.1084C93.2998 20.0661 93.2331 20.0449 93.1484 20.0449C93.0573 20.0449 92.9482 20.0693 92.8213 20.1182L92.748 19.9424L94.0957 19.3955H94.3057V20.3428ZM99.1982 22.3691C98.9248 22.2357 98.7148 22.0501 98.5684 21.8125C98.4219 21.5716 98.3486 21.3063 98.3486 21.0166C98.3486 20.5739 98.5146 20.193 98.8467 19.874C99.182 19.555 99.61 19.3955 100.131 19.3955C100.557 19.3955 100.927 19.4997 101.239 19.708H102.187C102.326 19.708 102.408 19.7129 102.431 19.7227C102.453 19.7292 102.47 19.7422 102.479 19.7617C102.499 19.791 102.509 19.8431 102.509 19.918C102.509 20.0026 102.501 20.0612 102.484 20.0938C102.475 20.11 102.457 20.123 102.431 20.1328C102.408 20.1426 102.326 20.1475 102.187 20.1475H101.605C101.788 20.3818 101.879 20.6813 101.879 21.0459C101.879 21.4626 101.719 21.819 101.4 22.1152C101.081 22.4115 100.653 22.5596 100.116 22.5596C99.8949 22.5596 99.6686 22.527 99.4375 22.4619C99.2943 22.5856 99.1966 22.6947 99.1445 22.7891C99.0957 22.8802 99.0713 22.9583 99.0713 23.0234C99.0713 23.0788 99.0973 23.1325 99.1494 23.1846C99.2048 23.2367 99.3105 23.2741 99.4668 23.2969C99.5579 23.3099 99.7858 23.3213 100.15 23.3311C100.821 23.3473 101.256 23.3701 101.454 23.3994C101.757 23.4417 101.998 23.554 102.177 23.7363C102.359 23.9186 102.45 24.1432 102.45 24.4102C102.45 24.778 102.278 25.123 101.933 25.4453C101.425 25.9206 100.762 26.1582 99.9453 26.1582C99.3171 26.1582 98.7865 26.0166 98.3535 25.7334C98.1094 25.5706 97.9873 25.4014 97.9873 25.2256C97.9873 25.1475 98.0052 25.0693 98.041 24.9912C98.0964 24.8708 98.2103 24.7031 98.3828 24.4883C98.4056 24.459 98.5716 24.2832 98.8809 23.9609C98.7116 23.86 98.5911 23.7705 98.5195 23.6924C98.4512 23.611 98.417 23.5199 98.417 23.4189C98.417 23.305 98.4626 23.1715 98.5537 23.0186C98.6481 22.8656 98.863 22.6491 99.1982 22.3691ZM100.048 19.6299C99.807 19.6299 99.6051 19.7259 99.4424 19.918C99.2796 20.11 99.1982 20.4046 99.1982 20.8018C99.1982 21.3161 99.3089 21.7148 99.5303 21.998C99.6995 22.2129 99.9144 22.3203 100.175 22.3203C100.422 22.3203 100.626 22.2275 100.785 22.042C100.945 21.8564 101.024 21.5651 101.024 21.168C101.024 20.6504 100.912 20.2451 100.688 19.9521C100.521 19.7373 100.308 19.6299 100.048 19.6299ZM99.1494 24C98.9964 24.166 98.8809 24.3206 98.8027 24.4639C98.7246 24.6071 98.6855 24.7389 98.6855 24.8594C98.6855 25.0156 98.7799 25.1523 98.9688 25.2695C99.2943 25.4714 99.7646 25.5723 100.38 25.5723C100.966 25.5723 101.397 25.4681 101.674 25.2598C101.954 25.0547 102.094 24.835 102.094 24.6006C102.094 24.4313 102.011 24.3109 101.845 24.2393C101.675 24.1676 101.34 24.1253 100.839 24.1123C100.106 24.0928 99.5433 24.0553 99.1494 24ZM111.21 17.2275L111.361 19.4785H111.21C111.008 18.8047 110.72 18.3197 110.346 18.0234C109.971 17.7272 109.522 17.5791 108.998 17.5791C108.559 17.5791 108.161 17.6914 107.807 17.916C107.452 18.1374 107.172 18.4922 106.967 18.9805C106.765 19.4688 106.664 20.0758 106.664 20.8018C106.664 21.4007 106.76 21.9199 106.952 22.3594C107.144 22.7988 107.432 23.1357 107.816 23.3701C108.204 23.6045 108.645 23.7217 109.14 23.7217C109.569 23.7217 109.949 23.6305 110.277 23.4482C110.606 23.2627 110.967 22.8965 111.361 22.3496L111.513 22.4473C111.181 23.0365 110.793 23.4678 110.351 23.7412C109.908 24.0146 109.382 24.1514 108.773 24.1514C107.676 24.1514 106.827 23.7445 106.225 22.9307C105.775 22.3252 105.551 21.6123 105.551 20.792C105.551 20.1312 105.699 19.5241 105.995 18.9707C106.291 18.4173 106.698 17.9893 107.216 17.6865C107.737 17.3805 108.305 17.2275 108.92 17.2275C109.398 17.2275 109.87 17.3447 110.336 17.5791C110.473 17.6507 110.57 17.6865 110.629 17.6865C110.717 17.6865 110.793 17.6556 110.858 17.5938C110.943 17.5059 111.003 17.3838 111.039 17.2275H111.21ZM114.359 19.3955C115.036 19.3955 115.58 19.6527 115.99 20.167C116.339 20.6064 116.513 21.111 116.513 21.6807C116.513 22.0811 116.417 22.4863 116.225 22.8965C116.033 23.3066 115.767 23.6159 115.429 23.8242C115.093 24.0326 114.719 24.1367 114.306 24.1367C113.632 24.1367 113.096 23.8682 112.699 23.3311C112.364 22.8786 112.196 22.3708 112.196 21.8076C112.196 21.3975 112.297 20.9906 112.499 20.5869C112.704 20.18 112.973 19.8805 113.305 19.6885C113.637 19.4932 113.988 19.3955 114.359 19.3955ZM114.208 19.7129C114.035 19.7129 113.861 19.765 113.686 19.8691C113.513 19.9701 113.373 20.1491 113.266 20.4062C113.158 20.6634 113.104 20.9938 113.104 21.3975C113.104 22.0485 113.233 22.61 113.49 23.082C113.751 23.554 114.092 23.79 114.516 23.79C114.831 23.79 115.092 23.6598 115.297 23.3994C115.502 23.139 115.604 22.6914 115.604 22.0566C115.604 21.2624 115.434 20.6374 115.092 20.1816C114.861 19.8691 114.566 19.7129 114.208 19.7129ZM121.093 19.5273V22.2373C121.093 22.7549 121.104 23.0723 121.127 23.1895C121.153 23.3034 121.192 23.3831 121.244 23.4287C121.299 23.4743 121.363 23.4971 121.435 23.4971C121.535 23.4971 121.649 23.4694 121.776 23.4141L121.845 23.585L120.507 24.1367H120.287V23.1895C119.903 23.6061 119.61 23.8682 119.408 23.9756C119.206 24.083 118.993 24.1367 118.769 24.1367C118.518 24.1367 118.3 24.0651 118.114 23.9219C117.932 23.7754 117.805 23.5882 117.733 23.3604C117.662 23.1325 117.626 22.8102 117.626 22.3936V20.3965C117.626 20.1849 117.603 20.0384 117.558 19.957C117.512 19.8757 117.444 19.8138 117.353 19.7715C117.265 19.7259 117.104 19.7048 116.869 19.708V19.5273H118.437V22.5205C118.437 22.9372 118.508 23.2106 118.651 23.3408C118.798 23.471 118.974 23.5361 119.179 23.5361C119.319 23.5361 119.477 23.4922 119.652 23.4043C119.831 23.3164 120.043 23.1488 120.287 22.9014V20.3672C120.287 20.1133 120.24 19.9424 120.146 19.8545C120.054 19.7633 119.862 19.7145 119.569 19.708V19.5273H121.093ZM123.476 20.3428C124 19.7113 124.499 19.3955 124.975 19.3955C125.219 19.3955 125.429 19.4574 125.604 19.5811C125.78 19.7015 125.92 19.9017 126.024 20.1816C126.096 20.377 126.132 20.6764 126.132 21.0801V22.9893C126.132 23.2725 126.155 23.4645 126.2 23.5654C126.236 23.6468 126.293 23.7103 126.371 23.7559C126.452 23.8014 126.601 23.8242 126.815 23.8242V24H124.604V23.8242H124.696C124.905 23.8242 125.049 23.7933 125.131 23.7314C125.215 23.6663 125.274 23.5719 125.307 23.4482C125.32 23.3994 125.326 23.2464 125.326 22.9893V21.1582C125.326 20.7513 125.272 20.4567 125.165 20.2744C125.061 20.0889 124.883 19.9961 124.633 19.9961C124.245 19.9961 123.86 20.2077 123.476 20.6309V22.9893C123.476 23.292 123.493 23.4792 123.529 23.5508C123.575 23.6452 123.637 23.7152 123.715 23.7607C123.796 23.8031 123.959 23.8242 124.203 23.8242V24H121.991V23.8242H122.089C122.317 23.8242 122.47 23.7673 122.548 23.6533C122.629 23.5361 122.67 23.3148 122.67 22.9893V21.3291C122.67 20.792 122.657 20.4648 122.631 20.3477C122.608 20.2305 122.571 20.1507 122.519 20.1084C122.47 20.0661 122.403 20.0449 122.318 20.0449C122.227 20.0449 122.118 20.0693 121.991 20.1182L121.918 19.9424L123.266 19.3955H123.476V20.3428ZM128.471 18.0576V19.5273H129.516V19.8691H128.471V22.7695C128.471 23.0592 128.511 23.2546 128.593 23.3555C128.677 23.4564 128.785 23.5068 128.915 23.5068C129.022 23.5068 129.127 23.4743 129.228 23.4092C129.328 23.3408 129.407 23.2415 129.462 23.1113H129.652C129.538 23.4303 129.377 23.6712 129.169 23.834C128.961 23.9935 128.746 24.0732 128.524 24.0732C128.375 24.0732 128.228 24.0326 128.085 23.9512C127.942 23.8665 127.836 23.7477 127.768 23.5947C127.699 23.4385 127.665 23.1992 127.665 22.877V19.8691H126.957V19.708C127.136 19.6364 127.318 19.516 127.504 19.3467C127.693 19.1742 127.86 18.9707 128.007 18.7363C128.082 18.6126 128.186 18.3864 128.319 18.0576H128.471ZM130.707 21.2119C130.704 21.876 130.865 22.3968 131.19 22.7744C131.516 23.152 131.898 23.3408 132.338 23.3408C132.631 23.3408 132.885 23.2611 133.1 23.1016C133.318 22.9388 133.5 22.6621 133.646 22.2715L133.798 22.3691C133.729 22.8151 133.531 23.222 133.202 23.5898C132.873 23.9544 132.462 24.1367 131.967 24.1367C131.43 24.1367 130.969 23.9284 130.585 23.5117C130.204 23.0918 130.014 22.5286 130.014 21.8223C130.014 21.0573 130.209 20.4616 130.6 20.0352C130.993 19.6055 131.487 19.3906 132.079 19.3906C132.58 19.3906 132.992 19.5566 133.314 19.8887C133.637 20.2174 133.798 20.6585 133.798 21.2119H130.707ZM130.707 20.9287H132.777C132.761 20.6423 132.727 20.4404 132.675 20.3232C132.593 20.141 132.471 19.9977 132.309 19.8936C132.149 19.7894 131.981 19.7373 131.806 19.7373C131.535 19.7373 131.293 19.8431 131.078 20.0547C130.867 20.263 130.743 20.5544 130.707 20.9287ZM135.707 19.3955V20.4014C136.081 19.7308 136.465 19.3955 136.859 19.3955C137.038 19.3955 137.187 19.4508 137.304 19.5615C137.421 19.6689 137.479 19.7943 137.479 19.9375C137.479 20.0645 137.437 20.1719 137.353 20.2598C137.268 20.3477 137.167 20.3916 137.05 20.3916C136.936 20.3916 136.807 20.3363 136.664 20.2256C136.524 20.1117 136.42 20.0547 136.352 20.0547C136.293 20.0547 136.229 20.0872 136.161 20.1523C136.015 20.2858 135.863 20.5055 135.707 20.8115V22.9551C135.707 23.2025 135.738 23.3896 135.8 23.5166C135.842 23.6045 135.917 23.6777 136.024 23.7363C136.132 23.7949 136.286 23.8242 136.488 23.8242V24H134.198V23.8242C134.426 23.8242 134.595 23.7884 134.706 23.7168C134.787 23.6647 134.844 23.5817 134.877 23.4678C134.893 23.4124 134.901 23.2546 134.901 22.9941V21.2607C134.901 20.7399 134.89 20.4307 134.867 20.333C134.848 20.2321 134.809 20.1589 134.75 20.1133C134.695 20.0677 134.625 20.0449 134.54 20.0449C134.439 20.0449 134.325 20.0693 134.198 20.1182L134.149 19.9424L135.502 19.3955H135.707Z" fill="black"/>
<circle cx="65" cy="131" r="3" fill="white" stroke="black" stroke-width="2"/>
</svg>
