<svg width="200" height="200" viewBox="0 0 200 200" fill="none" xmlns="http://www.w3.org/2000/svg">
<rect width="200" height="200" fill="white"/>
<line y1="66" x2="67" y2="66" stroke="black" stroke-width="2"/>
<line y1="131" x2="67" y2="131" stroke="black" stroke-width="2"/>
<line x1="130" y1="77" x2="200" y2="77" stroke="black" stroke-width="2"/>
<line x1="130" y1="129" x2="200" y2="129" stroke="black" stroke-width="2"/>
<line x1="130" y1="113" x2="200" y2="113" stroke="black" stroke-width="2"/>
<line x1="130" y1="95" x2="200" y2="95" stroke="black" stroke-width="2"/>
<rect x="68.5" y="51.5" width="71" height="97" fill="white" stroke="black" stroke-width="3"/>
<path d="M79.2246 63.873L79.4062 66.5742H79.2246C78.9824 65.7656 78.6367 65.1836 78.1875 64.8281C77.7383 64.4727 77.1992 64.2949 76.5703 64.2949C76.043 64.2949 75.5664 64.4297 75.1406 64.6992C74.7148 64.9648 74.3789 65.3906 74.1328 65.9766C73.8906 66.5625 73.7695 67.291 73.7695 68.1621C73.7695 68.8809 73.8848 69.5039 74.1152 70.0312C74.3457 70.5586 74.6914 70.9629 75.1523 71.2441C75.6172 71.5254 76.1465 71.666 76.7402 71.666C77.2559 71.666 77.7109 71.5566 78.1055 71.3379C78.5 71.1152 78.9336 70.6758 79.4062 70.0195L79.5879 70.1367C79.1895 70.8438 78.7246 71.3613 78.1934 71.6895C77.6621 72.0176 77.0312 72.1816 76.3008 72.1816C74.9844 72.1816 73.9648 71.6934 73.2422 70.7168C72.7031 69.9902 72.4336 69.1348 72.4336 68.1504C72.4336 67.3574 72.6113 66.6289 72.9668 65.9648C73.3223 65.3008 73.8105 64.7871 74.4316 64.4238C75.0566 64.0566 75.7383 63.873 76.4766 63.873C77.0508 63.873 77.6172 64.0137 78.1758 64.2949C78.3398 64.3809 78.457 64.4238 78.5273 64.4238C78.6328 64.4238 78.7246 64.3867 78.8027 64.3125C78.9043 64.207 78.9766 64.0605 79.0195 63.873H79.2246ZM79.8457 64.0547H82.002L86.8594 70.0137V65.4316C86.8594 64.9434 86.8047 64.6387 86.6953 64.5176C86.5508 64.3535 86.3223 64.2715 86.0098 64.2715H85.7344V64.0547H88.5V64.2715H88.2188C87.8828 64.2715 87.6445 64.373 87.5039 64.5762C87.418 64.7012 87.375 64.9863 87.375 65.4316V72.1289H87.1641L81.9258 65.7305V70.623C81.9258 71.1113 81.9785 71.416 82.084 71.5371C82.2324 71.7012 82.4609 71.7832 82.7695 71.7832H83.0508V72H80.2852V71.7832H80.5605C80.9004 71.7832 81.1406 71.6816 81.2812 71.4785C81.3672 71.3535 81.4102 71.0684 81.4102 70.623V65.0977C81.1797 64.8281 81.0039 64.6504 80.8828 64.5645C80.7656 64.4785 80.5918 64.3984 80.3613 64.3242C80.248 64.2891 80.0762 64.2715 79.8457 64.2715V64.0547ZM95.6191 64.0547L95.707 65.918H95.4844C95.4414 65.5898 95.3828 65.3555 95.3086 65.2148C95.1875 64.9883 95.0254 64.8223 94.8223 64.7168C94.623 64.6074 94.3594 64.5527 94.0312 64.5527H92.9121V70.623C92.9121 71.1113 92.9648 71.416 93.0703 71.5371C93.2188 71.7012 93.4473 71.7832 93.7559 71.7832H94.0312V72H90.6621V71.7832H90.9434C91.2793 71.7832 91.5176 71.6816 91.6582 71.4785C91.7441 71.3535 91.7871 71.0684 91.7871 70.623V64.5527H90.832C90.4609 64.5527 90.1973 64.5801 90.041 64.6348C89.8379 64.709 89.6641 64.8516 89.5195 65.0625C89.375 65.2734 89.2891 65.5586 89.2617 65.918H89.0391L89.1328 64.0547H95.6191Z" fill="black"/>
<path d="M80.1094 132H77.9883L75.2988 128.285C75.0996 128.293 74.9375 128.297 74.8125 128.297C74.7617 128.297 74.707 128.297 74.6484 128.297C74.5898 128.293 74.5293 128.289 74.4668 128.285V130.594C74.4668 131.094 74.5215 131.404 74.6309 131.525C74.7793 131.697 75.002 131.783 75.2988 131.783H75.6094V132H72.2051V131.783H72.5039C72.8398 131.783 73.0801 131.674 73.2246 131.455C73.3066 131.334 73.3477 131.047 73.3477 130.594V125.461C73.3477 124.961 73.293 124.65 73.1836 124.529C73.0312 124.357 72.8047 124.271 72.5039 124.271H72.2051V124.055H75.0996C75.9434 124.055 76.5645 124.117 76.9629 124.242C77.3652 124.363 77.7051 124.59 77.9824 124.922C78.2637 125.25 78.4043 125.643 78.4043 126.1C78.4043 126.588 78.2441 127.012 77.9238 127.371C77.6074 127.73 77.1152 127.984 76.4473 128.133L78.0879 130.412C78.4629 130.936 78.7852 131.283 79.0547 131.455C79.3242 131.627 79.6758 131.736 80.1094 131.783V132ZM74.4668 127.916C74.541 127.916 74.6055 127.918 74.6602 127.922C74.7148 127.922 74.7598 127.922 74.7949 127.922C75.5527 127.922 76.123 127.758 76.5059 127.43C76.8926 127.102 77.0859 126.684 77.0859 126.176C77.0859 125.68 76.9297 125.277 76.6172 124.969C76.3086 124.656 75.8984 124.5 75.3867 124.5C75.1602 124.5 74.8535 124.537 74.4668 124.611V127.916ZM85.5059 123.873V126.621H85.2891C85.2188 126.094 85.0918 125.674 84.9082 125.361C84.7285 125.049 84.4707 124.801 84.1348 124.617C83.7988 124.434 83.4512 124.342 83.0918 124.342C82.6855 124.342 82.3496 124.467 82.084 124.717C81.8184 124.963 81.6855 125.244 81.6855 125.561C81.6855 125.803 81.7695 126.023 81.9375 126.223C82.1797 126.516 82.7559 126.906 83.666 127.395C84.4082 127.793 84.9141 128.1 85.1836 128.314C85.457 128.525 85.666 128.775 85.8105 129.064C85.959 129.354 86.0332 129.656 86.0332 129.973C86.0332 130.574 85.7988 131.094 85.3301 131.531C84.8652 131.965 84.2656 132.182 83.5312 132.182C83.3008 132.182 83.084 132.164 82.8809 132.129C82.7598 132.109 82.5078 132.039 82.125 131.918C81.7461 131.793 81.5059 131.73 81.4043 131.73C81.3066 131.73 81.2285 131.76 81.1699 131.818C81.1152 131.877 81.0742 131.998 81.0469 132.182H80.8301V129.457H81.0469C81.1484 130.027 81.2852 130.455 81.457 130.74C81.6289 131.021 81.8906 131.256 82.2422 131.443C82.5977 131.631 82.9863 131.725 83.4082 131.725C83.8965 131.725 84.2812 131.596 84.5625 131.338C84.8477 131.08 84.9902 130.775 84.9902 130.424C84.9902 130.229 84.9355 130.031 84.8262 129.832C84.7207 129.633 84.5547 129.447 84.3281 129.275C84.1758 129.158 83.7598 128.91 83.0801 128.531C82.4004 128.148 81.916 127.844 81.627 127.617C81.3418 127.391 81.125 127.141 80.9766 126.867C80.8281 126.594 80.7539 126.293 80.7539 125.965C80.7539 125.395 80.9727 124.904 81.4102 124.494C81.8477 124.08 82.4043 123.873 83.0801 123.873C83.502 123.873 83.9492 123.977 84.4219 124.184C84.6406 124.281 84.7949 124.33 84.8848 124.33C84.9863 124.33 85.0684 124.301 85.1309 124.242C85.1973 124.18 85.25 124.057 85.2891 123.873H85.5059ZM93.627 124.055L93.7148 125.918H93.4922C93.4492 125.59 93.3906 125.355 93.3164 125.215C93.1953 124.988 93.0332 124.822 92.8301 124.717C92.6309 124.607 92.3672 124.553 92.0391 124.553H90.9199V130.623C90.9199 131.111 90.9727 131.416 91.0781 131.537C91.2266 131.701 91.4551 131.783 91.7637 131.783H92.0391V132H88.6699V131.783H88.9512C89.2871 131.783 89.5254 131.682 89.666 131.479C89.752 131.354 89.7949 131.068 89.7949 130.623V124.553H88.8398C88.4688 124.553 88.2051 124.58 88.0488 124.635C87.8457 124.709 87.6719 124.852 87.5273 125.062C87.3828 125.273 87.2969 125.559 87.2695 125.918H87.0469L87.1406 124.055H93.627Z" fill="black"/>
<path d="M125.285 78.0879C125.684 78.7754 126.113 79.2812 126.574 79.6055C127.039 79.9297 127.566 80.1152 128.156 80.1621V80.3496C127.617 80.3301 127.041 80.2207 126.428 80.0215C125.814 79.8262 125.232 79.5527 124.682 79.2012C124.135 78.8535 123.662 78.4824 123.264 78.0879C122.701 77.8613 122.256 77.6211 121.928 77.3672C121.451 76.9883 121.08 76.5234 120.814 75.9727C120.553 75.418 120.422 74.7637 120.422 74.0098C120.422 72.8223 120.807 71.8359 121.576 71.0508C122.346 70.2656 123.277 69.873 124.371 69.873C125.41 69.873 126.309 70.2676 127.066 71.0566C127.828 71.8418 128.209 72.834 128.209 74.0332C128.209 75.0059 127.938 75.8594 127.395 76.5938C126.855 77.3281 126.152 77.8262 125.285 78.0879ZM124.301 70.3242C123.59 70.3242 123.018 70.5781 122.584 71.0859C122.037 71.7227 121.764 72.6973 121.764 74.0098C121.764 75.2949 122.041 76.2852 122.596 76.9805C123.025 77.5156 123.594 77.7832 124.301 77.7832C125.035 77.7832 125.627 77.5156 126.076 76.9805C126.604 76.3477 126.867 75.4141 126.867 74.1797C126.867 73.2305 126.723 72.4316 126.434 71.7832C126.211 71.2832 125.914 70.916 125.543 70.6816C125.176 70.4434 124.762 70.3242 124.301 70.3242ZM129.105 74.0742C129.105 73.168 129.242 72.3887 129.516 71.7363C129.789 71.0801 130.152 70.5918 130.605 70.2715C130.957 70.0176 131.32 69.8906 131.695 69.8906C132.305 69.8906 132.852 70.2012 133.336 70.8223C133.941 71.5918 134.244 72.6348 134.244 73.9512C134.244 74.873 134.111 75.6562 133.846 76.3008C133.58 76.9453 133.24 77.4141 132.826 77.707C132.416 77.9961 132.02 78.1406 131.637 78.1406C130.879 78.1406 130.248 77.6934 129.744 76.7988C129.318 76.0449 129.105 75.1367 129.105 74.0742ZM130.254 74.2207C130.254 75.3145 130.389 76.207 130.658 76.8984C130.881 77.4805 131.213 77.7715 131.654 77.7715C131.865 77.7715 132.084 77.6777 132.311 77.4902C132.537 77.2988 132.709 76.9805 132.826 76.5352C133.006 75.8633 133.096 74.916 133.096 73.6934C133.096 72.7871 133.002 72.0312 132.814 71.4258C132.674 70.9766 132.492 70.6582 132.27 70.4707C132.109 70.3418 131.916 70.2773 131.689 70.2773C131.424 70.2773 131.188 70.3965 130.98 70.6348C130.699 70.959 130.508 71.4688 130.406 72.1641C130.305 72.8594 130.254 73.5449 130.254 74.2207Z" fill="black"/>
<path d="M125.285 96.0879C125.684 96.7754 126.113 97.2812 126.574 97.6055C127.039 97.9297 127.566 98.1152 128.156 98.1621V98.3496C127.617 98.3301 127.041 98.2207 126.428 98.0215C125.814 97.8262 125.232 97.5527 124.682 97.2012C124.135 96.8535 123.662 96.4824 123.264 96.0879C122.701 95.8613 122.256 95.6211 121.928 95.3672C121.451 94.9883 121.08 94.5234 120.814 93.9727C120.553 93.418 120.422 92.7637 120.422 92.0098C120.422 90.8223 120.807 89.8359 121.576 89.0508C122.346 88.2656 123.277 87.873 124.371 87.873C125.41 87.873 126.309 88.2676 127.066 89.0566C127.828 89.8418 128.209 90.834 128.209 92.0332C128.209 93.0059 127.938 93.8594 127.395 94.5938C126.855 95.3281 126.152 95.8262 125.285 96.0879ZM124.301 88.3242C123.59 88.3242 123.018 88.5781 122.584 89.0859C122.037 89.7227 121.764 90.6973 121.764 92.0098C121.764 93.2949 122.041 94.2852 122.596 94.9805C123.025 95.5156 123.594 95.7832 124.301 95.7832C125.035 95.7832 125.627 95.5156 126.076 94.9805C126.604 94.3477 126.867 93.4141 126.867 92.1797C126.867 91.2305 126.723 90.4316 126.434 89.7832C126.211 89.2832 125.914 88.916 125.543 88.6816C125.176 88.4434 124.762 88.3242 124.301 88.3242ZM130.078 88.834L132.012 87.8906H132.205V94.5996C132.205 95.0449 132.223 95.3223 132.258 95.4316C132.297 95.541 132.375 95.625 132.492 95.6836C132.609 95.7422 132.848 95.7754 133.207 95.7832V96H130.219V95.7832C130.594 95.7754 130.836 95.7441 130.945 95.6895C131.055 95.6309 131.131 95.5547 131.174 95.4609C131.217 95.3633 131.238 95.0762 131.238 94.5996V90.3105C131.238 89.7324 131.219 89.3613 131.18 89.1973C131.152 89.0723 131.102 88.9805 131.027 88.9219C130.957 88.8633 130.871 88.834 130.77 88.834C130.625 88.834 130.424 88.8945 130.166 89.0156L130.078 88.834Z" fill="black"/>
<path d="M125.285 114.088C125.684 114.775 126.113 115.281 126.574 115.605C127.039 115.93 127.566 116.115 128.156 116.162V116.35C127.617 116.33 127.041 116.221 126.428 116.021C125.814 115.826 125.232 115.553 124.682 115.201C124.135 114.854 123.662 114.482 123.264 114.088C122.701 113.861 122.256 113.621 121.928 113.367C121.451 112.988 121.08 112.523 120.814 111.973C120.553 111.418 120.422 110.764 120.422 110.01C120.422 108.822 120.807 107.836 121.576 107.051C122.346 106.266 123.277 105.873 124.371 105.873C125.41 105.873 126.309 106.268 127.066 107.057C127.828 107.842 128.209 108.834 128.209 110.033C128.209 111.006 127.938 111.859 127.395 112.594C126.855 113.328 126.152 113.826 125.285 114.088ZM124.301 106.324C123.59 106.324 123.018 106.578 122.584 107.086C122.037 107.723 121.764 108.697 121.764 110.01C121.764 111.295 122.041 112.285 122.596 112.98C123.025 113.516 123.594 113.783 124.301 113.783C125.035 113.783 125.627 113.516 126.076 112.98C126.604 112.348 126.867 111.414 126.867 110.18C126.867 109.23 126.723 108.432 126.434 107.783C126.211 107.283 125.914 106.916 125.543 106.682C125.176 106.443 124.762 106.324 124.301 106.324ZM134.174 112.471L133.617 114H128.93V113.783C130.309 112.525 131.279 111.498 131.842 110.701C132.404 109.904 132.686 109.176 132.686 108.516C132.686 108.012 132.531 107.598 132.223 107.273C131.914 106.949 131.545 106.787 131.115 106.787C130.725 106.787 130.373 106.902 130.061 107.133C129.752 107.359 129.523 107.693 129.375 108.135H129.158C129.256 107.412 129.506 106.857 129.908 106.471C130.314 106.084 130.82 105.891 131.426 105.891C132.07 105.891 132.607 106.098 133.037 106.512C133.471 106.926 133.688 107.414 133.688 107.977C133.688 108.379 133.594 108.781 133.406 109.184C133.117 109.816 132.648 110.486 132 111.193C131.027 112.256 130.42 112.896 130.178 113.115H132.252C132.674 113.115 132.969 113.1 133.137 113.068C133.309 113.037 133.463 112.975 133.6 112.881C133.736 112.783 133.855 112.646 133.957 112.471H134.174Z" fill="black"/>
<path d="M125.285 132.088C125.684 132.775 126.113 133.281 126.574 133.605C127.039 133.93 127.566 134.115 128.156 134.162V134.35C127.617 134.33 127.041 134.221 126.428 134.021C125.814 133.826 125.232 133.553 124.682 133.201C124.135 132.854 123.662 132.482 123.264 132.088C122.701 131.861 122.256 131.621 121.928 131.367C121.451 130.988 121.08 130.523 120.814 129.973C120.553 129.418 120.422 128.764 120.422 128.01C120.422 126.822 120.807 125.836 121.576 125.051C122.346 124.266 123.277 123.873 124.371 123.873C125.41 123.873 126.309 124.268 127.066 125.057C127.828 125.842 128.209 126.834 128.209 128.033C128.209 129.006 127.938 129.859 127.395 130.594C126.855 131.328 126.152 131.826 125.285 132.088ZM124.301 124.324C123.59 124.324 123.018 124.578 122.584 125.086C122.037 125.723 121.764 126.697 121.764 128.01C121.764 129.295 122.041 130.285 122.596 130.98C123.025 131.516 123.594 131.783 124.301 131.783C125.035 131.783 125.627 131.516 126.076 130.98C126.604 130.348 126.867 129.414 126.867 128.18C126.867 127.23 126.723 126.432 126.434 125.783C126.211 125.283 125.914 124.916 125.543 124.682C125.176 124.443 124.762 124.324 124.301 124.324ZM129.281 125.566C129.508 125.031 129.793 124.619 130.137 124.33C130.484 124.037 130.916 123.891 131.432 123.891C132.068 123.891 132.557 124.098 132.896 124.512C133.154 124.82 133.283 125.15 133.283 125.502C133.283 126.08 132.92 126.678 132.193 127.295C132.682 127.486 133.051 127.76 133.301 128.115C133.551 128.471 133.676 128.889 133.676 129.369C133.676 130.057 133.457 130.652 133.02 131.156C132.449 131.812 131.623 132.141 130.541 132.141C130.006 132.141 129.641 132.074 129.445 131.941C129.254 131.809 129.158 131.666 129.158 131.514C129.158 131.4 129.203 131.301 129.293 131.215C129.387 131.129 129.498 131.086 129.627 131.086C129.725 131.086 129.824 131.102 129.926 131.133C129.992 131.152 130.143 131.225 130.377 131.35C130.611 131.471 130.773 131.543 130.863 131.566C131.008 131.609 131.162 131.631 131.326 131.631C131.725 131.631 132.07 131.477 132.363 131.168C132.66 130.859 132.809 130.494 132.809 130.072C132.809 129.764 132.74 129.463 132.604 129.17C132.502 128.951 132.391 128.785 132.27 128.672C132.102 128.516 131.871 128.375 131.578 128.25C131.285 128.121 130.986 128.057 130.682 128.057H130.494V127.881C130.803 127.842 131.111 127.73 131.42 127.547C131.732 127.363 131.959 127.143 132.1 126.885C132.24 126.627 132.311 126.344 132.311 126.035C132.311 125.633 132.184 125.309 131.93 125.062C131.68 124.812 131.367 124.688 130.992 124.688C130.387 124.688 129.881 125.012 129.475 125.66L129.281 125.566Z" fill="black"/>
<path d="M56.6533 21.5586V22.252H55.7646V24H54.959V22.252H52.1562V21.627L55.2275 17.2422H55.7646V21.5586H56.6533ZM54.959 21.5586V18.2725L52.6348 21.5586H54.959ZM64.1191 20.6211C64.5781 20.7188 64.9215 20.875 65.1494 21.0898C65.4652 21.3893 65.623 21.7555 65.623 22.1885C65.623 22.5173 65.5189 22.833 65.3105 23.1357C65.1022 23.4352 64.8158 23.6549 64.4512 23.7949C64.0898 23.9316 63.5365 24 62.791 24H59.666V23.8193H59.915C60.1917 23.8193 60.3903 23.7314 60.5107 23.5557C60.5856 23.4417 60.623 23.1992 60.623 22.8281V18.5508C60.623 18.1406 60.5758 17.8818 60.4814 17.7744C60.3545 17.6312 60.1657 17.5596 59.915 17.5596H59.666V17.3789H62.5273C63.0612 17.3789 63.4893 17.418 63.8115 17.4961C64.2998 17.6133 64.6725 17.8216 64.9297 18.1211C65.1868 18.4173 65.3154 18.7591 65.3154 19.1465C65.3154 19.4785 65.2145 19.7764 65.0127 20.04C64.8109 20.3005 64.513 20.4941 64.1191 20.6211ZM61.5605 20.3574C61.681 20.3802 61.8177 20.3981 61.9707 20.4111C62.127 20.4209 62.2979 20.4258 62.4834 20.4258C62.9587 20.4258 63.3151 20.3753 63.5527 20.2744C63.7936 20.1702 63.9775 20.0124 64.1045 19.8008C64.2314 19.5892 64.2949 19.3581 64.2949 19.1074C64.2949 18.7201 64.137 18.3896 63.8213 18.1162C63.5055 17.8428 63.0449 17.7061 62.4395 17.7061C62.1139 17.7061 61.821 17.7419 61.5605 17.8135V20.3574ZM61.5605 23.5215C61.9382 23.6094 62.3109 23.6533 62.6787 23.6533C63.2679 23.6533 63.7171 23.5215 64.0264 23.2578C64.3356 22.9909 64.4902 22.6621 64.4902 22.2715C64.4902 22.0143 64.4202 21.7669 64.2803 21.5293C64.1403 21.2917 63.9124 21.1045 63.5967 20.9678C63.2809 20.8311 62.8903 20.7627 62.4248 20.7627C62.223 20.7627 62.0505 20.766 61.9072 20.7725C61.764 20.779 61.6484 20.7904 61.5605 20.8066V23.5215ZM67.6201 17.0566C67.7568 17.0566 67.8724 17.1055 67.9668 17.2031C68.0645 17.2975 68.1133 17.4131 68.1133 17.5498C68.1133 17.6865 68.0645 17.8037 67.9668 17.9014C67.8724 17.999 67.7568 18.0479 67.6201 18.0479C67.4834 18.0479 67.3662 17.999 67.2686 17.9014C67.1709 17.8037 67.1221 17.6865 67.1221 17.5498C67.1221 17.4131 67.1693 17.2975 67.2637 17.2031C67.3613 17.1055 67.4801 17.0566 67.6201 17.0566ZM68.0254 19.3955V22.9893C68.0254 23.2692 68.0449 23.4564 68.084 23.5508C68.1263 23.6419 68.1865 23.7103 68.2646 23.7559C68.346 23.8014 68.4925 23.8242 68.7041 23.8242V24H66.5312V23.8242C66.7493 23.8242 66.8958 23.8031 66.9707 23.7607C67.0456 23.7184 67.1042 23.6484 67.1465 23.5508C67.1921 23.4531 67.2148 23.266 67.2148 22.9893V21.2656C67.2148 20.7806 67.2002 20.4665 67.1709 20.3232C67.1481 20.2191 67.1123 20.1475 67.0635 20.1084C67.0146 20.0661 66.9479 20.0449 66.8633 20.0449C66.7721 20.0449 66.6615 20.0693 66.5312 20.1182L66.4629 19.9424L67.8105 19.3955H68.0254ZM70.5645 18.0576V19.5273H71.6094V19.8691H70.5645V22.7695C70.5645 23.0592 70.6051 23.2546 70.6865 23.3555C70.7712 23.4564 70.8786 23.5068 71.0088 23.5068C71.1162 23.5068 71.2204 23.4743 71.3213 23.4092C71.4222 23.3408 71.5003 23.2415 71.5557 23.1113H71.7461C71.6322 23.4303 71.471 23.6712 71.2627 23.834C71.0544 23.9935 70.8395 24.0732 70.6182 24.0732C70.4684 24.0732 70.3219 24.0326 70.1787 23.9512C70.0355 23.8665 69.9297 23.7477 69.8613 23.5947C69.793 23.4385 69.7588 23.1992 69.7588 22.877V19.8691H69.0508V19.708C69.2298 19.6364 69.4121 19.516 69.5977 19.3467C69.7865 19.1742 69.9541 18.9707 70.1006 18.7363C70.1755 18.6126 70.2796 18.3864 70.4131 18.0576H70.5645ZM75.2324 17.5596V17.3789H78.0693V17.5596H77.8301C77.5599 17.5596 77.363 17.6393 77.2393 17.7988C77.1611 17.903 77.1221 18.1536 77.1221 18.5508V21.7881C77.1221 22.2861 77.0667 22.6898 76.9561 22.999C76.8486 23.3083 76.6615 23.5785 76.3945 23.8096C76.1276 24.0374 75.8053 24.1514 75.4277 24.1514C75.1217 24.1514 74.8809 24.0765 74.7051 23.9268C74.5293 23.7738 74.4414 23.5996 74.4414 23.4043C74.4414 23.2448 74.4821 23.1243 74.5635 23.043C74.6709 22.9421 74.7962 22.8916 74.9395 22.8916C75.0436 22.8916 75.1364 22.9258 75.2178 22.9941C75.3024 23.0625 75.4082 23.2448 75.5352 23.541C75.61 23.7168 75.7061 23.8047 75.8232 23.8047C75.9111 23.8047 75.9925 23.751 76.0674 23.6436C76.1455 23.5361 76.1846 23.3457 76.1846 23.0723V18.5508C76.1846 18.2155 76.1634 17.9941 76.1211 17.8867C76.0885 17.8053 76.0202 17.7354 75.916 17.6768C75.776 17.5986 75.6279 17.5596 75.4717 17.5596H75.2324ZM80.6328 19.3955C81.3099 19.3955 81.8535 19.6527 82.2637 20.167C82.612 20.6064 82.7861 21.111 82.7861 21.6807C82.7861 22.0811 82.6901 22.4863 82.498 22.8965C82.306 23.3066 82.0407 23.6159 81.7021 23.8242C81.3669 24.0326 80.9925 24.1367 80.5791 24.1367C79.9053 24.1367 79.3698 23.8682 78.9727 23.3311C78.6374 22.8786 78.4697 22.3708 78.4697 21.8076C78.4697 21.3975 78.5706 20.9906 78.7725 20.5869C78.9775 20.18 79.2461 19.8805 79.5781 19.6885C79.9102 19.4932 80.2617 19.3955 80.6328 19.3955ZM80.4814 19.7129C80.3089 19.7129 80.1348 19.765 79.959 19.8691C79.7865 19.9701 79.6465 20.1491 79.5391 20.4062C79.4316 20.6634 79.3779 20.9938 79.3779 21.3975C79.3779 22.0485 79.5065 22.61 79.7637 23.082C80.0241 23.554 80.3659 23.79 80.7891 23.79C81.1048 23.79 81.3652 23.6598 81.5703 23.3994C81.7754 23.139 81.8779 22.6914 81.8779 22.0566C81.8779 21.2624 81.707 20.6374 81.3652 20.1816C81.1341 19.8691 80.8395 19.7129 80.4814 19.7129ZM84.7588 17.0566V20.3281C85.1201 19.931 85.4066 19.6771 85.6182 19.5664C85.8298 19.4525 86.0413 19.3955 86.2529 19.3955C86.5068 19.3955 86.7249 19.4655 86.9072 19.6055C87.0895 19.7454 87.2246 19.9652 87.3125 20.2646C87.3743 20.473 87.4053 20.8538 87.4053 21.4072V22.9893C87.4053 23.2725 87.4281 23.4661 87.4736 23.5703C87.5062 23.6484 87.5615 23.7103 87.6396 23.7559C87.7178 23.8014 87.861 23.8242 88.0693 23.8242V24H85.8721V23.8242H85.9746C86.1829 23.8242 86.3278 23.7933 86.4092 23.7314C86.4906 23.6663 86.5475 23.5719 86.5801 23.4482C86.5898 23.3962 86.5947 23.2432 86.5947 22.9893V21.4072C86.5947 20.9189 86.5687 20.5983 86.5166 20.4453C86.4678 20.2923 86.388 20.1784 86.2773 20.1035C86.1667 20.0254 86.0332 19.9863 85.877 19.9863C85.7174 19.9863 85.5514 20.0286 85.3789 20.1133C85.2064 20.1979 84.9997 20.3688 84.7588 20.626V22.9893C84.7588 23.2952 84.7751 23.4857 84.8076 23.5605C84.8434 23.6354 84.9069 23.6989 84.998 23.751C85.0924 23.7998 85.2536 23.8242 85.4814 23.8242V24H83.2646V23.8242C83.4632 23.8242 83.6195 23.7933 83.7334 23.7314C83.7985 23.6989 83.8506 23.637 83.8896 23.5459C83.9287 23.4548 83.9482 23.2692 83.9482 22.9893V18.9414C83.9482 18.4303 83.9352 18.1162 83.9092 17.999C83.8864 17.8818 83.849 17.8021 83.7969 17.7598C83.748 17.7174 83.6813 17.6963 83.5967 17.6963C83.5283 17.6963 83.4176 17.7223 83.2646 17.7744L83.1963 17.6035L84.5342 17.0566H84.7588ZM89.749 20.3428C90.2731 19.7113 90.7728 19.3955 91.248 19.3955C91.4922 19.3955 91.7021 19.4574 91.8779 19.5811C92.0537 19.7015 92.1937 19.9017 92.2979 20.1816C92.3695 20.377 92.4053 20.6764 92.4053 21.0801V22.9893C92.4053 23.2725 92.4281 23.4645 92.4736 23.5654C92.5094 23.6468 92.5664 23.7103 92.6445 23.7559C92.7259 23.8014 92.874 23.8242 93.0889 23.8242V24H90.877V23.8242H90.9697C91.1781 23.8242 91.3229 23.7933 91.4043 23.7314C91.4889 23.6663 91.5475 23.5719 91.5801 23.4482C91.5931 23.3994 91.5996 23.2464 91.5996 22.9893V21.1582C91.5996 20.7513 91.5459 20.4567 91.4385 20.2744C91.3343 20.0889 91.1569 19.9961 90.9062 19.9961C90.5189 19.9961 90.1331 20.2077 89.749 20.6309V22.9893C89.749 23.292 89.7669 23.4792 89.8027 23.5508C89.8483 23.6452 89.9102 23.7152 89.9883 23.7607C90.0697 23.8031 90.2324 23.8242 90.4766 23.8242V24H88.2646V23.8242H88.3623C88.5902 23.8242 88.7432 23.7673 88.8213 23.6533C88.9027 23.5361 88.9434 23.3148 88.9434 22.9893V21.3291C88.9434 20.792 88.9303 20.4648 88.9043 20.3477C88.8815 20.2305 88.8441 20.1507 88.792 20.1084C88.7432 20.0661 88.6764 20.0449 88.5918 20.0449C88.5007 20.0449 88.3916 20.0693 88.2646 20.1182L88.1914 19.9424L89.5391 19.3955H89.749V20.3428ZM96.3359 19.3955V20.9189H96.1748C96.0511 20.4404 95.8916 20.1149 95.6963 19.9424C95.5042 19.7699 95.2585 19.6836 94.959 19.6836C94.7311 19.6836 94.5472 19.7438 94.4072 19.8643C94.2673 19.9847 94.1973 20.1182 94.1973 20.2646C94.1973 20.4469 94.2493 20.6032 94.3535 20.7334C94.4544 20.8669 94.6595 21.0085 94.9688 21.1582L95.6816 21.5049C96.3424 21.8271 96.6729 22.252 96.6729 22.7793C96.6729 23.1862 96.5182 23.515 96.209 23.7656C95.903 24.013 95.5596 24.1367 95.1787 24.1367C94.9053 24.1367 94.5928 24.0879 94.2412 23.9902C94.1338 23.9577 94.0459 23.9414 93.9775 23.9414C93.9027 23.9414 93.8441 23.9837 93.8018 24.0684H93.6406V22.4717H93.8018C93.8929 22.9274 94.0671 23.2708 94.3242 23.502C94.5814 23.7331 94.8695 23.8486 95.1885 23.8486C95.4131 23.8486 95.5954 23.7835 95.7354 23.6533C95.8786 23.5199 95.9502 23.3604 95.9502 23.1748C95.9502 22.9502 95.8704 22.7614 95.7109 22.6084C95.5547 22.4554 95.2406 22.2617 94.7686 22.0273C94.2965 21.793 93.9873 21.5814 93.8408 21.3926C93.6943 21.207 93.6211 20.9727 93.6211 20.6895C93.6211 20.3216 93.7464 20.014 93.9971 19.7666C94.251 19.5192 94.5781 19.3955 94.9785 19.3955C95.1543 19.3955 95.3675 19.4329 95.6182 19.5078C95.7842 19.5566 95.8949 19.5811 95.9502 19.5811C96.0023 19.5811 96.043 19.5697 96.0723 19.5469C96.1016 19.5241 96.1357 19.4736 96.1748 19.3955H96.3359ZM98.6553 17.0566V20.3281C99.0166 19.931 99.3031 19.6771 99.5146 19.5664C99.7262 19.4525 99.9378 19.3955 100.149 19.3955C100.403 19.3955 100.621 19.4655 100.804 19.6055C100.986 19.7454 101.121 19.9652 101.209 20.2646C101.271 20.473 101.302 20.8538 101.302 21.4072V22.9893C101.302 23.2725 101.325 23.4661 101.37 23.5703C101.403 23.6484 101.458 23.7103 101.536 23.7559C101.614 23.8014 101.757 23.8242 101.966 23.8242V24H99.7686V23.8242H99.8711C100.079 23.8242 100.224 23.7933 100.306 23.7314C100.387 23.6663 100.444 23.5719 100.477 23.4482C100.486 23.3962 100.491 23.2432 100.491 22.9893V21.4072C100.491 20.9189 100.465 20.5983 100.413 20.4453C100.364 20.2923 100.285 20.1784 100.174 20.1035C100.063 20.0254 99.9297 19.9863 99.7734 19.9863C99.6139 19.9863 99.4479 20.0286 99.2754 20.1133C99.1029 20.1979 98.8962 20.3688 98.6553 20.626V22.9893C98.6553 23.2952 98.6715 23.4857 98.7041 23.5605C98.7399 23.6354 98.8034 23.6989 98.8945 23.751C98.9889 23.7998 99.1501 23.8242 99.3779 23.8242V24H97.1611V23.8242C97.3597 23.8242 97.516 23.7933 97.6299 23.7314C97.695 23.6989 97.7471 23.637 97.7861 23.5459C97.8252 23.4548 97.8447 23.2692 97.8447 22.9893V18.9414C97.8447 18.4303 97.8317 18.1162 97.8057 17.999C97.7829 17.8818 97.7454 17.8021 97.6934 17.7598C97.6445 17.7174 97.5778 17.6963 97.4932 17.6963C97.4248 17.6963 97.3141 17.7223 97.1611 17.7744L97.0928 17.6035L98.4307 17.0566H98.6553ZM104.529 19.3955C105.206 19.3955 105.75 19.6527 106.16 20.167C106.508 20.6064 106.683 21.111 106.683 21.6807C106.683 22.0811 106.587 22.4863 106.395 22.8965C106.202 23.3066 105.937 23.6159 105.599 23.8242C105.263 24.0326 104.889 24.1367 104.476 24.1367C103.802 24.1367 103.266 23.8682 102.869 23.3311C102.534 22.8786 102.366 22.3708 102.366 21.8076C102.366 21.3975 102.467 20.9906 102.669 20.5869C102.874 20.18 103.143 19.8805 103.475 19.6885C103.807 19.4932 104.158 19.3955 104.529 19.3955ZM104.378 19.7129C104.205 19.7129 104.031 19.765 103.855 19.8691C103.683 19.9701 103.543 20.1491 103.436 20.4062C103.328 20.6634 103.274 20.9938 103.274 21.3975C103.274 22.0485 103.403 22.61 103.66 23.082C103.921 23.554 104.262 23.79 104.686 23.79C105.001 23.79 105.262 23.6598 105.467 23.3994C105.672 23.139 105.774 22.6914 105.774 22.0566C105.774 21.2624 105.604 20.6374 105.262 20.1816C105.031 19.8691 104.736 19.7129 104.378 19.7129ZM108.646 20.3428C109.17 19.7113 109.669 19.3955 110.145 19.3955C110.389 19.3955 110.599 19.4574 110.774 19.5811C110.95 19.7015 111.09 19.9017 111.194 20.1816C111.266 20.377 111.302 20.6764 111.302 21.0801V22.9893C111.302 23.2725 111.325 23.4645 111.37 23.5654C111.406 23.6468 111.463 23.7103 111.541 23.7559C111.622 23.8014 111.771 23.8242 111.985 23.8242V24H109.773V23.8242H109.866C110.075 23.8242 110.219 23.7933 110.301 23.7314C110.385 23.6663 110.444 23.5719 110.477 23.4482C110.49 23.3994 110.496 23.2464 110.496 22.9893V21.1582C110.496 20.7513 110.442 20.4567 110.335 20.2744C110.231 20.0889 110.053 19.9961 109.803 19.9961C109.415 19.9961 109.03 20.2077 108.646 20.6309V22.9893C108.646 23.292 108.663 23.4792 108.699 23.5508C108.745 23.6452 108.807 23.7152 108.885 23.7607C108.966 23.8031 109.129 23.8242 109.373 23.8242V24H107.161V23.8242H107.259C107.487 23.8242 107.64 23.7673 107.718 23.6533C107.799 23.5361 107.84 23.3148 107.84 22.9893V21.3291C107.84 20.792 107.827 20.4648 107.801 20.3477C107.778 20.2305 107.741 20.1507 107.688 20.1084C107.64 20.0661 107.573 20.0449 107.488 20.0449C107.397 20.0449 107.288 20.0693 107.161 20.1182L107.088 19.9424L108.436 19.3955H108.646V20.3428ZM120.55 17.2275L120.701 19.4785H120.55C120.348 18.8047 120.06 18.3197 119.686 18.0234C119.311 17.7272 118.862 17.5791 118.338 17.5791C117.898 17.5791 117.501 17.6914 117.146 17.916C116.792 18.1374 116.512 18.4922 116.307 18.9805C116.105 19.4688 116.004 20.0758 116.004 20.8018C116.004 21.4007 116.1 21.9199 116.292 22.3594C116.484 22.7988 116.772 23.1357 117.156 23.3701C117.544 23.6045 117.985 23.7217 118.479 23.7217C118.909 23.7217 119.288 23.6305 119.617 23.4482C119.946 23.2627 120.307 22.8965 120.701 22.3496L120.853 22.4473C120.521 23.0365 120.133 23.4678 119.69 23.7412C119.248 24.0146 118.722 24.1514 118.113 24.1514C117.016 24.1514 116.167 23.7445 115.564 22.9307C115.115 22.3252 114.891 21.6123 114.891 20.792C114.891 20.1312 115.039 19.5241 115.335 18.9707C115.631 18.4173 116.038 17.9893 116.556 17.6865C117.076 17.3805 117.645 17.2275 118.26 17.2275C118.738 17.2275 119.21 17.3447 119.676 17.5791C119.812 17.6507 119.91 17.6865 119.969 17.6865C120.057 17.6865 120.133 17.6556 120.198 17.5938C120.283 17.5059 120.343 17.3838 120.379 17.2275H120.55ZM123.699 19.3955C124.376 19.3955 124.92 19.6527 125.33 20.167C125.678 20.6064 125.853 21.111 125.853 21.6807C125.853 22.0811 125.757 22.4863 125.564 22.8965C125.372 23.3066 125.107 23.6159 124.769 23.8242C124.433 24.0326 124.059 24.1367 123.646 24.1367C122.972 24.1367 122.436 23.8682 122.039 23.3311C121.704 22.8786 121.536 22.3708 121.536 21.8076C121.536 21.3975 121.637 20.9906 121.839 20.5869C122.044 20.18 122.312 19.8805 122.645 19.6885C122.977 19.4932 123.328 19.3955 123.699 19.3955ZM123.548 19.7129C123.375 19.7129 123.201 19.765 123.025 19.8691C122.853 19.9701 122.713 20.1491 122.605 20.4062C122.498 20.6634 122.444 20.9938 122.444 21.3975C122.444 22.0485 122.573 22.61 122.83 23.082C123.09 23.554 123.432 23.79 123.855 23.79C124.171 23.79 124.432 23.6598 124.637 23.3994C124.842 23.139 124.944 22.6914 124.944 22.0566C124.944 21.2624 124.773 20.6374 124.432 20.1816C124.201 19.8691 123.906 19.7129 123.548 19.7129ZM130.433 19.5273V22.2373C130.433 22.7549 130.444 23.0723 130.467 23.1895C130.493 23.3034 130.532 23.3831 130.584 23.4287C130.639 23.4743 130.703 23.4971 130.774 23.4971C130.875 23.4971 130.989 23.4694 131.116 23.4141L131.185 23.585L129.847 24.1367H129.627V23.1895C129.243 23.6061 128.95 23.8682 128.748 23.9756C128.546 24.083 128.333 24.1367 128.108 24.1367C127.858 24.1367 127.64 24.0651 127.454 23.9219C127.272 23.7754 127.145 23.5882 127.073 23.3604C127.002 23.1325 126.966 22.8102 126.966 22.3936V20.3965C126.966 20.1849 126.943 20.0384 126.897 19.957C126.852 19.8757 126.784 19.8138 126.692 19.7715C126.604 19.7259 126.443 19.7048 126.209 19.708V19.5273H127.776V22.5205C127.776 22.9372 127.848 23.2106 127.991 23.3408C128.138 23.471 128.313 23.5361 128.519 23.5361C128.659 23.5361 128.816 23.4922 128.992 23.4043C129.171 23.3164 129.383 23.1488 129.627 22.9014V20.3672C129.627 20.1133 129.58 19.9424 129.485 19.8545C129.394 19.7633 129.202 19.7145 128.909 19.708V19.5273H130.433ZM132.815 20.3428C133.34 19.7113 133.839 19.3955 134.314 19.3955C134.559 19.3955 134.769 19.4574 134.944 19.5811C135.12 19.7015 135.26 19.9017 135.364 20.1816C135.436 20.377 135.472 20.6764 135.472 21.0801V22.9893C135.472 23.2725 135.494 23.4645 135.54 23.5654C135.576 23.6468 135.633 23.7103 135.711 23.7559C135.792 23.8014 135.94 23.8242 136.155 23.8242V24H133.943V23.8242H134.036C134.244 23.8242 134.389 23.7933 134.471 23.7314C134.555 23.6663 134.614 23.5719 134.646 23.4482C134.66 23.3994 134.666 23.2464 134.666 22.9893V21.1582C134.666 20.7513 134.612 20.4567 134.505 20.2744C134.401 20.0889 134.223 19.9961 133.973 19.9961C133.585 19.9961 133.2 20.2077 132.815 20.6309V22.9893C132.815 23.292 132.833 23.4792 132.869 23.5508C132.915 23.6452 132.977 23.7152 133.055 23.7607C133.136 23.8031 133.299 23.8242 133.543 23.8242V24H131.331V23.8242H131.429C131.657 23.8242 131.81 23.7673 131.888 23.6533C131.969 23.5361 132.01 23.3148 132.01 22.9893V21.3291C132.01 20.792 131.997 20.4648 131.971 20.3477C131.948 20.2305 131.91 20.1507 131.858 20.1084C131.81 20.0661 131.743 20.0449 131.658 20.0449C131.567 20.0449 131.458 20.0693 131.331 20.1182L131.258 19.9424L132.605 19.3955H132.815V20.3428ZM137.811 18.0576V19.5273H138.855V19.8691H137.811V22.7695C137.811 23.0592 137.851 23.2546 137.933 23.3555C138.017 23.4564 138.125 23.5068 138.255 23.5068C138.362 23.5068 138.466 23.4743 138.567 23.4092C138.668 23.3408 138.746 23.2415 138.802 23.1113H138.992C138.878 23.4303 138.717 23.6712 138.509 23.834C138.3 23.9935 138.086 24.0732 137.864 24.0732C137.715 24.0732 137.568 24.0326 137.425 23.9512C137.282 23.8665 137.176 23.7477 137.107 23.5947C137.039 23.4385 137.005 23.1992 137.005 22.877V19.8691H136.297V19.708C136.476 19.6364 136.658 19.516 136.844 19.3467C137.033 19.1742 137.2 18.9707 137.347 18.7363C137.422 18.6126 137.526 18.3864 137.659 18.0576H137.811ZM140.047 21.2119C140.044 21.876 140.205 22.3968 140.53 22.7744C140.856 23.152 141.238 23.3408 141.678 23.3408C141.971 23.3408 142.225 23.2611 142.439 23.1016C142.658 22.9388 142.84 22.6621 142.986 22.2715L143.138 22.3691C143.069 22.8151 142.871 23.222 142.542 23.5898C142.213 23.9544 141.801 24.1367 141.307 24.1367C140.77 24.1367 140.309 23.9284 139.925 23.5117C139.544 23.0918 139.354 22.5286 139.354 21.8223C139.354 21.0573 139.549 20.4616 139.939 20.0352C140.333 19.6055 140.826 19.3906 141.419 19.3906C141.92 19.3906 142.332 19.5566 142.654 19.8887C142.977 20.2174 143.138 20.6585 143.138 21.2119H140.047ZM140.047 20.9287H142.117C142.101 20.6423 142.067 20.4404 142.015 20.3232C141.933 20.141 141.811 19.9977 141.648 19.8936C141.489 19.7894 141.321 19.7373 141.146 19.7373C140.875 19.7373 140.633 19.8431 140.418 20.0547C140.206 20.263 140.083 20.5544 140.047 20.9287ZM145.047 19.3955V20.4014C145.421 19.7308 145.805 19.3955 146.199 19.3955C146.378 19.3955 146.526 19.4508 146.644 19.5615C146.761 19.6689 146.819 19.7943 146.819 19.9375C146.819 20.0645 146.777 20.1719 146.692 20.2598C146.608 20.3477 146.507 20.3916 146.39 20.3916C146.276 20.3916 146.147 20.3363 146.004 20.2256C145.864 20.1117 145.76 20.0547 145.691 20.0547C145.633 20.0547 145.569 20.0872 145.501 20.1523C145.354 20.2858 145.203 20.5055 145.047 20.8115V22.9551C145.047 23.2025 145.078 23.3896 145.14 23.5166C145.182 23.6045 145.257 23.6777 145.364 23.7363C145.472 23.7949 145.626 23.8242 145.828 23.8242V24H143.538V23.8242C143.766 23.8242 143.935 23.7884 144.046 23.7168C144.127 23.6647 144.184 23.5817 144.217 23.4678C144.233 23.4124 144.241 23.2546 144.241 22.9941V21.2607C144.241 20.7399 144.23 20.4307 144.207 20.333C144.188 20.2321 144.148 20.1589 144.09 20.1133C144.035 20.0677 143.965 20.0449 143.88 20.0449C143.779 20.0449 143.665 20.0693 143.538 20.1182L143.489 19.9424L144.842 19.3955H145.047Z" fill="black"/>
<circle cx="65" cy="131" r="3" fill="white" stroke="black" stroke-width="2"/>
</svg>
