<svg width="200" height="200" viewBox="0 0 200 200" fill="none" xmlns="http://www.w3.org/2000/svg">
<rect width="200" height="200" fill="white"/>
<line y1="66" x2="67" y2="66" stroke="black" stroke-width="2"/>
<line y1="131" x2="67" y2="131" stroke="black" stroke-width="2"/>
<line y1="99" x2="67" y2="99" stroke="black" stroke-width="2"/>
<line x1="130" y1="77" x2="200" y2="77" stroke="black" stroke-width="2"/>
<line x1="130" y1="129" x2="200" y2="129" stroke="black" stroke-width="2"/>
<line x1="130" y1="113" x2="200" y2="113" stroke="black" stroke-width="2"/>
<line x1="130" y1="95" x2="200" y2="95" stroke="black" stroke-width="2"/>
<rect x="68.5" y="51.5" width="71" height="97" fill="white" stroke="black" stroke-width="3"/>
<path d="M78.9434 64.0547L79.0312 65.918H78.8086C78.7656 65.5898 78.707 65.3555 78.6328 65.2148C78.5117 64.9883 78.3496 64.8223 78.1465 64.7168C77.9473 64.6074 77.6836 64.5527 77.3555 64.5527H76.2363V70.623C76.2363 71.1113 76.2891 71.416 76.3945 71.5371C76.543 71.7012 76.7715 71.7832 77.0801 71.7832H77.3555V72H73.9863V71.7832H74.2676C74.6035 71.7832 74.8418 71.6816 74.9824 71.4785C75.0684 71.3535 75.1113 71.0684 75.1113 70.623V64.5527H74.1562C73.7852 64.5527 73.5215 64.5801 73.3652 64.6348C73.1621 64.709 72.9883 64.8516 72.8438 65.0625C72.6992 65.2734 72.6133 65.5586 72.5859 65.918H72.3633L72.457 64.0547H78.9434Z" fill="black"/>
<path d="M79.2246 95.873L79.4062 98.5742H79.2246C78.9824 97.7656 78.6367 97.1836 78.1875 96.8281C77.7383 96.4727 77.1992 96.2949 76.5703 96.2949C76.043 96.2949 75.5664 96.4297 75.1406 96.6992C74.7148 96.9648 74.3789 97.3906 74.1328 97.9766C73.8906 98.5625 73.7695 99.291 73.7695 100.162C73.7695 100.881 73.8848 101.504 74.1152 102.031C74.3457 102.559 74.6914 102.963 75.1523 103.244C75.6172 103.525 76.1465 103.666 76.7402 103.666C77.2559 103.666 77.7109 103.557 78.1055 103.338C78.5 103.115 78.9336 102.676 79.4062 102.02L79.5879 102.137C79.1895 102.844 78.7246 103.361 78.1934 103.689C77.6621 104.018 77.0312 104.182 76.3008 104.182C74.9844 104.182 73.9648 103.693 73.2422 102.717C72.7031 101.99 72.4336 101.135 72.4336 100.15C72.4336 99.3574 72.6113 98.6289 72.9668 97.9648C73.3223 97.3008 73.8105 96.7871 74.4316 96.4238C75.0566 96.0566 75.7383 95.873 76.4766 95.873C77.0508 95.873 77.6172 96.0137 78.1758 96.2949C78.3398 96.3809 78.457 96.4238 78.5273 96.4238C78.6328 96.4238 78.7246 96.3867 78.8027 96.3125C78.9043 96.207 78.9766 96.0605 79.0195 95.873H79.2246ZM79.8457 96.0547H82.002L86.8594 102.014V97.4316C86.8594 96.9434 86.8047 96.6387 86.6953 96.5176C86.5508 96.3535 86.3223 96.2715 86.0098 96.2715H85.7344V96.0547H88.5V96.2715H88.2188C87.8828 96.2715 87.6445 96.373 87.5039 96.5762C87.418 96.7012 87.375 96.9863 87.375 97.4316V104.129H87.1641L81.9258 97.7305V102.623C81.9258 103.111 81.9785 103.416 82.084 103.537C82.2324 103.701 82.4609 103.783 82.7695 103.783H83.0508V104H80.2852V103.783H80.5605C80.9004 103.783 81.1406 103.682 81.2812 103.479C81.3672 103.354 81.4102 103.068 81.4102 102.623V97.0977C81.1797 96.8281 81.0039 96.6504 80.8828 96.5645C80.7656 96.4785 80.5918 96.3984 80.3613 96.3242C80.248 96.2891 80.0762 96.2715 79.8457 96.2715V96.0547ZM95.6191 96.0547L95.707 97.918H95.4844C95.4414 97.5898 95.3828 97.3555 95.3086 97.2148C95.1875 96.9883 95.0254 96.8223 94.8223 96.7168C94.623 96.6074 94.3594 96.5527 94.0312 96.5527H92.9121V102.623C92.9121 103.111 92.9648 103.416 93.0703 103.537C93.2188 103.701 93.4473 103.783 93.7559 103.783H94.0312V104H90.6621V103.783H90.9434C91.2793 103.783 91.5176 103.682 91.6582 103.479C91.7441 103.354 91.7871 103.068 91.7871 102.623V96.5527H90.832C90.4609 96.5527 90.1973 96.5801 90.041 96.6348C89.8379 96.709 89.6641 96.8516 89.5195 97.0625C89.375 97.2734 89.2891 97.5586 89.2617 97.918H89.0391L89.1328 96.0547H95.6191Z" fill="black"/>
<path d="M80.1094 132H77.9883L75.2988 128.285C75.0996 128.293 74.9375 128.297 74.8125 128.297C74.7617 128.297 74.707 128.297 74.6484 128.297C74.5898 128.293 74.5293 128.289 74.4668 128.285V130.594C74.4668 131.094 74.5215 131.404 74.6309 131.525C74.7793 131.697 75.002 131.783 75.2988 131.783H75.6094V132H72.2051V131.783H72.5039C72.8398 131.783 73.0801 131.674 73.2246 131.455C73.3066 131.334 73.3477 131.047 73.3477 130.594V125.461C73.3477 124.961 73.293 124.65 73.1836 124.529C73.0312 124.357 72.8047 124.271 72.5039 124.271H72.2051V124.055H75.0996C75.9434 124.055 76.5645 124.117 76.9629 124.242C77.3652 124.363 77.7051 124.59 77.9824 124.922C78.2637 125.25 78.4043 125.643 78.4043 126.1C78.4043 126.588 78.2441 127.012 77.9238 127.371C77.6074 127.73 77.1152 127.984 76.4473 128.133L78.0879 130.412C78.4629 130.936 78.7852 131.283 79.0547 131.455C79.3242 131.627 79.6758 131.736 80.1094 131.783V132ZM74.4668 127.916C74.541 127.916 74.6055 127.918 74.6602 127.922C74.7148 127.922 74.7598 127.922 74.7949 127.922C75.5527 127.922 76.123 127.758 76.5059 127.43C76.8926 127.102 77.0859 126.684 77.0859 126.176C77.0859 125.68 76.9297 125.277 76.6172 124.969C76.3086 124.656 75.8984 124.5 75.3867 124.5C75.1602 124.5 74.8535 124.537 74.4668 124.611V127.916ZM85.5059 123.873V126.621H85.2891C85.2188 126.094 85.0918 125.674 84.9082 125.361C84.7285 125.049 84.4707 124.801 84.1348 124.617C83.7988 124.434 83.4512 124.342 83.0918 124.342C82.6855 124.342 82.3496 124.467 82.084 124.717C81.8184 124.963 81.6855 125.244 81.6855 125.561C81.6855 125.803 81.7695 126.023 81.9375 126.223C82.1797 126.516 82.7559 126.906 83.666 127.395C84.4082 127.793 84.9141 128.1 85.1836 128.314C85.457 128.525 85.666 128.775 85.8105 129.064C85.959 129.354 86.0332 129.656 86.0332 129.973C86.0332 130.574 85.7988 131.094 85.3301 131.531C84.8652 131.965 84.2656 132.182 83.5312 132.182C83.3008 132.182 83.084 132.164 82.8809 132.129C82.7598 132.109 82.5078 132.039 82.125 131.918C81.7461 131.793 81.5059 131.73 81.4043 131.73C81.3066 131.73 81.2285 131.76 81.1699 131.818C81.1152 131.877 81.0742 131.998 81.0469 132.182H80.8301V129.457H81.0469C81.1484 130.027 81.2852 130.455 81.457 130.74C81.6289 131.021 81.8906 131.256 82.2422 131.443C82.5977 131.631 82.9863 131.725 83.4082 131.725C83.8965 131.725 84.2812 131.596 84.5625 131.338C84.8477 131.08 84.9902 130.775 84.9902 130.424C84.9902 130.229 84.9355 130.031 84.8262 129.832C84.7207 129.633 84.5547 129.447 84.3281 129.275C84.1758 129.158 83.7598 128.91 83.0801 128.531C82.4004 128.148 81.916 127.844 81.627 127.617C81.3418 127.391 81.125 127.141 80.9766 126.867C80.8281 126.594 80.7539 126.293 80.7539 125.965C80.7539 125.395 80.9727 124.904 81.4102 124.494C81.8477 124.08 82.4043 123.873 83.0801 123.873C83.502 123.873 83.9492 123.977 84.4219 124.184C84.6406 124.281 84.7949 124.33 84.8848 124.33C84.9863 124.33 85.0684 124.301 85.1309 124.242C85.1973 124.18 85.25 124.057 85.2891 123.873H85.5059ZM93.627 124.055L93.7148 125.918H93.4922C93.4492 125.59 93.3906 125.355 93.3164 125.215C93.1953 124.988 93.0332 124.822 92.8301 124.717C92.6309 124.607 92.3672 124.553 92.0391 124.553H90.9199V130.623C90.9199 131.111 90.9727 131.416 91.0781 131.537C91.2266 131.701 91.4551 131.783 91.7637 131.783H92.0391V132H88.6699V131.783H88.9512C89.2871 131.783 89.5254 131.682 89.666 131.479C89.752 131.354 89.7949 131.068 89.7949 130.623V124.553H88.8398C88.4688 124.553 88.2051 124.58 88.0488 124.635C87.8457 124.709 87.6719 124.852 87.5273 125.062C87.3828 125.273 87.2969 125.559 87.2695 125.918H87.0469L87.1406 124.055H93.627Z" fill="black"/>
<path d="M125.285 78.0879C125.684 78.7754 126.113 79.2812 126.574 79.6055C127.039 79.9297 127.566 80.1152 128.156 80.1621V80.3496C127.617 80.3301 127.041 80.2207 126.428 80.0215C125.814 79.8262 125.232 79.5527 124.682 79.2012C124.135 78.8535 123.662 78.4824 123.264 78.0879C122.701 77.8613 122.256 77.6211 121.928 77.3672C121.451 76.9883 121.08 76.5234 120.814 75.9727C120.553 75.418 120.422 74.7637 120.422 74.0098C120.422 72.8223 120.807 71.8359 121.576 71.0508C122.346 70.2656 123.277 69.873 124.371 69.873C125.41 69.873 126.309 70.2676 127.066 71.0566C127.828 71.8418 128.209 72.834 128.209 74.0332C128.209 75.0059 127.938 75.8594 127.395 76.5938C126.855 77.3281 126.152 77.8262 125.285 78.0879ZM124.301 70.3242C123.59 70.3242 123.018 70.5781 122.584 71.0859C122.037 71.7227 121.764 72.6973 121.764 74.0098C121.764 75.2949 122.041 76.2852 122.596 76.9805C123.025 77.5156 123.594 77.7832 124.301 77.7832C125.035 77.7832 125.627 77.5156 126.076 76.9805C126.604 76.3477 126.867 75.4141 126.867 74.1797C126.867 73.2305 126.723 72.4316 126.434 71.7832C126.211 71.2832 125.914 70.916 125.543 70.6816C125.176 70.4434 124.762 70.3242 124.301 70.3242ZM129.105 74.0742C129.105 73.168 129.242 72.3887 129.516 71.7363C129.789 71.0801 130.152 70.5918 130.605 70.2715C130.957 70.0176 131.32 69.8906 131.695 69.8906C132.305 69.8906 132.852 70.2012 133.336 70.8223C133.941 71.5918 134.244 72.6348 134.244 73.9512C134.244 74.873 134.111 75.6562 133.846 76.3008C133.58 76.9453 133.24 77.4141 132.826 77.707C132.416 77.9961 132.02 78.1406 131.637 78.1406C130.879 78.1406 130.248 77.6934 129.744 76.7988C129.318 76.0449 129.105 75.1367 129.105 74.0742ZM130.254 74.2207C130.254 75.3145 130.389 76.207 130.658 76.8984C130.881 77.4805 131.213 77.7715 131.654 77.7715C131.865 77.7715 132.084 77.6777 132.311 77.4902C132.537 77.2988 132.709 76.9805 132.826 76.5352C133.006 75.8633 133.096 74.916 133.096 73.6934C133.096 72.7871 133.002 72.0312 132.814 71.4258C132.674 70.9766 132.492 70.6582 132.27 70.4707C132.109 70.3418 131.916 70.2773 131.689 70.2773C131.424 70.2773 131.188 70.3965 130.98 70.6348C130.699 70.959 130.508 71.4688 130.406 72.1641C130.305 72.8594 130.254 73.5449 130.254 74.2207Z" fill="black"/>
<path d="M125.285 96.0879C125.684 96.7754 126.113 97.2812 126.574 97.6055C127.039 97.9297 127.566 98.1152 128.156 98.1621V98.3496C127.617 98.3301 127.041 98.2207 126.428 98.0215C125.814 97.8262 125.232 97.5527 124.682 97.2012C124.135 96.8535 123.662 96.4824 123.264 96.0879C122.701 95.8613 122.256 95.6211 121.928 95.3672C121.451 94.9883 121.08 94.5234 120.814 93.9727C120.553 93.418 120.422 92.7637 120.422 92.0098C120.422 90.8223 120.807 89.8359 121.576 89.0508C122.346 88.2656 123.277 87.873 124.371 87.873C125.41 87.873 126.309 88.2676 127.066 89.0566C127.828 89.8418 128.209 90.834 128.209 92.0332C128.209 93.0059 127.938 93.8594 127.395 94.5938C126.855 95.3281 126.152 95.8262 125.285 96.0879ZM124.301 88.3242C123.59 88.3242 123.018 88.5781 122.584 89.0859C122.037 89.7227 121.764 90.6973 121.764 92.0098C121.764 93.2949 122.041 94.2852 122.596 94.9805C123.025 95.5156 123.594 95.7832 124.301 95.7832C125.035 95.7832 125.627 95.5156 126.076 94.9805C126.604 94.3477 126.867 93.4141 126.867 92.1797C126.867 91.2305 126.723 90.4316 126.434 89.7832C126.211 89.2832 125.914 88.916 125.543 88.6816C125.176 88.4434 124.762 88.3242 124.301 88.3242ZM130.078 88.834L132.012 87.8906H132.205V94.5996C132.205 95.0449 132.223 95.3223 132.258 95.4316C132.297 95.541 132.375 95.625 132.492 95.6836C132.609 95.7422 132.848 95.7754 133.207 95.7832V96H130.219V95.7832C130.594 95.7754 130.836 95.7441 130.945 95.6895C131.055 95.6309 131.131 95.5547 131.174 95.4609C131.217 95.3633 131.238 95.0762 131.238 94.5996V90.3105C131.238 89.7324 131.219 89.3613 131.18 89.1973C131.152 89.0723 131.102 88.9805 131.027 88.9219C130.957 88.8633 130.871 88.834 130.77 88.834C130.625 88.834 130.424 88.8945 130.166 89.0156L130.078 88.834Z" fill="black"/>
<path d="M125.285 114.088C125.684 114.775 126.113 115.281 126.574 115.605C127.039 115.93 127.566 116.115 128.156 116.162V116.35C127.617 116.33 127.041 116.221 126.428 116.021C125.814 115.826 125.232 115.553 124.682 115.201C124.135 114.854 123.662 114.482 123.264 114.088C122.701 113.861 122.256 113.621 121.928 113.367C121.451 112.988 121.08 112.523 120.814 111.973C120.553 111.418 120.422 110.764 120.422 110.01C120.422 108.822 120.807 107.836 121.576 107.051C122.346 106.266 123.277 105.873 124.371 105.873C125.41 105.873 126.309 106.268 127.066 107.057C127.828 107.842 128.209 108.834 128.209 110.033C128.209 111.006 127.938 111.859 127.395 112.594C126.855 113.328 126.152 113.826 125.285 114.088ZM124.301 106.324C123.59 106.324 123.018 106.578 122.584 107.086C122.037 107.723 121.764 108.697 121.764 110.01C121.764 111.295 122.041 112.285 122.596 112.98C123.025 113.516 123.594 113.783 124.301 113.783C125.035 113.783 125.627 113.516 126.076 112.98C126.604 112.348 126.867 111.414 126.867 110.18C126.867 109.23 126.723 108.432 126.434 107.783C126.211 107.283 125.914 106.916 125.543 106.682C125.176 106.443 124.762 106.324 124.301 106.324ZM134.174 112.471L133.617 114H128.93V113.783C130.309 112.525 131.279 111.498 131.842 110.701C132.404 109.904 132.686 109.176 132.686 108.516C132.686 108.012 132.531 107.598 132.223 107.273C131.914 106.949 131.545 106.787 131.115 106.787C130.725 106.787 130.373 106.902 130.061 107.133C129.752 107.359 129.523 107.693 129.375 108.135H129.158C129.256 107.412 129.506 106.857 129.908 106.471C130.314 106.084 130.82 105.891 131.426 105.891C132.07 105.891 132.607 106.098 133.037 106.512C133.471 106.926 133.688 107.414 133.688 107.977C133.688 108.379 133.594 108.781 133.406 109.184C133.117 109.816 132.648 110.486 132 111.193C131.027 112.256 130.42 112.896 130.178 113.115H132.252C132.674 113.115 132.969 113.1 133.137 113.068C133.309 113.037 133.463 112.975 133.6 112.881C133.736 112.783 133.855 112.646 133.957 112.471H134.174Z" fill="black"/>
<path d="M125.285 132.088C125.684 132.775 126.113 133.281 126.574 133.605C127.039 133.93 127.566 134.115 128.156 134.162V134.35C127.617 134.33 127.041 134.221 126.428 134.021C125.814 133.826 125.232 133.553 124.682 133.201C124.135 132.854 123.662 132.482 123.264 132.088C122.701 131.861 122.256 131.621 121.928 131.367C121.451 130.988 121.08 130.523 120.814 129.973C120.553 129.418 120.422 128.764 120.422 128.01C120.422 126.822 120.807 125.836 121.576 125.051C122.346 124.266 123.277 123.873 124.371 123.873C125.41 123.873 126.309 124.268 127.066 125.057C127.828 125.842 128.209 126.834 128.209 128.033C128.209 129.006 127.938 129.859 127.395 130.594C126.855 131.328 126.152 131.826 125.285 132.088ZM124.301 124.324C123.59 124.324 123.018 124.578 122.584 125.086C122.037 125.723 121.764 126.697 121.764 128.01C121.764 129.295 122.041 130.285 122.596 130.98C123.025 131.516 123.594 131.783 124.301 131.783C125.035 131.783 125.627 131.516 126.076 130.98C126.604 130.348 126.867 129.414 126.867 128.18C126.867 127.23 126.723 126.432 126.434 125.783C126.211 125.283 125.914 124.916 125.543 124.682C125.176 124.443 124.762 124.324 124.301 124.324ZM129.281 125.566C129.508 125.031 129.793 124.619 130.137 124.33C130.484 124.037 130.916 123.891 131.432 123.891C132.068 123.891 132.557 124.098 132.896 124.512C133.154 124.82 133.283 125.15 133.283 125.502C133.283 126.08 132.92 126.678 132.193 127.295C132.682 127.486 133.051 127.76 133.301 128.115C133.551 128.471 133.676 128.889 133.676 129.369C133.676 130.057 133.457 130.652 133.02 131.156C132.449 131.812 131.623 132.141 130.541 132.141C130.006 132.141 129.641 132.074 129.445 131.941C129.254 131.809 129.158 131.666 129.158 131.514C129.158 131.4 129.203 131.301 129.293 131.215C129.387 131.129 129.498 131.086 129.627 131.086C129.725 131.086 129.824 131.102 129.926 131.133C129.992 131.152 130.143 131.225 130.377 131.35C130.611 131.471 130.773 131.543 130.863 131.566C131.008 131.609 131.162 131.631 131.326 131.631C131.725 131.631 132.07 131.477 132.363 131.168C132.66 130.859 132.809 130.494 132.809 130.072C132.809 129.764 132.74 129.463 132.604 129.17C132.502 128.951 132.391 128.785 132.27 128.672C132.102 128.516 131.871 128.375 131.578 128.25C131.285 128.121 130.986 128.057 130.682 128.057H130.494V127.881C130.803 127.842 131.111 127.73 131.42 127.547C131.732 127.363 131.959 127.143 132.1 126.885C132.24 126.627 132.311 126.344 132.311 126.035C132.311 125.633 132.184 125.309 131.93 125.062C131.68 124.812 131.367 124.688 130.992 124.688C130.387 124.688 129.881 125.012 129.475 125.66L129.281 125.566Z" fill="black"/>
<path d="M61.6191 20.6211C62.0781 20.7188 62.4215 20.875 62.6494 21.0898C62.9652 21.3893 63.123 21.7555 63.123 22.1885C63.123 22.5173 63.0189 22.833 62.8105 23.1357C62.6022 23.4352 62.3158 23.6549 61.9512 23.7949C61.5898 23.9316 61.0365 24 60.291 24H57.166V23.8193H57.415C57.6917 23.8193 57.8903 23.7314 58.0107 23.5557C58.0856 23.4417 58.123 23.1992 58.123 22.8281V18.5508C58.123 18.1406 58.0758 17.8818 57.9814 17.7744C57.8545 17.6312 57.6657 17.5596 57.415 17.5596H57.166V17.3789H60.0273C60.5612 17.3789 60.9893 17.418 61.3115 17.4961C61.7998 17.6133 62.1725 17.8216 62.4297 18.1211C62.6868 18.4173 62.8154 18.7591 62.8154 19.1465C62.8154 19.4785 62.7145 19.7764 62.5127 20.04C62.3109 20.3005 62.013 20.4941 61.6191 20.6211ZM59.0605 20.3574C59.181 20.3802 59.3177 20.3981 59.4707 20.4111C59.627 20.4209 59.7979 20.4258 59.9834 20.4258C60.4587 20.4258 60.8151 20.3753 61.0527 20.2744C61.2936 20.1702 61.4775 20.0124 61.6045 19.8008C61.7314 19.5892 61.7949 19.3581 61.7949 19.1074C61.7949 18.7201 61.637 18.3896 61.3213 18.1162C61.0055 17.8428 60.5449 17.7061 59.9395 17.7061C59.6139 17.7061 59.321 17.7419 59.0605 17.8135V20.3574ZM59.0605 23.5215C59.4382 23.6094 59.8109 23.6533 60.1787 23.6533C60.7679 23.6533 61.2171 23.5215 61.5264 23.2578C61.8356 22.9909 61.9902 22.6621 61.9902 22.2715C61.9902 22.0143 61.9202 21.7669 61.7803 21.5293C61.6403 21.2917 61.4124 21.1045 61.0967 20.9678C60.7809 20.8311 60.3903 20.7627 59.9248 20.7627C59.723 20.7627 59.5505 20.766 59.4072 20.7725C59.264 20.779 59.1484 20.7904 59.0605 20.8066V23.5215ZM69.6904 17.2275L69.8418 19.4785H69.6904C69.4886 18.8047 69.2005 18.3197 68.8262 18.0234C68.4518 17.7272 68.0026 17.5791 67.4785 17.5791C67.0391 17.5791 66.6419 17.6914 66.2871 17.916C65.9323 18.1374 65.6523 18.4922 65.4473 18.9805C65.2454 19.4688 65.1445 20.0758 65.1445 20.8018C65.1445 21.4007 65.2406 21.9199 65.4326 22.3594C65.6247 22.7988 65.9128 23.1357 66.2969 23.3701C66.6842 23.6045 67.1253 23.7217 67.6201 23.7217C68.0498 23.7217 68.429 23.6305 68.7578 23.4482C69.0866 23.2627 69.4479 22.8965 69.8418 22.3496L69.9932 22.4473C69.6611 23.0365 69.2738 23.4678 68.8311 23.7412C68.3883 24.0146 67.8626 24.1514 67.2539 24.1514C66.1569 24.1514 65.3073 23.7445 64.7051 22.9307C64.2559 22.3252 64.0312 21.6123 64.0312 20.792C64.0312 20.1312 64.1794 19.5241 64.4756 18.9707C64.7718 18.4173 65.1787 17.9893 65.6963 17.6865C66.2171 17.3805 66.7852 17.2275 67.4004 17.2275C67.8789 17.2275 68.3509 17.3447 68.8164 17.5791C68.9531 17.6507 69.0508 17.6865 69.1094 17.6865C69.1973 17.6865 69.2738 17.6556 69.3389 17.5938C69.4235 17.5059 69.4837 17.3838 69.5195 17.2275H69.6904ZM70.5107 24V23.8193H70.7598C71.0397 23.8193 71.2383 23.7298 71.3555 23.5508C71.4271 23.4434 71.4629 23.2025 71.4629 22.8281V18.5508C71.4629 18.1374 71.4173 17.8786 71.3262 17.7744C71.1992 17.6312 71.0104 17.5596 70.7598 17.5596H70.5107V17.3789H73.2061C74.1956 17.3789 74.9476 17.4912 75.4619 17.7158C75.9795 17.9404 76.3945 18.3148 76.707 18.8389C77.0228 19.363 77.1807 19.9684 77.1807 20.6553C77.1807 21.5765 76.9007 22.3464 76.3408 22.9648C75.7126 23.6549 74.7555 24 73.4697 24H70.5107ZM72.4004 23.5215C72.8138 23.6126 73.1605 23.6582 73.4404 23.6582C74.1956 23.6582 74.8223 23.3929 75.3203 22.8623C75.8184 22.3317 76.0674 21.6123 76.0674 20.7041C76.0674 19.7894 75.8184 19.0684 75.3203 18.541C74.8223 18.0137 74.1826 17.75 73.4014 17.75C73.1084 17.75 72.7747 17.7972 72.4004 17.8916V23.5215ZM86.8242 24H85.0566L82.8154 20.9043C82.6494 20.9108 82.5143 20.9141 82.4102 20.9141C82.3678 20.9141 82.3223 20.9141 82.2734 20.9141C82.2246 20.9108 82.1742 20.9076 82.1221 20.9043V22.8281C82.1221 23.2448 82.1676 23.5036 82.2588 23.6045C82.3825 23.7477 82.568 23.8193 82.8154 23.8193H83.0742V24H80.2373V23.8193H80.4863C80.7663 23.8193 80.9665 23.7282 81.0869 23.5459C81.1553 23.445 81.1895 23.2057 81.1895 22.8281V18.5508C81.1895 18.1341 81.1439 17.8753 81.0527 17.7744C80.9258 17.6312 80.737 17.5596 80.4863 17.5596H80.2373V17.3789H82.6494C83.3525 17.3789 83.8701 17.431 84.2021 17.5352C84.5374 17.6361 84.8206 17.8249 85.0518 18.1016C85.2861 18.375 85.4033 18.7021 85.4033 19.083C85.4033 19.4899 85.2699 19.8431 85.0029 20.1426C84.7393 20.4421 84.3291 20.6536 83.7725 20.7773L85.1396 22.6768C85.4521 23.113 85.7207 23.4027 85.9453 23.5459C86.1699 23.6891 86.4629 23.7803 86.8242 23.8193V24ZM82.1221 20.5967C82.1839 20.5967 82.2376 20.5983 82.2832 20.6016C82.3288 20.6016 82.3662 20.6016 82.3955 20.6016C83.027 20.6016 83.5023 20.4648 83.8213 20.1914C84.1436 19.918 84.3047 19.5697 84.3047 19.1465C84.3047 18.7331 84.1745 18.3978 83.9141 18.1406C83.6569 17.8802 83.3151 17.75 82.8887 17.75C82.6999 17.75 82.4443 17.7809 82.1221 17.8428V20.5967ZM88.1865 17.0566C88.3232 17.0566 88.4388 17.1055 88.5332 17.2031C88.6309 17.2975 88.6797 17.4131 88.6797 17.5498C88.6797 17.6865 88.6309 17.8037 88.5332 17.9014C88.4388 17.999 88.3232 18.0479 88.1865 18.0479C88.0498 18.0479 87.9326 17.999 87.835 17.9014C87.7373 17.8037 87.6885 17.6865 87.6885 17.5498C87.6885 17.4131 87.7357 17.2975 87.8301 17.2031C87.9277 17.1055 88.0465 17.0566 88.1865 17.0566ZM88.5918 19.3955V22.9893C88.5918 23.2692 88.6113 23.4564 88.6504 23.5508C88.6927 23.6419 88.7529 23.7103 88.8311 23.7559C88.9124 23.8014 89.0589 23.8242 89.2705 23.8242V24H87.0977V23.8242C87.3158 23.8242 87.4622 23.8031 87.5371 23.7607C87.612 23.7184 87.6706 23.6484 87.7129 23.5508C87.7585 23.4531 87.7812 23.266 87.7812 22.9893V21.2656C87.7812 20.7806 87.7666 20.4665 87.7373 20.3232C87.7145 20.2191 87.6787 20.1475 87.6299 20.1084C87.5811 20.0661 87.5143 20.0449 87.4297 20.0449C87.3385 20.0449 87.2279 20.0693 87.0977 20.1182L87.0293 19.9424L88.377 19.3955H88.5918ZM89.5098 19.9717L90.8867 19.415H91.0723V20.46C91.3034 20.0661 91.5345 19.791 91.7656 19.6348C92 19.4753 92.2458 19.3955 92.5029 19.3955C92.9521 19.3955 93.3265 19.5713 93.626 19.9229C93.9938 20.3525 94.1777 20.9124 94.1777 21.6025C94.1777 22.374 93.9564 23.012 93.5137 23.5166C93.1491 23.93 92.6901 24.1367 92.1367 24.1367C91.8958 24.1367 91.6875 24.1025 91.5117 24.0342C91.3815 23.9854 91.235 23.8877 91.0723 23.7412V25.1035C91.0723 25.4095 91.0902 25.6032 91.126 25.6846C91.165 25.7692 91.2301 25.8359 91.3213 25.8848C91.4157 25.9336 91.585 25.958 91.8291 25.958V26.1387H89.4854V25.958H89.6074C89.7865 25.9613 89.9395 25.9271 90.0664 25.8555C90.1283 25.8197 90.1755 25.7611 90.208 25.6797C90.2438 25.6016 90.2617 25.3997 90.2617 25.0742V20.8457C90.2617 20.556 90.2487 20.3721 90.2227 20.2939C90.1966 20.2158 90.1543 20.1572 90.0957 20.1182C90.0404 20.0791 89.9639 20.0596 89.8662 20.0596C89.7881 20.0596 89.6888 20.0824 89.5684 20.1279L89.5098 19.9717ZM91.0723 20.748V22.418C91.0723 22.7793 91.0869 23.0169 91.1162 23.1309C91.1618 23.3197 91.2725 23.4857 91.4482 23.6289C91.6273 23.7721 91.8519 23.8438 92.1221 23.8438C92.4476 23.8438 92.7113 23.7168 92.9131 23.4629C93.1768 23.1309 93.3086 22.6637 93.3086 22.0615C93.3086 21.3779 93.1589 20.8522 92.8594 20.4844C92.651 20.2305 92.4036 20.1035 92.1172 20.1035C91.9609 20.1035 91.8063 20.1426 91.6533 20.2207C91.5361 20.2793 91.3424 20.4551 91.0723 20.748ZM94.5098 19.9717L95.8867 19.415H96.0723V20.46C96.3034 20.0661 96.5345 19.791 96.7656 19.6348C97 19.4753 97.2458 19.3955 97.5029 19.3955C97.9521 19.3955 98.3265 19.5713 98.626 19.9229C98.9938 20.3525 99.1777 20.9124 99.1777 21.6025C99.1777 22.374 98.9564 23.012 98.5137 23.5166C98.1491 23.93 97.6901 24.1367 97.1367 24.1367C96.8958 24.1367 96.6875 24.1025 96.5117 24.0342C96.3815 23.9854 96.235 23.8877 96.0723 23.7412V25.1035C96.0723 25.4095 96.0902 25.6032 96.126 25.6846C96.165 25.7692 96.2301 25.8359 96.3213 25.8848C96.4157 25.9336 96.585 25.958 96.8291 25.958V26.1387H94.4854V25.958H94.6074C94.7865 25.9613 94.9395 25.9271 95.0664 25.8555C95.1283 25.8197 95.1755 25.7611 95.208 25.6797C95.2438 25.6016 95.2617 25.3997 95.2617 25.0742V20.8457C95.2617 20.556 95.2487 20.3721 95.2227 20.2939C95.1966 20.2158 95.1543 20.1572 95.0957 20.1182C95.0404 20.0791 94.9639 20.0596 94.8662 20.0596C94.7881 20.0596 94.6888 20.0824 94.5684 20.1279L94.5098 19.9717ZM96.0723 20.748V22.418C96.0723 22.7793 96.0869 23.0169 96.1162 23.1309C96.1618 23.3197 96.2725 23.4857 96.4482 23.6289C96.6273 23.7721 96.8519 23.8438 97.1221 23.8438C97.4476 23.8438 97.7113 23.7168 97.9131 23.4629C98.1768 23.1309 98.3086 22.6637 98.3086 22.0615C98.3086 21.3779 98.1589 20.8522 97.8594 20.4844C97.651 20.2305 97.4036 20.1035 97.1172 20.1035C96.9609 20.1035 96.8063 20.1426 96.6533 20.2207C96.5361 20.2793 96.3424 20.4551 96.0723 20.748ZM101.37 17.0566V22.9893C101.37 23.2692 101.39 23.4548 101.429 23.5459C101.471 23.637 101.535 23.707 101.619 23.7559C101.704 23.8014 101.862 23.8242 102.093 23.8242V24H99.9004V23.8242C100.105 23.8242 100.245 23.8031 100.32 23.7607C100.395 23.7184 100.454 23.6484 100.496 23.5508C100.538 23.4531 100.56 23.266 100.56 22.9893V18.9268C100.56 18.4222 100.548 18.113 100.525 17.999C100.503 17.8818 100.465 17.8021 100.413 17.7598C100.364 17.7174 100.301 17.6963 100.223 17.6963C100.138 17.6963 100.031 17.7223 99.9004 17.7744L99.8174 17.6035L101.15 17.0566H101.37ZM103.367 21.2119C103.364 21.876 103.525 22.3968 103.851 22.7744C104.176 23.152 104.559 23.3408 104.998 23.3408C105.291 23.3408 105.545 23.2611 105.76 23.1016C105.978 22.9388 106.16 22.6621 106.307 22.2715L106.458 22.3691C106.39 22.8151 106.191 23.222 105.862 23.5898C105.534 23.9544 105.122 24.1367 104.627 24.1367C104.09 24.1367 103.629 23.9284 103.245 23.5117C102.864 23.0918 102.674 22.5286 102.674 21.8223C102.674 21.0573 102.869 20.4616 103.26 20.0352C103.654 19.6055 104.147 19.3906 104.739 19.3906C105.241 19.3906 105.652 19.5566 105.975 19.8887C106.297 20.2174 106.458 20.6585 106.458 21.2119H103.367ZM103.367 20.9287H105.438C105.421 20.6423 105.387 20.4404 105.335 20.3232C105.254 20.141 105.132 19.9977 104.969 19.8936C104.809 19.7894 104.642 19.7373 104.466 19.7373C104.196 19.7373 103.953 19.8431 103.738 20.0547C103.527 20.263 103.403 20.5544 103.367 20.9287ZM115.267 17.2275L115.418 19.4785H115.267C115.065 18.8047 114.777 18.3197 114.402 18.0234C114.028 17.7272 113.579 17.5791 113.055 17.5791C112.615 17.5791 112.218 17.6914 111.863 17.916C111.508 18.1374 111.229 18.4922 111.023 18.9805C110.822 19.4688 110.721 20.0758 110.721 20.8018C110.721 21.4007 110.817 21.9199 111.009 22.3594C111.201 22.7988 111.489 23.1357 111.873 23.3701C112.26 23.6045 112.701 23.7217 113.196 23.7217C113.626 23.7217 114.005 23.6305 114.334 23.4482C114.663 23.2627 115.024 22.8965 115.418 22.3496L115.569 22.4473C115.237 23.0365 114.85 23.4678 114.407 23.7412C113.965 24.0146 113.439 24.1514 112.83 24.1514C111.733 24.1514 110.883 23.7445 110.281 22.9307C109.832 22.3252 109.607 21.6123 109.607 20.792C109.607 20.1312 109.756 19.5241 110.052 18.9707C110.348 18.4173 110.755 17.9893 111.272 17.6865C111.793 17.3805 112.361 17.2275 112.977 17.2275C113.455 17.2275 113.927 17.3447 114.393 17.5791C114.529 17.6507 114.627 17.6865 114.686 17.6865C114.773 17.6865 114.85 17.6556 114.915 17.5938C115 17.5059 115.06 17.3838 115.096 17.2275H115.267ZM118.416 19.3955C119.093 19.3955 119.637 19.6527 120.047 20.167C120.395 20.6064 120.569 21.111 120.569 21.6807C120.569 22.0811 120.473 22.4863 120.281 22.8965C120.089 23.3066 119.824 23.6159 119.485 23.8242C119.15 24.0326 118.776 24.1367 118.362 24.1367C117.688 24.1367 117.153 23.8682 116.756 23.3311C116.421 22.8786 116.253 22.3708 116.253 21.8076C116.253 21.3975 116.354 20.9906 116.556 20.5869C116.761 20.18 117.029 19.8805 117.361 19.6885C117.693 19.4932 118.045 19.3955 118.416 19.3955ZM118.265 19.7129C118.092 19.7129 117.918 19.765 117.742 19.8691C117.57 19.9701 117.43 20.1491 117.322 20.4062C117.215 20.6634 117.161 20.9938 117.161 21.3975C117.161 22.0485 117.29 22.61 117.547 23.082C117.807 23.554 118.149 23.79 118.572 23.79C118.888 23.79 119.148 23.6598 119.354 23.3994C119.559 23.139 119.661 22.6914 119.661 22.0566C119.661 21.2624 119.49 20.6374 119.148 20.1816C118.917 19.8691 118.623 19.7129 118.265 19.7129ZM125.149 19.5273V22.2373C125.149 22.7549 125.161 23.0723 125.184 23.1895C125.21 23.3034 125.249 23.3831 125.301 23.4287C125.356 23.4743 125.42 23.4971 125.491 23.4971C125.592 23.4971 125.706 23.4694 125.833 23.4141L125.901 23.585L124.563 24.1367H124.344V23.1895C123.96 23.6061 123.667 23.8682 123.465 23.9756C123.263 24.083 123.05 24.1367 122.825 24.1367C122.575 24.1367 122.356 24.0651 122.171 23.9219C121.989 23.7754 121.862 23.5882 121.79 23.3604C121.718 23.1325 121.683 22.8102 121.683 22.3936V20.3965C121.683 20.1849 121.66 20.0384 121.614 19.957C121.569 19.8757 121.5 19.8138 121.409 19.7715C121.321 19.7259 121.16 19.7048 120.926 19.708V19.5273H122.493V22.5205C122.493 22.9372 122.565 23.2106 122.708 23.3408C122.854 23.471 123.03 23.5361 123.235 23.5361C123.375 23.5361 123.533 23.4922 123.709 23.4043C123.888 23.3164 124.1 23.1488 124.344 22.9014V20.3672C124.344 20.1133 124.297 19.9424 124.202 19.8545C124.111 19.7633 123.919 19.7145 123.626 19.708V19.5273H125.149ZM127.532 20.3428C128.056 19.7113 128.556 19.3955 129.031 19.3955C129.275 19.3955 129.485 19.4574 129.661 19.5811C129.837 19.7015 129.977 19.9017 130.081 20.1816C130.153 20.377 130.188 20.6764 130.188 21.0801V22.9893C130.188 23.2725 130.211 23.4645 130.257 23.5654C130.293 23.6468 130.35 23.7103 130.428 23.7559C130.509 23.8014 130.657 23.8242 130.872 23.8242V24H128.66V23.8242H128.753C128.961 23.8242 129.106 23.7933 129.188 23.7314C129.272 23.6663 129.331 23.5719 129.363 23.4482C129.376 23.3994 129.383 23.2464 129.383 22.9893V21.1582C129.383 20.7513 129.329 20.4567 129.222 20.2744C129.118 20.0889 128.94 19.9961 128.689 19.9961C128.302 19.9961 127.916 20.2077 127.532 20.6309V22.9893C127.532 23.292 127.55 23.4792 127.586 23.5508C127.632 23.6452 127.693 23.7152 127.771 23.7607C127.853 23.8031 128.016 23.8242 128.26 23.8242V24H126.048V23.8242H126.146C126.373 23.8242 126.526 23.7673 126.604 23.6533C126.686 23.5361 126.727 23.3148 126.727 22.9893V21.3291C126.727 20.792 126.714 20.4648 126.688 20.3477C126.665 20.2305 126.627 20.1507 126.575 20.1084C126.526 20.0661 126.46 20.0449 126.375 20.0449C126.284 20.0449 126.175 20.0693 126.048 20.1182L125.975 19.9424L127.322 19.3955H127.532V20.3428ZM132.527 18.0576V19.5273H133.572V19.8691H132.527V22.7695C132.527 23.0592 132.568 23.2546 132.649 23.3555C132.734 23.4564 132.841 23.5068 132.972 23.5068C133.079 23.5068 133.183 23.4743 133.284 23.4092C133.385 23.3408 133.463 23.2415 133.519 23.1113H133.709C133.595 23.4303 133.434 23.6712 133.226 23.834C133.017 23.9935 132.802 24.0732 132.581 24.0732C132.431 24.0732 132.285 24.0326 132.142 23.9512C131.998 23.8665 131.893 23.7477 131.824 23.5947C131.756 23.4385 131.722 23.1992 131.722 22.877V19.8691H131.014V19.708C131.193 19.6364 131.375 19.516 131.561 19.3467C131.749 19.1742 131.917 18.9707 132.063 18.7363C132.138 18.6126 132.243 18.3864 132.376 18.0576H132.527ZM134.764 21.2119C134.76 21.876 134.922 22.3968 135.247 22.7744C135.573 23.152 135.955 23.3408 136.395 23.3408C136.688 23.3408 136.941 23.2611 137.156 23.1016C137.374 22.9388 137.557 22.6621 137.703 22.2715L137.854 22.3691C137.786 22.8151 137.588 23.222 137.259 23.5898C136.93 23.9544 136.518 24.1367 136.023 24.1367C135.486 24.1367 135.026 23.9284 134.642 23.5117C134.261 23.0918 134.07 22.5286 134.07 21.8223C134.07 21.0573 134.266 20.4616 134.656 20.0352C135.05 19.6055 135.543 19.3906 136.136 19.3906C136.637 19.3906 137.049 19.5566 137.371 19.8887C137.693 20.2174 137.854 20.6585 137.854 21.2119H134.764ZM134.764 20.9287H136.834C136.818 20.6423 136.784 20.4404 136.731 20.3232C136.65 20.141 136.528 19.9977 136.365 19.8936C136.206 19.7894 136.038 19.7373 135.862 19.7373C135.592 19.7373 135.35 19.8431 135.135 20.0547C134.923 20.263 134.799 20.5544 134.764 20.9287ZM139.764 19.3955V20.4014C140.138 19.7308 140.522 19.3955 140.916 19.3955C141.095 19.3955 141.243 19.4508 141.36 19.5615C141.478 19.6689 141.536 19.7943 141.536 19.9375C141.536 20.0645 141.494 20.1719 141.409 20.2598C141.325 20.3477 141.224 20.3916 141.106 20.3916C140.993 20.3916 140.864 20.3363 140.721 20.2256C140.581 20.1117 140.477 20.0547 140.408 20.0547C140.35 20.0547 140.286 20.0872 140.218 20.1523C140.071 20.2858 139.92 20.5055 139.764 20.8115V22.9551C139.764 23.2025 139.795 23.3896 139.856 23.5166C139.899 23.6045 139.974 23.6777 140.081 23.7363C140.188 23.7949 140.343 23.8242 140.545 23.8242V24H138.255V23.8242C138.483 23.8242 138.652 23.7884 138.763 23.7168C138.844 23.6647 138.901 23.5817 138.934 23.4678C138.95 23.4124 138.958 23.2546 138.958 22.9941V21.2607C138.958 20.7399 138.947 20.4307 138.924 20.333C138.904 20.2321 138.865 20.1589 138.807 20.1133C138.751 20.0677 138.681 20.0449 138.597 20.0449C138.496 20.0449 138.382 20.0693 138.255 20.1182L138.206 19.9424L139.559 19.3955H139.764Z" fill="black"/>
<circle cx="65" cy="131" r="3" fill="white" stroke="black" stroke-width="2"/>
</svg>
