<svg width="200" height="200" viewBox="0 0 200 200" fill="none" xmlns="http://www.w3.org/2000/svg">
<rect width="200" height="200" fill="white"/>
<rect x="68.5" y="51.5" width="62" height="97" fill="white" stroke="black" stroke-width="3"/>
<line y1="66" x2="67" y2="66" stroke="black" stroke-width="2"/>
<line y1="129" x2="61" y2="129" stroke="black" stroke-width="2"/>
<line y1="99" x2="67" y2="99" stroke="black" stroke-width="2"/>
<line x1="130" y1="66" x2="200" y2="66" stroke="black" stroke-width="2"/>
<line x1="130" y1="131" x2="200" y2="131" stroke="black" stroke-width="2"/>
<path d="M72.2051 72V71.7832H72.5039C72.8398 71.7832 73.0781 71.6758 73.2188 71.4609C73.3047 71.332 73.3477 71.043 73.3477 70.5938V65.4609C73.3477 64.9648 73.293 64.6543 73.1836 64.5293C73.0312 64.3574 72.8047 64.2715 72.5039 64.2715H72.2051V64.0547H75.4395C76.627 64.0547 77.5293 64.1895 78.1465 64.459C78.7676 64.7285 79.2656 65.1777 79.6406 65.8066C80.0195 66.4355 80.209 67.1621 80.209 67.9863C80.209 69.0918 79.873 70.0156 79.2012 70.7578C78.4473 71.5859 77.2988 72 75.7559 72H72.2051ZM74.4727 71.4258C74.9688 71.5352 75.3848 71.5898 75.7207 71.5898C76.627 71.5898 77.3789 71.2715 77.9766 70.6348C78.5742 69.998 78.873 69.1348 78.873 68.0449C78.873 66.9473 78.5742 66.082 77.9766 65.4492C77.3789 64.8164 76.6113 64.5 75.6738 64.5C75.3223 64.5 74.9219 64.5566 74.4727 64.6699V71.4258Z" fill="black"/>
<path d="M95.2246 95.873L95.4062 98.5742H95.2246C94.9824 97.7656 94.6367 97.1836 94.1875 96.8281C93.7383 96.4727 93.1992 96.2949 92.5703 96.2949C92.043 96.2949 91.5664 96.4297 91.1406 96.6992C90.7148 96.9648 90.3789 97.3906 90.1328 97.9766C89.8906 98.5625 89.7695 99.291 89.7695 100.162C89.7695 100.881 89.8848 101.504 90.1152 102.031C90.3457 102.559 90.6914 102.963 91.1523 103.244C91.6172 103.525 92.1465 103.666 92.7402 103.666C93.2559 103.666 93.7109 103.557 94.1055 103.338C94.5 103.115 94.9336 102.676 95.4062 102.02L95.5879 102.137C95.1895 102.844 94.7246 103.361 94.1934 103.689C93.6621 104.018 93.0312 104.182 92.3008 104.182C90.9844 104.182 89.9648 103.693 89.2422 102.717C88.7031 101.99 88.4336 101.135 88.4336 100.15C88.4336 99.3574 88.6113 98.6289 88.9668 97.9648C89.3223 97.3008 89.8105 96.7871 90.4316 96.4238C91.0566 96.0566 91.7383 95.873 92.4766 95.873C93.0508 95.873 93.6172 96.0137 94.1758 96.2949C94.3398 96.3809 94.457 96.4238 94.5273 96.4238C94.6328 96.4238 94.7246 96.3867 94.8027 96.3125C94.9043 96.207 94.9766 96.0605 95.0195 95.873H95.2246ZM102.883 101.803L103.076 101.844L102.396 104H96.2441V103.783H96.543C96.8789 103.783 97.1191 103.674 97.2637 103.455C97.3457 103.33 97.3867 103.041 97.3867 102.588V97.4609C97.3867 96.9648 97.332 96.6543 97.2227 96.5293C97.0703 96.3574 96.8438 96.2715 96.543 96.2715H96.2441V96.0547H99.8418V96.2715C99.4199 96.2676 99.123 96.3066 98.9512 96.3887C98.7832 96.4707 98.668 96.5742 98.6055 96.6992C98.543 96.8242 98.5117 97.123 98.5117 97.5957V102.588C98.5117 102.912 98.543 103.135 98.6055 103.256C98.6523 103.338 98.7246 103.398 98.8223 103.438C98.9199 103.477 99.2246 103.496 99.7363 103.496H100.316C100.926 103.496 101.354 103.451 101.6 103.361C101.846 103.271 102.07 103.113 102.273 102.887C102.477 102.656 102.68 102.295 102.883 101.803ZM106.926 99.5938L109.855 102.506C110.336 102.986 110.746 103.314 111.086 103.49C111.426 103.662 111.766 103.76 112.105 103.783V104H108.326V103.783C108.553 103.783 108.715 103.746 108.812 103.672C108.914 103.594 108.965 103.508 108.965 103.414C108.965 103.32 108.945 103.236 108.906 103.162C108.871 103.088 108.75 102.949 108.543 102.746L105.801 100.033V102.594C105.801 102.996 105.826 103.262 105.877 103.391C105.916 103.488 105.998 103.572 106.123 103.643C106.291 103.736 106.469 103.783 106.656 103.783H106.926V104H103.539V103.783H103.82C104.148 103.783 104.387 103.688 104.535 103.496C104.629 103.371 104.676 103.07 104.676 102.594V97.4609C104.676 97.0586 104.65 96.791 104.6 96.6582C104.561 96.5645 104.48 96.4824 104.359 96.4121C104.188 96.3184 104.008 96.2715 103.82 96.2715H103.539V96.0547H106.926V96.2715H106.656C106.473 96.2715 106.295 96.3164 106.123 96.4062C106.002 96.4688 105.918 96.5625 105.871 96.6875C105.824 96.8125 105.801 97.0703 105.801 97.4609V99.8926C105.879 99.8184 106.146 99.5703 106.604 99.1484C107.764 98.0859 108.465 97.377 108.707 97.0215C108.812 96.8652 108.865 96.7285 108.865 96.6113C108.865 96.5215 108.824 96.4434 108.742 96.377C108.66 96.3066 108.521 96.2715 108.326 96.2715H108.145V96.0547H111.062V96.2715C110.891 96.2754 110.734 96.2988 110.594 96.3418C110.453 96.3848 110.281 96.4688 110.078 96.5938C109.875 96.7148 109.625 96.9121 109.328 97.1855C109.242 97.2637 108.846 97.6641 108.139 98.3867L106.926 99.5938Z" fill="black"/>
<path d="M80.1094 132H77.9883L75.2988 128.285C75.0996 128.293 74.9375 128.297 74.8125 128.297C74.7617 128.297 74.707 128.297 74.6484 128.297C74.5898 128.293 74.5293 128.289 74.4668 128.285V130.594C74.4668 131.094 74.5215 131.404 74.6309 131.525C74.7793 131.697 75.002 131.783 75.2988 131.783H75.6094V132H72.2051V131.783H72.5039C72.8398 131.783 73.0801 131.674 73.2246 131.455C73.3066 131.334 73.3477 131.047 73.3477 130.594V125.461C73.3477 124.961 73.293 124.65 73.1836 124.529C73.0312 124.357 72.8047 124.271 72.5039 124.271H72.2051V124.055H75.0996C75.9434 124.055 76.5645 124.117 76.9629 124.242C77.3652 124.363 77.7051 124.59 77.9824 124.922C78.2637 125.25 78.4043 125.643 78.4043 126.1C78.4043 126.588 78.2441 127.012 77.9238 127.371C77.6074 127.73 77.1152 127.984 76.4473 128.133L78.0879 130.412C78.4629 130.936 78.7852 131.283 79.0547 131.455C79.3242 131.627 79.6758 131.736 80.1094 131.783V132ZM74.4668 127.916C74.541 127.916 74.6055 127.918 74.6602 127.922C74.7148 127.922 74.7598 127.922 74.7949 127.922C75.5527 127.922 76.123 127.758 76.5059 127.43C76.8926 127.102 77.0859 126.684 77.0859 126.176C77.0859 125.68 76.9297 125.277 76.6172 124.969C76.3086 124.656 75.8984 124.5 75.3867 124.5C75.1602 124.5 74.8535 124.537 74.4668 124.611V127.916ZM85.5059 123.873V126.621H85.2891C85.2188 126.094 85.0918 125.674 84.9082 125.361C84.7285 125.049 84.4707 124.801 84.1348 124.617C83.7988 124.434 83.4512 124.342 83.0918 124.342C82.6855 124.342 82.3496 124.467 82.084 124.717C81.8184 124.963 81.6855 125.244 81.6855 125.561C81.6855 125.803 81.7695 126.023 81.9375 126.223C82.1797 126.516 82.7559 126.906 83.666 127.395C84.4082 127.793 84.9141 128.1 85.1836 128.314C85.457 128.525 85.666 128.775 85.8105 129.064C85.959 129.354 86.0332 129.656 86.0332 129.973C86.0332 130.574 85.7988 131.094 85.3301 131.531C84.8652 131.965 84.2656 132.182 83.5312 132.182C83.3008 132.182 83.084 132.164 82.8809 132.129C82.7598 132.109 82.5078 132.039 82.125 131.918C81.7461 131.793 81.5059 131.73 81.4043 131.73C81.3066 131.73 81.2285 131.76 81.1699 131.818C81.1152 131.877 81.0742 131.998 81.0469 132.182H80.8301V129.457H81.0469C81.1484 130.027 81.2852 130.455 81.457 130.74C81.6289 131.021 81.8906 131.256 82.2422 131.443C82.5977 131.631 82.9863 131.725 83.4082 131.725C83.8965 131.725 84.2812 131.596 84.5625 131.338C84.8477 131.08 84.9902 130.775 84.9902 130.424C84.9902 130.229 84.9355 130.031 84.8262 129.832C84.7207 129.633 84.5547 129.447 84.3281 129.275C84.1758 129.158 83.7598 128.91 83.0801 128.531C82.4004 128.148 81.916 127.844 81.627 127.617C81.3418 127.391 81.125 127.141 80.9766 126.867C80.8281 126.594 80.7539 126.293 80.7539 125.965C80.7539 125.395 80.9727 124.904 81.4102 124.494C81.8477 124.08 82.4043 123.873 83.0801 123.873C83.502 123.873 83.9492 123.977 84.4219 124.184C84.6406 124.281 84.7949 124.33 84.8848 124.33C84.9863 124.33 85.0684 124.301 85.1309 124.242C85.1973 124.18 85.25 124.057 85.2891 123.873H85.5059ZM93.627 124.055L93.7148 125.918H93.4922C93.4492 125.59 93.3906 125.355 93.3164 125.215C93.1953 124.988 93.0332 124.822 92.8301 124.717C92.6309 124.607 92.3672 124.553 92.0391 124.553H90.9199V130.623C90.9199 131.111 90.9727 131.416 91.0781 131.537C91.2266 131.701 91.4551 131.783 91.7637 131.783H92.0391V132H88.6699V131.783H88.9512C89.2871 131.783 89.5254 131.682 89.666 131.479C89.752 131.354 89.7949 131.068 89.7949 130.623V124.553H88.8398C88.4688 124.553 88.2051 124.58 88.0488 124.635C87.8457 124.709 87.6719 124.852 87.5273 125.062C87.3828 125.273 87.2969 125.559 87.2695 125.918H87.0469L87.1406 124.055H93.627Z" fill="black"/>
<path d="M122.285 72.0879C122.684 72.7754 123.113 73.2812 123.574 73.6055C124.039 73.9297 124.566 74.1152 125.156 74.1621V74.3496C124.617 74.3301 124.041 74.2207 123.428 74.0215C122.814 73.8262 122.232 73.5527 121.682 73.2012C121.135 72.8535 120.662 72.4824 120.264 72.0879C119.701 71.8613 119.256 71.6211 118.928 71.3672C118.451 70.9883 118.08 70.5234 117.814 69.9727C117.553 69.418 117.422 68.7637 117.422 68.0098C117.422 66.8223 117.807 65.8359 118.576 65.0508C119.346 64.2656 120.277 63.873 121.371 63.873C122.41 63.873 123.309 64.2676 124.066 65.0566C124.828 65.8418 125.209 66.834 125.209 68.0332C125.209 69.0059 124.938 69.8594 124.395 70.5938C123.855 71.3281 123.152 71.8262 122.285 72.0879ZM121.301 64.3242C120.59 64.3242 120.018 64.5781 119.584 65.0859C119.037 65.7227 118.764 66.6973 118.764 68.0098C118.764 69.2949 119.041 70.2852 119.596 70.9805C120.025 71.5156 120.594 71.7832 121.301 71.7832C122.035 71.7832 122.627 71.5156 123.076 70.9805C123.604 70.3477 123.867 69.4141 123.867 68.1797C123.867 67.2305 123.723 66.4316 123.434 65.7832C123.211 65.2832 122.914 64.916 122.543 64.6816C122.176 64.4434 121.762 64.3242 121.301 64.3242Z" fill="black"/>
<path d="M119.285 132.088C119.684 132.775 120.113 133.281 120.574 133.605C121.039 133.93 121.566 134.115 122.156 134.162V134.35C121.617 134.33 121.041 134.221 120.428 134.021C119.814 133.826 119.232 133.553 118.682 133.201C118.135 132.854 117.662 132.482 117.264 132.088C116.701 131.861 116.256 131.621 115.928 131.367C115.451 130.988 115.08 130.523 114.814 129.973C114.553 129.418 114.422 128.764 114.422 128.01C114.422 126.822 114.807 125.836 115.576 125.051C116.346 124.266 117.277 123.873 118.371 123.873C119.41 123.873 120.309 124.268 121.066 125.057C121.828 125.842 122.209 126.834 122.209 128.033C122.209 129.006 121.938 129.859 121.395 130.594C120.855 131.328 120.152 131.826 119.285 132.088ZM118.301 124.324C117.59 124.324 117.018 124.578 116.584 125.086C116.037 125.723 115.764 126.697 115.764 128.01C115.764 129.295 116.041 130.285 116.596 130.98C117.025 131.516 117.594 131.783 118.301 131.783C119.035 131.783 119.627 131.516 120.076 130.98C120.604 130.348 120.867 129.414 120.867 128.18C120.867 127.23 120.723 126.432 120.434 125.783C120.211 125.283 119.914 124.916 119.543 124.682C119.176 124.443 118.762 124.324 118.301 124.324ZM124.066 126.908V126.633C124.469 126.395 124.742 126.172 124.887 125.965C124.988 125.816 125.039 125.639 125.039 125.432C125.039 125.311 125.018 125.221 124.975 125.162C124.928 125.104 124.877 125.074 124.822 125.074C124.779 125.074 124.723 125.088 124.652 125.115C124.551 125.15 124.467 125.168 124.4 125.168C124.244 125.168 124.105 125.109 123.984 124.992C123.863 124.875 123.803 124.729 123.803 124.553C123.803 124.357 123.863 124.205 123.984 124.096C124.148 123.947 124.344 123.873 124.57 123.873C124.832 123.873 125.066 123.984 125.273 124.207C125.484 124.426 125.59 124.699 125.59 125.027C125.59 125.488 125.416 125.908 125.068 126.287C124.838 126.537 124.504 126.744 124.066 126.908Z" fill="black"/>
<path d="M24.1709 24V23.8193H24.4199C24.6999 23.8193 24.8984 23.7298 25.0156 23.5508C25.0872 23.4434 25.123 23.2025 25.123 22.8281V18.5508C25.123 18.1374 25.0775 17.8786 24.9863 17.7744C24.8594 17.6312 24.6706 17.5596 24.4199 17.5596H24.1709V17.3789H26.8662C27.8558 17.3789 28.6077 17.4912 29.1221 17.7158C29.6396 17.9404 30.0547 18.3148 30.3672 18.8389C30.6829 19.363 30.8408 19.9684 30.8408 20.6553C30.8408 21.5765 30.5609 22.3464 30.001 22.9648C29.3727 23.6549 28.4157 24 27.1299 24H24.1709ZM26.0605 23.5215C26.474 23.6126 26.8206 23.6582 27.1006 23.6582C27.8558 23.6582 28.4824 23.3929 28.9805 22.8623C29.4785 22.3317 29.7275 21.6123 29.7275 20.7041C29.7275 19.7894 29.4785 19.0684 28.9805 18.541C28.4824 18.0137 27.8428 17.75 27.0615 17.75C26.7686 17.75 26.4349 17.7972 26.0605 17.8916V23.5215ZM35.7725 17.7402V20.3428H36.9785C37.2552 20.3428 37.457 20.2826 37.584 20.1621C37.7142 20.0384 37.8005 19.7959 37.8428 19.4346H38.0234V21.6758H37.8428C37.8395 21.4186 37.8053 21.2298 37.7402 21.1094C37.6784 20.9889 37.5905 20.8994 37.4766 20.8408C37.3659 20.779 37.1999 20.748 36.9785 20.748H35.7725V22.8281C35.7725 23.1634 35.7936 23.3848 35.8359 23.4922C35.8685 23.5736 35.9368 23.6436 36.041 23.7021C36.1842 23.7803 36.334 23.8193 36.4902 23.8193H36.7295V24H33.8877V23.8193H34.1221C34.3955 23.8193 34.5941 23.7396 34.7178 23.5801C34.7959 23.4759 34.835 23.2253 34.835 22.8281V18.5508C34.835 18.2155 34.8138 17.9941 34.7715 17.8867C34.7389 17.8053 34.6722 17.7354 34.5713 17.6768C34.4313 17.5986 34.2816 17.5596 34.1221 17.5596H33.8877V17.3789H38.8145L38.8779 18.834H38.707C38.6224 18.5247 38.5231 18.2985 38.4092 18.1553C38.2985 18.0088 38.1602 17.903 37.9941 17.8379C37.8314 17.7728 37.5775 17.7402 37.2324 17.7402H35.7725ZM41.1436 17.0566V22.9893C41.1436 23.2692 41.1631 23.4548 41.2021 23.5459C41.2445 23.637 41.3079 23.707 41.3926 23.7559C41.4772 23.8014 41.6351 23.8242 41.8662 23.8242V24H39.6738V23.8242C39.8789 23.8242 40.0189 23.8031 40.0938 23.7607C40.1686 23.7184 40.2272 23.6484 40.2695 23.5508C40.3118 23.4531 40.333 23.266 40.333 22.9893V18.9268C40.333 18.4222 40.3216 18.113 40.2988 17.999C40.276 17.8818 40.2386 17.8021 40.1865 17.7598C40.1377 17.7174 40.0742 17.6963 39.9961 17.6963C39.9115 17.6963 39.804 17.7223 39.6738 17.7744L39.5908 17.6035L40.9238 17.0566H41.1436ZM43.5264 17.0566C43.6631 17.0566 43.7786 17.1055 43.873 17.2031C43.9707 17.2975 44.0195 17.4131 44.0195 17.5498C44.0195 17.6865 43.9707 17.8037 43.873 17.9014C43.7786 17.999 43.6631 18.0479 43.5264 18.0479C43.3896 18.0479 43.2725 17.999 43.1748 17.9014C43.0771 17.8037 43.0283 17.6865 43.0283 17.5498C43.0283 17.4131 43.0755 17.2975 43.1699 17.2031C43.2676 17.1055 43.3864 17.0566 43.5264 17.0566ZM43.9316 19.3955V22.9893C43.9316 23.2692 43.9512 23.4564 43.9902 23.5508C44.0326 23.6419 44.0928 23.7103 44.1709 23.7559C44.2523 23.8014 44.3988 23.8242 44.6104 23.8242V24H42.4375V23.8242C42.6556 23.8242 42.8021 23.8031 42.877 23.7607C42.9518 23.7184 43.0104 23.6484 43.0527 23.5508C43.0983 23.4531 43.1211 23.266 43.1211 22.9893V21.2656C43.1211 20.7806 43.1064 20.4665 43.0771 20.3232C43.0544 20.2191 43.0186 20.1475 42.9697 20.1084C42.9209 20.0661 42.8542 20.0449 42.7695 20.0449C42.6784 20.0449 42.5677 20.0693 42.4375 20.1182L42.3691 19.9424L43.7168 19.3955H43.9316ZM44.8496 19.9717L46.2266 19.415H46.4121V20.46C46.6432 20.0661 46.8743 19.791 47.1055 19.6348C47.3398 19.4753 47.5856 19.3955 47.8428 19.3955C48.292 19.3955 48.6663 19.5713 48.9658 19.9229C49.3337 20.3525 49.5176 20.9124 49.5176 21.6025C49.5176 22.374 49.2962 23.012 48.8535 23.5166C48.4889 23.93 48.0299 24.1367 47.4766 24.1367C47.2357 24.1367 47.0273 24.1025 46.8516 24.0342C46.7214 23.9854 46.5749 23.8877 46.4121 23.7412V25.1035C46.4121 25.4095 46.43 25.6032 46.4658 25.6846C46.5049 25.7692 46.57 25.8359 46.6611 25.8848C46.7555 25.9336 46.9248 25.958 47.1689 25.958V26.1387H44.8252V25.958H44.9473C45.1263 25.9613 45.2793 25.9271 45.4062 25.8555C45.4681 25.8197 45.5153 25.7611 45.5479 25.6797C45.5837 25.6016 45.6016 25.3997 45.6016 25.0742V20.8457C45.6016 20.556 45.5885 20.3721 45.5625 20.2939C45.5365 20.2158 45.4941 20.1572 45.4355 20.1182C45.3802 20.0791 45.3037 20.0596 45.2061 20.0596C45.1279 20.0596 45.0286 20.0824 44.9082 20.1279L44.8496 19.9717ZM46.4121 20.748V22.418C46.4121 22.7793 46.4268 23.0169 46.4561 23.1309C46.5016 23.3197 46.6123 23.4857 46.7881 23.6289C46.9671 23.7721 47.1917 23.8438 47.4619 23.8438C47.7874 23.8438 48.0511 23.7168 48.2529 23.4629C48.5166 23.1309 48.6484 22.6637 48.6484 22.0615C48.6484 21.3779 48.4987 20.8522 48.1992 20.4844C47.9909 20.2305 47.7435 20.1035 47.457 20.1035C47.3008 20.1035 47.1462 20.1426 46.9932 20.2207C46.876 20.2793 46.6823 20.4551 46.4121 20.748ZM50.2646 21.3877H52.7891V22.125H50.2646V21.3877ZM55.2354 17.7402V20.3428H56.4414C56.7181 20.3428 56.9199 20.2826 57.0469 20.1621C57.1771 20.0384 57.2633 19.7959 57.3057 19.4346H57.4863V21.6758H57.3057C57.3024 21.4186 57.2682 21.2298 57.2031 21.1094C57.1413 20.9889 57.0534 20.8994 56.9395 20.8408C56.8288 20.779 56.6628 20.748 56.4414 20.748H55.2354V22.8281C55.2354 23.1634 55.2565 23.3848 55.2988 23.4922C55.3314 23.5736 55.3997 23.6436 55.5039 23.7021C55.6471 23.7803 55.7969 23.8193 55.9531 23.8193H56.1924V24H53.3506V23.8193H53.585C53.8584 23.8193 54.057 23.7396 54.1807 23.5801C54.2588 23.4759 54.2979 23.2253 54.2979 22.8281V18.5508C54.2979 18.2155 54.2767 17.9941 54.2344 17.8867C54.2018 17.8053 54.1351 17.7354 54.0342 17.6768C53.8942 17.5986 53.7445 17.5596 53.585 17.5596H53.3506V17.3789H58.2773L58.3408 18.834H58.1699C58.0853 18.5247 57.986 18.2985 57.8721 18.1553C57.7614 18.0088 57.623 17.903 57.457 17.8379C57.2943 17.7728 57.0404 17.7402 56.6953 17.7402H55.2354ZM60.6064 17.0566V22.9893C60.6064 23.2692 60.626 23.4548 60.665 23.5459C60.7074 23.637 60.7708 23.707 60.8555 23.7559C60.9401 23.8014 61.098 23.8242 61.3291 23.8242V24H59.1367V23.8242C59.3418 23.8242 59.4818 23.8031 59.5566 23.7607C59.6315 23.7184 59.6901 23.6484 59.7324 23.5508C59.7747 23.4531 59.7959 23.266 59.7959 22.9893V18.9268C59.7959 18.4222 59.7845 18.113 59.7617 17.999C59.7389 17.8818 59.7015 17.8021 59.6494 17.7598C59.6006 17.7174 59.5371 17.6963 59.459 17.6963C59.3743 17.6963 59.2669 17.7223 59.1367 17.7744L59.0537 17.6035L60.3867 17.0566H60.6064ZM64.0391 19.3955C64.7161 19.3955 65.2598 19.6527 65.6699 20.167C66.0182 20.6064 66.1924 21.111 66.1924 21.6807C66.1924 22.0811 66.0964 22.4863 65.9043 22.8965C65.7122 23.3066 65.4469 23.6159 65.1084 23.8242C64.7731 24.0326 64.3988 24.1367 63.9854 24.1367C63.3115 24.1367 62.776 23.8682 62.3789 23.3311C62.0436 22.8786 61.876 22.3708 61.876 21.8076C61.876 21.3975 61.9769 20.9906 62.1787 20.5869C62.3838 20.18 62.6523 19.8805 62.9844 19.6885C63.3164 19.4932 63.668 19.3955 64.0391 19.3955ZM63.8877 19.7129C63.7152 19.7129 63.541 19.765 63.3652 19.8691C63.1927 19.9701 63.0527 20.1491 62.9453 20.4062C62.8379 20.6634 62.7842 20.9938 62.7842 21.3975C62.7842 22.0485 62.9128 22.61 63.1699 23.082C63.4303 23.554 63.7721 23.79 64.1953 23.79C64.5111 23.79 64.7715 23.6598 64.9766 23.3994C65.1816 23.139 65.2842 22.6914 65.2842 22.0566C65.2842 21.2624 65.1133 20.6374 64.7715 20.1816C64.5404 19.8691 64.2458 19.7129 63.8877 19.7129ZM66.5293 19.9717L67.9062 19.415H68.0918V20.46C68.3229 20.0661 68.554 19.791 68.7852 19.6348C69.0195 19.4753 69.2653 19.3955 69.5225 19.3955C69.9717 19.3955 70.346 19.5713 70.6455 19.9229C71.0133 20.3525 71.1973 20.9124 71.1973 21.6025C71.1973 22.374 70.9759 23.012 70.5332 23.5166C70.1686 23.93 69.7096 24.1367 69.1562 24.1367C68.9154 24.1367 68.707 24.1025 68.5312 24.0342C68.401 23.9854 68.2546 23.8877 68.0918 23.7412V25.1035C68.0918 25.4095 68.1097 25.6032 68.1455 25.6846C68.1846 25.7692 68.2497 25.8359 68.3408 25.8848C68.4352 25.9336 68.6045 25.958 68.8486 25.958V26.1387H66.5049V25.958H66.627C66.806 25.9613 66.959 25.9271 67.0859 25.8555C67.1478 25.8197 67.195 25.7611 67.2275 25.6797C67.2633 25.6016 67.2812 25.3997 67.2812 25.0742V20.8457C67.2812 20.556 67.2682 20.3721 67.2422 20.2939C67.2161 20.2158 67.1738 20.1572 67.1152 20.1182C67.0599 20.0791 66.9834 20.0596 66.8857 20.0596C66.8076 20.0596 66.7083 20.0824 66.5879 20.1279L66.5293 19.9717ZM68.0918 20.748V22.418C68.0918 22.7793 68.1064 23.0169 68.1357 23.1309C68.1813 23.3197 68.292 23.4857 68.4678 23.6289C68.6468 23.7721 68.8714 23.8438 69.1416 23.8438C69.4671 23.8438 69.7308 23.7168 69.9326 23.4629C70.1963 23.1309 70.3281 22.6637 70.3281 22.0615C70.3281 21.3779 70.1784 20.8522 69.8789 20.4844C69.6706 20.2305 69.4232 20.1035 69.1367 20.1035C68.9805 20.1035 68.8258 20.1426 68.6729 20.2207C68.5557 20.2793 68.362 20.4551 68.0918 20.748ZM73.9072 17.3789H75.7041L79.752 22.3447V18.5264C79.752 18.1195 79.7064 17.8656 79.6152 17.7646C79.4948 17.6279 79.3044 17.5596 79.0439 17.5596H78.8145V17.3789H81.1191V17.5596H80.8848C80.6048 17.5596 80.4062 17.6442 80.2891 17.8135C80.2174 17.9176 80.1816 18.1553 80.1816 18.5264V24.1074H80.0059L75.6406 18.7754V22.8525C75.6406 23.2594 75.6846 23.5133 75.7725 23.6143C75.8962 23.751 76.0866 23.8193 76.3438 23.8193H76.5781V24H74.2734V23.8193H74.5029C74.7861 23.8193 74.9863 23.7347 75.1035 23.5654C75.1751 23.4613 75.2109 23.2236 75.2109 22.8525V18.248C75.0189 18.0234 74.8724 17.8753 74.7715 17.8037C74.6738 17.7321 74.529 17.6654 74.3369 17.6035C74.2425 17.5742 74.0993 17.5596 73.9072 17.5596V17.3789ZM82.3301 21.2119C82.3268 21.876 82.488 22.3968 82.8135 22.7744C83.139 23.152 83.5215 23.3408 83.9609 23.3408C84.2539 23.3408 84.5078 23.2611 84.7227 23.1016C84.9408 22.9388 85.123 22.6621 85.2695 22.2715L85.4209 22.3691C85.3525 22.8151 85.154 23.222 84.8252 23.5898C84.4964 23.9544 84.0846 24.1367 83.5898 24.1367C83.0527 24.1367 82.5921 23.9284 82.208 23.5117C81.8271 23.0918 81.6367 22.5286 81.6367 21.8223C81.6367 21.0573 81.832 20.4616 82.2227 20.0352C82.6165 19.6055 83.1097 19.3906 83.7021 19.3906C84.2035 19.3906 84.6152 19.5566 84.9375 19.8887C85.2598 20.2174 85.4209 20.6585 85.4209 21.2119H82.3301ZM82.3301 20.9287H84.4004C84.3841 20.6423 84.3499 20.4404 84.2979 20.3232C84.2165 20.141 84.0944 19.9977 83.9316 19.8936C83.7721 19.7894 83.6045 19.7373 83.4287 19.7373C83.1585 19.7373 82.916 19.8431 82.7012 20.0547C82.4896 20.263 82.3659 20.5544 82.3301 20.9287ZM87.2178 22.3691C86.9443 22.2357 86.7344 22.0501 86.5879 21.8125C86.4414 21.5716 86.3682 21.3063 86.3682 21.0166C86.3682 20.5739 86.5342 20.193 86.8662 19.874C87.2015 19.555 87.6296 19.3955 88.1504 19.3955C88.5768 19.3955 88.9463 19.4997 89.2588 19.708H90.2061C90.346 19.708 90.4274 19.7129 90.4502 19.7227C90.473 19.7292 90.4893 19.7422 90.499 19.7617C90.5186 19.791 90.5283 19.8431 90.5283 19.918C90.5283 20.0026 90.5202 20.0612 90.5039 20.0938C90.4941 20.11 90.4762 20.123 90.4502 20.1328C90.4274 20.1426 90.346 20.1475 90.2061 20.1475H89.625C89.8073 20.3818 89.8984 20.6813 89.8984 21.0459C89.8984 21.4626 89.7389 21.819 89.4199 22.1152C89.1009 22.4115 88.6729 22.5596 88.1357 22.5596C87.9144 22.5596 87.6882 22.527 87.457 22.4619C87.3138 22.5856 87.2161 22.6947 87.1641 22.7891C87.1152 22.8802 87.0908 22.9583 87.0908 23.0234C87.0908 23.0788 87.1169 23.1325 87.1689 23.1846C87.2243 23.2367 87.3301 23.2741 87.4863 23.2969C87.5775 23.3099 87.8053 23.3213 88.1699 23.3311C88.8405 23.3473 89.2751 23.3701 89.4736 23.3994C89.7764 23.4417 90.0173 23.554 90.1963 23.7363C90.3786 23.9186 90.4697 24.1432 90.4697 24.4102C90.4697 24.778 90.2972 25.123 89.9521 25.4453C89.4443 25.9206 88.7819 26.1582 87.9648 26.1582C87.3366 26.1582 86.806 26.0166 86.373 25.7334C86.1289 25.5706 86.0068 25.4014 86.0068 25.2256C86.0068 25.1475 86.0247 25.0693 86.0605 24.9912C86.1159 24.8708 86.2298 24.7031 86.4023 24.4883C86.4251 24.459 86.5911 24.2832 86.9004 23.9609C86.7311 23.86 86.6107 23.7705 86.5391 23.6924C86.4707 23.611 86.4365 23.5199 86.4365 23.4189C86.4365 23.305 86.4821 23.1715 86.5732 23.0186C86.6676 22.8656 86.8825 22.6491 87.2178 22.3691ZM88.0674 19.6299C87.8265 19.6299 87.6247 19.7259 87.4619 19.918C87.2992 20.11 87.2178 20.4046 87.2178 20.8018C87.2178 21.3161 87.3285 21.7148 87.5498 21.998C87.7191 22.2129 87.9339 22.3203 88.1943 22.3203C88.4417 22.3203 88.6452 22.2275 88.8047 22.042C88.9642 21.8564 89.0439 21.5651 89.0439 21.168C89.0439 20.6504 88.9316 20.2451 88.707 19.9521C88.541 19.7373 88.3278 19.6299 88.0674 19.6299ZM87.1689 24C87.016 24.166 86.9004 24.3206 86.8223 24.4639C86.7441 24.6071 86.7051 24.7389 86.7051 24.8594C86.7051 25.0156 86.7995 25.1523 86.9883 25.2695C87.3138 25.4714 87.7842 25.5723 88.3994 25.5723C88.9854 25.5723 89.4167 25.4681 89.6934 25.2598C89.9733 25.0547 90.1133 24.835 90.1133 24.6006C90.1133 24.4313 90.0303 24.3109 89.8643 24.2393C89.695 24.1676 89.3597 24.1253 88.8584 24.1123C88.126 24.0928 87.5628 24.0553 87.1689 24ZM93.5557 23.3555C93.0967 23.7103 92.8086 23.9154 92.6914 23.9707C92.5156 24.0521 92.3285 24.0928 92.1299 24.0928C91.8206 24.0928 91.5651 23.987 91.3633 23.7754C91.1647 23.5638 91.0654 23.2855 91.0654 22.9404C91.0654 22.7223 91.1143 22.5335 91.2119 22.374C91.3454 22.1527 91.5765 21.9443 91.9053 21.749C92.2373 21.5537 92.7874 21.3161 93.5557 21.0361V20.8604C93.5557 20.4144 93.484 20.1084 93.3408 19.9424C93.2008 19.7764 92.9958 19.6934 92.7256 19.6934C92.5205 19.6934 92.3577 19.7487 92.2373 19.8594C92.1136 19.9701 92.0518 20.097 92.0518 20.2402L92.0615 20.5234C92.0615 20.6732 92.0225 20.7887 91.9443 20.8701C91.8695 20.9515 91.7702 20.9922 91.6465 20.9922C91.526 20.9922 91.4268 20.9499 91.3486 20.8652C91.2738 20.7806 91.2363 20.665 91.2363 20.5186C91.2363 20.2386 91.3796 19.9814 91.666 19.7471C91.9525 19.5127 92.3545 19.3955 92.8721 19.3955C93.2692 19.3955 93.5947 19.4622 93.8486 19.5957C94.0407 19.6966 94.1823 19.8545 94.2734 20.0693C94.332 20.2093 94.3613 20.4958 94.3613 20.9287V22.4473C94.3613 22.8737 94.3695 23.1357 94.3857 23.2334C94.402 23.3278 94.4281 23.3913 94.4639 23.4238C94.5029 23.4564 94.5469 23.4727 94.5957 23.4727C94.6478 23.4727 94.6934 23.4613 94.7324 23.4385C94.8008 23.3962 94.9326 23.2773 95.1279 23.082V23.3555C94.7633 23.8438 94.415 24.0879 94.083 24.0879C93.9235 24.0879 93.7965 24.0326 93.7021 23.9219C93.6077 23.8112 93.5589 23.6224 93.5557 23.3555ZM93.5557 23.0381V21.334C93.0641 21.5293 92.7467 21.6676 92.6035 21.749C92.3464 21.8923 92.1624 22.042 92.0518 22.1982C91.9411 22.3545 91.8857 22.5254 91.8857 22.7109C91.8857 22.9453 91.9557 23.1406 92.0957 23.2969C92.2357 23.4499 92.3968 23.5264 92.5791 23.5264C92.8265 23.5264 93.152 23.3636 93.5557 23.0381ZM96.7637 18.0576V19.5273H97.8086V19.8691H96.7637V22.7695C96.7637 23.0592 96.8044 23.2546 96.8857 23.3555C96.9704 23.4564 97.0778 23.5068 97.208 23.5068C97.3154 23.5068 97.4196 23.4743 97.5205 23.4092C97.6214 23.3408 97.6995 23.2415 97.7549 23.1113H97.9453C97.8314 23.4303 97.6702 23.6712 97.4619 23.834C97.2536 23.9935 97.0387 24.0732 96.8174 24.0732C96.6676 24.0732 96.5212 24.0326 96.3779 23.9512C96.2347 23.8665 96.1289 23.7477 96.0605 23.5947C95.9922 23.4385 95.958 23.1992 95.958 22.877V19.8691H95.25V19.708C95.429 19.6364 95.6113 19.516 95.7969 19.3467C95.9857 19.1742 96.1533 18.9707 96.2998 18.7363C96.3747 18.6126 96.4788 18.3864 96.6123 18.0576H96.7637ZM99.3857 17.0566C99.5225 17.0566 99.638 17.1055 99.7324 17.2031C99.8301 17.2975 99.8789 17.4131 99.8789 17.5498C99.8789 17.6865 99.8301 17.8037 99.7324 17.9014C99.638 17.999 99.5225 18.0479 99.3857 18.0479C99.249 18.0479 99.1318 17.999 99.0342 17.9014C98.9365 17.8037 98.8877 17.6865 98.8877 17.5498C98.8877 17.4131 98.9349 17.2975 99.0293 17.2031C99.127 17.1055 99.2458 17.0566 99.3857 17.0566ZM99.791 19.3955V22.9893C99.791 23.2692 99.8105 23.4564 99.8496 23.5508C99.8919 23.6419 99.9521 23.7103 100.03 23.7559C100.112 23.8014 100.258 23.8242 100.47 23.8242V24H98.2969V23.8242C98.515 23.8242 98.6615 23.8031 98.7363 23.7607C98.8112 23.7184 98.8698 23.6484 98.9121 23.5508C98.9577 23.4531 98.9805 23.266 98.9805 22.9893V21.2656C98.9805 20.7806 98.9658 20.4665 98.9365 20.3232C98.9137 20.2191 98.8779 20.1475 98.8291 20.1084C98.7803 20.0661 98.7135 20.0449 98.6289 20.0449C98.5378 20.0449 98.4271 20.0693 98.2969 20.1182L98.2285 19.9424L99.5762 19.3955H99.791ZM100.802 19.5273H102.906V19.708H102.77C102.643 19.708 102.545 19.7389 102.477 19.8008C102.411 19.8626 102.379 19.9456 102.379 20.0498C102.379 20.1637 102.413 20.2988 102.481 20.4551L103.521 22.9258L104.566 20.3623C104.641 20.18 104.679 20.0417 104.679 19.9473C104.679 19.9017 104.666 19.8643 104.64 19.835C104.604 19.7861 104.558 19.7536 104.503 19.7373C104.448 19.7178 104.335 19.708 104.166 19.708V19.5273H105.626V19.708C105.457 19.721 105.34 19.7552 105.274 19.8105C105.16 19.9082 105.058 20.071 104.967 20.2988L103.38 24.1367H103.18L101.583 20.3623C101.511 20.1865 101.443 20.0612 101.378 19.9863C101.313 19.9082 101.23 19.8431 101.129 19.791C101.074 19.7617 100.965 19.734 100.802 19.708V19.5273ZM106.783 21.2119C106.78 21.876 106.941 22.3968 107.267 22.7744C107.592 23.152 107.975 23.3408 108.414 23.3408C108.707 23.3408 108.961 23.2611 109.176 23.1016C109.394 22.9388 109.576 22.6621 109.723 22.2715L109.874 22.3691C109.806 22.8151 109.607 23.222 109.278 23.5898C108.95 23.9544 108.538 24.1367 108.043 24.1367C107.506 24.1367 107.045 23.9284 106.661 23.5117C106.28 23.0918 106.09 22.5286 106.09 21.8223C106.09 21.0573 106.285 20.4616 106.676 20.0352C107.07 19.6055 107.563 19.3906 108.155 19.3906C108.657 19.3906 109.068 19.5566 109.391 19.8887C109.713 20.2174 109.874 20.6585 109.874 21.2119H106.783ZM106.783 20.9287H108.854C108.837 20.6423 108.803 20.4404 108.751 20.3232C108.67 20.141 108.548 19.9977 108.385 19.8936C108.225 19.7894 108.058 19.7373 107.882 19.7373C107.612 19.7373 107.369 19.8431 107.154 20.0547C106.943 20.263 106.819 20.5544 106.783 20.9287ZM114.752 17.7402V20.3574H116.207C116.585 20.3574 116.837 20.3005 116.964 20.1865C117.133 20.0368 117.228 19.7731 117.247 19.3955H117.428V21.7002H117.247C117.201 21.3779 117.156 21.1712 117.11 21.0801C117.052 20.9661 116.956 20.8766 116.822 20.8115C116.689 20.7464 116.484 20.7139 116.207 20.7139H114.752V22.8965C114.752 23.1895 114.765 23.3685 114.791 23.4336C114.817 23.4954 114.863 23.5459 114.928 23.585C114.993 23.6208 115.117 23.6387 115.299 23.6387H116.422C116.796 23.6387 117.068 23.6126 117.237 23.5605C117.407 23.5085 117.569 23.4059 117.726 23.2529C117.927 23.0511 118.134 22.7467 118.346 22.3398H118.541L117.97 24H112.867V23.8193H113.102C113.258 23.8193 113.406 23.7819 113.546 23.707C113.65 23.6549 113.72 23.5768 113.756 23.4727C113.795 23.3685 113.814 23.1553 113.814 22.833V18.5312C113.814 18.1113 113.772 17.8525 113.688 17.7549C113.57 17.6247 113.375 17.5596 113.102 17.5596H112.867V17.3789H117.97L118.043 18.8291H117.853C117.784 18.4808 117.708 18.2415 117.623 18.1113C117.542 17.9811 117.42 17.8818 117.257 17.8135C117.127 17.7646 116.897 17.7402 116.568 17.7402H114.752ZM122.247 23.4971C122.029 23.7249 121.816 23.8893 121.607 23.9902C121.399 24.0879 121.174 24.1367 120.934 24.1367C120.445 24.1367 120.019 23.9333 119.654 23.5264C119.29 23.1162 119.107 22.5905 119.107 21.9492C119.107 21.3079 119.309 20.722 119.713 20.1914C120.117 19.6576 120.636 19.3906 121.271 19.3906C121.664 19.3906 121.99 19.516 122.247 19.7666V18.9414C122.247 18.4303 122.234 18.1162 122.208 17.999C122.185 17.8818 122.148 17.8021 122.096 17.7598C122.044 17.7174 121.979 17.6963 121.9 17.6963C121.816 17.6963 121.703 17.7223 121.563 17.7744L121.5 17.6035L122.833 17.0566H123.053V22.2275C123.053 22.7516 123.064 23.0723 123.087 23.1895C123.113 23.3034 123.152 23.3831 123.204 23.4287C123.259 23.4743 123.323 23.4971 123.395 23.4971C123.482 23.4971 123.6 23.4694 123.746 23.4141L123.8 23.585L122.472 24.1367H122.247V23.4971ZM122.247 23.1553V20.8506C122.228 20.6292 122.169 20.4274 122.071 20.2451C121.974 20.0628 121.843 19.9261 121.681 19.835C121.521 19.7406 121.365 19.6934 121.212 19.6934C120.925 19.6934 120.67 19.8219 120.445 20.0791C120.149 20.4176 120.001 20.9124 120.001 21.5635C120.001 22.221 120.144 22.7256 120.431 23.0771C120.717 23.4255 121.036 23.5996 121.388 23.5996C121.684 23.5996 121.97 23.4515 122.247 23.1553ZM125.284 22.3691C125.011 22.2357 124.801 22.0501 124.654 21.8125C124.508 21.5716 124.435 21.3063 124.435 21.0166C124.435 20.5739 124.601 20.193 124.933 19.874C125.268 19.555 125.696 19.3955 126.217 19.3955C126.643 19.3955 127.013 19.4997 127.325 19.708H128.272C128.412 19.708 128.494 19.7129 128.517 19.7227C128.539 19.7292 128.556 19.7422 128.565 19.7617C128.585 19.791 128.595 19.8431 128.595 19.918C128.595 20.0026 128.587 20.0612 128.57 20.0938C128.561 20.11 128.543 20.123 128.517 20.1328C128.494 20.1426 128.412 20.1475 128.272 20.1475H127.691C127.874 20.3818 127.965 20.6813 127.965 21.0459C127.965 21.4626 127.805 21.819 127.486 22.1152C127.167 22.4115 126.739 22.5596 126.202 22.5596C125.981 22.5596 125.755 22.527 125.523 22.4619C125.38 22.5856 125.283 22.6947 125.23 22.7891C125.182 22.8802 125.157 22.9583 125.157 23.0234C125.157 23.0788 125.183 23.1325 125.235 23.1846C125.291 23.2367 125.396 23.2741 125.553 23.2969C125.644 23.3099 125.872 23.3213 126.236 23.3311C126.907 23.3473 127.341 23.3701 127.54 23.3994C127.843 23.4417 128.084 23.554 128.263 23.7363C128.445 23.9186 128.536 24.1432 128.536 24.4102C128.536 24.778 128.364 25.123 128.019 25.4453C127.511 25.9206 126.848 26.1582 126.031 26.1582C125.403 26.1582 124.872 26.0166 124.439 25.7334C124.195 25.5706 124.073 25.4014 124.073 25.2256C124.073 25.1475 124.091 25.0693 124.127 24.9912C124.182 24.8708 124.296 24.7031 124.469 24.4883C124.492 24.459 124.658 24.2832 124.967 23.9609C124.798 23.86 124.677 23.7705 124.605 23.6924C124.537 23.611 124.503 23.5199 124.503 23.4189C124.503 23.305 124.549 23.1715 124.64 23.0186C124.734 22.8656 124.949 22.6491 125.284 22.3691ZM126.134 19.6299C125.893 19.6299 125.691 19.7259 125.528 19.918C125.366 20.11 125.284 20.4046 125.284 20.8018C125.284 21.3161 125.395 21.7148 125.616 21.998C125.785 22.2129 126 22.3203 126.261 22.3203C126.508 22.3203 126.712 22.2275 126.871 22.042C127.031 21.8564 127.11 21.5651 127.11 21.168C127.11 20.6504 126.998 20.2451 126.773 19.9521C126.607 19.7373 126.394 19.6299 126.134 19.6299ZM125.235 24C125.082 24.166 124.967 24.3206 124.889 24.4639C124.811 24.6071 124.771 24.7389 124.771 24.8594C124.771 25.0156 124.866 25.1523 125.055 25.2695C125.38 25.4714 125.851 25.5723 126.466 25.5723C127.052 25.5723 127.483 25.4681 127.76 25.2598C128.04 25.0547 128.18 24.835 128.18 24.6006C128.18 24.4313 128.097 24.3109 127.931 24.2393C127.761 24.1676 127.426 24.1253 126.925 24.1123C126.192 24.0928 125.629 24.0553 125.235 24ZM129.84 21.2119C129.837 21.876 129.998 22.3968 130.323 22.7744C130.649 23.152 131.031 23.3408 131.471 23.3408C131.764 23.3408 132.018 23.2611 132.232 23.1016C132.451 22.9388 132.633 22.6621 132.779 22.2715L132.931 22.3691C132.862 22.8151 132.664 23.222 132.335 23.5898C132.006 23.9544 131.594 24.1367 131.1 24.1367C130.562 24.1367 130.102 23.9284 129.718 23.5117C129.337 23.0918 129.146 22.5286 129.146 21.8223C129.146 21.0573 129.342 20.4616 129.732 20.0352C130.126 19.6055 130.619 19.3906 131.212 19.3906C131.713 19.3906 132.125 19.5566 132.447 19.8887C132.77 20.2174 132.931 20.6585 132.931 21.2119H129.84ZM129.84 20.9287H131.91C131.894 20.6423 131.86 20.4404 131.808 20.3232C131.726 20.141 131.604 19.9977 131.441 19.8936C131.282 19.7894 131.114 19.7373 130.938 19.7373C130.668 19.7373 130.426 19.8431 130.211 20.0547C129.999 20.263 129.876 20.5544 129.84 20.9287ZM141.319 17.3789L141.393 18.9316H141.207C141.171 18.6582 141.122 18.4629 141.061 18.3457C140.96 18.1569 140.825 18.0186 140.655 17.9307C140.489 17.8395 140.27 17.7939 139.996 17.7939H139.063V22.8525C139.063 23.2594 139.107 23.5133 139.195 23.6143C139.319 23.751 139.509 23.8193 139.767 23.8193H139.996V24H137.188V23.8193H137.423C137.703 23.8193 137.901 23.7347 138.019 23.5654C138.09 23.4613 138.126 23.2236 138.126 22.8525V17.7939H137.33C137.021 17.7939 136.801 17.8167 136.671 17.8623C136.502 17.9242 136.357 18.043 136.236 18.2188C136.116 18.3945 136.044 18.6322 136.021 18.9316H135.836L135.914 17.3789H141.319ZM142.916 19.3955V20.4014C143.29 19.7308 143.674 19.3955 144.068 19.3955C144.247 19.3955 144.396 19.4508 144.513 19.5615C144.63 19.6689 144.688 19.7943 144.688 19.9375C144.688 20.0645 144.646 20.1719 144.562 20.2598C144.477 20.3477 144.376 20.3916 144.259 20.3916C144.145 20.3916 144.016 20.3363 143.873 20.2256C143.733 20.1117 143.629 20.0547 143.561 20.0547C143.502 20.0547 143.438 20.0872 143.37 20.1523C143.224 20.2858 143.072 20.5055 142.916 20.8115V22.9551C142.916 23.2025 142.947 23.3896 143.009 23.5166C143.051 23.6045 143.126 23.6777 143.233 23.7363C143.341 23.7949 143.495 23.8242 143.697 23.8242V24H141.407V23.8242C141.635 23.8242 141.804 23.7884 141.915 23.7168C141.996 23.6647 142.053 23.5817 142.086 23.4678C142.102 23.4124 142.11 23.2546 142.11 22.9941V21.2607C142.11 20.7399 142.099 20.4307 142.076 20.333C142.057 20.2321 142.018 20.1589 141.959 20.1133C141.904 20.0677 141.834 20.0449 141.749 20.0449C141.648 20.0449 141.534 20.0693 141.407 20.1182L141.358 19.9424L142.711 19.3955H142.916ZM146.075 17.0566C146.212 17.0566 146.327 17.1055 146.422 17.2031C146.52 17.2975 146.568 17.4131 146.568 17.5498C146.568 17.6865 146.52 17.8037 146.422 17.9014C146.327 17.999 146.212 18.0479 146.075 18.0479C145.938 18.0479 145.821 17.999 145.724 17.9014C145.626 17.8037 145.577 17.6865 145.577 17.5498C145.577 17.4131 145.624 17.2975 145.719 17.2031C145.816 17.1055 145.935 17.0566 146.075 17.0566ZM146.48 19.3955V22.9893C146.48 23.2692 146.5 23.4564 146.539 23.5508C146.581 23.6419 146.642 23.7103 146.72 23.7559C146.801 23.8014 146.948 23.8242 147.159 23.8242V24H144.986V23.8242C145.204 23.8242 145.351 23.8031 145.426 23.7607C145.501 23.7184 145.559 23.6484 145.602 23.5508C145.647 23.4531 145.67 23.266 145.67 22.9893V21.2656C145.67 20.7806 145.655 20.4665 145.626 20.3232C145.603 20.2191 145.567 20.1475 145.519 20.1084C145.47 20.0661 145.403 20.0449 145.318 20.0449C145.227 20.0449 145.117 20.0693 144.986 20.1182L144.918 19.9424L146.266 19.3955H146.48ZM148.917 22.3691C148.644 22.2357 148.434 22.0501 148.287 21.8125C148.141 21.5716 148.067 21.3063 148.067 21.0166C148.067 20.5739 148.233 20.193 148.565 19.874C148.901 19.555 149.329 19.3955 149.85 19.3955C150.276 19.3955 150.646 19.4997 150.958 19.708H151.905C152.045 19.708 152.127 19.7129 152.149 19.7227C152.172 19.7292 152.188 19.7422 152.198 19.7617C152.218 19.791 152.228 19.8431 152.228 19.918C152.228 20.0026 152.219 20.0612 152.203 20.0938C152.193 20.11 152.175 20.123 152.149 20.1328C152.127 20.1426 152.045 20.1475 151.905 20.1475H151.324C151.507 20.3818 151.598 20.6813 151.598 21.0459C151.598 21.4626 151.438 21.819 151.119 22.1152C150.8 22.4115 150.372 22.5596 149.835 22.5596C149.614 22.5596 149.387 22.527 149.156 22.4619C149.013 22.5856 148.915 22.6947 148.863 22.7891C148.814 22.8802 148.79 22.9583 148.79 23.0234C148.79 23.0788 148.816 23.1325 148.868 23.1846C148.924 23.2367 149.029 23.2741 149.186 23.2969C149.277 23.3099 149.505 23.3213 149.869 23.3311C150.54 23.3473 150.974 23.3701 151.173 23.3994C151.476 23.4417 151.716 23.554 151.896 23.7363C152.078 23.9186 152.169 24.1432 152.169 24.4102C152.169 24.778 151.996 25.123 151.651 25.4453C151.144 25.9206 150.481 26.1582 149.664 26.1582C149.036 26.1582 148.505 26.0166 148.072 25.7334C147.828 25.5706 147.706 25.4014 147.706 25.2256C147.706 25.1475 147.724 25.0693 147.76 24.9912C147.815 24.8708 147.929 24.7031 148.102 24.4883C148.124 24.459 148.29 24.2832 148.6 23.9609C148.43 23.86 148.31 23.7705 148.238 23.6924C148.17 23.611 148.136 23.5199 148.136 23.4189C148.136 23.305 148.181 23.1715 148.272 23.0186C148.367 22.8656 148.582 22.6491 148.917 22.3691ZM149.767 19.6299C149.526 19.6299 149.324 19.7259 149.161 19.918C148.998 20.11 148.917 20.4046 148.917 20.8018C148.917 21.3161 149.028 21.7148 149.249 21.998C149.418 22.2129 149.633 22.3203 149.894 22.3203C150.141 22.3203 150.344 22.2275 150.504 22.042C150.663 21.8564 150.743 21.5651 150.743 21.168C150.743 20.6504 150.631 20.2451 150.406 19.9521C150.24 19.7373 150.027 19.6299 149.767 19.6299ZM148.868 24C148.715 24.166 148.6 24.3206 148.521 24.4639C148.443 24.6071 148.404 24.7389 148.404 24.8594C148.404 25.0156 148.499 25.1523 148.688 25.2695C149.013 25.4714 149.483 25.5723 150.099 25.5723C150.685 25.5723 151.116 25.4681 151.393 25.2598C151.673 25.0547 151.812 24.835 151.812 24.6006C151.812 24.4313 151.729 24.3109 151.563 24.2393C151.394 24.1676 151.059 24.1253 150.558 24.1123C149.825 24.0928 149.262 24.0553 148.868 24ZM153.917 22.3691C153.644 22.2357 153.434 22.0501 153.287 21.8125C153.141 21.5716 153.067 21.3063 153.067 21.0166C153.067 20.5739 153.233 20.193 153.565 19.874C153.901 19.555 154.329 19.3955 154.85 19.3955C155.276 19.3955 155.646 19.4997 155.958 19.708H156.905C157.045 19.708 157.127 19.7129 157.149 19.7227C157.172 19.7292 157.188 19.7422 157.198 19.7617C157.218 19.791 157.228 19.8431 157.228 19.918C157.228 20.0026 157.219 20.0612 157.203 20.0938C157.193 20.11 157.175 20.123 157.149 20.1328C157.127 20.1426 157.045 20.1475 156.905 20.1475H156.324C156.507 20.3818 156.598 20.6813 156.598 21.0459C156.598 21.4626 156.438 21.819 156.119 22.1152C155.8 22.4115 155.372 22.5596 154.835 22.5596C154.614 22.5596 154.387 22.527 154.156 22.4619C154.013 22.5856 153.915 22.6947 153.863 22.7891C153.814 22.8802 153.79 22.9583 153.79 23.0234C153.79 23.0788 153.816 23.1325 153.868 23.1846C153.924 23.2367 154.029 23.2741 154.186 23.2969C154.277 23.3099 154.505 23.3213 154.869 23.3311C155.54 23.3473 155.974 23.3701 156.173 23.3994C156.476 23.4417 156.716 23.554 156.896 23.7363C157.078 23.9186 157.169 24.1432 157.169 24.4102C157.169 24.778 156.996 25.123 156.651 25.4453C156.144 25.9206 155.481 26.1582 154.664 26.1582C154.036 26.1582 153.505 26.0166 153.072 25.7334C152.828 25.5706 152.706 25.4014 152.706 25.2256C152.706 25.1475 152.724 25.0693 152.76 24.9912C152.815 24.8708 152.929 24.7031 153.102 24.4883C153.124 24.459 153.29 24.2832 153.6 23.9609C153.43 23.86 153.31 23.7705 153.238 23.6924C153.17 23.611 153.136 23.5199 153.136 23.4189C153.136 23.305 153.181 23.1715 153.272 23.0186C153.367 22.8656 153.582 22.6491 153.917 22.3691ZM154.767 19.6299C154.526 19.6299 154.324 19.7259 154.161 19.918C153.998 20.11 153.917 20.4046 153.917 20.8018C153.917 21.3161 154.028 21.7148 154.249 21.998C154.418 22.2129 154.633 22.3203 154.894 22.3203C155.141 22.3203 155.344 22.2275 155.504 22.042C155.663 21.8564 155.743 21.5651 155.743 21.168C155.743 20.6504 155.631 20.2451 155.406 19.9521C155.24 19.7373 155.027 19.6299 154.767 19.6299ZM153.868 24C153.715 24.166 153.6 24.3206 153.521 24.4639C153.443 24.6071 153.404 24.7389 153.404 24.8594C153.404 25.0156 153.499 25.1523 153.688 25.2695C154.013 25.4714 154.483 25.5723 155.099 25.5723C155.685 25.5723 156.116 25.4681 156.393 25.2598C156.673 25.0547 156.812 24.835 156.812 24.6006C156.812 24.4313 156.729 24.3109 156.563 24.2393C156.394 24.1676 156.059 24.1253 155.558 24.1123C154.825 24.0928 154.262 24.0553 153.868 24ZM158.473 21.2119C158.469 21.876 158.631 22.3968 158.956 22.7744C159.282 23.152 159.664 23.3408 160.104 23.3408C160.396 23.3408 160.65 23.2611 160.865 23.1016C161.083 22.9388 161.266 22.6621 161.412 22.2715L161.563 22.3691C161.495 22.8151 161.297 23.222 160.968 23.5898C160.639 23.9544 160.227 24.1367 159.732 24.1367C159.195 24.1367 158.735 23.9284 158.351 23.5117C157.97 23.0918 157.779 22.5286 157.779 21.8223C157.779 21.0573 157.975 20.4616 158.365 20.0352C158.759 19.6055 159.252 19.3906 159.845 19.3906C160.346 19.3906 160.758 19.5566 161.08 19.8887C161.402 20.2174 161.563 20.6585 161.563 21.2119H158.473ZM158.473 20.9287H160.543C160.527 20.6423 160.493 20.4404 160.44 20.3232C160.359 20.141 160.237 19.9977 160.074 19.8936C159.915 19.7894 159.747 19.7373 159.571 19.7373C159.301 19.7373 159.059 19.8431 158.844 20.0547C158.632 20.263 158.508 20.5544 158.473 20.9287ZM163.473 19.3955V20.4014C163.847 19.7308 164.231 19.3955 164.625 19.3955C164.804 19.3955 164.952 19.4508 165.069 19.5615C165.187 19.6689 165.245 19.7943 165.245 19.9375C165.245 20.0645 165.203 20.1719 165.118 20.2598C165.034 20.3477 164.933 20.3916 164.815 20.3916C164.701 20.3916 164.573 20.3363 164.43 20.2256C164.29 20.1117 164.186 20.0547 164.117 20.0547C164.059 20.0547 163.995 20.0872 163.927 20.1523C163.78 20.2858 163.629 20.5055 163.473 20.8115V22.9551C163.473 23.2025 163.504 23.3896 163.565 23.5166C163.608 23.6045 163.683 23.6777 163.79 23.7363C163.897 23.7949 164.052 23.8242 164.254 23.8242V24H161.964V23.8242C162.192 23.8242 162.361 23.7884 162.472 23.7168C162.553 23.6647 162.61 23.5817 162.643 23.4678C162.659 23.4124 162.667 23.2546 162.667 22.9941V21.2607C162.667 20.7399 162.656 20.4307 162.633 20.333C162.613 20.2321 162.574 20.1589 162.516 20.1133C162.46 20.0677 162.39 20.0449 162.306 20.0449C162.205 20.0449 162.091 20.0693 161.964 20.1182L161.915 19.9424L163.268 19.3955H163.473ZM166.246 21.2119C166.243 21.876 166.404 22.3968 166.729 22.7744C167.055 23.152 167.438 23.3408 167.877 23.3408C168.17 23.3408 168.424 23.2611 168.639 23.1016C168.857 22.9388 169.039 22.6621 169.186 22.2715L169.337 22.3691C169.269 22.8151 169.07 23.222 168.741 23.5898C168.412 23.9544 168.001 24.1367 167.506 24.1367C166.969 24.1367 166.508 23.9284 166.124 23.5117C165.743 23.0918 165.553 22.5286 165.553 21.8223C165.553 21.0573 165.748 20.4616 166.139 20.0352C166.533 19.6055 167.026 19.3906 167.618 19.3906C168.119 19.3906 168.531 19.5566 168.854 19.8887C169.176 20.2174 169.337 20.6585 169.337 21.2119H166.246ZM166.246 20.9287H168.316C168.3 20.6423 168.266 20.4404 168.214 20.3232C168.132 20.141 168.01 19.9977 167.848 19.8936C167.688 19.7894 167.521 19.7373 167.345 19.7373C167.075 19.7373 166.832 19.8431 166.617 20.0547C166.406 20.263 166.282 20.5544 166.246 20.9287ZM173.097 23.4971C172.879 23.7249 172.665 23.8893 172.457 23.9902C172.249 24.0879 172.024 24.1367 171.783 24.1367C171.295 24.1367 170.868 23.9333 170.504 23.5264C170.139 23.1162 169.957 22.5905 169.957 21.9492C169.957 21.3079 170.159 20.722 170.562 20.1914C170.966 19.6576 171.485 19.3906 172.12 19.3906C172.514 19.3906 172.84 19.516 173.097 19.7666V18.9414C173.097 18.4303 173.084 18.1162 173.058 17.999C173.035 17.8818 172.997 17.8021 172.945 17.7598C172.893 17.7174 172.828 17.6963 172.75 17.6963C172.665 17.6963 172.553 17.7223 172.413 17.7744L172.35 17.6035L173.683 17.0566H173.902V22.2275C173.902 22.7516 173.914 23.0723 173.937 23.1895C173.963 23.3034 174.002 23.3831 174.054 23.4287C174.109 23.4743 174.173 23.4971 174.244 23.4971C174.332 23.4971 174.449 23.4694 174.596 23.4141L174.649 23.585L173.321 24.1367H173.097V23.4971ZM173.097 23.1553V20.8506C173.077 20.6292 173.019 20.4274 172.921 20.2451C172.823 20.0628 172.693 19.9261 172.53 19.835C172.371 19.7406 172.215 19.6934 172.062 19.6934C171.775 19.6934 171.52 19.8219 171.295 20.0791C170.999 20.4176 170.851 20.9124 170.851 21.5635C170.851 22.221 170.994 22.7256 171.28 23.0771C171.567 23.4255 171.886 23.5996 172.237 23.5996C172.534 23.5996 172.82 23.4515 173.097 23.1553Z" fill="black"/>
<circle cx="65" cy="129" r="3" fill="white" stroke="black" stroke-width="2"/>
<circle cx="134" cy="131" r="3" fill="white" stroke="black" stroke-width="2"/>
<path d="M81.8261 101.252L83.7236 100L81.8261 98.748L71.3261 91.8198L69 90.2849V93.0718V106.928V109.715L71.3261 108.18L81.8261 101.252Z" fill="white" stroke="black" stroke-width="3"/>
<circle cx="73.5" cy="99.5" r="3.5" fill="white" stroke="black" stroke-width="2"/>
</svg>
