<svg width="200" height="200" viewBox="0 0 200 200" fill="none" xmlns="http://www.w3.org/2000/svg">
<rect width="200" height="200" fill="white"/>
<rect x="68.5" y="51.5" width="62" height="97" fill="white" stroke="black" stroke-width="3"/>
<line y1="66" x2="67" y2="66" stroke="black" stroke-width="2"/>
<line y1="129" x2="61" y2="129" stroke="black" stroke-width="2"/>
<line y1="99" x2="67" y2="99" stroke="black" stroke-width="2"/>
<line x1="130" y1="66" x2="200" y2="66" stroke="black" stroke-width="2"/>
<line x1="130" y1="131" x2="200" y2="131" stroke="black" stroke-width="2"/>
<path d="M72.2051 72V71.7832H72.5039C72.8398 71.7832 73.0781 71.6758 73.2188 71.4609C73.3047 71.332 73.3477 71.043 73.3477 70.5938V65.4609C73.3477 64.9648 73.293 64.6543 73.1836 64.5293C73.0312 64.3574 72.8047 64.2715 72.5039 64.2715H72.2051V64.0547H75.4395C76.627 64.0547 77.5293 64.1895 78.1465 64.459C78.7676 64.7285 79.2656 65.1777 79.6406 65.8066C80.0195 66.4355 80.209 67.1621 80.209 67.9863C80.209 69.0918 79.873 70.0156 79.2012 70.7578C78.4473 71.5859 77.2988 72 75.7559 72H72.2051ZM74.4727 71.4258C74.9688 71.5352 75.3848 71.5898 75.7207 71.5898C76.627 71.5898 77.3789 71.2715 77.9766 70.6348C78.5742 69.998 78.873 69.1348 78.873 68.0449C78.873 66.9473 78.5742 66.082 77.9766 65.4492C77.3789 64.8164 76.6113 64.5 75.6738 64.5C75.3223 64.5 74.9219 64.5566 74.4727 64.6699V71.4258Z" fill="black"/>
<path d="M94.2246 95.873L94.4062 98.5742H94.2246C93.9824 97.7656 93.6367 97.1836 93.1875 96.8281C92.7383 96.4727 92.1992 96.2949 91.5703 96.2949C91.043 96.2949 90.5664 96.4297 90.1406 96.6992C89.7148 96.9648 89.3789 97.3906 89.1328 97.9766C88.8906 98.5625 88.7695 99.291 88.7695 100.162C88.7695 100.881 88.8848 101.504 89.1152 102.031C89.3457 102.559 89.6914 102.963 90.1523 103.244C90.6172 103.525 91.1465 103.666 91.7402 103.666C92.2559 103.666 92.7109 103.557 93.1055 103.338C93.5 103.115 93.9336 102.676 94.4062 102.02L94.5879 102.137C94.1895 102.844 93.7246 103.361 93.1934 103.689C92.6621 104.018 92.0312 104.182 91.3008 104.182C89.9844 104.182 88.9648 103.693 88.2422 102.717C87.7031 101.99 87.4336 101.135 87.4336 100.15C87.4336 99.3574 87.6113 98.6289 87.9668 97.9648C88.3223 97.3008 88.8105 96.7871 89.4316 96.4238C90.0566 96.0566 90.7383 95.873 91.4766 95.873C92.0508 95.873 92.6172 96.0137 93.1758 96.2949C93.3398 96.3809 93.457 96.4238 93.5273 96.4238C93.6328 96.4238 93.7246 96.3867 93.8027 96.3125C93.9043 96.207 93.9766 96.0605 94.0195 95.873H94.2246ZM101.883 101.803L102.076 101.844L101.396 104H95.2441V103.783H95.543C95.8789 103.783 96.1191 103.674 96.2637 103.455C96.3457 103.33 96.3867 103.041 96.3867 102.588V97.4609C96.3867 96.9648 96.332 96.6543 96.2227 96.5293C96.0703 96.3574 95.8438 96.2715 95.543 96.2715H95.2441V96.0547H98.8418V96.2715C98.4199 96.2676 98.123 96.3066 97.9512 96.3887C97.7832 96.4707 97.668 96.5742 97.6055 96.6992C97.543 96.8242 97.5117 97.123 97.5117 97.5957V102.588C97.5117 102.912 97.543 103.135 97.6055 103.256C97.6523 103.338 97.7246 103.398 97.8223 103.438C97.9199 103.477 98.2246 103.496 98.7363 103.496H99.3164C99.9258 103.496 100.354 103.451 100.6 103.361C100.846 103.271 101.07 103.113 101.273 102.887C101.477 102.656 101.68 102.295 101.883 101.803ZM105.926 99.5938L108.855 102.506C109.336 102.986 109.746 103.314 110.086 103.49C110.426 103.662 110.766 103.76 111.105 103.783V104H107.326V103.783C107.553 103.783 107.715 103.746 107.812 103.672C107.914 103.594 107.965 103.508 107.965 103.414C107.965 103.32 107.945 103.236 107.906 103.162C107.871 103.088 107.75 102.949 107.543 102.746L104.801 100.033V102.594C104.801 102.996 104.826 103.262 104.877 103.391C104.916 103.488 104.998 103.572 105.123 103.643C105.291 103.736 105.469 103.783 105.656 103.783H105.926V104H102.539V103.783H102.82C103.148 103.783 103.387 103.688 103.535 103.496C103.629 103.371 103.676 103.07 103.676 102.594V97.4609C103.676 97.0586 103.65 96.791 103.6 96.6582C103.561 96.5645 103.48 96.4824 103.359 96.4121C103.188 96.3184 103.008 96.2715 102.82 96.2715H102.539V96.0547H105.926V96.2715H105.656C105.473 96.2715 105.295 96.3164 105.123 96.4062C105.002 96.4688 104.918 96.5625 104.871 96.6875C104.824 96.8125 104.801 97.0703 104.801 97.4609V99.8926C104.879 99.8184 105.146 99.5703 105.604 99.1484C106.764 98.0859 107.465 97.377 107.707 97.0215C107.812 96.8652 107.865 96.7285 107.865 96.6113C107.865 96.5215 107.824 96.4434 107.742 96.377C107.66 96.3066 107.521 96.2715 107.326 96.2715H107.145V96.0547H110.062V96.2715C109.891 96.2754 109.734 96.2988 109.594 96.3418C109.453 96.3848 109.281 96.4688 109.078 96.5938C108.875 96.7148 108.625 96.9121 108.328 97.1855C108.242 97.2637 107.846 97.6641 107.139 98.3867L105.926 99.5938Z" fill="black"/>
<path d="M80.1094 132H77.9883L75.2988 128.285C75.0996 128.293 74.9375 128.297 74.8125 128.297C74.7617 128.297 74.707 128.297 74.6484 128.297C74.5898 128.293 74.5293 128.289 74.4668 128.285V130.594C74.4668 131.094 74.5215 131.404 74.6309 131.525C74.7793 131.697 75.002 131.783 75.2988 131.783H75.6094V132H72.2051V131.783H72.5039C72.8398 131.783 73.0801 131.674 73.2246 131.455C73.3066 131.334 73.3477 131.047 73.3477 130.594V125.461C73.3477 124.961 73.293 124.65 73.1836 124.529C73.0312 124.357 72.8047 124.271 72.5039 124.271H72.2051V124.055H75.0996C75.9434 124.055 76.5645 124.117 76.9629 124.242C77.3652 124.363 77.7051 124.59 77.9824 124.922C78.2637 125.25 78.4043 125.643 78.4043 126.1C78.4043 126.588 78.2441 127.012 77.9238 127.371C77.6074 127.73 77.1152 127.984 76.4473 128.133L78.0879 130.412C78.4629 130.936 78.7852 131.283 79.0547 131.455C79.3242 131.627 79.6758 131.736 80.1094 131.783V132ZM74.4668 127.916C74.541 127.916 74.6055 127.918 74.6602 127.922C74.7148 127.922 74.7598 127.922 74.7949 127.922C75.5527 127.922 76.123 127.758 76.5059 127.43C76.8926 127.102 77.0859 126.684 77.0859 126.176C77.0859 125.68 76.9297 125.277 76.6172 124.969C76.3086 124.656 75.8984 124.5 75.3867 124.5C75.1602 124.5 74.8535 124.537 74.4668 124.611V127.916ZM85.5059 123.873V126.621H85.2891C85.2188 126.094 85.0918 125.674 84.9082 125.361C84.7285 125.049 84.4707 124.801 84.1348 124.617C83.7988 124.434 83.4512 124.342 83.0918 124.342C82.6855 124.342 82.3496 124.467 82.084 124.717C81.8184 124.963 81.6855 125.244 81.6855 125.561C81.6855 125.803 81.7695 126.023 81.9375 126.223C82.1797 126.516 82.7559 126.906 83.666 127.395C84.4082 127.793 84.9141 128.1 85.1836 128.314C85.457 128.525 85.666 128.775 85.8105 129.064C85.959 129.354 86.0332 129.656 86.0332 129.973C86.0332 130.574 85.7988 131.094 85.3301 131.531C84.8652 131.965 84.2656 132.182 83.5312 132.182C83.3008 132.182 83.084 132.164 82.8809 132.129C82.7598 132.109 82.5078 132.039 82.125 131.918C81.7461 131.793 81.5059 131.73 81.4043 131.73C81.3066 131.73 81.2285 131.76 81.1699 131.818C81.1152 131.877 81.0742 131.998 81.0469 132.182H80.8301V129.457H81.0469C81.1484 130.027 81.2852 130.455 81.457 130.74C81.6289 131.021 81.8906 131.256 82.2422 131.443C82.5977 131.631 82.9863 131.725 83.4082 131.725C83.8965 131.725 84.2812 131.596 84.5625 131.338C84.8477 131.08 84.9902 130.775 84.9902 130.424C84.9902 130.229 84.9355 130.031 84.8262 129.832C84.7207 129.633 84.5547 129.447 84.3281 129.275C84.1758 129.158 83.7598 128.91 83.0801 128.531C82.4004 128.148 81.916 127.844 81.627 127.617C81.3418 127.391 81.125 127.141 80.9766 126.867C80.8281 126.594 80.7539 126.293 80.7539 125.965C80.7539 125.395 80.9727 124.904 81.4102 124.494C81.8477 124.08 82.4043 123.873 83.0801 123.873C83.502 123.873 83.9492 123.977 84.4219 124.184C84.6406 124.281 84.7949 124.33 84.8848 124.33C84.9863 124.33 85.0684 124.301 85.1309 124.242C85.1973 124.18 85.25 124.057 85.2891 123.873H85.5059ZM93.627 124.055L93.7148 125.918H93.4922C93.4492 125.59 93.3906 125.355 93.3164 125.215C93.1953 124.988 93.0332 124.822 92.8301 124.717C92.6309 124.607 92.3672 124.553 92.0391 124.553H90.9199V130.623C90.9199 131.111 90.9727 131.416 91.0781 131.537C91.2266 131.701 91.4551 131.783 91.7637 131.783H92.0391V132H88.6699V131.783H88.9512C89.2871 131.783 89.5254 131.682 89.666 131.479C89.752 131.354 89.7949 131.068 89.7949 130.623V124.553H88.8398C88.4688 124.553 88.2051 124.58 88.0488 124.635C87.8457 124.709 87.6719 124.852 87.5273 125.062C87.3828 125.273 87.2969 125.559 87.2695 125.918H87.0469L87.1406 124.055H93.627Z" fill="black"/>
<path d="M122.285 72.0879C122.684 72.7754 123.113 73.2812 123.574 73.6055C124.039 73.9297 124.566 74.1152 125.156 74.1621V74.3496C124.617 74.3301 124.041 74.2207 123.428 74.0215C122.814 73.8262 122.232 73.5527 121.682 73.2012C121.135 72.8535 120.662 72.4824 120.264 72.0879C119.701 71.8613 119.256 71.6211 118.928 71.3672C118.451 70.9883 118.08 70.5234 117.814 69.9727C117.553 69.418 117.422 68.7637 117.422 68.0098C117.422 66.8223 117.807 65.8359 118.576 65.0508C119.346 64.2656 120.277 63.873 121.371 63.873C122.41 63.873 123.309 64.2676 124.066 65.0566C124.828 65.8418 125.209 66.834 125.209 68.0332C125.209 69.0059 124.938 69.8594 124.395 70.5938C123.855 71.3281 123.152 71.8262 122.285 72.0879ZM121.301 64.3242C120.59 64.3242 120.018 64.5781 119.584 65.0859C119.037 65.7227 118.764 66.6973 118.764 68.0098C118.764 69.2949 119.041 70.2852 119.596 70.9805C120.025 71.5156 120.594 71.7832 121.301 71.7832C122.035 71.7832 122.627 71.5156 123.076 70.9805C123.604 70.3477 123.867 69.4141 123.867 68.1797C123.867 67.2305 123.723 66.4316 123.434 65.7832C123.211 65.2832 122.914 64.916 122.543 64.6816C122.176 64.4434 121.762 64.3242 121.301 64.3242Z" fill="black"/>
<path d="M119.285 132.088C119.684 132.775 120.113 133.281 120.574 133.605C121.039 133.93 121.566 134.115 122.156 134.162V134.35C121.617 134.33 121.041 134.221 120.428 134.021C119.814 133.826 119.232 133.553 118.682 133.201C118.135 132.854 117.662 132.482 117.264 132.088C116.701 131.861 116.256 131.621 115.928 131.367C115.451 130.988 115.08 130.523 114.814 129.973C114.553 129.418 114.422 128.764 114.422 128.01C114.422 126.822 114.807 125.836 115.576 125.051C116.346 124.266 117.277 123.873 118.371 123.873C119.41 123.873 120.309 124.268 121.066 125.057C121.828 125.842 122.209 126.834 122.209 128.033C122.209 129.006 121.938 129.859 121.395 130.594C120.855 131.328 120.152 131.826 119.285 132.088ZM118.301 124.324C117.59 124.324 117.018 124.578 116.584 125.086C116.037 125.723 115.764 126.697 115.764 128.01C115.764 129.295 116.041 130.285 116.596 130.98C117.025 131.516 117.594 131.783 118.301 131.783C119.035 131.783 119.627 131.516 120.076 130.98C120.604 130.348 120.867 129.414 120.867 128.18C120.867 127.23 120.723 126.432 120.434 125.783C120.211 125.283 119.914 124.916 119.543 124.682C119.176 124.443 118.762 124.324 118.301 124.324ZM124.066 126.908V126.633C124.469 126.395 124.742 126.172 124.887 125.965C124.988 125.816 125.039 125.639 125.039 125.432C125.039 125.311 125.018 125.221 124.975 125.162C124.928 125.104 124.877 125.074 124.822 125.074C124.779 125.074 124.723 125.088 124.652 125.115C124.551 125.15 124.467 125.168 124.4 125.168C124.244 125.168 124.105 125.109 123.984 124.992C123.863 124.875 123.803 124.729 123.803 124.553C123.803 124.357 123.863 124.205 123.984 124.096C124.148 123.947 124.344 123.873 124.57 123.873C124.832 123.873 125.066 123.984 125.273 124.207C125.484 124.426 125.59 124.699 125.59 125.027C125.59 125.488 125.416 125.908 125.068 126.287C124.838 126.537 124.504 126.744 124.066 126.908Z" fill="black"/>
<path d="M26.1709 24V23.8193H26.4199C26.6999 23.8193 26.8984 23.7298 27.0156 23.5508C27.0872 23.4434 27.123 23.2025 27.123 22.8281V18.5508C27.123 18.1374 27.0775 17.8786 26.9863 17.7744C26.8594 17.6312 26.6706 17.5596 26.4199 17.5596H26.1709V17.3789H28.8662C29.8558 17.3789 30.6077 17.4912 31.1221 17.7158C31.6396 17.9404 32.0547 18.3148 32.3672 18.8389C32.6829 19.363 32.8408 19.9684 32.8408 20.6553C32.8408 21.5765 32.5609 22.3464 32.001 22.9648C31.3727 23.6549 30.4157 24 29.1299 24H26.1709ZM28.0605 23.5215C28.474 23.6126 28.8206 23.6582 29.1006 23.6582C29.8558 23.6582 30.4824 23.3929 30.9805 22.8623C31.4785 22.3317 31.7275 21.6123 31.7275 20.7041C31.7275 19.7894 31.4785 19.0684 30.9805 18.541C30.4824 18.0137 29.8428 17.75 29.0615 17.75C28.7686 17.75 28.4349 17.7972 28.0605 17.8916V23.5215ZM37.7725 17.7402V20.3428H38.9785C39.2552 20.3428 39.457 20.2826 39.584 20.1621C39.7142 20.0384 39.8005 19.7959 39.8428 19.4346H40.0234V21.6758H39.8428C39.8395 21.4186 39.8053 21.2298 39.7402 21.1094C39.6784 20.9889 39.5905 20.8994 39.4766 20.8408C39.3659 20.779 39.1999 20.748 38.9785 20.748H37.7725V22.8281C37.7725 23.1634 37.7936 23.3848 37.8359 23.4922C37.8685 23.5736 37.9368 23.6436 38.041 23.7021C38.1842 23.7803 38.334 23.8193 38.4902 23.8193H38.7295V24H35.8877V23.8193H36.1221C36.3955 23.8193 36.5941 23.7396 36.7178 23.5801C36.7959 23.4759 36.835 23.2253 36.835 22.8281V18.5508C36.835 18.2155 36.8138 17.9941 36.7715 17.8867C36.7389 17.8053 36.6722 17.7354 36.5713 17.6768C36.4313 17.5986 36.2816 17.5596 36.1221 17.5596H35.8877V17.3789H40.8145L40.8779 18.834H40.707C40.6224 18.5247 40.5231 18.2985 40.4092 18.1553C40.2985 18.0088 40.1602 17.903 39.9941 17.8379C39.8314 17.7728 39.5775 17.7402 39.2324 17.7402H37.7725ZM43.1436 17.0566V22.9893C43.1436 23.2692 43.1631 23.4548 43.2021 23.5459C43.2445 23.637 43.3079 23.707 43.3926 23.7559C43.4772 23.8014 43.6351 23.8242 43.8662 23.8242V24H41.6738V23.8242C41.8789 23.8242 42.0189 23.8031 42.0938 23.7607C42.1686 23.7184 42.2272 23.6484 42.2695 23.5508C42.3118 23.4531 42.333 23.266 42.333 22.9893V18.9268C42.333 18.4222 42.3216 18.113 42.2988 17.999C42.276 17.8818 42.2386 17.8021 42.1865 17.7598C42.1377 17.7174 42.0742 17.6963 41.9961 17.6963C41.9115 17.6963 41.804 17.7223 41.6738 17.7744L41.5908 17.6035L42.9238 17.0566H43.1436ZM45.5264 17.0566C45.6631 17.0566 45.7786 17.1055 45.873 17.2031C45.9707 17.2975 46.0195 17.4131 46.0195 17.5498C46.0195 17.6865 45.9707 17.8037 45.873 17.9014C45.7786 17.999 45.6631 18.0479 45.5264 18.0479C45.3896 18.0479 45.2725 17.999 45.1748 17.9014C45.0771 17.8037 45.0283 17.6865 45.0283 17.5498C45.0283 17.4131 45.0755 17.2975 45.1699 17.2031C45.2676 17.1055 45.3864 17.0566 45.5264 17.0566ZM45.9316 19.3955V22.9893C45.9316 23.2692 45.9512 23.4564 45.9902 23.5508C46.0326 23.6419 46.0928 23.7103 46.1709 23.7559C46.2523 23.8014 46.3988 23.8242 46.6104 23.8242V24H44.4375V23.8242C44.6556 23.8242 44.8021 23.8031 44.877 23.7607C44.9518 23.7184 45.0104 23.6484 45.0527 23.5508C45.0983 23.4531 45.1211 23.266 45.1211 22.9893V21.2656C45.1211 20.7806 45.1064 20.4665 45.0771 20.3232C45.0544 20.2191 45.0186 20.1475 44.9697 20.1084C44.9209 20.0661 44.8542 20.0449 44.7695 20.0449C44.6784 20.0449 44.5677 20.0693 44.4375 20.1182L44.3691 19.9424L45.7168 19.3955H45.9316ZM46.8496 19.9717L48.2266 19.415H48.4121V20.46C48.6432 20.0661 48.8743 19.791 49.1055 19.6348C49.3398 19.4753 49.5856 19.3955 49.8428 19.3955C50.292 19.3955 50.6663 19.5713 50.9658 19.9229C51.3337 20.3525 51.5176 20.9124 51.5176 21.6025C51.5176 22.374 51.2962 23.012 50.8535 23.5166C50.4889 23.93 50.0299 24.1367 49.4766 24.1367C49.2357 24.1367 49.0273 24.1025 48.8516 24.0342C48.7214 23.9854 48.5749 23.8877 48.4121 23.7412V25.1035C48.4121 25.4095 48.43 25.6032 48.4658 25.6846C48.5049 25.7692 48.57 25.8359 48.6611 25.8848C48.7555 25.9336 48.9248 25.958 49.1689 25.958V26.1387H46.8252V25.958H46.9473C47.1263 25.9613 47.2793 25.9271 47.4062 25.8555C47.4681 25.8197 47.5153 25.7611 47.5479 25.6797C47.5837 25.6016 47.6016 25.3997 47.6016 25.0742V20.8457C47.6016 20.556 47.5885 20.3721 47.5625 20.2939C47.5365 20.2158 47.4941 20.1572 47.4355 20.1182C47.3802 20.0791 47.3037 20.0596 47.2061 20.0596C47.1279 20.0596 47.0286 20.0824 46.9082 20.1279L46.8496 19.9717ZM48.4121 20.748V22.418C48.4121 22.7793 48.4268 23.0169 48.4561 23.1309C48.5016 23.3197 48.6123 23.4857 48.7881 23.6289C48.9671 23.7721 49.1917 23.8438 49.4619 23.8438C49.7874 23.8438 50.0511 23.7168 50.2529 23.4629C50.5166 23.1309 50.6484 22.6637 50.6484 22.0615C50.6484 21.3779 50.4987 20.8522 50.1992 20.4844C49.9909 20.2305 49.7435 20.1035 49.457 20.1035C49.3008 20.1035 49.1462 20.1426 48.9932 20.2207C48.876 20.2793 48.6823 20.4551 48.4121 20.748ZM52.2646 21.3877H54.7891V22.125H52.2646V21.3877ZM57.2354 17.7402V20.3428H58.4414C58.7181 20.3428 58.9199 20.2826 59.0469 20.1621C59.1771 20.0384 59.2633 19.7959 59.3057 19.4346H59.4863V21.6758H59.3057C59.3024 21.4186 59.2682 21.2298 59.2031 21.1094C59.1413 20.9889 59.0534 20.8994 58.9395 20.8408C58.8288 20.779 58.6628 20.748 58.4414 20.748H57.2354V22.8281C57.2354 23.1634 57.2565 23.3848 57.2988 23.4922C57.3314 23.5736 57.3997 23.6436 57.5039 23.7021C57.6471 23.7803 57.7969 23.8193 57.9531 23.8193H58.1924V24H55.3506V23.8193H55.585C55.8584 23.8193 56.057 23.7396 56.1807 23.5801C56.2588 23.4759 56.2979 23.2253 56.2979 22.8281V18.5508C56.2979 18.2155 56.2767 17.9941 56.2344 17.8867C56.2018 17.8053 56.1351 17.7354 56.0342 17.6768C55.8942 17.5986 55.7445 17.5596 55.585 17.5596H55.3506V17.3789H60.2773L60.3408 18.834H60.1699C60.0853 18.5247 59.986 18.2985 59.8721 18.1553C59.7614 18.0088 59.623 17.903 59.457 17.8379C59.2943 17.7728 59.0404 17.7402 58.6953 17.7402H57.2354ZM62.6064 17.0566V22.9893C62.6064 23.2692 62.626 23.4548 62.665 23.5459C62.7074 23.637 62.7708 23.707 62.8555 23.7559C62.9401 23.8014 63.098 23.8242 63.3291 23.8242V24H61.1367V23.8242C61.3418 23.8242 61.4818 23.8031 61.5566 23.7607C61.6315 23.7184 61.6901 23.6484 61.7324 23.5508C61.7747 23.4531 61.7959 23.266 61.7959 22.9893V18.9268C61.7959 18.4222 61.7845 18.113 61.7617 17.999C61.7389 17.8818 61.7015 17.8021 61.6494 17.7598C61.6006 17.7174 61.5371 17.6963 61.459 17.6963C61.3743 17.6963 61.2669 17.7223 61.1367 17.7744L61.0537 17.6035L62.3867 17.0566H62.6064ZM66.0391 19.3955C66.7161 19.3955 67.2598 19.6527 67.6699 20.167C68.0182 20.6064 68.1924 21.111 68.1924 21.6807C68.1924 22.0811 68.0964 22.4863 67.9043 22.8965C67.7122 23.3066 67.4469 23.6159 67.1084 23.8242C66.7731 24.0326 66.3988 24.1367 65.9854 24.1367C65.3115 24.1367 64.776 23.8682 64.3789 23.3311C64.0436 22.8786 63.876 22.3708 63.876 21.8076C63.876 21.3975 63.9769 20.9906 64.1787 20.5869C64.3838 20.18 64.6523 19.8805 64.9844 19.6885C65.3164 19.4932 65.668 19.3955 66.0391 19.3955ZM65.8877 19.7129C65.7152 19.7129 65.541 19.765 65.3652 19.8691C65.1927 19.9701 65.0527 20.1491 64.9453 20.4062C64.8379 20.6634 64.7842 20.9938 64.7842 21.3975C64.7842 22.0485 64.9128 22.61 65.1699 23.082C65.4303 23.554 65.7721 23.79 66.1953 23.79C66.5111 23.79 66.7715 23.6598 66.9766 23.3994C67.1816 23.139 67.2842 22.6914 67.2842 22.0566C67.2842 21.2624 67.1133 20.6374 66.7715 20.1816C66.5404 19.8691 66.2458 19.7129 65.8877 19.7129ZM68.5293 19.9717L69.9062 19.415H70.0918V20.46C70.3229 20.0661 70.554 19.791 70.7852 19.6348C71.0195 19.4753 71.2653 19.3955 71.5225 19.3955C71.9717 19.3955 72.346 19.5713 72.6455 19.9229C73.0133 20.3525 73.1973 20.9124 73.1973 21.6025C73.1973 22.374 72.9759 23.012 72.5332 23.5166C72.1686 23.93 71.7096 24.1367 71.1562 24.1367C70.9154 24.1367 70.707 24.1025 70.5312 24.0342C70.401 23.9854 70.2546 23.8877 70.0918 23.7412V25.1035C70.0918 25.4095 70.1097 25.6032 70.1455 25.6846C70.1846 25.7692 70.2497 25.8359 70.3408 25.8848C70.4352 25.9336 70.6045 25.958 70.8486 25.958V26.1387H68.5049V25.958H68.627C68.806 25.9613 68.959 25.9271 69.0859 25.8555C69.1478 25.8197 69.195 25.7611 69.2275 25.6797C69.2633 25.6016 69.2812 25.3997 69.2812 25.0742V20.8457C69.2812 20.556 69.2682 20.3721 69.2422 20.2939C69.2161 20.2158 69.1738 20.1572 69.1152 20.1182C69.0599 20.0791 68.9834 20.0596 68.8857 20.0596C68.8076 20.0596 68.7083 20.0824 68.5879 20.1279L68.5293 19.9717ZM70.0918 20.748V22.418C70.0918 22.7793 70.1064 23.0169 70.1357 23.1309C70.1813 23.3197 70.292 23.4857 70.4678 23.6289C70.6468 23.7721 70.8714 23.8438 71.1416 23.8438C71.4671 23.8438 71.7308 23.7168 71.9326 23.4629C72.1963 23.1309 72.3281 22.6637 72.3281 22.0615C72.3281 21.3779 72.1784 20.8522 71.8789 20.4844C71.6706 20.2305 71.4232 20.1035 71.1367 20.1035C70.9805 20.1035 70.8258 20.1426 70.6729 20.2207C70.5557 20.2793 70.362 20.4551 70.0918 20.748ZM78.0898 20.8994V22.8281C78.0898 23.2448 78.1354 23.5036 78.2266 23.6045C78.3503 23.7477 78.5374 23.8193 78.7881 23.8193H79.042V24H76.2051V23.8193H76.4541C76.734 23.8193 76.9342 23.7282 77.0547 23.5459C77.1198 23.445 77.1523 23.2057 77.1523 22.8281V18.5508C77.1523 18.1341 77.1084 17.8753 77.0205 17.7744C76.8936 17.6312 76.7048 17.5596 76.4541 17.5596H76.2051V17.3789H78.6318C79.2243 17.3789 79.6914 17.4408 80.0332 17.5645C80.375 17.6849 80.6631 17.89 80.8975 18.1797C81.1318 18.4694 81.249 18.8128 81.249 19.21C81.249 19.7503 81.07 20.1898 80.7119 20.5283C80.3571 20.8669 79.8542 21.0361 79.2031 21.0361C79.0436 21.0361 78.8711 21.0247 78.6855 21.002C78.5 20.9792 78.3014 20.945 78.0898 20.8994ZM78.0898 20.6211C78.2624 20.6536 78.4154 20.6781 78.5488 20.6943C78.6823 20.7106 78.7962 20.7188 78.8906 20.7188C79.2292 20.7188 79.5205 20.5885 79.7646 20.3281C80.012 20.0645 80.1357 19.7243 80.1357 19.3076C80.1357 19.0212 80.0771 18.7559 79.96 18.5117C79.8428 18.2643 79.6768 18.0804 79.4619 17.96C79.2471 17.8363 79.0029 17.7744 78.7295 17.7744C78.5635 17.7744 78.3503 17.8053 78.0898 17.8672V20.6211ZM84.1055 19.3955C84.7826 19.3955 85.3262 19.6527 85.7363 20.167C86.0846 20.6064 86.2588 21.111 86.2588 21.6807C86.2588 22.0811 86.1628 22.4863 85.9707 22.8965C85.7786 23.3066 85.5133 23.6159 85.1748 23.8242C84.8395 24.0326 84.4652 24.1367 84.0518 24.1367C83.3779 24.1367 82.8424 23.8682 82.4453 23.3311C82.11 22.8786 81.9424 22.3708 81.9424 21.8076C81.9424 21.3975 82.0433 20.9906 82.2451 20.5869C82.4502 20.18 82.7188 19.8805 83.0508 19.6885C83.3828 19.4932 83.7344 19.3955 84.1055 19.3955ZM83.9541 19.7129C83.7816 19.7129 83.6074 19.765 83.4316 19.8691C83.2591 19.9701 83.1191 20.1491 83.0117 20.4062C82.9043 20.6634 82.8506 20.9938 82.8506 21.3975C82.8506 22.0485 82.9792 22.61 83.2363 23.082C83.4967 23.554 83.8385 23.79 84.2617 23.79C84.5775 23.79 84.8379 23.6598 85.043 23.3994C85.248 23.139 85.3506 22.6914 85.3506 22.0566C85.3506 21.2624 85.1797 20.6374 84.8379 20.1816C84.6068 19.8691 84.3122 19.7129 83.9541 19.7129ZM89.8086 19.3955V20.9189H89.6475C89.5238 20.4404 89.3643 20.1149 89.1689 19.9424C88.9769 19.7699 88.7311 19.6836 88.4316 19.6836C88.2038 19.6836 88.0199 19.7438 87.8799 19.8643C87.7399 19.9847 87.6699 20.1182 87.6699 20.2646C87.6699 20.4469 87.722 20.6032 87.8262 20.7334C87.9271 20.8669 88.1322 21.0085 88.4414 21.1582L89.1543 21.5049C89.8151 21.8271 90.1455 22.252 90.1455 22.7793C90.1455 23.1862 89.9909 23.515 89.6816 23.7656C89.3757 24.013 89.0322 24.1367 88.6514 24.1367C88.3779 24.1367 88.0654 24.0879 87.7139 23.9902C87.6064 23.9577 87.5186 23.9414 87.4502 23.9414C87.3753 23.9414 87.3167 23.9837 87.2744 24.0684H87.1133V22.4717H87.2744C87.3656 22.9274 87.5397 23.2708 87.7969 23.502C88.054 23.7331 88.3421 23.8486 88.6611 23.8486C88.8857 23.8486 89.068 23.7835 89.208 23.6533C89.3512 23.5199 89.4229 23.3604 89.4229 23.1748C89.4229 22.9502 89.3431 22.7614 89.1836 22.6084C89.0273 22.4554 88.7132 22.2617 88.2412 22.0273C87.7692 21.793 87.46 21.5814 87.3135 21.3926C87.167 21.207 87.0938 20.9727 87.0938 20.6895C87.0938 20.3216 87.2191 20.014 87.4697 19.7666C87.7236 19.5192 88.0508 19.3955 88.4512 19.3955C88.627 19.3955 88.8402 19.4329 89.0908 19.5078C89.2568 19.5566 89.3675 19.5811 89.4229 19.5811C89.4749 19.5811 89.5156 19.5697 89.5449 19.5469C89.5742 19.5241 89.6084 19.4736 89.6475 19.3955H89.8086ZM91.9521 17.0566C92.0889 17.0566 92.2044 17.1055 92.2988 17.2031C92.3965 17.2975 92.4453 17.4131 92.4453 17.5498C92.4453 17.6865 92.3965 17.8037 92.2988 17.9014C92.2044 17.999 92.0889 18.0479 91.9521 18.0479C91.8154 18.0479 91.6982 17.999 91.6006 17.9014C91.5029 17.8037 91.4541 17.6865 91.4541 17.5498C91.4541 17.4131 91.5013 17.2975 91.5957 17.2031C91.6934 17.1055 91.8122 17.0566 91.9521 17.0566ZM92.3574 19.3955V22.9893C92.3574 23.2692 92.377 23.4564 92.416 23.5508C92.4583 23.6419 92.5186 23.7103 92.5967 23.7559C92.6781 23.8014 92.8245 23.8242 93.0361 23.8242V24H90.8633V23.8242C91.0814 23.8242 91.2279 23.8031 91.3027 23.7607C91.3776 23.7184 91.4362 23.6484 91.4785 23.5508C91.5241 23.4531 91.5469 23.266 91.5469 22.9893V21.2656C91.5469 20.7806 91.5322 20.4665 91.5029 20.3232C91.4801 20.2191 91.4443 20.1475 91.3955 20.1084C91.3467 20.0661 91.2799 20.0449 91.1953 20.0449C91.1042 20.0449 90.9935 20.0693 90.8633 20.1182L90.7949 19.9424L92.1426 19.3955H92.3574ZM94.8965 18.0576V19.5273H95.9414V19.8691H94.8965V22.7695C94.8965 23.0592 94.9372 23.2546 95.0186 23.3555C95.1032 23.4564 95.2106 23.5068 95.3408 23.5068C95.4482 23.5068 95.5524 23.4743 95.6533 23.4092C95.7542 23.3408 95.8324 23.2415 95.8877 23.1113H96.0781C95.9642 23.4303 95.8031 23.6712 95.5947 23.834C95.3864 23.9935 95.1715 24.0732 94.9502 24.0732C94.8005 24.0732 94.654 24.0326 94.5107 23.9512C94.3675 23.8665 94.2617 23.7477 94.1934 23.5947C94.125 23.4385 94.0908 23.1992 94.0908 22.877V19.8691H93.3828V19.708C93.5618 19.6364 93.7441 19.516 93.9297 19.3467C94.1185 19.1742 94.2861 18.9707 94.4326 18.7363C94.5075 18.6126 94.6117 18.3864 94.7451 18.0576H94.8965ZM97.5186 17.0566C97.6553 17.0566 97.7708 17.1055 97.8652 17.2031C97.9629 17.2975 98.0117 17.4131 98.0117 17.5498C98.0117 17.6865 97.9629 17.8037 97.8652 17.9014C97.7708 17.999 97.6553 18.0479 97.5186 18.0479C97.3818 18.0479 97.2646 17.999 97.167 17.9014C97.0693 17.8037 97.0205 17.6865 97.0205 17.5498C97.0205 17.4131 97.0677 17.2975 97.1621 17.2031C97.2598 17.1055 97.3786 17.0566 97.5186 17.0566ZM97.9238 19.3955V22.9893C97.9238 23.2692 97.9434 23.4564 97.9824 23.5508C98.0247 23.6419 98.085 23.7103 98.1631 23.7559C98.2445 23.8014 98.391 23.8242 98.6025 23.8242V24H96.4297V23.8242C96.6478 23.8242 96.7943 23.8031 96.8691 23.7607C96.944 23.7184 97.0026 23.6484 97.0449 23.5508C97.0905 23.4531 97.1133 23.266 97.1133 22.9893V21.2656C97.1133 20.7806 97.0986 20.4665 97.0693 20.3232C97.0465 20.2191 97.0107 20.1475 96.9619 20.1084C96.9131 20.0661 96.8464 20.0449 96.7617 20.0449C96.6706 20.0449 96.5599 20.0693 96.4297 20.1182L96.3613 19.9424L97.709 19.3955H97.9238ZM98.9346 19.5273H101.039V19.708H100.902C100.775 19.708 100.678 19.7389 100.609 19.8008C100.544 19.8626 100.512 19.9456 100.512 20.0498C100.512 20.1637 100.546 20.2988 100.614 20.4551L101.654 22.9258L102.699 20.3623C102.774 20.18 102.812 20.0417 102.812 19.9473C102.812 19.9017 102.799 19.8643 102.772 19.835C102.737 19.7861 102.691 19.7536 102.636 19.7373C102.58 19.7178 102.468 19.708 102.299 19.708V19.5273H103.759V19.708C103.59 19.721 103.472 19.7552 103.407 19.8105C103.293 19.9082 103.191 20.071 103.1 20.2988L101.513 24.1367H101.312L99.7158 20.3623C99.6442 20.1865 99.5758 20.0612 99.5107 19.9863C99.4456 19.9082 99.3626 19.8431 99.2617 19.791C99.2064 19.7617 99.0973 19.734 98.9346 19.708V19.5273ZM104.916 21.2119C104.913 21.876 105.074 22.3968 105.399 22.7744C105.725 23.152 106.107 23.3408 106.547 23.3408C106.84 23.3408 107.094 23.2611 107.309 23.1016C107.527 22.9388 107.709 22.6621 107.855 22.2715L108.007 22.3691C107.938 22.8151 107.74 23.222 107.411 23.5898C107.082 23.9544 106.671 24.1367 106.176 24.1367C105.639 24.1367 105.178 23.9284 104.794 23.5117C104.413 23.0918 104.223 22.5286 104.223 21.8223C104.223 21.0573 104.418 20.4616 104.809 20.0352C105.202 19.6055 105.696 19.3906 106.288 19.3906C106.789 19.3906 107.201 19.5566 107.523 19.8887C107.846 20.2174 108.007 20.6585 108.007 21.2119H104.916ZM104.916 20.9287H106.986C106.97 20.6423 106.936 20.4404 106.884 20.3232C106.802 20.141 106.68 19.9977 106.518 19.8936C106.358 19.7894 106.19 19.7373 106.015 19.7373C105.744 19.7373 105.502 19.8431 105.287 20.0547C105.076 20.263 104.952 20.5544 104.916 20.9287ZM112.885 17.7402V20.3574H114.34C114.717 20.3574 114.97 20.3005 115.097 20.1865C115.266 20.0368 115.36 19.7731 115.38 19.3955H115.561V21.7002H115.38C115.334 21.3779 115.289 21.1712 115.243 21.0801C115.185 20.9661 115.089 20.8766 114.955 20.8115C114.822 20.7464 114.617 20.7139 114.34 20.7139H112.885V22.8965C112.885 23.1895 112.898 23.3685 112.924 23.4336C112.95 23.4954 112.995 23.5459 113.061 23.585C113.126 23.6208 113.249 23.6387 113.432 23.6387H114.555C114.929 23.6387 115.201 23.6126 115.37 23.5605C115.539 23.5085 115.702 23.4059 115.858 23.2529C116.06 23.0511 116.267 22.7467 116.479 22.3398H116.674L116.103 24H111V23.8193H111.234C111.391 23.8193 111.539 23.7819 111.679 23.707C111.783 23.6549 111.853 23.5768 111.889 23.4727C111.928 23.3685 111.947 23.1553 111.947 22.833V18.5312C111.947 18.1113 111.905 17.8525 111.82 17.7549C111.703 17.6247 111.508 17.5596 111.234 17.5596H111V17.3789H116.103L116.176 18.8291H115.985C115.917 18.4808 115.84 18.2415 115.756 18.1113C115.674 17.9811 115.552 17.8818 115.39 17.8135C115.259 17.7646 115.03 17.7402 114.701 17.7402H112.885ZM120.38 23.4971C120.162 23.7249 119.949 23.8893 119.74 23.9902C119.532 24.0879 119.307 24.1367 119.066 24.1367C118.578 24.1367 118.152 23.9333 117.787 23.5264C117.423 23.1162 117.24 22.5905 117.24 21.9492C117.24 21.3079 117.442 20.722 117.846 20.1914C118.249 19.6576 118.769 19.3906 119.403 19.3906C119.797 19.3906 120.123 19.516 120.38 19.7666V18.9414C120.38 18.4303 120.367 18.1162 120.341 17.999C120.318 17.8818 120.281 17.8021 120.229 17.7598C120.176 17.7174 120.111 17.6963 120.033 17.6963C119.949 17.6963 119.836 17.7223 119.696 17.7744L119.633 17.6035L120.966 17.0566H121.186V22.2275C121.186 22.7516 121.197 23.0723 121.22 23.1895C121.246 23.3034 121.285 23.3831 121.337 23.4287C121.392 23.4743 121.456 23.4971 121.527 23.4971C121.615 23.4971 121.732 23.4694 121.879 23.4141L121.933 23.585L120.604 24.1367H120.38V23.4971ZM120.38 23.1553V20.8506C120.36 20.6292 120.302 20.4274 120.204 20.2451C120.106 20.0628 119.976 19.9261 119.813 19.835C119.654 19.7406 119.498 19.6934 119.345 19.6934C119.058 19.6934 118.803 19.8219 118.578 20.0791C118.282 20.4176 118.134 20.9124 118.134 21.5635C118.134 22.221 118.277 22.7256 118.563 23.0771C118.85 23.4255 119.169 23.5996 119.521 23.5996C119.817 23.5996 120.103 23.4515 120.38 23.1553ZM123.417 22.3691C123.144 22.2357 122.934 22.0501 122.787 21.8125C122.641 21.5716 122.567 21.3063 122.567 21.0166C122.567 20.5739 122.733 20.193 123.065 19.874C123.401 19.555 123.829 19.3955 124.35 19.3955C124.776 19.3955 125.146 19.4997 125.458 19.708H126.405C126.545 19.708 126.627 19.7129 126.649 19.7227C126.672 19.7292 126.688 19.7422 126.698 19.7617C126.718 19.791 126.728 19.8431 126.728 19.918C126.728 20.0026 126.719 20.0612 126.703 20.0938C126.693 20.11 126.675 20.123 126.649 20.1328C126.627 20.1426 126.545 20.1475 126.405 20.1475H125.824C126.007 20.3818 126.098 20.6813 126.098 21.0459C126.098 21.4626 125.938 21.819 125.619 22.1152C125.3 22.4115 124.872 22.5596 124.335 22.5596C124.114 22.5596 123.887 22.527 123.656 22.4619C123.513 22.5856 123.415 22.6947 123.363 22.7891C123.314 22.8802 123.29 22.9583 123.29 23.0234C123.29 23.0788 123.316 23.1325 123.368 23.1846C123.424 23.2367 123.529 23.2741 123.686 23.2969C123.777 23.3099 124.005 23.3213 124.369 23.3311C125.04 23.3473 125.474 23.3701 125.673 23.3994C125.976 23.4417 126.216 23.554 126.396 23.7363C126.578 23.9186 126.669 24.1432 126.669 24.4102C126.669 24.778 126.496 25.123 126.151 25.4453C125.644 25.9206 124.981 26.1582 124.164 26.1582C123.536 26.1582 123.005 26.0166 122.572 25.7334C122.328 25.5706 122.206 25.4014 122.206 25.2256C122.206 25.1475 122.224 25.0693 122.26 24.9912C122.315 24.8708 122.429 24.7031 122.602 24.4883C122.624 24.459 122.79 24.2832 123.1 23.9609C122.93 23.86 122.81 23.7705 122.738 23.6924C122.67 23.611 122.636 23.5199 122.636 23.4189C122.636 23.305 122.681 23.1715 122.772 23.0186C122.867 22.8656 123.082 22.6491 123.417 22.3691ZM124.267 19.6299C124.026 19.6299 123.824 19.7259 123.661 19.918C123.498 20.11 123.417 20.4046 123.417 20.8018C123.417 21.3161 123.528 21.7148 123.749 21.998C123.918 22.2129 124.133 22.3203 124.394 22.3203C124.641 22.3203 124.844 22.2275 125.004 22.042C125.163 21.8564 125.243 21.5651 125.243 21.168C125.243 20.6504 125.131 20.2451 124.906 19.9521C124.74 19.7373 124.527 19.6299 124.267 19.6299ZM123.368 24C123.215 24.166 123.1 24.3206 123.021 24.4639C122.943 24.6071 122.904 24.7389 122.904 24.8594C122.904 25.0156 122.999 25.1523 123.188 25.2695C123.513 25.4714 123.983 25.5723 124.599 25.5723C125.185 25.5723 125.616 25.4681 125.893 25.2598C126.173 25.0547 126.312 24.835 126.312 24.6006C126.312 24.4313 126.229 24.3109 126.063 24.2393C125.894 24.1676 125.559 24.1253 125.058 24.1123C124.325 24.0928 123.762 24.0553 123.368 24ZM127.973 21.2119C127.969 21.876 128.131 22.3968 128.456 22.7744C128.782 23.152 129.164 23.3408 129.604 23.3408C129.896 23.3408 130.15 23.2611 130.365 23.1016C130.583 22.9388 130.766 22.6621 130.912 22.2715L131.063 22.3691C130.995 22.8151 130.797 23.222 130.468 23.5898C130.139 23.9544 129.727 24.1367 129.232 24.1367C128.695 24.1367 128.235 23.9284 127.851 23.5117C127.47 23.0918 127.279 22.5286 127.279 21.8223C127.279 21.0573 127.475 20.4616 127.865 20.0352C128.259 19.6055 128.752 19.3906 129.345 19.3906C129.846 19.3906 130.258 19.5566 130.58 19.8887C130.902 20.2174 131.063 20.6585 131.063 21.2119H127.973ZM127.973 20.9287H130.043C130.027 20.6423 129.993 20.4404 129.94 20.3232C129.859 20.141 129.737 19.9977 129.574 19.8936C129.415 19.7894 129.247 19.7373 129.071 19.7373C128.801 19.7373 128.559 19.8431 128.344 20.0547C128.132 20.263 128.008 20.5544 127.973 20.9287ZM139.452 17.3789L139.525 18.9316H139.34C139.304 18.6582 139.255 18.4629 139.193 18.3457C139.092 18.1569 138.957 18.0186 138.788 17.9307C138.622 17.8395 138.402 17.7939 138.129 17.7939H137.196V22.8525C137.196 23.2594 137.24 23.5133 137.328 23.6143C137.452 23.751 137.642 23.8193 137.899 23.8193H138.129V24H135.321V23.8193H135.556C135.836 23.8193 136.034 23.7347 136.151 23.5654C136.223 23.4613 136.259 23.2236 136.259 22.8525V17.7939H135.463C135.154 17.7939 134.934 17.8167 134.804 17.8623C134.634 17.9242 134.49 18.043 134.369 18.2188C134.249 18.3945 134.177 18.6322 134.154 18.9316H133.969L134.047 17.3789H139.452ZM141.049 19.3955V20.4014C141.423 19.7308 141.807 19.3955 142.201 19.3955C142.38 19.3955 142.528 19.4508 142.646 19.5615C142.763 19.6689 142.821 19.7943 142.821 19.9375C142.821 20.0645 142.779 20.1719 142.694 20.2598C142.61 20.3477 142.509 20.3916 142.392 20.3916C142.278 20.3916 142.149 20.3363 142.006 20.2256C141.866 20.1117 141.762 20.0547 141.693 20.0547C141.635 20.0547 141.571 20.0872 141.503 20.1523C141.356 20.2858 141.205 20.5055 141.049 20.8115V22.9551C141.049 23.2025 141.08 23.3896 141.142 23.5166C141.184 23.6045 141.259 23.6777 141.366 23.7363C141.474 23.7949 141.628 23.8242 141.83 23.8242V24H139.54V23.8242C139.768 23.8242 139.937 23.7884 140.048 23.7168C140.129 23.6647 140.186 23.5817 140.219 23.4678C140.235 23.4124 140.243 23.2546 140.243 22.9941V21.2607C140.243 20.7399 140.232 20.4307 140.209 20.333C140.189 20.2321 140.15 20.1589 140.092 20.1133C140.036 20.0677 139.966 20.0449 139.882 20.0449C139.781 20.0449 139.667 20.0693 139.54 20.1182L139.491 19.9424L140.844 19.3955H141.049ZM144.208 17.0566C144.345 17.0566 144.46 17.1055 144.555 17.2031C144.652 17.2975 144.701 17.4131 144.701 17.5498C144.701 17.6865 144.652 17.8037 144.555 17.9014C144.46 17.999 144.345 18.0479 144.208 18.0479C144.071 18.0479 143.954 17.999 143.856 17.9014C143.759 17.8037 143.71 17.6865 143.71 17.5498C143.71 17.4131 143.757 17.2975 143.852 17.2031C143.949 17.1055 144.068 17.0566 144.208 17.0566ZM144.613 19.3955V22.9893C144.613 23.2692 144.633 23.4564 144.672 23.5508C144.714 23.6419 144.774 23.7103 144.853 23.7559C144.934 23.8014 145.08 23.8242 145.292 23.8242V24H143.119V23.8242C143.337 23.8242 143.484 23.8031 143.559 23.7607C143.633 23.7184 143.692 23.6484 143.734 23.5508C143.78 23.4531 143.803 23.266 143.803 22.9893V21.2656C143.803 20.7806 143.788 20.4665 143.759 20.3232C143.736 20.2191 143.7 20.1475 143.651 20.1084C143.603 20.0661 143.536 20.0449 143.451 20.0449C143.36 20.0449 143.249 20.0693 143.119 20.1182L143.051 19.9424L144.398 19.3955H144.613ZM147.05 22.3691C146.776 22.2357 146.566 22.0501 146.42 21.8125C146.273 21.5716 146.2 21.3063 146.2 21.0166C146.2 20.5739 146.366 20.193 146.698 19.874C147.034 19.555 147.462 19.3955 147.982 19.3955C148.409 19.3955 148.778 19.4997 149.091 19.708H150.038C150.178 19.708 150.259 19.7129 150.282 19.7227C150.305 19.7292 150.321 19.7422 150.331 19.7617C150.351 19.791 150.36 19.8431 150.36 19.918C150.36 20.0026 150.352 20.0612 150.336 20.0938C150.326 20.11 150.308 20.123 150.282 20.1328C150.259 20.1426 150.178 20.1475 150.038 20.1475H149.457C149.639 20.3818 149.73 20.6813 149.73 21.0459C149.73 21.4626 149.571 21.819 149.252 22.1152C148.933 22.4115 148.505 22.5596 147.968 22.5596C147.746 22.5596 147.52 22.527 147.289 22.4619C147.146 22.5856 147.048 22.6947 146.996 22.7891C146.947 22.8802 146.923 22.9583 146.923 23.0234C146.923 23.0788 146.949 23.1325 147.001 23.1846C147.056 23.2367 147.162 23.2741 147.318 23.2969C147.41 23.3099 147.637 23.3213 148.002 23.3311C148.673 23.3473 149.107 23.3701 149.306 23.3994C149.608 23.4417 149.849 23.554 150.028 23.7363C150.211 23.9186 150.302 24.1432 150.302 24.4102C150.302 24.778 150.129 25.123 149.784 25.4453C149.276 25.9206 148.614 26.1582 147.797 26.1582C147.169 26.1582 146.638 26.0166 146.205 25.7334C145.961 25.5706 145.839 25.4014 145.839 25.2256C145.839 25.1475 145.857 25.0693 145.893 24.9912C145.948 24.8708 146.062 24.7031 146.234 24.4883C146.257 24.459 146.423 24.2832 146.732 23.9609C146.563 23.86 146.443 23.7705 146.371 23.6924C146.303 23.611 146.269 23.5199 146.269 23.4189C146.269 23.305 146.314 23.1715 146.405 23.0186C146.5 22.8656 146.715 22.6491 147.05 22.3691ZM147.899 19.6299C147.659 19.6299 147.457 19.7259 147.294 19.918C147.131 20.11 147.05 20.4046 147.05 20.8018C147.05 21.3161 147.16 21.7148 147.382 21.998C147.551 22.2129 147.766 22.3203 148.026 22.3203C148.274 22.3203 148.477 22.2275 148.637 22.042C148.796 21.8564 148.876 21.5651 148.876 21.168C148.876 20.6504 148.764 20.2451 148.539 19.9521C148.373 19.7373 148.16 19.6299 147.899 19.6299ZM147.001 24C146.848 24.166 146.732 24.3206 146.654 24.4639C146.576 24.6071 146.537 24.7389 146.537 24.8594C146.537 25.0156 146.632 25.1523 146.82 25.2695C147.146 25.4714 147.616 25.5723 148.231 25.5723C148.817 25.5723 149.249 25.4681 149.525 25.2598C149.805 25.0547 149.945 24.835 149.945 24.6006C149.945 24.4313 149.862 24.3109 149.696 24.2393C149.527 24.1676 149.192 24.1253 148.69 24.1123C147.958 24.0928 147.395 24.0553 147.001 24ZM152.05 22.3691C151.776 22.2357 151.566 22.0501 151.42 21.8125C151.273 21.5716 151.2 21.3063 151.2 21.0166C151.2 20.5739 151.366 20.193 151.698 19.874C152.034 19.555 152.462 19.3955 152.982 19.3955C153.409 19.3955 153.778 19.4997 154.091 19.708H155.038C155.178 19.708 155.259 19.7129 155.282 19.7227C155.305 19.7292 155.321 19.7422 155.331 19.7617C155.351 19.791 155.36 19.8431 155.36 19.918C155.36 20.0026 155.352 20.0612 155.336 20.0938C155.326 20.11 155.308 20.123 155.282 20.1328C155.259 20.1426 155.178 20.1475 155.038 20.1475H154.457C154.639 20.3818 154.73 20.6813 154.73 21.0459C154.73 21.4626 154.571 21.819 154.252 22.1152C153.933 22.4115 153.505 22.5596 152.968 22.5596C152.746 22.5596 152.52 22.527 152.289 22.4619C152.146 22.5856 152.048 22.6947 151.996 22.7891C151.947 22.8802 151.923 22.9583 151.923 23.0234C151.923 23.0788 151.949 23.1325 152.001 23.1846C152.056 23.2367 152.162 23.2741 152.318 23.2969C152.41 23.3099 152.637 23.3213 153.002 23.3311C153.673 23.3473 154.107 23.3701 154.306 23.3994C154.608 23.4417 154.849 23.554 155.028 23.7363C155.211 23.9186 155.302 24.1432 155.302 24.4102C155.302 24.778 155.129 25.123 154.784 25.4453C154.276 25.9206 153.614 26.1582 152.797 26.1582C152.169 26.1582 151.638 26.0166 151.205 25.7334C150.961 25.5706 150.839 25.4014 150.839 25.2256C150.839 25.1475 150.857 25.0693 150.893 24.9912C150.948 24.8708 151.062 24.7031 151.234 24.4883C151.257 24.459 151.423 24.2832 151.732 23.9609C151.563 23.86 151.443 23.7705 151.371 23.6924C151.303 23.611 151.269 23.5199 151.269 23.4189C151.269 23.305 151.314 23.1715 151.405 23.0186C151.5 22.8656 151.715 22.6491 152.05 22.3691ZM152.899 19.6299C152.659 19.6299 152.457 19.7259 152.294 19.918C152.131 20.11 152.05 20.4046 152.05 20.8018C152.05 21.3161 152.16 21.7148 152.382 21.998C152.551 22.2129 152.766 22.3203 153.026 22.3203C153.274 22.3203 153.477 22.2275 153.637 22.042C153.796 21.8564 153.876 21.5651 153.876 21.168C153.876 20.6504 153.764 20.2451 153.539 19.9521C153.373 19.7373 153.16 19.6299 152.899 19.6299ZM152.001 24C151.848 24.166 151.732 24.3206 151.654 24.4639C151.576 24.6071 151.537 24.7389 151.537 24.8594C151.537 25.0156 151.632 25.1523 151.82 25.2695C152.146 25.4714 152.616 25.5723 153.231 25.5723C153.817 25.5723 154.249 25.4681 154.525 25.2598C154.805 25.0547 154.945 24.835 154.945 24.6006C154.945 24.4313 154.862 24.3109 154.696 24.2393C154.527 24.1676 154.192 24.1253 153.69 24.1123C152.958 24.0928 152.395 24.0553 152.001 24ZM156.605 21.2119C156.602 21.876 156.763 22.3968 157.089 22.7744C157.414 23.152 157.797 23.3408 158.236 23.3408C158.529 23.3408 158.783 23.2611 158.998 23.1016C159.216 22.9388 159.398 22.6621 159.545 22.2715L159.696 22.3691C159.628 22.8151 159.429 23.222 159.101 23.5898C158.772 23.9544 158.36 24.1367 157.865 24.1367C157.328 24.1367 156.868 23.9284 156.483 23.5117C156.103 23.0918 155.912 22.5286 155.912 21.8223C155.912 21.0573 156.107 20.4616 156.498 20.0352C156.892 19.6055 157.385 19.3906 157.978 19.3906C158.479 19.3906 158.891 19.5566 159.213 19.8887C159.535 20.2174 159.696 20.6585 159.696 21.2119H156.605ZM156.605 20.9287H158.676C158.66 20.6423 158.625 20.4404 158.573 20.3232C158.492 20.141 158.37 19.9977 158.207 19.8936C158.048 19.7894 157.88 19.7373 157.704 19.7373C157.434 19.7373 157.191 19.8431 156.977 20.0547C156.765 20.263 156.641 20.5544 156.605 20.9287ZM161.605 19.3955V20.4014C161.98 19.7308 162.364 19.3955 162.758 19.3955C162.937 19.3955 163.085 19.4508 163.202 19.5615C163.319 19.6689 163.378 19.7943 163.378 19.9375C163.378 20.0645 163.336 20.1719 163.251 20.2598C163.166 20.3477 163.065 20.3916 162.948 20.3916C162.834 20.3916 162.706 20.3363 162.562 20.2256C162.423 20.1117 162.318 20.0547 162.25 20.0547C162.191 20.0547 162.128 20.0872 162.06 20.1523C161.913 20.2858 161.762 20.5055 161.605 20.8115V22.9551C161.605 23.2025 161.636 23.3896 161.698 23.5166C161.741 23.6045 161.815 23.6777 161.923 23.7363C162.03 23.7949 162.185 23.8242 162.387 23.8242V24H160.097V23.8242C160.325 23.8242 160.494 23.7884 160.604 23.7168C160.686 23.6647 160.743 23.5817 160.775 23.4678C160.792 23.4124 160.8 23.2546 160.8 22.9941V21.2607C160.8 20.7399 160.788 20.4307 160.766 20.333C160.746 20.2321 160.707 20.1589 160.648 20.1133C160.593 20.0677 160.523 20.0449 160.438 20.0449C160.338 20.0449 160.224 20.0693 160.097 20.1182L160.048 19.9424L161.4 19.3955H161.605ZM164.379 21.2119C164.376 21.876 164.537 22.3968 164.862 22.7744C165.188 23.152 165.57 23.3408 166.01 23.3408C166.303 23.3408 166.557 23.2611 166.771 23.1016C166.99 22.9388 167.172 22.6621 167.318 22.2715L167.47 22.3691C167.401 22.8151 167.203 23.222 166.874 23.5898C166.545 23.9544 166.133 24.1367 165.639 24.1367C165.102 24.1367 164.641 23.9284 164.257 23.5117C163.876 23.0918 163.686 22.5286 163.686 21.8223C163.686 21.0573 163.881 20.4616 164.271 20.0352C164.665 19.6055 165.159 19.3906 165.751 19.3906C166.252 19.3906 166.664 19.5566 166.986 19.8887C167.309 20.2174 167.47 20.6585 167.47 21.2119H164.379ZM164.379 20.9287H166.449C166.433 20.6423 166.399 20.4404 166.347 20.3232C166.265 20.141 166.143 19.9977 165.98 19.8936C165.821 19.7894 165.653 19.7373 165.478 19.7373C165.207 19.7373 164.965 19.8431 164.75 20.0547C164.538 20.263 164.415 20.5544 164.379 20.9287ZM171.229 23.4971C171.011 23.7249 170.798 23.8893 170.59 23.9902C170.382 24.0879 170.157 24.1367 169.916 24.1367C169.428 24.1367 169.001 23.9333 168.637 23.5264C168.272 23.1162 168.09 22.5905 168.09 21.9492C168.09 21.3079 168.292 20.722 168.695 20.1914C169.099 19.6576 169.618 19.3906 170.253 19.3906C170.647 19.3906 170.972 19.516 171.229 19.7666V18.9414C171.229 18.4303 171.216 18.1162 171.19 17.999C171.168 17.8818 171.13 17.8021 171.078 17.7598C171.026 17.7174 170.961 17.6963 170.883 17.6963C170.798 17.6963 170.686 17.7223 170.546 17.7744L170.482 17.6035L171.815 17.0566H172.035V22.2275C172.035 22.7516 172.047 23.0723 172.069 23.1895C172.095 23.3034 172.134 23.3831 172.187 23.4287C172.242 23.4743 172.305 23.4971 172.377 23.4971C172.465 23.4971 172.582 23.4694 172.729 23.4141L172.782 23.585L171.454 24.1367H171.229V23.4971ZM171.229 23.1553V20.8506C171.21 20.6292 171.151 20.4274 171.054 20.2451C170.956 20.0628 170.826 19.9261 170.663 19.835C170.504 19.7406 170.347 19.6934 170.194 19.6934C169.908 19.6934 169.652 19.8219 169.428 20.0791C169.132 20.4176 168.983 20.9124 168.983 21.5635C168.983 22.221 169.127 22.7256 169.413 23.0771C169.7 23.4255 170.019 23.5996 170.37 23.5996C170.666 23.5996 170.953 23.4515 171.229 23.1553Z" fill="black"/>
<circle cx="65" cy="129" r="3" fill="white" stroke="black" stroke-width="2"/>
<circle cx="134" cy="131" r="3" fill="white" stroke="black" stroke-width="2"/>
<path d="M81.8261 101.252L83.7236 100L81.8261 98.748L71.3261 91.8198L69 90.2849V93.0718V106.928V109.715L71.3261 108.18L81.8261 101.252Z" fill="white" stroke="black" stroke-width="3"/>
</svg>
