<svg width="200" height="200" viewBox="0 0 200 200" fill="none" xmlns="http://www.w3.org/2000/svg">
<rect width="200" height="200" fill="white"/>
<rect x="68.5" y="51.5" width="62" height="97" fill="white" stroke="black" stroke-width="3"/>
<line y1="66" x2="67" y2="66" stroke="black" stroke-width="2"/>
<line y1="131" x2="67" y2="131" stroke="black" stroke-width="2"/>
<line x1="130" y1="66" x2="200" y2="66" stroke="black" stroke-width="2"/>
<line x1="130" y1="131" x2="200" y2="131" stroke="black" stroke-width="2"/>
<path d="M72.2051 72V71.7832H72.5039C72.8398 71.7832 73.0781 71.6758 73.2188 71.4609C73.3047 71.332 73.3477 71.043 73.3477 70.5938V65.4609C73.3477 64.9648 73.293 64.6543 73.1836 64.5293C73.0312 64.3574 72.8047 64.2715 72.5039 64.2715H72.2051V64.0547H75.4395C76.627 64.0547 77.5293 64.1895 78.1465 64.459C78.7676 64.7285 79.2656 65.1777 79.6406 65.8066C80.0195 66.4355 80.209 67.1621 80.209 67.9863C80.209 69.0918 79.873 70.0156 79.2012 70.7578C78.4473 71.5859 77.2988 72 75.7559 72H72.2051ZM74.4727 71.4258C74.9688 71.5352 75.3848 71.5898 75.7207 71.5898C76.627 71.5898 77.3789 71.2715 77.9766 70.6348C78.5742 69.998 78.873 69.1348 78.873 68.0449C78.873 66.9473 78.5742 66.082 77.9766 65.4492C77.3789 64.8164 76.6113 64.5 75.6738 64.5C75.3223 64.5 74.9219 64.5566 74.4727 64.6699V71.4258Z" fill="black"/>
<path d="M74.5078 124.488V127.629H76.2539C76.707 127.629 77.0098 127.561 77.1621 127.424C77.3652 127.244 77.4785 126.928 77.502 126.475H77.7188V129.24H77.502C77.4473 128.854 77.3926 128.605 77.3379 128.496C77.2676 128.359 77.1523 128.252 76.9922 128.174C76.832 128.096 76.5859 128.057 76.2539 128.057H74.5078V130.676C74.5078 131.027 74.5234 131.242 74.5547 131.32C74.5859 131.395 74.6406 131.455 74.7188 131.502C74.7969 131.545 74.9453 131.566 75.1641 131.566H76.5117C76.9609 131.566 77.2871 131.535 77.4902 131.473C77.6934 131.41 77.8887 131.287 78.0762 131.104C78.3184 130.861 78.5664 130.496 78.8203 130.008H79.0547L78.3691 132H72.2461V131.783H72.5273C72.7148 131.783 72.8926 131.738 73.0605 131.648C73.1855 131.586 73.2695 131.492 73.3125 131.367C73.3594 131.242 73.3828 130.986 73.3828 130.6V125.438C73.3828 124.934 73.332 124.623 73.2305 124.506C73.0898 124.35 72.8555 124.271 72.5273 124.271H72.2461V124.055H78.3691L78.457 125.795H78.2285C78.1465 125.377 78.0547 125.09 77.9531 124.934C77.8555 124.777 77.709 124.658 77.5137 124.576C77.3574 124.518 77.082 124.488 76.6875 124.488H74.5078ZM79.1777 124.055H81.334L86.1914 130.014V125.432C86.1914 124.943 86.1367 124.639 86.0273 124.518C85.8828 124.354 85.6543 124.271 85.3418 124.271H85.0664V124.055H87.832V124.271H87.5508C87.2148 124.271 86.9766 124.373 86.8359 124.576C86.75 124.701 86.707 124.986 86.707 125.432V132.129H86.4961L81.2578 125.73V130.623C81.2578 131.111 81.3105 131.416 81.416 131.537C81.5645 131.701 81.793 131.783 82.1016 131.783H82.3828V132H79.6172V131.783H79.8926C80.2324 131.783 80.4727 131.682 80.6133 131.479C80.6992 131.354 80.7422 131.068 80.7422 130.623V125.098C80.5117 124.828 80.3359 124.65 80.2148 124.564C80.0977 124.479 79.9238 124.398 79.6934 124.324C79.5801 124.289 79.4082 124.271 79.1777 124.271V124.055Z" fill="black"/>
<path d="M122.285 72.0879C122.684 72.7754 123.113 73.2812 123.574 73.6055C124.039 73.9297 124.566 74.1152 125.156 74.1621V74.3496C124.617 74.3301 124.041 74.2207 123.428 74.0215C122.814 73.8262 122.232 73.5527 121.682 73.2012C121.135 72.8535 120.662 72.4824 120.264 72.0879C119.701 71.8613 119.256 71.6211 118.928 71.3672C118.451 70.9883 118.08 70.5234 117.814 69.9727C117.553 69.418 117.422 68.7637 117.422 68.0098C117.422 66.8223 117.807 65.8359 118.576 65.0508C119.346 64.2656 120.277 63.873 121.371 63.873C122.41 63.873 123.309 64.2676 124.066 65.0566C124.828 65.8418 125.209 66.834 125.209 68.0332C125.209 69.0059 124.938 69.8594 124.395 70.5938C123.855 71.3281 123.152 71.8262 122.285 72.0879ZM121.301 64.3242C120.59 64.3242 120.018 64.5781 119.584 65.0859C119.037 65.7227 118.764 66.6973 118.764 68.0098C118.764 69.2949 119.041 70.2852 119.596 70.9805C120.025 71.5156 120.594 71.7832 121.301 71.7832C122.035 71.7832 122.627 71.5156 123.076 70.9805C123.604 70.3477 123.867 69.4141 123.867 68.1797C123.867 67.2305 123.723 66.4316 123.434 65.7832C123.211 65.2832 122.914 64.916 122.543 64.6816C122.176 64.4434 121.762 64.3242 121.301 64.3242Z" fill="black"/>
<path d="M119.285 132.088C119.684 132.775 120.113 133.281 120.574 133.605C121.039 133.93 121.566 134.115 122.156 134.162V134.35C121.617 134.33 121.041 134.221 120.428 134.021C119.814 133.826 119.232 133.553 118.682 133.201C118.135 132.854 117.662 132.482 117.264 132.088C116.701 131.861 116.256 131.621 115.928 131.367C115.451 130.988 115.08 130.523 114.814 129.973C114.553 129.418 114.422 128.764 114.422 128.01C114.422 126.822 114.807 125.836 115.576 125.051C116.346 124.266 117.277 123.873 118.371 123.873C119.41 123.873 120.309 124.268 121.066 125.057C121.828 125.842 122.209 126.834 122.209 128.033C122.209 129.006 121.938 129.859 121.395 130.594C120.855 131.328 120.152 131.826 119.285 132.088ZM118.301 124.324C117.59 124.324 117.018 124.578 116.584 125.086C116.037 125.723 115.764 126.697 115.764 128.01C115.764 129.295 116.041 130.285 116.596 130.98C117.025 131.516 117.594 131.783 118.301 131.783C119.035 131.783 119.627 131.516 120.076 130.98C120.604 130.348 120.867 129.414 120.867 128.18C120.867 127.23 120.723 126.432 120.434 125.783C120.211 125.283 119.914 124.916 119.543 124.682C119.176 124.443 118.762 124.324 118.301 124.324ZM124.066 126.908V126.633C124.469 126.395 124.742 126.172 124.887 125.965C124.988 125.816 125.039 125.639 125.039 125.432C125.039 125.311 125.018 125.221 124.975 125.162C124.928 125.104 124.877 125.074 124.822 125.074C124.779 125.074 124.723 125.088 124.652 125.115C124.551 125.15 124.467 125.168 124.4 125.168C124.244 125.168 124.105 125.109 123.984 124.992C123.863 124.875 123.803 124.729 123.803 124.553C123.803 124.357 123.863 124.205 123.984 124.096C124.148 123.947 124.344 123.873 124.57 123.873C124.832 123.873 125.066 123.984 125.273 124.207C125.484 124.426 125.59 124.699 125.59 125.027C125.59 125.488 125.416 125.908 125.068 126.287C124.838 126.537 124.504 126.744 124.066 126.908Z" fill="black"/>
<path d="M68.1709 24V23.8193H68.4199C68.6999 23.8193 68.8984 23.7298 69.0156 23.5508C69.0872 23.4434 69.123 23.2025 69.123 22.8281V18.5508C69.123 18.1374 69.0775 17.8786 68.9863 17.7744C68.8594 17.6312 68.6706 17.5596 68.4199 17.5596H68.1709V17.3789H70.8662C71.8558 17.3789 72.6077 17.4912 73.1221 17.7158C73.6396 17.9404 74.0547 18.3148 74.3672 18.8389C74.6829 19.363 74.8408 19.9684 74.8408 20.6553C74.8408 21.5765 74.5609 22.3464 74.001 22.9648C73.3727 23.6549 72.4157 24 71.1299 24H68.1709ZM70.0605 23.5215C70.474 23.6126 70.8206 23.6582 71.1006 23.6582C71.8558 23.6582 72.4824 23.3929 72.9805 22.8623C73.4785 22.3317 73.7275 21.6123 73.7275 20.7041C73.7275 19.7894 73.4785 19.0684 72.9805 18.541C72.4824 18.0137 71.8428 17.75 71.0615 17.75C70.7686 17.75 70.4349 17.7972 70.0605 17.8916V23.5215ZM83.459 22.1689L83.6201 22.2031L83.0537 24H77.9268V23.8193H78.1758C78.4557 23.8193 78.6559 23.7282 78.7764 23.5459C78.8447 23.4417 78.8789 23.2008 78.8789 22.8232V18.5508C78.8789 18.1374 78.8333 17.8786 78.7422 17.7744C78.6152 17.6312 78.4264 17.5596 78.1758 17.5596H77.9268V17.3789H80.9248V17.5596C80.5732 17.5563 80.3258 17.5889 80.1826 17.6572C80.0426 17.7256 79.9466 17.8118 79.8945 17.916C79.8424 18.0202 79.8164 18.2692 79.8164 18.6631V22.8232C79.8164 23.0934 79.8424 23.279 79.8945 23.3799C79.9336 23.4482 79.9938 23.4987 80.0752 23.5312C80.1566 23.5638 80.4105 23.5801 80.8369 23.5801H81.3203C81.8281 23.5801 82.1846 23.5426 82.3896 23.4678C82.5947 23.3929 82.7819 23.2611 82.9512 23.0723C83.1204 22.8802 83.2897 22.5791 83.459 22.1689ZM86.6865 23.3555C86.2275 23.7103 85.9395 23.9154 85.8223 23.9707C85.6465 24.0521 85.4593 24.0928 85.2607 24.0928C84.9515 24.0928 84.696 23.987 84.4941 23.7754C84.2956 23.5638 84.1963 23.2855 84.1963 22.9404C84.1963 22.7223 84.2451 22.5335 84.3428 22.374C84.4762 22.1527 84.7074 21.9443 85.0361 21.749C85.3682 21.5537 85.9183 21.3161 86.6865 21.0361V20.8604C86.6865 20.4144 86.6149 20.1084 86.4717 19.9424C86.3317 19.7764 86.1266 19.6934 85.8564 19.6934C85.6514 19.6934 85.4886 19.7487 85.3682 19.8594C85.2445 19.9701 85.1826 20.097 85.1826 20.2402L85.1924 20.5234C85.1924 20.6732 85.1533 20.7887 85.0752 20.8701C85.0003 20.9515 84.901 20.9922 84.7773 20.9922C84.6569 20.9922 84.5576 20.9499 84.4795 20.8652C84.4046 20.7806 84.3672 20.665 84.3672 20.5186C84.3672 20.2386 84.5104 19.9814 84.7969 19.7471C85.0833 19.5127 85.4854 19.3955 86.0029 19.3955C86.4001 19.3955 86.7256 19.4622 86.9795 19.5957C87.1715 19.6966 87.3132 19.8545 87.4043 20.0693C87.4629 20.2093 87.4922 20.4958 87.4922 20.9287V22.4473C87.4922 22.8737 87.5003 23.1357 87.5166 23.2334C87.5329 23.3278 87.5589 23.3913 87.5947 23.4238C87.6338 23.4564 87.6777 23.4727 87.7266 23.4727C87.7786 23.4727 87.8242 23.4613 87.8633 23.4385C87.9316 23.3962 88.0635 23.2773 88.2588 23.082V23.3555C87.8942 23.8438 87.5459 24.0879 87.2139 24.0879C87.0544 24.0879 86.9274 24.0326 86.833 23.9219C86.7386 23.8112 86.6898 23.6224 86.6865 23.3555ZM86.6865 23.0381V21.334C86.195 21.5293 85.8776 21.6676 85.7344 21.749C85.4772 21.8923 85.2933 22.042 85.1826 22.1982C85.0719 22.3545 85.0166 22.5254 85.0166 22.7109C85.0166 22.9453 85.0866 23.1406 85.2266 23.2969C85.3665 23.4499 85.5277 23.5264 85.71 23.5264C85.9574 23.5264 86.2829 23.3636 86.6865 23.0381ZM89.8945 18.0576V19.5273H90.9395V19.8691H89.8945V22.7695C89.8945 23.0592 89.9352 23.2546 90.0166 23.3555C90.1012 23.4564 90.2087 23.5068 90.3389 23.5068C90.4463 23.5068 90.5505 23.4743 90.6514 23.4092C90.7523 23.3408 90.8304 23.2415 90.8857 23.1113H91.0762C90.9622 23.4303 90.8011 23.6712 90.5928 23.834C90.3844 23.9935 90.1696 24.0732 89.9482 24.0732C89.7985 24.0732 89.652 24.0326 89.5088 23.9512C89.3656 23.8665 89.2598 23.7477 89.1914 23.5947C89.123 23.4385 89.0889 23.1992 89.0889 22.877V19.8691H88.3809V19.708C88.5599 19.6364 88.7422 19.516 88.9277 19.3467C89.1165 19.1742 89.2842 18.9707 89.4307 18.7363C89.5055 18.6126 89.6097 18.3864 89.7432 18.0576H89.8945ZM95.1777 22.3008C95.0573 22.89 94.8213 23.3441 94.4697 23.6631C94.1182 23.9788 93.7292 24.1367 93.3027 24.1367C92.7949 24.1367 92.3522 23.9235 91.9746 23.4971C91.597 23.0706 91.4082 22.4945 91.4082 21.7686C91.4082 21.0654 91.6165 20.4941 92.0332 20.0547C92.4531 19.6152 92.9561 19.3955 93.542 19.3955C93.9814 19.3955 94.3428 19.5127 94.626 19.7471C94.9092 19.9782 95.0508 20.2191 95.0508 20.4697C95.0508 20.5934 95.0101 20.6943 94.9287 20.7725C94.8506 20.8473 94.7399 20.8848 94.5967 20.8848C94.4046 20.8848 94.2598 20.8229 94.1621 20.6992C94.1068 20.6309 94.0693 20.5007 94.0498 20.3086C94.0335 20.1165 93.9684 19.9701 93.8545 19.8691C93.7406 19.7715 93.5827 19.7227 93.3809 19.7227C93.0553 19.7227 92.7933 19.8431 92.5947 20.084C92.3311 20.403 92.1992 20.8245 92.1992 21.3486C92.1992 21.8825 92.3294 22.3545 92.5898 22.7646C92.8535 23.1715 93.2083 23.375 93.6543 23.375C93.9733 23.375 94.2598 23.266 94.5137 23.0479C94.6927 22.8981 94.8669 22.6263 95.0361 22.2324L95.1777 22.3008ZM97.1357 17.0566V20.3281C97.4971 19.931 97.7835 19.6771 97.9951 19.5664C98.2067 19.4525 98.4183 19.3955 98.6299 19.3955C98.8838 19.3955 99.1019 19.4655 99.2842 19.6055C99.4665 19.7454 99.6016 19.9652 99.6895 20.2646C99.7513 20.473 99.7822 20.8538 99.7822 21.4072V22.9893C99.7822 23.2725 99.805 23.4661 99.8506 23.5703C99.8831 23.6484 99.9385 23.7103 100.017 23.7559C100.095 23.8014 100.238 23.8242 100.446 23.8242V24H98.249V23.8242H98.3516C98.5599 23.8242 98.7048 23.7933 98.7861 23.7314C98.8675 23.6663 98.9245 23.5719 98.957 23.4482C98.9668 23.3962 98.9717 23.2432 98.9717 22.9893V21.4072C98.9717 20.9189 98.9456 20.5983 98.8936 20.4453C98.8447 20.2923 98.765 20.1784 98.6543 20.1035C98.5436 20.0254 98.4102 19.9863 98.2539 19.9863C98.0944 19.9863 97.9284 20.0286 97.7559 20.1133C97.5833 20.1979 97.3766 20.3688 97.1357 20.626V22.9893C97.1357 23.2952 97.152 23.4857 97.1846 23.5605C97.2204 23.6354 97.2839 23.6989 97.375 23.751C97.4694 23.7998 97.6305 23.8242 97.8584 23.8242V24H95.6416V23.8242C95.8402 23.8242 95.9964 23.7933 96.1104 23.7314C96.1755 23.6989 96.2275 23.637 96.2666 23.5459C96.3057 23.4548 96.3252 23.2692 96.3252 22.9893V18.9414C96.3252 18.4303 96.3122 18.1162 96.2861 17.999C96.2633 17.8818 96.2259 17.8021 96.1738 17.7598C96.125 17.7174 96.0583 17.6963 95.9736 17.6963C95.9053 17.6963 95.7946 17.7223 95.6416 17.7744L95.5732 17.6035L96.9111 17.0566H97.1357ZM105.1 17.7402V20.3574H106.555C106.932 20.3574 107.185 20.3005 107.312 20.1865C107.481 20.0368 107.575 19.7731 107.595 19.3955H107.775V21.7002H107.595C107.549 21.3779 107.504 21.1712 107.458 21.0801C107.399 20.9661 107.303 20.8766 107.17 20.8115C107.036 20.7464 106.831 20.7139 106.555 20.7139H105.1V22.8965C105.1 23.1895 105.113 23.3685 105.139 23.4336C105.165 23.4954 105.21 23.5459 105.275 23.585C105.34 23.6208 105.464 23.6387 105.646 23.6387H106.77C107.144 23.6387 107.416 23.6126 107.585 23.5605C107.754 23.5085 107.917 23.4059 108.073 23.2529C108.275 23.0511 108.482 22.7467 108.693 22.3398H108.889L108.317 24H103.215V23.8193H103.449C103.605 23.8193 103.754 23.7819 103.894 23.707C103.998 23.6549 104.068 23.5768 104.104 23.4727C104.143 23.3685 104.162 23.1553 104.162 22.833V18.5312C104.162 18.1113 104.12 17.8525 104.035 17.7549C103.918 17.6247 103.723 17.5596 103.449 17.5596H103.215V17.3789H108.317L108.391 18.8291H108.2C108.132 18.4808 108.055 18.2415 107.971 18.1113C107.889 17.9811 107.767 17.8818 107.604 17.8135C107.474 17.7646 107.245 17.7402 106.916 17.7402H105.1ZM110.739 20.3428C111.263 19.7113 111.763 19.3955 112.238 19.3955C112.482 19.3955 112.692 19.4574 112.868 19.5811C113.044 19.7015 113.184 19.9017 113.288 20.1816C113.36 20.377 113.396 20.6764 113.396 21.0801V22.9893C113.396 23.2725 113.418 23.4645 113.464 23.5654C113.5 23.6468 113.557 23.7103 113.635 23.7559C113.716 23.8014 113.864 23.8242 114.079 23.8242V24H111.867V23.8242H111.96C112.168 23.8242 112.313 23.7933 112.395 23.7314C112.479 23.6663 112.538 23.5719 112.57 23.4482C112.583 23.3994 112.59 23.2464 112.59 22.9893V21.1582C112.59 20.7513 112.536 20.4567 112.429 20.2744C112.325 20.0889 112.147 19.9961 111.896 19.9961C111.509 19.9961 111.123 20.2077 110.739 20.6309V22.9893C110.739 23.292 110.757 23.4792 110.793 23.5508C110.839 23.6452 110.9 23.7152 110.979 23.7607C111.06 23.8031 111.223 23.8242 111.467 23.8242V24H109.255V23.8242H109.353C109.58 23.8242 109.733 23.7673 109.812 23.6533C109.893 23.5361 109.934 23.3148 109.934 22.9893V21.3291C109.934 20.792 109.921 20.4648 109.895 20.3477C109.872 20.2305 109.834 20.1507 109.782 20.1084C109.733 20.0661 109.667 20.0449 109.582 20.0449C109.491 20.0449 109.382 20.0693 109.255 20.1182L109.182 19.9424L110.529 19.3955H110.739V20.3428ZM116.97 23.3555C116.511 23.7103 116.223 23.9154 116.105 23.9707C115.93 24.0521 115.743 24.0928 115.544 24.0928C115.235 24.0928 114.979 23.987 114.777 23.7754C114.579 23.5638 114.479 23.2855 114.479 22.9404C114.479 22.7223 114.528 22.5335 114.626 22.374C114.759 22.1527 114.991 21.9443 115.319 21.749C115.651 21.5537 116.201 21.3161 116.97 21.0361V20.8604C116.97 20.4144 116.898 20.1084 116.755 19.9424C116.615 19.7764 116.41 19.6934 116.14 19.6934C115.935 19.6934 115.772 19.7487 115.651 19.8594C115.528 19.9701 115.466 20.097 115.466 20.2402L115.476 20.5234C115.476 20.6732 115.437 20.7887 115.358 20.8701C115.284 20.9515 115.184 20.9922 115.061 20.9922C114.94 20.9922 114.841 20.9499 114.763 20.8652C114.688 20.7806 114.65 20.665 114.65 20.5186C114.65 20.2386 114.794 19.9814 115.08 19.7471C115.367 19.5127 115.769 19.3955 116.286 19.3955C116.683 19.3955 117.009 19.4622 117.263 19.5957C117.455 19.6966 117.596 19.8545 117.688 20.0693C117.746 20.2093 117.775 20.4958 117.775 20.9287V22.4473C117.775 22.8737 117.784 23.1357 117.8 23.2334C117.816 23.3278 117.842 23.3913 117.878 23.4238C117.917 23.4564 117.961 23.4727 118.01 23.4727C118.062 23.4727 118.107 23.4613 118.146 23.4385C118.215 23.3962 118.347 23.2773 118.542 23.082V23.3555C118.177 23.8438 117.829 24.0879 117.497 24.0879C117.338 24.0879 117.211 24.0326 117.116 23.9219C117.022 23.8112 116.973 23.6224 116.97 23.3555ZM116.97 23.0381V21.334C116.478 21.5293 116.161 21.6676 116.018 21.749C115.76 21.8923 115.576 22.042 115.466 22.1982C115.355 22.3545 115.3 22.5254 115.3 22.7109C115.3 22.9453 115.37 23.1406 115.51 23.2969C115.65 23.4499 115.811 23.5264 115.993 23.5264C116.241 23.5264 116.566 23.3636 116.97 23.0381ZM120.104 20.2988C120.537 19.6966 121.005 19.3955 121.506 19.3955C121.965 19.3955 122.365 19.5924 122.707 19.9863C123.049 20.377 123.22 20.9124 123.22 21.5928C123.22 22.387 122.956 23.0267 122.429 23.5117C121.976 23.9284 121.472 24.1367 120.915 24.1367C120.655 24.1367 120.389 24.0895 120.119 23.9951C119.852 23.9007 119.579 23.7591 119.299 23.5703V18.9365C119.299 18.4287 119.286 18.1162 119.26 17.999C119.237 17.8818 119.2 17.8021 119.147 17.7598C119.095 17.7174 119.03 17.6963 118.952 17.6963C118.861 17.6963 118.747 17.7223 118.61 17.7744L118.542 17.6035L119.885 17.0566H120.104V20.2988ZM120.104 20.6113V23.2871C120.271 23.4499 120.441 23.5736 120.617 23.6582C120.796 23.7396 120.979 23.7803 121.164 23.7803C121.46 23.7803 121.735 23.6175 121.989 23.292C122.246 22.9665 122.375 22.4928 122.375 21.8711C122.375 21.2982 122.246 20.8587 121.989 20.5527C121.735 20.2435 121.446 20.0889 121.12 20.0889C120.948 20.0889 120.775 20.1328 120.603 20.2207C120.472 20.2858 120.306 20.416 120.104 20.6113ZM125.417 17.0566V22.9893C125.417 23.2692 125.437 23.4548 125.476 23.5459C125.518 23.637 125.581 23.707 125.666 23.7559C125.751 23.8014 125.909 23.8242 126.14 23.8242V24H123.947V23.8242C124.152 23.8242 124.292 23.8031 124.367 23.7607C124.442 23.7184 124.501 23.6484 124.543 23.5508C124.585 23.4531 124.606 23.266 124.606 22.9893V18.9268C124.606 18.4222 124.595 18.113 124.572 17.999C124.549 17.8818 124.512 17.8021 124.46 17.7598C124.411 17.7174 124.348 17.6963 124.27 17.6963C124.185 17.6963 124.077 17.7223 123.947 17.7744L123.864 17.6035L125.197 17.0566H125.417ZM127.414 21.2119C127.411 21.876 127.572 22.3968 127.897 22.7744C128.223 23.152 128.605 23.3408 129.045 23.3408C129.338 23.3408 129.592 23.2611 129.807 23.1016C130.025 22.9388 130.207 22.6621 130.354 22.2715L130.505 22.3691C130.437 22.8151 130.238 23.222 129.909 23.5898C129.58 23.9544 129.169 24.1367 128.674 24.1367C128.137 24.1367 127.676 23.9284 127.292 23.5117C126.911 23.0918 126.721 22.5286 126.721 21.8223C126.721 21.0573 126.916 20.4616 127.307 20.0352C127.701 19.6055 128.194 19.3906 128.786 19.3906C129.287 19.3906 129.699 19.5566 130.021 19.8887C130.344 20.2174 130.505 20.6585 130.505 21.2119H127.414ZM127.414 20.9287H129.484C129.468 20.6423 129.434 20.4404 129.382 20.3232C129.3 20.141 129.178 19.9977 129.016 19.8936C128.856 19.7894 128.688 19.7373 128.513 19.7373C128.243 19.7373 128 19.8431 127.785 20.0547C127.574 20.263 127.45 20.5544 127.414 20.9287Z" fill="black"/>
<circle cx="134" cy="131" r="3" fill="white" stroke="black" stroke-width="2"/>
</svg>
