<svg width="200" height="200" viewBox="0 0 200 200" fill="none" xmlns="http://www.w3.org/2000/svg">
<g clip-path="url(#clip0_2_505)">
<rect width="200" height="200" fill="white"/>
<line y1="66" x2="67" y2="66" stroke="black" stroke-width="2"/>
<line x1="67" y1="200.01" x2="67" y2="152" stroke="black" stroke-width="2"/>
<line x1="100" y1="200" x2="100" y2="150" stroke="black" stroke-width="2"/>
<line y1="107" x2="67" y2="107" stroke="black" stroke-width="2"/>
<line x1="130" y1="66" x2="200" y2="66" stroke="black" stroke-width="2"/>
<line x1="130" y1="131" x2="200" y2="131" stroke="black" stroke-width="2"/>
<rect x="54.5" y="51.5" width="92" height="97" fill="white" stroke="black" stroke-width="3"/>
<path d="M60.2051 69V68.7832H60.5039C60.8398 68.7832 61.0781 68.6758 61.2188 68.4609C61.3047 68.332 61.3477 68.043 61.3477 67.5938V62.4609C61.3477 61.9648 61.293 61.6543 61.1836 61.5293C61.0312 61.3574 60.8047 61.2715 60.5039 61.2715H60.2051V61.0547H63.4395C64.627 61.0547 65.5293 61.1895 66.1465 61.459C66.7676 61.7285 67.2656 62.1777 67.6406 62.8066C68.0195 63.4355 68.209 64.1621 68.209 64.9863C68.209 66.0918 67.873 67.0156 67.2012 67.7578C66.4473 68.5859 65.2988 69 63.7559 69H60.2051ZM62.4727 68.4258C62.9688 68.5352 63.3848 68.5898 63.7207 68.5898C64.627 68.5898 65.3789 68.2715 65.9766 67.6348C66.5742 66.998 66.873 66.1348 66.873 65.0449C66.873 63.9473 66.5742 63.082 65.9766 62.4492C65.3789 61.8164 64.6113 61.5 63.6738 61.5C63.3223 61.5 62.9219 61.5566 62.4727 61.6699V68.4258Z" fill="black"/>
<path d="M82.2246 103.873L82.4062 106.574H82.2246C81.9824 105.766 81.6367 105.184 81.1875 104.828C80.7383 104.473 80.1992 104.295 79.5703 104.295C79.043 104.295 78.5664 104.43 78.1406 104.699C77.7148 104.965 77.3789 105.391 77.1328 105.977C76.8906 106.562 76.7695 107.291 76.7695 108.162C76.7695 108.881 76.8848 109.504 77.1152 110.031C77.3457 110.559 77.6914 110.963 78.1523 111.244C78.6172 111.525 79.1465 111.666 79.7402 111.666C80.2559 111.666 80.7109 111.557 81.1055 111.338C81.5 111.115 81.9336 110.676 82.4062 110.02L82.5879 110.137C82.1895 110.844 81.7246 111.361 81.1934 111.689C80.6621 112.018 80.0312 112.182 79.3008 112.182C77.9844 112.182 76.9648 111.693 76.2422 110.717C75.7031 109.99 75.4336 109.135 75.4336 108.15C75.4336 107.357 75.6113 106.629 75.9668 105.965C76.3223 105.301 76.8105 104.787 77.4316 104.424C78.0566 104.057 78.7383 103.873 79.4766 103.873C80.0508 103.873 80.6172 104.014 81.1758 104.295C81.3398 104.381 81.457 104.424 81.5273 104.424C81.6328 104.424 81.7246 104.387 81.8027 104.312C81.9043 104.207 81.9766 104.061 82.0195 103.873H82.2246ZM89.8828 109.803L90.0762 109.844L89.3965 112H83.2441V111.783H83.543C83.8789 111.783 84.1191 111.674 84.2637 111.455C84.3457 111.33 84.3867 111.041 84.3867 110.588V105.461C84.3867 104.965 84.332 104.654 84.2227 104.529C84.0703 104.357 83.8438 104.271 83.543 104.271H83.2441V104.055H86.8418V104.271C86.4199 104.268 86.123 104.307 85.9512 104.389C85.7832 104.471 85.668 104.574 85.6055 104.699C85.543 104.824 85.5117 105.123 85.5117 105.596V110.588C85.5117 110.912 85.543 111.135 85.6055 111.256C85.6523 111.338 85.7246 111.398 85.8223 111.438C85.9199 111.477 86.2246 111.496 86.7363 111.496H87.3164C87.9258 111.496 88.3535 111.451 88.5996 111.361C88.8457 111.271 89.0703 111.113 89.2734 110.887C89.4766 110.656 89.6797 110.295 89.8828 109.803ZM93.9258 107.594L96.8555 110.506C97.3359 110.986 97.7461 111.314 98.0859 111.49C98.4258 111.662 98.7656 111.76 99.1055 111.783V112H95.3262V111.783C95.5527 111.783 95.7148 111.746 95.8125 111.672C95.9141 111.594 95.9648 111.508 95.9648 111.414C95.9648 111.32 95.9453 111.236 95.9062 111.162C95.8711 111.088 95.75 110.949 95.543 110.746L92.8008 108.033V110.594C92.8008 110.996 92.8262 111.262 92.877 111.391C92.916 111.488 92.998 111.572 93.123 111.643C93.291 111.736 93.4688 111.783 93.6562 111.783H93.9258V112H90.5391V111.783H90.8203C91.1484 111.783 91.3867 111.688 91.5352 111.496C91.6289 111.371 91.6758 111.07 91.6758 110.594V105.461C91.6758 105.059 91.6504 104.791 91.5996 104.658C91.5605 104.564 91.4805 104.482 91.3594 104.412C91.1875 104.318 91.0078 104.271 90.8203 104.271H90.5391V104.055H93.9258V104.271H93.6562C93.4727 104.271 93.2949 104.316 93.123 104.406C93.002 104.469 92.918 104.562 92.8711 104.688C92.8242 104.812 92.8008 105.07 92.8008 105.461V107.893C92.8789 107.818 93.1465 107.57 93.6035 107.148C94.7637 106.086 95.4648 105.377 95.707 105.021C95.8125 104.865 95.8652 104.729 95.8652 104.611C95.8652 104.521 95.8242 104.443 95.7422 104.377C95.6602 104.307 95.5215 104.271 95.3262 104.271H95.1445V104.055H98.0625V104.271C97.8906 104.275 97.7344 104.299 97.5938 104.342C97.4531 104.385 97.2812 104.469 97.0781 104.594C96.875 104.715 96.625 104.912 96.3281 105.186C96.2422 105.264 95.8457 105.664 95.1387 106.387L93.9258 107.594Z" fill="black"/>
<path d="M68.1094 142H65.9883L63.2988 138.285C63.0996 138.293 62.9375 138.297 62.8125 138.297C62.7617 138.297 62.707 138.297 62.6484 138.297C62.5898 138.293 62.5293 138.289 62.4668 138.285V140.594C62.4668 141.094 62.5215 141.404 62.6309 141.525C62.7793 141.697 63.002 141.783 63.2988 141.783H63.6094V142H60.2051V141.783H60.5039C60.8398 141.783 61.0801 141.674 61.2246 141.455C61.3066 141.334 61.3477 141.047 61.3477 140.594V135.461C61.3477 134.961 61.293 134.65 61.1836 134.529C61.0312 134.357 60.8047 134.271 60.5039 134.271H60.2051V134.055H63.0996C63.9434 134.055 64.5645 134.117 64.9629 134.242C65.3652 134.363 65.7051 134.59 65.9824 134.922C66.2637 135.25 66.4043 135.643 66.4043 136.1C66.4043 136.588 66.2441 137.012 65.9238 137.371C65.6074 137.73 65.1152 137.984 64.4473 138.133L66.0879 140.412C66.4629 140.936 66.7852 141.283 67.0547 141.455C67.3242 141.627 67.6758 141.736 68.1094 141.783V142ZM62.4668 137.916C62.541 137.916 62.6055 137.918 62.6602 137.922C62.7148 137.922 62.7598 137.922 62.7949 137.922C63.5527 137.922 64.123 137.758 64.5059 137.43C64.8926 137.102 65.0859 136.684 65.0859 136.176C65.0859 135.68 64.9297 135.277 64.6172 134.969C64.3086 134.656 63.8984 134.5 63.3867 134.5C63.1602 134.5 62.8535 134.537 62.4668 134.611V137.916ZM73.5059 133.873V136.621H73.2891C73.2188 136.094 73.0918 135.674 72.9082 135.361C72.7285 135.049 72.4707 134.801 72.1348 134.617C71.7988 134.434 71.4512 134.342 71.0918 134.342C70.6855 134.342 70.3496 134.467 70.084 134.717C69.8184 134.963 69.6855 135.244 69.6855 135.561C69.6855 135.803 69.7695 136.023 69.9375 136.223C70.1797 136.516 70.7559 136.906 71.666 137.395C72.4082 137.793 72.9141 138.1 73.1836 138.314C73.457 138.525 73.666 138.775 73.8105 139.064C73.959 139.354 74.0332 139.656 74.0332 139.973C74.0332 140.574 73.7988 141.094 73.3301 141.531C72.8652 141.965 72.2656 142.182 71.5312 142.182C71.3008 142.182 71.084 142.164 70.8809 142.129C70.7598 142.109 70.5078 142.039 70.125 141.918C69.7461 141.793 69.5059 141.73 69.4043 141.73C69.3066 141.73 69.2285 141.76 69.1699 141.818C69.1152 141.877 69.0742 141.998 69.0469 142.182H68.8301V139.457H69.0469C69.1484 140.027 69.2852 140.455 69.457 140.74C69.6289 141.021 69.8906 141.256 70.2422 141.443C70.5977 141.631 70.9863 141.725 71.4082 141.725C71.8965 141.725 72.2812 141.596 72.5625 141.338C72.8477 141.08 72.9902 140.775 72.9902 140.424C72.9902 140.229 72.9355 140.031 72.8262 139.832C72.7207 139.633 72.5547 139.447 72.3281 139.275C72.1758 139.158 71.7598 138.91 71.0801 138.531C70.4004 138.148 69.916 137.844 69.627 137.617C69.3418 137.391 69.125 137.141 68.9766 136.867C68.8281 136.594 68.7539 136.293 68.7539 135.965C68.7539 135.395 68.9727 134.904 69.4102 134.494C69.8477 134.08 70.4043 133.873 71.0801 133.873C71.502 133.873 71.9492 133.977 72.4219 134.184C72.6406 134.281 72.7949 134.33 72.8848 134.33C72.9863 134.33 73.0684 134.301 73.1309 134.242C73.1973 134.18 73.25 134.057 73.2891 133.873H73.5059ZM81.627 134.055L81.7148 135.918H81.4922C81.4492 135.59 81.3906 135.355 81.3164 135.215C81.1953 134.988 81.0332 134.822 80.8301 134.717C80.6309 134.607 80.3672 134.553 80.0391 134.553H78.9199V140.623C78.9199 141.111 78.9727 141.416 79.0781 141.537C79.2266 141.701 79.4551 141.783 79.7637 141.783H80.0391V142H76.6699V141.783H76.9512C77.2871 141.783 77.5254 141.682 77.666 141.479C77.752 141.354 77.7949 141.068 77.7949 140.623V134.553H76.8398C76.4688 134.553 76.2051 134.58 76.0488 134.635C75.8457 134.709 75.6719 134.852 75.5273 135.062C75.3828 135.273 75.2969 135.559 75.2695 135.918H75.0469L75.1406 134.055H81.627Z" fill="black"/>
<path d="M97.502 133.873V136.621H97.2852C97.2148 136.094 97.0879 135.674 96.9043 135.361C96.7246 135.049 96.4668 134.801 96.1309 134.617C95.7949 134.434 95.4473 134.342 95.0879 134.342C94.6816 134.342 94.3457 134.467 94.0801 134.717C93.8145 134.963 93.6816 135.244 93.6816 135.561C93.6816 135.803 93.7656 136.023 93.9336 136.223C94.1758 136.516 94.752 136.906 95.6621 137.395C96.4043 137.793 96.9102 138.1 97.1797 138.314C97.4531 138.525 97.6621 138.775 97.8066 139.064C97.9551 139.354 98.0293 139.656 98.0293 139.973C98.0293 140.574 97.7949 141.094 97.3262 141.531C96.8613 141.965 96.2617 142.182 95.5273 142.182C95.2969 142.182 95.0801 142.164 94.877 142.129C94.7559 142.109 94.5039 142.039 94.1211 141.918C93.7422 141.793 93.502 141.73 93.4004 141.73C93.3027 141.73 93.2246 141.76 93.166 141.818C93.1113 141.877 93.0703 141.998 93.043 142.182H92.8262V139.457H93.043C93.1445 140.027 93.2812 140.455 93.4531 140.74C93.625 141.021 93.8867 141.256 94.2383 141.443C94.5938 141.631 94.9824 141.725 95.4043 141.725C95.8926 141.725 96.2773 141.596 96.5586 141.338C96.8438 141.08 96.9863 140.775 96.9863 140.424C96.9863 140.229 96.9316 140.031 96.8223 139.832C96.7168 139.633 96.5508 139.447 96.3242 139.275C96.1719 139.158 95.7559 138.91 95.0762 138.531C94.3965 138.148 93.9121 137.844 93.623 137.617C93.3379 137.391 93.1211 137.141 92.9727 136.867C92.8242 136.594 92.75 136.293 92.75 135.965C92.75 135.395 92.9688 134.904 93.4062 134.494C93.8438 134.08 94.4004 133.873 95.0762 133.873C95.498 133.873 95.9453 133.977 96.418 134.184C96.6367 134.281 96.791 134.33 96.8809 134.33C96.9824 134.33 97.0645 134.301 97.127 134.242C97.1934 134.18 97.2461 134.057 97.2852 133.873H97.502ZM101.188 134.488V137.629H102.934C103.387 137.629 103.689 137.561 103.842 137.424C104.045 137.244 104.158 136.928 104.182 136.475H104.398V139.24H104.182C104.127 138.854 104.072 138.605 104.018 138.496C103.947 138.359 103.832 138.252 103.672 138.174C103.512 138.096 103.266 138.057 102.934 138.057H101.188V140.676C101.188 141.027 101.203 141.242 101.234 141.32C101.266 141.395 101.32 141.455 101.398 141.502C101.477 141.545 101.625 141.566 101.844 141.566H103.191C103.641 141.566 103.967 141.535 104.17 141.473C104.373 141.41 104.568 141.287 104.756 141.104C104.998 140.861 105.246 140.496 105.5 140.008H105.734L105.049 142H98.9258V141.783H99.207C99.3945 141.783 99.5723 141.738 99.7402 141.648C99.8652 141.586 99.9492 141.492 99.9922 141.367C100.039 141.242 100.062 140.986 100.062 140.6V135.438C100.062 134.934 100.012 134.623 99.9102 134.506C99.7695 134.35 99.5352 134.271 99.207 134.271H98.9258V134.055H105.049L105.137 135.795H104.908C104.826 135.377 104.734 135.09 104.633 134.934C104.535 134.777 104.389 134.658 104.193 134.576C104.037 134.518 103.762 134.488 103.367 134.488H101.188ZM112.959 134.055L113.047 135.918H112.824C112.781 135.59 112.723 135.355 112.648 135.215C112.527 134.988 112.365 134.822 112.162 134.717C111.963 134.607 111.699 134.553 111.371 134.553H110.252V140.623C110.252 141.111 110.305 141.416 110.41 141.537C110.559 141.701 110.787 141.783 111.096 141.783H111.371V142H108.002V141.783H108.283C108.619 141.783 108.857 141.682 108.998 141.479C109.084 141.354 109.127 141.068 109.127 140.623V134.553H108.172C107.801 134.553 107.537 134.58 107.381 134.635C107.178 134.709 107.004 134.852 106.859 135.062C106.715 135.273 106.629 135.559 106.602 135.918H106.379L106.473 134.055H112.959Z" fill="black"/>
<path d="M139.285 69.0879C139.684 69.7754 140.113 70.2812 140.574 70.6055C141.039 70.9297 141.566 71.1152 142.156 71.1621V71.3496C141.617 71.3301 141.041 71.2207 140.428 71.0215C139.814 70.8262 139.232 70.5527 138.682 70.2012C138.135 69.8535 137.662 69.4824 137.264 69.0879C136.701 68.8613 136.256 68.6211 135.928 68.3672C135.451 67.9883 135.08 67.5234 134.814 66.9727C134.553 66.418 134.422 65.7637 134.422 65.0098C134.422 63.8223 134.807 62.8359 135.576 62.0508C136.346 61.2656 137.277 60.873 138.371 60.873C139.41 60.873 140.309 61.2676 141.066 62.0566C141.828 62.8418 142.209 63.834 142.209 65.0332C142.209 66.0059 141.938 66.8594 141.395 67.5938C140.855 68.3281 140.152 68.8262 139.285 69.0879ZM138.301 61.3242C137.59 61.3242 137.018 61.5781 136.584 62.0859C136.037 62.7227 135.764 63.6973 135.764 65.0098C135.764 66.2949 136.041 67.2852 136.596 67.9805C137.025 68.5156 137.594 68.7832 138.301 68.7832C139.035 68.7832 139.627 68.5156 140.076 67.9805C140.604 67.3477 140.867 66.4141 140.867 65.1797C140.867 64.2305 140.723 63.4316 140.434 62.7832C140.211 62.2832 139.914 61.916 139.543 61.6816C139.176 61.4434 138.762 61.3242 138.301 61.3242Z" fill="black"/>
<path d="M136.285 135.088C136.684 135.775 137.113 136.281 137.574 136.605C138.039 136.93 138.566 137.115 139.156 137.162V137.35C138.617 137.33 138.041 137.221 137.428 137.021C136.814 136.826 136.232 136.553 135.682 136.201C135.135 135.854 134.662 135.482 134.264 135.088C133.701 134.861 133.256 134.621 132.928 134.367C132.451 133.988 132.08 133.523 131.814 132.973C131.553 132.418 131.422 131.764 131.422 131.01C131.422 129.822 131.807 128.836 132.576 128.051C133.346 127.266 134.277 126.873 135.371 126.873C136.41 126.873 137.309 127.268 138.066 128.057C138.828 128.842 139.209 129.834 139.209 131.033C139.209 132.006 138.938 132.859 138.395 133.594C137.855 134.328 137.152 134.826 136.285 135.088ZM135.301 127.324C134.59 127.324 134.018 127.578 133.584 128.086C133.037 128.723 132.764 129.697 132.764 131.01C132.764 132.295 133.041 133.285 133.596 133.98C134.025 134.516 134.594 134.783 135.301 134.783C136.035 134.783 136.627 134.516 137.076 133.98C137.604 133.348 137.867 132.414 137.867 131.18C137.867 130.23 137.723 129.432 137.434 128.783C137.211 128.283 136.914 127.916 136.543 127.682C136.176 127.443 135.762 127.324 135.301 127.324ZM141.066 129.908V129.633C141.469 129.395 141.742 129.172 141.887 128.965C141.988 128.816 142.039 128.639 142.039 128.432C142.039 128.311 142.018 128.221 141.975 128.162C141.928 128.104 141.877 128.074 141.822 128.074C141.779 128.074 141.723 128.088 141.652 128.115C141.551 128.15 141.467 128.168 141.4 128.168C141.244 128.168 141.105 128.109 140.984 127.992C140.863 127.875 140.803 127.729 140.803 127.553C140.803 127.357 140.863 127.205 140.984 127.096C141.148 126.947 141.344 126.873 141.57 126.873C141.832 126.873 142.066 126.984 142.273 127.207C142.484 127.426 142.59 127.699 142.59 128.027C142.59 128.488 142.416 128.908 142.068 129.287C141.838 129.537 141.504 129.744 141.066 129.908Z" fill="black"/>
<path d="M38.1709 24V23.8193H38.4199C38.6999 23.8193 38.8984 23.7298 39.0156 23.5508C39.0872 23.4434 39.123 23.2025 39.123 22.8281V18.5508C39.123 18.1374 39.0775 17.8786 38.9863 17.7744C38.8594 17.6312 38.6706 17.5596 38.4199 17.5596H38.1709V17.3789H40.8662C41.8558 17.3789 42.6077 17.4912 43.1221 17.7158C43.6396 17.9404 44.0547 18.3148 44.3672 18.8389C44.6829 19.363 44.8408 19.9684 44.8408 20.6553C44.8408 21.5765 44.5609 22.3464 44.001 22.9648C43.3727 23.6549 42.4157 24 41.1299 24H38.1709ZM40.0605 23.5215C40.474 23.6126 40.8206 23.6582 41.1006 23.6582C41.8558 23.6582 42.4824 23.3929 42.9805 22.8623C43.4785 22.3317 43.7275 21.6123 43.7275 20.7041C43.7275 19.7894 43.4785 19.0684 42.9805 18.541C42.4824 18.0137 41.8428 17.75 41.0615 17.75C40.7686 17.75 40.4349 17.7972 40.0605 17.8916V23.5215ZM55.0329 17.7402V20.3428H56.2389C56.5156 20.3428 56.7174 20.2826 56.8444 20.1621C56.9746 20.0384 57.0609 19.7959 57.1032 19.4346H57.2839V21.6758H57.1032C57.0999 21.4186 57.0658 21.2298 57.0007 21.1094C56.9388 20.9889 56.8509 20.8994 56.737 20.8408C56.6263 20.779 56.4603 20.748 56.2389 20.748H55.0329V22.8281C55.0329 23.1634 55.054 23.3848 55.0964 23.4922C55.1289 23.5736 55.1973 23.6436 55.3014 23.7021C55.4447 23.7803 55.5944 23.8193 55.7507 23.8193H55.9899V24H53.1481V23.8193H53.3825C53.6559 23.8193 53.8545 23.7396 53.9782 23.5801C54.0563 23.4759 54.0954 23.2253 54.0954 22.8281V18.5508C54.0954 18.2155 54.0742 17.9941 54.0319 17.8867C53.9993 17.8053 53.9326 17.7354 53.8317 17.6768C53.6917 17.5986 53.542 17.5596 53.3825 17.5596H53.1481V17.3789H58.0749L58.1383 18.834H57.9674C57.8828 18.5247 57.7835 18.2985 57.6696 18.1553C57.5589 18.0088 57.4206 17.903 57.2546 17.8379C57.0918 17.7728 56.8379 17.7402 56.4928 17.7402H55.0329ZM60.404 17.0566V22.9893C60.404 23.2692 60.4235 23.4548 60.4626 23.5459C60.5049 23.637 60.5684 23.707 60.653 23.7559C60.7376 23.8014 60.8955 23.8242 61.1266 23.8242V24H58.9342V23.8242C59.1393 23.8242 59.2793 23.8031 59.3542 23.7607C59.429 23.7184 59.4876 23.6484 59.5299 23.5508C59.5723 23.4531 59.5934 23.266 59.5934 22.9893V18.9268C59.5934 18.4222 59.582 18.113 59.5592 17.999C59.5365 17.8818 59.499 17.8021 59.4469 17.7598C59.3981 17.7174 59.3346 17.6963 59.2565 17.6963C59.1719 17.6963 59.0645 17.7223 58.9342 17.7744L58.8512 17.6035L60.1842 17.0566H60.404ZM62.7868 17.0566C62.9235 17.0566 63.0391 17.1055 63.1335 17.2031C63.2311 17.2975 63.2799 17.4131 63.2799 17.5498C63.2799 17.6865 63.2311 17.8037 63.1335 17.9014C63.0391 17.999 62.9235 18.0479 62.7868 18.0479C62.6501 18.0479 62.5329 17.999 62.4352 17.9014C62.3376 17.8037 62.2887 17.6865 62.2887 17.5498C62.2887 17.4131 62.3359 17.2975 62.4303 17.2031C62.528 17.1055 62.6468 17.0566 62.7868 17.0566ZM63.1921 19.3955V22.9893C63.1921 23.2692 63.2116 23.4564 63.2507 23.5508C63.293 23.6419 63.3532 23.7103 63.4313 23.7559C63.5127 23.8014 63.6592 23.8242 63.8708 23.8242V24H61.6979V23.8242C61.916 23.8242 62.0625 23.8031 62.1374 23.7607C62.2122 23.7184 62.2708 23.6484 62.3132 23.5508C62.3587 23.4531 62.3815 23.266 62.3815 22.9893V21.2656C62.3815 20.7806 62.3669 20.4665 62.3376 20.3232C62.3148 20.2191 62.279 20.1475 62.2301 20.1084C62.1813 20.0661 62.1146 20.0449 62.0299 20.0449C61.9388 20.0449 61.8281 20.0693 61.6979 20.1182L61.6296 19.9424L62.9772 19.3955H63.1921ZM64.11 19.9717L65.487 19.415H65.6725V20.46C65.9036 20.0661 66.1348 19.791 66.3659 19.6348C66.6003 19.4753 66.846 19.3955 67.1032 19.3955C67.5524 19.3955 67.9268 19.5713 68.2262 19.9229C68.5941 20.3525 68.778 20.9124 68.778 21.6025C68.778 22.374 68.5566 23.012 68.1139 23.5166C67.7493 23.93 67.2904 24.1367 66.737 24.1367C66.4961 24.1367 66.2878 24.1025 66.112 24.0342C65.9818 23.9854 65.8353 23.8877 65.6725 23.7412V25.1035C65.6725 25.4095 65.6904 25.6032 65.7262 25.6846C65.7653 25.7692 65.8304 25.8359 65.9215 25.8848C66.0159 25.9336 66.1852 25.958 66.4294 25.958V26.1387H64.0856V25.958H64.2077C64.3867 25.9613 64.5397 25.9271 64.6667 25.8555C64.7285 25.8197 64.7757 25.7611 64.8083 25.6797C64.8441 25.6016 64.862 25.3997 64.862 25.0742V20.8457C64.862 20.556 64.849 20.3721 64.8229 20.2939C64.7969 20.2158 64.7546 20.1572 64.696 20.1182C64.6406 20.0791 64.5641 20.0596 64.4665 20.0596C64.3883 20.0596 64.2891 20.0824 64.1686 20.1279L64.11 19.9717ZM65.6725 20.748V22.418C65.6725 22.7793 65.6872 23.0169 65.7165 23.1309C65.762 23.3197 65.8727 23.4857 66.0485 23.6289C66.2275 23.7721 66.4521 23.8438 66.7223 23.8438C67.0479 23.8438 67.3115 23.7168 67.5133 23.4629C67.777 23.1309 67.9089 22.6637 67.9089 22.0615C67.9089 21.3779 67.7591 20.8522 67.4596 20.4844C67.2513 20.2305 67.0039 20.1035 66.7174 20.1035C66.5612 20.1035 66.4066 20.1426 66.2536 20.2207C66.1364 20.2793 65.9427 20.4551 65.6725 20.748ZM69.5251 21.3877H72.0495V22.125H69.5251V21.3877ZM74.4958 17.7402V20.3428H75.7018C75.9785 20.3428 76.1803 20.2826 76.3073 20.1621C76.4375 20.0384 76.5238 19.7959 76.5661 19.4346H76.7467V21.6758H76.5661C76.5628 21.4186 76.5286 21.2298 76.4635 21.1094C76.4017 20.9889 76.3138 20.8994 76.1999 20.8408C76.0892 20.779 75.9232 20.748 75.7018 20.748H74.4958V22.8281C74.4958 23.1634 74.5169 23.3848 74.5592 23.4922C74.5918 23.5736 74.6602 23.6436 74.7643 23.7021C74.9076 23.7803 75.0573 23.8193 75.2135 23.8193H75.4528V24H72.611V23.8193H72.8454C73.1188 23.8193 73.3174 23.7396 73.4411 23.5801C73.5192 23.4759 73.5583 23.2253 73.5583 22.8281V18.5508C73.5583 18.2155 73.5371 17.9941 73.4948 17.8867C73.4622 17.8053 73.3955 17.7354 73.2946 17.6768C73.1546 17.5986 73.0049 17.5596 72.8454 17.5596H72.611V17.3789H77.5378L77.6012 18.834H77.4303C77.3457 18.5247 77.2464 18.2985 77.1325 18.1553C77.0218 18.0088 76.8835 17.903 76.7174 17.8379C76.5547 17.7728 76.3008 17.7402 75.9557 17.7402H74.4958ZM79.8669 17.0566V22.9893C79.8669 23.2692 79.8864 23.4548 79.9255 23.5459C79.9678 23.637 80.0313 23.707 80.1159 23.7559C80.2005 23.8014 80.3584 23.8242 80.5895 23.8242V24H78.3971V23.8242C78.6022 23.8242 78.7422 23.8031 78.8171 23.7607C78.8919 23.7184 78.9505 23.6484 78.9928 23.5508C79.0352 23.4531 79.0563 23.266 79.0563 22.9893V18.9268C79.0563 18.4222 79.0449 18.113 79.0221 17.999C78.9994 17.8818 78.9619 17.8021 78.9098 17.7598C78.861 17.7174 78.7975 17.6963 78.7194 17.6963C78.6348 17.6963 78.5273 17.7223 78.3971 17.7744L78.3141 17.6035L79.6471 17.0566H79.8669ZM83.2995 19.3955C83.9766 19.3955 84.5202 19.6527 84.9303 20.167C85.2786 20.6064 85.4528 21.111 85.4528 21.6807C85.4528 22.0811 85.3568 22.4863 85.1647 22.8965C84.9727 23.3066 84.7074 23.6159 84.3688 23.8242C84.0335 24.0326 83.6592 24.1367 83.2458 24.1367C82.5719 24.1367 82.0365 23.8682 81.6393 23.3311C81.304 22.8786 81.1364 22.3708 81.1364 21.8076C81.1364 21.3975 81.2373 20.9906 81.4391 20.5869C81.6442 20.18 81.9128 19.8805 82.2448 19.6885C82.5768 19.4932 82.9284 19.3955 83.2995 19.3955ZM83.1481 19.7129C82.9756 19.7129 82.8014 19.765 82.6257 19.8691C82.4531 19.9701 82.3132 20.1491 82.2057 20.4062C82.0983 20.6634 82.0446 20.9938 82.0446 21.3975C82.0446 22.0485 82.1732 22.61 82.4303 23.082C82.6908 23.554 83.0326 23.79 83.4557 23.79C83.7715 23.79 84.0319 23.6598 84.237 23.3994C84.4421 23.139 84.5446 22.6914 84.5446 22.0566C84.5446 21.2624 84.3737 20.6374 84.0319 20.1816C83.8008 19.8691 83.5062 19.7129 83.1481 19.7129ZM85.7897 19.9717L87.1667 19.415H87.3522V20.46C87.5833 20.0661 87.8145 19.791 88.0456 19.6348C88.2799 19.4753 88.5257 19.3955 88.7829 19.3955C89.2321 19.3955 89.6064 19.5713 89.9059 19.9229C90.2738 20.3525 90.4577 20.9124 90.4577 21.6025C90.4577 22.374 90.2363 23.012 89.7936 23.5166C89.429 23.93 88.9701 24.1367 88.4167 24.1367C88.1758 24.1367 87.9674 24.1025 87.7917 24.0342C87.6615 23.9854 87.515 23.8877 87.3522 23.7412V25.1035C87.3522 25.4095 87.3701 25.6032 87.4059 25.6846C87.445 25.7692 87.5101 25.8359 87.6012 25.8848C87.6956 25.9336 87.8649 25.958 88.1091 25.958V26.1387H85.7653V25.958H85.8874C86.0664 25.9613 86.2194 25.9271 86.3464 25.8555C86.4082 25.8197 86.4554 25.7611 86.488 25.6797C86.5238 25.6016 86.5417 25.3997 86.5417 25.0742V20.8457C86.5417 20.556 86.5286 20.3721 86.5026 20.2939C86.4766 20.2158 86.4342 20.1572 86.3757 20.1182C86.3203 20.0791 86.2438 20.0596 86.1462 20.0596C86.068 20.0596 85.9688 20.0824 85.8483 20.1279L85.7897 19.9717ZM87.3522 20.748V22.418C87.3522 22.7793 87.3669 23.0169 87.3962 23.1309C87.4417 23.3197 87.5524 23.4857 87.7282 23.6289C87.9072 23.7721 88.1318 23.8438 88.402 23.8438C88.7275 23.8438 88.9912 23.7168 89.193 23.4629C89.4567 23.1309 89.5885 22.6637 89.5885 22.0615C89.5885 21.3779 89.4388 20.8522 89.1393 20.4844C88.931 20.2305 88.6836 20.1035 88.3971 20.1035C88.2409 20.1035 88.0863 20.1426 87.9333 20.2207C87.8161 20.2793 87.6224 20.4551 87.3522 20.748ZM98.4281 17.3789H100.225L104.273 22.3447V18.5264C104.273 18.1195 104.227 17.8656 104.136 17.7646C104.016 17.6279 103.825 17.5596 103.565 17.5596H103.335V17.3789H105.64V17.5596H105.406C105.126 17.5596 104.927 17.6442 104.81 17.8135C104.738 17.9176 104.702 18.1553 104.702 18.5264V24.1074H104.527L100.161 18.7754V22.8525C100.161 23.2594 100.205 23.5133 100.293 23.6143C100.417 23.751 100.607 23.8193 100.865 23.8193H101.099V24H98.7943V23.8193H99.0238C99.307 23.8193 99.5072 23.7347 99.6243 23.5654C99.696 23.4613 99.7318 23.2236 99.7318 22.8525V18.248C99.5397 18.0234 99.3932 17.8753 99.2923 17.8037C99.1947 17.7321 99.0498 17.6654 98.8577 17.6035C98.7633 17.5742 98.6201 17.5596 98.4281 17.5596V17.3789ZM106.851 21.2119C106.848 21.876 107.009 22.3968 107.334 22.7744C107.66 23.152 108.042 23.3408 108.482 23.3408C108.775 23.3408 109.029 23.2611 109.243 23.1016C109.462 22.9388 109.644 22.6621 109.79 22.2715L109.942 22.3691C109.873 22.8151 109.675 23.222 109.346 23.5898C109.017 23.9544 108.605 24.1367 108.111 24.1367C107.574 24.1367 107.113 23.9284 106.729 23.5117C106.348 23.0918 106.158 22.5286 106.158 21.8223C106.158 21.0573 106.353 20.4616 106.743 20.0352C107.137 19.6055 107.631 19.3906 108.223 19.3906C108.724 19.3906 109.136 19.5566 109.458 19.8887C109.781 20.2174 109.942 20.6585 109.942 21.2119H106.851ZM106.851 20.9287H108.921C108.905 20.6423 108.871 20.4404 108.819 20.3232C108.737 20.141 108.615 19.9977 108.452 19.8936C108.293 19.7894 108.125 19.7373 107.95 19.7373C107.679 19.7373 107.437 19.8431 107.222 20.0547C107.01 20.263 106.887 20.5544 106.851 20.9287ZM111.739 22.3691C111.465 22.2357 111.255 22.0501 111.109 21.8125C110.962 21.5716 110.889 21.3063 110.889 21.0166C110.889 20.5739 111.055 20.193 111.387 19.874C111.722 19.555 112.15 19.3955 112.671 19.3955C113.098 19.3955 113.467 19.4997 113.78 19.708H114.727C114.867 19.708 114.948 19.7129 114.971 19.7227C114.994 19.7292 115.01 19.7422 115.02 19.7617C115.039 19.791 115.049 19.8431 115.049 19.918C115.049 20.0026 115.041 20.0612 115.025 20.0938C115.015 20.11 114.997 20.123 114.971 20.1328C114.948 20.1426 114.867 20.1475 114.727 20.1475H114.146C114.328 20.3818 114.419 20.6813 114.419 21.0459C114.419 21.4626 114.26 21.819 113.941 22.1152C113.622 22.4115 113.194 22.5596 112.657 22.5596C112.435 22.5596 112.209 22.527 111.978 22.4619C111.835 22.5856 111.737 22.6947 111.685 22.7891C111.636 22.8802 111.612 22.9583 111.612 23.0234C111.612 23.0788 111.638 23.1325 111.69 23.1846C111.745 23.2367 111.851 23.2741 112.007 23.2969C112.098 23.3099 112.326 23.3213 112.691 23.3311C113.361 23.3473 113.796 23.3701 113.994 23.3994C114.297 23.4417 114.538 23.554 114.717 23.7363C114.899 23.9186 114.991 24.1432 114.991 24.4102C114.991 24.778 114.818 25.123 114.473 25.4453C113.965 25.9206 113.303 26.1582 112.486 26.1582C111.857 26.1582 111.327 26.0166 110.894 25.7334C110.65 25.5706 110.528 25.4014 110.528 25.2256C110.528 25.1475 110.546 25.0693 110.581 24.9912C110.637 24.8708 110.751 24.7031 110.923 24.4883C110.946 24.459 111.112 24.2832 111.421 23.9609C111.252 23.86 111.132 23.7705 111.06 23.6924C110.992 23.611 110.957 23.5199 110.957 23.4189C110.957 23.305 111.003 23.1715 111.094 23.0186C111.188 22.8656 111.403 22.6491 111.739 22.3691ZM112.588 19.6299C112.347 19.6299 112.146 19.7259 111.983 19.918C111.82 20.11 111.739 20.4046 111.739 20.8018C111.739 21.3161 111.849 21.7148 112.071 21.998C112.24 22.2129 112.455 22.3203 112.715 22.3203C112.963 22.3203 113.166 22.2275 113.326 22.042C113.485 21.8564 113.565 21.5651 113.565 21.168C113.565 20.6504 113.452 20.2451 113.228 19.9521C113.062 19.7373 112.849 19.6299 112.588 19.6299ZM111.69 24C111.537 24.166 111.421 24.3206 111.343 24.4639C111.265 24.6071 111.226 24.7389 111.226 24.8594C111.226 25.0156 111.32 25.1523 111.509 25.2695C111.835 25.4714 112.305 25.5723 112.92 25.5723C113.506 25.5723 113.938 25.4681 114.214 25.2598C114.494 25.0547 114.634 24.835 114.634 24.6006C114.634 24.4313 114.551 24.3109 114.385 24.2393C114.216 24.1676 113.881 24.1253 113.379 24.1123C112.647 24.0928 112.084 24.0553 111.69 24ZM118.076 23.3555C117.618 23.7103 117.329 23.9154 117.212 23.9707C117.036 24.0521 116.849 24.0928 116.651 24.0928C116.341 24.0928 116.086 23.987 115.884 23.7754C115.686 23.5638 115.586 23.2855 115.586 22.9404C115.586 22.7223 115.635 22.5335 115.733 22.374C115.866 22.1527 116.097 21.9443 116.426 21.749C116.758 21.5537 117.308 21.3161 118.076 21.0361V20.8604C118.076 20.4144 118.005 20.1084 117.862 19.9424C117.722 19.7764 117.517 19.6934 117.246 19.6934C117.041 19.6934 116.879 19.7487 116.758 19.8594C116.634 19.9701 116.573 20.097 116.573 20.2402L116.582 20.5234C116.582 20.6732 116.543 20.7887 116.465 20.8701C116.39 20.9515 116.291 20.9922 116.167 20.9922C116.047 20.9922 115.948 20.9499 115.869 20.8652C115.795 20.7806 115.757 20.665 115.757 20.5186C115.757 20.2386 115.9 19.9814 116.187 19.7471C116.473 19.5127 116.875 19.3955 117.393 19.3955C117.79 19.3955 118.116 19.4622 118.369 19.5957C118.562 19.6966 118.703 19.8545 118.794 20.0693C118.853 20.2093 118.882 20.4958 118.882 20.9287V22.4473C118.882 22.8737 118.89 23.1357 118.907 23.2334C118.923 23.3278 118.949 23.3913 118.985 23.4238C119.024 23.4564 119.068 23.4727 119.117 23.4727C119.169 23.4727 119.214 23.4613 119.253 23.4385C119.322 23.3962 119.453 23.2773 119.649 23.082V23.3555C119.284 23.8438 118.936 24.0879 118.604 24.0879C118.444 24.0879 118.317 24.0326 118.223 23.9219C118.129 23.8112 118.08 23.6224 118.076 23.3555ZM118.076 23.0381V21.334C117.585 21.5293 117.268 21.6676 117.124 21.749C116.867 21.8923 116.683 22.042 116.573 22.1982C116.462 22.3545 116.407 22.5254 116.407 22.7109C116.407 22.9453 116.477 23.1406 116.617 23.2969C116.757 23.4499 116.918 23.5264 117.1 23.5264C117.347 23.5264 117.673 23.3636 118.076 23.0381ZM121.285 18.0576V19.5273H122.329V19.8691H121.285V22.7695C121.285 23.0592 121.325 23.2546 121.407 23.3555C121.491 23.4564 121.599 23.5068 121.729 23.5068C121.836 23.5068 121.94 23.4743 122.041 23.4092C122.142 23.3408 122.22 23.2415 122.276 23.1113H122.466C122.352 23.4303 122.191 23.6712 121.983 23.834C121.774 23.9935 121.56 24.0732 121.338 24.0732C121.188 24.0732 121.042 24.0326 120.899 23.9512C120.756 23.8665 120.65 23.7477 120.581 23.5947C120.513 23.4385 120.479 23.1992 120.479 22.877V19.8691H119.771V19.708C119.95 19.6364 120.132 19.516 120.318 19.3467C120.507 19.1742 120.674 18.9707 120.821 18.7363C120.896 18.6126 121 18.3864 121.133 18.0576H121.285ZM123.907 17.0566C124.043 17.0566 124.159 17.1055 124.253 17.2031C124.351 17.2975 124.4 17.4131 124.4 17.5498C124.4 17.6865 124.351 17.8037 124.253 17.9014C124.159 17.999 124.043 18.0479 123.907 18.0479C123.77 18.0479 123.653 17.999 123.555 17.9014C123.457 17.8037 123.409 17.6865 123.409 17.5498C123.409 17.4131 123.456 17.2975 123.55 17.2031C123.648 17.1055 123.767 17.0566 123.907 17.0566ZM124.312 19.3955V22.9893C124.312 23.2692 124.331 23.4564 124.37 23.5508C124.413 23.6419 124.473 23.7103 124.551 23.7559C124.632 23.8014 124.779 23.8242 124.991 23.8242V24H122.818V23.8242C123.036 23.8242 123.182 23.8031 123.257 23.7607C123.332 23.7184 123.391 23.6484 123.433 23.5508C123.479 23.4531 123.501 23.266 123.501 22.9893V21.2656C123.501 20.7806 123.487 20.4665 123.457 20.3232C123.435 20.2191 123.399 20.1475 123.35 20.1084C123.301 20.0661 123.234 20.0449 123.15 20.0449C123.059 20.0449 122.948 20.0693 122.818 20.1182L122.749 19.9424L124.097 19.3955H124.312ZM125.323 19.5273H127.427V19.708H127.29C127.163 19.708 127.066 19.7389 126.997 19.8008C126.932 19.8626 126.9 19.9456 126.9 20.0498C126.9 20.1637 126.934 20.2988 127.002 20.4551L128.042 22.9258L129.087 20.3623C129.162 20.18 129.2 20.0417 129.2 19.9473C129.2 19.9017 129.187 19.8643 129.16 19.835C129.125 19.7861 129.079 19.7536 129.024 19.7373C128.968 19.7178 128.856 19.708 128.687 19.708V19.5273H130.147V19.708C129.978 19.721 129.86 19.7552 129.795 19.8105C129.681 19.9082 129.579 20.071 129.488 20.2988L127.901 24.1367H127.701L126.104 20.3623C126.032 20.1865 125.964 20.0612 125.899 19.9863C125.834 19.9082 125.751 19.8431 125.65 19.791C125.594 19.7617 125.485 19.734 125.323 19.708V19.5273ZM131.304 21.2119C131.301 21.876 131.462 22.3968 131.787 22.7744C132.113 23.152 132.495 23.3408 132.935 23.3408C133.228 23.3408 133.482 23.2611 133.697 23.1016C133.915 22.9388 134.097 22.6621 134.243 22.2715L134.395 22.3691C134.326 22.8151 134.128 23.222 133.799 23.5898C133.47 23.9544 133.059 24.1367 132.564 24.1367C132.027 24.1367 131.566 23.9284 131.182 23.5117C130.801 23.0918 130.611 22.5286 130.611 21.8223C130.611 21.0573 130.806 20.4616 131.197 20.0352C131.59 19.6055 132.084 19.3906 132.676 19.3906C133.177 19.3906 133.589 19.5566 133.911 19.8887C134.234 20.2174 134.395 20.6585 134.395 21.2119H131.304ZM131.304 20.9287H133.374C133.358 20.6423 133.324 20.4404 133.272 20.3232C133.19 20.141 133.068 19.9977 132.906 19.8936C132.746 19.7894 132.578 19.7373 132.403 19.7373C132.132 19.7373 131.89 19.8431 131.675 20.0547C131.464 20.263 131.34 20.5544 131.304 20.9287ZM144.533 17.7402V20.3574H145.988C146.366 20.3574 146.618 20.3005 146.745 20.1865C146.914 20.0368 147.009 19.7731 147.028 19.3955H147.209V21.7002H147.028C146.983 21.3779 146.937 21.1712 146.892 21.0801C146.833 20.9661 146.737 20.8766 146.604 20.8115C146.47 20.7464 146.265 20.7139 145.988 20.7139H144.533V22.8965C144.533 23.1895 144.546 23.3685 144.572 23.4336C144.598 23.4954 144.644 23.5459 144.709 23.585C144.774 23.6208 144.898 23.6387 145.08 23.6387H146.203C146.577 23.6387 146.849 23.6126 147.019 23.5605C147.188 23.5085 147.351 23.4059 147.507 23.2529C147.709 23.0511 147.915 22.7467 148.127 22.3398H148.322L147.751 24H142.648V23.8193H142.883C143.039 23.8193 143.187 23.7819 143.327 23.707C143.431 23.6549 143.501 23.5768 143.537 23.4727C143.576 23.3685 143.596 23.1553 143.596 22.833V18.5312C143.596 18.1113 143.553 17.8525 143.469 17.7549C143.352 17.6247 143.156 17.5596 142.883 17.5596H142.648V17.3789H147.751L147.824 18.8291H147.634C147.565 18.4808 147.489 18.2415 147.404 18.1113C147.323 17.9811 147.201 17.8818 147.038 17.8135C146.908 17.7646 146.678 17.7402 146.35 17.7402H144.533ZM152.028 23.4971C151.81 23.7249 151.597 23.8893 151.389 23.9902C151.18 24.0879 150.956 24.1367 150.715 24.1367C150.227 24.1367 149.8 23.9333 149.436 23.5264C149.071 23.1162 148.889 22.5905 148.889 21.9492C148.889 21.3079 149.09 20.722 149.494 20.1914C149.898 19.6576 150.417 19.3906 151.052 19.3906C151.446 19.3906 151.771 19.516 152.028 19.7666V18.9414C152.028 18.4303 152.015 18.1162 151.989 17.999C151.966 17.8818 151.929 17.8021 151.877 17.7598C151.825 17.7174 151.76 17.6963 151.682 17.6963C151.597 17.6963 151.485 17.7223 151.345 17.7744L151.281 17.6035L152.614 17.0566H152.834V22.2275C152.834 22.7516 152.845 23.0723 152.868 23.1895C152.894 23.3034 152.933 23.3831 152.985 23.4287C153.041 23.4743 153.104 23.4971 153.176 23.4971C153.264 23.4971 153.381 23.4694 153.527 23.4141L153.581 23.585L152.253 24.1367H152.028V23.4971ZM152.028 23.1553V20.8506C152.009 20.6292 151.95 20.4274 151.853 20.2451C151.755 20.0628 151.625 19.9261 151.462 19.835C151.302 19.7406 151.146 19.6934 150.993 19.6934C150.707 19.6934 150.451 19.8219 150.227 20.0791C149.93 20.4176 149.782 20.9124 149.782 21.5635C149.782 22.221 149.925 22.7256 150.212 23.0771C150.498 23.4255 150.817 23.5996 151.169 23.5996C151.465 23.5996 151.752 23.4515 152.028 23.1553ZM155.065 22.3691C154.792 22.2357 154.582 22.0501 154.436 21.8125C154.289 21.5716 154.216 21.3063 154.216 21.0166C154.216 20.5739 154.382 20.193 154.714 19.874C155.049 19.555 155.477 19.3955 155.998 19.3955C156.424 19.3955 156.794 19.4997 157.106 19.708H158.054C158.194 19.708 158.275 19.7129 158.298 19.7227C158.321 19.7292 158.337 19.7422 158.347 19.7617C158.366 19.791 158.376 19.8431 158.376 19.918C158.376 20.0026 158.368 20.0612 158.352 20.0938C158.342 20.11 158.324 20.123 158.298 20.1328C158.275 20.1426 158.194 20.1475 158.054 20.1475H157.473C157.655 20.3818 157.746 20.6813 157.746 21.0459C157.746 21.4626 157.587 21.819 157.268 22.1152C156.949 22.4115 156.521 22.5596 155.983 22.5596C155.762 22.5596 155.536 22.527 155.305 22.4619C155.161 22.5856 155.064 22.6947 155.012 22.7891C154.963 22.8802 154.938 22.9583 154.938 23.0234C154.938 23.0788 154.965 23.1325 155.017 23.1846C155.072 23.2367 155.178 23.2741 155.334 23.2969C155.425 23.3099 155.653 23.3213 156.018 23.3311C156.688 23.3473 157.123 23.3701 157.321 23.3994C157.624 23.4417 157.865 23.554 158.044 23.7363C158.226 23.9186 158.317 24.1432 158.317 24.4102C158.317 24.778 158.145 25.123 157.8 25.4453C157.292 25.9206 156.63 26.1582 155.812 26.1582C155.184 26.1582 154.654 26.0166 154.221 25.7334C153.977 25.5706 153.854 25.4014 153.854 25.2256C153.854 25.1475 153.872 25.0693 153.908 24.9912C153.964 24.8708 154.077 24.7031 154.25 24.4883C154.273 24.459 154.439 24.2832 154.748 23.9609C154.579 23.86 154.458 23.7705 154.387 23.6924C154.318 23.611 154.284 23.5199 154.284 23.4189C154.284 23.305 154.33 23.1715 154.421 23.0186C154.515 22.8656 154.73 22.6491 155.065 22.3691ZM155.915 19.6299C155.674 19.6299 155.472 19.7259 155.31 19.918C155.147 20.11 155.065 20.4046 155.065 20.8018C155.065 21.3161 155.176 21.7148 155.397 21.998C155.567 22.2129 155.782 22.3203 156.042 22.3203C156.289 22.3203 156.493 22.2275 156.652 22.042C156.812 21.8564 156.892 21.5651 156.892 21.168C156.892 20.6504 156.779 20.2451 156.555 19.9521C156.389 19.7373 156.175 19.6299 155.915 19.6299ZM155.017 24C154.864 24.166 154.748 24.3206 154.67 24.4639C154.592 24.6071 154.553 24.7389 154.553 24.8594C154.553 25.0156 154.647 25.1523 154.836 25.2695C155.161 25.4714 155.632 25.5723 156.247 25.5723C156.833 25.5723 157.264 25.4681 157.541 25.2598C157.821 25.0547 157.961 24.835 157.961 24.6006C157.961 24.4313 157.878 24.3109 157.712 24.2393C157.543 24.1676 157.207 24.1253 156.706 24.1123C155.974 24.0928 155.41 24.0553 155.017 24ZM159.621 21.2119C159.618 21.876 159.779 22.3968 160.104 22.7744C160.43 23.152 160.812 23.3408 161.252 23.3408C161.545 23.3408 161.799 23.2611 162.014 23.1016C162.232 22.9388 162.414 22.6621 162.561 22.2715L162.712 22.3691C162.644 22.8151 162.445 23.222 162.116 23.5898C161.787 23.9544 161.376 24.1367 160.881 24.1367C160.344 24.1367 159.883 23.9284 159.499 23.5117C159.118 23.0918 158.928 22.5286 158.928 21.8223C158.928 21.0573 159.123 20.4616 159.514 20.0352C159.908 19.6055 160.401 19.3906 160.993 19.3906C161.494 19.3906 161.906 19.5566 162.229 19.8887C162.551 20.2174 162.712 20.6585 162.712 21.2119H159.621ZM159.621 20.9287H161.691C161.675 20.6423 161.641 20.4404 161.589 20.3232C161.507 20.141 161.385 19.9977 161.223 19.8936C161.063 19.7894 160.896 19.7373 160.72 19.7373C160.45 19.7373 160.207 19.8431 159.992 20.0547C159.781 20.263 159.657 20.5544 159.621 20.9287ZM43.7861 28.3789L43.8594 29.9316H43.6738C43.638 29.6582 43.5892 29.4629 43.5273 29.3457C43.4264 29.1569 43.2913 29.0186 43.1221 28.9307C42.9561 28.8395 42.7363 28.7939 42.4629 28.7939H41.5303V33.8525C41.5303 34.2594 41.5742 34.5133 41.6621 34.6143C41.7858 34.751 41.9762 34.8193 42.2334 34.8193H42.4629V35H39.6553V34.8193H39.8896C40.1696 34.8193 40.3682 34.7347 40.4854 34.5654C40.557 34.4613 40.5928 34.2236 40.5928 33.8525V28.7939H39.7969C39.4876 28.7939 39.2679 28.8167 39.1377 28.8623C38.9684 28.9242 38.8236 29.043 38.7031 29.2188C38.5827 29.3945 38.5111 29.6322 38.4883 29.9316H38.3027L38.3809 28.3789H43.7861ZM45.3828 30.3955V31.4014C45.7572 30.7308 46.1413 30.3955 46.5352 30.3955C46.7142 30.3955 46.8623 30.4508 46.9795 30.5615C47.0967 30.6689 47.1553 30.7943 47.1553 30.9375C47.1553 31.0645 47.113 31.1719 47.0283 31.2598C46.9437 31.3477 46.8428 31.3916 46.7256 31.3916C46.6117 31.3916 46.4831 31.3363 46.3398 31.2256C46.1999 31.1117 46.0957 31.0547 46.0273 31.0547C45.9688 31.0547 45.9053 31.0872 45.8369 31.1523C45.6904 31.2858 45.5391 31.5055 45.3828 31.8115V33.9551C45.3828 34.2025 45.4137 34.3896 45.4756 34.5166C45.5179 34.6045 45.5928 34.6777 45.7002 34.7363C45.8076 34.7949 45.9622 34.8242 46.1641 34.8242V35H43.874V34.8242C44.1019 34.8242 44.2712 34.7884 44.3818 34.7168C44.4632 34.6647 44.5202 34.5817 44.5527 34.4678C44.569 34.4124 44.5771 34.2546 44.5771 33.9941V32.2607C44.5771 31.7399 44.5658 31.4307 44.543 31.333C44.5234 31.2321 44.4844 31.1589 44.4258 31.1133C44.3704 31.0677 44.3005 31.0449 44.2158 31.0449C44.1149 31.0449 44.001 31.0693 43.874 31.1182L43.8252 30.9424L45.1777 30.3955H45.3828ZM48.542 28.0566C48.6787 28.0566 48.7943 28.1055 48.8887 28.2031C48.9863 28.2975 49.0352 28.4131 49.0352 28.5498C49.0352 28.6865 48.9863 28.8037 48.8887 28.9014C48.7943 28.999 48.6787 29.0479 48.542 29.0479C48.4053 29.0479 48.2881 28.999 48.1904 28.9014C48.0928 28.8037 48.0439 28.6865 48.0439 28.5498C48.0439 28.4131 48.0911 28.2975 48.1855 28.2031C48.2832 28.1055 48.402 28.0566 48.542 28.0566ZM48.9473 30.3955V33.9893C48.9473 34.2692 48.9668 34.4564 49.0059 34.5508C49.0482 34.6419 49.1084 34.7103 49.1865 34.7559C49.2679 34.8014 49.4144 34.8242 49.626 34.8242V35H47.4531V34.8242C47.6712 34.8242 47.8177 34.8031 47.8926 34.7607C47.9674 34.7184 48.026 34.6484 48.0684 34.5508C48.1139 34.4531 48.1367 34.266 48.1367 33.9893V32.2656C48.1367 31.7806 48.1221 31.4665 48.0928 31.3232C48.07 31.2191 48.0342 31.1475 47.9854 31.1084C47.9365 31.0661 47.8698 31.0449 47.7852 31.0449C47.694 31.0449 47.5833 31.0693 47.4531 31.1182L47.3848 30.9424L48.7324 30.3955H48.9473ZM51.3838 33.3691C51.1104 33.2357 50.9004 33.0501 50.7539 32.8125C50.6074 32.5716 50.5342 32.3063 50.5342 32.0166C50.5342 31.5739 50.7002 31.193 51.0322 30.874C51.3675 30.555 51.7956 30.3955 52.3164 30.3955C52.7428 30.3955 53.1123 30.4997 53.4248 30.708H54.3721C54.512 30.708 54.5934 30.7129 54.6162 30.7227C54.639 30.7292 54.6553 30.7422 54.665 30.7617C54.6846 30.791 54.6943 30.8431 54.6943 30.918C54.6943 31.0026 54.6862 31.0612 54.6699 31.0938C54.6602 31.11 54.6423 31.123 54.6162 31.1328C54.5934 31.1426 54.512 31.1475 54.3721 31.1475H53.791C53.9733 31.3818 54.0645 31.6813 54.0645 32.0459C54.0645 32.4626 53.9049 32.819 53.5859 33.1152C53.2669 33.4115 52.8389 33.5596 52.3018 33.5596C52.0804 33.5596 51.8542 33.527 51.623 33.4619C51.4798 33.5856 51.3822 33.6947 51.3301 33.7891C51.2812 33.8802 51.2568 33.9583 51.2568 34.0234C51.2568 34.0788 51.2829 34.1325 51.335 34.1846C51.3903 34.2367 51.4961 34.2741 51.6523 34.2969C51.7435 34.3099 51.9714 34.3213 52.3359 34.3311C53.0065 34.3473 53.4411 34.3701 53.6396 34.3994C53.9424 34.4417 54.1833 34.554 54.3623 34.7363C54.5446 34.9186 54.6357 35.1432 54.6357 35.4102C54.6357 35.778 54.4632 36.123 54.1182 36.4453C53.6104 36.9206 52.9479 37.1582 52.1309 37.1582C51.5026 37.1582 50.972 37.0166 50.5391 36.7334C50.2949 36.5706 50.1729 36.4014 50.1729 36.2256C50.1729 36.1475 50.1908 36.0693 50.2266 35.9912C50.2819 35.8708 50.3958 35.7031 50.5684 35.4883C50.5911 35.459 50.7572 35.2832 51.0664 34.9609C50.8971 34.86 50.7767 34.7705 50.7051 34.6924C50.6367 34.611 50.6025 34.5199 50.6025 34.4189C50.6025 34.305 50.6481 34.1715 50.7393 34.0186C50.8337 33.8656 51.0485 33.6491 51.3838 33.3691ZM52.2334 30.6299C51.9925 30.6299 51.7907 30.7259 51.6279 30.918C51.4652 31.11 51.3838 31.4046 51.3838 31.8018C51.3838 32.3161 51.4945 32.7148 51.7158 32.998C51.8851 33.2129 52.0999 33.3203 52.3604 33.3203C52.6077 33.3203 52.8112 33.2275 52.9707 33.042C53.1302 32.8564 53.21 32.5651 53.21 32.168C53.21 31.6504 53.0977 31.2451 52.873 30.9521C52.707 30.7373 52.4938 30.6299 52.2334 30.6299ZM51.335 35C51.182 35.166 51.0664 35.3206 50.9883 35.4639C50.9102 35.6071 50.8711 35.7389 50.8711 35.8594C50.8711 36.0156 50.9655 36.1523 51.1543 36.2695C51.4798 36.4714 51.9502 36.5723 52.5654 36.5723C53.1514 36.5723 53.5827 36.4681 53.8594 36.2598C54.1393 36.0547 54.2793 35.835 54.2793 35.6006C54.2793 35.4313 54.1963 35.3109 54.0303 35.2393C53.861 35.1676 53.5257 35.1253 53.0244 35.1123C52.292 35.0928 51.7288 35.0553 51.335 35ZM56.3838 33.3691C56.1104 33.2357 55.9004 33.0501 55.7539 32.8125C55.6074 32.5716 55.5342 32.3063 55.5342 32.0166C55.5342 31.5739 55.7002 31.193 56.0322 30.874C56.3675 30.555 56.7956 30.3955 57.3164 30.3955C57.7428 30.3955 58.1123 30.4997 58.4248 30.708H59.3721C59.512 30.708 59.5934 30.7129 59.6162 30.7227C59.639 30.7292 59.6553 30.7422 59.665 30.7617C59.6846 30.791 59.6943 30.8431 59.6943 30.918C59.6943 31.0026 59.6862 31.0612 59.6699 31.0938C59.6602 31.11 59.6423 31.123 59.6162 31.1328C59.5934 31.1426 59.512 31.1475 59.3721 31.1475H58.791C58.9733 31.3818 59.0645 31.6813 59.0645 32.0459C59.0645 32.4626 58.9049 32.819 58.5859 33.1152C58.2669 33.4115 57.8389 33.5596 57.3018 33.5596C57.0804 33.5596 56.8542 33.527 56.623 33.4619C56.4798 33.5856 56.3822 33.6947 56.3301 33.7891C56.2812 33.8802 56.2568 33.9583 56.2568 34.0234C56.2568 34.0788 56.2829 34.1325 56.335 34.1846C56.3903 34.2367 56.4961 34.2741 56.6523 34.2969C56.7435 34.3099 56.9714 34.3213 57.3359 34.3311C58.0065 34.3473 58.4411 34.3701 58.6396 34.3994C58.9424 34.4417 59.1833 34.554 59.3623 34.7363C59.5446 34.9186 59.6357 35.1432 59.6357 35.4102C59.6357 35.778 59.4632 36.123 59.1182 36.4453C58.6104 36.9206 57.9479 37.1582 57.1309 37.1582C56.5026 37.1582 55.972 37.0166 55.5391 36.7334C55.2949 36.5706 55.1729 36.4014 55.1729 36.2256C55.1729 36.1475 55.1908 36.0693 55.2266 35.9912C55.2819 35.8708 55.3958 35.7031 55.5684 35.4883C55.5911 35.459 55.7572 35.2832 56.0664 34.9609C55.8971 34.86 55.7767 34.7705 55.7051 34.6924C55.6367 34.611 55.6025 34.5199 55.6025 34.4189C55.6025 34.305 55.6481 34.1715 55.7393 34.0186C55.8337 33.8656 56.0485 33.6491 56.3838 33.3691ZM57.2334 30.6299C56.9925 30.6299 56.7907 30.7259 56.6279 30.918C56.4652 31.11 56.3838 31.4046 56.3838 31.8018C56.3838 32.3161 56.4945 32.7148 56.7158 32.998C56.8851 33.2129 57.0999 33.3203 57.3604 33.3203C57.6077 33.3203 57.8112 33.2275 57.9707 33.042C58.1302 32.8564 58.21 32.5651 58.21 32.168C58.21 31.6504 58.0977 31.2451 57.873 30.9521C57.707 30.7373 57.4938 30.6299 57.2334 30.6299ZM56.335 35C56.182 35.166 56.0664 35.3206 55.9883 35.4639C55.9102 35.6071 55.8711 35.7389 55.8711 35.8594C55.8711 36.0156 55.9655 36.1523 56.1543 36.2695C56.4798 36.4714 56.9502 36.5723 57.5654 36.5723C58.1514 36.5723 58.5827 36.4681 58.8594 36.2598C59.1393 36.0547 59.2793 35.835 59.2793 35.6006C59.2793 35.4313 59.1963 35.3109 59.0303 35.2393C58.861 35.1676 58.5257 35.1253 58.0244 35.1123C57.292 35.0928 56.7288 35.0553 56.335 35ZM60.9395 32.2119C60.9362 32.876 61.0973 33.3968 61.4229 33.7744C61.7484 34.152 62.1309 34.3408 62.5703 34.3408C62.8633 34.3408 63.1172 34.2611 63.332 34.1016C63.5501 33.9388 63.7324 33.6621 63.8789 33.2715L64.0303 33.3691C63.9619 33.8151 63.7633 34.222 63.4346 34.5898C63.1058 34.9544 62.694 35.1367 62.1992 35.1367C61.6621 35.1367 61.2015 34.9284 60.8174 34.5117C60.4365 34.0918 60.2461 33.5286 60.2461 32.8223C60.2461 32.0573 60.4414 31.4616 60.832 31.0352C61.2259 30.6055 61.7191 30.3906 62.3115 30.3906C62.8128 30.3906 63.2246 30.5566 63.5469 30.8887C63.8691 31.2174 64.0303 31.6585 64.0303 32.2119H60.9395ZM60.9395 31.9287H63.0098C62.9935 31.6423 62.9593 31.4404 62.9072 31.3232C62.8258 31.141 62.7038 30.9977 62.541 30.8936C62.3815 30.7894 62.2139 30.7373 62.0381 30.7373C61.7679 30.7373 61.5254 30.8431 61.3105 31.0547C61.099 31.263 60.9753 31.5544 60.9395 31.9287ZM65.9395 30.3955V31.4014C66.3138 30.7308 66.6979 30.3955 67.0918 30.3955C67.2708 30.3955 67.4189 30.4508 67.5361 30.5615C67.6533 30.6689 67.7119 30.7943 67.7119 30.9375C67.7119 31.0645 67.6696 31.1719 67.585 31.2598C67.5003 31.3477 67.3994 31.3916 67.2822 31.3916C67.1683 31.3916 67.0397 31.3363 66.8965 31.2256C66.7565 31.1117 66.6523 31.0547 66.584 31.0547C66.5254 31.0547 66.4619 31.0872 66.3936 31.1523C66.2471 31.2858 66.0957 31.5055 65.9395 31.8115V33.9551C65.9395 34.2025 65.9704 34.3896 66.0322 34.5166C66.0745 34.6045 66.1494 34.6777 66.2568 34.7363C66.3643 34.7949 66.5189 34.8242 66.7207 34.8242V35H64.4307V34.8242C64.6585 34.8242 64.8278 34.7884 64.9385 34.7168C65.0199 34.6647 65.0768 34.5817 65.1094 34.4678C65.1257 34.4124 65.1338 34.2546 65.1338 33.9941V32.2607C65.1338 31.7399 65.1224 31.4307 65.0996 31.333C65.0801 31.2321 65.041 31.1589 64.9824 31.1133C64.9271 31.0677 64.8571 31.0449 64.7725 31.0449C64.6715 31.0449 64.5576 31.0693 64.4307 31.1182L64.3818 30.9424L65.7344 30.3955H65.9395ZM68.7129 32.2119C68.7096 32.876 68.8708 33.3968 69.1963 33.7744C69.5218 34.152 69.9043 34.3408 70.3438 34.3408C70.6367 34.3408 70.8906 34.2611 71.1055 34.1016C71.3236 33.9388 71.5059 33.6621 71.6523 33.2715L71.8037 33.3691C71.7354 33.8151 71.5368 34.222 71.208 34.5898C70.8792 34.9544 70.4674 35.1367 69.9727 35.1367C69.4355 35.1367 68.9749 34.9284 68.5908 34.5117C68.21 34.0918 68.0195 33.5286 68.0195 32.8223C68.0195 32.0573 68.2148 31.4616 68.6055 31.0352C68.9993 30.6055 69.4925 30.3906 70.085 30.3906C70.5863 30.3906 70.998 30.5566 71.3203 30.8887C71.6426 31.2174 71.8037 31.6585 71.8037 32.2119H68.7129ZM68.7129 31.9287H70.7832C70.7669 31.6423 70.7327 31.4404 70.6807 31.3232C70.5993 31.141 70.4772 30.9977 70.3145 30.8936C70.1549 30.7894 69.9873 30.7373 69.8115 30.7373C69.5413 30.7373 69.2988 30.8431 69.084 31.0547C68.8724 31.263 68.7487 31.5544 68.7129 31.9287ZM75.5635 34.4971C75.3454 34.7249 75.1322 34.8893 74.9238 34.9902C74.7155 35.0879 74.4909 35.1367 74.25 35.1367C73.7617 35.1367 73.3353 34.9333 72.9707 34.5264C72.6061 34.1162 72.4238 33.5905 72.4238 32.9492C72.4238 32.3079 72.6257 31.722 73.0293 31.1914C73.4329 30.6576 73.9521 30.3906 74.5869 30.3906C74.9808 30.3906 75.3063 30.516 75.5635 30.7666V29.9414C75.5635 29.4303 75.5505 29.1162 75.5244 28.999C75.5016 28.8818 75.4642 28.8021 75.4121 28.7598C75.36 28.7174 75.2949 28.6963 75.2168 28.6963C75.1322 28.6963 75.0199 28.7223 74.8799 28.7744L74.8164 28.6035L76.1494 28.0566H76.3691V33.2275C76.3691 33.7516 76.3805 34.0723 76.4033 34.1895C76.4294 34.3034 76.4684 34.3831 76.5205 34.4287C76.5758 34.4743 76.6393 34.4971 76.7109 34.4971C76.7988 34.4971 76.916 34.4694 77.0625 34.4141L77.1162 34.585L75.7881 35.1367H75.5635V34.4971ZM75.5635 34.1553V31.8506C75.5439 31.6292 75.4854 31.4274 75.3877 31.2451C75.29 31.0628 75.1598 30.9261 74.9971 30.835C74.8376 30.7406 74.6813 30.6934 74.5283 30.6934C74.2419 30.6934 73.9863 30.8219 73.7617 31.0791C73.4655 31.4176 73.3174 31.9124 73.3174 32.5635C73.3174 33.221 73.4606 33.7256 73.7471 34.0771C74.0335 34.4255 74.3525 34.5996 74.7041 34.5996C75.0003 34.5996 75.2868 34.4515 75.5635 34.1553ZM79.6553 30.5273H81.5303V30.708C81.3577 30.721 81.2438 30.752 81.1885 30.8008C81.1364 30.8496 81.1104 30.9196 81.1104 31.0107C81.1104 31.1117 81.138 31.2337 81.1934 31.377L82.1504 33.9502L83.1123 31.8555L82.8584 31.1963C82.7803 31.001 82.6777 30.8659 82.5508 30.791C82.4792 30.7454 82.3457 30.7178 82.1504 30.708V30.5273H84.2793V30.708C84.0449 30.7178 83.8789 30.7601 83.7812 30.835C83.7161 30.887 83.6836 30.9701 83.6836 31.084C83.6836 31.1491 83.6966 31.2158 83.7227 31.2842L84.7383 33.8525L85.6807 31.377C85.7458 31.2012 85.7783 31.0612 85.7783 30.957C85.7783 30.8952 85.7458 30.8398 85.6807 30.791C85.6188 30.7422 85.4951 30.7145 85.3096 30.708V30.5273H86.7207V30.708C86.4375 30.7503 86.2292 30.9424 86.0957 31.2842L84.6016 35.1367H84.4014L83.2832 32.2803L81.9795 35.1367H81.7988L80.3633 31.377C80.2689 31.1393 80.1761 30.9798 80.085 30.8984C79.9938 30.8138 79.8506 30.7503 79.6553 30.708V30.5273ZM88.2686 28.0566C88.4053 28.0566 88.5208 28.1055 88.6152 28.2031C88.7129 28.2975 88.7617 28.4131 88.7617 28.5498C88.7617 28.6865 88.7129 28.8037 88.6152 28.9014C88.5208 28.999 88.4053 29.0479 88.2686 29.0479C88.1318 29.0479 88.0146 28.999 87.917 28.9014C87.8193 28.8037 87.7705 28.6865 87.7705 28.5498C87.7705 28.4131 87.8177 28.2975 87.9121 28.2031C88.0098 28.1055 88.1286 28.0566 88.2686 28.0566ZM88.6738 30.3955V33.9893C88.6738 34.2692 88.6934 34.4564 88.7324 34.5508C88.7747 34.6419 88.835 34.7103 88.9131 34.7559C88.9945 34.8014 89.141 34.8242 89.3525 34.8242V35H87.1797V34.8242C87.3978 34.8242 87.5443 34.8031 87.6191 34.7607C87.694 34.7184 87.7526 34.6484 87.7949 34.5508C87.8405 34.4531 87.8633 34.266 87.8633 33.9893V32.2656C87.8633 31.7806 87.8486 31.4665 87.8193 31.3232C87.7965 31.2191 87.7607 31.1475 87.7119 31.1084C87.6631 31.0661 87.5964 31.0449 87.5117 31.0449C87.4206 31.0449 87.3099 31.0693 87.1797 31.1182L87.1113 30.9424L88.459 30.3955H88.6738ZM91.2129 29.0576V30.5273H92.2578V30.8691H91.2129V33.7695C91.2129 34.0592 91.2536 34.2546 91.335 34.3555C91.4196 34.4564 91.527 34.5068 91.6572 34.5068C91.7646 34.5068 91.8688 34.4743 91.9697 34.4092C92.0706 34.3408 92.1488 34.2415 92.2041 34.1113H92.3945C92.2806 34.4303 92.1195 34.6712 91.9111 34.834C91.7028 34.9935 91.488 35.0732 91.2666 35.0732C91.1169 35.0732 90.9704 35.0326 90.8271 34.9512C90.6839 34.8665 90.5781 34.7477 90.5098 34.5947C90.4414 34.4385 90.4072 34.1992 90.4072 33.877V30.8691H89.6992V30.708C89.8783 30.6364 90.0605 30.516 90.2461 30.3467C90.4349 30.1742 90.6025 29.9707 90.749 29.7363C90.8239 29.6126 90.9281 29.3864 91.0615 29.0576H91.2129ZM94.0107 28.0566V31.3281C94.3721 30.931 94.6585 30.6771 94.8701 30.5664C95.0817 30.4525 95.2933 30.3955 95.5049 30.3955C95.7588 30.3955 95.9769 30.4655 96.1592 30.6055C96.3415 30.7454 96.4766 30.9652 96.5645 31.2646C96.6263 31.473 96.6572 31.8538 96.6572 32.4072V33.9893C96.6572 34.2725 96.68 34.4661 96.7256 34.5703C96.7581 34.6484 96.8135 34.7103 96.8916 34.7559C96.9697 34.8014 97.113 34.8242 97.3213 34.8242V35H95.124V34.8242H95.2266C95.4349 34.8242 95.5798 34.7933 95.6611 34.7314C95.7425 34.6663 95.7995 34.5719 95.832 34.4482C95.8418 34.3962 95.8467 34.2432 95.8467 33.9893V32.4072C95.8467 31.9189 95.8206 31.5983 95.7686 31.4453C95.7197 31.2923 95.64 31.1784 95.5293 31.1035C95.4186 31.0254 95.2852 30.9863 95.1289 30.9863C94.9694 30.9863 94.8034 31.0286 94.6309 31.1133C94.4583 31.1979 94.2516 31.3688 94.0107 31.626V33.9893C94.0107 34.2952 94.027 34.4857 94.0596 34.5605C94.0954 34.6354 94.1589 34.6989 94.25 34.751C94.3444 34.7998 94.5055 34.8242 94.7334 34.8242V35H92.5166V34.8242C92.7152 34.8242 92.8714 34.7933 92.9854 34.7314C93.0505 34.6989 93.1025 34.637 93.1416 34.5459C93.1807 34.4548 93.2002 34.2692 93.2002 33.9893V29.9414C93.2002 29.4303 93.1872 29.1162 93.1611 28.999C93.1383 28.8818 93.1009 28.8021 93.0488 28.7598C93 28.7174 92.9333 28.6963 92.8486 28.6963C92.7803 28.6963 92.6696 28.7223 92.5166 28.7744L92.4482 28.6035L93.7861 28.0566H94.0107ZM104.47 28.2275V30.5176H104.289C104.23 30.0781 104.125 29.7282 103.972 29.4678C103.822 29.2074 103.607 29.0007 103.327 28.8477C103.047 28.6947 102.757 28.6182 102.458 28.6182C102.119 28.6182 101.84 28.7223 101.618 28.9307C101.397 29.1357 101.286 29.3701 101.286 29.6338C101.286 29.8356 101.356 30.0195 101.496 30.1855C101.698 30.4297 102.178 30.7552 102.937 31.1621C103.555 31.4941 103.977 31.7497 104.201 31.9287C104.429 32.1045 104.603 32.3128 104.724 32.5537C104.847 32.7946 104.909 33.0469 104.909 33.3105C104.909 33.8118 104.714 34.2448 104.323 34.6094C103.936 34.9707 103.436 35.1514 102.824 35.1514C102.632 35.1514 102.451 35.1367 102.282 35.1074C102.181 35.0911 101.971 35.0326 101.652 34.9316C101.337 34.8275 101.136 34.7754 101.052 34.7754C100.97 34.7754 100.905 34.7998 100.856 34.8486C100.811 34.8975 100.777 34.9984 100.754 35.1514H100.573V32.8809H100.754C100.839 33.3561 100.952 33.7126 101.096 33.9502C101.239 34.1846 101.457 34.3799 101.75 34.5361C102.046 34.6924 102.37 34.7705 102.722 34.7705C103.129 34.7705 103.449 34.6631 103.684 34.4482C103.921 34.2334 104.04 33.9795 104.04 33.6865C104.04 33.5238 103.994 33.3594 103.903 33.1934C103.815 33.0273 103.677 32.8727 103.488 32.7295C103.361 32.6318 103.015 32.4251 102.448 32.1094C101.882 31.7904 101.478 31.5365 101.237 31.3477C101 31.1589 100.819 30.9505 100.695 30.7227C100.572 30.4948 100.51 30.2441 100.51 29.9707C100.51 29.4954 100.692 29.0869 101.057 28.7451C101.421 28.4001 101.885 28.2275 102.448 28.2275C102.8 28.2275 103.173 28.3138 103.566 28.4863C103.749 28.5677 103.877 28.6084 103.952 28.6084C104.037 28.6084 104.105 28.584 104.157 28.5352C104.213 28.4831 104.257 28.3805 104.289 28.2275H104.47ZM106.516 32.2119C106.512 32.876 106.674 33.3968 106.999 33.7744C107.325 34.152 107.707 34.3408 108.146 34.3408C108.439 34.3408 108.693 34.2611 108.908 34.1016C109.126 33.9388 109.309 33.6621 109.455 33.2715L109.606 33.3691C109.538 33.8151 109.34 34.222 109.011 34.5898C108.682 34.9544 108.27 35.1367 107.775 35.1367C107.238 35.1367 106.778 34.9284 106.394 34.5117C106.013 34.0918 105.822 33.5286 105.822 32.8223C105.822 32.0573 106.018 31.4616 106.408 31.0352C106.802 30.6055 107.295 30.3906 107.888 30.3906C108.389 30.3906 108.801 30.5566 109.123 30.8887C109.445 31.2174 109.606 31.6585 109.606 32.2119H106.516ZM106.516 31.9287H108.586C108.57 31.6423 108.535 31.4404 108.483 31.3232C108.402 31.141 108.28 30.9977 108.117 30.8936C107.958 30.7894 107.79 30.7373 107.614 30.7373C107.344 30.7373 107.102 30.8431 106.887 31.0547C106.675 31.263 106.551 31.5544 106.516 31.9287ZM111.506 29.0576V30.5273H112.551V30.8691H111.506V33.7695C111.506 34.0592 111.547 34.2546 111.628 34.3555C111.713 34.4564 111.82 34.5068 111.95 34.5068C112.058 34.5068 112.162 34.4743 112.263 34.4092C112.364 34.3408 112.442 34.2415 112.497 34.1113H112.688C112.574 34.4303 112.412 34.6712 112.204 34.834C111.996 34.9935 111.781 35.0732 111.56 35.0732C111.41 35.0732 111.263 35.0326 111.12 34.9512C110.977 34.8665 110.871 34.7477 110.803 34.5947C110.734 34.4385 110.7 34.1992 110.7 33.877V30.8691H109.992V30.708C110.171 30.6364 110.354 30.516 110.539 30.3467C110.728 30.1742 110.896 29.9707 111.042 29.7363C111.117 29.6126 111.221 29.3864 111.354 29.0576H111.506ZM118.024 34.3555C117.565 34.7103 117.277 34.9154 117.16 34.9707C116.984 35.0521 116.797 35.0928 116.599 35.0928C116.289 35.0928 116.034 34.987 115.832 34.7754C115.633 34.5638 115.534 34.2855 115.534 33.9404C115.534 33.7223 115.583 33.5335 115.681 33.374C115.814 33.1527 116.045 32.9443 116.374 32.749C116.706 32.5537 117.256 32.3161 118.024 32.0361V31.8604C118.024 31.4144 117.953 31.1084 117.81 30.9424C117.67 30.7764 117.465 30.6934 117.194 30.6934C116.989 30.6934 116.826 30.7487 116.706 30.8594C116.582 30.9701 116.521 31.097 116.521 31.2402L116.53 31.5234C116.53 31.6732 116.491 31.7887 116.413 31.8701C116.338 31.9515 116.239 31.9922 116.115 31.9922C115.995 31.9922 115.896 31.9499 115.817 31.8652C115.743 31.7806 115.705 31.665 115.705 31.5186C115.705 31.2386 115.848 30.9814 116.135 30.7471C116.421 30.5127 116.823 30.3955 117.341 30.3955C117.738 30.3955 118.063 30.4622 118.317 30.5957C118.509 30.6966 118.651 30.8545 118.742 31.0693C118.801 31.2093 118.83 31.4958 118.83 31.9287V33.4473C118.83 33.8737 118.838 34.1357 118.854 34.2334C118.871 34.3278 118.897 34.3913 118.933 34.4238C118.972 34.4564 119.016 34.4727 119.064 34.4727C119.117 34.4727 119.162 34.4613 119.201 34.4385C119.27 34.3962 119.401 34.2773 119.597 34.082V34.3555C119.232 34.8438 118.884 35.0879 118.552 35.0879C118.392 35.0879 118.265 35.0326 118.171 34.9219C118.076 34.8112 118.028 34.6224 118.024 34.3555ZM118.024 34.0381V32.334C117.533 32.5293 117.215 32.6676 117.072 32.749C116.815 32.8923 116.631 33.042 116.521 33.1982C116.41 33.3545 116.354 33.5254 116.354 33.7109C116.354 33.9453 116.424 34.1406 116.564 34.2969C116.704 34.4499 116.866 34.5264 117.048 34.5264C117.295 34.5264 117.621 34.3636 118.024 34.0381ZM121.237 31.3428C121.761 30.7113 122.261 30.3955 122.736 30.3955C122.98 30.3955 123.19 30.4574 123.366 30.5811C123.542 30.7015 123.682 30.9017 123.786 31.1816C123.858 31.377 123.894 31.6764 123.894 32.0801V33.9893C123.894 34.2725 123.916 34.4645 123.962 34.5654C123.998 34.6468 124.055 34.7103 124.133 34.7559C124.214 34.8014 124.362 34.8242 124.577 34.8242V35H122.365V34.8242H122.458C122.666 34.8242 122.811 34.7933 122.893 34.7314C122.977 34.6663 123.036 34.5719 123.068 34.4482C123.081 34.3994 123.088 34.2464 123.088 33.9893V32.1582C123.088 31.7513 123.034 31.4567 122.927 31.2744C122.823 31.0889 122.645 30.9961 122.395 30.9961C122.007 30.9961 121.621 31.2077 121.237 31.6309V33.9893C121.237 34.292 121.255 34.4792 121.291 34.5508C121.337 34.6452 121.398 34.7152 121.477 34.7607C121.558 34.8031 121.721 34.8242 121.965 34.8242V35H119.753V34.8242H119.851C120.078 34.8242 120.231 34.7673 120.31 34.6533C120.391 34.5361 120.432 34.3148 120.432 33.9893V32.3291C120.432 31.792 120.419 31.4648 120.393 31.3477C120.37 31.2305 120.332 31.1507 120.28 31.1084C120.231 31.0661 120.165 31.0449 120.08 31.0449C119.989 31.0449 119.88 31.0693 119.753 31.1182L119.68 30.9424L121.027 30.3955H121.237V31.3428ZM128.093 34.4971C127.875 34.7249 127.661 34.8893 127.453 34.9902C127.245 35.0879 127.02 35.1367 126.779 35.1367C126.291 35.1367 125.865 34.9333 125.5 34.5264C125.135 34.1162 124.953 33.5905 124.953 32.9492C124.953 32.3079 125.155 31.722 125.559 31.1914C125.962 30.6576 126.481 30.3906 127.116 30.3906C127.51 30.3906 127.836 30.516 128.093 30.7666V29.9414C128.093 29.4303 128.08 29.1162 128.054 28.999C128.031 28.8818 127.993 28.8021 127.941 28.7598C127.889 28.7174 127.824 28.6963 127.746 28.6963C127.661 28.6963 127.549 28.7223 127.409 28.7744L127.346 28.6035L128.679 28.0566H128.898V33.2275C128.898 33.7516 128.91 34.0723 128.933 34.1895C128.959 34.3034 128.998 34.3831 129.05 34.4287C129.105 34.4743 129.169 34.4971 129.24 34.4971C129.328 34.4971 129.445 34.4694 129.592 34.4141L129.646 34.585L128.317 35.1367H128.093V34.4971ZM128.093 34.1553V31.8506C128.073 31.6292 128.015 31.4274 127.917 31.2451C127.819 31.0628 127.689 30.9261 127.526 30.835C127.367 30.7406 127.211 30.6934 127.058 30.6934C126.771 30.6934 126.516 30.8219 126.291 31.0791C125.995 31.4176 125.847 31.9124 125.847 32.5635C125.847 33.221 125.99 33.7256 126.276 34.0771C126.563 34.4255 126.882 34.5996 127.233 34.5996C127.53 34.5996 127.816 34.4515 128.093 34.1553ZM138.879 35H137.111L134.87 31.9043C134.704 31.9108 134.569 31.9141 134.465 31.9141C134.423 31.9141 134.377 31.9141 134.328 31.9141C134.279 31.9108 134.229 31.9076 134.177 31.9043V33.8281C134.177 34.2448 134.222 34.5036 134.313 34.6045C134.437 34.7477 134.623 34.8193 134.87 34.8193H135.129V35H132.292V34.8193H132.541C132.821 34.8193 133.021 34.7282 133.142 34.5459C133.21 34.445 133.244 34.2057 133.244 33.8281V29.5508C133.244 29.1341 133.199 28.8753 133.107 28.7744C132.98 28.6312 132.792 28.5596 132.541 28.5596H132.292V28.3789H134.704C135.407 28.3789 135.925 28.431 136.257 28.5352C136.592 28.6361 136.875 28.8249 137.106 29.1016C137.341 29.375 137.458 29.7021 137.458 30.083C137.458 30.4899 137.325 30.8431 137.058 31.1426C136.794 31.4421 136.384 31.6536 135.827 31.7773L137.194 33.6768C137.507 34.113 137.775 34.4027 138 34.5459C138.225 34.6891 138.518 34.7803 138.879 34.8193V35ZM134.177 31.5967C134.239 31.5967 134.292 31.5983 134.338 31.6016C134.383 31.6016 134.421 31.6016 134.45 31.6016C135.082 31.6016 135.557 31.4648 135.876 31.1914C136.198 30.918 136.359 30.5697 136.359 30.1465C136.359 29.7331 136.229 29.3978 135.969 29.1406C135.712 28.8802 135.37 28.75 134.943 28.75C134.755 28.75 134.499 28.7809 134.177 28.8428V31.5967ZM139.855 32.2119C139.852 32.876 140.013 33.3968 140.339 33.7744C140.664 34.152 141.047 34.3408 141.486 34.3408C141.779 34.3408 142.033 34.2611 142.248 34.1016C142.466 33.9388 142.648 33.6621 142.795 33.2715L142.946 33.3691C142.878 33.8151 142.679 34.222 142.351 34.5898C142.022 34.9544 141.61 35.1367 141.115 35.1367C140.578 35.1367 140.118 34.9284 139.733 34.5117C139.353 34.0918 139.162 33.5286 139.162 32.8223C139.162 32.0573 139.357 31.4616 139.748 31.0352C140.142 30.6055 140.635 30.3906 141.228 30.3906C141.729 30.3906 142.141 30.5566 142.463 30.8887C142.785 31.2174 142.946 31.6585 142.946 32.2119H139.855ZM139.855 31.9287H141.926C141.91 31.6423 141.875 31.4404 141.823 31.3232C141.742 31.141 141.62 30.9977 141.457 30.8936C141.298 30.7894 141.13 30.7373 140.954 30.7373C140.684 30.7373 140.441 30.8431 140.227 31.0547C140.015 31.263 139.891 31.5544 139.855 31.9287ZM146.438 30.3955V31.9189H146.276C146.153 31.4404 145.993 31.1149 145.798 30.9424C145.606 30.7699 145.36 30.6836 145.061 30.6836C144.833 30.6836 144.649 30.7438 144.509 30.8643C144.369 30.9847 144.299 31.1182 144.299 31.2646C144.299 31.4469 144.351 31.6032 144.455 31.7334C144.556 31.8669 144.761 32.0085 145.07 32.1582L145.783 32.5049C146.444 32.8271 146.774 33.252 146.774 33.7793C146.774 34.1862 146.62 34.515 146.311 34.7656C146.005 35.013 145.661 35.1367 145.28 35.1367C145.007 35.1367 144.694 35.0879 144.343 34.9902C144.235 34.9577 144.147 34.9414 144.079 34.9414C144.004 34.9414 143.946 34.9837 143.903 35.0684H143.742V33.4717H143.903C143.994 33.9274 144.169 34.2708 144.426 34.502C144.683 34.7331 144.971 34.8486 145.29 34.8486C145.515 34.8486 145.697 34.7835 145.837 34.6533C145.98 34.5199 146.052 34.3604 146.052 34.1748C146.052 33.9502 145.972 33.7614 145.812 33.6084C145.656 33.4554 145.342 33.2617 144.87 33.0273C144.398 32.793 144.089 32.5814 143.942 32.3926C143.796 32.207 143.723 31.9727 143.723 31.6895C143.723 31.3216 143.848 31.014 144.099 30.7666C144.353 30.5192 144.68 30.3955 145.08 30.3955C145.256 30.3955 145.469 30.4329 145.72 30.5078C145.886 30.5566 145.996 30.5811 146.052 30.5811C146.104 30.5811 146.145 30.5697 146.174 30.5469C146.203 30.5241 146.237 30.4736 146.276 30.3955H146.438ZM148.195 32.2119C148.192 32.876 148.353 33.3968 148.679 33.7744C149.004 34.152 149.387 34.3408 149.826 34.3408C150.119 34.3408 150.373 34.2611 150.588 34.1016C150.806 33.9388 150.988 33.6621 151.135 33.2715L151.286 33.3691C151.218 33.8151 151.019 34.222 150.69 34.5898C150.362 34.9544 149.95 35.1367 149.455 35.1367C148.918 35.1367 148.457 34.9284 148.073 34.5117C147.692 34.0918 147.502 33.5286 147.502 32.8223C147.502 32.0573 147.697 31.4616 148.088 31.0352C148.482 30.6055 148.975 30.3906 149.567 30.3906C150.069 30.3906 150.48 30.5566 150.803 30.8887C151.125 31.2174 151.286 31.6585 151.286 32.2119H148.195ZM148.195 31.9287H150.266C150.249 31.6423 150.215 31.4404 150.163 31.3232C150.082 31.141 149.96 30.9977 149.797 30.8936C149.637 30.7894 149.47 30.7373 149.294 30.7373C149.024 30.7373 148.781 30.8431 148.566 31.0547C148.355 31.263 148.231 31.5544 148.195 31.9287ZM153.186 29.0576V30.5273H154.23V30.8691H153.186V33.7695C153.186 34.0592 153.226 34.2546 153.308 34.3555C153.392 34.4564 153.5 34.5068 153.63 34.5068C153.737 34.5068 153.841 34.4743 153.942 34.4092C154.043 34.3408 154.121 34.2415 154.177 34.1113H154.367C154.253 34.4303 154.092 34.6712 153.884 34.834C153.675 34.9935 153.461 35.0732 153.239 35.0732C153.09 35.0732 152.943 35.0326 152.8 34.9512C152.657 34.8665 152.551 34.7477 152.482 34.5947C152.414 34.4385 152.38 34.1992 152.38 33.877V30.8691H151.672V30.708C151.851 30.6364 152.033 30.516 152.219 30.3467C152.408 30.1742 152.575 29.9707 152.722 29.7363C152.797 29.6126 152.901 29.3864 153.034 29.0576H153.186Z" fill="black"/>
<circle cx="67" cy="151" r="3" fill="white" stroke="black" stroke-width="2"/>
<circle cx="150" cy="131" r="3" fill="white" stroke="black" stroke-width="2"/>
<circle cx="100" cy="151" r="3" fill="white" stroke="black" stroke-width="2"/>
<path d="M67.8261 109.252L69.7236 108L67.8261 106.748L57.3261 99.8198L55 98.2849V101.072V114.928V117.715L57.3261 116.18L67.8261 109.252Z" fill="white" stroke="black" stroke-width="3"/>
<circle cx="59.5" cy="107.5" r="3.5" fill="white" stroke="black" stroke-width="2"/>
</g>
<defs>
<clipPath id="clip0_2_505">
<rect width="200" height="200" fill="white"/>
</clipPath>
</defs>
</svg>
