<svg width="200" height="200" viewBox="0 0 200 200" fill="none" xmlns="http://www.w3.org/2000/svg">
<rect width="200" height="200" fill="white"/>
<rect x="68.5" y="51.5" width="62" height="97" fill="white" stroke="black" stroke-width="3"/>
<line y1="66" x2="67" y2="66" stroke="black" stroke-width="2"/>
<path d="M100 200V177.5L100 155" stroke="black" stroke-width="2"/>
<line y1="99" x2="67" y2="99" stroke="black" stroke-width="2"/>
<line x1="130" y1="66" x2="200" y2="66" stroke="black" stroke-width="2"/>
<line x1="130" y1="131" x2="200" y2="131" stroke="black" stroke-width="2"/>
<path d="M73.1953 64.2715V64.0547H76.5996V64.2715H76.3125C75.9883 64.2715 75.752 64.3672 75.6035 64.5586C75.5098 64.6836 75.4629 64.9844 75.4629 65.4609V69.3457C75.4629 69.9434 75.3965 70.4277 75.2637 70.7988C75.1348 71.1699 74.9102 71.4941 74.5898 71.7715C74.2695 72.0449 73.8828 72.1816 73.4297 72.1816C73.0625 72.1816 72.7734 72.0918 72.5625 71.9121C72.3516 71.7285 72.2461 71.5195 72.2461 71.2852C72.2461 71.0938 72.2949 70.9492 72.3926 70.8516C72.5215 70.7305 72.6719 70.6699 72.8438 70.6699C72.9688 70.6699 73.0801 70.7109 73.1777 70.793C73.2793 70.875 73.4062 71.0938 73.5586 71.4492C73.6484 71.6602 73.7637 71.7656 73.9043 71.7656C74.0098 71.7656 74.1074 71.7012 74.1973 71.5723C74.291 71.4434 74.3379 71.2148 74.3379 70.8867V65.4609C74.3379 65.0586 74.3125 64.793 74.2617 64.6641C74.2227 64.5664 74.1406 64.4824 74.0156 64.4121C73.8477 64.3184 73.6699 64.2715 73.4824 64.2715H73.1953Z" fill="black"/>
<line y1="130" x2="67" y2="130" stroke="black" stroke-width="2"/>
<path d="M75.5859 131.594L78.5156 134.506C78.9961 134.986 79.4062 135.314 79.7461 135.49C80.0859 135.662 80.4258 135.76 80.7656 135.783V136H76.9863V135.783C77.2129 135.783 77.375 135.746 77.4727 135.672C77.5742 135.594 77.625 135.508 77.625 135.414C77.625 135.32 77.6055 135.236 77.5664 135.162C77.5312 135.088 77.4102 134.949 77.2031 134.746L74.4609 132.033V134.594C74.4609 134.996 74.4863 135.262 74.5371 135.391C74.5762 135.488 74.6582 135.572 74.7832 135.643C74.9512 135.736 75.1289 135.783 75.3164 135.783H75.5859V136H72.1992V135.783H72.4805C72.8086 135.783 73.0469 135.688 73.1953 135.496C73.2891 135.371 73.3359 135.07 73.3359 134.594V129.461C73.3359 129.059 73.3105 128.791 73.2598 128.658C73.2207 128.564 73.1406 128.482 73.0195 128.412C72.8477 128.318 72.668 128.271 72.4805 128.271H72.1992V128.055H75.5859V128.271H75.3164C75.1328 128.271 74.9551 128.316 74.7832 128.406C74.6621 128.469 74.5781 128.562 74.5312 128.688C74.4844 128.812 74.4609 129.07 74.4609 129.461V131.893C74.5391 131.818 74.8066 131.57 75.2637 131.148C76.4238 130.086 77.125 129.377 77.3672 129.021C77.4727 128.865 77.5254 128.729 77.5254 128.611C77.5254 128.521 77.4844 128.443 77.4023 128.377C77.3203 128.307 77.1816 128.271 76.9863 128.271H76.8047V128.055H79.7227V128.271C79.5508 128.275 79.3945 128.299 79.2539 128.342C79.1133 128.385 78.9414 128.469 78.7383 128.594C78.5352 128.715 78.2852 128.912 77.9883 129.186C77.9023 129.264 77.5059 129.664 76.7988 130.387L75.5859 131.594Z" fill="black"/>
<path d="M95.2246 95.873L95.4062 98.5742H95.2246C94.9824 97.7656 94.6367 97.1836 94.1875 96.8281C93.7383 96.4727 93.1992 96.2949 92.5703 96.2949C92.043 96.2949 91.5664 96.4297 91.1406 96.6992C90.7148 96.9648 90.3789 97.3906 90.1328 97.9766C89.8906 98.5625 89.7695 99.291 89.7695 100.162C89.7695 100.881 89.8848 101.504 90.1152 102.031C90.3457 102.559 90.6914 102.963 91.1523 103.244C91.6172 103.525 92.1465 103.666 92.7402 103.666C93.2559 103.666 93.7109 103.557 94.1055 103.338C94.5 103.115 94.9336 102.676 95.4062 102.02L95.5879 102.137C95.1895 102.844 94.7246 103.361 94.1934 103.689C93.6621 104.018 93.0312 104.182 92.3008 104.182C90.9844 104.182 89.9648 103.693 89.2422 102.717C88.7031 101.99 88.4336 101.135 88.4336 100.15C88.4336 99.3574 88.6113 98.6289 88.9668 97.9648C89.3223 97.3008 89.8105 96.7871 90.4316 96.4238C91.0566 96.0566 91.7383 95.873 92.4766 95.873C93.0508 95.873 93.6172 96.0137 94.1758 96.2949C94.3398 96.3809 94.457 96.4238 94.5273 96.4238C94.6328 96.4238 94.7246 96.3867 94.8027 96.3125C94.9043 96.207 94.9766 96.0605 95.0195 95.873H95.2246ZM102.883 101.803L103.076 101.844L102.396 104H96.2441V103.783H96.543C96.8789 103.783 97.1191 103.674 97.2637 103.455C97.3457 103.33 97.3867 103.041 97.3867 102.588V97.4609C97.3867 96.9648 97.332 96.6543 97.2227 96.5293C97.0703 96.3574 96.8438 96.2715 96.543 96.2715H96.2441V96.0547H99.8418V96.2715C99.4199 96.2676 99.123 96.3066 98.9512 96.3887C98.7832 96.4707 98.668 96.5742 98.6055 96.6992C98.543 96.8242 98.5117 97.123 98.5117 97.5957V102.588C98.5117 102.912 98.543 103.135 98.6055 103.256C98.6523 103.338 98.7246 103.398 98.8223 103.438C98.9199 103.477 99.2246 103.496 99.7363 103.496H100.316C100.926 103.496 101.354 103.451 101.6 103.361C101.846 103.271 102.07 103.113 102.273 102.887C102.477 102.656 102.68 102.295 102.883 101.803ZM106.926 99.5938L109.855 102.506C110.336 102.986 110.746 103.314 111.086 103.49C111.426 103.662 111.766 103.76 112.105 103.783V104H108.326V103.783C108.553 103.783 108.715 103.746 108.812 103.672C108.914 103.594 108.965 103.508 108.965 103.414C108.965 103.32 108.945 103.236 108.906 103.162C108.871 103.088 108.75 102.949 108.543 102.746L105.801 100.033V102.594C105.801 102.996 105.826 103.262 105.877 103.391C105.916 103.488 105.998 103.572 106.123 103.643C106.291 103.736 106.469 103.783 106.656 103.783H106.926V104H103.539V103.783H103.82C104.148 103.783 104.387 103.688 104.535 103.496C104.629 103.371 104.676 103.07 104.676 102.594V97.4609C104.676 97.0586 104.65 96.791 104.6 96.6582C104.561 96.5645 104.48 96.4824 104.359 96.4121C104.188 96.3184 104.008 96.2715 103.82 96.2715H103.539V96.0547H106.926V96.2715H106.656C106.473 96.2715 106.295 96.3164 106.123 96.4062C106.002 96.4688 105.918 96.5625 105.871 96.6875C105.824 96.8125 105.801 97.0703 105.801 97.4609V99.8926C105.879 99.8184 106.146 99.5703 106.604 99.1484C107.764 98.0859 108.465 97.377 108.707 97.0215C108.812 96.8652 108.865 96.7285 108.865 96.6113C108.865 96.5215 108.824 96.4434 108.742 96.377C108.66 96.3066 108.521 96.2715 108.326 96.2715H108.145V96.0547H111.062V96.2715C110.891 96.2754 110.734 96.2988 110.594 96.3418C110.453 96.3848 110.281 96.4688 110.078 96.5938C109.875 96.7148 109.625 96.9121 109.328 97.1855C109.242 97.2637 108.846 97.6641 108.139 98.3867L106.926 99.5938Z" fill="black"/>
<path d="M95.1094 144H92.9883L90.2988 140.285C90.0996 140.293 89.9375 140.297 89.8125 140.297C89.7617 140.297 89.707 140.297 89.6484 140.297C89.5898 140.293 89.5293 140.289 89.4668 140.285V142.594C89.4668 143.094 89.5215 143.404 89.6309 143.525C89.7793 143.697 90.002 143.783 90.2988 143.783H90.6094V144H87.2051V143.783H87.5039C87.8398 143.783 88.0801 143.674 88.2246 143.455C88.3066 143.334 88.3477 143.047 88.3477 142.594V137.461C88.3477 136.961 88.293 136.65 88.1836 136.529C88.0312 136.357 87.8047 136.271 87.5039 136.271H87.2051V136.055H90.0996C90.9434 136.055 91.5645 136.117 91.9629 136.242C92.3652 136.363 92.7051 136.59 92.9824 136.922C93.2637 137.25 93.4043 137.643 93.4043 138.1C93.4043 138.588 93.2441 139.012 92.9238 139.371C92.6074 139.73 92.1152 139.984 91.4473 140.133L93.0879 142.412C93.4629 142.936 93.7852 143.283 94.0547 143.455C94.3242 143.627 94.6758 143.736 95.1094 143.783V144ZM89.4668 139.916C89.541 139.916 89.6055 139.918 89.6602 139.922C89.7148 139.922 89.7598 139.922 89.7949 139.922C90.5527 139.922 91.123 139.758 91.5059 139.43C91.8926 139.102 92.0859 138.684 92.0859 138.176C92.0859 137.68 91.9297 137.277 91.6172 136.969C91.3086 136.656 90.8984 136.5 90.3867 136.5C90.1602 136.5 89.8535 136.537 89.4668 136.611V139.916ZM100.506 135.873V138.621H100.289C100.219 138.094 100.092 137.674 99.9082 137.361C99.7285 137.049 99.4707 136.801 99.1348 136.617C98.7988 136.434 98.4512 136.342 98.0918 136.342C97.6855 136.342 97.3496 136.467 97.084 136.717C96.8184 136.963 96.6855 137.244 96.6855 137.561C96.6855 137.803 96.7695 138.023 96.9375 138.223C97.1797 138.516 97.7559 138.906 98.666 139.395C99.4082 139.793 99.9141 140.1 100.184 140.314C100.457 140.525 100.666 140.775 100.811 141.064C100.959 141.354 101.033 141.656 101.033 141.973C101.033 142.574 100.799 143.094 100.33 143.531C99.8652 143.965 99.2656 144.182 98.5312 144.182C98.3008 144.182 98.084 144.164 97.8809 144.129C97.7598 144.109 97.5078 144.039 97.125 143.918C96.7461 143.793 96.5059 143.73 96.4043 143.73C96.3066 143.73 96.2285 143.76 96.1699 143.818C96.1152 143.877 96.0742 143.998 96.0469 144.182H95.8301V141.457H96.0469C96.1484 142.027 96.2852 142.455 96.457 142.74C96.6289 143.021 96.8906 143.256 97.2422 143.443C97.5977 143.631 97.9863 143.725 98.4082 143.725C98.8965 143.725 99.2812 143.596 99.5625 143.338C99.8477 143.08 99.9902 142.775 99.9902 142.424C99.9902 142.229 99.9355 142.031 99.8262 141.832C99.7207 141.633 99.5547 141.447 99.3281 141.275C99.1758 141.158 98.7598 140.91 98.0801 140.531C97.4004 140.148 96.916 139.844 96.627 139.617C96.3418 139.391 96.125 139.141 95.9766 138.867C95.8281 138.594 95.7539 138.293 95.7539 137.965C95.7539 137.395 95.9727 136.904 96.4102 136.494C96.8477 136.08 97.4043 135.873 98.0801 135.873C98.502 135.873 98.9492 135.977 99.4219 136.184C99.6406 136.281 99.7949 136.33 99.8848 136.33C99.9863 136.33 100.068 136.301 100.131 136.242C100.197 136.18 100.25 136.057 100.289 135.873H100.506ZM108.627 136.055L108.715 137.918H108.492C108.449 137.59 108.391 137.355 108.316 137.215C108.195 136.988 108.033 136.822 107.83 136.717C107.631 136.607 107.367 136.553 107.039 136.553H105.92V142.623C105.92 143.111 105.973 143.416 106.078 143.537C106.227 143.701 106.455 143.783 106.764 143.783H107.039V144H103.67V143.783H103.951C104.287 143.783 104.525 143.682 104.666 143.479C104.752 143.354 104.795 143.068 104.795 142.623V136.553H103.84C103.469 136.553 103.205 136.58 103.049 136.635C102.846 136.709 102.672 136.852 102.527 137.062C102.383 137.273 102.297 137.559 102.27 137.918H102.047L102.141 136.055H108.627Z" fill="black"/>
<path d="M122.285 72.0879C122.684 72.7754 123.113 73.2812 123.574 73.6055C124.039 73.9297 124.566 74.1152 125.156 74.1621V74.3496C124.617 74.3301 124.041 74.2207 123.428 74.0215C122.814 73.8262 122.232 73.5527 121.682 73.2012C121.135 72.8535 120.662 72.4824 120.264 72.0879C119.701 71.8613 119.256 71.6211 118.928 71.3672C118.451 70.9883 118.08 70.5234 117.814 69.9727C117.553 69.418 117.422 68.7637 117.422 68.0098C117.422 66.8223 117.807 65.8359 118.576 65.0508C119.346 64.2656 120.277 63.873 121.371 63.873C122.41 63.873 123.309 64.2676 124.066 65.0566C124.828 65.8418 125.209 66.834 125.209 68.0332C125.209 69.0059 124.938 69.8594 124.395 70.5938C123.855 71.3281 123.152 71.8262 122.285 72.0879ZM121.301 64.3242C120.59 64.3242 120.018 64.5781 119.584 65.0859C119.037 65.7227 118.764 66.6973 118.764 68.0098C118.764 69.2949 119.041 70.2852 119.596 70.9805C120.025 71.5156 120.594 71.7832 121.301 71.7832C122.035 71.7832 122.627 71.5156 123.076 70.9805C123.604 70.3477 123.867 69.4141 123.867 68.1797C123.867 67.2305 123.723 66.4316 123.434 65.7832C123.211 65.2832 122.914 64.916 122.543 64.6816C122.176 64.4434 121.762 64.3242 121.301 64.3242Z" fill="black"/>
<path d="M119.285 132.088C119.684 132.775 120.113 133.281 120.574 133.605C121.039 133.93 121.566 134.115 122.156 134.162V134.35C121.617 134.33 121.041 134.221 120.428 134.021C119.814 133.826 119.232 133.553 118.682 133.201C118.135 132.854 117.662 132.482 117.264 132.088C116.701 131.861 116.256 131.621 115.928 131.367C115.451 130.988 115.08 130.523 114.814 129.973C114.553 129.418 114.422 128.764 114.422 128.01C114.422 126.822 114.807 125.836 115.576 125.051C116.346 124.266 117.277 123.873 118.371 123.873C119.41 123.873 120.309 124.268 121.066 125.057C121.828 125.842 122.209 126.834 122.209 128.033C122.209 129.006 121.938 129.859 121.395 130.594C120.855 131.328 120.152 131.826 119.285 132.088ZM118.301 124.324C117.59 124.324 117.018 124.578 116.584 125.086C116.037 125.723 115.764 126.697 115.764 128.01C115.764 129.295 116.041 130.285 116.596 130.98C117.025 131.516 117.594 131.783 118.301 131.783C119.035 131.783 119.627 131.516 120.076 130.98C120.604 130.348 120.867 129.414 120.867 128.18C120.867 127.23 120.723 126.432 120.434 125.783C120.211 125.283 119.914 124.916 119.543 124.682C119.176 124.443 118.762 124.324 118.301 124.324ZM124.066 126.908V126.633C124.469 126.395 124.742 126.172 124.887 125.965C124.988 125.816 125.039 125.639 125.039 125.432C125.039 125.311 125.018 125.221 124.975 125.162C124.928 125.104 124.877 125.074 124.822 125.074C124.779 125.074 124.723 125.088 124.652 125.115C124.551 125.15 124.467 125.168 124.4 125.168C124.244 125.168 124.105 125.109 123.984 124.992C123.863 124.875 123.803 124.729 123.803 124.553C123.803 124.357 123.863 124.205 123.984 124.096C124.148 123.947 124.344 123.873 124.57 123.873C124.832 123.873 125.066 123.984 125.273 124.207C125.484 124.426 125.59 124.699 125.59 125.027C125.59 125.488 125.416 125.908 125.068 126.287C124.838 126.537 124.504 126.744 124.066 126.908Z" fill="black"/>
<path d="M20.9961 17.5596V17.3789H23.833V17.5596H23.5938C23.3236 17.5596 23.1266 17.6393 23.0029 17.7988C22.9248 17.903 22.8857 18.1536 22.8857 18.5508V21.7881C22.8857 22.2861 22.8304 22.6898 22.7197 22.999C22.6123 23.3083 22.4251 23.5785 22.1582 23.8096C21.8913 24.0374 21.569 24.1514 21.1914 24.1514C20.8854 24.1514 20.6445 24.0765 20.4688 23.9268C20.293 23.7738 20.2051 23.5996 20.2051 23.4043C20.2051 23.2448 20.2458 23.1243 20.3271 23.043C20.4346 22.9421 20.5599 22.8916 20.7031 22.8916C20.8073 22.8916 20.9001 22.9258 20.9814 22.9941C21.0661 23.0625 21.1719 23.2448 21.2988 23.541C21.3737 23.7168 21.4697 23.8047 21.5869 23.8047C21.6748 23.8047 21.7562 23.751 21.8311 23.6436C21.9092 23.5361 21.9482 23.3457 21.9482 23.0723V18.5508C21.9482 18.2155 21.9271 17.9941 21.8848 17.8867C21.8522 17.8053 21.7839 17.7354 21.6797 17.6768C21.5397 17.5986 21.3916 17.5596 21.2354 17.5596H20.9961ZM26.8848 20.3281L29.3262 22.7549C29.7266 23.1553 30.0684 23.4287 30.3516 23.5752C30.6348 23.7184 30.918 23.7998 31.2012 23.8193V24H28.0518V23.8193C28.2406 23.8193 28.3757 23.7884 28.457 23.7266C28.5417 23.6615 28.584 23.5898 28.584 23.5117C28.584 23.4336 28.5677 23.3636 28.5352 23.3018C28.5059 23.2399 28.4049 23.1243 28.2324 22.9551L25.9473 20.6943V22.8281C25.9473 23.1634 25.9684 23.3848 26.0107 23.4922C26.0433 23.5736 26.1117 23.6436 26.2158 23.7021C26.3558 23.7803 26.5039 23.8193 26.6602 23.8193H26.8848V24H24.0625V23.8193H24.2969C24.5703 23.8193 24.7689 23.7396 24.8926 23.5801C24.9707 23.4759 25.0098 23.2253 25.0098 22.8281V18.5508C25.0098 18.2155 24.9886 17.9925 24.9463 17.8818C24.9137 17.8037 24.847 17.7354 24.7461 17.6768C24.6029 17.5986 24.4531 17.5596 24.2969 17.5596H24.0625V17.3789H26.8848V17.5596H26.6602C26.5072 17.5596 26.359 17.597 26.2158 17.6719C26.1149 17.724 26.0449 17.8021 26.0059 17.9062C25.9668 18.0104 25.9473 18.2253 25.9473 18.5508V20.5771C26.0124 20.5153 26.2354 20.3086 26.6162 19.957C27.583 19.0716 28.1673 18.4808 28.3691 18.1846C28.457 18.0544 28.501 17.9404 28.501 17.8428C28.501 17.7679 28.4668 17.7028 28.3984 17.6475C28.3301 17.5889 28.2145 17.5596 28.0518 17.5596H27.9004V17.3789H30.332V17.5596C30.1888 17.5628 30.0586 17.5824 29.9414 17.6182C29.8242 17.654 29.681 17.724 29.5117 17.8281C29.3424 17.929 29.1341 18.0934 28.8867 18.3213C28.8151 18.3864 28.4847 18.7201 27.8955 19.3223L26.8848 20.3281ZM35.6689 17.7402V20.3428H36.875C37.1517 20.3428 37.3535 20.2826 37.4805 20.1621C37.6107 20.0384 37.6969 19.7959 37.7393 19.4346H37.9199V21.6758H37.7393C37.736 21.4186 37.7018 21.2298 37.6367 21.1094C37.5749 20.9889 37.487 20.8994 37.373 20.8408C37.2624 20.779 37.0964 20.748 36.875 20.748H35.6689V22.8281C35.6689 23.1634 35.6901 23.3848 35.7324 23.4922C35.765 23.5736 35.8333 23.6436 35.9375 23.7021C36.0807 23.7803 36.2305 23.8193 36.3867 23.8193H36.626V24H33.7842V23.8193H34.0186C34.292 23.8193 34.4906 23.7396 34.6143 23.5801C34.6924 23.4759 34.7314 23.2253 34.7314 22.8281V18.5508C34.7314 18.2155 34.7103 17.9941 34.668 17.8867C34.6354 17.8053 34.5687 17.7354 34.4678 17.6768C34.3278 17.5986 34.1781 17.5596 34.0186 17.5596H33.7842V17.3789H38.7109L38.7744 18.834H38.6035C38.5189 18.5247 38.4196 18.2985 38.3057 18.1553C38.195 18.0088 38.0566 17.903 37.8906 17.8379C37.7279 17.7728 37.474 17.7402 37.1289 17.7402H35.6689ZM41.04 17.0566V22.9893C41.04 23.2692 41.0596 23.4548 41.0986 23.5459C41.141 23.637 41.2044 23.707 41.2891 23.7559C41.3737 23.8014 41.5316 23.8242 41.7627 23.8242V24H39.5703V23.8242C39.7754 23.8242 39.9154 23.8031 39.9902 23.7607C40.0651 23.7184 40.1237 23.6484 40.166 23.5508C40.2083 23.4531 40.2295 23.266 40.2295 22.9893V18.9268C40.2295 18.4222 40.2181 18.113 40.1953 17.999C40.1725 17.8818 40.1351 17.8021 40.083 17.7598C40.0342 17.7174 39.9707 17.6963 39.8926 17.6963C39.8079 17.6963 39.7005 17.7223 39.5703 17.7744L39.4873 17.6035L40.8203 17.0566H41.04ZM43.4229 17.0566C43.5596 17.0566 43.6751 17.1055 43.7695 17.2031C43.8672 17.2975 43.916 17.4131 43.916 17.5498C43.916 17.6865 43.8672 17.8037 43.7695 17.9014C43.6751 17.999 43.5596 18.0479 43.4229 18.0479C43.2861 18.0479 43.1689 17.999 43.0713 17.9014C42.9736 17.8037 42.9248 17.6865 42.9248 17.5498C42.9248 17.4131 42.972 17.2975 43.0664 17.2031C43.1641 17.1055 43.2829 17.0566 43.4229 17.0566ZM43.8281 19.3955V22.9893C43.8281 23.2692 43.8477 23.4564 43.8867 23.5508C43.929 23.6419 43.9893 23.7103 44.0674 23.7559C44.1488 23.8014 44.2952 23.8242 44.5068 23.8242V24H42.334V23.8242C42.5521 23.8242 42.6986 23.8031 42.7734 23.7607C42.8483 23.7184 42.9069 23.6484 42.9492 23.5508C42.9948 23.4531 43.0176 23.266 43.0176 22.9893V21.2656C43.0176 20.7806 43.0029 20.4665 42.9736 20.3232C42.9508 20.2191 42.915 20.1475 42.8662 20.1084C42.8174 20.0661 42.7507 20.0449 42.666 20.0449C42.5749 20.0449 42.4642 20.0693 42.334 20.1182L42.2656 19.9424L43.6133 19.3955H43.8281ZM44.7461 19.9717L46.123 19.415H46.3086V20.46C46.5397 20.0661 46.7708 19.791 47.002 19.6348C47.2363 19.4753 47.4821 19.3955 47.7393 19.3955C48.1885 19.3955 48.5628 19.5713 48.8623 19.9229C49.2301 20.3525 49.4141 20.9124 49.4141 21.6025C49.4141 22.374 49.1927 23.012 48.75 23.5166C48.3854 23.93 47.9264 24.1367 47.373 24.1367C47.1322 24.1367 46.9238 24.1025 46.748 24.0342C46.6178 23.9854 46.4714 23.8877 46.3086 23.7412V25.1035C46.3086 25.4095 46.3265 25.6032 46.3623 25.6846C46.4014 25.7692 46.4665 25.8359 46.5576 25.8848C46.652 25.9336 46.8213 25.958 47.0654 25.958V26.1387H44.7217V25.958H44.8438C45.0228 25.9613 45.1758 25.9271 45.3027 25.8555C45.3646 25.8197 45.4118 25.7611 45.4443 25.6797C45.4801 25.6016 45.498 25.3997 45.498 25.0742V20.8457C45.498 20.556 45.485 20.3721 45.459 20.2939C45.4329 20.2158 45.3906 20.1572 45.332 20.1182C45.2767 20.0791 45.2002 20.0596 45.1025 20.0596C45.0244 20.0596 44.9251 20.0824 44.8047 20.1279L44.7461 19.9717ZM46.3086 20.748V22.418C46.3086 22.7793 46.3232 23.0169 46.3525 23.1309C46.3981 23.3197 46.5088 23.4857 46.6846 23.6289C46.8636 23.7721 47.0882 23.8438 47.3584 23.8438C47.6839 23.8438 47.9476 23.7168 48.1494 23.4629C48.4131 23.1309 48.5449 22.6637 48.5449 22.0615C48.5449 21.3779 48.3952 20.8522 48.0957 20.4844C47.8874 20.2305 47.64 20.1035 47.3535 20.1035C47.1973 20.1035 47.0426 20.1426 46.8896 20.2207C46.7725 20.2793 46.5788 20.4551 46.3086 20.748ZM50.1611 21.3877H52.6855V22.125H50.1611V21.3877ZM55.1318 17.7402V20.3428H56.3379C56.6146 20.3428 56.8164 20.2826 56.9434 20.1621C57.0736 20.0384 57.1598 19.7959 57.2021 19.4346H57.3828V21.6758H57.2021C57.1989 21.4186 57.1647 21.2298 57.0996 21.1094C57.0378 20.9889 56.9499 20.8994 56.8359 20.8408C56.7253 20.779 56.5592 20.748 56.3379 20.748H55.1318V22.8281C55.1318 23.1634 55.153 23.3848 55.1953 23.4922C55.2279 23.5736 55.2962 23.6436 55.4004 23.7021C55.5436 23.7803 55.6934 23.8193 55.8496 23.8193H56.0889V24H53.2471V23.8193H53.4814C53.7549 23.8193 53.9535 23.7396 54.0771 23.5801C54.1553 23.4759 54.1943 23.2253 54.1943 22.8281V18.5508C54.1943 18.2155 54.1732 17.9941 54.1309 17.8867C54.0983 17.8053 54.0316 17.7354 53.9307 17.6768C53.7907 17.5986 53.641 17.5596 53.4814 17.5596H53.2471V17.3789H58.1738L58.2373 18.834H58.0664C57.9818 18.5247 57.8825 18.2985 57.7686 18.1553C57.6579 18.0088 57.5195 17.903 57.3535 17.8379C57.1908 17.7728 56.9368 17.7402 56.5918 17.7402H55.1318ZM60.5029 17.0566V22.9893C60.5029 23.2692 60.5225 23.4548 60.5615 23.5459C60.6038 23.637 60.6673 23.707 60.752 23.7559C60.8366 23.8014 60.9945 23.8242 61.2256 23.8242V24H59.0332V23.8242C59.2383 23.8242 59.3783 23.8031 59.4531 23.7607C59.528 23.7184 59.5866 23.6484 59.6289 23.5508C59.6712 23.4531 59.6924 23.266 59.6924 22.9893V18.9268C59.6924 18.4222 59.681 18.113 59.6582 17.999C59.6354 17.8818 59.598 17.8021 59.5459 17.7598C59.4971 17.7174 59.4336 17.6963 59.3555 17.6963C59.2708 17.6963 59.1634 17.7223 59.0332 17.7744L58.9502 17.6035L60.2832 17.0566H60.5029ZM63.9355 19.3955C64.6126 19.3955 65.1562 19.6527 65.5664 20.167C65.9147 20.6064 66.0889 21.111 66.0889 21.6807C66.0889 22.0811 65.9928 22.4863 65.8008 22.8965C65.6087 23.3066 65.3434 23.6159 65.0049 23.8242C64.6696 24.0326 64.2952 24.1367 63.8818 24.1367C63.208 24.1367 62.6725 23.8682 62.2754 23.3311C61.9401 22.8786 61.7725 22.3708 61.7725 21.8076C61.7725 21.3975 61.8734 20.9906 62.0752 20.5869C62.2803 20.18 62.5488 19.8805 62.8809 19.6885C63.2129 19.4932 63.5645 19.3955 63.9355 19.3955ZM63.7842 19.7129C63.6117 19.7129 63.4375 19.765 63.2617 19.8691C63.0892 19.9701 62.9492 20.1491 62.8418 20.4062C62.7344 20.6634 62.6807 20.9938 62.6807 21.3975C62.6807 22.0485 62.8092 22.61 63.0664 23.082C63.3268 23.554 63.6686 23.79 64.0918 23.79C64.4076 23.79 64.668 23.6598 64.873 23.3994C65.0781 23.139 65.1807 22.6914 65.1807 22.0566C65.1807 21.2624 65.0098 20.6374 64.668 20.1816C64.4368 19.8691 64.1423 19.7129 63.7842 19.7129ZM66.4258 19.9717L67.8027 19.415H67.9883V20.46C68.2194 20.0661 68.4505 19.791 68.6816 19.6348C68.916 19.4753 69.1618 19.3955 69.4189 19.3955C69.8682 19.3955 70.2425 19.5713 70.542 19.9229C70.9098 20.3525 71.0938 20.9124 71.0938 21.6025C71.0938 22.374 70.8724 23.012 70.4297 23.5166C70.0651 23.93 69.6061 24.1367 69.0527 24.1367C68.8118 24.1367 68.6035 24.1025 68.4277 24.0342C68.2975 23.9854 68.151 23.8877 67.9883 23.7412V25.1035C67.9883 25.4095 68.0062 25.6032 68.042 25.6846C68.0811 25.7692 68.1462 25.8359 68.2373 25.8848C68.3317 25.9336 68.501 25.958 68.7451 25.958V26.1387H66.4014V25.958H66.5234C66.7025 25.9613 66.8555 25.9271 66.9824 25.8555C67.0443 25.8197 67.0915 25.7611 67.124 25.6797C67.1598 25.6016 67.1777 25.3997 67.1777 25.0742V20.8457C67.1777 20.556 67.1647 20.3721 67.1387 20.2939C67.1126 20.2158 67.0703 20.1572 67.0117 20.1182C66.9564 20.0791 66.8799 20.0596 66.7822 20.0596C66.7041 20.0596 66.6048 20.0824 66.4844 20.1279L66.4258 19.9717ZM67.9883 20.748V22.418C67.9883 22.7793 68.0029 23.0169 68.0322 23.1309C68.0778 23.3197 68.1885 23.4857 68.3643 23.6289C68.5433 23.7721 68.7679 23.8438 69.0381 23.8438C69.3636 23.8438 69.6273 23.7168 69.8291 23.4629C70.0928 23.1309 70.2246 22.6637 70.2246 22.0615C70.2246 21.3779 70.0749 20.8522 69.7754 20.4844C69.5671 20.2305 69.3197 20.1035 69.0332 20.1035C68.877 20.1035 68.7223 20.1426 68.5693 20.2207C68.4521 20.2793 68.2585 20.4551 67.9883 20.748ZM73.8037 17.3789H75.6006L79.6484 22.3447V18.5264C79.6484 18.1195 79.6029 17.8656 79.5117 17.7646C79.3913 17.6279 79.2008 17.5596 78.9404 17.5596H78.7109V17.3789H81.0156V17.5596H80.7812C80.5013 17.5596 80.3027 17.6442 80.1855 17.8135C80.1139 17.9176 80.0781 18.1553 80.0781 18.5264V24.1074H79.9023L75.5371 18.7754V22.8525C75.5371 23.2594 75.5811 23.5133 75.6689 23.6143C75.7926 23.751 75.9831 23.8193 76.2402 23.8193H76.4746V24H74.1699V23.8193H74.3994C74.6826 23.8193 74.8828 23.7347 75 23.5654C75.0716 23.4613 75.1074 23.2236 75.1074 22.8525V18.248C74.9154 18.0234 74.7689 17.8753 74.668 17.8037C74.5703 17.7321 74.4255 17.6654 74.2334 17.6035C74.139 17.5742 73.9958 17.5596 73.8037 17.5596V17.3789ZM82.2266 21.2119C82.2233 21.876 82.3844 22.3968 82.71 22.7744C83.0355 23.152 83.418 23.3408 83.8574 23.3408C84.1504 23.3408 84.4043 23.2611 84.6191 23.1016C84.8372 22.9388 85.0195 22.6621 85.166 22.2715L85.3174 22.3691C85.249 22.8151 85.0505 23.222 84.7217 23.5898C84.3929 23.9544 83.9811 24.1367 83.4863 24.1367C82.9492 24.1367 82.4886 23.9284 82.1045 23.5117C81.7236 23.0918 81.5332 22.5286 81.5332 21.8223C81.5332 21.0573 81.7285 20.4616 82.1191 20.0352C82.513 19.6055 83.0062 19.3906 83.5986 19.3906C84.0999 19.3906 84.5117 19.5566 84.834 19.8887C85.1562 20.2174 85.3174 20.6585 85.3174 21.2119H82.2266ZM82.2266 20.9287H84.2969C84.2806 20.6423 84.2464 20.4404 84.1943 20.3232C84.113 20.141 83.9909 19.9977 83.8281 19.8936C83.6686 19.7894 83.501 19.7373 83.3252 19.7373C83.055 19.7373 82.8125 19.8431 82.5977 20.0547C82.3861 20.263 82.2624 20.5544 82.2266 20.9287ZM87.1143 22.3691C86.8408 22.2357 86.6309 22.0501 86.4844 21.8125C86.3379 21.5716 86.2646 21.3063 86.2646 21.0166C86.2646 20.5739 86.4307 20.193 86.7627 19.874C87.098 19.555 87.526 19.3955 88.0469 19.3955C88.4733 19.3955 88.8428 19.4997 89.1553 19.708H90.1025C90.2425 19.708 90.3239 19.7129 90.3467 19.7227C90.3695 19.7292 90.3857 19.7422 90.3955 19.7617C90.415 19.791 90.4248 19.8431 90.4248 19.918C90.4248 20.0026 90.4167 20.0612 90.4004 20.0938C90.3906 20.11 90.3727 20.123 90.3467 20.1328C90.3239 20.1426 90.2425 20.1475 90.1025 20.1475H89.5215C89.7038 20.3818 89.7949 20.6813 89.7949 21.0459C89.7949 21.4626 89.6354 21.819 89.3164 22.1152C88.9974 22.4115 88.5693 22.5596 88.0322 22.5596C87.8109 22.5596 87.5846 22.527 87.3535 22.4619C87.2103 22.5856 87.1126 22.6947 87.0605 22.7891C87.0117 22.8802 86.9873 22.9583 86.9873 23.0234C86.9873 23.0788 87.0133 23.1325 87.0654 23.1846C87.1208 23.2367 87.2266 23.2741 87.3828 23.2969C87.474 23.3099 87.7018 23.3213 88.0664 23.3311C88.737 23.3473 89.1715 23.3701 89.3701 23.3994C89.6729 23.4417 89.9137 23.554 90.0928 23.7363C90.2751 23.9186 90.3662 24.1432 90.3662 24.4102C90.3662 24.778 90.1937 25.123 89.8486 25.4453C89.3408 25.9206 88.6784 26.1582 87.8613 26.1582C87.2331 26.1582 86.7025 26.0166 86.2695 25.7334C86.0254 25.5706 85.9033 25.4014 85.9033 25.2256C85.9033 25.1475 85.9212 25.0693 85.957 24.9912C86.0124 24.8708 86.1263 24.7031 86.2988 24.4883C86.3216 24.459 86.4876 24.2832 86.7969 23.9609C86.6276 23.86 86.5072 23.7705 86.4355 23.6924C86.3672 23.611 86.333 23.5199 86.333 23.4189C86.333 23.305 86.3786 23.1715 86.4697 23.0186C86.5641 22.8656 86.779 22.6491 87.1143 22.3691ZM87.9639 19.6299C87.723 19.6299 87.5212 19.7259 87.3584 19.918C87.1956 20.11 87.1143 20.4046 87.1143 20.8018C87.1143 21.3161 87.2249 21.7148 87.4463 21.998C87.6156 22.2129 87.8304 22.3203 88.0908 22.3203C88.3382 22.3203 88.5417 22.2275 88.7012 22.042C88.8607 21.8564 88.9404 21.5651 88.9404 21.168C88.9404 20.6504 88.8281 20.2451 88.6035 19.9521C88.4375 19.7373 88.2243 19.6299 87.9639 19.6299ZM87.0654 24C86.9124 24.166 86.7969 24.3206 86.7188 24.4639C86.6406 24.6071 86.6016 24.7389 86.6016 24.8594C86.6016 25.0156 86.696 25.1523 86.8848 25.2695C87.2103 25.4714 87.6807 25.5723 88.2959 25.5723C88.8818 25.5723 89.3132 25.4681 89.5898 25.2598C89.8698 25.0547 90.0098 24.835 90.0098 24.6006C90.0098 24.4313 89.9268 24.3109 89.7607 24.2393C89.5915 24.1676 89.2562 24.1253 88.7549 24.1123C88.0225 24.0928 87.4593 24.0553 87.0654 24ZM93.4521 23.3555C92.9932 23.7103 92.7051 23.9154 92.5879 23.9707C92.4121 24.0521 92.2249 24.0928 92.0264 24.0928C91.7171 24.0928 91.4616 23.987 91.2598 23.7754C91.0612 23.5638 90.9619 23.2855 90.9619 22.9404C90.9619 22.7223 91.0107 22.5335 91.1084 22.374C91.2419 22.1527 91.473 21.9443 91.8018 21.749C92.1338 21.5537 92.6839 21.3161 93.4521 21.0361V20.8604C93.4521 20.4144 93.3805 20.1084 93.2373 19.9424C93.0973 19.7764 92.8923 19.6934 92.6221 19.6934C92.417 19.6934 92.2542 19.7487 92.1338 19.8594C92.0101 19.9701 91.9482 20.097 91.9482 20.2402L91.958 20.5234C91.958 20.6732 91.9189 20.7887 91.8408 20.8701C91.766 20.9515 91.6667 20.9922 91.543 20.9922C91.4225 20.9922 91.3232 20.9499 91.2451 20.8652C91.1702 20.7806 91.1328 20.665 91.1328 20.5186C91.1328 20.2386 91.276 19.9814 91.5625 19.7471C91.849 19.5127 92.251 19.3955 92.7686 19.3955C93.1657 19.3955 93.4912 19.4622 93.7451 19.5957C93.9372 19.6966 94.0788 19.8545 94.1699 20.0693C94.2285 20.2093 94.2578 20.4958 94.2578 20.9287V22.4473C94.2578 22.8737 94.266 23.1357 94.2822 23.2334C94.2985 23.3278 94.3245 23.3913 94.3604 23.4238C94.3994 23.4564 94.4434 23.4727 94.4922 23.4727C94.5443 23.4727 94.5898 23.4613 94.6289 23.4385C94.6973 23.3962 94.8291 23.2773 95.0244 23.082V23.3555C94.6598 23.8438 94.3115 24.0879 93.9795 24.0879C93.82 24.0879 93.693 24.0326 93.5986 23.9219C93.5042 23.8112 93.4554 23.6224 93.4521 23.3555ZM93.4521 23.0381V21.334C92.9606 21.5293 92.6432 21.6676 92.5 21.749C92.2428 21.8923 92.0589 22.042 91.9482 22.1982C91.8376 22.3545 91.7822 22.5254 91.7822 22.7109C91.7822 22.9453 91.8522 23.1406 91.9922 23.2969C92.1322 23.4499 92.2933 23.5264 92.4756 23.5264C92.723 23.5264 93.0485 23.3636 93.4521 23.0381ZM96.6602 18.0576V19.5273H97.7051V19.8691H96.6602V22.7695C96.6602 23.0592 96.7008 23.2546 96.7822 23.3555C96.8669 23.4564 96.9743 23.5068 97.1045 23.5068C97.2119 23.5068 97.3161 23.4743 97.417 23.4092C97.5179 23.3408 97.596 23.2415 97.6514 23.1113H97.8418C97.7279 23.4303 97.5667 23.6712 97.3584 23.834C97.1501 23.9935 96.9352 24.0732 96.7139 24.0732C96.5641 24.0732 96.4176 24.0326 96.2744 23.9512C96.1312 23.8665 96.0254 23.7477 95.957 23.5947C95.8887 23.4385 95.8545 23.1992 95.8545 22.877V19.8691H95.1465V19.708C95.3255 19.6364 95.5078 19.516 95.6934 19.3467C95.8822 19.1742 96.0498 18.9707 96.1963 18.7363C96.2712 18.6126 96.3753 18.3864 96.5088 18.0576H96.6602ZM99.2822 17.0566C99.4189 17.0566 99.5345 17.1055 99.6289 17.2031C99.7266 17.2975 99.7754 17.4131 99.7754 17.5498C99.7754 17.6865 99.7266 17.8037 99.6289 17.9014C99.5345 17.999 99.4189 18.0479 99.2822 18.0479C99.1455 18.0479 99.0283 17.999 98.9307 17.9014C98.833 17.8037 98.7842 17.6865 98.7842 17.5498C98.7842 17.4131 98.8314 17.2975 98.9258 17.2031C99.0234 17.1055 99.1423 17.0566 99.2822 17.0566ZM99.6875 19.3955V22.9893C99.6875 23.2692 99.707 23.4564 99.7461 23.5508C99.7884 23.6419 99.8486 23.7103 99.9268 23.7559C100.008 23.8014 100.155 23.8242 100.366 23.8242V24H98.1934V23.8242C98.4115 23.8242 98.5579 23.8031 98.6328 23.7607C98.7077 23.7184 98.7663 23.6484 98.8086 23.5508C98.8542 23.4531 98.877 23.266 98.877 22.9893V21.2656C98.877 20.7806 98.8623 20.4665 98.833 20.3232C98.8102 20.2191 98.7744 20.1475 98.7256 20.1084C98.6768 20.0661 98.61 20.0449 98.5254 20.0449C98.4342 20.0449 98.3236 20.0693 98.1934 20.1182L98.125 19.9424L99.4727 19.3955H99.6875ZM100.698 19.5273H102.803V19.708H102.666C102.539 19.708 102.441 19.7389 102.373 19.8008C102.308 19.8626 102.275 19.9456 102.275 20.0498C102.275 20.1637 102.31 20.2988 102.378 20.4551L103.418 22.9258L104.463 20.3623C104.538 20.18 104.575 20.0417 104.575 19.9473C104.575 19.9017 104.562 19.8643 104.536 19.835C104.5 19.7861 104.455 19.7536 104.399 19.7373C104.344 19.7178 104.232 19.708 104.062 19.708V19.5273H105.522V19.708C105.353 19.721 105.236 19.7552 105.171 19.8105C105.057 19.9082 104.954 20.071 104.863 20.2988L103.276 24.1367H103.076L101.479 20.3623C101.408 20.1865 101.34 20.0612 101.274 19.9863C101.209 19.9082 101.126 19.8431 101.025 19.791C100.97 19.7617 100.861 19.734 100.698 19.708V19.5273ZM106.68 21.2119C106.676 21.876 106.838 22.3968 107.163 22.7744C107.489 23.152 107.871 23.3408 108.311 23.3408C108.604 23.3408 108.857 23.2611 109.072 23.1016C109.29 22.9388 109.473 22.6621 109.619 22.2715L109.771 22.3691C109.702 22.8151 109.504 23.222 109.175 23.5898C108.846 23.9544 108.434 24.1367 107.939 24.1367C107.402 24.1367 106.942 23.9284 106.558 23.5117C106.177 23.0918 105.986 22.5286 105.986 21.8223C105.986 21.0573 106.182 20.4616 106.572 20.0352C106.966 19.6055 107.459 19.3906 108.052 19.3906C108.553 19.3906 108.965 19.5566 109.287 19.8887C109.609 20.2174 109.771 20.6585 109.771 21.2119H106.68ZM106.68 20.9287H108.75C108.734 20.6423 108.7 20.4404 108.647 20.3232C108.566 20.141 108.444 19.9977 108.281 19.8936C108.122 19.7894 107.954 19.7373 107.778 19.7373C107.508 19.7373 107.266 19.8431 107.051 20.0547C106.839 20.263 106.715 20.5544 106.68 20.9287ZM114.648 17.7402V20.3574H116.104C116.481 20.3574 116.733 20.3005 116.86 20.1865C117.03 20.0368 117.124 19.7731 117.144 19.3955H117.324V21.7002H117.144C117.098 21.3779 117.052 21.1712 117.007 21.0801C116.948 20.9661 116.852 20.8766 116.719 20.8115C116.585 20.7464 116.38 20.7139 116.104 20.7139H114.648V22.8965C114.648 23.1895 114.661 23.3685 114.688 23.4336C114.714 23.4954 114.759 23.5459 114.824 23.585C114.889 23.6208 115.013 23.6387 115.195 23.6387H116.318C116.693 23.6387 116.965 23.6126 117.134 23.5605C117.303 23.5085 117.466 23.4059 117.622 23.2529C117.824 23.0511 118.031 22.7467 118.242 22.3398H118.438L117.866 24H112.764V23.8193H112.998C113.154 23.8193 113.302 23.7819 113.442 23.707C113.547 23.6549 113.617 23.5768 113.652 23.4727C113.691 23.3685 113.711 23.1553 113.711 22.833V18.5312C113.711 18.1113 113.669 17.8525 113.584 17.7549C113.467 17.6247 113.271 17.5596 112.998 17.5596H112.764V17.3789H117.866L117.939 18.8291H117.749C117.681 18.4808 117.604 18.2415 117.52 18.1113C117.438 17.9811 117.316 17.8818 117.153 17.8135C117.023 17.7646 116.794 17.7402 116.465 17.7402H114.648ZM122.144 23.4971C121.925 23.7249 121.712 23.8893 121.504 23.9902C121.296 24.0879 121.071 24.1367 120.83 24.1367C120.342 24.1367 119.915 23.9333 119.551 23.5264C119.186 23.1162 119.004 22.5905 119.004 21.9492C119.004 21.3079 119.206 20.722 119.609 20.1914C120.013 19.6576 120.532 19.3906 121.167 19.3906C121.561 19.3906 121.886 19.516 122.144 19.7666V18.9414C122.144 18.4303 122.131 18.1162 122.104 17.999C122.082 17.8818 122.044 17.8021 121.992 17.7598C121.94 17.7174 121.875 17.6963 121.797 17.6963C121.712 17.6963 121.6 17.7223 121.46 17.7744L121.396 17.6035L122.729 17.0566H122.949V22.2275C122.949 22.7516 122.961 23.0723 122.983 23.1895C123.009 23.3034 123.049 23.3831 123.101 23.4287C123.156 23.4743 123.219 23.4971 123.291 23.4971C123.379 23.4971 123.496 23.4694 123.643 23.4141L123.696 23.585L122.368 24.1367H122.144V23.4971ZM122.144 23.1553V20.8506C122.124 20.6292 122.065 20.4274 121.968 20.2451C121.87 20.0628 121.74 19.9261 121.577 19.835C121.418 19.7406 121.261 19.6934 121.108 19.6934C120.822 19.6934 120.566 19.8219 120.342 20.0791C120.046 20.4176 119.897 20.9124 119.897 21.5635C119.897 22.221 120.041 22.7256 120.327 23.0771C120.614 23.4255 120.933 23.5996 121.284 23.5996C121.58 23.5996 121.867 23.4515 122.144 23.1553ZM125.181 22.3691C124.907 22.2357 124.697 22.0501 124.551 21.8125C124.404 21.5716 124.331 21.3063 124.331 21.0166C124.331 20.5739 124.497 20.193 124.829 19.874C125.164 19.555 125.592 19.3955 126.113 19.3955C126.54 19.3955 126.909 19.4997 127.222 19.708H128.169C128.309 19.708 128.39 19.7129 128.413 19.7227C128.436 19.7292 128.452 19.7422 128.462 19.7617C128.481 19.791 128.491 19.8431 128.491 19.918C128.491 20.0026 128.483 20.0612 128.467 20.0938C128.457 20.11 128.439 20.123 128.413 20.1328C128.39 20.1426 128.309 20.1475 128.169 20.1475H127.588C127.77 20.3818 127.861 20.6813 127.861 21.0459C127.861 21.4626 127.702 21.819 127.383 22.1152C127.064 22.4115 126.636 22.5596 126.099 22.5596C125.877 22.5596 125.651 22.527 125.42 22.4619C125.277 22.5856 125.179 22.6947 125.127 22.7891C125.078 22.8802 125.054 22.9583 125.054 23.0234C125.054 23.0788 125.08 23.1325 125.132 23.1846C125.187 23.2367 125.293 23.2741 125.449 23.2969C125.54 23.3099 125.768 23.3213 126.133 23.3311C126.803 23.3473 127.238 23.3701 127.437 23.3994C127.739 23.4417 127.98 23.554 128.159 23.7363C128.341 23.9186 128.433 24.1432 128.433 24.4102C128.433 24.778 128.26 25.123 127.915 25.4453C127.407 25.9206 126.745 26.1582 125.928 26.1582C125.299 26.1582 124.769 26.0166 124.336 25.7334C124.092 25.5706 123.97 25.4014 123.97 25.2256C123.97 25.1475 123.988 25.0693 124.023 24.9912C124.079 24.8708 124.193 24.7031 124.365 24.4883C124.388 24.459 124.554 24.2832 124.863 23.9609C124.694 23.86 124.574 23.7705 124.502 23.6924C124.434 23.611 124.399 23.5199 124.399 23.4189C124.399 23.305 124.445 23.1715 124.536 23.0186C124.631 22.8656 124.845 22.6491 125.181 22.3691ZM126.03 19.6299C125.789 19.6299 125.588 19.7259 125.425 19.918C125.262 20.11 125.181 20.4046 125.181 20.8018C125.181 21.3161 125.291 21.7148 125.513 21.998C125.682 22.2129 125.897 22.3203 126.157 22.3203C126.405 22.3203 126.608 22.2275 126.768 22.042C126.927 21.8564 127.007 21.5651 127.007 21.168C127.007 20.6504 126.895 20.2451 126.67 19.9521C126.504 19.7373 126.291 19.6299 126.03 19.6299ZM125.132 24C124.979 24.166 124.863 24.3206 124.785 24.4639C124.707 24.6071 124.668 24.7389 124.668 24.8594C124.668 25.0156 124.762 25.1523 124.951 25.2695C125.277 25.4714 125.747 25.5723 126.362 25.5723C126.948 25.5723 127.38 25.4681 127.656 25.2598C127.936 25.0547 128.076 24.835 128.076 24.6006C128.076 24.4313 127.993 24.3109 127.827 24.2393C127.658 24.1676 127.323 24.1253 126.821 24.1123C126.089 24.0928 125.526 24.0553 125.132 24ZM129.736 21.2119C129.733 21.876 129.894 22.3968 130.22 22.7744C130.545 23.152 130.928 23.3408 131.367 23.3408C131.66 23.3408 131.914 23.2611 132.129 23.1016C132.347 22.9388 132.529 22.6621 132.676 22.2715L132.827 22.3691C132.759 22.8151 132.56 23.222 132.231 23.5898C131.903 23.9544 131.491 24.1367 130.996 24.1367C130.459 24.1367 129.998 23.9284 129.614 23.5117C129.233 23.0918 129.043 22.5286 129.043 21.8223C129.043 21.0573 129.238 20.4616 129.629 20.0352C130.023 19.6055 130.516 19.3906 131.108 19.3906C131.61 19.3906 132.021 19.5566 132.344 19.8887C132.666 20.2174 132.827 20.6585 132.827 21.2119H129.736ZM129.736 20.9287H131.807C131.79 20.6423 131.756 20.4404 131.704 20.3232C131.623 20.141 131.501 19.9977 131.338 19.8936C131.178 19.7894 131.011 19.7373 130.835 19.7373C130.565 19.7373 130.322 19.8431 130.107 20.0547C129.896 20.263 129.772 20.5544 129.736 20.9287ZM141.216 17.3789L141.289 18.9316H141.104C141.068 18.6582 141.019 18.4629 140.957 18.3457C140.856 18.1569 140.721 18.0186 140.552 17.9307C140.386 17.8395 140.166 17.7939 139.893 17.7939H138.96V22.8525C138.96 23.2594 139.004 23.5133 139.092 23.6143C139.215 23.751 139.406 23.8193 139.663 23.8193H139.893V24H137.085V23.8193H137.319C137.599 23.8193 137.798 23.7347 137.915 23.5654C137.987 23.4613 138.022 23.2236 138.022 22.8525V17.7939H137.227C136.917 17.7939 136.698 17.8167 136.567 17.8623C136.398 17.9242 136.253 18.043 136.133 18.2188C136.012 18.3945 135.941 18.6322 135.918 18.9316H135.732L135.811 17.3789H141.216ZM142.812 19.3955V20.4014C143.187 19.7308 143.571 19.3955 143.965 19.3955C144.144 19.3955 144.292 19.4508 144.409 19.5615C144.526 19.6689 144.585 19.7943 144.585 19.9375C144.585 20.0645 144.543 20.1719 144.458 20.2598C144.373 20.3477 144.272 20.3916 144.155 20.3916C144.041 20.3916 143.913 20.3363 143.77 20.2256C143.63 20.1117 143.525 20.0547 143.457 20.0547C143.398 20.0547 143.335 20.0872 143.267 20.1523C143.12 20.2858 142.969 20.5055 142.812 20.8115V22.9551C142.812 23.2025 142.843 23.3896 142.905 23.5166C142.948 23.6045 143.022 23.6777 143.13 23.7363C143.237 23.7949 143.392 23.8242 143.594 23.8242V24H141.304V23.8242C141.532 23.8242 141.701 23.7884 141.812 23.7168C141.893 23.6647 141.95 23.5817 141.982 23.4678C141.999 23.4124 142.007 23.2546 142.007 22.9941V21.2607C142.007 20.7399 141.995 20.4307 141.973 20.333C141.953 20.2321 141.914 20.1589 141.855 20.1133C141.8 20.0677 141.73 20.0449 141.646 20.0449C141.545 20.0449 141.431 20.0693 141.304 20.1182L141.255 19.9424L142.607 19.3955H142.812ZM145.972 17.0566C146.108 17.0566 146.224 17.1055 146.318 17.2031C146.416 17.2975 146.465 17.4131 146.465 17.5498C146.465 17.6865 146.416 17.8037 146.318 17.9014C146.224 17.999 146.108 18.0479 145.972 18.0479C145.835 18.0479 145.718 17.999 145.62 17.9014C145.522 17.8037 145.474 17.6865 145.474 17.5498C145.474 17.4131 145.521 17.2975 145.615 17.2031C145.713 17.1055 145.832 17.0566 145.972 17.0566ZM146.377 19.3955V22.9893C146.377 23.2692 146.396 23.4564 146.436 23.5508C146.478 23.6419 146.538 23.7103 146.616 23.7559C146.698 23.8014 146.844 23.8242 147.056 23.8242V24H144.883V23.8242C145.101 23.8242 145.247 23.8031 145.322 23.7607C145.397 23.7184 145.456 23.6484 145.498 23.5508C145.544 23.4531 145.566 23.266 145.566 22.9893V21.2656C145.566 20.7806 145.552 20.4665 145.522 20.3232C145.5 20.2191 145.464 20.1475 145.415 20.1084C145.366 20.0661 145.299 20.0449 145.215 20.0449C145.124 20.0449 145.013 20.0693 144.883 20.1182L144.814 19.9424L146.162 19.3955H146.377ZM148.813 22.3691C148.54 22.2357 148.33 22.0501 148.184 21.8125C148.037 21.5716 147.964 21.3063 147.964 21.0166C147.964 20.5739 148.13 20.193 148.462 19.874C148.797 19.555 149.225 19.3955 149.746 19.3955C150.173 19.3955 150.542 19.4997 150.854 19.708H151.802C151.942 19.708 152.023 19.7129 152.046 19.7227C152.069 19.7292 152.085 19.7422 152.095 19.7617C152.114 19.791 152.124 19.8431 152.124 19.918C152.124 20.0026 152.116 20.0612 152.1 20.0938C152.09 20.11 152.072 20.123 152.046 20.1328C152.023 20.1426 151.942 20.1475 151.802 20.1475H151.221C151.403 20.3818 151.494 20.6813 151.494 21.0459C151.494 21.4626 151.335 21.819 151.016 22.1152C150.697 22.4115 150.269 22.5596 149.731 22.5596C149.51 22.5596 149.284 22.527 149.053 22.4619C148.91 22.5856 148.812 22.6947 148.76 22.7891C148.711 22.8802 148.687 22.9583 148.687 23.0234C148.687 23.0788 148.713 23.1325 148.765 23.1846C148.82 23.2367 148.926 23.2741 149.082 23.2969C149.173 23.3099 149.401 23.3213 149.766 23.3311C150.436 23.3473 150.871 23.3701 151.069 23.3994C151.372 23.4417 151.613 23.554 151.792 23.7363C151.974 23.9186 152.065 24.1432 152.065 24.4102C152.065 24.778 151.893 25.123 151.548 25.4453C151.04 25.9206 150.378 26.1582 149.561 26.1582C148.932 26.1582 148.402 26.0166 147.969 25.7334C147.725 25.5706 147.603 25.4014 147.603 25.2256C147.603 25.1475 147.62 25.0693 147.656 24.9912C147.712 24.8708 147.826 24.7031 147.998 24.4883C148.021 24.459 148.187 24.2832 148.496 23.9609C148.327 23.86 148.206 23.7705 148.135 23.6924C148.066 23.611 148.032 23.5199 148.032 23.4189C148.032 23.305 148.078 23.1715 148.169 23.0186C148.263 22.8656 148.478 22.6491 148.813 22.3691ZM149.663 19.6299C149.422 19.6299 149.22 19.7259 149.058 19.918C148.895 20.11 148.813 20.4046 148.813 20.8018C148.813 21.3161 148.924 21.7148 149.146 21.998C149.315 22.2129 149.53 22.3203 149.79 22.3203C150.037 22.3203 150.241 22.2275 150.4 22.042C150.56 21.8564 150.64 21.5651 150.64 21.168C150.64 20.6504 150.527 20.2451 150.303 19.9521C150.137 19.7373 149.924 19.6299 149.663 19.6299ZM148.765 24C148.612 24.166 148.496 24.3206 148.418 24.4639C148.34 24.6071 148.301 24.7389 148.301 24.8594C148.301 25.0156 148.395 25.1523 148.584 25.2695C148.91 25.4714 149.38 25.5723 149.995 25.5723C150.581 25.5723 151.012 25.4681 151.289 25.2598C151.569 25.0547 151.709 24.835 151.709 24.6006C151.709 24.4313 151.626 24.3109 151.46 24.2393C151.291 24.1676 150.955 24.1253 150.454 24.1123C149.722 24.0928 149.159 24.0553 148.765 24ZM153.813 22.3691C153.54 22.2357 153.33 22.0501 153.184 21.8125C153.037 21.5716 152.964 21.3063 152.964 21.0166C152.964 20.5739 153.13 20.193 153.462 19.874C153.797 19.555 154.225 19.3955 154.746 19.3955C155.173 19.3955 155.542 19.4997 155.854 19.708H156.802C156.942 19.708 157.023 19.7129 157.046 19.7227C157.069 19.7292 157.085 19.7422 157.095 19.7617C157.114 19.791 157.124 19.8431 157.124 19.918C157.124 20.0026 157.116 20.0612 157.1 20.0938C157.09 20.11 157.072 20.123 157.046 20.1328C157.023 20.1426 156.942 20.1475 156.802 20.1475H156.221C156.403 20.3818 156.494 20.6813 156.494 21.0459C156.494 21.4626 156.335 21.819 156.016 22.1152C155.697 22.4115 155.269 22.5596 154.731 22.5596C154.51 22.5596 154.284 22.527 154.053 22.4619C153.91 22.5856 153.812 22.6947 153.76 22.7891C153.711 22.8802 153.687 22.9583 153.687 23.0234C153.687 23.0788 153.713 23.1325 153.765 23.1846C153.82 23.2367 153.926 23.2741 154.082 23.2969C154.173 23.3099 154.401 23.3213 154.766 23.3311C155.436 23.3473 155.871 23.3701 156.069 23.3994C156.372 23.4417 156.613 23.554 156.792 23.7363C156.974 23.9186 157.065 24.1432 157.065 24.4102C157.065 24.778 156.893 25.123 156.548 25.4453C156.04 25.9206 155.378 26.1582 154.561 26.1582C153.932 26.1582 153.402 26.0166 152.969 25.7334C152.725 25.5706 152.603 25.4014 152.603 25.2256C152.603 25.1475 152.62 25.0693 152.656 24.9912C152.712 24.8708 152.826 24.7031 152.998 24.4883C153.021 24.459 153.187 24.2832 153.496 23.9609C153.327 23.86 153.206 23.7705 153.135 23.6924C153.066 23.611 153.032 23.5199 153.032 23.4189C153.032 23.305 153.078 23.1715 153.169 23.0186C153.263 22.8656 153.478 22.6491 153.813 22.3691ZM154.663 19.6299C154.422 19.6299 154.22 19.7259 154.058 19.918C153.895 20.11 153.813 20.4046 153.813 20.8018C153.813 21.3161 153.924 21.7148 154.146 21.998C154.315 22.2129 154.53 22.3203 154.79 22.3203C155.037 22.3203 155.241 22.2275 155.4 22.042C155.56 21.8564 155.64 21.5651 155.64 21.168C155.64 20.6504 155.527 20.2451 155.303 19.9521C155.137 19.7373 154.924 19.6299 154.663 19.6299ZM153.765 24C153.612 24.166 153.496 24.3206 153.418 24.4639C153.34 24.6071 153.301 24.7389 153.301 24.8594C153.301 25.0156 153.395 25.1523 153.584 25.2695C153.91 25.4714 154.38 25.5723 154.995 25.5723C155.581 25.5723 156.012 25.4681 156.289 25.2598C156.569 25.0547 156.709 24.835 156.709 24.6006C156.709 24.4313 156.626 24.3109 156.46 24.2393C156.291 24.1676 155.955 24.1253 155.454 24.1123C154.722 24.0928 154.159 24.0553 153.765 24ZM158.369 21.2119C158.366 21.876 158.527 22.3968 158.853 22.7744C159.178 23.152 159.561 23.3408 160 23.3408C160.293 23.3408 160.547 23.2611 160.762 23.1016C160.98 22.9388 161.162 22.6621 161.309 22.2715L161.46 22.3691C161.392 22.8151 161.193 23.222 160.864 23.5898C160.535 23.9544 160.124 24.1367 159.629 24.1367C159.092 24.1367 158.631 23.9284 158.247 23.5117C157.866 23.0918 157.676 22.5286 157.676 21.8223C157.676 21.0573 157.871 20.4616 158.262 20.0352C158.656 19.6055 159.149 19.3906 159.741 19.3906C160.243 19.3906 160.654 19.5566 160.977 19.8887C161.299 20.2174 161.46 20.6585 161.46 21.2119H158.369ZM158.369 20.9287H160.439C160.423 20.6423 160.389 20.4404 160.337 20.3232C160.256 20.141 160.133 19.9977 159.971 19.8936C159.811 19.7894 159.644 19.7373 159.468 19.7373C159.198 19.7373 158.955 19.8431 158.74 20.0547C158.529 20.263 158.405 20.5544 158.369 20.9287ZM163.369 19.3955V20.4014C163.743 19.7308 164.128 19.3955 164.521 19.3955C164.701 19.3955 164.849 19.4508 164.966 19.5615C165.083 19.6689 165.142 19.7943 165.142 19.9375C165.142 20.0645 165.099 20.1719 165.015 20.2598C164.93 20.3477 164.829 20.3916 164.712 20.3916C164.598 20.3916 164.469 20.3363 164.326 20.2256C164.186 20.1117 164.082 20.0547 164.014 20.0547C163.955 20.0547 163.892 20.0872 163.823 20.1523C163.677 20.2858 163.525 20.5055 163.369 20.8115V22.9551C163.369 23.2025 163.4 23.3896 163.462 23.5166C163.504 23.6045 163.579 23.6777 163.687 23.7363C163.794 23.7949 163.949 23.8242 164.15 23.8242V24H161.86V23.8242C162.088 23.8242 162.257 23.7884 162.368 23.7168C162.45 23.6647 162.507 23.5817 162.539 23.4678C162.555 23.4124 162.563 23.2546 162.563 22.9941V21.2607C162.563 20.7399 162.552 20.4307 162.529 20.333C162.51 20.2321 162.471 20.1589 162.412 20.1133C162.357 20.0677 162.287 20.0449 162.202 20.0449C162.101 20.0449 161.987 20.0693 161.86 20.1182L161.812 19.9424L163.164 19.3955H163.369ZM166.143 21.2119C166.139 21.876 166.3 22.3968 166.626 22.7744C166.951 23.152 167.334 23.3408 167.773 23.3408C168.066 23.3408 168.32 23.2611 168.535 23.1016C168.753 22.9388 168.936 22.6621 169.082 22.2715L169.233 22.3691C169.165 22.8151 168.966 23.222 168.638 23.5898C168.309 23.9544 167.897 24.1367 167.402 24.1367C166.865 24.1367 166.405 23.9284 166.021 23.5117C165.64 23.0918 165.449 22.5286 165.449 21.8223C165.449 21.0573 165.645 20.4616 166.035 20.0352C166.429 19.6055 166.922 19.3906 167.515 19.3906C168.016 19.3906 168.428 19.5566 168.75 19.8887C169.072 20.2174 169.233 20.6585 169.233 21.2119H166.143ZM166.143 20.9287H168.213C168.197 20.6423 168.162 20.4404 168.11 20.3232C168.029 20.141 167.907 19.9977 167.744 19.8936C167.585 19.7894 167.417 19.7373 167.241 19.7373C166.971 19.7373 166.729 19.8431 166.514 20.0547C166.302 20.263 166.178 20.5544 166.143 20.9287ZM172.993 23.4971C172.775 23.7249 172.562 23.8893 172.354 23.9902C172.145 24.0879 171.921 24.1367 171.68 24.1367C171.191 24.1367 170.765 23.9333 170.4 23.5264C170.036 23.1162 169.854 22.5905 169.854 21.9492C169.854 21.3079 170.055 20.722 170.459 20.1914C170.863 19.6576 171.382 19.3906 172.017 19.3906C172.41 19.3906 172.736 19.516 172.993 19.7666V18.9414C172.993 18.4303 172.98 18.1162 172.954 17.999C172.931 17.8818 172.894 17.8021 172.842 17.7598C172.79 17.7174 172.725 17.6963 172.646 17.6963C172.562 17.6963 172.45 17.7223 172.31 17.7744L172.246 17.6035L173.579 17.0566H173.799V22.2275C173.799 22.7516 173.81 23.0723 173.833 23.1895C173.859 23.3034 173.898 23.3831 173.95 23.4287C174.006 23.4743 174.069 23.4971 174.141 23.4971C174.229 23.4971 174.346 23.4694 174.492 23.4141L174.546 23.585L173.218 24.1367H172.993V23.4971ZM172.993 23.1553V20.8506C172.974 20.6292 172.915 20.4274 172.817 20.2451C172.72 20.0628 172.59 19.9261 172.427 19.835C172.267 19.7406 172.111 19.6934 171.958 19.6934C171.672 19.6934 171.416 19.8219 171.191 20.0791C170.895 20.4176 170.747 20.9124 170.747 21.5635C170.747 22.221 170.89 22.7256 171.177 23.0771C171.463 23.4255 171.782 23.5996 172.134 23.5996C172.43 23.5996 172.716 23.4515 172.993 23.1553Z" fill="black"/>
<circle cx="100" cy="151" r="3" fill="white" stroke="black" stroke-width="2"/>
<circle cx="134" cy="131" r="3" fill="white" stroke="black" stroke-width="2"/>
<path d="M81.8261 101.252L83.7236 100L81.8261 98.748L71.3261 91.8198L69 90.2849V93.0718V106.928V109.715L71.3261 108.18L81.8261 101.252Z" fill="white" stroke="black" stroke-width="3"/>
<circle cx="73.5" cy="99.5" r="3.5" fill="white" stroke="black" stroke-width="2"/>
</svg>
