<svg width="200" height="200" viewBox="0 0 200 200" fill="none" xmlns="http://www.w3.org/2000/svg">
<rect width="200" height="200" fill="white"/>
<rect x="68.5" y="51.5" width="62" height="97" fill="white" stroke="black" stroke-width="3"/>
<line y1="66" x2="67" y2="66" stroke="black" stroke-width="2"/>
<path d="M100 200V177.5L100 155" stroke="black" stroke-width="2"/>
<line y1="99" x2="67" y2="99" stroke="black" stroke-width="2"/>
<line x1="130" y1="66" x2="200" y2="66" stroke="black" stroke-width="2"/>
<line x1="130" y1="131" x2="200" y2="131" stroke="black" stroke-width="2"/>
<path d="M73.1953 64.2715V64.0547H76.5996V64.2715H76.3125C75.9883 64.2715 75.752 64.3672 75.6035 64.5586C75.5098 64.6836 75.4629 64.9844 75.4629 65.4609V69.3457C75.4629 69.9434 75.3965 70.4277 75.2637 70.7988C75.1348 71.1699 74.9102 71.4941 74.5898 71.7715C74.2695 72.0449 73.8828 72.1816 73.4297 72.1816C73.0625 72.1816 72.7734 72.0918 72.5625 71.9121C72.3516 71.7285 72.2461 71.5195 72.2461 71.2852C72.2461 71.0938 72.2949 70.9492 72.3926 70.8516C72.5215 70.7305 72.6719 70.6699 72.8438 70.6699C72.9688 70.6699 73.0801 70.7109 73.1777 70.793C73.2793 70.875 73.4062 71.0938 73.5586 71.4492C73.6484 71.6602 73.7637 71.7656 73.9043 71.7656C74.0098 71.7656 74.1074 71.7012 74.1973 71.5723C74.291 71.4434 74.3379 71.2148 74.3379 70.8867V65.4609C74.3379 65.0586 74.3125 64.793 74.2617 64.6641C74.2227 64.5664 74.1406 64.4824 74.0156 64.4121C73.8477 64.3184 73.6699 64.2715 73.4824 64.2715H73.1953Z" fill="black"/>
<line y1="130" x2="67" y2="130" stroke="black" stroke-width="2"/>
<path d="M75.5859 131.594L78.5156 134.506C78.9961 134.986 79.4062 135.314 79.7461 135.49C80.0859 135.662 80.4258 135.76 80.7656 135.783V136H76.9863V135.783C77.2129 135.783 77.375 135.746 77.4727 135.672C77.5742 135.594 77.625 135.508 77.625 135.414C77.625 135.32 77.6055 135.236 77.5664 135.162C77.5312 135.088 77.4102 134.949 77.2031 134.746L74.4609 132.033V134.594C74.4609 134.996 74.4863 135.262 74.5371 135.391C74.5762 135.488 74.6582 135.572 74.7832 135.643C74.9512 135.736 75.1289 135.783 75.3164 135.783H75.5859V136H72.1992V135.783H72.4805C72.8086 135.783 73.0469 135.688 73.1953 135.496C73.2891 135.371 73.3359 135.07 73.3359 134.594V129.461C73.3359 129.059 73.3105 128.791 73.2598 128.658C73.2207 128.564 73.1406 128.482 73.0195 128.412C72.8477 128.318 72.668 128.271 72.4805 128.271H72.1992V128.055H75.5859V128.271H75.3164C75.1328 128.271 74.9551 128.316 74.7832 128.406C74.6621 128.469 74.5781 128.562 74.5312 128.688C74.4844 128.812 74.4609 129.07 74.4609 129.461V131.893C74.5391 131.818 74.8066 131.57 75.2637 131.148C76.4238 130.086 77.125 129.377 77.3672 129.021C77.4727 128.865 77.5254 128.729 77.5254 128.611C77.5254 128.521 77.4844 128.443 77.4023 128.377C77.3203 128.307 77.1816 128.271 76.9863 128.271H76.8047V128.055H79.7227V128.271C79.5508 128.275 79.3945 128.299 79.2539 128.342C79.1133 128.385 78.9414 128.469 78.7383 128.594C78.5352 128.715 78.2852 128.912 77.9883 129.186C77.9023 129.264 77.5059 129.664 76.7988 130.387L75.5859 131.594Z" fill="black"/>
<path d="M95.2246 95.873L95.4062 98.5742H95.2246C94.9824 97.7656 94.6367 97.1836 94.1875 96.8281C93.7383 96.4727 93.1992 96.2949 92.5703 96.2949C92.043 96.2949 91.5664 96.4297 91.1406 96.6992C90.7148 96.9648 90.3789 97.3906 90.1328 97.9766C89.8906 98.5625 89.7695 99.291 89.7695 100.162C89.7695 100.881 89.8848 101.504 90.1152 102.031C90.3457 102.559 90.6914 102.963 91.1523 103.244C91.6172 103.525 92.1465 103.666 92.7402 103.666C93.2559 103.666 93.7109 103.557 94.1055 103.338C94.5 103.115 94.9336 102.676 95.4062 102.02L95.5879 102.137C95.1895 102.844 94.7246 103.361 94.1934 103.689C93.6621 104.018 93.0312 104.182 92.3008 104.182C90.9844 104.182 89.9648 103.693 89.2422 102.717C88.7031 101.99 88.4336 101.135 88.4336 100.15C88.4336 99.3574 88.6113 98.6289 88.9668 97.9648C89.3223 97.3008 89.8105 96.7871 90.4316 96.4238C91.0566 96.0566 91.7383 95.873 92.4766 95.873C93.0508 95.873 93.6172 96.0137 94.1758 96.2949C94.3398 96.3809 94.457 96.4238 94.5273 96.4238C94.6328 96.4238 94.7246 96.3867 94.8027 96.3125C94.9043 96.207 94.9766 96.0605 95.0195 95.873H95.2246ZM102.883 101.803L103.076 101.844L102.396 104H96.2441V103.783H96.543C96.8789 103.783 97.1191 103.674 97.2637 103.455C97.3457 103.33 97.3867 103.041 97.3867 102.588V97.4609C97.3867 96.9648 97.332 96.6543 97.2227 96.5293C97.0703 96.3574 96.8438 96.2715 96.543 96.2715H96.2441V96.0547H99.8418V96.2715C99.4199 96.2676 99.123 96.3066 98.9512 96.3887C98.7832 96.4707 98.668 96.5742 98.6055 96.6992C98.543 96.8242 98.5117 97.123 98.5117 97.5957V102.588C98.5117 102.912 98.543 103.135 98.6055 103.256C98.6523 103.338 98.7246 103.398 98.8223 103.438C98.9199 103.477 99.2246 103.496 99.7363 103.496H100.316C100.926 103.496 101.354 103.451 101.6 103.361C101.846 103.271 102.07 103.113 102.273 102.887C102.477 102.656 102.68 102.295 102.883 101.803ZM106.926 99.5938L109.855 102.506C110.336 102.986 110.746 103.314 111.086 103.49C111.426 103.662 111.766 103.76 112.105 103.783V104H108.326V103.783C108.553 103.783 108.715 103.746 108.812 103.672C108.914 103.594 108.965 103.508 108.965 103.414C108.965 103.32 108.945 103.236 108.906 103.162C108.871 103.088 108.75 102.949 108.543 102.746L105.801 100.033V102.594C105.801 102.996 105.826 103.262 105.877 103.391C105.916 103.488 105.998 103.572 106.123 103.643C106.291 103.736 106.469 103.783 106.656 103.783H106.926V104H103.539V103.783H103.82C104.148 103.783 104.387 103.688 104.535 103.496C104.629 103.371 104.676 103.07 104.676 102.594V97.4609C104.676 97.0586 104.65 96.791 104.6 96.6582C104.561 96.5645 104.48 96.4824 104.359 96.4121C104.188 96.3184 104.008 96.2715 103.82 96.2715H103.539V96.0547H106.926V96.2715H106.656C106.473 96.2715 106.295 96.3164 106.123 96.4062C106.002 96.4688 105.918 96.5625 105.871 96.6875C105.824 96.8125 105.801 97.0703 105.801 97.4609V99.8926C105.879 99.8184 106.146 99.5703 106.604 99.1484C107.764 98.0859 108.465 97.377 108.707 97.0215C108.812 96.8652 108.865 96.7285 108.865 96.6113C108.865 96.5215 108.824 96.4434 108.742 96.377C108.66 96.3066 108.521 96.2715 108.326 96.2715H108.145V96.0547H111.062V96.2715C110.891 96.2754 110.734 96.2988 110.594 96.3418C110.453 96.3848 110.281 96.4688 110.078 96.5938C109.875 96.7148 109.625 96.9121 109.328 97.1855C109.242 97.2637 108.846 97.6641 108.139 98.3867L106.926 99.5938Z" fill="black"/>
<path d="M95.1094 144H92.9883L90.2988 140.285C90.0996 140.293 89.9375 140.297 89.8125 140.297C89.7617 140.297 89.707 140.297 89.6484 140.297C89.5898 140.293 89.5293 140.289 89.4668 140.285V142.594C89.4668 143.094 89.5215 143.404 89.6309 143.525C89.7793 143.697 90.002 143.783 90.2988 143.783H90.6094V144H87.2051V143.783H87.5039C87.8398 143.783 88.0801 143.674 88.2246 143.455C88.3066 143.334 88.3477 143.047 88.3477 142.594V137.461C88.3477 136.961 88.293 136.65 88.1836 136.529C88.0312 136.357 87.8047 136.271 87.5039 136.271H87.2051V136.055H90.0996C90.9434 136.055 91.5645 136.117 91.9629 136.242C92.3652 136.363 92.7051 136.59 92.9824 136.922C93.2637 137.25 93.4043 137.643 93.4043 138.1C93.4043 138.588 93.2441 139.012 92.9238 139.371C92.6074 139.73 92.1152 139.984 91.4473 140.133L93.0879 142.412C93.4629 142.936 93.7852 143.283 94.0547 143.455C94.3242 143.627 94.6758 143.736 95.1094 143.783V144ZM89.4668 139.916C89.541 139.916 89.6055 139.918 89.6602 139.922C89.7148 139.922 89.7598 139.922 89.7949 139.922C90.5527 139.922 91.123 139.758 91.5059 139.43C91.8926 139.102 92.0859 138.684 92.0859 138.176C92.0859 137.68 91.9297 137.277 91.6172 136.969C91.3086 136.656 90.8984 136.5 90.3867 136.5C90.1602 136.5 89.8535 136.537 89.4668 136.611V139.916ZM100.506 135.873V138.621H100.289C100.219 138.094 100.092 137.674 99.9082 137.361C99.7285 137.049 99.4707 136.801 99.1348 136.617C98.7988 136.434 98.4512 136.342 98.0918 136.342C97.6855 136.342 97.3496 136.467 97.084 136.717C96.8184 136.963 96.6855 137.244 96.6855 137.561C96.6855 137.803 96.7695 138.023 96.9375 138.223C97.1797 138.516 97.7559 138.906 98.666 139.395C99.4082 139.793 99.9141 140.1 100.184 140.314C100.457 140.525 100.666 140.775 100.811 141.064C100.959 141.354 101.033 141.656 101.033 141.973C101.033 142.574 100.799 143.094 100.33 143.531C99.8652 143.965 99.2656 144.182 98.5312 144.182C98.3008 144.182 98.084 144.164 97.8809 144.129C97.7598 144.109 97.5078 144.039 97.125 143.918C96.7461 143.793 96.5059 143.73 96.4043 143.73C96.3066 143.73 96.2285 143.76 96.1699 143.818C96.1152 143.877 96.0742 143.998 96.0469 144.182H95.8301V141.457H96.0469C96.1484 142.027 96.2852 142.455 96.457 142.74C96.6289 143.021 96.8906 143.256 97.2422 143.443C97.5977 143.631 97.9863 143.725 98.4082 143.725C98.8965 143.725 99.2812 143.596 99.5625 143.338C99.8477 143.08 99.9902 142.775 99.9902 142.424C99.9902 142.229 99.9355 142.031 99.8262 141.832C99.7207 141.633 99.5547 141.447 99.3281 141.275C99.1758 141.158 98.7598 140.91 98.0801 140.531C97.4004 140.148 96.916 139.844 96.627 139.617C96.3418 139.391 96.125 139.141 95.9766 138.867C95.8281 138.594 95.7539 138.293 95.7539 137.965C95.7539 137.395 95.9727 136.904 96.4102 136.494C96.8477 136.08 97.4043 135.873 98.0801 135.873C98.502 135.873 98.9492 135.977 99.4219 136.184C99.6406 136.281 99.7949 136.33 99.8848 136.33C99.9863 136.33 100.068 136.301 100.131 136.242C100.197 136.18 100.25 136.057 100.289 135.873H100.506ZM108.627 136.055L108.715 137.918H108.492C108.449 137.59 108.391 137.355 108.316 137.215C108.195 136.988 108.033 136.822 107.83 136.717C107.631 136.607 107.367 136.553 107.039 136.553H105.92V142.623C105.92 143.111 105.973 143.416 106.078 143.537C106.227 143.701 106.455 143.783 106.764 143.783H107.039V144H103.67V143.783H103.951C104.287 143.783 104.525 143.682 104.666 143.479C104.752 143.354 104.795 143.068 104.795 142.623V136.553H103.84C103.469 136.553 103.205 136.58 103.049 136.635C102.846 136.709 102.672 136.852 102.527 137.062C102.383 137.273 102.297 137.559 102.27 137.918H102.047L102.141 136.055H108.627Z" fill="black"/>
<path d="M122.285 72.0879C122.684 72.7754 123.113 73.2812 123.574 73.6055C124.039 73.9297 124.566 74.1152 125.156 74.1621V74.3496C124.617 74.3301 124.041 74.2207 123.428 74.0215C122.814 73.8262 122.232 73.5527 121.682 73.2012C121.135 72.8535 120.662 72.4824 120.264 72.0879C119.701 71.8613 119.256 71.6211 118.928 71.3672C118.451 70.9883 118.08 70.5234 117.814 69.9727C117.553 69.418 117.422 68.7637 117.422 68.0098C117.422 66.8223 117.807 65.8359 118.576 65.0508C119.346 64.2656 120.277 63.873 121.371 63.873C122.41 63.873 123.309 64.2676 124.066 65.0566C124.828 65.8418 125.209 66.834 125.209 68.0332C125.209 69.0059 124.938 69.8594 124.395 70.5938C123.855 71.3281 123.152 71.8262 122.285 72.0879ZM121.301 64.3242C120.59 64.3242 120.018 64.5781 119.584 65.0859C119.037 65.7227 118.764 66.6973 118.764 68.0098C118.764 69.2949 119.041 70.2852 119.596 70.9805C120.025 71.5156 120.594 71.7832 121.301 71.7832C122.035 71.7832 122.627 71.5156 123.076 70.9805C123.604 70.3477 123.867 69.4141 123.867 68.1797C123.867 67.2305 123.723 66.4316 123.434 65.7832C123.211 65.2832 122.914 64.916 122.543 64.6816C122.176 64.4434 121.762 64.3242 121.301 64.3242Z" fill="black"/>
<path d="M119.285 132.088C119.684 132.775 120.113 133.281 120.574 133.605C121.039 133.93 121.566 134.115 122.156 134.162V134.35C121.617 134.33 121.041 134.221 120.428 134.021C119.814 133.826 119.232 133.553 118.682 133.201C118.135 132.854 117.662 132.482 117.264 132.088C116.701 131.861 116.256 131.621 115.928 131.367C115.451 130.988 115.08 130.523 114.814 129.973C114.553 129.418 114.422 128.764 114.422 128.01C114.422 126.822 114.807 125.836 115.576 125.051C116.346 124.266 117.277 123.873 118.371 123.873C119.41 123.873 120.309 124.268 121.066 125.057C121.828 125.842 122.209 126.834 122.209 128.033C122.209 129.006 121.938 129.859 121.395 130.594C120.855 131.328 120.152 131.826 119.285 132.088ZM118.301 124.324C117.59 124.324 117.018 124.578 116.584 125.086C116.037 125.723 115.764 126.697 115.764 128.01C115.764 129.295 116.041 130.285 116.596 130.98C117.025 131.516 117.594 131.783 118.301 131.783C119.035 131.783 119.627 131.516 120.076 130.98C120.604 130.348 120.867 129.414 120.867 128.18C120.867 127.23 120.723 126.432 120.434 125.783C120.211 125.283 119.914 124.916 119.543 124.682C119.176 124.443 118.762 124.324 118.301 124.324ZM124.066 126.908V126.633C124.469 126.395 124.742 126.172 124.887 125.965C124.988 125.816 125.039 125.639 125.039 125.432C125.039 125.311 125.018 125.221 124.975 125.162C124.928 125.104 124.877 125.074 124.822 125.074C124.779 125.074 124.723 125.088 124.652 125.115C124.551 125.15 124.467 125.168 124.4 125.168C124.244 125.168 124.105 125.109 123.984 124.992C123.863 124.875 123.803 124.729 123.803 124.553C123.803 124.357 123.863 124.205 123.984 124.096C124.148 123.947 124.344 123.873 124.57 123.873C124.832 123.873 125.066 123.984 125.273 124.207C125.484 124.426 125.59 124.699 125.59 125.027C125.59 125.488 125.416 125.908 125.068 126.287C124.838 126.537 124.504 126.744 124.066 126.908Z" fill="black"/>
<path d="M21.9961 17.5596V17.3789H24.833V17.5596H24.5938C24.3236 17.5596 24.1266 17.6393 24.0029 17.7988C23.9248 17.903 23.8857 18.1536 23.8857 18.5508V21.7881C23.8857 22.2861 23.8304 22.6898 23.7197 22.999C23.6123 23.3083 23.4251 23.5785 23.1582 23.8096C22.8913 24.0374 22.569 24.1514 22.1914 24.1514C21.8854 24.1514 21.6445 24.0765 21.4688 23.9268C21.293 23.7738 21.2051 23.5996 21.2051 23.4043C21.2051 23.2448 21.2458 23.1243 21.3271 23.043C21.4346 22.9421 21.5599 22.8916 21.7031 22.8916C21.8073 22.8916 21.9001 22.9258 21.9814 22.9941C22.0661 23.0625 22.1719 23.2448 22.2988 23.541C22.3737 23.7168 22.4697 23.8047 22.5869 23.8047C22.6748 23.8047 22.7562 23.751 22.8311 23.6436C22.9092 23.5361 22.9482 23.3457 22.9482 23.0723V18.5508C22.9482 18.2155 22.9271 17.9941 22.8848 17.8867C22.8522 17.8053 22.7839 17.7354 22.6797 17.6768C22.5397 17.5986 22.3916 17.5596 22.2354 17.5596H21.9961ZM27.8848 20.3281L30.3262 22.7549C30.7266 23.1553 31.0684 23.4287 31.3516 23.5752C31.6348 23.7184 31.918 23.7998 32.2012 23.8193V24H29.0518V23.8193C29.2406 23.8193 29.3757 23.7884 29.457 23.7266C29.5417 23.6615 29.584 23.5898 29.584 23.5117C29.584 23.4336 29.5677 23.3636 29.5352 23.3018C29.5059 23.2399 29.4049 23.1243 29.2324 22.9551L26.9473 20.6943V22.8281C26.9473 23.1634 26.9684 23.3848 27.0107 23.4922C27.0433 23.5736 27.1117 23.6436 27.2158 23.7021C27.3558 23.7803 27.5039 23.8193 27.6602 23.8193H27.8848V24H25.0625V23.8193H25.2969C25.5703 23.8193 25.7689 23.7396 25.8926 23.5801C25.9707 23.4759 26.0098 23.2253 26.0098 22.8281V18.5508C26.0098 18.2155 25.9886 17.9925 25.9463 17.8818C25.9137 17.8037 25.847 17.7354 25.7461 17.6768C25.6029 17.5986 25.4531 17.5596 25.2969 17.5596H25.0625V17.3789H27.8848V17.5596H27.6602C27.5072 17.5596 27.359 17.597 27.2158 17.6719C27.1149 17.724 27.0449 17.8021 27.0059 17.9062C26.9668 18.0104 26.9473 18.2253 26.9473 18.5508V20.5771C27.0124 20.5153 27.2354 20.3086 27.6162 19.957C28.583 19.0716 29.1673 18.4808 29.3691 18.1846C29.457 18.0544 29.501 17.9404 29.501 17.8428C29.501 17.7679 29.4668 17.7028 29.3984 17.6475C29.3301 17.5889 29.2145 17.5596 29.0518 17.5596H28.9004V17.3789H31.332V17.5596C31.1888 17.5628 31.0586 17.5824 30.9414 17.6182C30.8242 17.654 30.681 17.724 30.5117 17.8281C30.3424 17.929 30.1341 18.0934 29.8867 18.3213C29.8151 18.3864 29.4847 18.7201 28.8955 19.3223L27.8848 20.3281ZM36.6689 17.7402V20.3428H37.875C38.1517 20.3428 38.3535 20.2826 38.4805 20.1621C38.6107 20.0384 38.6969 19.7959 38.7393 19.4346H38.9199V21.6758H38.7393C38.736 21.4186 38.7018 21.2298 38.6367 21.1094C38.5749 20.9889 38.487 20.8994 38.373 20.8408C38.2624 20.779 38.0964 20.748 37.875 20.748H36.6689V22.8281C36.6689 23.1634 36.6901 23.3848 36.7324 23.4922C36.765 23.5736 36.8333 23.6436 36.9375 23.7021C37.0807 23.7803 37.2305 23.8193 37.3867 23.8193H37.626V24H34.7842V23.8193H35.0186C35.292 23.8193 35.4906 23.7396 35.6143 23.5801C35.6924 23.4759 35.7314 23.2253 35.7314 22.8281V18.5508C35.7314 18.2155 35.7103 17.9941 35.668 17.8867C35.6354 17.8053 35.5687 17.7354 35.4678 17.6768C35.3278 17.5986 35.1781 17.5596 35.0186 17.5596H34.7842V17.3789H39.7109L39.7744 18.834H39.6035C39.5189 18.5247 39.4196 18.2985 39.3057 18.1553C39.195 18.0088 39.0566 17.903 38.8906 17.8379C38.7279 17.7728 38.474 17.7402 38.1289 17.7402H36.6689ZM42.04 17.0566V22.9893C42.04 23.2692 42.0596 23.4548 42.0986 23.5459C42.141 23.637 42.2044 23.707 42.2891 23.7559C42.3737 23.8014 42.5316 23.8242 42.7627 23.8242V24H40.5703V23.8242C40.7754 23.8242 40.9154 23.8031 40.9902 23.7607C41.0651 23.7184 41.1237 23.6484 41.166 23.5508C41.2083 23.4531 41.2295 23.266 41.2295 22.9893V18.9268C41.2295 18.4222 41.2181 18.113 41.1953 17.999C41.1725 17.8818 41.1351 17.8021 41.083 17.7598C41.0342 17.7174 40.9707 17.6963 40.8926 17.6963C40.8079 17.6963 40.7005 17.7223 40.5703 17.7744L40.4873 17.6035L41.8203 17.0566H42.04ZM44.4229 17.0566C44.5596 17.0566 44.6751 17.1055 44.7695 17.2031C44.8672 17.2975 44.916 17.4131 44.916 17.5498C44.916 17.6865 44.8672 17.8037 44.7695 17.9014C44.6751 17.999 44.5596 18.0479 44.4229 18.0479C44.2861 18.0479 44.1689 17.999 44.0713 17.9014C43.9736 17.8037 43.9248 17.6865 43.9248 17.5498C43.9248 17.4131 43.972 17.2975 44.0664 17.2031C44.1641 17.1055 44.2829 17.0566 44.4229 17.0566ZM44.8281 19.3955V22.9893C44.8281 23.2692 44.8477 23.4564 44.8867 23.5508C44.929 23.6419 44.9893 23.7103 45.0674 23.7559C45.1488 23.8014 45.2952 23.8242 45.5068 23.8242V24H43.334V23.8242C43.5521 23.8242 43.6986 23.8031 43.7734 23.7607C43.8483 23.7184 43.9069 23.6484 43.9492 23.5508C43.9948 23.4531 44.0176 23.266 44.0176 22.9893V21.2656C44.0176 20.7806 44.0029 20.4665 43.9736 20.3232C43.9508 20.2191 43.915 20.1475 43.8662 20.1084C43.8174 20.0661 43.7507 20.0449 43.666 20.0449C43.5749 20.0449 43.4642 20.0693 43.334 20.1182L43.2656 19.9424L44.6133 19.3955H44.8281ZM45.7461 19.9717L47.123 19.415H47.3086V20.46C47.5397 20.0661 47.7708 19.791 48.002 19.6348C48.2363 19.4753 48.4821 19.3955 48.7393 19.3955C49.1885 19.3955 49.5628 19.5713 49.8623 19.9229C50.2301 20.3525 50.4141 20.9124 50.4141 21.6025C50.4141 22.374 50.1927 23.012 49.75 23.5166C49.3854 23.93 48.9264 24.1367 48.373 24.1367C48.1322 24.1367 47.9238 24.1025 47.748 24.0342C47.6178 23.9854 47.4714 23.8877 47.3086 23.7412V25.1035C47.3086 25.4095 47.3265 25.6032 47.3623 25.6846C47.4014 25.7692 47.4665 25.8359 47.5576 25.8848C47.652 25.9336 47.8213 25.958 48.0654 25.958V26.1387H45.7217V25.958H45.8438C46.0228 25.9613 46.1758 25.9271 46.3027 25.8555C46.3646 25.8197 46.4118 25.7611 46.4443 25.6797C46.4801 25.6016 46.498 25.3997 46.498 25.0742V20.8457C46.498 20.556 46.485 20.3721 46.459 20.2939C46.4329 20.2158 46.3906 20.1572 46.332 20.1182C46.2767 20.0791 46.2002 20.0596 46.1025 20.0596C46.0244 20.0596 45.9251 20.0824 45.8047 20.1279L45.7461 19.9717ZM47.3086 20.748V22.418C47.3086 22.7793 47.3232 23.0169 47.3525 23.1309C47.3981 23.3197 47.5088 23.4857 47.6846 23.6289C47.8636 23.7721 48.0882 23.8438 48.3584 23.8438C48.6839 23.8438 48.9476 23.7168 49.1494 23.4629C49.4131 23.1309 49.5449 22.6637 49.5449 22.0615C49.5449 21.3779 49.3952 20.8522 49.0957 20.4844C48.8874 20.2305 48.64 20.1035 48.3535 20.1035C48.1973 20.1035 48.0426 20.1426 47.8896 20.2207C47.7725 20.2793 47.5788 20.4551 47.3086 20.748ZM51.1611 21.3877H53.6855V22.125H51.1611V21.3877ZM56.1318 17.7402V20.3428H57.3379C57.6146 20.3428 57.8164 20.2826 57.9434 20.1621C58.0736 20.0384 58.1598 19.7959 58.2021 19.4346H58.3828V21.6758H58.2021C58.1989 21.4186 58.1647 21.2298 58.0996 21.1094C58.0378 20.9889 57.9499 20.8994 57.8359 20.8408C57.7253 20.779 57.5592 20.748 57.3379 20.748H56.1318V22.8281C56.1318 23.1634 56.153 23.3848 56.1953 23.4922C56.2279 23.5736 56.2962 23.6436 56.4004 23.7021C56.5436 23.7803 56.6934 23.8193 56.8496 23.8193H57.0889V24H54.2471V23.8193H54.4814C54.7549 23.8193 54.9535 23.7396 55.0771 23.5801C55.1553 23.4759 55.1943 23.2253 55.1943 22.8281V18.5508C55.1943 18.2155 55.1732 17.9941 55.1309 17.8867C55.0983 17.8053 55.0316 17.7354 54.9307 17.6768C54.7907 17.5986 54.641 17.5596 54.4814 17.5596H54.2471V17.3789H59.1738L59.2373 18.834H59.0664C58.9818 18.5247 58.8825 18.2985 58.7686 18.1553C58.6579 18.0088 58.5195 17.903 58.3535 17.8379C58.1908 17.7728 57.9368 17.7402 57.5918 17.7402H56.1318ZM61.5029 17.0566V22.9893C61.5029 23.2692 61.5225 23.4548 61.5615 23.5459C61.6038 23.637 61.6673 23.707 61.752 23.7559C61.8366 23.8014 61.9945 23.8242 62.2256 23.8242V24H60.0332V23.8242C60.2383 23.8242 60.3783 23.8031 60.4531 23.7607C60.528 23.7184 60.5866 23.6484 60.6289 23.5508C60.6712 23.4531 60.6924 23.266 60.6924 22.9893V18.9268C60.6924 18.4222 60.681 18.113 60.6582 17.999C60.6354 17.8818 60.598 17.8021 60.5459 17.7598C60.4971 17.7174 60.4336 17.6963 60.3555 17.6963C60.2708 17.6963 60.1634 17.7223 60.0332 17.7744L59.9502 17.6035L61.2832 17.0566H61.5029ZM64.9355 19.3955C65.6126 19.3955 66.1562 19.6527 66.5664 20.167C66.9147 20.6064 67.0889 21.111 67.0889 21.6807C67.0889 22.0811 66.9928 22.4863 66.8008 22.8965C66.6087 23.3066 66.3434 23.6159 66.0049 23.8242C65.6696 24.0326 65.2952 24.1367 64.8818 24.1367C64.208 24.1367 63.6725 23.8682 63.2754 23.3311C62.9401 22.8786 62.7725 22.3708 62.7725 21.8076C62.7725 21.3975 62.8734 20.9906 63.0752 20.5869C63.2803 20.18 63.5488 19.8805 63.8809 19.6885C64.2129 19.4932 64.5645 19.3955 64.9355 19.3955ZM64.7842 19.7129C64.6117 19.7129 64.4375 19.765 64.2617 19.8691C64.0892 19.9701 63.9492 20.1491 63.8418 20.4062C63.7344 20.6634 63.6807 20.9938 63.6807 21.3975C63.6807 22.0485 63.8092 22.61 64.0664 23.082C64.3268 23.554 64.6686 23.79 65.0918 23.79C65.4076 23.79 65.668 23.6598 65.873 23.3994C66.0781 23.139 66.1807 22.6914 66.1807 22.0566C66.1807 21.2624 66.0098 20.6374 65.668 20.1816C65.4368 19.8691 65.1423 19.7129 64.7842 19.7129ZM67.4258 19.9717L68.8027 19.415H68.9883V20.46C69.2194 20.0661 69.4505 19.791 69.6816 19.6348C69.916 19.4753 70.1618 19.3955 70.4189 19.3955C70.8682 19.3955 71.2425 19.5713 71.542 19.9229C71.9098 20.3525 72.0938 20.9124 72.0938 21.6025C72.0938 22.374 71.8724 23.012 71.4297 23.5166C71.0651 23.93 70.6061 24.1367 70.0527 24.1367C69.8118 24.1367 69.6035 24.1025 69.4277 24.0342C69.2975 23.9854 69.151 23.8877 68.9883 23.7412V25.1035C68.9883 25.4095 69.0062 25.6032 69.042 25.6846C69.0811 25.7692 69.1462 25.8359 69.2373 25.8848C69.3317 25.9336 69.501 25.958 69.7451 25.958V26.1387H67.4014V25.958H67.5234C67.7025 25.9613 67.8555 25.9271 67.9824 25.8555C68.0443 25.8197 68.0915 25.7611 68.124 25.6797C68.1598 25.6016 68.1777 25.3997 68.1777 25.0742V20.8457C68.1777 20.556 68.1647 20.3721 68.1387 20.2939C68.1126 20.2158 68.0703 20.1572 68.0117 20.1182C67.9564 20.0791 67.8799 20.0596 67.7822 20.0596C67.7041 20.0596 67.6048 20.0824 67.4844 20.1279L67.4258 19.9717ZM68.9883 20.748V22.418C68.9883 22.7793 69.0029 23.0169 69.0322 23.1309C69.0778 23.3197 69.1885 23.4857 69.3643 23.6289C69.5433 23.7721 69.7679 23.8438 70.0381 23.8438C70.3636 23.8438 70.6273 23.7168 70.8291 23.4629C71.0928 23.1309 71.2246 22.6637 71.2246 22.0615C71.2246 21.3779 71.0749 20.8522 70.7754 20.4844C70.5671 20.2305 70.3197 20.1035 70.0332 20.1035C69.877 20.1035 69.7223 20.1426 69.5693 20.2207C69.4521 20.2793 69.2585 20.4551 68.9883 20.748ZM76.9863 20.8994V22.8281C76.9863 23.2448 77.0319 23.5036 77.123 23.6045C77.2467 23.7477 77.4339 23.8193 77.6846 23.8193H77.9385V24H75.1016V23.8193H75.3506C75.6305 23.8193 75.8307 23.7282 75.9512 23.5459C76.0163 23.445 76.0488 23.2057 76.0488 22.8281V18.5508C76.0488 18.1341 76.0049 17.8753 75.917 17.7744C75.79 17.6312 75.6012 17.5596 75.3506 17.5596H75.1016V17.3789H77.5283C78.1208 17.3789 78.5879 17.4408 78.9297 17.5645C79.2715 17.6849 79.5596 17.89 79.7939 18.1797C80.0283 18.4694 80.1455 18.8128 80.1455 19.21C80.1455 19.7503 79.9665 20.1898 79.6084 20.5283C79.2536 20.8669 78.7507 21.0361 78.0996 21.0361C77.9401 21.0361 77.7676 21.0247 77.582 21.002C77.3965 20.9792 77.1979 20.945 76.9863 20.8994ZM76.9863 20.6211C77.1589 20.6536 77.3118 20.6781 77.4453 20.6943C77.5788 20.7106 77.6927 20.7188 77.7871 20.7188C78.1257 20.7188 78.417 20.5885 78.6611 20.3281C78.9085 20.0645 79.0322 19.7243 79.0322 19.3076C79.0322 19.0212 78.9736 18.7559 78.8564 18.5117C78.7393 18.2643 78.5732 18.0804 78.3584 17.96C78.1436 17.8363 77.8994 17.7744 77.626 17.7744C77.46 17.7744 77.2467 17.8053 76.9863 17.8672V20.6211ZM83.002 19.3955C83.679 19.3955 84.2227 19.6527 84.6328 20.167C84.9811 20.6064 85.1553 21.111 85.1553 21.6807C85.1553 22.0811 85.0592 22.4863 84.8672 22.8965C84.6751 23.3066 84.4098 23.6159 84.0713 23.8242C83.736 24.0326 83.3617 24.1367 82.9482 24.1367C82.2744 24.1367 81.7389 23.8682 81.3418 23.3311C81.0065 22.8786 80.8389 22.3708 80.8389 21.8076C80.8389 21.3975 80.9398 20.9906 81.1416 20.5869C81.3467 20.18 81.6152 19.8805 81.9473 19.6885C82.2793 19.4932 82.6309 19.3955 83.002 19.3955ZM82.8506 19.7129C82.6781 19.7129 82.5039 19.765 82.3281 19.8691C82.1556 19.9701 82.0156 20.1491 81.9082 20.4062C81.8008 20.6634 81.7471 20.9938 81.7471 21.3975C81.7471 22.0485 81.8757 22.61 82.1328 23.082C82.3932 23.554 82.735 23.79 83.1582 23.79C83.474 23.79 83.7344 23.6598 83.9395 23.3994C84.1445 23.139 84.2471 22.6914 84.2471 22.0566C84.2471 21.2624 84.0762 20.6374 83.7344 20.1816C83.5033 19.8691 83.2087 19.7129 82.8506 19.7129ZM88.7051 19.3955V20.9189H88.5439C88.4202 20.4404 88.2607 20.1149 88.0654 19.9424C87.8734 19.7699 87.6276 19.6836 87.3281 19.6836C87.1003 19.6836 86.9163 19.7438 86.7764 19.8643C86.6364 19.9847 86.5664 20.1182 86.5664 20.2646C86.5664 20.4469 86.6185 20.6032 86.7227 20.7334C86.8236 20.8669 87.0286 21.0085 87.3379 21.1582L88.0508 21.5049C88.7116 21.8271 89.042 22.252 89.042 22.7793C89.042 23.1862 88.8874 23.515 88.5781 23.7656C88.2721 24.013 87.9287 24.1367 87.5479 24.1367C87.2744 24.1367 86.9619 24.0879 86.6104 23.9902C86.5029 23.9577 86.415 23.9414 86.3467 23.9414C86.2718 23.9414 86.2132 23.9837 86.1709 24.0684H86.0098V22.4717H86.1709C86.262 22.9274 86.4362 23.2708 86.6934 23.502C86.9505 23.7331 87.2386 23.8486 87.5576 23.8486C87.7822 23.8486 87.9645 23.7835 88.1045 23.6533C88.2477 23.5199 88.3193 23.3604 88.3193 23.1748C88.3193 22.9502 88.2396 22.7614 88.0801 22.6084C87.9238 22.4554 87.6097 22.2617 87.1377 22.0273C86.6657 21.793 86.3564 21.5814 86.21 21.3926C86.0635 21.207 85.9902 20.9727 85.9902 20.6895C85.9902 20.3216 86.1156 20.014 86.3662 19.7666C86.6201 19.5192 86.9473 19.3955 87.3477 19.3955C87.5234 19.3955 87.7367 19.4329 87.9873 19.5078C88.1533 19.5566 88.264 19.5811 88.3193 19.5811C88.3714 19.5811 88.4121 19.5697 88.4414 19.5469C88.4707 19.5241 88.5049 19.4736 88.5439 19.3955H88.7051ZM90.8486 17.0566C90.9854 17.0566 91.1009 17.1055 91.1953 17.2031C91.293 17.2975 91.3418 17.4131 91.3418 17.5498C91.3418 17.6865 91.293 17.8037 91.1953 17.9014C91.1009 17.999 90.9854 18.0479 90.8486 18.0479C90.7119 18.0479 90.5947 17.999 90.4971 17.9014C90.3994 17.8037 90.3506 17.6865 90.3506 17.5498C90.3506 17.4131 90.3978 17.2975 90.4922 17.2031C90.5898 17.1055 90.7087 17.0566 90.8486 17.0566ZM91.2539 19.3955V22.9893C91.2539 23.2692 91.2734 23.4564 91.3125 23.5508C91.3548 23.6419 91.415 23.7103 91.4932 23.7559C91.5745 23.8014 91.721 23.8242 91.9326 23.8242V24H89.7598V23.8242C89.9779 23.8242 90.1243 23.8031 90.1992 23.7607C90.2741 23.7184 90.3327 23.6484 90.375 23.5508C90.4206 23.4531 90.4434 23.266 90.4434 22.9893V21.2656C90.4434 20.7806 90.4287 20.4665 90.3994 20.3232C90.3766 20.2191 90.3408 20.1475 90.292 20.1084C90.2432 20.0661 90.1764 20.0449 90.0918 20.0449C90.0007 20.0449 89.89 20.0693 89.7598 20.1182L89.6914 19.9424L91.0391 19.3955H91.2539ZM93.793 18.0576V19.5273H94.8379V19.8691H93.793V22.7695C93.793 23.0592 93.8337 23.2546 93.915 23.3555C93.9997 23.4564 94.1071 23.5068 94.2373 23.5068C94.3447 23.5068 94.4489 23.4743 94.5498 23.4092C94.6507 23.3408 94.7288 23.2415 94.7842 23.1113H94.9746C94.8607 23.4303 94.6995 23.6712 94.4912 23.834C94.2829 23.9935 94.068 24.0732 93.8467 24.0732C93.6969 24.0732 93.5505 24.0326 93.4072 23.9512C93.264 23.8665 93.1582 23.7477 93.0898 23.5947C93.0215 23.4385 92.9873 23.1992 92.9873 22.877V19.8691H92.2793V19.708C92.4583 19.6364 92.6406 19.516 92.8262 19.3467C93.015 19.1742 93.1826 18.9707 93.3291 18.7363C93.404 18.6126 93.5081 18.3864 93.6416 18.0576H93.793ZM96.415 17.0566C96.5518 17.0566 96.6673 17.1055 96.7617 17.2031C96.8594 17.2975 96.9082 17.4131 96.9082 17.5498C96.9082 17.6865 96.8594 17.8037 96.7617 17.9014C96.6673 17.999 96.5518 18.0479 96.415 18.0479C96.2783 18.0479 96.1611 17.999 96.0635 17.9014C95.9658 17.8037 95.917 17.6865 95.917 17.5498C95.917 17.4131 95.9642 17.2975 96.0586 17.2031C96.1562 17.1055 96.2751 17.0566 96.415 17.0566ZM96.8203 19.3955V22.9893C96.8203 23.2692 96.8398 23.4564 96.8789 23.5508C96.9212 23.6419 96.9814 23.7103 97.0596 23.7559C97.141 23.8014 97.2874 23.8242 97.499 23.8242V24H95.3262V23.8242C95.5443 23.8242 95.6908 23.8031 95.7656 23.7607C95.8405 23.7184 95.8991 23.6484 95.9414 23.5508C95.987 23.4531 96.0098 23.266 96.0098 22.9893V21.2656C96.0098 20.7806 95.9951 20.4665 95.9658 20.3232C95.943 20.2191 95.9072 20.1475 95.8584 20.1084C95.8096 20.0661 95.7428 20.0449 95.6582 20.0449C95.5671 20.0449 95.4564 20.0693 95.3262 20.1182L95.2578 19.9424L96.6055 19.3955H96.8203ZM97.8311 19.5273H99.9355V19.708H99.7988C99.6719 19.708 99.5742 19.7389 99.5059 19.8008C99.4408 19.8626 99.4082 19.9456 99.4082 20.0498C99.4082 20.1637 99.4424 20.2988 99.5107 20.4551L100.551 22.9258L101.596 20.3623C101.671 20.18 101.708 20.0417 101.708 19.9473C101.708 19.9017 101.695 19.8643 101.669 19.835C101.633 19.7861 101.588 19.7536 101.532 19.7373C101.477 19.7178 101.365 19.708 101.195 19.708V19.5273H102.655V19.708C102.486 19.721 102.369 19.7552 102.304 19.8105C102.19 19.9082 102.087 20.071 101.996 20.2988L100.409 24.1367H100.209L98.6123 20.3623C98.5407 20.1865 98.4723 20.0612 98.4072 19.9863C98.3421 19.9082 98.2591 19.8431 98.1582 19.791C98.1029 19.7617 97.9938 19.734 97.8311 19.708V19.5273ZM103.812 21.2119C103.809 21.876 103.97 22.3968 104.296 22.7744C104.621 23.152 105.004 23.3408 105.443 23.3408C105.736 23.3408 105.99 23.2611 106.205 23.1016C106.423 22.9388 106.605 22.6621 106.752 22.2715L106.903 22.3691C106.835 22.8151 106.636 23.222 106.308 23.5898C105.979 23.9544 105.567 24.1367 105.072 24.1367C104.535 24.1367 104.075 23.9284 103.69 23.5117C103.31 23.0918 103.119 22.5286 103.119 21.8223C103.119 21.0573 103.314 20.4616 103.705 20.0352C104.099 19.6055 104.592 19.3906 105.185 19.3906C105.686 19.3906 106.098 19.5566 106.42 19.8887C106.742 20.2174 106.903 20.6585 106.903 21.2119H103.812ZM103.812 20.9287H105.883C105.867 20.6423 105.832 20.4404 105.78 20.3232C105.699 20.141 105.577 19.9977 105.414 19.8936C105.255 19.7894 105.087 19.7373 104.911 19.7373C104.641 19.7373 104.398 19.8431 104.184 20.0547C103.972 20.263 103.848 20.5544 103.812 20.9287ZM111.781 17.7402V20.3574H113.236C113.614 20.3574 113.866 20.3005 113.993 20.1865C114.162 20.0368 114.257 19.7731 114.276 19.3955H114.457V21.7002H114.276C114.231 21.3779 114.185 21.1712 114.14 21.0801C114.081 20.9661 113.985 20.8766 113.852 20.8115C113.718 20.7464 113.513 20.7139 113.236 20.7139H111.781V22.8965C111.781 23.1895 111.794 23.3685 111.82 23.4336C111.846 23.4954 111.892 23.5459 111.957 23.585C112.022 23.6208 112.146 23.6387 112.328 23.6387H113.451C113.826 23.6387 114.097 23.6126 114.267 23.5605C114.436 23.5085 114.599 23.4059 114.755 23.2529C114.957 23.0511 115.163 22.7467 115.375 22.3398H115.57L114.999 24H109.896V23.8193H110.131C110.287 23.8193 110.435 23.7819 110.575 23.707C110.679 23.6549 110.749 23.5768 110.785 23.4727C110.824 23.3685 110.844 23.1553 110.844 22.833V18.5312C110.844 18.1113 110.801 17.8525 110.717 17.7549C110.6 17.6247 110.404 17.5596 110.131 17.5596H109.896V17.3789H114.999L115.072 18.8291H114.882C114.813 18.4808 114.737 18.2415 114.652 18.1113C114.571 17.9811 114.449 17.8818 114.286 17.8135C114.156 17.7646 113.926 17.7402 113.598 17.7402H111.781ZM119.276 23.4971C119.058 23.7249 118.845 23.8893 118.637 23.9902C118.428 24.0879 118.204 24.1367 117.963 24.1367C117.475 24.1367 117.048 23.9333 116.684 23.5264C116.319 23.1162 116.137 22.5905 116.137 21.9492C116.137 21.3079 116.339 20.722 116.742 20.1914C117.146 19.6576 117.665 19.3906 118.3 19.3906C118.694 19.3906 119.019 19.516 119.276 19.7666V18.9414C119.276 18.4303 119.263 18.1162 119.237 17.999C119.215 17.8818 119.177 17.8021 119.125 17.7598C119.073 17.7174 119.008 17.6963 118.93 17.6963C118.845 17.6963 118.733 17.7223 118.593 17.7744L118.529 17.6035L119.862 17.0566H120.082V22.2275C120.082 22.7516 120.093 23.0723 120.116 23.1895C120.142 23.3034 120.181 23.3831 120.233 23.4287C120.289 23.4743 120.352 23.4971 120.424 23.4971C120.512 23.4971 120.629 23.4694 120.775 23.4141L120.829 23.585L119.501 24.1367H119.276V23.4971ZM119.276 23.1553V20.8506C119.257 20.6292 119.198 20.4274 119.101 20.2451C119.003 20.0628 118.873 19.9261 118.71 19.835C118.55 19.7406 118.394 19.6934 118.241 19.6934C117.955 19.6934 117.699 19.8219 117.475 20.0791C117.178 20.4176 117.03 20.9124 117.03 21.5635C117.03 22.221 117.174 22.7256 117.46 23.0771C117.746 23.4255 118.065 23.5996 118.417 23.5996C118.713 23.5996 119 23.4515 119.276 23.1553ZM122.313 22.3691C122.04 22.2357 121.83 22.0501 121.684 21.8125C121.537 21.5716 121.464 21.3063 121.464 21.0166C121.464 20.5739 121.63 20.193 121.962 19.874C122.297 19.555 122.725 19.3955 123.246 19.3955C123.673 19.3955 124.042 19.4997 124.354 19.708H125.302C125.442 19.708 125.523 19.7129 125.546 19.7227C125.569 19.7292 125.585 19.7422 125.595 19.7617C125.614 19.791 125.624 19.8431 125.624 19.918C125.624 20.0026 125.616 20.0612 125.6 20.0938C125.59 20.11 125.572 20.123 125.546 20.1328C125.523 20.1426 125.442 20.1475 125.302 20.1475H124.721C124.903 20.3818 124.994 20.6813 124.994 21.0459C124.994 21.4626 124.835 21.819 124.516 22.1152C124.197 22.4115 123.769 22.5596 123.231 22.5596C123.01 22.5596 122.784 22.527 122.553 22.4619C122.41 22.5856 122.312 22.6947 122.26 22.7891C122.211 22.8802 122.187 22.9583 122.187 23.0234C122.187 23.0788 122.213 23.1325 122.265 23.1846C122.32 23.2367 122.426 23.2741 122.582 23.2969C122.673 23.3099 122.901 23.3213 123.266 23.3311C123.936 23.3473 124.371 23.3701 124.569 23.3994C124.872 23.4417 125.113 23.554 125.292 23.7363C125.474 23.9186 125.565 24.1432 125.565 24.4102C125.565 24.778 125.393 25.123 125.048 25.4453C124.54 25.9206 123.878 26.1582 123.061 26.1582C122.432 26.1582 121.902 26.0166 121.469 25.7334C121.225 25.5706 121.103 25.4014 121.103 25.2256C121.103 25.1475 121.12 25.0693 121.156 24.9912C121.212 24.8708 121.326 24.7031 121.498 24.4883C121.521 24.459 121.687 24.2832 121.996 23.9609C121.827 23.86 121.706 23.7705 121.635 23.6924C121.566 23.611 121.532 23.5199 121.532 23.4189C121.532 23.305 121.578 23.1715 121.669 23.0186C121.763 22.8656 121.978 22.6491 122.313 22.3691ZM123.163 19.6299C122.922 19.6299 122.72 19.7259 122.558 19.918C122.395 20.11 122.313 20.4046 122.313 20.8018C122.313 21.3161 122.424 21.7148 122.646 21.998C122.815 22.2129 123.03 22.3203 123.29 22.3203C123.537 22.3203 123.741 22.2275 123.9 22.042C124.06 21.8564 124.14 21.5651 124.14 21.168C124.14 20.6504 124.027 20.2451 123.803 19.9521C123.637 19.7373 123.424 19.6299 123.163 19.6299ZM122.265 24C122.112 24.166 121.996 24.3206 121.918 24.4639C121.84 24.6071 121.801 24.7389 121.801 24.8594C121.801 25.0156 121.895 25.1523 122.084 25.2695C122.41 25.4714 122.88 25.5723 123.495 25.5723C124.081 25.5723 124.512 25.4681 124.789 25.2598C125.069 25.0547 125.209 24.835 125.209 24.6006C125.209 24.4313 125.126 24.3109 124.96 24.2393C124.791 24.1676 124.455 24.1253 123.954 24.1123C123.222 24.0928 122.659 24.0553 122.265 24ZM126.869 21.2119C126.866 21.876 127.027 22.3968 127.353 22.7744C127.678 23.152 128.061 23.3408 128.5 23.3408C128.793 23.3408 129.047 23.2611 129.262 23.1016C129.48 22.9388 129.662 22.6621 129.809 22.2715L129.96 22.3691C129.892 22.8151 129.693 23.222 129.364 23.5898C129.035 23.9544 128.624 24.1367 128.129 24.1367C127.592 24.1367 127.131 23.9284 126.747 23.5117C126.366 23.0918 126.176 22.5286 126.176 21.8223C126.176 21.0573 126.371 20.4616 126.762 20.0352C127.156 19.6055 127.649 19.3906 128.241 19.3906C128.743 19.3906 129.154 19.5566 129.477 19.8887C129.799 20.2174 129.96 20.6585 129.96 21.2119H126.869ZM126.869 20.9287H128.939C128.923 20.6423 128.889 20.4404 128.837 20.3232C128.756 20.141 128.633 19.9977 128.471 19.8936C128.311 19.7894 128.144 19.7373 127.968 19.7373C127.698 19.7373 127.455 19.8431 127.24 20.0547C127.029 20.263 126.905 20.5544 126.869 20.9287ZM138.349 17.3789L138.422 18.9316H138.236C138.201 18.6582 138.152 18.4629 138.09 18.3457C137.989 18.1569 137.854 18.0186 137.685 17.9307C137.519 17.8395 137.299 17.7939 137.025 17.7939H136.093V22.8525C136.093 23.2594 136.137 23.5133 136.225 23.6143C136.348 23.751 136.539 23.8193 136.796 23.8193H137.025V24H134.218V23.8193H134.452C134.732 23.8193 134.931 23.7347 135.048 23.5654C135.119 23.4613 135.155 23.2236 135.155 22.8525V17.7939H134.359C134.05 17.7939 133.83 17.8167 133.7 17.8623C133.531 17.9242 133.386 18.043 133.266 18.2188C133.145 18.3945 133.074 18.6322 133.051 18.9316H132.865L132.943 17.3789H138.349ZM139.945 19.3955V20.4014C140.32 19.7308 140.704 19.3955 141.098 19.3955C141.277 19.3955 141.425 19.4508 141.542 19.5615C141.659 19.6689 141.718 19.7943 141.718 19.9375C141.718 20.0645 141.675 20.1719 141.591 20.2598C141.506 20.3477 141.405 20.3916 141.288 20.3916C141.174 20.3916 141.046 20.3363 140.902 20.2256C140.762 20.1117 140.658 20.0547 140.59 20.0547C140.531 20.0547 140.468 20.0872 140.399 20.1523C140.253 20.2858 140.102 20.5055 139.945 20.8115V22.9551C139.945 23.2025 139.976 23.3896 140.038 23.5166C140.08 23.6045 140.155 23.6777 140.263 23.7363C140.37 23.7949 140.525 23.8242 140.727 23.8242V24H138.437V23.8242C138.664 23.8242 138.834 23.7884 138.944 23.7168C139.026 23.6647 139.083 23.5817 139.115 23.4678C139.132 23.4124 139.14 23.2546 139.14 22.9941V21.2607C139.14 20.7399 139.128 20.4307 139.105 20.333C139.086 20.2321 139.047 20.1589 138.988 20.1133C138.933 20.0677 138.863 20.0449 138.778 20.0449C138.677 20.0449 138.563 20.0693 138.437 20.1182L138.388 19.9424L139.74 19.3955H139.945ZM143.104 17.0566C143.241 17.0566 143.357 17.1055 143.451 17.2031C143.549 17.2975 143.598 17.4131 143.598 17.5498C143.598 17.6865 143.549 17.8037 143.451 17.9014C143.357 17.999 143.241 18.0479 143.104 18.0479C142.968 18.0479 142.851 17.999 142.753 17.9014C142.655 17.8037 142.606 17.6865 142.606 17.5498C142.606 17.4131 142.654 17.2975 142.748 17.2031C142.846 17.1055 142.965 17.0566 143.104 17.0566ZM143.51 19.3955V22.9893C143.51 23.2692 143.529 23.4564 143.568 23.5508C143.611 23.6419 143.671 23.7103 143.749 23.7559C143.83 23.8014 143.977 23.8242 144.188 23.8242V24H142.016V23.8242C142.234 23.8242 142.38 23.8031 142.455 23.7607C142.53 23.7184 142.589 23.6484 142.631 23.5508C142.676 23.4531 142.699 23.266 142.699 22.9893V21.2656C142.699 20.7806 142.685 20.4665 142.655 20.3232C142.632 20.2191 142.597 20.1475 142.548 20.1084C142.499 20.0661 142.432 20.0449 142.348 20.0449C142.257 20.0449 142.146 20.0693 142.016 20.1182L141.947 19.9424L143.295 19.3955H143.51ZM145.946 22.3691C145.673 22.2357 145.463 22.0501 145.316 21.8125C145.17 21.5716 145.097 21.3063 145.097 21.0166C145.097 20.5739 145.263 20.193 145.595 19.874C145.93 19.555 146.358 19.3955 146.879 19.3955C147.305 19.3955 147.675 19.4997 147.987 19.708H148.935C149.075 19.708 149.156 19.7129 149.179 19.7227C149.201 19.7292 149.218 19.7422 149.228 19.7617C149.247 19.791 149.257 19.8431 149.257 19.918C149.257 20.0026 149.249 20.0612 149.232 20.0938C149.223 20.11 149.205 20.123 149.179 20.1328C149.156 20.1426 149.075 20.1475 148.935 20.1475H148.354C148.536 20.3818 148.627 20.6813 148.627 21.0459C148.627 21.4626 148.467 21.819 148.148 22.1152C147.829 22.4115 147.401 22.5596 146.864 22.5596C146.643 22.5596 146.417 22.527 146.186 22.4619C146.042 22.5856 145.945 22.6947 145.893 22.7891C145.844 22.8802 145.819 22.9583 145.819 23.0234C145.819 23.0788 145.845 23.1325 145.897 23.1846C145.953 23.2367 146.059 23.2741 146.215 23.2969C146.306 23.3099 146.534 23.3213 146.898 23.3311C147.569 23.3473 148.004 23.3701 148.202 23.3994C148.505 23.4417 148.746 23.554 148.925 23.7363C149.107 23.9186 149.198 24.1432 149.198 24.4102C149.198 24.778 149.026 25.123 148.681 25.4453C148.173 25.9206 147.51 26.1582 146.693 26.1582C146.065 26.1582 145.535 26.0166 145.102 25.7334C144.857 25.5706 144.735 25.4014 144.735 25.2256C144.735 25.1475 144.753 25.0693 144.789 24.9912C144.844 24.8708 144.958 24.7031 145.131 24.4883C145.154 24.459 145.32 24.2832 145.629 23.9609C145.46 23.86 145.339 23.7705 145.268 23.6924C145.199 23.611 145.165 23.5199 145.165 23.4189C145.165 23.305 145.211 23.1715 145.302 23.0186C145.396 22.8656 145.611 22.6491 145.946 22.3691ZM146.796 19.6299C146.555 19.6299 146.353 19.7259 146.19 19.918C146.028 20.11 145.946 20.4046 145.946 20.8018C145.946 21.3161 146.057 21.7148 146.278 21.998C146.448 22.2129 146.662 22.3203 146.923 22.3203C147.17 22.3203 147.374 22.2275 147.533 22.042C147.693 21.8564 147.772 21.5651 147.772 21.168C147.772 20.6504 147.66 20.2451 147.436 19.9521C147.27 19.7373 147.056 19.6299 146.796 19.6299ZM145.897 24C145.744 24.166 145.629 24.3206 145.551 24.4639C145.473 24.6071 145.434 24.7389 145.434 24.8594C145.434 25.0156 145.528 25.1523 145.717 25.2695C146.042 25.4714 146.513 25.5723 147.128 25.5723C147.714 25.5723 148.145 25.4681 148.422 25.2598C148.702 25.0547 148.842 24.835 148.842 24.6006C148.842 24.4313 148.759 24.3109 148.593 24.2393C148.424 24.1676 148.088 24.1253 147.587 24.1123C146.854 24.0928 146.291 24.0553 145.897 24ZM150.946 22.3691C150.673 22.2357 150.463 22.0501 150.316 21.8125C150.17 21.5716 150.097 21.3063 150.097 21.0166C150.097 20.5739 150.263 20.193 150.595 19.874C150.93 19.555 151.358 19.3955 151.879 19.3955C152.305 19.3955 152.675 19.4997 152.987 19.708H153.935C154.075 19.708 154.156 19.7129 154.179 19.7227C154.201 19.7292 154.218 19.7422 154.228 19.7617C154.247 19.791 154.257 19.8431 154.257 19.918C154.257 20.0026 154.249 20.0612 154.232 20.0938C154.223 20.11 154.205 20.123 154.179 20.1328C154.156 20.1426 154.075 20.1475 153.935 20.1475H153.354C153.536 20.3818 153.627 20.6813 153.627 21.0459C153.627 21.4626 153.467 21.819 153.148 22.1152C152.829 22.4115 152.401 22.5596 151.864 22.5596C151.643 22.5596 151.417 22.527 151.186 22.4619C151.042 22.5856 150.945 22.6947 150.893 22.7891C150.844 22.8802 150.819 22.9583 150.819 23.0234C150.819 23.0788 150.845 23.1325 150.897 23.1846C150.953 23.2367 151.059 23.2741 151.215 23.2969C151.306 23.3099 151.534 23.3213 151.898 23.3311C152.569 23.3473 153.004 23.3701 153.202 23.3994C153.505 23.4417 153.746 23.554 153.925 23.7363C154.107 23.9186 154.198 24.1432 154.198 24.4102C154.198 24.778 154.026 25.123 153.681 25.4453C153.173 25.9206 152.51 26.1582 151.693 26.1582C151.065 26.1582 150.535 26.0166 150.102 25.7334C149.857 25.5706 149.735 25.4014 149.735 25.2256C149.735 25.1475 149.753 25.0693 149.789 24.9912C149.844 24.8708 149.958 24.7031 150.131 24.4883C150.154 24.459 150.32 24.2832 150.629 23.9609C150.46 23.86 150.339 23.7705 150.268 23.6924C150.199 23.611 150.165 23.5199 150.165 23.4189C150.165 23.305 150.211 23.1715 150.302 23.0186C150.396 22.8656 150.611 22.6491 150.946 22.3691ZM151.796 19.6299C151.555 19.6299 151.353 19.7259 151.19 19.918C151.028 20.11 150.946 20.4046 150.946 20.8018C150.946 21.3161 151.057 21.7148 151.278 21.998C151.448 22.2129 151.662 22.3203 151.923 22.3203C152.17 22.3203 152.374 22.2275 152.533 22.042C152.693 21.8564 152.772 21.5651 152.772 21.168C152.772 20.6504 152.66 20.2451 152.436 19.9521C152.27 19.7373 152.056 19.6299 151.796 19.6299ZM150.897 24C150.744 24.166 150.629 24.3206 150.551 24.4639C150.473 24.6071 150.434 24.7389 150.434 24.8594C150.434 25.0156 150.528 25.1523 150.717 25.2695C151.042 25.4714 151.513 25.5723 152.128 25.5723C152.714 25.5723 153.145 25.4681 153.422 25.2598C153.702 25.0547 153.842 24.835 153.842 24.6006C153.842 24.4313 153.759 24.3109 153.593 24.2393C153.424 24.1676 153.088 24.1253 152.587 24.1123C151.854 24.0928 151.291 24.0553 150.897 24ZM155.502 21.2119C155.499 21.876 155.66 22.3968 155.985 22.7744C156.311 23.152 156.693 23.3408 157.133 23.3408C157.426 23.3408 157.68 23.2611 157.895 23.1016C158.113 22.9388 158.295 22.6621 158.441 22.2715L158.593 22.3691C158.524 22.8151 158.326 23.222 157.997 23.5898C157.668 23.9544 157.257 24.1367 156.762 24.1367C156.225 24.1367 155.764 23.9284 155.38 23.5117C154.999 23.0918 154.809 22.5286 154.809 21.8223C154.809 21.0573 155.004 20.4616 155.395 20.0352C155.788 19.6055 156.282 19.3906 156.874 19.3906C157.375 19.3906 157.787 19.5566 158.109 19.8887C158.432 20.2174 158.593 20.6585 158.593 21.2119H155.502ZM155.502 20.9287H157.572C157.556 20.6423 157.522 20.4404 157.47 20.3232C157.388 20.141 157.266 19.9977 157.104 19.8936C156.944 19.7894 156.776 19.7373 156.601 19.7373C156.33 19.7373 156.088 19.8431 155.873 20.0547C155.661 20.263 155.538 20.5544 155.502 20.9287ZM160.502 19.3955V20.4014C160.876 19.7308 161.26 19.3955 161.654 19.3955C161.833 19.3955 161.981 19.4508 162.099 19.5615C162.216 19.6689 162.274 19.7943 162.274 19.9375C162.274 20.0645 162.232 20.1719 162.147 20.2598C162.063 20.3477 161.962 20.3916 161.845 20.3916C161.731 20.3916 161.602 20.3363 161.459 20.2256C161.319 20.1117 161.215 20.0547 161.146 20.0547C161.088 20.0547 161.024 20.0872 160.956 20.1523C160.81 20.2858 160.658 20.5055 160.502 20.8115V22.9551C160.502 23.2025 160.533 23.3896 160.595 23.5166C160.637 23.6045 160.712 23.6777 160.819 23.7363C160.927 23.7949 161.081 23.8242 161.283 23.8242V24H158.993V23.8242C159.221 23.8242 159.39 23.7884 159.501 23.7168C159.582 23.6647 159.639 23.5817 159.672 23.4678C159.688 23.4124 159.696 23.2546 159.696 22.9941V21.2607C159.696 20.7399 159.685 20.4307 159.662 20.333C159.643 20.2321 159.604 20.1589 159.545 20.1133C159.49 20.0677 159.42 20.0449 159.335 20.0449C159.234 20.0449 159.12 20.0693 158.993 20.1182L158.944 19.9424L160.297 19.3955H160.502ZM163.275 21.2119C163.272 21.876 163.433 22.3968 163.759 22.7744C164.084 23.152 164.467 23.3408 164.906 23.3408C165.199 23.3408 165.453 23.2611 165.668 23.1016C165.886 22.9388 166.068 22.6621 166.215 22.2715L166.366 22.3691C166.298 22.8151 166.099 23.222 165.771 23.5898C165.442 23.9544 165.03 24.1367 164.535 24.1367C163.998 24.1367 163.537 23.9284 163.153 23.5117C162.772 23.0918 162.582 22.5286 162.582 21.8223C162.582 21.0573 162.777 20.4616 163.168 20.0352C163.562 19.6055 164.055 19.3906 164.647 19.3906C165.149 19.3906 165.561 19.5566 165.883 19.8887C166.205 20.2174 166.366 20.6585 166.366 21.2119H163.275ZM163.275 20.9287H165.346C165.329 20.6423 165.295 20.4404 165.243 20.3232C165.162 20.141 165.04 19.9977 164.877 19.8936C164.717 19.7894 164.55 19.7373 164.374 19.7373C164.104 19.7373 163.861 19.8431 163.646 20.0547C163.435 20.263 163.311 20.5544 163.275 20.9287ZM170.126 23.4971C169.908 23.7249 169.695 23.8893 169.486 23.9902C169.278 24.0879 169.053 24.1367 168.812 24.1367C168.324 24.1367 167.898 23.9333 167.533 23.5264C167.169 23.1162 166.986 22.5905 166.986 21.9492C166.986 21.3079 167.188 20.722 167.592 20.1914C167.995 19.6576 168.515 19.3906 169.149 19.3906C169.543 19.3906 169.869 19.516 170.126 19.7666V18.9414C170.126 18.4303 170.113 18.1162 170.087 17.999C170.064 17.8818 170.027 17.8021 169.975 17.7598C169.923 17.7174 169.857 17.6963 169.779 17.6963C169.695 17.6963 169.582 17.7223 169.442 17.7744L169.379 17.6035L170.712 17.0566H170.932V22.2275C170.932 22.7516 170.943 23.0723 170.966 23.1895C170.992 23.3034 171.031 23.3831 171.083 23.4287C171.138 23.4743 171.202 23.4971 171.273 23.4971C171.361 23.4971 171.479 23.4694 171.625 23.4141L171.679 23.585L170.351 24.1367H170.126V23.4971ZM170.126 23.1553V20.8506C170.106 20.6292 170.048 20.4274 169.95 20.2451C169.853 20.0628 169.722 19.9261 169.56 19.835C169.4 19.7406 169.244 19.6934 169.091 19.6934C168.804 19.6934 168.549 19.8219 168.324 20.0791C168.028 20.4176 167.88 20.9124 167.88 21.5635C167.88 22.221 168.023 22.7256 168.31 23.0771C168.596 23.4255 168.915 23.5996 169.267 23.5996C169.563 23.5996 169.849 23.4515 170.126 23.1553Z" fill="black"/>
<circle cx="100" cy="151" r="3" fill="white" stroke="black" stroke-width="2"/>
<circle cx="134" cy="131" r="3" fill="white" stroke="black" stroke-width="2"/>
<path d="M81.8261 101.252L83.7236 100L81.8261 98.748L71.3261 91.8198L69 90.2849V93.0718V106.928V109.715L71.3261 108.18L81.8261 101.252Z" fill="white" stroke="black" stroke-width="3"/>
</svg>
