<svg width="200" height="200" viewBox="0 0 200 200" fill="none" xmlns="http://www.w3.org/2000/svg">
<rect width="200" height="200" fill="white"/>
<rect x="68.5" y="51.5" width="62" height="97" fill="white" stroke="black" stroke-width="3"/>
<line y1="66" x2="67" y2="66" stroke="black" stroke-width="2"/>
<line y1="131" x2="67" y2="131" stroke="black" stroke-width="2"/>
<line y1="99" x2="67" y2="99" stroke="black" stroke-width="2"/>
<line x1="130" y1="66" x2="200" y2="66" stroke="black" stroke-width="2"/>
<line x1="130" y1="131" x2="200" y2="131" stroke="black" stroke-width="2"/>
<path d="M73.1953 64.2715V64.0547H76.5996V64.2715H76.3125C75.9883 64.2715 75.752 64.3672 75.6035 64.5586C75.5098 64.6836 75.4629 64.9844 75.4629 65.4609V69.3457C75.4629 69.9434 75.3965 70.4277 75.2637 70.7988C75.1348 71.1699 74.9102 71.4941 74.5898 71.7715C74.2695 72.0449 73.8828 72.1816 73.4297 72.1816C73.0625 72.1816 72.7734 72.0918 72.5625 71.9121C72.3516 71.7285 72.2461 71.5195 72.2461 71.2852C72.2461 71.0938 72.2949 70.9492 72.3926 70.8516C72.5215 70.7305 72.6719 70.6699 72.8438 70.6699C72.9688 70.6699 73.0801 70.7109 73.1777 70.793C73.2793 70.875 73.4062 71.0938 73.5586 71.4492C73.6484 71.6602 73.7637 71.7656 73.9043 71.7656C74.0098 71.7656 74.1074 71.7012 74.1973 71.5723C74.291 71.4434 74.3379 71.2148 74.3379 70.8867V65.4609C74.3379 65.0586 74.3125 64.793 74.2617 64.6641C74.2227 64.5664 74.1406 64.4824 74.0156 64.4121C73.8477 64.3184 73.6699 64.2715 73.4824 64.2715H73.1953Z" fill="black"/>
<path d="M74.5078 96.4883V99.6289H76.2539C76.707 99.6289 77.0098 99.5605 77.1621 99.4238C77.3652 99.2441 77.4785 98.9277 77.502 98.4746H77.7188V101.24H77.502C77.4473 100.854 77.3926 100.605 77.3379 100.496C77.2676 100.359 77.1523 100.252 76.9922 100.174C76.832 100.096 76.5859 100.057 76.2539 100.057H74.5078V102.676C74.5078 103.027 74.5234 103.242 74.5547 103.32C74.5859 103.395 74.6406 103.455 74.7188 103.502C74.7969 103.545 74.9453 103.566 75.1641 103.566H76.5117C76.9609 103.566 77.2871 103.535 77.4902 103.473C77.6934 103.41 77.8887 103.287 78.0762 103.104C78.3184 102.861 78.5664 102.496 78.8203 102.008H79.0547L78.3691 104H72.2461V103.783H72.5273C72.7148 103.783 72.8926 103.738 73.0605 103.648C73.1855 103.586 73.2695 103.492 73.3125 103.367C73.3594 103.242 73.3828 102.986 73.3828 102.6V97.4375C73.3828 96.9336 73.332 96.623 73.2305 96.5059C73.0898 96.3496 72.8555 96.2715 72.5273 96.2715H72.2461V96.0547H78.3691L78.457 97.7949H78.2285C78.1465 97.377 78.0547 97.0898 77.9531 96.9336C77.8555 96.7773 77.709 96.6582 77.5137 96.5762C77.3574 96.5176 77.082 96.4883 76.6875 96.4883H74.5078ZM79.1777 96.0547H81.334L86.1914 102.014V97.4316C86.1914 96.9434 86.1367 96.6387 86.0273 96.5176C85.8828 96.3535 85.6543 96.2715 85.3418 96.2715H85.0664V96.0547H87.832V96.2715H87.5508C87.2148 96.2715 86.9766 96.373 86.8359 96.5762C86.75 96.7012 86.707 96.9863 86.707 97.4316V104.129H86.4961L81.2578 97.7305V102.623C81.2578 103.111 81.3105 103.416 81.416 103.537C81.5645 103.701 81.793 103.783 82.1016 103.783H82.3828V104H79.6172V103.783H79.8926C80.2324 103.783 80.4727 103.682 80.6133 103.479C80.6992 103.354 80.7422 103.068 80.7422 102.623V97.0977C80.5117 96.8281 80.3359 96.6504 80.2148 96.5645C80.0977 96.4785 79.9238 96.3984 79.6934 96.3242C79.5801 96.2891 79.4082 96.2715 79.1777 96.2715V96.0547Z" fill="black"/>
<path d="M75.5859 127.594L78.5156 130.506C78.9961 130.986 79.4062 131.314 79.7461 131.49C80.0859 131.662 80.4258 131.76 80.7656 131.783V132H76.9863V131.783C77.2129 131.783 77.375 131.746 77.4727 131.672C77.5742 131.594 77.625 131.508 77.625 131.414C77.625 131.32 77.6055 131.236 77.5664 131.162C77.5312 131.088 77.4102 130.949 77.2031 130.746L74.4609 128.033V130.594C74.4609 130.996 74.4863 131.262 74.5371 131.391C74.5762 131.488 74.6582 131.572 74.7832 131.643C74.9512 131.736 75.1289 131.783 75.3164 131.783H75.5859V132H72.1992V131.783H72.4805C72.8086 131.783 73.0469 131.688 73.1953 131.496C73.2891 131.371 73.3359 131.07 73.3359 130.594V125.461C73.3359 125.059 73.3105 124.791 73.2598 124.658C73.2207 124.564 73.1406 124.482 73.0195 124.412C72.8477 124.318 72.668 124.271 72.4805 124.271H72.1992V124.055H75.5859V124.271H75.3164C75.1328 124.271 74.9551 124.316 74.7832 124.406C74.6621 124.469 74.5781 124.562 74.5312 124.688C74.4844 124.812 74.4609 125.07 74.4609 125.461V127.893C74.5391 127.818 74.8066 127.57 75.2637 127.148C76.4238 126.086 77.125 125.377 77.3672 125.021C77.4727 124.865 77.5254 124.729 77.5254 124.611C77.5254 124.521 77.4844 124.443 77.4023 124.377C77.3203 124.307 77.1816 124.271 76.9863 124.271H76.8047V124.055H79.7227V124.271C79.5508 124.275 79.3945 124.299 79.2539 124.342C79.1133 124.385 78.9414 124.469 78.7383 124.594C78.5352 124.715 78.2852 124.912 77.9883 125.186C77.9023 125.264 77.5059 125.664 76.7988 126.387L75.5859 127.594Z" fill="black"/>
<path d="M122.285 72.0879C122.684 72.7754 123.113 73.2812 123.574 73.6055C124.039 73.9297 124.566 74.1152 125.156 74.1621V74.3496C124.617 74.3301 124.041 74.2207 123.428 74.0215C122.814 73.8262 122.232 73.5527 121.682 73.2012C121.135 72.8535 120.662 72.4824 120.264 72.0879C119.701 71.8613 119.256 71.6211 118.928 71.3672C118.451 70.9883 118.08 70.5234 117.814 69.9727C117.553 69.418 117.422 68.7637 117.422 68.0098C117.422 66.8223 117.807 65.8359 118.576 65.0508C119.346 64.2656 120.277 63.873 121.371 63.873C122.41 63.873 123.309 64.2676 124.066 65.0566C124.828 65.8418 125.209 66.834 125.209 68.0332C125.209 69.0059 124.938 69.8594 124.395 70.5938C123.855 71.3281 123.152 71.8262 122.285 72.0879ZM121.301 64.3242C120.59 64.3242 120.018 64.5781 119.584 65.0859C119.037 65.7227 118.764 66.6973 118.764 68.0098C118.764 69.2949 119.041 70.2852 119.596 70.9805C120.025 71.5156 120.594 71.7832 121.301 71.7832C122.035 71.7832 122.627 71.5156 123.076 70.9805C123.604 70.3477 123.867 69.4141 123.867 68.1797C123.867 67.2305 123.723 66.4316 123.434 65.7832C123.211 65.2832 122.914 64.916 122.543 64.6816C122.176 64.4434 121.762 64.3242 121.301 64.3242Z" fill="black"/>
<path d="M119.285 132.088C119.684 132.775 120.113 133.281 120.574 133.605C121.039 133.93 121.566 134.115 122.156 134.162V134.35C121.617 134.33 121.041 134.221 120.428 134.021C119.814 133.826 119.232 133.553 118.682 133.201C118.135 132.854 117.662 132.482 117.264 132.088C116.701 131.861 116.256 131.621 115.928 131.367C115.451 130.988 115.08 130.523 114.814 129.973C114.553 129.418 114.422 128.764 114.422 128.01C114.422 126.822 114.807 125.836 115.576 125.051C116.346 124.266 117.277 123.873 118.371 123.873C119.41 123.873 120.309 124.268 121.066 125.057C121.828 125.842 122.209 126.834 122.209 128.033C122.209 129.006 121.938 129.859 121.395 130.594C120.855 131.328 120.152 131.826 119.285 132.088ZM118.301 124.324C117.59 124.324 117.018 124.578 116.584 125.086C116.037 125.723 115.764 126.697 115.764 128.01C115.764 129.295 116.041 130.285 116.596 130.98C117.025 131.516 117.594 131.783 118.301 131.783C119.035 131.783 119.627 131.516 120.076 130.98C120.604 130.348 120.867 129.414 120.867 128.18C120.867 127.23 120.723 126.432 120.434 125.783C120.211 125.283 119.914 124.916 119.543 124.682C119.176 124.443 118.762 124.324 118.301 124.324ZM124.066 126.908V126.633C124.469 126.395 124.742 126.172 124.887 125.965C124.988 125.816 125.039 125.639 125.039 125.432C125.039 125.311 125.018 125.221 124.975 125.162C124.928 125.104 124.877 125.074 124.822 125.074C124.779 125.074 124.723 125.088 124.652 125.115C124.551 125.15 124.467 125.168 124.4 125.168C124.244 125.168 124.105 125.109 123.984 124.992C123.863 124.875 123.803 124.729 123.803 124.553C123.803 124.357 123.863 124.205 123.984 124.096C124.148 123.947 124.344 123.873 124.57 123.873C124.832 123.873 125.066 123.984 125.273 124.207C125.484 124.426 125.59 124.699 125.59 125.027C125.59 125.488 125.416 125.908 125.068 126.287C124.838 126.537 124.504 126.744 124.066 126.908Z" fill="black"/>
<path d="M66.9961 17.5596V17.3789H69.833V17.5596H69.5938C69.3236 17.5596 69.1266 17.6393 69.0029 17.7988C68.9248 17.903 68.8857 18.1536 68.8857 18.5508V21.7881C68.8857 22.2861 68.8304 22.6898 68.7197 22.999C68.6123 23.3083 68.4251 23.5785 68.1582 23.8096C67.8913 24.0374 67.569 24.1514 67.1914 24.1514C66.8854 24.1514 66.6445 24.0765 66.4688 23.9268C66.293 23.7738 66.2051 23.5996 66.2051 23.4043C66.2051 23.2448 66.2458 23.1243 66.3271 23.043C66.4346 22.9421 66.5599 22.8916 66.7031 22.8916C66.8073 22.8916 66.9001 22.9258 66.9814 22.9941C67.0661 23.0625 67.1719 23.2448 67.2988 23.541C67.3737 23.7168 67.4697 23.8047 67.5869 23.8047C67.6748 23.8047 67.7562 23.751 67.8311 23.6436C67.9092 23.5361 67.9482 23.3457 67.9482 23.0723V18.5508C67.9482 18.2155 67.9271 17.9941 67.8848 17.8867C67.8522 17.8053 67.7839 17.7354 67.6797 17.6768C67.5397 17.5986 67.3916 17.5596 67.2354 17.5596H66.9961ZM72.8848 20.3281L75.3262 22.7549C75.7266 23.1553 76.0684 23.4287 76.3516 23.5752C76.6348 23.7184 76.918 23.7998 77.2012 23.8193V24H74.0518V23.8193C74.2406 23.8193 74.3757 23.7884 74.457 23.7266C74.5417 23.6615 74.584 23.5898 74.584 23.5117C74.584 23.4336 74.5677 23.3636 74.5352 23.3018C74.5059 23.2399 74.4049 23.1243 74.2324 22.9551L71.9473 20.6943V22.8281C71.9473 23.1634 71.9684 23.3848 72.0107 23.4922C72.0433 23.5736 72.1117 23.6436 72.2158 23.7021C72.3558 23.7803 72.5039 23.8193 72.6602 23.8193H72.8848V24H70.0625V23.8193H70.2969C70.5703 23.8193 70.7689 23.7396 70.8926 23.5801C70.9707 23.4759 71.0098 23.2253 71.0098 22.8281V18.5508C71.0098 18.2155 70.9886 17.9925 70.9463 17.8818C70.9137 17.8037 70.847 17.7354 70.7461 17.6768C70.6029 17.5986 70.4531 17.5596 70.2969 17.5596H70.0625V17.3789H72.8848V17.5596H72.6602C72.5072 17.5596 72.359 17.597 72.2158 17.6719C72.1149 17.724 72.0449 17.8021 72.0059 17.9062C71.9668 18.0104 71.9473 18.2253 71.9473 18.5508V20.5771C72.0124 20.5153 72.2354 20.3086 72.6162 19.957C73.583 19.0716 74.1673 18.4808 74.3691 18.1846C74.457 18.0544 74.501 17.9404 74.501 17.8428C74.501 17.7679 74.4668 17.7028 74.3984 17.6475C74.3301 17.5889 74.2145 17.5596 74.0518 17.5596H73.9004V17.3789H76.332V17.5596C76.1888 17.5628 76.0586 17.5824 75.9414 17.6182C75.8242 17.654 75.681 17.724 75.5117 17.8281C75.3424 17.929 75.1341 18.0934 74.8867 18.3213C74.8151 18.3864 74.4847 18.7201 73.8955 19.3223L72.8848 20.3281ZM85.3555 22.1689L85.5166 22.2031L84.9502 24H79.8232V23.8193H80.0723C80.3522 23.8193 80.5524 23.7282 80.6729 23.5459C80.7412 23.4417 80.7754 23.2008 80.7754 22.8232V18.5508C80.7754 18.1374 80.7298 17.8786 80.6387 17.7744C80.5117 17.6312 80.3229 17.5596 80.0723 17.5596H79.8232V17.3789H82.8213V17.5596C82.4697 17.5563 82.2223 17.5889 82.0791 17.6572C81.9391 17.7256 81.8431 17.8118 81.791 17.916C81.7389 18.0202 81.7129 18.2692 81.7129 18.6631V22.8232C81.7129 23.0934 81.7389 23.279 81.791 23.3799C81.8301 23.4482 81.8903 23.4987 81.9717 23.5312C82.0531 23.5638 82.307 23.5801 82.7334 23.5801H83.2168C83.7246 23.5801 84.0811 23.5426 84.2861 23.4678C84.4912 23.3929 84.6784 23.2611 84.8477 23.0723C85.0169 22.8802 85.1862 22.5791 85.3555 22.1689ZM88.583 23.3555C88.124 23.7103 87.8359 23.9154 87.7188 23.9707C87.543 24.0521 87.3558 24.0928 87.1572 24.0928C86.848 24.0928 86.5924 23.987 86.3906 23.7754C86.1921 23.5638 86.0928 23.2855 86.0928 22.9404C86.0928 22.7223 86.1416 22.5335 86.2393 22.374C86.3727 22.1527 86.6038 21.9443 86.9326 21.749C87.2646 21.5537 87.8148 21.3161 88.583 21.0361V20.8604C88.583 20.4144 88.5114 20.1084 88.3682 19.9424C88.2282 19.7764 88.0231 19.6934 87.7529 19.6934C87.5479 19.6934 87.3851 19.7487 87.2646 19.8594C87.141 19.9701 87.0791 20.097 87.0791 20.2402L87.0889 20.5234C87.0889 20.6732 87.0498 20.7887 86.9717 20.8701C86.8968 20.9515 86.7975 20.9922 86.6738 20.9922C86.5534 20.9922 86.4541 20.9499 86.376 20.8652C86.3011 20.7806 86.2637 20.665 86.2637 20.5186C86.2637 20.2386 86.4069 19.9814 86.6934 19.7471C86.9798 19.5127 87.3818 19.3955 87.8994 19.3955C88.2965 19.3955 88.6221 19.4622 88.876 19.5957C89.068 19.6966 89.2096 19.8545 89.3008 20.0693C89.3594 20.2093 89.3887 20.4958 89.3887 20.9287V22.4473C89.3887 22.8737 89.3968 23.1357 89.4131 23.2334C89.4294 23.3278 89.4554 23.3913 89.4912 23.4238C89.5303 23.4564 89.5742 23.4727 89.623 23.4727C89.6751 23.4727 89.7207 23.4613 89.7598 23.4385C89.8281 23.3962 89.96 23.2773 90.1553 23.082V23.3555C89.7907 23.8438 89.4424 24.0879 89.1104 24.0879C88.9508 24.0879 88.8239 24.0326 88.7295 23.9219C88.6351 23.8112 88.5863 23.6224 88.583 23.3555ZM88.583 23.0381V21.334C88.0915 21.5293 87.7741 21.6676 87.6309 21.749C87.3737 21.8923 87.1898 22.042 87.0791 22.1982C86.9684 22.3545 86.9131 22.5254 86.9131 22.7109C86.9131 22.9453 86.9831 23.1406 87.123 23.2969C87.263 23.4499 87.4242 23.5264 87.6064 23.5264C87.8538 23.5264 88.1794 23.3636 88.583 23.0381ZM91.791 18.0576V19.5273H92.8359V19.8691H91.791V22.7695C91.791 23.0592 91.8317 23.2546 91.9131 23.3555C91.9977 23.4564 92.1051 23.5068 92.2354 23.5068C92.3428 23.5068 92.4469 23.4743 92.5479 23.4092C92.6488 23.3408 92.7269 23.2415 92.7822 23.1113H92.9727C92.8587 23.4303 92.6976 23.6712 92.4893 23.834C92.2809 23.9935 92.0661 24.0732 91.8447 24.0732C91.695 24.0732 91.5485 24.0326 91.4053 23.9512C91.262 23.8665 91.1562 23.7477 91.0879 23.5947C91.0195 23.4385 90.9854 23.1992 90.9854 22.877V19.8691H90.2773V19.708C90.4564 19.6364 90.6387 19.516 90.8242 19.3467C91.013 19.1742 91.1807 18.9707 91.3271 18.7363C91.402 18.6126 91.5062 18.3864 91.6396 18.0576H91.791ZM97.0742 22.3008C96.9538 22.89 96.7178 23.3441 96.3662 23.6631C96.0146 23.9788 95.6257 24.1367 95.1992 24.1367C94.6914 24.1367 94.2487 23.9235 93.8711 23.4971C93.4935 23.0706 93.3047 22.4945 93.3047 21.7686C93.3047 21.0654 93.513 20.4941 93.9297 20.0547C94.3496 19.6152 94.8525 19.3955 95.4385 19.3955C95.8779 19.3955 96.2393 19.5127 96.5225 19.7471C96.8057 19.9782 96.9473 20.2191 96.9473 20.4697C96.9473 20.5934 96.9066 20.6943 96.8252 20.7725C96.7471 20.8473 96.6364 20.8848 96.4932 20.8848C96.3011 20.8848 96.1562 20.8229 96.0586 20.6992C96.0033 20.6309 95.9658 20.5007 95.9463 20.3086C95.93 20.1165 95.8649 19.9701 95.751 19.8691C95.637 19.7715 95.4792 19.7227 95.2773 19.7227C94.9518 19.7227 94.6898 19.8431 94.4912 20.084C94.2275 20.403 94.0957 20.8245 94.0957 21.3486C94.0957 21.8825 94.2259 22.3545 94.4863 22.7646C94.75 23.1715 95.1048 23.375 95.5508 23.375C95.8698 23.375 96.1562 23.266 96.4102 23.0479C96.5892 22.8981 96.7633 22.6263 96.9326 22.2324L97.0742 22.3008ZM99.0322 17.0566V20.3281C99.3936 19.931 99.68 19.6771 99.8916 19.5664C100.103 19.4525 100.315 19.3955 100.526 19.3955C100.78 19.3955 100.998 19.4655 101.181 19.6055C101.363 19.7454 101.498 19.9652 101.586 20.2646C101.648 20.473 101.679 20.8538 101.679 21.4072V22.9893C101.679 23.2725 101.701 23.4661 101.747 23.5703C101.78 23.6484 101.835 23.7103 101.913 23.7559C101.991 23.8014 102.134 23.8242 102.343 23.8242V24H100.146V23.8242H100.248C100.456 23.8242 100.601 23.7933 100.683 23.7314C100.764 23.6663 100.821 23.5719 100.854 23.4482C100.863 23.3962 100.868 23.2432 100.868 22.9893V21.4072C100.868 20.9189 100.842 20.5983 100.79 20.4453C100.741 20.2923 100.661 20.1784 100.551 20.1035C100.44 20.0254 100.307 19.9863 100.15 19.9863C99.9909 19.9863 99.8249 20.0286 99.6523 20.1133C99.4798 20.1979 99.2731 20.3688 99.0322 20.626V22.9893C99.0322 23.2952 99.0485 23.4857 99.0811 23.5605C99.1169 23.6354 99.1803 23.6989 99.2715 23.751C99.3659 23.7998 99.527 23.8242 99.7549 23.8242V24H97.5381V23.8242C97.7367 23.8242 97.8929 23.7933 98.0068 23.7314C98.0719 23.6989 98.124 23.637 98.1631 23.5459C98.2021 23.4548 98.2217 23.2692 98.2217 22.9893V18.9414C98.2217 18.4303 98.2087 18.1162 98.1826 17.999C98.1598 17.8818 98.1224 17.8021 98.0703 17.7598C98.0215 17.7174 97.9548 17.6963 97.8701 17.6963C97.8018 17.6963 97.6911 17.7223 97.5381 17.7744L97.4697 17.6035L98.8076 17.0566H99.0322ZM106.996 17.7402V20.3574H108.451C108.829 20.3574 109.081 20.3005 109.208 20.1865C109.377 20.0368 109.472 19.7731 109.491 19.3955H109.672V21.7002H109.491C109.446 21.3779 109.4 21.1712 109.354 21.0801C109.296 20.9661 109.2 20.8766 109.066 20.8115C108.933 20.7464 108.728 20.7139 108.451 20.7139H106.996V22.8965C106.996 23.1895 107.009 23.3685 107.035 23.4336C107.061 23.4954 107.107 23.5459 107.172 23.585C107.237 23.6208 107.361 23.6387 107.543 23.6387H108.666C109.04 23.6387 109.312 23.6126 109.481 23.5605C109.651 23.5085 109.813 23.4059 109.97 23.2529C110.172 23.0511 110.378 22.7467 110.59 22.3398H110.785L110.214 24H105.111V23.8193H105.346C105.502 23.8193 105.65 23.7819 105.79 23.707C105.894 23.6549 105.964 23.5768 106 23.4727C106.039 23.3685 106.059 23.1553 106.059 22.833V18.5312C106.059 18.1113 106.016 17.8525 105.932 17.7549C105.814 17.6247 105.619 17.5596 105.346 17.5596H105.111V17.3789H110.214L110.287 18.8291H110.097C110.028 18.4808 109.952 18.2415 109.867 18.1113C109.786 17.9811 109.664 17.8818 109.501 17.8135C109.371 17.7646 109.141 17.7402 108.812 17.7402H106.996ZM112.636 20.3428C113.16 19.7113 113.66 19.3955 114.135 19.3955C114.379 19.3955 114.589 19.4574 114.765 19.5811C114.94 19.7015 115.08 19.9017 115.185 20.1816C115.256 20.377 115.292 20.6764 115.292 21.0801V22.9893C115.292 23.2725 115.315 23.4645 115.36 23.5654C115.396 23.6468 115.453 23.7103 115.531 23.7559C115.613 23.8014 115.761 23.8242 115.976 23.8242V24H113.764V23.8242H113.856C114.065 23.8242 114.21 23.7933 114.291 23.7314C114.376 23.6663 114.434 23.5719 114.467 23.4482C114.48 23.3994 114.486 23.2464 114.486 22.9893V21.1582C114.486 20.7513 114.433 20.4567 114.325 20.2744C114.221 20.0889 114.044 19.9961 113.793 19.9961C113.406 19.9961 113.02 20.2077 112.636 20.6309V22.9893C112.636 23.292 112.654 23.4792 112.689 23.5508C112.735 23.6452 112.797 23.7152 112.875 23.7607C112.956 23.8031 113.119 23.8242 113.363 23.8242V24H111.151V23.8242H111.249C111.477 23.8242 111.63 23.7673 111.708 23.6533C111.789 23.5361 111.83 23.3148 111.83 22.9893V21.3291C111.83 20.792 111.817 20.4648 111.791 20.3477C111.768 20.2305 111.731 20.1507 111.679 20.1084C111.63 20.0661 111.563 20.0449 111.479 20.0449C111.387 20.0449 111.278 20.0693 111.151 20.1182L111.078 19.9424L112.426 19.3955H112.636V20.3428ZM118.866 23.3555C118.407 23.7103 118.119 23.9154 118.002 23.9707C117.826 24.0521 117.639 24.0928 117.44 24.0928C117.131 24.0928 116.876 23.987 116.674 23.7754C116.475 23.5638 116.376 23.2855 116.376 22.9404C116.376 22.7223 116.425 22.5335 116.522 22.374C116.656 22.1527 116.887 21.9443 117.216 21.749C117.548 21.5537 118.098 21.3161 118.866 21.0361V20.8604C118.866 20.4144 118.795 20.1084 118.651 19.9424C118.511 19.7764 118.306 19.6934 118.036 19.6934C117.831 19.6934 117.668 19.7487 117.548 19.8594C117.424 19.9701 117.362 20.097 117.362 20.2402L117.372 20.5234C117.372 20.6732 117.333 20.7887 117.255 20.8701C117.18 20.9515 117.081 20.9922 116.957 20.9922C116.837 20.9922 116.737 20.9499 116.659 20.8652C116.584 20.7806 116.547 20.665 116.547 20.5186C116.547 20.2386 116.69 19.9814 116.977 19.7471C117.263 19.5127 117.665 19.3955 118.183 19.3955C118.58 19.3955 118.905 19.4622 119.159 19.5957C119.351 19.6966 119.493 19.8545 119.584 20.0693C119.643 20.2093 119.672 20.4958 119.672 20.9287V22.4473C119.672 22.8737 119.68 23.1357 119.696 23.2334C119.713 23.3278 119.739 23.3913 119.774 23.4238C119.813 23.4564 119.857 23.4727 119.906 23.4727C119.958 23.4727 120.004 23.4613 120.043 23.4385C120.111 23.3962 120.243 23.2773 120.438 23.082V23.3555C120.074 23.8438 119.726 24.0879 119.394 24.0879C119.234 24.0879 119.107 24.0326 119.013 23.9219C118.918 23.8112 118.869 23.6224 118.866 23.3555ZM118.866 23.0381V21.334C118.375 21.5293 118.057 21.6676 117.914 21.749C117.657 21.8923 117.473 22.042 117.362 22.1982C117.252 22.3545 117.196 22.5254 117.196 22.7109C117.196 22.9453 117.266 23.1406 117.406 23.2969C117.546 23.4499 117.707 23.5264 117.89 23.5264C118.137 23.5264 118.463 23.3636 118.866 23.0381ZM122.001 20.2988C122.434 19.6966 122.901 19.3955 123.402 19.3955C123.861 19.3955 124.262 19.5924 124.604 19.9863C124.945 20.377 125.116 20.9124 125.116 21.5928C125.116 22.387 124.853 23.0267 124.325 23.5117C123.873 23.9284 123.368 24.1367 122.812 24.1367C122.551 24.1367 122.286 24.0895 122.016 23.9951C121.749 23.9007 121.475 23.7591 121.195 23.5703V18.9365C121.195 18.4287 121.182 18.1162 121.156 17.999C121.133 17.8818 121.096 17.8021 121.044 17.7598C120.992 17.7174 120.927 17.6963 120.849 17.6963C120.757 17.6963 120.644 17.7223 120.507 17.7744L120.438 17.6035L121.781 17.0566H122.001V20.2988ZM122.001 20.6113V23.2871C122.167 23.4499 122.338 23.5736 122.514 23.6582C122.693 23.7396 122.875 23.7803 123.061 23.7803C123.357 23.7803 123.632 23.6175 123.886 23.292C124.143 22.9665 124.271 22.4928 124.271 21.8711C124.271 21.2982 124.143 20.8587 123.886 20.5527C123.632 20.2435 123.342 20.0889 123.017 20.0889C122.844 20.0889 122.672 20.1328 122.499 20.2207C122.369 20.2858 122.203 20.416 122.001 20.6113ZM127.313 17.0566V22.9893C127.313 23.2692 127.333 23.4548 127.372 23.5459C127.414 23.637 127.478 23.707 127.562 23.7559C127.647 23.8014 127.805 23.8242 128.036 23.8242V24H125.844V23.8242C126.049 23.8242 126.189 23.8031 126.264 23.7607C126.339 23.7184 126.397 23.6484 126.439 23.5508C126.482 23.4531 126.503 23.266 126.503 22.9893V18.9268C126.503 18.4222 126.492 18.113 126.469 17.999C126.446 17.8818 126.409 17.8021 126.356 17.7598C126.308 17.7174 126.244 17.6963 126.166 17.6963C126.081 17.6963 125.974 17.7223 125.844 17.7744L125.761 17.6035L127.094 17.0566H127.313ZM129.311 21.2119C129.307 21.876 129.468 22.3968 129.794 22.7744C130.119 23.152 130.502 23.3408 130.941 23.3408C131.234 23.3408 131.488 23.2611 131.703 23.1016C131.921 22.9388 132.104 22.6621 132.25 22.2715L132.401 22.3691C132.333 22.8151 132.134 23.222 131.806 23.5898C131.477 23.9544 131.065 24.1367 130.57 24.1367C130.033 24.1367 129.573 23.9284 129.188 23.5117C128.808 23.0918 128.617 22.5286 128.617 21.8223C128.617 21.0573 128.812 20.4616 129.203 20.0352C129.597 19.6055 130.09 19.3906 130.683 19.3906C131.184 19.3906 131.596 19.5566 131.918 19.8887C132.24 20.2174 132.401 20.6585 132.401 21.2119H129.311ZM129.311 20.9287H131.381C131.365 20.6423 131.33 20.4404 131.278 20.3232C131.197 20.141 131.075 19.9977 130.912 19.8936C130.753 19.7894 130.585 19.7373 130.409 19.7373C130.139 19.7373 129.896 19.8431 129.682 20.0547C129.47 20.263 129.346 20.5544 129.311 20.9287Z" fill="black"/>
<circle cx="134" cy="131" r="3" fill="white" stroke="black" stroke-width="2"/>
</svg>
