<svg width="200" height="200" viewBox="0 0 200 200" fill="none" xmlns="http://www.w3.org/2000/svg">
<rect width="200" height="200" fill="white"/>
<rect x="68.5" y="51.5" width="62" height="97" fill="white" stroke="black" stroke-width="3"/>
<line y1="66" x2="67" y2="66" stroke="black" stroke-width="2"/>
<line y1="131" x2="67" y2="131" stroke="black" stroke-width="2"/>
<line x1="130" y1="66" x2="200" y2="66" stroke="black" stroke-width="2"/>
<line x1="130" y1="131" x2="200" y2="131" stroke="black" stroke-width="2"/>
<path d="M77.502 63.873V66.6211H77.2852C77.2148 66.0938 77.0879 65.6738 76.9043 65.3613C76.7246 65.0488 76.4668 64.8008 76.1309 64.6172C75.7949 64.4336 75.4473 64.3418 75.0879 64.3418C74.6816 64.3418 74.3457 64.4668 74.0801 64.7168C73.8145 64.9629 73.6816 65.2441 73.6816 65.5605C73.6816 65.8027 73.7656 66.0234 73.9336 66.2227C74.1758 66.5156 74.752 66.9062 75.6621 67.3945C76.4043 67.793 76.9102 68.0996 77.1797 68.3145C77.4531 68.5254 77.6621 68.7754 77.8066 69.0645C77.9551 69.3535 78.0293 69.6562 78.0293 69.9727C78.0293 70.5742 77.7949 71.0938 77.3262 71.5312C76.8613 71.9648 76.2617 72.1816 75.5273 72.1816C75.2969 72.1816 75.0801 72.1641 74.877 72.1289C74.7559 72.1094 74.5039 72.0391 74.1211 71.918C73.7422 71.793 73.502 71.7305 73.4004 71.7305C73.3027 71.7305 73.2246 71.7598 73.166 71.8184C73.1113 71.877 73.0703 71.998 73.043 72.1816H72.8262V69.457H73.043C73.1445 70.0273 73.2812 70.4551 73.4531 70.7402C73.625 71.0215 73.8867 71.2559 74.2383 71.4434C74.5938 71.6309 74.9824 71.7246 75.4043 71.7246C75.8926 71.7246 76.2773 71.5957 76.5586 71.3379C76.8438 71.0801 76.9863 70.7754 76.9863 70.4238C76.9863 70.2285 76.9316 70.0312 76.8223 69.832C76.7168 69.6328 76.5508 69.4473 76.3242 69.2754C76.1719 69.1582 75.7559 68.9102 75.0762 68.5312C74.3965 68.1484 73.9121 67.8438 73.623 67.6172C73.3379 67.3906 73.1211 67.1406 72.9727 66.8672C72.8242 66.5938 72.75 66.293 72.75 65.9648C72.75 65.3945 72.9688 64.9043 73.4062 64.4941C73.8438 64.0801 74.4004 63.873 75.0762 63.873C75.498 63.873 75.9453 63.9766 76.418 64.1836C76.6367 64.2812 76.791 64.3301 76.8809 64.3301C76.9824 64.3301 77.0645 64.3008 77.127 64.2422C77.1934 64.1797 77.2461 64.0566 77.2852 63.873H77.502Z" fill="black"/>
<path d="M80.1094 132H77.9883L75.2988 128.285C75.0996 128.293 74.9375 128.297 74.8125 128.297C74.7617 128.297 74.707 128.297 74.6484 128.297C74.5898 128.293 74.5293 128.289 74.4668 128.285V130.594C74.4668 131.094 74.5215 131.404 74.6309 131.525C74.7793 131.697 75.002 131.783 75.2988 131.783H75.6094V132H72.2051V131.783H72.5039C72.8398 131.783 73.0801 131.674 73.2246 131.455C73.3066 131.334 73.3477 131.047 73.3477 130.594V125.461C73.3477 124.961 73.293 124.65 73.1836 124.529C73.0312 124.357 72.8047 124.271 72.5039 124.271H72.2051V124.055H75.0996C75.9434 124.055 76.5645 124.117 76.9629 124.242C77.3652 124.363 77.7051 124.59 77.9824 124.922C78.2637 125.25 78.4043 125.643 78.4043 126.1C78.4043 126.588 78.2441 127.012 77.9238 127.371C77.6074 127.73 77.1152 127.984 76.4473 128.133L78.0879 130.412C78.4629 130.936 78.7852 131.283 79.0547 131.455C79.3242 131.627 79.6758 131.736 80.1094 131.783V132ZM74.4668 127.916C74.541 127.916 74.6055 127.918 74.6602 127.922C74.7148 127.922 74.7598 127.922 74.7949 127.922C75.5527 127.922 76.123 127.758 76.5059 127.43C76.8926 127.102 77.0859 126.684 77.0859 126.176C77.0859 125.68 76.9297 125.277 76.6172 124.969C76.3086 124.656 75.8984 124.5 75.3867 124.5C75.1602 124.5 74.8535 124.537 74.4668 124.611V127.916Z" fill="black"/>
<path d="M122.285 72.0879C122.684 72.7754 123.113 73.2812 123.574 73.6055C124.039 73.9297 124.566 74.1152 125.156 74.1621V74.3496C124.617 74.3301 124.041 74.2207 123.428 74.0215C122.814 73.8262 122.232 73.5527 121.682 73.2012C121.135 72.8535 120.662 72.4824 120.264 72.0879C119.701 71.8613 119.256 71.6211 118.928 71.3672C118.451 70.9883 118.08 70.5234 117.814 69.9727C117.553 69.418 117.422 68.7637 117.422 68.0098C117.422 66.8223 117.807 65.8359 118.576 65.0508C119.346 64.2656 120.277 63.873 121.371 63.873C122.41 63.873 123.309 64.2676 124.066 65.0566C124.828 65.8418 125.209 66.834 125.209 68.0332C125.209 69.0059 124.938 69.8594 124.395 70.5938C123.855 71.3281 123.152 71.8262 122.285 72.0879ZM121.301 64.3242C120.59 64.3242 120.018 64.5781 119.584 65.0859C119.037 65.7227 118.764 66.6973 118.764 68.0098C118.764 69.2949 119.041 70.2852 119.596 70.9805C120.025 71.5156 120.594 71.7832 121.301 71.7832C122.035 71.7832 122.627 71.5156 123.076 70.9805C123.604 70.3477 123.867 69.4141 123.867 68.1797C123.867 67.2305 123.723 66.4316 123.434 65.7832C123.211 65.2832 122.914 64.916 122.543 64.6816C122.176 64.4434 121.762 64.3242 121.301 64.3242Z" fill="black"/>
<path d="M119.285 132.088C119.684 132.775 120.113 133.281 120.574 133.605C121.039 133.93 121.566 134.115 122.156 134.162V134.35C121.617 134.33 121.041 134.221 120.428 134.021C119.814 133.826 119.232 133.553 118.682 133.201C118.135 132.854 117.662 132.482 117.264 132.088C116.701 131.861 116.256 131.621 115.928 131.367C115.451 130.988 115.08 130.523 114.814 129.973C114.553 129.418 114.422 128.764 114.422 128.01C114.422 126.822 114.807 125.836 115.576 125.051C116.346 124.266 117.277 123.873 118.371 123.873C119.41 123.873 120.309 124.268 121.066 125.057C121.828 125.842 122.209 126.834 122.209 128.033C122.209 129.006 121.938 129.859 121.395 130.594C120.855 131.328 120.152 131.826 119.285 132.088ZM118.301 124.324C117.59 124.324 117.018 124.578 116.584 125.086C116.037 125.723 115.764 126.697 115.764 128.01C115.764 129.295 116.041 130.285 116.596 130.98C117.025 131.516 117.594 131.783 118.301 131.783C119.035 131.783 119.627 131.516 120.076 130.98C120.604 130.348 120.867 129.414 120.867 128.18C120.867 127.23 120.723 126.432 120.434 125.783C120.211 125.283 119.914 124.916 119.543 124.682C119.176 124.443 118.762 124.324 118.301 124.324ZM124.066 126.908V126.633C124.469 126.395 124.742 126.172 124.887 125.965C124.988 125.816 125.039 125.639 125.039 125.432C125.039 125.311 125.018 125.221 124.975 125.162C124.928 125.104 124.877 125.074 124.822 125.074C124.779 125.074 124.723 125.088 124.652 125.115C124.551 125.15 124.467 125.168 124.4 125.168C124.244 125.168 124.105 125.109 123.984 124.992C123.863 124.875 123.803 124.729 123.803 124.553C123.803 124.357 123.863 124.205 123.984 124.096C124.148 123.947 124.344 123.873 124.57 123.873C124.832 123.873 125.066 123.984 125.273 124.207C125.484 124.426 125.59 124.699 125.59 125.027C125.59 125.488 125.416 125.908 125.068 126.287C124.838 126.537 124.504 126.744 124.066 126.908Z" fill="black"/>
<path d="M81.585 17.2275V19.5176H81.4043C81.3457 19.0781 81.2399 18.7282 81.0869 18.4678C80.9372 18.2074 80.7223 18.0007 80.4424 17.8477C80.1624 17.6947 79.8727 17.6182 79.5732 17.6182C79.2347 17.6182 78.9548 17.7223 78.7334 17.9307C78.512 18.1357 78.4014 18.3701 78.4014 18.6338C78.4014 18.8356 78.4714 19.0195 78.6113 19.1855C78.8132 19.4297 79.2933 19.7552 80.0518 20.1621C80.6702 20.4941 81.0918 20.7497 81.3164 20.9287C81.5443 21.1045 81.7184 21.3128 81.8389 21.5537C81.9626 21.7946 82.0244 22.0469 82.0244 22.3105C82.0244 22.8118 81.8291 23.2448 81.4385 23.6094C81.0511 23.9707 80.5514 24.1514 79.9395 24.1514C79.7474 24.1514 79.5667 24.1367 79.3975 24.1074C79.2965 24.0911 79.0866 24.0326 78.7676 23.9316C78.4518 23.8275 78.2516 23.7754 78.167 23.7754C78.0856 23.7754 78.0205 23.7998 77.9717 23.8486C77.9261 23.8975 77.8919 23.9984 77.8691 24.1514H77.6885V21.8809H77.8691C77.9538 22.3561 78.0677 22.7126 78.2109 22.9502C78.3542 23.1846 78.5723 23.3799 78.8652 23.5361C79.1615 23.6924 79.4854 23.7705 79.8369 23.7705C80.2438 23.7705 80.5645 23.6631 80.7988 23.4482C81.0365 23.2334 81.1553 22.9795 81.1553 22.6865C81.1553 22.5238 81.1097 22.3594 81.0186 22.1934C80.9307 22.0273 80.7923 21.8727 80.6035 21.7295C80.4766 21.6318 80.1299 21.4251 79.5635 21.1094C78.9971 20.7904 78.5934 20.5365 78.3525 20.3477C78.1149 20.1589 77.9342 19.9505 77.8105 19.7227C77.6868 19.4948 77.625 19.2441 77.625 18.9707C77.625 18.4954 77.8073 18.0869 78.1719 17.7451C78.5365 17.4001 79.0003 17.2275 79.5635 17.2275C79.915 17.2275 80.2878 17.3138 80.6816 17.4863C80.8639 17.5677 80.9925 17.6084 81.0674 17.6084C81.152 17.6084 81.2204 17.584 81.2725 17.5352C81.3278 17.4831 81.3717 17.3805 81.4043 17.2275H81.585ZM83.7285 19.7568V19.5273C84.0638 19.3288 84.2917 19.1432 84.4121 18.9707C84.4967 18.847 84.5391 18.6989 84.5391 18.5264C84.5391 18.4255 84.5212 18.3506 84.4854 18.3018C84.4463 18.2529 84.404 18.2285 84.3584 18.2285C84.3226 18.2285 84.2754 18.2399 84.2168 18.2627C84.1322 18.292 84.0622 18.3066 84.0068 18.3066C83.8766 18.3066 83.7611 18.2578 83.6602 18.1602C83.5592 18.0625 83.5088 17.9404 83.5088 17.7939C83.5088 17.6312 83.5592 17.5042 83.6602 17.4131C83.7969 17.2894 83.9596 17.2275 84.1484 17.2275C84.3665 17.2275 84.5618 17.3203 84.7344 17.5059C84.9102 17.6882 84.998 17.916 84.998 18.1895C84.998 18.5736 84.8532 18.9235 84.5635 19.2393C84.3714 19.4476 84.0931 19.6201 83.7285 19.7568ZM92.6543 24H90.8867L88.6455 20.9043C88.4795 20.9108 88.3444 20.9141 88.2402 20.9141C88.1979 20.9141 88.1523 20.9141 88.1035 20.9141C88.0547 20.9108 88.0042 20.9076 87.9521 20.9043V22.8281C87.9521 23.2448 87.9977 23.5036 88.0889 23.6045C88.2126 23.7477 88.3981 23.8193 88.6455 23.8193H88.9043V24H86.0674V23.8193H86.3164C86.5964 23.8193 86.7965 23.7282 86.917 23.5459C86.9854 23.445 87.0195 23.2057 87.0195 22.8281V18.5508C87.0195 18.1341 86.974 17.8753 86.8828 17.7744C86.7559 17.6312 86.5671 17.5596 86.3164 17.5596H86.0674V17.3789H88.4795C89.1826 17.3789 89.7002 17.431 90.0322 17.5352C90.3675 17.6361 90.6507 17.8249 90.8818 18.1016C91.1162 18.375 91.2334 18.7021 91.2334 19.083C91.2334 19.4899 91.0999 19.8431 90.833 20.1426C90.5693 20.4421 90.1592 20.6536 89.6025 20.7773L90.9697 22.6768C91.2822 23.113 91.5508 23.4027 91.7754 23.5459C92 23.6891 92.293 23.7803 92.6543 23.8193V24ZM87.9521 20.5967C88.014 20.5967 88.0677 20.5983 88.1133 20.6016C88.1589 20.6016 88.1963 20.6016 88.2256 20.6016C88.8571 20.6016 89.3324 20.4648 89.6514 20.1914C89.9736 19.918 90.1348 19.5697 90.1348 19.1465C90.1348 18.7331 90.0046 18.3978 89.7441 18.1406C89.487 17.8802 89.1452 17.75 88.7188 17.75C88.5299 17.75 88.2744 17.7809 87.9521 17.8428V20.5967ZM93.7285 19.7568V19.5273C94.0638 19.3288 94.2917 19.1432 94.4121 18.9707C94.4967 18.847 94.5391 18.6989 94.5391 18.5264C94.5391 18.4255 94.5212 18.3506 94.4854 18.3018C94.4463 18.2529 94.404 18.2285 94.3584 18.2285C94.3226 18.2285 94.2754 18.2399 94.2168 18.2627C94.1322 18.292 94.0622 18.3066 94.0068 18.3066C93.8766 18.3066 93.7611 18.2578 93.6602 18.1602C93.5592 18.0625 93.5088 17.9404 93.5088 17.7939C93.5088 17.6312 93.5592 17.5042 93.6602 17.4131C93.7969 17.2894 93.9596 17.2275 94.1484 17.2275C94.3665 17.2275 94.5618 17.3203 94.7344 17.5059C94.9102 17.6882 94.998 17.916 94.998 18.1895C94.998 18.5736 94.8532 18.9235 94.5635 19.2393C94.3714 19.4476 94.0931 19.6201 93.7285 19.7568ZM103.387 22.1689L103.548 22.2031L102.981 24H97.8545V23.8193H98.1035C98.3835 23.8193 98.5837 23.7282 98.7041 23.5459C98.7725 23.4417 98.8066 23.2008 98.8066 22.8232V18.5508C98.8066 18.1374 98.7611 17.8786 98.6699 17.7744C98.543 17.6312 98.3542 17.5596 98.1035 17.5596H97.8545V17.3789H100.853V17.5596C100.501 17.5563 100.254 17.5889 100.11 17.6572C99.9704 17.7256 99.8743 17.8118 99.8223 17.916C99.7702 18.0202 99.7441 18.2692 99.7441 18.6631V22.8232C99.7441 23.0934 99.7702 23.279 99.8223 23.3799C99.8613 23.4482 99.9215 23.4987 100.003 23.5312C100.084 23.5638 100.338 23.5801 100.765 23.5801H101.248C101.756 23.5801 102.112 23.5426 102.317 23.4678C102.522 23.3929 102.71 23.2611 102.879 23.0723C103.048 22.8802 103.217 22.5791 103.387 22.1689ZM106.614 23.3555C106.155 23.7103 105.867 23.9154 105.75 23.9707C105.574 24.0521 105.387 24.0928 105.188 24.0928C104.879 24.0928 104.624 23.987 104.422 23.7754C104.223 23.5638 104.124 23.2855 104.124 22.9404C104.124 22.7223 104.173 22.5335 104.271 22.374C104.404 22.1527 104.635 21.9443 104.964 21.749C105.296 21.5537 105.846 21.3161 106.614 21.0361V20.8604C106.614 20.4144 106.543 20.1084 106.399 19.9424C106.259 19.7764 106.054 19.6934 105.784 19.6934C105.579 19.6934 105.416 19.7487 105.296 19.8594C105.172 19.9701 105.11 20.097 105.11 20.2402L105.12 20.5234C105.12 20.6732 105.081 20.7887 105.003 20.8701C104.928 20.9515 104.829 20.9922 104.705 20.9922C104.585 20.9922 104.485 20.9499 104.407 20.8652C104.332 20.7806 104.295 20.665 104.295 20.5186C104.295 20.2386 104.438 19.9814 104.725 19.7471C105.011 19.5127 105.413 19.3955 105.931 19.3955C106.328 19.3955 106.653 19.4622 106.907 19.5957C107.099 19.6966 107.241 19.8545 107.332 20.0693C107.391 20.2093 107.42 20.4958 107.42 20.9287V22.4473C107.42 22.8737 107.428 23.1357 107.444 23.2334C107.461 23.3278 107.487 23.3913 107.522 23.4238C107.562 23.4564 107.605 23.4727 107.654 23.4727C107.706 23.4727 107.752 23.4613 107.791 23.4385C107.859 23.3962 107.991 23.2773 108.187 23.082V23.3555C107.822 23.8438 107.474 24.0879 107.142 24.0879C106.982 24.0879 106.855 24.0326 106.761 23.9219C106.666 23.8112 106.618 23.6224 106.614 23.3555ZM106.614 23.0381V21.334C106.123 21.5293 105.805 21.6676 105.662 21.749C105.405 21.8923 105.221 22.042 105.11 22.1982C105 22.3545 104.944 22.5254 104.944 22.7109C104.944 22.9453 105.014 23.1406 105.154 23.2969C105.294 23.4499 105.455 23.5264 105.638 23.5264C105.885 23.5264 106.211 23.3636 106.614 23.0381ZM109.822 18.0576V19.5273H110.867V19.8691H109.822V22.7695C109.822 23.0592 109.863 23.2546 109.944 23.3555C110.029 23.4564 110.136 23.5068 110.267 23.5068C110.374 23.5068 110.478 23.4743 110.579 23.4092C110.68 23.3408 110.758 23.2415 110.813 23.1113H111.004C110.89 23.4303 110.729 23.6712 110.521 23.834C110.312 23.9935 110.097 24.0732 109.876 24.0732C109.726 24.0732 109.58 24.0326 109.437 23.9512C109.293 23.8665 109.188 23.7477 109.119 23.5947C109.051 23.4385 109.017 23.1992 109.017 22.877V19.8691H108.309V19.708C108.488 19.6364 108.67 19.516 108.855 19.3467C109.044 19.1742 109.212 18.9707 109.358 18.7363C109.433 18.6126 109.537 18.3864 109.671 18.0576H109.822ZM115.105 22.3008C114.985 22.89 114.749 23.3441 114.397 23.6631C114.046 23.9788 113.657 24.1367 113.23 24.1367C112.723 24.1367 112.28 23.9235 111.902 23.4971C111.525 23.0706 111.336 22.4945 111.336 21.7686C111.336 21.0654 111.544 20.4941 111.961 20.0547C112.381 19.6152 112.884 19.3955 113.47 19.3955C113.909 19.3955 114.271 19.5127 114.554 19.7471C114.837 19.9782 114.979 20.2191 114.979 20.4697C114.979 20.5934 114.938 20.6943 114.856 20.7725C114.778 20.8473 114.668 20.8848 114.524 20.8848C114.332 20.8848 114.188 20.8229 114.09 20.6992C114.035 20.6309 113.997 20.5007 113.978 20.3086C113.961 20.1165 113.896 19.9701 113.782 19.8691C113.668 19.7715 113.51 19.7227 113.309 19.7227C112.983 19.7227 112.721 19.8431 112.522 20.084C112.259 20.403 112.127 20.8245 112.127 21.3486C112.127 21.8825 112.257 22.3545 112.518 22.7646C112.781 23.1715 113.136 23.375 113.582 23.375C113.901 23.375 114.188 23.266 114.441 23.0479C114.62 22.8981 114.795 22.6263 114.964 22.2324L115.105 22.3008ZM117.063 17.0566V20.3281C117.425 19.931 117.711 19.6771 117.923 19.5664C118.134 19.4525 118.346 19.3955 118.558 19.3955C118.812 19.3955 119.03 19.4655 119.212 19.6055C119.394 19.7454 119.529 19.9652 119.617 20.2646C119.679 20.473 119.71 20.8538 119.71 21.4072V22.9893C119.71 23.2725 119.733 23.4661 119.778 23.5703C119.811 23.6484 119.866 23.7103 119.944 23.7559C120.022 23.8014 120.166 23.8242 120.374 23.8242V24H118.177V23.8242H118.279C118.488 23.8242 118.632 23.7933 118.714 23.7314C118.795 23.6663 118.852 23.5719 118.885 23.4482C118.895 23.3962 118.899 23.2432 118.899 22.9893V21.4072C118.899 20.9189 118.873 20.5983 118.821 20.4453C118.772 20.2923 118.693 20.1784 118.582 20.1035C118.471 20.0254 118.338 19.9863 118.182 19.9863C118.022 19.9863 117.856 20.0286 117.684 20.1133C117.511 20.1979 117.304 20.3688 117.063 20.626V22.9893C117.063 23.2952 117.08 23.4857 117.112 23.5605C117.148 23.6354 117.212 23.6989 117.303 23.751C117.397 23.7998 117.558 23.8242 117.786 23.8242V24H115.569V23.8242C115.768 23.8242 115.924 23.7933 116.038 23.7314C116.103 23.6989 116.155 23.637 116.194 23.5459C116.233 23.4548 116.253 23.2692 116.253 22.9893V18.9414C116.253 18.4303 116.24 18.1162 116.214 17.999C116.191 17.8818 116.154 17.8021 116.102 17.7598C116.053 17.7174 115.986 17.6963 115.901 17.6963C115.833 17.6963 115.722 17.7223 115.569 17.7744L115.501 17.6035L116.839 17.0566H117.063Z" fill="black"/>
<circle cx="134" cy="131" r="3" fill="white" stroke="black" stroke-width="2"/>
<circle cx="65" cy="66" r="3" fill="white" stroke="black" stroke-width="2"/>
<circle cx="65" cy="131" r="3" fill="white" stroke="black" stroke-width="2"/>
</svg>
