<svg width="200" height="200" viewBox="0 0 200 200" fill="none" xmlns="http://www.w3.org/2000/svg">
<rect width="200" height="200" fill="white"/>
<rect x="68.5" y="51.5" width="62" height="97" fill="white" stroke="black" stroke-width="3"/>
<line y1="66" x2="67" y2="66" stroke="black" stroke-width="2"/>
<line y1="131" x2="67" y2="131" stroke="black" stroke-width="2"/>
<line y1="99" x2="67" y2="99" stroke="black" stroke-width="2"/>
<line x1="130" y1="66" x2="200" y2="66" stroke="black" stroke-width="2"/>
<line x1="130" y1="131" x2="200" y2="131" stroke="black" stroke-width="2"/>
<path d="M77.502 63.873V66.6211H77.2852C77.2148 66.0938 77.0879 65.6738 76.9043 65.3613C76.7246 65.0488 76.4668 64.8008 76.1309 64.6172C75.7949 64.4336 75.4473 64.3418 75.0879 64.3418C74.6816 64.3418 74.3457 64.4668 74.0801 64.7168C73.8145 64.9629 73.6816 65.2441 73.6816 65.5605C73.6816 65.8027 73.7656 66.0234 73.9336 66.2227C74.1758 66.5156 74.752 66.9062 75.6621 67.3945C76.4043 67.793 76.9102 68.0996 77.1797 68.3145C77.4531 68.5254 77.6621 68.7754 77.8066 69.0645C77.9551 69.3535 78.0293 69.6562 78.0293 69.9727C78.0293 70.5742 77.7949 71.0938 77.3262 71.5312C76.8613 71.9648 76.2617 72.1816 75.5273 72.1816C75.2969 72.1816 75.0801 72.1641 74.877 72.1289C74.7559 72.1094 74.5039 72.0391 74.1211 71.918C73.7422 71.793 73.502 71.7305 73.4004 71.7305C73.3027 71.7305 73.2246 71.7598 73.166 71.8184C73.1113 71.877 73.0703 71.998 73.043 72.1816H72.8262V69.457H73.043C73.1445 70.0273 73.2812 70.4551 73.4531 70.7402C73.625 71.0215 73.8867 71.2559 74.2383 71.4434C74.5938 71.6309 74.9824 71.7246 75.4043 71.7246C75.8926 71.7246 76.2773 71.5957 76.5586 71.3379C76.8438 71.0801 76.9863 70.7754 76.9863 70.4238C76.9863 70.2285 76.9316 70.0312 76.8223 69.832C76.7168 69.6328 76.5508 69.4473 76.3242 69.2754C76.1719 69.1582 75.7559 68.9102 75.0762 68.5312C74.3965 68.1484 73.9121 67.8438 73.623 67.6172C73.3379 67.3906 73.1211 67.1406 72.9727 66.8672C72.8242 66.5938 72.75 66.293 72.75 65.9648C72.75 65.3945 72.9688 64.9043 73.4062 64.4941C73.8438 64.0801 74.4004 63.873 75.0762 63.873C75.498 63.873 75.9453 63.9766 76.418 64.1836C76.6367 64.2812 76.791 64.3301 76.8809 64.3301C76.9824 64.3301 77.0645 64.3008 77.127 64.2422C77.1934 64.1797 77.2461 64.0566 77.2852 63.873H77.502Z" fill="black"/>
<path d="M74.5078 96.4883V99.6289H76.2539C76.707 99.6289 77.0098 99.5605 77.1621 99.4238C77.3652 99.2441 77.4785 98.9277 77.502 98.4746H77.7188V101.24H77.502C77.4473 100.854 77.3926 100.605 77.3379 100.496C77.2676 100.359 77.1523 100.252 76.9922 100.174C76.832 100.096 76.5859 100.057 76.2539 100.057H74.5078V102.676C74.5078 103.027 74.5234 103.242 74.5547 103.32C74.5859 103.395 74.6406 103.455 74.7188 103.502C74.7969 103.545 74.9453 103.566 75.1641 103.566H76.5117C76.9609 103.566 77.2871 103.535 77.4902 103.473C77.6934 103.41 77.8887 103.287 78.0762 103.104C78.3184 102.861 78.5664 102.496 78.8203 102.008H79.0547L78.3691 104H72.2461V103.783H72.5273C72.7148 103.783 72.8926 103.738 73.0605 103.648C73.1855 103.586 73.2695 103.492 73.3125 103.367C73.3594 103.242 73.3828 102.986 73.3828 102.6V97.4375C73.3828 96.9336 73.332 96.623 73.2305 96.5059C73.0898 96.3496 72.8555 96.2715 72.5273 96.2715H72.2461V96.0547H78.3691L78.457 97.7949H78.2285C78.1465 97.377 78.0547 97.0898 77.9531 96.9336C77.8555 96.7773 77.709 96.6582 77.5137 96.5762C77.3574 96.5176 77.082 96.4883 76.6875 96.4883H74.5078ZM79.1777 96.0547H81.334L86.1914 102.014V97.4316C86.1914 96.9434 86.1367 96.6387 86.0273 96.5176C85.8828 96.3535 85.6543 96.2715 85.3418 96.2715H85.0664V96.0547H87.832V96.2715H87.5508C87.2148 96.2715 86.9766 96.373 86.8359 96.5762C86.75 96.7012 86.707 96.9863 86.707 97.4316V104.129H86.4961L81.2578 97.7305V102.623C81.2578 103.111 81.3105 103.416 81.416 103.537C81.5645 103.701 81.793 103.783 82.1016 103.783H82.3828V104H79.6172V103.783H79.8926C80.2324 103.783 80.4727 103.682 80.6133 103.479C80.6992 103.354 80.7422 103.068 80.7422 102.623V97.0977C80.5117 96.8281 80.3359 96.6504 80.2148 96.5645C80.0977 96.4785 79.9238 96.3984 79.6934 96.3242C79.5801 96.2891 79.4082 96.2715 79.1777 96.2715V96.0547Z" fill="black"/>
<path d="M80.1094 132H77.9883L75.2988 128.285C75.0996 128.293 74.9375 128.297 74.8125 128.297C74.7617 128.297 74.707 128.297 74.6484 128.297C74.5898 128.293 74.5293 128.289 74.4668 128.285V130.594C74.4668 131.094 74.5215 131.404 74.6309 131.525C74.7793 131.697 75.002 131.783 75.2988 131.783H75.6094V132H72.2051V131.783H72.5039C72.8398 131.783 73.0801 131.674 73.2246 131.455C73.3066 131.334 73.3477 131.047 73.3477 130.594V125.461C73.3477 124.961 73.293 124.65 73.1836 124.529C73.0312 124.357 72.8047 124.271 72.5039 124.271H72.2051V124.055H75.0996C75.9434 124.055 76.5645 124.117 76.9629 124.242C77.3652 124.363 77.7051 124.59 77.9824 124.922C78.2637 125.25 78.4043 125.643 78.4043 126.1C78.4043 126.588 78.2441 127.012 77.9238 127.371C77.6074 127.73 77.1152 127.984 76.4473 128.133L78.0879 130.412C78.4629 130.936 78.7852 131.283 79.0547 131.455C79.3242 131.627 79.6758 131.736 80.1094 131.783V132ZM74.4668 127.916C74.541 127.916 74.6055 127.918 74.6602 127.922C74.7148 127.922 74.7598 127.922 74.7949 127.922C75.5527 127.922 76.123 127.758 76.5059 127.43C76.8926 127.102 77.0859 126.684 77.0859 126.176C77.0859 125.68 76.9297 125.277 76.6172 124.969C76.3086 124.656 75.8984 124.5 75.3867 124.5C75.1602 124.5 74.8535 124.537 74.4668 124.611V127.916Z" fill="black"/>
<path d="M122.285 72.0879C122.684 72.7754 123.113 73.2812 123.574 73.6055C124.039 73.9297 124.566 74.1152 125.156 74.1621V74.3496C124.617 74.3301 124.041 74.2207 123.428 74.0215C122.814 73.8262 122.232 73.5527 121.682 73.2012C121.135 72.8535 120.662 72.4824 120.264 72.0879C119.701 71.8613 119.256 71.6211 118.928 71.3672C118.451 70.9883 118.08 70.5234 117.814 69.9727C117.553 69.418 117.422 68.7637 117.422 68.0098C117.422 66.8223 117.807 65.8359 118.576 65.0508C119.346 64.2656 120.277 63.873 121.371 63.873C122.41 63.873 123.309 64.2676 124.066 65.0566C124.828 65.8418 125.209 66.834 125.209 68.0332C125.209 69.0059 124.938 69.8594 124.395 70.5938C123.855 71.3281 123.152 71.8262 122.285 72.0879ZM121.301 64.3242C120.59 64.3242 120.018 64.5781 119.584 65.0859C119.037 65.7227 118.764 66.6973 118.764 68.0098C118.764 69.2949 119.041 70.2852 119.596 70.9805C120.025 71.5156 120.594 71.7832 121.301 71.7832C122.035 71.7832 122.627 71.5156 123.076 70.9805C123.604 70.3477 123.867 69.4141 123.867 68.1797C123.867 67.2305 123.723 66.4316 123.434 65.7832C123.211 65.2832 122.914 64.916 122.543 64.6816C122.176 64.4434 121.762 64.3242 121.301 64.3242Z" fill="black"/>
<path d="M119.285 132.088C119.684 132.775 120.113 133.281 120.574 133.605C121.039 133.93 121.566 134.115 122.156 134.162V134.35C121.617 134.33 121.041 134.221 120.428 134.021C119.814 133.826 119.232 133.553 118.682 133.201C118.135 132.854 117.662 132.482 117.264 132.088C116.701 131.861 116.256 131.621 115.928 131.367C115.451 130.988 115.08 130.523 114.814 129.973C114.553 129.418 114.422 128.764 114.422 128.01C114.422 126.822 114.807 125.836 115.576 125.051C116.346 124.266 117.277 123.873 118.371 123.873C119.41 123.873 120.309 124.268 121.066 125.057C121.828 125.842 122.209 126.834 122.209 128.033C122.209 129.006 121.938 129.859 121.395 130.594C120.855 131.328 120.152 131.826 119.285 132.088ZM118.301 124.324C117.59 124.324 117.018 124.578 116.584 125.086C116.037 125.723 115.764 126.697 115.764 128.01C115.764 129.295 116.041 130.285 116.596 130.98C117.025 131.516 117.594 131.783 118.301 131.783C119.035 131.783 119.627 131.516 120.076 130.98C120.604 130.348 120.867 129.414 120.867 128.18C120.867 127.23 120.723 126.432 120.434 125.783C120.211 125.283 119.914 124.916 119.543 124.682C119.176 124.443 118.762 124.324 118.301 124.324ZM124.066 126.908V126.633C124.469 126.395 124.742 126.172 124.887 125.965C124.988 125.816 125.039 125.639 125.039 125.432C125.039 125.311 125.018 125.221 124.975 125.162C124.928 125.104 124.877 125.074 124.822 125.074C124.779 125.074 124.723 125.088 124.652 125.115C124.551 125.15 124.467 125.168 124.4 125.168C124.244 125.168 124.105 125.109 123.984 124.992C123.863 124.875 123.803 124.729 123.803 124.553C123.803 124.357 123.863 124.205 123.984 124.096C124.148 123.947 124.344 123.873 124.57 123.873C124.832 123.873 125.066 123.984 125.273 124.207C125.484 124.426 125.59 124.699 125.59 125.027C125.59 125.488 125.416 125.908 125.068 126.287C124.838 126.537 124.504 126.744 124.066 126.908Z" fill="black"/>
<path d="M70.585 17.2275V19.5176H70.4043C70.3457 19.0781 70.2399 18.7282 70.0869 18.4678C69.9372 18.2074 69.7223 18.0007 69.4424 17.8477C69.1624 17.6947 68.8727 17.6182 68.5732 17.6182C68.2347 17.6182 67.9548 17.7223 67.7334 17.9307C67.512 18.1357 67.4014 18.3701 67.4014 18.6338C67.4014 18.8356 67.4714 19.0195 67.6113 19.1855C67.8132 19.4297 68.2933 19.7552 69.0518 20.1621C69.6702 20.4941 70.0918 20.7497 70.3164 20.9287C70.5443 21.1045 70.7184 21.3128 70.8389 21.5537C70.9626 21.7946 71.0244 22.0469 71.0244 22.3105C71.0244 22.8118 70.8291 23.2448 70.4385 23.6094C70.0511 23.9707 69.5514 24.1514 68.9395 24.1514C68.7474 24.1514 68.5667 24.1367 68.3975 24.1074C68.2965 24.0911 68.0866 24.0326 67.7676 23.9316C67.4518 23.8275 67.2516 23.7754 67.167 23.7754C67.0856 23.7754 67.0205 23.7998 66.9717 23.8486C66.9261 23.8975 66.8919 23.9984 66.8691 24.1514H66.6885V21.8809H66.8691C66.9538 22.3561 67.0677 22.7126 67.2109 22.9502C67.3542 23.1846 67.5723 23.3799 67.8652 23.5361C68.1615 23.6924 68.4854 23.7705 68.8369 23.7705C69.2438 23.7705 69.5645 23.6631 69.7988 23.4482C70.0365 23.2334 70.1553 22.9795 70.1553 22.6865C70.1553 22.5238 70.1097 22.3594 70.0186 22.1934C69.9307 22.0273 69.7923 21.8727 69.6035 21.7295C69.4766 21.6318 69.1299 21.4251 68.5635 21.1094C67.9971 20.7904 67.5934 20.5365 67.3525 20.3477C67.1149 20.1589 66.9342 19.9505 66.8105 19.7227C66.6868 19.4948 66.625 19.2441 66.625 18.9707C66.625 18.4954 66.8073 18.0869 67.1719 17.7451C67.5365 17.4001 68.0003 17.2275 68.5635 17.2275C68.915 17.2275 69.2878 17.3138 69.6816 17.4863C69.8639 17.5677 69.9925 17.6084 70.0674 17.6084C70.152 17.6084 70.2204 17.584 70.2725 17.5352C70.3278 17.4831 70.3717 17.3805 70.4043 17.2275H70.585ZM78.3242 24H76.5566L74.3154 20.9043C74.1494 20.9108 74.0143 20.9141 73.9102 20.9141C73.8678 20.9141 73.8223 20.9141 73.7734 20.9141C73.7246 20.9108 73.6742 20.9076 73.6221 20.9043V22.8281C73.6221 23.2448 73.6676 23.5036 73.7588 23.6045C73.8825 23.7477 74.068 23.8193 74.3154 23.8193H74.5742V24H71.7373V23.8193H71.9863C72.2663 23.8193 72.4665 23.7282 72.5869 23.5459C72.6553 23.445 72.6895 23.2057 72.6895 22.8281V18.5508C72.6895 18.1341 72.6439 17.8753 72.5527 17.7744C72.4258 17.6312 72.237 17.5596 71.9863 17.5596H71.7373V17.3789H74.1494C74.8525 17.3789 75.3701 17.431 75.7021 17.5352C76.0374 17.6361 76.3206 17.8249 76.5518 18.1016C76.7861 18.375 76.9033 18.7021 76.9033 19.083C76.9033 19.4899 76.7699 19.8431 76.5029 20.1426C76.2393 20.4421 75.8291 20.6536 75.2725 20.7773L76.6396 22.6768C76.9521 23.113 77.2207 23.4027 77.4453 23.5459C77.6699 23.6891 77.9629 23.7803 78.3242 23.8193V24ZM73.6221 20.5967C73.6839 20.5967 73.7376 20.5983 73.7832 20.6016C73.8288 20.6016 73.8662 20.6016 73.8955 20.6016C74.527 20.6016 75.0023 20.4648 75.3213 20.1914C75.6436 19.918 75.8047 19.5697 75.8047 19.1465C75.8047 18.7331 75.6745 18.3978 75.4141 18.1406C75.1569 17.8802 74.8151 17.75 74.3887 17.75C74.1999 17.75 73.9443 17.7809 73.6221 17.8428V20.5967ZM86.4688 22.1689L86.6299 22.2031L86.0635 24H80.9365V23.8193H81.1855C81.4655 23.8193 81.6657 23.7282 81.7861 23.5459C81.8545 23.4417 81.8887 23.2008 81.8887 22.8232V18.5508C81.8887 18.1374 81.8431 17.8786 81.752 17.7744C81.625 17.6312 81.4362 17.5596 81.1855 17.5596H80.9365V17.3789H83.9346V17.5596C83.583 17.5563 83.3356 17.5889 83.1924 17.6572C83.0524 17.7256 82.9564 17.8118 82.9043 17.916C82.8522 18.0202 82.8262 18.2692 82.8262 18.6631V22.8232C82.8262 23.0934 82.8522 23.279 82.9043 23.3799C82.9434 23.4482 83.0036 23.4987 83.085 23.5312C83.1663 23.5638 83.4202 23.5801 83.8467 23.5801H84.3301C84.8379 23.5801 85.1943 23.5426 85.3994 23.4678C85.6045 23.3929 85.7917 23.2611 85.9609 23.0723C86.1302 22.8802 86.2995 22.5791 86.4688 22.1689ZM89.6963 23.3555C89.2373 23.7103 88.9492 23.9154 88.832 23.9707C88.6562 24.0521 88.4691 24.0928 88.2705 24.0928C87.9613 24.0928 87.7057 23.987 87.5039 23.7754C87.3053 23.5638 87.2061 23.2855 87.2061 22.9404C87.2061 22.7223 87.2549 22.5335 87.3525 22.374C87.486 22.1527 87.7171 21.9443 88.0459 21.749C88.3779 21.5537 88.9281 21.3161 89.6963 21.0361V20.8604C89.6963 20.4144 89.6247 20.1084 89.4814 19.9424C89.3415 19.7764 89.1364 19.6934 88.8662 19.6934C88.6611 19.6934 88.4984 19.7487 88.3779 19.8594C88.2542 19.9701 88.1924 20.097 88.1924 20.2402L88.2021 20.5234C88.2021 20.6732 88.1631 20.7887 88.085 20.8701C88.0101 20.9515 87.9108 20.9922 87.7871 20.9922C87.6667 20.9922 87.5674 20.9499 87.4893 20.8652C87.4144 20.7806 87.377 20.665 87.377 20.5186C87.377 20.2386 87.5202 19.9814 87.8066 19.7471C88.0931 19.5127 88.4951 19.3955 89.0127 19.3955C89.4098 19.3955 89.7354 19.4622 89.9893 19.5957C90.1813 19.6966 90.3229 19.8545 90.4141 20.0693C90.4727 20.2093 90.502 20.4958 90.502 20.9287V22.4473C90.502 22.8737 90.5101 23.1357 90.5264 23.2334C90.5426 23.3278 90.5687 23.3913 90.6045 23.4238C90.6436 23.4564 90.6875 23.4727 90.7363 23.4727C90.7884 23.4727 90.834 23.4613 90.873 23.4385C90.9414 23.3962 91.0732 23.2773 91.2686 23.082V23.3555C90.904 23.8438 90.5557 24.0879 90.2236 24.0879C90.0641 24.0879 89.9372 24.0326 89.8428 23.9219C89.7484 23.8112 89.6995 23.6224 89.6963 23.3555ZM89.6963 23.0381V21.334C89.2048 21.5293 88.8874 21.6676 88.7441 21.749C88.487 21.8923 88.3031 22.042 88.1924 22.1982C88.0817 22.3545 88.0264 22.5254 88.0264 22.7109C88.0264 22.9453 88.0964 23.1406 88.2363 23.2969C88.3763 23.4499 88.5374 23.5264 88.7197 23.5264C88.9671 23.5264 89.2926 23.3636 89.6963 23.0381ZM92.9043 18.0576V19.5273H93.9492V19.8691H92.9043V22.7695C92.9043 23.0592 92.945 23.2546 93.0264 23.3555C93.111 23.4564 93.2184 23.5068 93.3486 23.5068C93.4561 23.5068 93.5602 23.4743 93.6611 23.4092C93.762 23.3408 93.8402 23.2415 93.8955 23.1113H94.0859C93.972 23.4303 93.8109 23.6712 93.6025 23.834C93.3942 23.9935 93.1794 24.0732 92.958 24.0732C92.8083 24.0732 92.6618 24.0326 92.5186 23.9512C92.3753 23.8665 92.2695 23.7477 92.2012 23.5947C92.1328 23.4385 92.0986 23.1992 92.0986 22.877V19.8691H91.3906V19.708C91.5697 19.6364 91.752 19.516 91.9375 19.3467C92.1263 19.1742 92.2939 18.9707 92.4404 18.7363C92.5153 18.6126 92.6195 18.3864 92.7529 18.0576H92.9043ZM98.1875 22.3008C98.0671 22.89 97.8311 23.3441 97.4795 23.6631C97.1279 23.9788 96.7389 24.1367 96.3125 24.1367C95.8047 24.1367 95.362 23.9235 94.9844 23.4971C94.6068 23.0706 94.418 22.4945 94.418 21.7686C94.418 21.0654 94.6263 20.4941 95.043 20.0547C95.4629 19.6152 95.9658 19.3955 96.5518 19.3955C96.9912 19.3955 97.3525 19.5127 97.6357 19.7471C97.9189 19.9782 98.0605 20.2191 98.0605 20.4697C98.0605 20.5934 98.0199 20.6943 97.9385 20.7725C97.8604 20.8473 97.7497 20.8848 97.6064 20.8848C97.4144 20.8848 97.2695 20.8229 97.1719 20.6992C97.1165 20.6309 97.0791 20.5007 97.0596 20.3086C97.0433 20.1165 96.9782 19.9701 96.8643 19.8691C96.7503 19.7715 96.5924 19.7227 96.3906 19.7227C96.0651 19.7227 95.8031 19.8431 95.6045 20.084C95.3408 20.403 95.209 20.8245 95.209 21.3486C95.209 21.8825 95.3392 22.3545 95.5996 22.7646C95.8633 23.1715 96.2181 23.375 96.6641 23.375C96.9831 23.375 97.2695 23.266 97.5234 23.0479C97.7025 22.8981 97.8766 22.6263 98.0459 22.2324L98.1875 22.3008ZM100.146 17.0566V20.3281C100.507 19.931 100.793 19.6771 101.005 19.5664C101.216 19.4525 101.428 19.3955 101.64 19.3955C101.894 19.3955 102.112 19.4655 102.294 19.6055C102.476 19.7454 102.611 19.9652 102.699 20.2646C102.761 20.473 102.792 20.8538 102.792 21.4072V22.9893C102.792 23.2725 102.815 23.4661 102.86 23.5703C102.893 23.6484 102.948 23.7103 103.026 23.7559C103.104 23.8014 103.248 23.8242 103.456 23.8242V24H101.259V23.8242H101.361C101.57 23.8242 101.715 23.7933 101.796 23.7314C101.877 23.6663 101.934 23.5719 101.967 23.4482C101.977 23.3962 101.981 23.2432 101.981 22.9893V21.4072C101.981 20.9189 101.955 20.5983 101.903 20.4453C101.854 20.2923 101.775 20.1784 101.664 20.1035C101.553 20.0254 101.42 19.9863 101.264 19.9863C101.104 19.9863 100.938 20.0286 100.766 20.1133C100.593 20.1979 100.386 20.3688 100.146 20.626V22.9893C100.146 23.2952 100.162 23.4857 100.194 23.5605C100.23 23.6354 100.294 23.6989 100.385 23.751C100.479 23.7998 100.64 23.8242 100.868 23.8242V24H98.6514V23.8242C98.8499 23.8242 99.0062 23.7933 99.1201 23.7314C99.1852 23.6989 99.2373 23.637 99.2764 23.5459C99.3154 23.4548 99.335 23.2692 99.335 22.9893V18.9414C99.335 18.4303 99.3219 18.1162 99.2959 17.999C99.2731 17.8818 99.2357 17.8021 99.1836 17.7598C99.1348 17.7174 99.068 17.6963 98.9834 17.6963C98.915 17.6963 98.8044 17.7223 98.6514 17.7744L98.583 17.6035L99.9209 17.0566H100.146ZM108.109 17.7402V20.3574H109.564C109.942 20.3574 110.194 20.3005 110.321 20.1865C110.491 20.0368 110.585 19.7731 110.604 19.3955H110.785V21.7002H110.604C110.559 21.3779 110.513 21.1712 110.468 21.0801C110.409 20.9661 110.313 20.8766 110.18 20.8115C110.046 20.7464 109.841 20.7139 109.564 20.7139H108.109V22.8965C108.109 23.1895 108.122 23.3685 108.148 23.4336C108.174 23.4954 108.22 23.5459 108.285 23.585C108.35 23.6208 108.474 23.6387 108.656 23.6387H109.779C110.154 23.6387 110.425 23.6126 110.595 23.5605C110.764 23.5085 110.927 23.4059 111.083 23.2529C111.285 23.0511 111.492 22.7467 111.703 22.3398H111.898L111.327 24H106.225V23.8193H106.459C106.615 23.8193 106.763 23.7819 106.903 23.707C107.007 23.6549 107.077 23.5768 107.113 23.4727C107.152 23.3685 107.172 23.1553 107.172 22.833V18.5312C107.172 18.1113 107.13 17.8525 107.045 17.7549C106.928 17.6247 106.732 17.5596 106.459 17.5596H106.225V17.3789H111.327L111.4 18.8291H111.21C111.142 18.4808 111.065 18.2415 110.98 18.1113C110.899 17.9811 110.777 17.8818 110.614 17.8135C110.484 17.7646 110.255 17.7402 109.926 17.7402H108.109ZM113.749 20.3428C114.273 19.7113 114.773 19.3955 115.248 19.3955C115.492 19.3955 115.702 19.4574 115.878 19.5811C116.054 19.7015 116.194 19.9017 116.298 20.1816C116.369 20.377 116.405 20.6764 116.405 21.0801V22.9893C116.405 23.2725 116.428 23.4645 116.474 23.5654C116.509 23.6468 116.566 23.7103 116.645 23.7559C116.726 23.8014 116.874 23.8242 117.089 23.8242V24H114.877V23.8242H114.97C115.178 23.8242 115.323 23.7933 115.404 23.7314C115.489 23.6663 115.548 23.5719 115.58 23.4482C115.593 23.3994 115.6 23.2464 115.6 22.9893V21.1582C115.6 20.7513 115.546 20.4567 115.438 20.2744C115.334 20.0889 115.157 19.9961 114.906 19.9961C114.519 19.9961 114.133 20.2077 113.749 20.6309V22.9893C113.749 23.292 113.767 23.4792 113.803 23.5508C113.848 23.6452 113.91 23.7152 113.988 23.7607C114.07 23.8031 114.232 23.8242 114.477 23.8242V24H112.265V23.8242H112.362C112.59 23.8242 112.743 23.7673 112.821 23.6533C112.903 23.5361 112.943 23.3148 112.943 22.9893V21.3291C112.943 20.792 112.93 20.4648 112.904 20.3477C112.882 20.2305 112.844 20.1507 112.792 20.1084C112.743 20.0661 112.676 20.0449 112.592 20.0449C112.501 20.0449 112.392 20.0693 112.265 20.1182L112.191 19.9424L113.539 19.3955H113.749V20.3428ZM119.979 23.3555C119.521 23.7103 119.232 23.9154 119.115 23.9707C118.939 24.0521 118.752 24.0928 118.554 24.0928C118.244 24.0928 117.989 23.987 117.787 23.7754C117.589 23.5638 117.489 23.2855 117.489 22.9404C117.489 22.7223 117.538 22.5335 117.636 22.374C117.769 22.1527 118 21.9443 118.329 21.749C118.661 21.5537 119.211 21.3161 119.979 21.0361V20.8604C119.979 20.4144 119.908 20.1084 119.765 19.9424C119.625 19.7764 119.42 19.6934 119.149 19.6934C118.944 19.6934 118.782 19.7487 118.661 19.8594C118.537 19.9701 118.476 20.097 118.476 20.2402L118.485 20.5234C118.485 20.6732 118.446 20.7887 118.368 20.8701C118.293 20.9515 118.194 20.9922 118.07 20.9922C117.95 20.9922 117.851 20.9499 117.772 20.8652C117.698 20.7806 117.66 20.665 117.66 20.5186C117.66 20.2386 117.803 19.9814 118.09 19.7471C118.376 19.5127 118.778 19.3955 119.296 19.3955C119.693 19.3955 120.019 19.4622 120.272 19.5957C120.465 19.6966 120.606 19.8545 120.697 20.0693C120.756 20.2093 120.785 20.4958 120.785 20.9287V22.4473C120.785 22.8737 120.793 23.1357 120.81 23.2334C120.826 23.3278 120.852 23.3913 120.888 23.4238C120.927 23.4564 120.971 23.4727 121.02 23.4727C121.072 23.4727 121.117 23.4613 121.156 23.4385C121.225 23.3962 121.356 23.2773 121.552 23.082V23.3555C121.187 23.8438 120.839 24.0879 120.507 24.0879C120.347 24.0879 120.22 24.0326 120.126 23.9219C120.032 23.8112 119.983 23.6224 119.979 23.3555ZM119.979 23.0381V21.334C119.488 21.5293 119.171 21.6676 119.027 21.749C118.77 21.8923 118.586 22.042 118.476 22.1982C118.365 22.3545 118.31 22.5254 118.31 22.7109C118.31 22.9453 118.38 23.1406 118.52 23.2969C118.66 23.4499 118.821 23.5264 119.003 23.5264C119.25 23.5264 119.576 23.3636 119.979 23.0381ZM123.114 20.2988C123.547 19.6966 124.014 19.3955 124.516 19.3955C124.975 19.3955 125.375 19.5924 125.717 19.9863C126.059 20.377 126.229 20.9124 126.229 21.5928C126.229 22.387 125.966 23.0267 125.438 23.5117C124.986 23.9284 124.481 24.1367 123.925 24.1367C123.664 24.1367 123.399 24.0895 123.129 23.9951C122.862 23.9007 122.589 23.7591 122.309 23.5703V18.9365C122.309 18.4287 122.296 18.1162 122.27 17.999C122.247 17.8818 122.209 17.8021 122.157 17.7598C122.105 17.7174 122.04 17.6963 121.962 17.6963C121.871 17.6963 121.757 17.7223 121.62 17.7744L121.552 17.6035L122.895 17.0566H123.114V20.2988ZM123.114 20.6113V23.2871C123.28 23.4499 123.451 23.5736 123.627 23.6582C123.806 23.7396 123.988 23.7803 124.174 23.7803C124.47 23.7803 124.745 23.6175 124.999 23.292C125.256 22.9665 125.385 22.4928 125.385 21.8711C125.385 21.2982 125.256 20.8587 124.999 20.5527C124.745 20.2435 124.455 20.0889 124.13 20.0889C123.957 20.0889 123.785 20.1328 123.612 20.2207C123.482 20.2858 123.316 20.416 123.114 20.6113ZM128.427 17.0566V22.9893C128.427 23.2692 128.446 23.4548 128.485 23.5459C128.528 23.637 128.591 23.707 128.676 23.7559C128.76 23.8014 128.918 23.8242 129.149 23.8242V24H126.957V23.8242C127.162 23.8242 127.302 23.8031 127.377 23.7607C127.452 23.7184 127.51 23.6484 127.553 23.5508C127.595 23.4531 127.616 23.266 127.616 22.9893V18.9268C127.616 18.4222 127.605 18.113 127.582 17.999C127.559 17.8818 127.522 17.8021 127.47 17.7598C127.421 17.7174 127.357 17.6963 127.279 17.6963C127.195 17.6963 127.087 17.7223 126.957 17.7744L126.874 17.6035L128.207 17.0566H128.427ZM130.424 21.2119C130.421 21.876 130.582 22.3968 130.907 22.7744C131.233 23.152 131.615 23.3408 132.055 23.3408C132.348 23.3408 132.602 23.2611 132.816 23.1016C133.035 22.9388 133.217 22.6621 133.363 22.2715L133.515 22.3691C133.446 22.8151 133.248 23.222 132.919 23.5898C132.59 23.9544 132.178 24.1367 131.684 24.1367C131.146 24.1367 130.686 23.9284 130.302 23.5117C129.921 23.0918 129.73 22.5286 129.73 21.8223C129.73 21.0573 129.926 20.4616 130.316 20.0352C130.71 19.6055 131.203 19.3906 131.796 19.3906C132.297 19.3906 132.709 19.5566 133.031 19.8887C133.354 20.2174 133.515 20.6585 133.515 21.2119H130.424ZM130.424 20.9287H132.494C132.478 20.6423 132.444 20.4404 132.392 20.3232C132.31 20.141 132.188 19.9977 132.025 19.8936C131.866 19.7894 131.698 19.7373 131.522 19.7373C131.252 19.7373 131.01 19.8431 130.795 20.0547C130.583 20.263 130.46 20.5544 130.424 20.9287Z" fill="black"/>
<circle cx="134" cy="131" r="3" fill="white" stroke="black" stroke-width="2"/>
</svg>
