<svg width="200" height="200" viewBox="0 0 200 200" fill="none" xmlns="http://www.w3.org/2000/svg">
<rect width="200" height="200" fill="white"/>
<rect x="68.5" y="51.5" width="62" height="97" fill="white" stroke="black" stroke-width="3"/>
<line y1="66" x2="67" y2="66" stroke="black" stroke-width="2"/>
<line y1="131" x2="67" y2="131" stroke="black" stroke-width="2"/>
<line x1="130" y1="66" x2="200" y2="66" stroke="black" stroke-width="2"/>
<line x1="138" y1="131" x2="200" y2="131" stroke="black" stroke-width="2"/>
<path d="M80.1094 72H77.9883L75.2988 68.2852C75.0996 68.293 74.9375 68.2969 74.8125 68.2969C74.7617 68.2969 74.707 68.2969 74.6484 68.2969C74.5898 68.293 74.5293 68.2891 74.4668 68.2852V70.5938C74.4668 71.0938 74.5215 71.4043 74.6309 71.5254C74.7793 71.6973 75.002 71.7832 75.2988 71.7832H75.6094V72H72.2051V71.7832H72.5039C72.8398 71.7832 73.0801 71.6738 73.2246 71.4551C73.3066 71.334 73.3477 71.0469 73.3477 70.5938V65.4609C73.3477 64.9609 73.293 64.6504 73.1836 64.5293C73.0312 64.3574 72.8047 64.2715 72.5039 64.2715H72.2051V64.0547H75.0996C75.9434 64.0547 76.5645 64.1172 76.9629 64.2422C77.3652 64.3633 77.7051 64.5898 77.9824 64.9219C78.2637 65.25 78.4043 65.6426 78.4043 66.0996C78.4043 66.5879 78.2441 67.0117 77.9238 67.3711C77.6074 67.7305 77.1152 67.9844 76.4473 68.1328L78.0879 70.4121C78.4629 70.9355 78.7852 71.2832 79.0547 71.4551C79.3242 71.627 79.6758 71.7363 80.1094 71.7832V72ZM74.4668 67.916C74.541 67.916 74.6055 67.918 74.6602 67.9219C74.7148 67.9219 74.7598 67.9219 74.7949 67.9219C75.5527 67.9219 76.123 67.7578 76.5059 67.4297C76.8926 67.1016 77.0859 66.6836 77.0859 66.1758C77.0859 65.6797 76.9297 65.2773 76.6172 64.9688C76.3086 64.6562 75.8984 64.5 75.3867 64.5C75.1602 64.5 74.8535 64.5371 74.4668 64.6113V67.916Z" fill="black"/>
<path d="M77.502 123.873V126.621H77.2852C77.2148 126.094 77.0879 125.674 76.9043 125.361C76.7246 125.049 76.4668 124.801 76.1309 124.617C75.7949 124.434 75.4473 124.342 75.0879 124.342C74.6816 124.342 74.3457 124.467 74.0801 124.717C73.8145 124.963 73.6816 125.244 73.6816 125.561C73.6816 125.803 73.7656 126.023 73.9336 126.223C74.1758 126.516 74.752 126.906 75.6621 127.395C76.4043 127.793 76.9102 128.1 77.1797 128.314C77.4531 128.525 77.6621 128.775 77.8066 129.064C77.9551 129.354 78.0293 129.656 78.0293 129.973C78.0293 130.574 77.7949 131.094 77.3262 131.531C76.8613 131.965 76.2617 132.182 75.5273 132.182C75.2969 132.182 75.0801 132.164 74.877 132.129C74.7559 132.109 74.5039 132.039 74.1211 131.918C73.7422 131.793 73.502 131.73 73.4004 131.73C73.3027 131.73 73.2246 131.76 73.166 131.818C73.1113 131.877 73.0703 131.998 73.043 132.182H72.8262V129.457H73.043C73.1445 130.027 73.2812 130.455 73.4531 130.74C73.625 131.021 73.8867 131.256 74.2383 131.443C74.5938 131.631 74.9824 131.725 75.4043 131.725C75.8926 131.725 76.2773 131.596 76.5586 131.338C76.8438 131.08 76.9863 130.775 76.9863 130.424C76.9863 130.229 76.9316 130.031 76.8223 129.832C76.7168 129.633 76.5508 129.447 76.3242 129.275C76.1719 129.158 75.7559 128.91 75.0762 128.531C74.3965 128.148 73.9121 127.844 73.623 127.617C73.3379 127.391 73.1211 127.141 72.9727 126.867C72.8242 126.594 72.75 126.293 72.75 125.965C72.75 125.395 72.9688 124.904 73.4062 124.494C73.8438 124.08 74.4004 123.873 75.0762 123.873C75.498 123.873 75.9453 123.977 76.418 124.184C76.6367 124.281 76.791 124.33 76.8809 124.33C76.9824 124.33 77.0645 124.301 77.127 124.242C77.1934 124.18 77.2461 124.057 77.2852 123.873H77.502Z" fill="black"/>
<path d="M122.285 72.0879C122.684 72.7754 123.113 73.2812 123.574 73.6055C124.039 73.9297 124.566 74.1152 125.156 74.1621V74.3496C124.617 74.3301 124.041 74.2207 123.428 74.0215C122.814 73.8262 122.232 73.5527 121.682 73.2012C121.135 72.8535 120.662 72.4824 120.264 72.0879C119.701 71.8613 119.256 71.6211 118.928 71.3672C118.451 70.9883 118.08 70.5234 117.814 69.9727C117.553 69.418 117.422 68.7637 117.422 68.0098C117.422 66.8223 117.807 65.8359 118.576 65.0508C119.346 64.2656 120.277 63.873 121.371 63.873C122.41 63.873 123.309 64.2676 124.066 65.0566C124.828 65.8418 125.209 66.834 125.209 68.0332C125.209 69.0059 124.938 69.8594 124.395 70.5938C123.855 71.3281 123.152 71.8262 122.285 72.0879ZM121.301 64.3242C120.59 64.3242 120.018 64.5781 119.584 65.0859C119.037 65.7227 118.764 66.6973 118.764 68.0098C118.764 69.2949 119.041 70.2852 119.596 70.9805C120.025 71.5156 120.594 71.7832 121.301 71.7832C122.035 71.7832 122.627 71.5156 123.076 70.9805C123.604 70.3477 123.867 69.4141 123.867 68.1797C123.867 67.2305 123.723 66.4316 123.434 65.7832C123.211 65.2832 122.914 64.916 122.543 64.6816C122.176 64.4434 121.762 64.3242 121.301 64.3242Z" fill="black"/>
<path d="M119.285 132.088C119.684 132.775 120.113 133.281 120.574 133.605C121.039 133.93 121.566 134.115 122.156 134.162V134.35C121.617 134.33 121.041 134.221 120.428 134.021C119.814 133.826 119.232 133.553 118.682 133.201C118.135 132.854 117.662 132.482 117.264 132.088C116.701 131.861 116.256 131.621 115.928 131.367C115.451 130.988 115.08 130.523 114.814 129.973C114.553 129.418 114.422 128.764 114.422 128.01C114.422 126.822 114.807 125.836 115.576 125.051C116.346 124.266 117.277 123.873 118.371 123.873C119.41 123.873 120.309 124.268 121.066 125.057C121.828 125.842 122.209 126.834 122.209 128.033C122.209 129.006 121.938 129.859 121.395 130.594C120.855 131.328 120.152 131.826 119.285 132.088ZM118.301 124.324C117.59 124.324 117.018 124.578 116.584 125.086C116.037 125.723 115.764 126.697 115.764 128.01C115.764 129.295 116.041 130.285 116.596 130.98C117.025 131.516 117.594 131.783 118.301 131.783C119.035 131.783 119.627 131.516 120.076 130.98C120.604 130.348 120.867 129.414 120.867 128.18C120.867 127.23 120.723 126.432 120.434 125.783C120.211 125.283 119.914 124.916 119.543 124.682C119.176 124.443 118.762 124.324 118.301 124.324ZM124.066 126.908V126.633C124.469 126.395 124.742 126.172 124.887 125.965C124.988 125.816 125.039 125.639 125.039 125.432C125.039 125.311 125.018 125.221 124.975 125.162C124.928 125.104 124.877 125.074 124.822 125.074C124.779 125.074 124.723 125.088 124.652 125.115C124.551 125.15 124.467 125.168 124.4 125.168C124.244 125.168 124.105 125.109 123.984 124.992C123.863 124.875 123.803 124.729 123.803 124.553C123.803 124.357 123.863 124.205 123.984 124.096C124.148 123.947 124.344 123.873 124.57 123.873C124.832 123.873 125.066 123.984 125.273 124.207C125.484 124.426 125.59 124.699 125.59 125.027C125.59 125.488 125.416 125.908 125.068 126.287C124.838 126.537 124.504 126.744 124.066 126.908Z" fill="black"/>
<path d="M85.585 17.2275V19.5176H85.4043C85.3457 19.0781 85.2399 18.7282 85.0869 18.4678C84.9372 18.2074 84.7223 18.0007 84.4424 17.8477C84.1624 17.6947 83.8727 17.6182 83.5732 17.6182C83.2347 17.6182 82.9548 17.7223 82.7334 17.9307C82.512 18.1357 82.4014 18.3701 82.4014 18.6338C82.4014 18.8356 82.4714 19.0195 82.6113 19.1855C82.8132 19.4297 83.2933 19.7552 84.0518 20.1621C84.6702 20.4941 85.0918 20.7497 85.3164 20.9287C85.5443 21.1045 85.7184 21.3128 85.8389 21.5537C85.9626 21.7946 86.0244 22.0469 86.0244 22.3105C86.0244 22.8118 85.8291 23.2448 85.4385 23.6094C85.0511 23.9707 84.5514 24.1514 83.9395 24.1514C83.7474 24.1514 83.5667 24.1367 83.3975 24.1074C83.2965 24.0911 83.0866 24.0326 82.7676 23.9316C82.4518 23.8275 82.2516 23.7754 82.167 23.7754C82.0856 23.7754 82.0205 23.7998 81.9717 23.8486C81.9261 23.8975 81.8919 23.9984 81.8691 24.1514H81.6885V21.8809H81.8691C81.9538 22.3561 82.0677 22.7126 82.2109 22.9502C82.3542 23.1846 82.5723 23.3799 82.8652 23.5361C83.1615 23.6924 83.4854 23.7705 83.8369 23.7705C84.2438 23.7705 84.5645 23.6631 84.7988 23.4482C85.0365 23.2334 85.1553 22.9795 85.1553 22.6865C85.1553 22.5238 85.1097 22.3594 85.0186 22.1934C84.9307 22.0273 84.7923 21.8727 84.6035 21.7295C84.4766 21.6318 84.1299 21.4251 83.5635 21.1094C82.9971 20.7904 82.5934 20.5365 82.3525 20.3477C82.1149 20.1589 81.9342 19.9505 81.8105 19.7227C81.6868 19.4948 81.625 19.2441 81.625 18.9707C81.625 18.4954 81.8073 18.0869 82.1719 17.7451C82.5365 17.4001 83.0003 17.2275 83.5635 17.2275C83.915 17.2275 84.2878 17.3138 84.6816 17.4863C84.8639 17.5677 84.9925 17.6084 85.0674 17.6084C85.152 17.6084 85.2204 17.584 85.2725 17.5352C85.3278 17.4831 85.3717 17.3805 85.4043 17.2275H85.585ZM93.3242 24H91.5566L89.3154 20.9043C89.1494 20.9108 89.0143 20.9141 88.9102 20.9141C88.8678 20.9141 88.8223 20.9141 88.7734 20.9141C88.7246 20.9108 88.6742 20.9076 88.6221 20.9043V22.8281C88.6221 23.2448 88.6676 23.5036 88.7588 23.6045C88.8825 23.7477 89.068 23.8193 89.3154 23.8193H89.5742V24H86.7373V23.8193H86.9863C87.2663 23.8193 87.4665 23.7282 87.5869 23.5459C87.6553 23.445 87.6895 23.2057 87.6895 22.8281V18.5508C87.6895 18.1341 87.6439 17.8753 87.5527 17.7744C87.4258 17.6312 87.237 17.5596 86.9863 17.5596H86.7373V17.3789H89.1494C89.8525 17.3789 90.3701 17.431 90.7021 17.5352C91.0374 17.6361 91.3206 17.8249 91.5518 18.1016C91.7861 18.375 91.9033 18.7021 91.9033 19.083C91.9033 19.4899 91.7699 19.8431 91.5029 20.1426C91.2393 20.4421 90.8291 20.6536 90.2725 20.7773L91.6396 22.6768C91.9521 23.113 92.2207 23.4027 92.4453 23.5459C92.6699 23.6891 92.9629 23.7803 93.3242 23.8193V24ZM88.6221 20.5967C88.6839 20.5967 88.7376 20.5983 88.7832 20.6016C88.8288 20.6016 88.8662 20.6016 88.8955 20.6016C89.527 20.6016 90.0023 20.4648 90.3213 20.1914C90.6436 19.918 90.8047 19.5697 90.8047 19.1465C90.8047 18.7331 90.6745 18.3978 90.4141 18.1406C90.1569 17.8802 89.8151 17.75 89.3887 17.75C89.1999 17.75 88.9443 17.7809 88.6221 17.8428V20.5967ZM101.469 22.1689L101.63 22.2031L101.063 24H95.9365V23.8193H96.1855C96.4655 23.8193 96.6657 23.7282 96.7861 23.5459C96.8545 23.4417 96.8887 23.2008 96.8887 22.8232V18.5508C96.8887 18.1374 96.8431 17.8786 96.752 17.7744C96.625 17.6312 96.4362 17.5596 96.1855 17.5596H95.9365V17.3789H98.9346V17.5596C98.583 17.5563 98.3356 17.5889 98.1924 17.6572C98.0524 17.7256 97.9564 17.8118 97.9043 17.916C97.8522 18.0202 97.8262 18.2692 97.8262 18.6631V22.8232C97.8262 23.0934 97.8522 23.279 97.9043 23.3799C97.9434 23.4482 98.0036 23.4987 98.085 23.5312C98.1663 23.5638 98.4202 23.5801 98.8467 23.5801H99.3301C99.8379 23.5801 100.194 23.5426 100.399 23.4678C100.604 23.3929 100.792 23.2611 100.961 23.0723C101.13 22.8802 101.299 22.5791 101.469 22.1689ZM104.696 23.3555C104.237 23.7103 103.949 23.9154 103.832 23.9707C103.656 24.0521 103.469 24.0928 103.271 24.0928C102.961 24.0928 102.706 23.987 102.504 23.7754C102.305 23.5638 102.206 23.2855 102.206 22.9404C102.206 22.7223 102.255 22.5335 102.353 22.374C102.486 22.1527 102.717 21.9443 103.046 21.749C103.378 21.5537 103.928 21.3161 104.696 21.0361V20.8604C104.696 20.4144 104.625 20.1084 104.481 19.9424C104.341 19.7764 104.136 19.6934 103.866 19.6934C103.661 19.6934 103.498 19.7487 103.378 19.8594C103.254 19.9701 103.192 20.097 103.192 20.2402L103.202 20.5234C103.202 20.6732 103.163 20.7887 103.085 20.8701C103.01 20.9515 102.911 20.9922 102.787 20.9922C102.667 20.9922 102.567 20.9499 102.489 20.8652C102.414 20.7806 102.377 20.665 102.377 20.5186C102.377 20.2386 102.52 19.9814 102.807 19.7471C103.093 19.5127 103.495 19.3955 104.013 19.3955C104.41 19.3955 104.735 19.4622 104.989 19.5957C105.181 19.6966 105.323 19.8545 105.414 20.0693C105.473 20.2093 105.502 20.4958 105.502 20.9287V22.4473C105.502 22.8737 105.51 23.1357 105.526 23.2334C105.543 23.3278 105.569 23.3913 105.604 23.4238C105.644 23.4564 105.688 23.4727 105.736 23.4727C105.788 23.4727 105.834 23.4613 105.873 23.4385C105.941 23.3962 106.073 23.2773 106.269 23.082V23.3555C105.904 23.8438 105.556 24.0879 105.224 24.0879C105.064 24.0879 104.937 24.0326 104.843 23.9219C104.748 23.8112 104.7 23.6224 104.696 23.3555ZM104.696 23.0381V21.334C104.205 21.5293 103.887 21.6676 103.744 21.749C103.487 21.8923 103.303 22.042 103.192 22.1982C103.082 22.3545 103.026 22.5254 103.026 22.7109C103.026 22.9453 103.096 23.1406 103.236 23.2969C103.376 23.4499 103.537 23.5264 103.72 23.5264C103.967 23.5264 104.293 23.3636 104.696 23.0381ZM107.904 18.0576V19.5273H108.949V19.8691H107.904V22.7695C107.904 23.0592 107.945 23.2546 108.026 23.3555C108.111 23.4564 108.218 23.5068 108.349 23.5068C108.456 23.5068 108.56 23.4743 108.661 23.4092C108.762 23.3408 108.84 23.2415 108.896 23.1113H109.086C108.972 23.4303 108.811 23.6712 108.603 23.834C108.394 23.9935 108.179 24.0732 107.958 24.0732C107.808 24.0732 107.662 24.0326 107.519 23.9512C107.375 23.8665 107.27 23.7477 107.201 23.5947C107.133 23.4385 107.099 23.1992 107.099 22.877V19.8691H106.391V19.708C106.57 19.6364 106.752 19.516 106.938 19.3467C107.126 19.1742 107.294 18.9707 107.44 18.7363C107.515 18.6126 107.619 18.3864 107.753 18.0576H107.904ZM113.188 22.3008C113.067 22.89 112.831 23.3441 112.479 23.6631C112.128 23.9788 111.739 24.1367 111.312 24.1367C110.805 24.1367 110.362 23.9235 109.984 23.4971C109.607 23.0706 109.418 22.4945 109.418 21.7686C109.418 21.0654 109.626 20.4941 110.043 20.0547C110.463 19.6152 110.966 19.3955 111.552 19.3955C111.991 19.3955 112.353 19.5127 112.636 19.7471C112.919 19.9782 113.061 20.2191 113.061 20.4697C113.061 20.5934 113.02 20.6943 112.938 20.7725C112.86 20.8473 112.75 20.8848 112.606 20.8848C112.414 20.8848 112.27 20.8229 112.172 20.6992C112.117 20.6309 112.079 20.5007 112.06 20.3086C112.043 20.1165 111.978 19.9701 111.864 19.8691C111.75 19.7715 111.592 19.7227 111.391 19.7227C111.065 19.7227 110.803 19.8431 110.604 20.084C110.341 20.403 110.209 20.8245 110.209 21.3486C110.209 21.8825 110.339 22.3545 110.6 22.7646C110.863 23.1715 111.218 23.375 111.664 23.375C111.983 23.375 112.27 23.266 112.523 23.0479C112.702 22.8981 112.877 22.6263 113.046 22.2324L113.188 22.3008ZM115.146 17.0566V20.3281C115.507 19.931 115.793 19.6771 116.005 19.5664C116.216 19.4525 116.428 19.3955 116.64 19.3955C116.894 19.3955 117.112 19.4655 117.294 19.6055C117.476 19.7454 117.611 19.9652 117.699 20.2646C117.761 20.473 117.792 20.8538 117.792 21.4072V22.9893C117.792 23.2725 117.815 23.4661 117.86 23.5703C117.893 23.6484 117.948 23.7103 118.026 23.7559C118.104 23.8014 118.248 23.8242 118.456 23.8242V24H116.259V23.8242H116.361C116.57 23.8242 116.715 23.7933 116.796 23.7314C116.877 23.6663 116.934 23.5719 116.967 23.4482C116.977 23.3962 116.981 23.2432 116.981 22.9893V21.4072C116.981 20.9189 116.955 20.5983 116.903 20.4453C116.854 20.2923 116.775 20.1784 116.664 20.1035C116.553 20.0254 116.42 19.9863 116.264 19.9863C116.104 19.9863 115.938 20.0286 115.766 20.1133C115.593 20.1979 115.386 20.3688 115.146 20.626V22.9893C115.146 23.2952 115.162 23.4857 115.194 23.5605C115.23 23.6354 115.294 23.6989 115.385 23.751C115.479 23.7998 115.64 23.8242 115.868 23.8242V24H113.651V23.8242C113.85 23.8242 114.006 23.7933 114.12 23.7314C114.185 23.6989 114.237 23.637 114.276 23.5459C114.315 23.4548 114.335 23.2692 114.335 22.9893V18.9414C114.335 18.4303 114.322 18.1162 114.296 17.999C114.273 17.8818 114.236 17.8021 114.184 17.7598C114.135 17.7174 114.068 17.6963 113.983 17.6963C113.915 17.6963 113.804 17.7223 113.651 17.7744L113.583 17.6035L114.921 17.0566H115.146Z" fill="black"/>
<circle cx="134" cy="131" r="3" fill="white" stroke="black" stroke-width="2"/>
</svg>
