<svg width="200" height="200" viewBox="0 0 200 200" fill="none" xmlns="http://www.w3.org/2000/svg">
<rect width="200" height="200" fill="white"/>
<rect x="68.5" y="51.5" width="62" height="97" fill="white" stroke="black" stroke-width="3"/>
<line y1="66" x2="67" y2="66" stroke="black" stroke-width="2"/>
<line y1="129" x2="61" y2="129" stroke="black" stroke-width="2"/>
<line y1="99" x2="67" y2="99" stroke="black" stroke-width="2"/>
<line x1="130" y1="66" x2="200" y2="66" stroke="black" stroke-width="2"/>
<line x1="130" y1="131" x2="200" y2="131" stroke="black" stroke-width="2"/>
<path d="M78.9434 64.0547L79.0312 65.918H78.8086C78.7656 65.5898 78.707 65.3555 78.6328 65.2148C78.5117 64.9883 78.3496 64.8223 78.1465 64.7168C77.9473 64.6074 77.6836 64.5527 77.3555 64.5527H76.2363V70.623C76.2363 71.1113 76.2891 71.416 76.3945 71.5371C76.543 71.7012 76.7715 71.7832 77.0801 71.7832H77.3555V72H73.9863V71.7832H74.2676C74.6035 71.7832 74.8418 71.6816 74.9824 71.4785C75.0684 71.3535 75.1113 71.0684 75.1113 70.623V64.5527H74.1562C73.7852 64.5527 73.5215 64.5801 73.3652 64.6348C73.1621 64.709 72.9883 64.8516 72.8438 65.0625C72.6992 65.2734 72.6133 65.5586 72.5859 65.918H72.3633L72.457 64.0547H78.9434Z" fill="black"/>
<path d="M95.2246 95.873L95.4062 98.5742H95.2246C94.9824 97.7656 94.6367 97.1836 94.1875 96.8281C93.7383 96.4727 93.1992 96.2949 92.5703 96.2949C92.043 96.2949 91.5664 96.4297 91.1406 96.6992C90.7148 96.9648 90.3789 97.3906 90.1328 97.9766C89.8906 98.5625 89.7695 99.291 89.7695 100.162C89.7695 100.881 89.8848 101.504 90.1152 102.031C90.3457 102.559 90.6914 102.963 91.1523 103.244C91.6172 103.525 92.1465 103.666 92.7402 103.666C93.2559 103.666 93.7109 103.557 94.1055 103.338C94.5 103.115 94.9336 102.676 95.4062 102.02L95.5879 102.137C95.1895 102.844 94.7246 103.361 94.1934 103.689C93.6621 104.018 93.0312 104.182 92.3008 104.182C90.9844 104.182 89.9648 103.693 89.2422 102.717C88.7031 101.99 88.4336 101.135 88.4336 100.15C88.4336 99.3574 88.6113 98.6289 88.9668 97.9648C89.3223 97.3008 89.8105 96.7871 90.4316 96.4238C91.0566 96.0566 91.7383 95.873 92.4766 95.873C93.0508 95.873 93.6172 96.0137 94.1758 96.2949C94.3398 96.3809 94.457 96.4238 94.5273 96.4238C94.6328 96.4238 94.7246 96.3867 94.8027 96.3125C94.9043 96.207 94.9766 96.0605 95.0195 95.873H95.2246ZM102.883 101.803L103.076 101.844L102.396 104H96.2441V103.783H96.543C96.8789 103.783 97.1191 103.674 97.2637 103.455C97.3457 103.33 97.3867 103.041 97.3867 102.588V97.4609C97.3867 96.9648 97.332 96.6543 97.2227 96.5293C97.0703 96.3574 96.8438 96.2715 96.543 96.2715H96.2441V96.0547H99.8418V96.2715C99.4199 96.2676 99.123 96.3066 98.9512 96.3887C98.7832 96.4707 98.668 96.5742 98.6055 96.6992C98.543 96.8242 98.5117 97.123 98.5117 97.5957V102.588C98.5117 102.912 98.543 103.135 98.6055 103.256C98.6523 103.338 98.7246 103.398 98.8223 103.438C98.9199 103.477 99.2246 103.496 99.7363 103.496H100.316C100.926 103.496 101.354 103.451 101.6 103.361C101.846 103.271 102.07 103.113 102.273 102.887C102.477 102.656 102.68 102.295 102.883 101.803ZM106.926 99.5938L109.855 102.506C110.336 102.986 110.746 103.314 111.086 103.49C111.426 103.662 111.766 103.76 112.105 103.783V104H108.326V103.783C108.553 103.783 108.715 103.746 108.812 103.672C108.914 103.594 108.965 103.508 108.965 103.414C108.965 103.32 108.945 103.236 108.906 103.162C108.871 103.088 108.75 102.949 108.543 102.746L105.801 100.033V102.594C105.801 102.996 105.826 103.262 105.877 103.391C105.916 103.488 105.998 103.572 106.123 103.643C106.291 103.736 106.469 103.783 106.656 103.783H106.926V104H103.539V103.783H103.82C104.148 103.783 104.387 103.688 104.535 103.496C104.629 103.371 104.676 103.07 104.676 102.594V97.4609C104.676 97.0586 104.65 96.791 104.6 96.6582C104.561 96.5645 104.48 96.4824 104.359 96.4121C104.188 96.3184 104.008 96.2715 103.82 96.2715H103.539V96.0547H106.926V96.2715H106.656C106.473 96.2715 106.295 96.3164 106.123 96.4062C106.002 96.4688 105.918 96.5625 105.871 96.6875C105.824 96.8125 105.801 97.0703 105.801 97.4609V99.8926C105.879 99.8184 106.146 99.5703 106.604 99.1484C107.764 98.0859 108.465 97.377 108.707 97.0215C108.812 96.8652 108.865 96.7285 108.865 96.6113C108.865 96.5215 108.824 96.4434 108.742 96.377C108.66 96.3066 108.521 96.2715 108.326 96.2715H108.145V96.0547H111.062V96.2715C110.891 96.2754 110.734 96.2988 110.594 96.3418C110.453 96.3848 110.281 96.4688 110.078 96.5938C109.875 96.7148 109.625 96.9121 109.328 97.1855C109.242 97.2637 108.846 97.6641 108.139 98.3867L106.926 99.5938Z" fill="black"/>
<path d="M80.1094 132H77.9883L75.2988 128.285C75.0996 128.293 74.9375 128.297 74.8125 128.297C74.7617 128.297 74.707 128.297 74.6484 128.297C74.5898 128.293 74.5293 128.289 74.4668 128.285V130.594C74.4668 131.094 74.5215 131.404 74.6309 131.525C74.7793 131.697 75.002 131.783 75.2988 131.783H75.6094V132H72.2051V131.783H72.5039C72.8398 131.783 73.0801 131.674 73.2246 131.455C73.3066 131.334 73.3477 131.047 73.3477 130.594V125.461C73.3477 124.961 73.293 124.65 73.1836 124.529C73.0312 124.357 72.8047 124.271 72.5039 124.271H72.2051V124.055H75.0996C75.9434 124.055 76.5645 124.117 76.9629 124.242C77.3652 124.363 77.7051 124.59 77.9824 124.922C78.2637 125.25 78.4043 125.643 78.4043 126.1C78.4043 126.588 78.2441 127.012 77.9238 127.371C77.6074 127.73 77.1152 127.984 76.4473 128.133L78.0879 130.412C78.4629 130.936 78.7852 131.283 79.0547 131.455C79.3242 131.627 79.6758 131.736 80.1094 131.783V132ZM74.4668 127.916C74.541 127.916 74.6055 127.918 74.6602 127.922C74.7148 127.922 74.7598 127.922 74.7949 127.922C75.5527 127.922 76.123 127.758 76.5059 127.43C76.8926 127.102 77.0859 126.684 77.0859 126.176C77.0859 125.68 76.9297 125.277 76.6172 124.969C76.3086 124.656 75.8984 124.5 75.3867 124.5C75.1602 124.5 74.8535 124.537 74.4668 124.611V127.916ZM85.5059 123.873V126.621H85.2891C85.2188 126.094 85.0918 125.674 84.9082 125.361C84.7285 125.049 84.4707 124.801 84.1348 124.617C83.7988 124.434 83.4512 124.342 83.0918 124.342C82.6855 124.342 82.3496 124.467 82.084 124.717C81.8184 124.963 81.6855 125.244 81.6855 125.561C81.6855 125.803 81.7695 126.023 81.9375 126.223C82.1797 126.516 82.7559 126.906 83.666 127.395C84.4082 127.793 84.9141 128.1 85.1836 128.314C85.457 128.525 85.666 128.775 85.8105 129.064C85.959 129.354 86.0332 129.656 86.0332 129.973C86.0332 130.574 85.7988 131.094 85.3301 131.531C84.8652 131.965 84.2656 132.182 83.5312 132.182C83.3008 132.182 83.084 132.164 82.8809 132.129C82.7598 132.109 82.5078 132.039 82.125 131.918C81.7461 131.793 81.5059 131.73 81.4043 131.73C81.3066 131.73 81.2285 131.76 81.1699 131.818C81.1152 131.877 81.0742 131.998 81.0469 132.182H80.8301V129.457H81.0469C81.1484 130.027 81.2852 130.455 81.457 130.74C81.6289 131.021 81.8906 131.256 82.2422 131.443C82.5977 131.631 82.9863 131.725 83.4082 131.725C83.8965 131.725 84.2812 131.596 84.5625 131.338C84.8477 131.08 84.9902 130.775 84.9902 130.424C84.9902 130.229 84.9355 130.031 84.8262 129.832C84.7207 129.633 84.5547 129.447 84.3281 129.275C84.1758 129.158 83.7598 128.91 83.0801 128.531C82.4004 128.148 81.916 127.844 81.627 127.617C81.3418 127.391 81.125 127.141 80.9766 126.867C80.8281 126.594 80.7539 126.293 80.7539 125.965C80.7539 125.395 80.9727 124.904 81.4102 124.494C81.8477 124.08 82.4043 123.873 83.0801 123.873C83.502 123.873 83.9492 123.977 84.4219 124.184C84.6406 124.281 84.7949 124.33 84.8848 124.33C84.9863 124.33 85.0684 124.301 85.1309 124.242C85.1973 124.18 85.25 124.057 85.2891 123.873H85.5059ZM93.627 124.055L93.7148 125.918H93.4922C93.4492 125.59 93.3906 125.355 93.3164 125.215C93.1953 124.988 93.0332 124.822 92.8301 124.717C92.6309 124.607 92.3672 124.553 92.0391 124.553H90.9199V130.623C90.9199 131.111 90.9727 131.416 91.0781 131.537C91.2266 131.701 91.4551 131.783 91.7637 131.783H92.0391V132H88.6699V131.783H88.9512C89.2871 131.783 89.5254 131.682 89.666 131.479C89.752 131.354 89.7949 131.068 89.7949 130.623V124.553H88.8398C88.4688 124.553 88.2051 124.58 88.0488 124.635C87.8457 124.709 87.6719 124.852 87.5273 125.062C87.3828 125.273 87.2969 125.559 87.2695 125.918H87.0469L87.1406 124.055H93.627Z" fill="black"/>
<path d="M122.285 72.0879C122.684 72.7754 123.113 73.2812 123.574 73.6055C124.039 73.9297 124.566 74.1152 125.156 74.1621V74.3496C124.617 74.3301 124.041 74.2207 123.428 74.0215C122.814 73.8262 122.232 73.5527 121.682 73.2012C121.135 72.8535 120.662 72.4824 120.264 72.0879C119.701 71.8613 119.256 71.6211 118.928 71.3672C118.451 70.9883 118.08 70.5234 117.814 69.9727C117.553 69.418 117.422 68.7637 117.422 68.0098C117.422 66.8223 117.807 65.8359 118.576 65.0508C119.346 64.2656 120.277 63.873 121.371 63.873C122.41 63.873 123.309 64.2676 124.066 65.0566C124.828 65.8418 125.209 66.834 125.209 68.0332C125.209 69.0059 124.938 69.8594 124.395 70.5938C123.855 71.3281 123.152 71.8262 122.285 72.0879ZM121.301 64.3242C120.59 64.3242 120.018 64.5781 119.584 65.0859C119.037 65.7227 118.764 66.6973 118.764 68.0098C118.764 69.2949 119.041 70.2852 119.596 70.9805C120.025 71.5156 120.594 71.7832 121.301 71.7832C122.035 71.7832 122.627 71.5156 123.076 70.9805C123.604 70.3477 123.867 69.4141 123.867 68.1797C123.867 67.2305 123.723 66.4316 123.434 65.7832C123.211 65.2832 122.914 64.916 122.543 64.6816C122.176 64.4434 121.762 64.3242 121.301 64.3242Z" fill="black"/>
<path d="M119.285 132.088C119.684 132.775 120.113 133.281 120.574 133.605C121.039 133.93 121.566 134.115 122.156 134.162V134.35C121.617 134.33 121.041 134.221 120.428 134.021C119.814 133.826 119.232 133.553 118.682 133.201C118.135 132.854 117.662 132.482 117.264 132.088C116.701 131.861 116.256 131.621 115.928 131.367C115.451 130.988 115.08 130.523 114.814 129.973C114.553 129.418 114.422 128.764 114.422 128.01C114.422 126.822 114.807 125.836 115.576 125.051C116.346 124.266 117.277 123.873 118.371 123.873C119.41 123.873 120.309 124.268 121.066 125.057C121.828 125.842 122.209 126.834 122.209 128.033C122.209 129.006 121.938 129.859 121.395 130.594C120.855 131.328 120.152 131.826 119.285 132.088ZM118.301 124.324C117.59 124.324 117.018 124.578 116.584 125.086C116.037 125.723 115.764 126.697 115.764 128.01C115.764 129.295 116.041 130.285 116.596 130.98C117.025 131.516 117.594 131.783 118.301 131.783C119.035 131.783 119.627 131.516 120.076 130.98C120.604 130.348 120.867 129.414 120.867 128.18C120.867 127.23 120.723 126.432 120.434 125.783C120.211 125.283 119.914 124.916 119.543 124.682C119.176 124.443 118.762 124.324 118.301 124.324ZM124.066 126.908V126.633C124.469 126.395 124.742 126.172 124.887 125.965C124.988 125.816 125.039 125.639 125.039 125.432C125.039 125.311 125.018 125.221 124.975 125.162C124.928 125.104 124.877 125.074 124.822 125.074C124.779 125.074 124.723 125.088 124.652 125.115C124.551 125.15 124.467 125.168 124.4 125.168C124.244 125.168 124.105 125.109 123.984 124.992C123.863 124.875 123.803 124.729 123.803 124.553C123.803 124.357 123.863 124.205 123.984 124.096C124.148 123.947 124.344 123.873 124.57 123.873C124.832 123.873 125.066 123.984 125.273 124.207C125.484 124.426 125.59 124.699 125.59 125.027C125.59 125.488 125.416 125.908 125.068 126.287C124.838 126.537 124.504 126.744 124.066 126.908Z" fill="black"/>
<path d="M29.7861 17.3789L29.8594 18.9316H29.6738C29.638 18.6582 29.5892 18.4629 29.5273 18.3457C29.4264 18.1569 29.2913 18.0186 29.1221 17.9307C28.9561 17.8395 28.7363 17.7939 28.4629 17.7939H27.5303V22.8525C27.5303 23.2594 27.5742 23.5133 27.6621 23.6143C27.7858 23.751 27.9762 23.8193 28.2334 23.8193H28.4629V24H25.6553V23.8193H25.8896C26.1696 23.8193 26.3682 23.7347 26.4854 23.5654C26.557 23.4613 26.5928 23.2236 26.5928 22.8525V17.7939H25.7969C25.4876 17.7939 25.2679 17.8167 25.1377 17.8623C24.9684 17.9242 24.8236 18.043 24.7031 18.2188C24.5827 18.3945 24.5111 18.6322 24.4883 18.9316H24.3027L24.3809 17.3789H29.7861ZM34.4736 17.7402V20.3428H35.6797C35.9564 20.3428 36.1582 20.2826 36.2852 20.1621C36.4154 20.0384 36.5016 19.7959 36.5439 19.4346H36.7246V21.6758H36.5439C36.5407 21.4186 36.5065 21.2298 36.4414 21.1094C36.3796 20.9889 36.2917 20.8994 36.1777 20.8408C36.0671 20.779 35.901 20.748 35.6797 20.748H34.4736V22.8281C34.4736 23.1634 34.4948 23.3848 34.5371 23.4922C34.5697 23.5736 34.638 23.6436 34.7422 23.7021C34.8854 23.7803 35.0352 23.8193 35.1914 23.8193H35.4307V24H32.5889V23.8193H32.8232C33.0967 23.8193 33.2952 23.7396 33.4189 23.5801C33.4971 23.4759 33.5361 23.2253 33.5361 22.8281V18.5508C33.5361 18.2155 33.515 17.9941 33.4727 17.8867C33.4401 17.8053 33.3734 17.7354 33.2725 17.6768C33.1325 17.5986 32.9827 17.5596 32.8232 17.5596H32.5889V17.3789H37.5156L37.5791 18.834H37.4082C37.3236 18.5247 37.2243 18.2985 37.1104 18.1553C36.9997 18.0088 36.8613 17.903 36.6953 17.8379C36.5326 17.7728 36.2786 17.7402 35.9336 17.7402H34.4736ZM39.8447 17.0566V22.9893C39.8447 23.2692 39.8643 23.4548 39.9033 23.5459C39.9456 23.637 40.0091 23.707 40.0938 23.7559C40.1784 23.8014 40.3363 23.8242 40.5674 23.8242V24H38.375V23.8242C38.5801 23.8242 38.7201 23.8031 38.7949 23.7607C38.8698 23.7184 38.9284 23.6484 38.9707 23.5508C39.013 23.4531 39.0342 23.266 39.0342 22.9893V18.9268C39.0342 18.4222 39.0228 18.113 39 17.999C38.9772 17.8818 38.9398 17.8021 38.8877 17.7598C38.8389 17.7174 38.7754 17.6963 38.6973 17.6963C38.6126 17.6963 38.5052 17.7223 38.375 17.7744L38.292 17.6035L39.625 17.0566H39.8447ZM42.2275 17.0566C42.3643 17.0566 42.4798 17.1055 42.5742 17.2031C42.6719 17.2975 42.7207 17.4131 42.7207 17.5498C42.7207 17.6865 42.6719 17.8037 42.5742 17.9014C42.4798 17.999 42.3643 18.0479 42.2275 18.0479C42.0908 18.0479 41.9736 17.999 41.876 17.9014C41.7783 17.8037 41.7295 17.6865 41.7295 17.5498C41.7295 17.4131 41.7767 17.2975 41.8711 17.2031C41.9688 17.1055 42.0876 17.0566 42.2275 17.0566ZM42.6328 19.3955V22.9893C42.6328 23.2692 42.6523 23.4564 42.6914 23.5508C42.7337 23.6419 42.7939 23.7103 42.8721 23.7559C42.9535 23.8014 43.0999 23.8242 43.3115 23.8242V24H41.1387V23.8242C41.3568 23.8242 41.5033 23.8031 41.5781 23.7607C41.653 23.7184 41.7116 23.6484 41.7539 23.5508C41.7995 23.4531 41.8223 23.266 41.8223 22.9893V21.2656C41.8223 20.7806 41.8076 20.4665 41.7783 20.3232C41.7555 20.2191 41.7197 20.1475 41.6709 20.1084C41.6221 20.0661 41.5553 20.0449 41.4707 20.0449C41.3796 20.0449 41.2689 20.0693 41.1387 20.1182L41.0703 19.9424L42.418 19.3955H42.6328ZM43.5508 19.9717L44.9277 19.415H45.1133V20.46C45.3444 20.0661 45.5755 19.791 45.8066 19.6348C46.041 19.4753 46.2868 19.3955 46.5439 19.3955C46.9932 19.3955 47.3675 19.5713 47.667 19.9229C48.0348 20.3525 48.2188 20.9124 48.2188 21.6025C48.2188 22.374 47.9974 23.012 47.5547 23.5166C47.1901 23.93 46.7311 24.1367 46.1777 24.1367C45.9368 24.1367 45.7285 24.1025 45.5527 24.0342C45.4225 23.9854 45.276 23.8877 45.1133 23.7412V25.1035C45.1133 25.4095 45.1312 25.6032 45.167 25.6846C45.2061 25.7692 45.2712 25.8359 45.3623 25.8848C45.4567 25.9336 45.626 25.958 45.8701 25.958V26.1387H43.5264V25.958H43.6484C43.8275 25.9613 43.9805 25.9271 44.1074 25.8555C44.1693 25.8197 44.2165 25.7611 44.249 25.6797C44.2848 25.6016 44.3027 25.3997 44.3027 25.0742V20.8457C44.3027 20.556 44.2897 20.3721 44.2637 20.2939C44.2376 20.2158 44.1953 20.1572 44.1367 20.1182C44.0814 20.0791 44.0049 20.0596 43.9072 20.0596C43.8291 20.0596 43.7298 20.0824 43.6094 20.1279L43.5508 19.9717ZM45.1133 20.748V22.418C45.1133 22.7793 45.1279 23.0169 45.1572 23.1309C45.2028 23.3197 45.3135 23.4857 45.4893 23.6289C45.6683 23.7721 45.8929 23.8438 46.1631 23.8438C46.4886 23.8438 46.7523 23.7168 46.9541 23.4629C47.2178 23.1309 47.3496 22.6637 47.3496 22.0615C47.3496 21.3779 47.1999 20.8522 46.9004 20.4844C46.6921 20.2305 46.4447 20.1035 46.1582 20.1035C46.002 20.1035 45.8473 20.1426 45.6943 20.2207C45.5771 20.2793 45.3835 20.4551 45.1133 20.748ZM48.9658 21.3877H51.4902V22.125H48.9658V21.3877ZM53.9365 17.7402V20.3428H55.1426C55.4193 20.3428 55.6211 20.2826 55.748 20.1621C55.8783 20.0384 55.9645 19.7959 56.0068 19.4346H56.1875V21.6758H56.0068C56.0036 21.4186 55.9694 21.2298 55.9043 21.1094C55.8424 20.9889 55.7546 20.8994 55.6406 20.8408C55.5299 20.779 55.3639 20.748 55.1426 20.748H53.9365V22.8281C53.9365 23.1634 53.9577 23.3848 54 23.4922C54.0326 23.5736 54.1009 23.6436 54.2051 23.7021C54.3483 23.7803 54.498 23.8193 54.6543 23.8193H54.8936V24H52.0518V23.8193H52.2861C52.5596 23.8193 52.7581 23.7396 52.8818 23.5801C52.96 23.4759 52.999 23.2253 52.999 22.8281V18.5508C52.999 18.2155 52.9779 17.9941 52.9355 17.8867C52.903 17.8053 52.8363 17.7354 52.7354 17.6768C52.5954 17.5986 52.4456 17.5596 52.2861 17.5596H52.0518V17.3789H56.9785L57.042 18.834H56.8711C56.7865 18.5247 56.6872 18.2985 56.5732 18.1553C56.4626 18.0088 56.3242 17.903 56.1582 17.8379C55.9954 17.7728 55.7415 17.7402 55.3965 17.7402H53.9365ZM59.3076 17.0566V22.9893C59.3076 23.2692 59.3271 23.4548 59.3662 23.5459C59.4085 23.637 59.472 23.707 59.5566 23.7559C59.6413 23.8014 59.7992 23.8242 60.0303 23.8242V24H57.8379V23.8242C58.043 23.8242 58.1829 23.8031 58.2578 23.7607C58.3327 23.7184 58.3913 23.6484 58.4336 23.5508C58.4759 23.4531 58.4971 23.266 58.4971 22.9893V18.9268C58.4971 18.4222 58.4857 18.113 58.4629 17.999C58.4401 17.8818 58.4027 17.8021 58.3506 17.7598C58.3018 17.7174 58.2383 17.6963 58.1602 17.6963C58.0755 17.6963 57.9681 17.7223 57.8379 17.7744L57.7549 17.6035L59.0879 17.0566H59.3076ZM62.7402 19.3955C63.4173 19.3955 63.9609 19.6527 64.3711 20.167C64.7194 20.6064 64.8936 21.111 64.8936 21.6807C64.8936 22.0811 64.7975 22.4863 64.6055 22.8965C64.4134 23.3066 64.1481 23.6159 63.8096 23.8242C63.4743 24.0326 63.0999 24.1367 62.6865 24.1367C62.0127 24.1367 61.4772 23.8682 61.0801 23.3311C60.7448 22.8786 60.5771 22.3708 60.5771 21.8076C60.5771 21.3975 60.6781 20.9906 60.8799 20.5869C61.085 20.18 61.3535 19.8805 61.6855 19.6885C62.0176 19.4932 62.3691 19.3955 62.7402 19.3955ZM62.5889 19.7129C62.4163 19.7129 62.2422 19.765 62.0664 19.8691C61.8939 19.9701 61.7539 20.1491 61.6465 20.4062C61.5391 20.6634 61.4854 20.9938 61.4854 21.3975C61.4854 22.0485 61.6139 22.61 61.8711 23.082C62.1315 23.554 62.4733 23.79 62.8965 23.79C63.2122 23.79 63.4727 23.6598 63.6777 23.3994C63.8828 23.139 63.9854 22.6914 63.9854 22.0566C63.9854 21.2624 63.8145 20.6374 63.4727 20.1816C63.2415 19.8691 62.9469 19.7129 62.5889 19.7129ZM65.2305 19.9717L66.6074 19.415H66.793V20.46C67.0241 20.0661 67.2552 19.791 67.4863 19.6348C67.7207 19.4753 67.9665 19.3955 68.2236 19.3955C68.6729 19.3955 69.0472 19.5713 69.3467 19.9229C69.7145 20.3525 69.8984 20.9124 69.8984 21.6025C69.8984 22.374 69.6771 23.012 69.2344 23.5166C68.8698 23.93 68.4108 24.1367 67.8574 24.1367C67.6165 24.1367 67.4082 24.1025 67.2324 24.0342C67.1022 23.9854 66.9557 23.8877 66.793 23.7412V25.1035C66.793 25.4095 66.8109 25.6032 66.8467 25.6846C66.8857 25.7692 66.9508 25.8359 67.042 25.8848C67.1364 25.9336 67.3057 25.958 67.5498 25.958V26.1387H65.2061V25.958H65.3281C65.5072 25.9613 65.6602 25.9271 65.7871 25.8555C65.849 25.8197 65.8962 25.7611 65.9287 25.6797C65.9645 25.6016 65.9824 25.3997 65.9824 25.0742V20.8457C65.9824 20.556 65.9694 20.3721 65.9434 20.2939C65.9173 20.2158 65.875 20.1572 65.8164 20.1182C65.7611 20.0791 65.6846 20.0596 65.5869 20.0596C65.5088 20.0596 65.4095 20.0824 65.2891 20.1279L65.2305 19.9717ZM66.793 20.748V22.418C66.793 22.7793 66.8076 23.0169 66.8369 23.1309C66.8825 23.3197 66.9932 23.4857 67.1689 23.6289C67.348 23.7721 67.5726 23.8438 67.8428 23.8438C68.1683 23.8438 68.432 23.7168 68.6338 23.4629C68.8975 23.1309 69.0293 22.6637 69.0293 22.0615C69.0293 21.3779 68.8796 20.8522 68.5801 20.4844C68.3717 20.2305 68.1243 20.1035 67.8379 20.1035C67.6816 20.1035 67.527 20.1426 67.374 20.2207C67.2568 20.2793 67.0632 20.4551 66.793 20.748ZM72.6084 17.3789H74.4053L78.4531 22.3447V18.5264C78.4531 18.1195 78.4076 17.8656 78.3164 17.7646C78.196 17.6279 78.0055 17.5596 77.7451 17.5596H77.5156V17.3789H79.8203V17.5596H79.5859C79.306 17.5596 79.1074 17.6442 78.9902 17.8135C78.9186 17.9176 78.8828 18.1553 78.8828 18.5264V24.1074H78.707L74.3418 18.7754V22.8525C74.3418 23.2594 74.3857 23.5133 74.4736 23.6143C74.5973 23.751 74.7878 23.8193 75.0449 23.8193H75.2793V24H72.9746V23.8193H73.2041C73.4873 23.8193 73.6875 23.7347 73.8047 23.5654C73.8763 23.4613 73.9121 23.2236 73.9121 22.8525V18.248C73.7201 18.0234 73.5736 17.8753 73.4727 17.8037C73.375 17.7321 73.2301 17.6654 73.0381 17.6035C72.9437 17.5742 72.8005 17.5596 72.6084 17.5596V17.3789ZM81.0312 21.2119C81.028 21.876 81.1891 22.3968 81.5146 22.7744C81.8402 23.152 82.2227 23.3408 82.6621 23.3408C82.9551 23.3408 83.209 23.2611 83.4238 23.1016C83.6419 22.9388 83.8242 22.6621 83.9707 22.2715L84.1221 22.3691C84.0537 22.8151 83.8551 23.222 83.5264 23.5898C83.1976 23.9544 82.7858 24.1367 82.291 24.1367C81.7539 24.1367 81.2933 23.9284 80.9092 23.5117C80.5283 23.0918 80.3379 22.5286 80.3379 21.8223C80.3379 21.0573 80.5332 20.4616 80.9238 20.0352C81.3177 19.6055 81.8109 19.3906 82.4033 19.3906C82.9046 19.3906 83.3164 19.5566 83.6387 19.8887C83.9609 20.2174 84.1221 20.6585 84.1221 21.2119H81.0312ZM81.0312 20.9287H83.1016C83.0853 20.6423 83.0511 20.4404 82.999 20.3232C82.9176 20.141 82.7956 19.9977 82.6328 19.8936C82.4733 19.7894 82.3057 19.7373 82.1299 19.7373C81.8597 19.7373 81.6172 19.8431 81.4023 20.0547C81.1908 20.263 81.0671 20.5544 81.0312 20.9287ZM85.9189 22.3691C85.6455 22.2357 85.4355 22.0501 85.2891 21.8125C85.1426 21.5716 85.0693 21.3063 85.0693 21.0166C85.0693 20.5739 85.2354 20.193 85.5674 19.874C85.9027 19.555 86.3307 19.3955 86.8516 19.3955C87.278 19.3955 87.6475 19.4997 87.96 19.708H88.9072C89.0472 19.708 89.1286 19.7129 89.1514 19.7227C89.1742 19.7292 89.1904 19.7422 89.2002 19.7617C89.2197 19.791 89.2295 19.8431 89.2295 19.918C89.2295 20.0026 89.2214 20.0612 89.2051 20.0938C89.1953 20.11 89.1774 20.123 89.1514 20.1328C89.1286 20.1426 89.0472 20.1475 88.9072 20.1475H88.3262C88.5085 20.3818 88.5996 20.6813 88.5996 21.0459C88.5996 21.4626 88.4401 21.819 88.1211 22.1152C87.8021 22.4115 87.374 22.5596 86.8369 22.5596C86.6156 22.5596 86.3893 22.527 86.1582 22.4619C86.015 22.5856 85.9173 22.6947 85.8652 22.7891C85.8164 22.8802 85.792 22.9583 85.792 23.0234C85.792 23.0788 85.818 23.1325 85.8701 23.1846C85.9255 23.2367 86.0312 23.2741 86.1875 23.2969C86.2786 23.3099 86.5065 23.3213 86.8711 23.3311C87.5417 23.3473 87.9762 23.3701 88.1748 23.3994C88.4775 23.4417 88.7184 23.554 88.8975 23.7363C89.0798 23.9186 89.1709 24.1432 89.1709 24.4102C89.1709 24.778 88.9984 25.123 88.6533 25.4453C88.1455 25.9206 87.4831 26.1582 86.666 26.1582C86.0378 26.1582 85.5072 26.0166 85.0742 25.7334C84.8301 25.5706 84.708 25.4014 84.708 25.2256C84.708 25.1475 84.7259 25.0693 84.7617 24.9912C84.8171 24.8708 84.931 24.7031 85.1035 24.4883C85.1263 24.459 85.2923 24.2832 85.6016 23.9609C85.4323 23.86 85.3118 23.7705 85.2402 23.6924C85.1719 23.611 85.1377 23.5199 85.1377 23.4189C85.1377 23.305 85.1833 23.1715 85.2744 23.0186C85.3688 22.8656 85.5837 22.6491 85.9189 22.3691ZM86.7686 19.6299C86.5277 19.6299 86.3258 19.7259 86.1631 19.918C86.0003 20.11 85.9189 20.4046 85.9189 20.8018C85.9189 21.3161 86.0296 21.7148 86.251 21.998C86.4202 22.2129 86.6351 22.3203 86.8955 22.3203C87.1429 22.3203 87.3464 22.2275 87.5059 22.042C87.6654 21.8564 87.7451 21.5651 87.7451 21.168C87.7451 20.6504 87.6328 20.2451 87.4082 19.9521C87.2422 19.7373 87.029 19.6299 86.7686 19.6299ZM85.8701 24C85.7171 24.166 85.6016 24.3206 85.5234 24.4639C85.4453 24.6071 85.4062 24.7389 85.4062 24.8594C85.4062 25.0156 85.5007 25.1523 85.6895 25.2695C86.015 25.4714 86.4854 25.5723 87.1006 25.5723C87.6865 25.5723 88.1178 25.4681 88.3945 25.2598C88.6745 25.0547 88.8145 24.835 88.8145 24.6006C88.8145 24.4313 88.7314 24.3109 88.5654 24.2393C88.3962 24.1676 88.0609 24.1253 87.5596 24.1123C86.8271 24.0928 86.264 24.0553 85.8701 24ZM92.2568 23.3555C91.7979 23.7103 91.5098 23.9154 91.3926 23.9707C91.2168 24.0521 91.0296 24.0928 90.8311 24.0928C90.5218 24.0928 90.2663 23.987 90.0645 23.7754C89.8659 23.5638 89.7666 23.2855 89.7666 22.9404C89.7666 22.7223 89.8154 22.5335 89.9131 22.374C90.0465 22.1527 90.2777 21.9443 90.6064 21.749C90.9385 21.5537 91.4886 21.3161 92.2568 21.0361V20.8604C92.2568 20.4144 92.1852 20.1084 92.042 19.9424C91.902 19.7764 91.6969 19.6934 91.4268 19.6934C91.2217 19.6934 91.0589 19.7487 90.9385 19.8594C90.8148 19.9701 90.7529 20.097 90.7529 20.2402L90.7627 20.5234C90.7627 20.6732 90.7236 20.7887 90.6455 20.8701C90.5706 20.9515 90.4714 20.9922 90.3477 20.9922C90.2272 20.9922 90.1279 20.9499 90.0498 20.8652C89.9749 20.7806 89.9375 20.665 89.9375 20.5186C89.9375 20.2386 90.0807 19.9814 90.3672 19.7471C90.6536 19.5127 91.0557 19.3955 91.5732 19.3955C91.9704 19.3955 92.2959 19.4622 92.5498 19.5957C92.7419 19.6966 92.8835 19.8545 92.9746 20.0693C93.0332 20.2093 93.0625 20.4958 93.0625 20.9287V22.4473C93.0625 22.8737 93.0706 23.1357 93.0869 23.2334C93.1032 23.3278 93.1292 23.3913 93.165 23.4238C93.2041 23.4564 93.248 23.4727 93.2969 23.4727C93.349 23.4727 93.3945 23.4613 93.4336 23.4385C93.502 23.3962 93.6338 23.2773 93.8291 23.082V23.3555C93.4645 23.8438 93.1162 24.0879 92.7842 24.0879C92.6247 24.0879 92.4977 24.0326 92.4033 23.9219C92.3089 23.8112 92.2601 23.6224 92.2568 23.3555ZM92.2568 23.0381V21.334C91.7653 21.5293 91.4479 21.6676 91.3047 21.749C91.0475 21.8923 90.8636 22.042 90.7529 22.1982C90.6423 22.3545 90.5869 22.5254 90.5869 22.7109C90.5869 22.9453 90.6569 23.1406 90.7969 23.2969C90.9368 23.4499 91.098 23.5264 91.2803 23.5264C91.5277 23.5264 91.8532 23.3636 92.2568 23.0381ZM95.4648 18.0576V19.5273H96.5098V19.8691H95.4648V22.7695C95.4648 23.0592 95.5055 23.2546 95.5869 23.3555C95.6715 23.4564 95.779 23.5068 95.9092 23.5068C96.0166 23.5068 96.1208 23.4743 96.2217 23.4092C96.3226 23.3408 96.4007 23.2415 96.4561 23.1113H96.6465C96.5326 23.4303 96.3714 23.6712 96.1631 23.834C95.9548 23.9935 95.7399 24.0732 95.5186 24.0732C95.3688 24.0732 95.2223 24.0326 95.0791 23.9512C94.9359 23.8665 94.8301 23.7477 94.7617 23.5947C94.6934 23.4385 94.6592 23.1992 94.6592 22.877V19.8691H93.9512V19.708C94.1302 19.6364 94.3125 19.516 94.498 19.3467C94.6868 19.1742 94.8545 18.9707 95.001 18.7363C95.0758 18.6126 95.18 18.3864 95.3135 18.0576H95.4648ZM98.0869 17.0566C98.2236 17.0566 98.3392 17.1055 98.4336 17.2031C98.5312 17.2975 98.5801 17.4131 98.5801 17.5498C98.5801 17.6865 98.5312 17.8037 98.4336 17.9014C98.3392 17.999 98.2236 18.0479 98.0869 18.0479C97.9502 18.0479 97.833 17.999 97.7354 17.9014C97.6377 17.8037 97.5889 17.6865 97.5889 17.5498C97.5889 17.4131 97.6361 17.2975 97.7305 17.2031C97.8281 17.1055 97.9469 17.0566 98.0869 17.0566ZM98.4922 19.3955V22.9893C98.4922 23.2692 98.5117 23.4564 98.5508 23.5508C98.5931 23.6419 98.6533 23.7103 98.7314 23.7559C98.8128 23.8014 98.9593 23.8242 99.1709 23.8242V24H96.998V23.8242C97.2161 23.8242 97.3626 23.8031 97.4375 23.7607C97.5124 23.7184 97.571 23.6484 97.6133 23.5508C97.6589 23.4531 97.6816 23.266 97.6816 22.9893V21.2656C97.6816 20.7806 97.667 20.4665 97.6377 20.3232C97.6149 20.2191 97.5791 20.1475 97.5303 20.1084C97.4814 20.0661 97.4147 20.0449 97.3301 20.0449C97.2389 20.0449 97.1283 20.0693 96.998 20.1182L96.9297 19.9424L98.2773 19.3955H98.4922ZM99.5029 19.5273H101.607V19.708H101.471C101.344 19.708 101.246 19.7389 101.178 19.8008C101.113 19.8626 101.08 19.9456 101.08 20.0498C101.08 20.1637 101.114 20.2988 101.183 20.4551L102.223 22.9258L103.268 20.3623C103.342 20.18 103.38 20.0417 103.38 19.9473C103.38 19.9017 103.367 19.8643 103.341 19.835C103.305 19.7861 103.259 19.7536 103.204 19.7373C103.149 19.7178 103.036 19.708 102.867 19.708V19.5273H104.327V19.708C104.158 19.721 104.041 19.7552 103.976 19.8105C103.862 19.9082 103.759 20.071 103.668 20.2988L102.081 24.1367H101.881L100.284 20.3623C100.213 20.1865 100.144 20.0612 100.079 19.9863C100.014 19.9082 99.931 19.8431 99.8301 19.791C99.7747 19.7617 99.6657 19.734 99.5029 19.708V19.5273ZM105.484 21.2119C105.481 21.876 105.642 22.3968 105.968 22.7744C106.293 23.152 106.676 23.3408 107.115 23.3408C107.408 23.3408 107.662 23.2611 107.877 23.1016C108.095 22.9388 108.277 22.6621 108.424 22.2715L108.575 22.3691C108.507 22.8151 108.308 23.222 107.979 23.5898C107.651 23.9544 107.239 24.1367 106.744 24.1367C106.207 24.1367 105.746 23.9284 105.362 23.5117C104.981 23.0918 104.791 22.5286 104.791 21.8223C104.791 21.0573 104.986 20.4616 105.377 20.0352C105.771 19.6055 106.264 19.3906 106.856 19.3906C107.358 19.3906 107.77 19.5566 108.092 19.8887C108.414 20.2174 108.575 20.6585 108.575 21.2119H105.484ZM105.484 20.9287H107.555C107.538 20.6423 107.504 20.4404 107.452 20.3232C107.371 20.141 107.249 19.9977 107.086 19.8936C106.926 19.7894 106.759 19.7373 106.583 19.7373C106.313 19.7373 106.07 19.8431 105.855 20.0547C105.644 20.263 105.52 20.5544 105.484 20.9287ZM113.453 17.7402V20.3574H114.908C115.286 20.3574 115.538 20.3005 115.665 20.1865C115.834 20.0368 115.929 19.7731 115.948 19.3955H116.129V21.7002H115.948C115.903 21.3779 115.857 21.1712 115.812 21.0801C115.753 20.9661 115.657 20.8766 115.523 20.8115C115.39 20.7464 115.185 20.7139 114.908 20.7139H113.453V22.8965C113.453 23.1895 113.466 23.3685 113.492 23.4336C113.518 23.4954 113.564 23.5459 113.629 23.585C113.694 23.6208 113.818 23.6387 114 23.6387H115.123C115.497 23.6387 115.769 23.6126 115.938 23.5605C116.108 23.5085 116.271 23.4059 116.427 23.2529C116.629 23.0511 116.835 22.7467 117.047 22.3398H117.242L116.671 24H111.568V23.8193H111.803C111.959 23.8193 112.107 23.7819 112.247 23.707C112.351 23.6549 112.421 23.5768 112.457 23.4727C112.496 23.3685 112.516 23.1553 112.516 22.833V18.5312C112.516 18.1113 112.473 17.8525 112.389 17.7549C112.271 17.6247 112.076 17.5596 111.803 17.5596H111.568V17.3789H116.671L116.744 18.8291H116.554C116.485 18.4808 116.409 18.2415 116.324 18.1113C116.243 17.9811 116.121 17.8818 115.958 17.8135C115.828 17.7646 115.598 17.7402 115.27 17.7402H113.453ZM120.948 23.4971C120.73 23.7249 120.517 23.8893 120.309 23.9902C120.1 24.0879 119.876 24.1367 119.635 24.1367C119.146 24.1367 118.72 23.9333 118.355 23.5264C117.991 23.1162 117.809 22.5905 117.809 21.9492C117.809 21.3079 118.01 20.722 118.414 20.1914C118.818 19.6576 119.337 19.3906 119.972 19.3906C120.366 19.3906 120.691 19.516 120.948 19.7666V18.9414C120.948 18.4303 120.935 18.1162 120.909 17.999C120.886 17.8818 120.849 17.8021 120.797 17.7598C120.745 17.7174 120.68 17.6963 120.602 17.6963C120.517 17.6963 120.405 17.7223 120.265 17.7744L120.201 17.6035L121.534 17.0566H121.754V22.2275C121.754 22.7516 121.765 23.0723 121.788 23.1895C121.814 23.3034 121.853 23.3831 121.905 23.4287C121.961 23.4743 122.024 23.4971 122.096 23.4971C122.184 23.4971 122.301 23.4694 122.447 23.4141L122.501 23.585L121.173 24.1367H120.948V23.4971ZM120.948 23.1553V20.8506C120.929 20.6292 120.87 20.4274 120.772 20.2451C120.675 20.0628 120.545 19.9261 120.382 19.835C120.222 19.7406 120.066 19.6934 119.913 19.6934C119.627 19.6934 119.371 19.8219 119.146 20.0791C118.85 20.4176 118.702 20.9124 118.702 21.5635C118.702 22.221 118.845 22.7256 119.132 23.0771C119.418 23.4255 119.737 23.5996 120.089 23.5996C120.385 23.5996 120.672 23.4515 120.948 23.1553ZM123.985 22.3691C123.712 22.2357 123.502 22.0501 123.355 21.8125C123.209 21.5716 123.136 21.3063 123.136 21.0166C123.136 20.5739 123.302 20.193 123.634 19.874C123.969 19.555 124.397 19.3955 124.918 19.3955C125.344 19.3955 125.714 19.4997 126.026 19.708H126.974C127.114 19.708 127.195 19.7129 127.218 19.7227C127.241 19.7292 127.257 19.7422 127.267 19.7617C127.286 19.791 127.296 19.8431 127.296 19.918C127.296 20.0026 127.288 20.0612 127.271 20.0938C127.262 20.11 127.244 20.123 127.218 20.1328C127.195 20.1426 127.114 20.1475 126.974 20.1475H126.393C126.575 20.3818 126.666 20.6813 126.666 21.0459C126.666 21.4626 126.507 21.819 126.188 22.1152C125.868 22.4115 125.44 22.5596 124.903 22.5596C124.682 22.5596 124.456 22.527 124.225 22.4619C124.081 22.5856 123.984 22.6947 123.932 22.7891C123.883 22.8802 123.858 22.9583 123.858 23.0234C123.858 23.0788 123.884 23.1325 123.937 23.1846C123.992 23.2367 124.098 23.2741 124.254 23.2969C124.345 23.3099 124.573 23.3213 124.938 23.3311C125.608 23.3473 126.043 23.3701 126.241 23.3994C126.544 23.4417 126.785 23.554 126.964 23.7363C127.146 23.9186 127.237 24.1432 127.237 24.4102C127.237 24.778 127.065 25.123 126.72 25.4453C126.212 25.9206 125.549 26.1582 124.732 26.1582C124.104 26.1582 123.574 26.0166 123.141 25.7334C122.896 25.5706 122.774 25.4014 122.774 25.2256C122.774 25.1475 122.792 25.0693 122.828 24.9912C122.883 24.8708 122.997 24.7031 123.17 24.4883C123.193 24.459 123.359 24.2832 123.668 23.9609C123.499 23.86 123.378 23.7705 123.307 23.6924C123.238 23.611 123.204 23.5199 123.204 23.4189C123.204 23.305 123.25 23.1715 123.341 23.0186C123.435 22.8656 123.65 22.6491 123.985 22.3691ZM124.835 19.6299C124.594 19.6299 124.392 19.7259 124.229 19.918C124.067 20.11 123.985 20.4046 123.985 20.8018C123.985 21.3161 124.096 21.7148 124.317 21.998C124.487 22.2129 124.701 22.3203 124.962 22.3203C125.209 22.3203 125.413 22.2275 125.572 22.042C125.732 21.8564 125.812 21.5651 125.812 21.168C125.812 20.6504 125.699 20.2451 125.475 19.9521C125.309 19.7373 125.095 19.6299 124.835 19.6299ZM123.937 24C123.784 24.166 123.668 24.3206 123.59 24.4639C123.512 24.6071 123.473 24.7389 123.473 24.8594C123.473 25.0156 123.567 25.1523 123.756 25.2695C124.081 25.4714 124.552 25.5723 125.167 25.5723C125.753 25.5723 126.184 25.4681 126.461 25.2598C126.741 25.0547 126.881 24.835 126.881 24.6006C126.881 24.4313 126.798 24.3109 126.632 24.2393C126.463 24.1676 126.127 24.1253 125.626 24.1123C124.894 24.0928 124.33 24.0553 123.937 24ZM128.541 21.2119C128.538 21.876 128.699 22.3968 129.024 22.7744C129.35 23.152 129.732 23.3408 130.172 23.3408C130.465 23.3408 130.719 23.2611 130.934 23.1016C131.152 22.9388 131.334 22.6621 131.48 22.2715L131.632 22.3691C131.563 22.8151 131.365 23.222 131.036 23.5898C130.707 23.9544 130.296 24.1367 129.801 24.1367C129.264 24.1367 128.803 23.9284 128.419 23.5117C128.038 23.0918 127.848 22.5286 127.848 21.8223C127.848 21.0573 128.043 20.4616 128.434 20.0352C128.827 19.6055 129.321 19.3906 129.913 19.3906C130.414 19.3906 130.826 19.5566 131.148 19.8887C131.471 20.2174 131.632 20.6585 131.632 21.2119H128.541ZM128.541 20.9287H130.611C130.595 20.6423 130.561 20.4404 130.509 20.3232C130.427 20.141 130.305 19.9977 130.143 19.8936C129.983 19.7894 129.815 19.7373 129.64 19.7373C129.369 19.7373 129.127 19.8431 128.912 20.0547C128.701 20.263 128.577 20.5544 128.541 20.9287ZM140.021 17.3789L140.094 18.9316H139.908C139.872 18.6582 139.824 18.4629 139.762 18.3457C139.661 18.1569 139.526 18.0186 139.356 17.9307C139.19 17.8395 138.971 17.7939 138.697 17.7939H137.765V22.8525C137.765 23.2594 137.809 23.5133 137.896 23.6143C138.02 23.751 138.211 23.8193 138.468 23.8193H138.697V24H135.89V23.8193H136.124C136.404 23.8193 136.603 23.7347 136.72 23.5654C136.791 23.4613 136.827 23.2236 136.827 22.8525V17.7939H136.031C135.722 17.7939 135.502 17.8167 135.372 17.8623C135.203 17.9242 135.058 18.043 134.938 18.2188C134.817 18.3945 134.745 18.6322 134.723 18.9316H134.537L134.615 17.3789H140.021ZM141.617 19.3955V20.4014C141.992 19.7308 142.376 19.3955 142.77 19.3955C142.949 19.3955 143.097 19.4508 143.214 19.5615C143.331 19.6689 143.39 19.7943 143.39 19.9375C143.39 20.0645 143.347 20.1719 143.263 20.2598C143.178 20.3477 143.077 20.3916 142.96 20.3916C142.846 20.3916 142.717 20.3363 142.574 20.2256C142.434 20.1117 142.33 20.0547 142.262 20.0547C142.203 20.0547 142.14 20.0872 142.071 20.1523C141.925 20.2858 141.773 20.5055 141.617 20.8115V22.9551C141.617 23.2025 141.648 23.3896 141.71 23.5166C141.752 23.6045 141.827 23.6777 141.935 23.7363C142.042 23.7949 142.197 23.8242 142.398 23.8242V24H140.108V23.8242C140.336 23.8242 140.506 23.7884 140.616 23.7168C140.698 23.6647 140.755 23.5817 140.787 23.4678C140.803 23.4124 140.812 23.2546 140.812 22.9941V21.2607C140.812 20.7399 140.8 20.4307 140.777 20.333C140.758 20.2321 140.719 20.1589 140.66 20.1133C140.605 20.0677 140.535 20.0449 140.45 20.0449C140.349 20.0449 140.235 20.0693 140.108 20.1182L140.06 19.9424L141.412 19.3955H141.617ZM144.776 17.0566C144.913 17.0566 145.029 17.1055 145.123 17.2031C145.221 17.2975 145.27 17.4131 145.27 17.5498C145.27 17.6865 145.221 17.8037 145.123 17.9014C145.029 17.999 144.913 18.0479 144.776 18.0479C144.64 18.0479 144.522 17.999 144.425 17.9014C144.327 17.8037 144.278 17.6865 144.278 17.5498C144.278 17.4131 144.326 17.2975 144.42 17.2031C144.518 17.1055 144.636 17.0566 144.776 17.0566ZM145.182 19.3955V22.9893C145.182 23.2692 145.201 23.4564 145.24 23.5508C145.283 23.6419 145.343 23.7103 145.421 23.7559C145.502 23.8014 145.649 23.8242 145.86 23.8242V24H143.688V23.8242C143.906 23.8242 144.052 23.8031 144.127 23.7607C144.202 23.7184 144.26 23.6484 144.303 23.5508C144.348 23.4531 144.371 23.266 144.371 22.9893V21.2656C144.371 20.7806 144.356 20.4665 144.327 20.3232C144.304 20.2191 144.269 20.1475 144.22 20.1084C144.171 20.0661 144.104 20.0449 144.02 20.0449C143.928 20.0449 143.818 20.0693 143.688 20.1182L143.619 19.9424L144.967 19.3955H145.182ZM147.618 22.3691C147.345 22.2357 147.135 22.0501 146.988 21.8125C146.842 21.5716 146.769 21.3063 146.769 21.0166C146.769 20.5739 146.935 20.193 147.267 19.874C147.602 19.555 148.03 19.3955 148.551 19.3955C148.977 19.3955 149.347 19.4997 149.659 19.708H150.606C150.746 19.708 150.828 19.7129 150.851 19.7227C150.873 19.7292 150.89 19.7422 150.899 19.7617C150.919 19.791 150.929 19.8431 150.929 19.918C150.929 20.0026 150.921 20.0612 150.904 20.0938C150.895 20.11 150.877 20.123 150.851 20.1328C150.828 20.1426 150.746 20.1475 150.606 20.1475H150.025C150.208 20.3818 150.299 20.6813 150.299 21.0459C150.299 21.4626 150.139 21.819 149.82 22.1152C149.501 22.4115 149.073 22.5596 148.536 22.5596C148.315 22.5596 148.089 22.527 147.857 22.4619C147.714 22.5856 147.617 22.6947 147.564 22.7891C147.516 22.8802 147.491 22.9583 147.491 23.0234C147.491 23.0788 147.517 23.1325 147.569 23.1846C147.625 23.2367 147.73 23.2741 147.887 23.2969C147.978 23.3099 148.206 23.3213 148.57 23.3311C149.241 23.3473 149.675 23.3701 149.874 23.3994C150.177 23.4417 150.418 23.554 150.597 23.7363C150.779 23.9186 150.87 24.1432 150.87 24.4102C150.87 24.778 150.698 25.123 150.353 25.4453C149.845 25.9206 149.182 26.1582 148.365 26.1582C147.737 26.1582 147.206 26.0166 146.773 25.7334C146.529 25.5706 146.407 25.4014 146.407 25.2256C146.407 25.1475 146.425 25.0693 146.461 24.9912C146.516 24.8708 146.63 24.7031 146.803 24.4883C146.826 24.459 146.992 24.2832 147.301 23.9609C147.132 23.86 147.011 23.7705 146.939 23.6924C146.871 23.611 146.837 23.5199 146.837 23.4189C146.837 23.305 146.882 23.1715 146.974 23.0186C147.068 22.8656 147.283 22.6491 147.618 22.3691ZM148.468 19.6299C148.227 19.6299 148.025 19.7259 147.862 19.918C147.7 20.11 147.618 20.4046 147.618 20.8018C147.618 21.3161 147.729 21.7148 147.95 21.998C148.119 22.2129 148.334 22.3203 148.595 22.3203C148.842 22.3203 149.046 22.2275 149.205 22.042C149.365 21.8564 149.444 21.5651 149.444 21.168C149.444 20.6504 149.332 20.2451 149.107 19.9521C148.941 19.7373 148.728 19.6299 148.468 19.6299ZM147.569 24C147.416 24.166 147.301 24.3206 147.223 24.4639C147.145 24.6071 147.105 24.7389 147.105 24.8594C147.105 25.0156 147.2 25.1523 147.389 25.2695C147.714 25.4714 148.185 25.5723 148.8 25.5723C149.386 25.5723 149.817 25.4681 150.094 25.2598C150.374 25.0547 150.514 24.835 150.514 24.6006C150.514 24.4313 150.431 24.3109 150.265 24.2393C150.095 24.1676 149.76 24.1253 149.259 24.1123C148.526 24.0928 147.963 24.0553 147.569 24ZM152.618 22.3691C152.345 22.2357 152.135 22.0501 151.988 21.8125C151.842 21.5716 151.769 21.3063 151.769 21.0166C151.769 20.5739 151.935 20.193 152.267 19.874C152.602 19.555 153.03 19.3955 153.551 19.3955C153.977 19.3955 154.347 19.4997 154.659 19.708H155.606C155.746 19.708 155.828 19.7129 155.851 19.7227C155.873 19.7292 155.89 19.7422 155.899 19.7617C155.919 19.791 155.929 19.8431 155.929 19.918C155.929 20.0026 155.921 20.0612 155.904 20.0938C155.895 20.11 155.877 20.123 155.851 20.1328C155.828 20.1426 155.746 20.1475 155.606 20.1475H155.025C155.208 20.3818 155.299 20.6813 155.299 21.0459C155.299 21.4626 155.139 21.819 154.82 22.1152C154.501 22.4115 154.073 22.5596 153.536 22.5596C153.315 22.5596 153.089 22.527 152.857 22.4619C152.714 22.5856 152.617 22.6947 152.564 22.7891C152.516 22.8802 152.491 22.9583 152.491 23.0234C152.491 23.0788 152.517 23.1325 152.569 23.1846C152.625 23.2367 152.73 23.2741 152.887 23.2969C152.978 23.3099 153.206 23.3213 153.57 23.3311C154.241 23.3473 154.675 23.3701 154.874 23.3994C155.177 23.4417 155.418 23.554 155.597 23.7363C155.779 23.9186 155.87 24.1432 155.87 24.4102C155.87 24.778 155.698 25.123 155.353 25.4453C154.845 25.9206 154.182 26.1582 153.365 26.1582C152.737 26.1582 152.206 26.0166 151.773 25.7334C151.529 25.5706 151.407 25.4014 151.407 25.2256C151.407 25.1475 151.425 25.0693 151.461 24.9912C151.516 24.8708 151.63 24.7031 151.803 24.4883C151.826 24.459 151.992 24.2832 152.301 23.9609C152.132 23.86 152.011 23.7705 151.939 23.6924C151.871 23.611 151.837 23.5199 151.837 23.4189C151.837 23.305 151.882 23.1715 151.974 23.0186C152.068 22.8656 152.283 22.6491 152.618 22.3691ZM153.468 19.6299C153.227 19.6299 153.025 19.7259 152.862 19.918C152.7 20.11 152.618 20.4046 152.618 20.8018C152.618 21.3161 152.729 21.7148 152.95 21.998C153.119 22.2129 153.334 22.3203 153.595 22.3203C153.842 22.3203 154.046 22.2275 154.205 22.042C154.365 21.8564 154.444 21.5651 154.444 21.168C154.444 20.6504 154.332 20.2451 154.107 19.9521C153.941 19.7373 153.728 19.6299 153.468 19.6299ZM152.569 24C152.416 24.166 152.301 24.3206 152.223 24.4639C152.145 24.6071 152.105 24.7389 152.105 24.8594C152.105 25.0156 152.2 25.1523 152.389 25.2695C152.714 25.4714 153.185 25.5723 153.8 25.5723C154.386 25.5723 154.817 25.4681 155.094 25.2598C155.374 25.0547 155.514 24.835 155.514 24.6006C155.514 24.4313 155.431 24.3109 155.265 24.2393C155.095 24.1676 154.76 24.1253 154.259 24.1123C153.526 24.0928 152.963 24.0553 152.569 24ZM157.174 21.2119C157.171 21.876 157.332 22.3968 157.657 22.7744C157.983 23.152 158.365 23.3408 158.805 23.3408C159.098 23.3408 159.352 23.2611 159.566 23.1016C159.785 22.9388 159.967 22.6621 160.113 22.2715L160.265 22.3691C160.196 22.8151 159.998 23.222 159.669 23.5898C159.34 23.9544 158.928 24.1367 158.434 24.1367C157.896 24.1367 157.436 23.9284 157.052 23.5117C156.671 23.0918 156.48 22.5286 156.48 21.8223C156.48 21.0573 156.676 20.4616 157.066 20.0352C157.46 19.6055 157.953 19.3906 158.546 19.3906C159.047 19.3906 159.459 19.5566 159.781 19.8887C160.104 20.2174 160.265 20.6585 160.265 21.2119H157.174ZM157.174 20.9287H159.244C159.228 20.6423 159.194 20.4404 159.142 20.3232C159.06 20.141 158.938 19.9977 158.775 19.8936C158.616 19.7894 158.448 19.7373 158.272 19.7373C158.002 19.7373 157.76 19.8431 157.545 20.0547C157.333 20.263 157.21 20.5544 157.174 20.9287ZM162.174 19.3955V20.4014C162.548 19.7308 162.932 19.3955 163.326 19.3955C163.505 19.3955 163.653 19.4508 163.771 19.5615C163.888 19.6689 163.946 19.7943 163.946 19.9375C163.946 20.0645 163.904 20.1719 163.819 20.2598C163.735 20.3477 163.634 20.3916 163.517 20.3916C163.403 20.3916 163.274 20.3363 163.131 20.2256C162.991 20.1117 162.887 20.0547 162.818 20.0547C162.76 20.0547 162.696 20.0872 162.628 20.1523C162.481 20.2858 162.33 20.5055 162.174 20.8115V22.9551C162.174 23.2025 162.205 23.3896 162.267 23.5166C162.309 23.6045 162.384 23.6777 162.491 23.7363C162.599 23.7949 162.753 23.8242 162.955 23.8242V24H160.665V23.8242C160.893 23.8242 161.062 23.7884 161.173 23.7168C161.254 23.6647 161.311 23.5817 161.344 23.4678C161.36 23.4124 161.368 23.2546 161.368 22.9941V21.2607C161.368 20.7399 161.357 20.4307 161.334 20.333C161.314 20.2321 161.275 20.1589 161.217 20.1133C161.161 20.0677 161.091 20.0449 161.007 20.0449C160.906 20.0449 160.792 20.0693 160.665 20.1182L160.616 19.9424L161.969 19.3955H162.174ZM164.947 21.2119C164.944 21.876 165.105 22.3968 165.431 22.7744C165.756 23.152 166.139 23.3408 166.578 23.3408C166.871 23.3408 167.125 23.2611 167.34 23.1016C167.558 22.9388 167.74 22.6621 167.887 22.2715L168.038 22.3691C167.97 22.8151 167.771 23.222 167.442 23.5898C167.114 23.9544 166.702 24.1367 166.207 24.1367C165.67 24.1367 165.209 23.9284 164.825 23.5117C164.444 23.0918 164.254 22.5286 164.254 21.8223C164.254 21.0573 164.449 20.4616 164.84 20.0352C165.234 19.6055 165.727 19.3906 166.319 19.3906C166.821 19.3906 167.232 19.5566 167.555 19.8887C167.877 20.2174 168.038 20.6585 168.038 21.2119H164.947ZM164.947 20.9287H167.018C167.001 20.6423 166.967 20.4404 166.915 20.3232C166.834 20.141 166.712 19.9977 166.549 19.8936C166.389 19.7894 166.222 19.7373 166.046 19.7373C165.776 19.7373 165.533 19.8431 165.318 20.0547C165.107 20.263 164.983 20.5544 164.947 20.9287ZM171.798 23.4971C171.58 23.7249 171.367 23.8893 171.158 23.9902C170.95 24.0879 170.725 24.1367 170.484 24.1367C169.996 24.1367 169.57 23.9333 169.205 23.5264C168.84 23.1162 168.658 22.5905 168.658 21.9492C168.658 21.3079 168.86 20.722 169.264 20.1914C169.667 19.6576 170.187 19.3906 170.821 19.3906C171.215 19.3906 171.541 19.516 171.798 19.7666V18.9414C171.798 18.4303 171.785 18.1162 171.759 17.999C171.736 17.8818 171.699 17.8021 171.646 17.7598C171.594 17.7174 171.529 17.6963 171.451 17.6963C171.367 17.6963 171.254 17.7223 171.114 17.7744L171.051 17.6035L172.384 17.0566H172.604V22.2275C172.604 22.7516 172.615 23.0723 172.638 23.1895C172.664 23.3034 172.703 23.3831 172.755 23.4287C172.81 23.4743 172.874 23.4971 172.945 23.4971C173.033 23.4971 173.15 23.4694 173.297 23.4141L173.351 23.585L172.022 24.1367H171.798V23.4971ZM171.798 23.1553V20.8506C171.778 20.6292 171.72 20.4274 171.622 20.2451C171.524 20.0628 171.394 19.9261 171.231 19.835C171.072 19.7406 170.916 19.6934 170.763 19.6934C170.476 19.6934 170.221 19.8219 169.996 20.0791C169.7 20.4176 169.552 20.9124 169.552 21.5635C169.552 22.221 169.695 22.7256 169.981 23.0771C170.268 23.4255 170.587 23.5996 170.938 23.5996C171.235 23.5996 171.521 23.4515 171.798 23.1553Z" fill="black"/>
<circle cx="65" cy="129" r="3" fill="white" stroke="black" stroke-width="2"/>
<circle cx="134" cy="131" r="3" fill="white" stroke="black" stroke-width="2"/>
<path d="M81.8261 101.252L83.7236 100L81.8261 98.748L71.3261 91.8198L69 90.2849V93.0718V106.928V109.715L71.3261 108.18L81.8261 101.252Z" fill="white" stroke="black" stroke-width="3"/>
<circle cx="73.5" cy="99.5" r="3.5" fill="white" stroke="black" stroke-width="2"/>
</svg>
