<svg width="200" height="200" viewBox="0 0 200 200" fill="none" xmlns="http://www.w3.org/2000/svg">
<rect width="200" height="200" fill="white"/>
<rect x="68.5" y="51.5" width="62" height="97" fill="white" stroke="black" stroke-width="3"/>
<line y1="66" x2="67" y2="66" stroke="black" stroke-width="2"/>
<line y1="129" x2="61" y2="129" stroke="black" stroke-width="2"/>
<line y1="99" x2="67" y2="99" stroke="black" stroke-width="2"/>
<line x1="130" y1="66" x2="200" y2="66" stroke="black" stroke-width="2"/>
<line x1="130" y1="131" x2="200" y2="131" stroke="black" stroke-width="2"/>
<path d="M78.9434 64.0547L79.0312 65.918H78.8086C78.7656 65.5898 78.707 65.3555 78.6328 65.2148C78.5117 64.9883 78.3496 64.8223 78.1465 64.7168C77.9473 64.6074 77.6836 64.5527 77.3555 64.5527H76.2363V70.623C76.2363 71.1113 76.2891 71.416 76.3945 71.5371C76.543 71.7012 76.7715 71.7832 77.0801 71.7832H77.3555V72H73.9863V71.7832H74.2676C74.6035 71.7832 74.8418 71.6816 74.9824 71.4785C75.0684 71.3535 75.1113 71.0684 75.1113 70.623V64.5527H74.1562C73.7852 64.5527 73.5215 64.5801 73.3652 64.6348C73.1621 64.709 72.9883 64.8516 72.8438 65.0625C72.6992 65.2734 72.6133 65.5586 72.5859 65.918H72.3633L72.457 64.0547H78.9434Z" fill="black"/>
<path d="M94.2246 95.873L94.4062 98.5742H94.2246C93.9824 97.7656 93.6367 97.1836 93.1875 96.8281C92.7383 96.4727 92.1992 96.2949 91.5703 96.2949C91.043 96.2949 90.5664 96.4297 90.1406 96.6992C89.7148 96.9648 89.3789 97.3906 89.1328 97.9766C88.8906 98.5625 88.7695 99.291 88.7695 100.162C88.7695 100.881 88.8848 101.504 89.1152 102.031C89.3457 102.559 89.6914 102.963 90.1523 103.244C90.6172 103.525 91.1465 103.666 91.7402 103.666C92.2559 103.666 92.7109 103.557 93.1055 103.338C93.5 103.115 93.9336 102.676 94.4062 102.02L94.5879 102.137C94.1895 102.844 93.7246 103.361 93.1934 103.689C92.6621 104.018 92.0312 104.182 91.3008 104.182C89.9844 104.182 88.9648 103.693 88.2422 102.717C87.7031 101.99 87.4336 101.135 87.4336 100.15C87.4336 99.3574 87.6113 98.6289 87.9668 97.9648C88.3223 97.3008 88.8105 96.7871 89.4316 96.4238C90.0566 96.0566 90.7383 95.873 91.4766 95.873C92.0508 95.873 92.6172 96.0137 93.1758 96.2949C93.3398 96.3809 93.457 96.4238 93.5273 96.4238C93.6328 96.4238 93.7246 96.3867 93.8027 96.3125C93.9043 96.207 93.9766 96.0605 94.0195 95.873H94.2246ZM101.883 101.803L102.076 101.844L101.396 104H95.2441V103.783H95.543C95.8789 103.783 96.1191 103.674 96.2637 103.455C96.3457 103.33 96.3867 103.041 96.3867 102.588V97.4609C96.3867 96.9648 96.332 96.6543 96.2227 96.5293C96.0703 96.3574 95.8438 96.2715 95.543 96.2715H95.2441V96.0547H98.8418V96.2715C98.4199 96.2676 98.123 96.3066 97.9512 96.3887C97.7832 96.4707 97.668 96.5742 97.6055 96.6992C97.543 96.8242 97.5117 97.123 97.5117 97.5957V102.588C97.5117 102.912 97.543 103.135 97.6055 103.256C97.6523 103.338 97.7246 103.398 97.8223 103.438C97.9199 103.477 98.2246 103.496 98.7363 103.496H99.3164C99.9258 103.496 100.354 103.451 100.6 103.361C100.846 103.271 101.07 103.113 101.273 102.887C101.477 102.656 101.68 102.295 101.883 101.803ZM105.926 99.5938L108.855 102.506C109.336 102.986 109.746 103.314 110.086 103.49C110.426 103.662 110.766 103.76 111.105 103.783V104H107.326V103.783C107.553 103.783 107.715 103.746 107.812 103.672C107.914 103.594 107.965 103.508 107.965 103.414C107.965 103.32 107.945 103.236 107.906 103.162C107.871 103.088 107.75 102.949 107.543 102.746L104.801 100.033V102.594C104.801 102.996 104.826 103.262 104.877 103.391C104.916 103.488 104.998 103.572 105.123 103.643C105.291 103.736 105.469 103.783 105.656 103.783H105.926V104H102.539V103.783H102.82C103.148 103.783 103.387 103.688 103.535 103.496C103.629 103.371 103.676 103.07 103.676 102.594V97.4609C103.676 97.0586 103.65 96.791 103.6 96.6582C103.561 96.5645 103.48 96.4824 103.359 96.4121C103.188 96.3184 103.008 96.2715 102.82 96.2715H102.539V96.0547H105.926V96.2715H105.656C105.473 96.2715 105.295 96.3164 105.123 96.4062C105.002 96.4688 104.918 96.5625 104.871 96.6875C104.824 96.8125 104.801 97.0703 104.801 97.4609V99.8926C104.879 99.8184 105.146 99.5703 105.604 99.1484C106.764 98.0859 107.465 97.377 107.707 97.0215C107.812 96.8652 107.865 96.7285 107.865 96.6113C107.865 96.5215 107.824 96.4434 107.742 96.377C107.66 96.3066 107.521 96.2715 107.326 96.2715H107.145V96.0547H110.062V96.2715C109.891 96.2754 109.734 96.2988 109.594 96.3418C109.453 96.3848 109.281 96.4688 109.078 96.5938C108.875 96.7148 108.625 96.9121 108.328 97.1855C108.242 97.2637 107.846 97.6641 107.139 98.3867L105.926 99.5938Z" fill="black"/>
<path d="M80.1094 132H77.9883L75.2988 128.285C75.0996 128.293 74.9375 128.297 74.8125 128.297C74.7617 128.297 74.707 128.297 74.6484 128.297C74.5898 128.293 74.5293 128.289 74.4668 128.285V130.594C74.4668 131.094 74.5215 131.404 74.6309 131.525C74.7793 131.697 75.002 131.783 75.2988 131.783H75.6094V132H72.2051V131.783H72.5039C72.8398 131.783 73.0801 131.674 73.2246 131.455C73.3066 131.334 73.3477 131.047 73.3477 130.594V125.461C73.3477 124.961 73.293 124.65 73.1836 124.529C73.0312 124.357 72.8047 124.271 72.5039 124.271H72.2051V124.055H75.0996C75.9434 124.055 76.5645 124.117 76.9629 124.242C77.3652 124.363 77.7051 124.59 77.9824 124.922C78.2637 125.25 78.4043 125.643 78.4043 126.1C78.4043 126.588 78.2441 127.012 77.9238 127.371C77.6074 127.73 77.1152 127.984 76.4473 128.133L78.0879 130.412C78.4629 130.936 78.7852 131.283 79.0547 131.455C79.3242 131.627 79.6758 131.736 80.1094 131.783V132ZM74.4668 127.916C74.541 127.916 74.6055 127.918 74.6602 127.922C74.7148 127.922 74.7598 127.922 74.7949 127.922C75.5527 127.922 76.123 127.758 76.5059 127.43C76.8926 127.102 77.0859 126.684 77.0859 126.176C77.0859 125.68 76.9297 125.277 76.6172 124.969C76.3086 124.656 75.8984 124.5 75.3867 124.5C75.1602 124.5 74.8535 124.537 74.4668 124.611V127.916ZM85.5059 123.873V126.621H85.2891C85.2188 126.094 85.0918 125.674 84.9082 125.361C84.7285 125.049 84.4707 124.801 84.1348 124.617C83.7988 124.434 83.4512 124.342 83.0918 124.342C82.6855 124.342 82.3496 124.467 82.084 124.717C81.8184 124.963 81.6855 125.244 81.6855 125.561C81.6855 125.803 81.7695 126.023 81.9375 126.223C82.1797 126.516 82.7559 126.906 83.666 127.395C84.4082 127.793 84.9141 128.1 85.1836 128.314C85.457 128.525 85.666 128.775 85.8105 129.064C85.959 129.354 86.0332 129.656 86.0332 129.973C86.0332 130.574 85.7988 131.094 85.3301 131.531C84.8652 131.965 84.2656 132.182 83.5312 132.182C83.3008 132.182 83.084 132.164 82.8809 132.129C82.7598 132.109 82.5078 132.039 82.125 131.918C81.7461 131.793 81.5059 131.73 81.4043 131.73C81.3066 131.73 81.2285 131.76 81.1699 131.818C81.1152 131.877 81.0742 131.998 81.0469 132.182H80.8301V129.457H81.0469C81.1484 130.027 81.2852 130.455 81.457 130.74C81.6289 131.021 81.8906 131.256 82.2422 131.443C82.5977 131.631 82.9863 131.725 83.4082 131.725C83.8965 131.725 84.2812 131.596 84.5625 131.338C84.8477 131.08 84.9902 130.775 84.9902 130.424C84.9902 130.229 84.9355 130.031 84.8262 129.832C84.7207 129.633 84.5547 129.447 84.3281 129.275C84.1758 129.158 83.7598 128.91 83.0801 128.531C82.4004 128.148 81.916 127.844 81.627 127.617C81.3418 127.391 81.125 127.141 80.9766 126.867C80.8281 126.594 80.7539 126.293 80.7539 125.965C80.7539 125.395 80.9727 124.904 81.4102 124.494C81.8477 124.08 82.4043 123.873 83.0801 123.873C83.502 123.873 83.9492 123.977 84.4219 124.184C84.6406 124.281 84.7949 124.33 84.8848 124.33C84.9863 124.33 85.0684 124.301 85.1309 124.242C85.1973 124.18 85.25 124.057 85.2891 123.873H85.5059ZM93.627 124.055L93.7148 125.918H93.4922C93.4492 125.59 93.3906 125.355 93.3164 125.215C93.1953 124.988 93.0332 124.822 92.8301 124.717C92.6309 124.607 92.3672 124.553 92.0391 124.553H90.9199V130.623C90.9199 131.111 90.9727 131.416 91.0781 131.537C91.2266 131.701 91.4551 131.783 91.7637 131.783H92.0391V132H88.6699V131.783H88.9512C89.2871 131.783 89.5254 131.682 89.666 131.479C89.752 131.354 89.7949 131.068 89.7949 130.623V124.553H88.8398C88.4688 124.553 88.2051 124.58 88.0488 124.635C87.8457 124.709 87.6719 124.852 87.5273 125.062C87.3828 125.273 87.2969 125.559 87.2695 125.918H87.0469L87.1406 124.055H93.627Z" fill="black"/>
<path d="M122.285 72.0879C122.684 72.7754 123.113 73.2812 123.574 73.6055C124.039 73.9297 124.566 74.1152 125.156 74.1621V74.3496C124.617 74.3301 124.041 74.2207 123.428 74.0215C122.814 73.8262 122.232 73.5527 121.682 73.2012C121.135 72.8535 120.662 72.4824 120.264 72.0879C119.701 71.8613 119.256 71.6211 118.928 71.3672C118.451 70.9883 118.08 70.5234 117.814 69.9727C117.553 69.418 117.422 68.7637 117.422 68.0098C117.422 66.8223 117.807 65.8359 118.576 65.0508C119.346 64.2656 120.277 63.873 121.371 63.873C122.41 63.873 123.309 64.2676 124.066 65.0566C124.828 65.8418 125.209 66.834 125.209 68.0332C125.209 69.0059 124.938 69.8594 124.395 70.5938C123.855 71.3281 123.152 71.8262 122.285 72.0879ZM121.301 64.3242C120.59 64.3242 120.018 64.5781 119.584 65.0859C119.037 65.7227 118.764 66.6973 118.764 68.0098C118.764 69.2949 119.041 70.2852 119.596 70.9805C120.025 71.5156 120.594 71.7832 121.301 71.7832C122.035 71.7832 122.627 71.5156 123.076 70.9805C123.604 70.3477 123.867 69.4141 123.867 68.1797C123.867 67.2305 123.723 66.4316 123.434 65.7832C123.211 65.2832 122.914 64.916 122.543 64.6816C122.176 64.4434 121.762 64.3242 121.301 64.3242Z" fill="black"/>
<path d="M119.285 132.088C119.684 132.775 120.113 133.281 120.574 133.605C121.039 133.93 121.566 134.115 122.156 134.162V134.35C121.617 134.33 121.041 134.221 120.428 134.021C119.814 133.826 119.232 133.553 118.682 133.201C118.135 132.854 117.662 132.482 117.264 132.088C116.701 131.861 116.256 131.621 115.928 131.367C115.451 130.988 115.08 130.523 114.814 129.973C114.553 129.418 114.422 128.764 114.422 128.01C114.422 126.822 114.807 125.836 115.576 125.051C116.346 124.266 117.277 123.873 118.371 123.873C119.41 123.873 120.309 124.268 121.066 125.057C121.828 125.842 122.209 126.834 122.209 128.033C122.209 129.006 121.938 129.859 121.395 130.594C120.855 131.328 120.152 131.826 119.285 132.088ZM118.301 124.324C117.59 124.324 117.018 124.578 116.584 125.086C116.037 125.723 115.764 126.697 115.764 128.01C115.764 129.295 116.041 130.285 116.596 130.98C117.025 131.516 117.594 131.783 118.301 131.783C119.035 131.783 119.627 131.516 120.076 130.98C120.604 130.348 120.867 129.414 120.867 128.18C120.867 127.23 120.723 126.432 120.434 125.783C120.211 125.283 119.914 124.916 119.543 124.682C119.176 124.443 118.762 124.324 118.301 124.324ZM124.066 126.908V126.633C124.469 126.395 124.742 126.172 124.887 125.965C124.988 125.816 125.039 125.639 125.039 125.432C125.039 125.311 125.018 125.221 124.975 125.162C124.928 125.104 124.877 125.074 124.822 125.074C124.779 125.074 124.723 125.088 124.652 125.115C124.551 125.15 124.467 125.168 124.4 125.168C124.244 125.168 124.105 125.109 123.984 124.992C123.863 124.875 123.803 124.729 123.803 124.553C123.803 124.357 123.863 124.205 123.984 124.096C124.148 123.947 124.344 123.873 124.57 123.873C124.832 123.873 125.066 123.984 125.273 124.207C125.484 124.426 125.59 124.699 125.59 125.027C125.59 125.488 125.416 125.908 125.068 126.287C124.838 126.537 124.504 126.744 124.066 126.908Z" fill="black"/>
<path d="M31.7861 17.3789L31.8594 18.9316H31.6738C31.638 18.6582 31.5892 18.4629 31.5273 18.3457C31.4264 18.1569 31.2913 18.0186 31.1221 17.9307C30.9561 17.8395 30.7363 17.7939 30.4629 17.7939H29.5303V22.8525C29.5303 23.2594 29.5742 23.5133 29.6621 23.6143C29.7858 23.751 29.9762 23.8193 30.2334 23.8193H30.4629V24H27.6553V23.8193H27.8896C28.1696 23.8193 28.3682 23.7347 28.4854 23.5654C28.557 23.4613 28.5928 23.2236 28.5928 22.8525V17.7939H27.7969C27.4876 17.7939 27.2679 17.8167 27.1377 17.8623C26.9684 17.9242 26.8236 18.043 26.7031 18.2188C26.5827 18.3945 26.5111 18.6322 26.4883 18.9316H26.3027L26.3809 17.3789H31.7861ZM36.4736 17.7402V20.3428H37.6797C37.9564 20.3428 38.1582 20.2826 38.2852 20.1621C38.4154 20.0384 38.5016 19.7959 38.5439 19.4346H38.7246V21.6758H38.5439C38.5407 21.4186 38.5065 21.2298 38.4414 21.1094C38.3796 20.9889 38.2917 20.8994 38.1777 20.8408C38.0671 20.779 37.901 20.748 37.6797 20.748H36.4736V22.8281C36.4736 23.1634 36.4948 23.3848 36.5371 23.4922C36.5697 23.5736 36.638 23.6436 36.7422 23.7021C36.8854 23.7803 37.0352 23.8193 37.1914 23.8193H37.4307V24H34.5889V23.8193H34.8232C35.0967 23.8193 35.2952 23.7396 35.4189 23.5801C35.4971 23.4759 35.5361 23.2253 35.5361 22.8281V18.5508C35.5361 18.2155 35.515 17.9941 35.4727 17.8867C35.4401 17.8053 35.3734 17.7354 35.2725 17.6768C35.1325 17.5986 34.9827 17.5596 34.8232 17.5596H34.5889V17.3789H39.5156L39.5791 18.834H39.4082C39.3236 18.5247 39.2243 18.2985 39.1104 18.1553C38.9997 18.0088 38.8613 17.903 38.6953 17.8379C38.5326 17.7728 38.2786 17.7402 37.9336 17.7402H36.4736ZM41.8447 17.0566V22.9893C41.8447 23.2692 41.8643 23.4548 41.9033 23.5459C41.9456 23.637 42.0091 23.707 42.0938 23.7559C42.1784 23.8014 42.3363 23.8242 42.5674 23.8242V24H40.375V23.8242C40.5801 23.8242 40.7201 23.8031 40.7949 23.7607C40.8698 23.7184 40.9284 23.6484 40.9707 23.5508C41.013 23.4531 41.0342 23.266 41.0342 22.9893V18.9268C41.0342 18.4222 41.0228 18.113 41 17.999C40.9772 17.8818 40.9398 17.8021 40.8877 17.7598C40.8389 17.7174 40.7754 17.6963 40.6973 17.6963C40.6126 17.6963 40.5052 17.7223 40.375 17.7744L40.292 17.6035L41.625 17.0566H41.8447ZM44.2275 17.0566C44.3643 17.0566 44.4798 17.1055 44.5742 17.2031C44.6719 17.2975 44.7207 17.4131 44.7207 17.5498C44.7207 17.6865 44.6719 17.8037 44.5742 17.9014C44.4798 17.999 44.3643 18.0479 44.2275 18.0479C44.0908 18.0479 43.9736 17.999 43.876 17.9014C43.7783 17.8037 43.7295 17.6865 43.7295 17.5498C43.7295 17.4131 43.7767 17.2975 43.8711 17.2031C43.9688 17.1055 44.0876 17.0566 44.2275 17.0566ZM44.6328 19.3955V22.9893C44.6328 23.2692 44.6523 23.4564 44.6914 23.5508C44.7337 23.6419 44.7939 23.7103 44.8721 23.7559C44.9535 23.8014 45.0999 23.8242 45.3115 23.8242V24H43.1387V23.8242C43.3568 23.8242 43.5033 23.8031 43.5781 23.7607C43.653 23.7184 43.7116 23.6484 43.7539 23.5508C43.7995 23.4531 43.8223 23.266 43.8223 22.9893V21.2656C43.8223 20.7806 43.8076 20.4665 43.7783 20.3232C43.7555 20.2191 43.7197 20.1475 43.6709 20.1084C43.6221 20.0661 43.5553 20.0449 43.4707 20.0449C43.3796 20.0449 43.2689 20.0693 43.1387 20.1182L43.0703 19.9424L44.418 19.3955H44.6328ZM45.5508 19.9717L46.9277 19.415H47.1133V20.46C47.3444 20.0661 47.5755 19.791 47.8066 19.6348C48.041 19.4753 48.2868 19.3955 48.5439 19.3955C48.9932 19.3955 49.3675 19.5713 49.667 19.9229C50.0348 20.3525 50.2188 20.9124 50.2188 21.6025C50.2188 22.374 49.9974 23.012 49.5547 23.5166C49.1901 23.93 48.7311 24.1367 48.1777 24.1367C47.9368 24.1367 47.7285 24.1025 47.5527 24.0342C47.4225 23.9854 47.276 23.8877 47.1133 23.7412V25.1035C47.1133 25.4095 47.1312 25.6032 47.167 25.6846C47.2061 25.7692 47.2712 25.8359 47.3623 25.8848C47.4567 25.9336 47.626 25.958 47.8701 25.958V26.1387H45.5264V25.958H45.6484C45.8275 25.9613 45.9805 25.9271 46.1074 25.8555C46.1693 25.8197 46.2165 25.7611 46.249 25.6797C46.2848 25.6016 46.3027 25.3997 46.3027 25.0742V20.8457C46.3027 20.556 46.2897 20.3721 46.2637 20.2939C46.2376 20.2158 46.1953 20.1572 46.1367 20.1182C46.0814 20.0791 46.0049 20.0596 45.9072 20.0596C45.8291 20.0596 45.7298 20.0824 45.6094 20.1279L45.5508 19.9717ZM47.1133 20.748V22.418C47.1133 22.7793 47.1279 23.0169 47.1572 23.1309C47.2028 23.3197 47.3135 23.4857 47.4893 23.6289C47.6683 23.7721 47.8929 23.8438 48.1631 23.8438C48.4886 23.8438 48.7523 23.7168 48.9541 23.4629C49.2178 23.1309 49.3496 22.6637 49.3496 22.0615C49.3496 21.3779 49.1999 20.8522 48.9004 20.4844C48.6921 20.2305 48.4447 20.1035 48.1582 20.1035C48.002 20.1035 47.8473 20.1426 47.6943 20.2207C47.5771 20.2793 47.3835 20.4551 47.1133 20.748ZM50.9658 21.3877H53.4902V22.125H50.9658V21.3877ZM55.9365 17.7402V20.3428H57.1426C57.4193 20.3428 57.6211 20.2826 57.748 20.1621C57.8783 20.0384 57.9645 19.7959 58.0068 19.4346H58.1875V21.6758H58.0068C58.0036 21.4186 57.9694 21.2298 57.9043 21.1094C57.8424 20.9889 57.7546 20.8994 57.6406 20.8408C57.5299 20.779 57.3639 20.748 57.1426 20.748H55.9365V22.8281C55.9365 23.1634 55.9577 23.3848 56 23.4922C56.0326 23.5736 56.1009 23.6436 56.2051 23.7021C56.3483 23.7803 56.498 23.8193 56.6543 23.8193H56.8936V24H54.0518V23.8193H54.2861C54.5596 23.8193 54.7581 23.7396 54.8818 23.5801C54.96 23.4759 54.999 23.2253 54.999 22.8281V18.5508C54.999 18.2155 54.9779 17.9941 54.9355 17.8867C54.903 17.8053 54.8363 17.7354 54.7354 17.6768C54.5954 17.5986 54.4456 17.5596 54.2861 17.5596H54.0518V17.3789H58.9785L59.042 18.834H58.8711C58.7865 18.5247 58.6872 18.2985 58.5732 18.1553C58.4626 18.0088 58.3242 17.903 58.1582 17.8379C57.9954 17.7728 57.7415 17.7402 57.3965 17.7402H55.9365ZM61.3076 17.0566V22.9893C61.3076 23.2692 61.3271 23.4548 61.3662 23.5459C61.4085 23.637 61.472 23.707 61.5566 23.7559C61.6413 23.8014 61.7992 23.8242 62.0303 23.8242V24H59.8379V23.8242C60.043 23.8242 60.1829 23.8031 60.2578 23.7607C60.3327 23.7184 60.3913 23.6484 60.4336 23.5508C60.4759 23.4531 60.4971 23.266 60.4971 22.9893V18.9268C60.4971 18.4222 60.4857 18.113 60.4629 17.999C60.4401 17.8818 60.4027 17.8021 60.3506 17.7598C60.3018 17.7174 60.2383 17.6963 60.1602 17.6963C60.0755 17.6963 59.9681 17.7223 59.8379 17.7744L59.7549 17.6035L61.0879 17.0566H61.3076ZM64.7402 19.3955C65.4173 19.3955 65.9609 19.6527 66.3711 20.167C66.7194 20.6064 66.8936 21.111 66.8936 21.6807C66.8936 22.0811 66.7975 22.4863 66.6055 22.8965C66.4134 23.3066 66.1481 23.6159 65.8096 23.8242C65.4743 24.0326 65.0999 24.1367 64.6865 24.1367C64.0127 24.1367 63.4772 23.8682 63.0801 23.3311C62.7448 22.8786 62.5771 22.3708 62.5771 21.8076C62.5771 21.3975 62.6781 20.9906 62.8799 20.5869C63.085 20.18 63.3535 19.8805 63.6855 19.6885C64.0176 19.4932 64.3691 19.3955 64.7402 19.3955ZM64.5889 19.7129C64.4163 19.7129 64.2422 19.765 64.0664 19.8691C63.8939 19.9701 63.7539 20.1491 63.6465 20.4062C63.5391 20.6634 63.4854 20.9938 63.4854 21.3975C63.4854 22.0485 63.6139 22.61 63.8711 23.082C64.1315 23.554 64.4733 23.79 64.8965 23.79C65.2122 23.79 65.4727 23.6598 65.6777 23.3994C65.8828 23.139 65.9854 22.6914 65.9854 22.0566C65.9854 21.2624 65.8145 20.6374 65.4727 20.1816C65.2415 19.8691 64.9469 19.7129 64.5889 19.7129ZM67.2305 19.9717L68.6074 19.415H68.793V20.46C69.0241 20.0661 69.2552 19.791 69.4863 19.6348C69.7207 19.4753 69.9665 19.3955 70.2236 19.3955C70.6729 19.3955 71.0472 19.5713 71.3467 19.9229C71.7145 20.3525 71.8984 20.9124 71.8984 21.6025C71.8984 22.374 71.6771 23.012 71.2344 23.5166C70.8698 23.93 70.4108 24.1367 69.8574 24.1367C69.6165 24.1367 69.4082 24.1025 69.2324 24.0342C69.1022 23.9854 68.9557 23.8877 68.793 23.7412V25.1035C68.793 25.4095 68.8109 25.6032 68.8467 25.6846C68.8857 25.7692 68.9508 25.8359 69.042 25.8848C69.1364 25.9336 69.3057 25.958 69.5498 25.958V26.1387H67.2061V25.958H67.3281C67.5072 25.9613 67.6602 25.9271 67.7871 25.8555C67.849 25.8197 67.8962 25.7611 67.9287 25.6797C67.9645 25.6016 67.9824 25.3997 67.9824 25.0742V20.8457C67.9824 20.556 67.9694 20.3721 67.9434 20.2939C67.9173 20.2158 67.875 20.1572 67.8164 20.1182C67.7611 20.0791 67.6846 20.0596 67.5869 20.0596C67.5088 20.0596 67.4095 20.0824 67.2891 20.1279L67.2305 19.9717ZM68.793 20.748V22.418C68.793 22.7793 68.8076 23.0169 68.8369 23.1309C68.8825 23.3197 68.9932 23.4857 69.1689 23.6289C69.348 23.7721 69.5726 23.8438 69.8428 23.8438C70.1683 23.8438 70.432 23.7168 70.6338 23.4629C70.8975 23.1309 71.0293 22.6637 71.0293 22.0615C71.0293 21.3779 70.8796 20.8522 70.5801 20.4844C70.3717 20.2305 70.1243 20.1035 69.8379 20.1035C69.6816 20.1035 69.527 20.1426 69.374 20.2207C69.2568 20.2793 69.0632 20.4551 68.793 20.748ZM76.791 20.8994V22.8281C76.791 23.2448 76.8366 23.5036 76.9277 23.6045C77.0514 23.7477 77.2386 23.8193 77.4893 23.8193H77.7432V24H74.9062V23.8193H75.1553C75.4352 23.8193 75.6354 23.7282 75.7559 23.5459C75.821 23.445 75.8535 23.2057 75.8535 22.8281V18.5508C75.8535 18.1341 75.8096 17.8753 75.7217 17.7744C75.5947 17.6312 75.4059 17.5596 75.1553 17.5596H74.9062V17.3789H77.333C77.9255 17.3789 78.3926 17.4408 78.7344 17.5645C79.0762 17.6849 79.3643 17.89 79.5986 18.1797C79.833 18.4694 79.9502 18.8128 79.9502 19.21C79.9502 19.7503 79.7712 20.1898 79.4131 20.5283C79.0583 20.8669 78.5553 21.0361 77.9043 21.0361C77.7448 21.0361 77.5723 21.0247 77.3867 21.002C77.2012 20.9792 77.0026 20.945 76.791 20.8994ZM76.791 20.6211C76.9635 20.6536 77.1165 20.6781 77.25 20.6943C77.3835 20.7106 77.4974 20.7188 77.5918 20.7188C77.9303 20.7188 78.2217 20.5885 78.4658 20.3281C78.7132 20.0645 78.8369 19.7243 78.8369 19.3076C78.8369 19.0212 78.7783 18.7559 78.6611 18.5117C78.5439 18.2643 78.3779 18.0804 78.1631 17.96C77.9482 17.8363 77.7041 17.7744 77.4307 17.7744C77.2646 17.7744 77.0514 17.8053 76.791 17.8672V20.6211ZM82.8066 19.3955C83.4837 19.3955 84.0273 19.6527 84.4375 20.167C84.7858 20.6064 84.96 21.111 84.96 21.6807C84.96 22.0811 84.8639 22.4863 84.6719 22.8965C84.4798 23.3066 84.2145 23.6159 83.876 23.8242C83.5407 24.0326 83.1663 24.1367 82.7529 24.1367C82.0791 24.1367 81.5436 23.8682 81.1465 23.3311C80.8112 22.8786 80.6436 22.3708 80.6436 21.8076C80.6436 21.3975 80.7445 20.9906 80.9463 20.5869C81.1514 20.18 81.4199 19.8805 81.752 19.6885C82.084 19.4932 82.4355 19.3955 82.8066 19.3955ZM82.6553 19.7129C82.4827 19.7129 82.3086 19.765 82.1328 19.8691C81.9603 19.9701 81.8203 20.1491 81.7129 20.4062C81.6055 20.6634 81.5518 20.9938 81.5518 21.3975C81.5518 22.0485 81.6803 22.61 81.9375 23.082C82.1979 23.554 82.5397 23.79 82.9629 23.79C83.2786 23.79 83.5391 23.6598 83.7441 23.3994C83.9492 23.139 84.0518 22.6914 84.0518 22.0566C84.0518 21.2624 83.8809 20.6374 83.5391 20.1816C83.3079 19.8691 83.0133 19.7129 82.6553 19.7129ZM88.5098 19.3955V20.9189H88.3486C88.2249 20.4404 88.0654 20.1149 87.8701 19.9424C87.6781 19.7699 87.4323 19.6836 87.1328 19.6836C86.9049 19.6836 86.721 19.7438 86.5811 19.8643C86.4411 19.9847 86.3711 20.1182 86.3711 20.2646C86.3711 20.4469 86.4232 20.6032 86.5273 20.7334C86.6283 20.8669 86.8333 21.0085 87.1426 21.1582L87.8555 21.5049C88.5163 21.8271 88.8467 22.252 88.8467 22.7793C88.8467 23.1862 88.6921 23.515 88.3828 23.7656C88.0768 24.013 87.7334 24.1367 87.3525 24.1367C87.0791 24.1367 86.7666 24.0879 86.415 23.9902C86.3076 23.9577 86.2197 23.9414 86.1514 23.9414C86.0765 23.9414 86.0179 23.9837 85.9756 24.0684H85.8145V22.4717H85.9756C86.0667 22.9274 86.2409 23.2708 86.498 23.502C86.7552 23.7331 87.0433 23.8486 87.3623 23.8486C87.5869 23.8486 87.7692 23.7835 87.9092 23.6533C88.0524 23.5199 88.124 23.3604 88.124 23.1748C88.124 22.9502 88.0443 22.7614 87.8848 22.6084C87.7285 22.4554 87.4144 22.2617 86.9424 22.0273C86.4704 21.793 86.1611 21.5814 86.0146 21.3926C85.8682 21.207 85.7949 20.9727 85.7949 20.6895C85.7949 20.3216 85.9202 20.014 86.1709 19.7666C86.4248 19.5192 86.752 19.3955 87.1523 19.3955C87.3281 19.3955 87.5413 19.4329 87.792 19.5078C87.958 19.5566 88.0687 19.5811 88.124 19.5811C88.1761 19.5811 88.2168 19.5697 88.2461 19.5469C88.2754 19.5241 88.3096 19.4736 88.3486 19.3955H88.5098ZM90.6533 17.0566C90.79 17.0566 90.9056 17.1055 91 17.2031C91.0977 17.2975 91.1465 17.4131 91.1465 17.5498C91.1465 17.6865 91.0977 17.8037 91 17.9014C90.9056 17.999 90.79 18.0479 90.6533 18.0479C90.5166 18.0479 90.3994 17.999 90.3018 17.9014C90.2041 17.8037 90.1553 17.6865 90.1553 17.5498C90.1553 17.4131 90.2025 17.2975 90.2969 17.2031C90.3945 17.1055 90.5133 17.0566 90.6533 17.0566ZM91.0586 19.3955V22.9893C91.0586 23.2692 91.0781 23.4564 91.1172 23.5508C91.1595 23.6419 91.2197 23.7103 91.2979 23.7559C91.3792 23.8014 91.5257 23.8242 91.7373 23.8242V24H89.5645V23.8242C89.7826 23.8242 89.929 23.8031 90.0039 23.7607C90.0788 23.7184 90.1374 23.6484 90.1797 23.5508C90.2253 23.4531 90.248 23.266 90.248 22.9893V21.2656C90.248 20.7806 90.2334 20.4665 90.2041 20.3232C90.1813 20.2191 90.1455 20.1475 90.0967 20.1084C90.0479 20.0661 89.9811 20.0449 89.8965 20.0449C89.8053 20.0449 89.6947 20.0693 89.5645 20.1182L89.4961 19.9424L90.8438 19.3955H91.0586ZM93.5977 18.0576V19.5273H94.6426V19.8691H93.5977V22.7695C93.5977 23.0592 93.6383 23.2546 93.7197 23.3555C93.8044 23.4564 93.9118 23.5068 94.042 23.5068C94.1494 23.5068 94.2536 23.4743 94.3545 23.4092C94.4554 23.3408 94.5335 23.2415 94.5889 23.1113H94.7793C94.6654 23.4303 94.5042 23.6712 94.2959 23.834C94.0876 23.9935 93.8727 24.0732 93.6514 24.0732C93.5016 24.0732 93.3551 24.0326 93.2119 23.9512C93.0687 23.8665 92.9629 23.7477 92.8945 23.5947C92.8262 23.4385 92.792 23.1992 92.792 22.877V19.8691H92.084V19.708C92.263 19.6364 92.4453 19.516 92.6309 19.3467C92.8197 19.1742 92.9873 18.9707 93.1338 18.7363C93.2087 18.6126 93.3128 18.3864 93.4463 18.0576H93.5977ZM96.2197 17.0566C96.3564 17.0566 96.472 17.1055 96.5664 17.2031C96.6641 17.2975 96.7129 17.4131 96.7129 17.5498C96.7129 17.6865 96.6641 17.8037 96.5664 17.9014C96.472 17.999 96.3564 18.0479 96.2197 18.0479C96.083 18.0479 95.9658 17.999 95.8682 17.9014C95.7705 17.8037 95.7217 17.6865 95.7217 17.5498C95.7217 17.4131 95.7689 17.2975 95.8633 17.2031C95.9609 17.1055 96.0798 17.0566 96.2197 17.0566ZM96.625 19.3955V22.9893C96.625 23.2692 96.6445 23.4564 96.6836 23.5508C96.7259 23.6419 96.7861 23.7103 96.8643 23.7559C96.9456 23.8014 97.0921 23.8242 97.3037 23.8242V24H95.1309V23.8242C95.349 23.8242 95.4954 23.8031 95.5703 23.7607C95.6452 23.7184 95.7038 23.6484 95.7461 23.5508C95.7917 23.4531 95.8145 23.266 95.8145 22.9893V21.2656C95.8145 20.7806 95.7998 20.4665 95.7705 20.3232C95.7477 20.2191 95.7119 20.1475 95.6631 20.1084C95.6143 20.0661 95.5475 20.0449 95.4629 20.0449C95.3717 20.0449 95.2611 20.0693 95.1309 20.1182L95.0625 19.9424L96.4102 19.3955H96.625ZM97.6357 19.5273H99.7402V19.708H99.6035C99.4766 19.708 99.3789 19.7389 99.3105 19.8008C99.2454 19.8626 99.2129 19.9456 99.2129 20.0498C99.2129 20.1637 99.2471 20.2988 99.3154 20.4551L100.355 22.9258L101.4 20.3623C101.475 20.18 101.513 20.0417 101.513 19.9473C101.513 19.9017 101.5 19.8643 101.474 19.835C101.438 19.7861 101.392 19.7536 101.337 19.7373C101.282 19.7178 101.169 19.708 101 19.708V19.5273H102.46V19.708C102.291 19.721 102.174 19.7552 102.108 19.8105C101.994 19.9082 101.892 20.071 101.801 20.2988L100.214 24.1367H100.014L98.417 20.3623C98.3454 20.1865 98.277 20.0612 98.2119 19.9863C98.1468 19.9082 98.0638 19.8431 97.9629 19.791C97.9076 19.7617 97.7985 19.734 97.6357 19.708V19.5273ZM103.617 21.2119C103.614 21.876 103.775 22.3968 104.101 22.7744C104.426 23.152 104.809 23.3408 105.248 23.3408C105.541 23.3408 105.795 23.2611 106.01 23.1016C106.228 22.9388 106.41 22.6621 106.557 22.2715L106.708 22.3691C106.64 22.8151 106.441 23.222 106.112 23.5898C105.784 23.9544 105.372 24.1367 104.877 24.1367C104.34 24.1367 103.879 23.9284 103.495 23.5117C103.114 23.0918 102.924 22.5286 102.924 21.8223C102.924 21.0573 103.119 20.4616 103.51 20.0352C103.904 19.6055 104.397 19.3906 104.989 19.3906C105.491 19.3906 105.902 19.5566 106.225 19.8887C106.547 20.2174 106.708 20.6585 106.708 21.2119H103.617ZM103.617 20.9287H105.688C105.671 20.6423 105.637 20.4404 105.585 20.3232C105.504 20.141 105.382 19.9977 105.219 19.8936C105.059 19.7894 104.892 19.7373 104.716 19.7373C104.446 19.7373 104.203 19.8431 103.988 20.0547C103.777 20.263 103.653 20.5544 103.617 20.9287ZM111.586 17.7402V20.3574H113.041C113.419 20.3574 113.671 20.3005 113.798 20.1865C113.967 20.0368 114.062 19.7731 114.081 19.3955H114.262V21.7002H114.081C114.035 21.3779 113.99 21.1712 113.944 21.0801C113.886 20.9661 113.79 20.8766 113.656 20.8115C113.523 20.7464 113.318 20.7139 113.041 20.7139H111.586V22.8965C111.586 23.1895 111.599 23.3685 111.625 23.4336C111.651 23.4954 111.697 23.5459 111.762 23.585C111.827 23.6208 111.951 23.6387 112.133 23.6387H113.256C113.63 23.6387 113.902 23.6126 114.071 23.5605C114.241 23.5085 114.403 23.4059 114.56 23.2529C114.761 23.0511 114.968 22.7467 115.18 22.3398H115.375L114.804 24H109.701V23.8193H109.936C110.092 23.8193 110.24 23.7819 110.38 23.707C110.484 23.6549 110.554 23.5768 110.59 23.4727C110.629 23.3685 110.648 23.1553 110.648 22.833V18.5312C110.648 18.1113 110.606 17.8525 110.521 17.7549C110.404 17.6247 110.209 17.5596 109.936 17.5596H109.701V17.3789H114.804L114.877 18.8291H114.687C114.618 18.4808 114.542 18.2415 114.457 18.1113C114.376 17.9811 114.254 17.8818 114.091 17.8135C113.961 17.7646 113.731 17.7402 113.402 17.7402H111.586ZM119.081 23.4971C118.863 23.7249 118.65 23.8893 118.441 23.9902C118.233 24.0879 118.008 24.1367 117.768 24.1367C117.279 24.1367 116.853 23.9333 116.488 23.5264C116.124 23.1162 115.941 22.5905 115.941 21.9492C115.941 21.3079 116.143 20.722 116.547 20.1914C116.951 19.6576 117.47 19.3906 118.104 19.3906C118.498 19.3906 118.824 19.516 119.081 19.7666V18.9414C119.081 18.4303 119.068 18.1162 119.042 17.999C119.019 17.8818 118.982 17.8021 118.93 17.7598C118.878 17.7174 118.812 17.6963 118.734 17.6963C118.65 17.6963 118.537 17.7223 118.397 17.7744L118.334 17.6035L119.667 17.0566H119.887V22.2275C119.887 22.7516 119.898 23.0723 119.921 23.1895C119.947 23.3034 119.986 23.3831 120.038 23.4287C120.093 23.4743 120.157 23.4971 120.229 23.4971C120.316 23.4971 120.434 23.4694 120.58 23.4141L120.634 23.585L119.306 24.1367H119.081V23.4971ZM119.081 23.1553V20.8506C119.062 20.6292 119.003 20.4274 118.905 20.2451C118.808 20.0628 118.677 19.9261 118.515 19.835C118.355 19.7406 118.199 19.6934 118.046 19.6934C117.759 19.6934 117.504 19.8219 117.279 20.0791C116.983 20.4176 116.835 20.9124 116.835 21.5635C116.835 22.221 116.978 22.7256 117.265 23.0771C117.551 23.4255 117.87 23.5996 118.222 23.5996C118.518 23.5996 118.804 23.4515 119.081 23.1553ZM122.118 22.3691C121.845 22.2357 121.635 22.0501 121.488 21.8125C121.342 21.5716 121.269 21.3063 121.269 21.0166C121.269 20.5739 121.435 20.193 121.767 19.874C122.102 19.555 122.53 19.3955 123.051 19.3955C123.477 19.3955 123.847 19.4997 124.159 19.708H125.106C125.246 19.708 125.328 19.7129 125.351 19.7227C125.373 19.7292 125.39 19.7422 125.399 19.7617C125.419 19.791 125.429 19.8431 125.429 19.918C125.429 20.0026 125.421 20.0612 125.404 20.0938C125.395 20.11 125.377 20.123 125.351 20.1328C125.328 20.1426 125.246 20.1475 125.106 20.1475H124.525C124.708 20.3818 124.799 20.6813 124.799 21.0459C124.799 21.4626 124.639 21.819 124.32 22.1152C124.001 22.4115 123.573 22.5596 123.036 22.5596C122.815 22.5596 122.589 22.527 122.357 22.4619C122.214 22.5856 122.117 22.6947 122.064 22.7891C122.016 22.8802 121.991 22.9583 121.991 23.0234C121.991 23.0788 122.017 23.1325 122.069 23.1846C122.125 23.2367 122.23 23.2741 122.387 23.2969C122.478 23.3099 122.706 23.3213 123.07 23.3311C123.741 23.3473 124.175 23.3701 124.374 23.3994C124.677 23.4417 124.918 23.554 125.097 23.7363C125.279 23.9186 125.37 24.1432 125.37 24.4102C125.37 24.778 125.198 25.123 124.853 25.4453C124.345 25.9206 123.682 26.1582 122.865 26.1582C122.237 26.1582 121.706 26.0166 121.273 25.7334C121.029 25.5706 120.907 25.4014 120.907 25.2256C120.907 25.1475 120.925 25.0693 120.961 24.9912C121.016 24.8708 121.13 24.7031 121.303 24.4883C121.326 24.459 121.492 24.2832 121.801 23.9609C121.632 23.86 121.511 23.7705 121.439 23.6924C121.371 23.611 121.337 23.5199 121.337 23.4189C121.337 23.305 121.382 23.1715 121.474 23.0186C121.568 22.8656 121.783 22.6491 122.118 22.3691ZM122.968 19.6299C122.727 19.6299 122.525 19.7259 122.362 19.918C122.2 20.11 122.118 20.4046 122.118 20.8018C122.118 21.3161 122.229 21.7148 122.45 21.998C122.619 22.2129 122.834 22.3203 123.095 22.3203C123.342 22.3203 123.546 22.2275 123.705 22.042C123.865 21.8564 123.944 21.5651 123.944 21.168C123.944 20.6504 123.832 20.2451 123.607 19.9521C123.441 19.7373 123.228 19.6299 122.968 19.6299ZM122.069 24C121.916 24.166 121.801 24.3206 121.723 24.4639C121.645 24.6071 121.605 24.7389 121.605 24.8594C121.605 25.0156 121.7 25.1523 121.889 25.2695C122.214 25.4714 122.685 25.5723 123.3 25.5723C123.886 25.5723 124.317 25.4681 124.594 25.2598C124.874 25.0547 125.014 24.835 125.014 24.6006C125.014 24.4313 124.931 24.3109 124.765 24.2393C124.595 24.1676 124.26 24.1253 123.759 24.1123C123.026 24.0928 122.463 24.0553 122.069 24ZM126.674 21.2119C126.671 21.876 126.832 22.3968 127.157 22.7744C127.483 23.152 127.865 23.3408 128.305 23.3408C128.598 23.3408 128.852 23.2611 129.066 23.1016C129.285 22.9388 129.467 22.6621 129.613 22.2715L129.765 22.3691C129.696 22.8151 129.498 23.222 129.169 23.5898C128.84 23.9544 128.428 24.1367 127.934 24.1367C127.396 24.1367 126.936 23.9284 126.552 23.5117C126.171 23.0918 125.98 22.5286 125.98 21.8223C125.98 21.0573 126.176 20.4616 126.566 20.0352C126.96 19.6055 127.453 19.3906 128.046 19.3906C128.547 19.3906 128.959 19.5566 129.281 19.8887C129.604 20.2174 129.765 20.6585 129.765 21.2119H126.674ZM126.674 20.9287H128.744C128.728 20.6423 128.694 20.4404 128.642 20.3232C128.56 20.141 128.438 19.9977 128.275 19.8936C128.116 19.7894 127.948 19.7373 127.772 19.7373C127.502 19.7373 127.26 19.8431 127.045 20.0547C126.833 20.263 126.71 20.5544 126.674 20.9287ZM138.153 17.3789L138.227 18.9316H138.041C138.005 18.6582 137.956 18.4629 137.895 18.3457C137.794 18.1569 137.659 18.0186 137.489 17.9307C137.323 17.8395 137.104 17.7939 136.83 17.7939H135.897V22.8525C135.897 23.2594 135.941 23.5133 136.029 23.6143C136.153 23.751 136.343 23.8193 136.601 23.8193H136.83V24H134.022V23.8193H134.257C134.537 23.8193 134.735 23.7347 134.853 23.5654C134.924 23.4613 134.96 23.2236 134.96 22.8525V17.7939H134.164C133.855 17.7939 133.635 17.8167 133.505 17.8623C133.336 17.9242 133.191 18.043 133.07 18.2188C132.95 18.3945 132.878 18.6322 132.855 18.9316H132.67L132.748 17.3789H138.153ZM139.75 19.3955V20.4014C140.124 19.7308 140.508 19.3955 140.902 19.3955C141.081 19.3955 141.229 19.4508 141.347 19.5615C141.464 19.6689 141.522 19.7943 141.522 19.9375C141.522 20.0645 141.48 20.1719 141.396 20.2598C141.311 20.3477 141.21 20.3916 141.093 20.3916C140.979 20.3916 140.85 20.3363 140.707 20.2256C140.567 20.1117 140.463 20.0547 140.395 20.0547C140.336 20.0547 140.272 20.0872 140.204 20.1523C140.058 20.2858 139.906 20.5055 139.75 20.8115V22.9551C139.75 23.2025 139.781 23.3896 139.843 23.5166C139.885 23.6045 139.96 23.6777 140.067 23.7363C140.175 23.7949 140.329 23.8242 140.531 23.8242V24H138.241V23.8242C138.469 23.8242 138.638 23.7884 138.749 23.7168C138.83 23.6647 138.887 23.5817 138.92 23.4678C138.936 23.4124 138.944 23.2546 138.944 22.9941V21.2607C138.944 20.7399 138.933 20.4307 138.91 20.333C138.891 20.2321 138.852 20.1589 138.793 20.1133C138.738 20.0677 138.668 20.0449 138.583 20.0449C138.482 20.0449 138.368 20.0693 138.241 20.1182L138.192 19.9424L139.545 19.3955H139.75ZM142.909 17.0566C143.046 17.0566 143.161 17.1055 143.256 17.2031C143.354 17.2975 143.402 17.4131 143.402 17.5498C143.402 17.6865 143.354 17.8037 143.256 17.9014C143.161 17.999 143.046 18.0479 142.909 18.0479C142.772 18.0479 142.655 17.999 142.558 17.9014C142.46 17.8037 142.411 17.6865 142.411 17.5498C142.411 17.4131 142.458 17.2975 142.553 17.2031C142.65 17.1055 142.769 17.0566 142.909 17.0566ZM143.314 19.3955V22.9893C143.314 23.2692 143.334 23.4564 143.373 23.5508C143.415 23.6419 143.476 23.7103 143.554 23.7559C143.635 23.8014 143.782 23.8242 143.993 23.8242V24H141.82V23.8242C142.038 23.8242 142.185 23.8031 142.26 23.7607C142.335 23.7184 142.393 23.6484 142.436 23.5508C142.481 23.4531 142.504 23.266 142.504 22.9893V21.2656C142.504 20.7806 142.489 20.4665 142.46 20.3232C142.437 20.2191 142.401 20.1475 142.353 20.1084C142.304 20.0661 142.237 20.0449 142.152 20.0449C142.061 20.0449 141.951 20.0693 141.82 20.1182L141.752 19.9424L143.1 19.3955H143.314ZM145.751 22.3691C145.478 22.2357 145.268 22.0501 145.121 21.8125C144.975 21.5716 144.901 21.3063 144.901 21.0166C144.901 20.5739 145.067 20.193 145.399 19.874C145.735 19.555 146.163 19.3955 146.684 19.3955C147.11 19.3955 147.479 19.4997 147.792 19.708H148.739C148.879 19.708 148.961 19.7129 148.983 19.7227C149.006 19.7292 149.022 19.7422 149.032 19.7617C149.052 19.791 149.062 19.8431 149.062 19.918C149.062 20.0026 149.053 20.0612 149.037 20.0938C149.027 20.11 149.009 20.123 148.983 20.1328C148.961 20.1426 148.879 20.1475 148.739 20.1475H148.158C148.34 20.3818 148.432 20.6813 148.432 21.0459C148.432 21.4626 148.272 21.819 147.953 22.1152C147.634 22.4115 147.206 22.5596 146.669 22.5596C146.448 22.5596 146.221 22.527 145.99 22.4619C145.847 22.5856 145.749 22.6947 145.697 22.7891C145.648 22.8802 145.624 22.9583 145.624 23.0234C145.624 23.0788 145.65 23.1325 145.702 23.1846C145.757 23.2367 145.863 23.2741 146.02 23.2969C146.111 23.3099 146.339 23.3213 146.703 23.3311C147.374 23.3473 147.808 23.3701 148.007 23.3994C148.31 23.4417 148.55 23.554 148.729 23.7363C148.912 23.9186 149.003 24.1432 149.003 24.4102C149.003 24.778 148.83 25.123 148.485 25.4453C147.978 25.9206 147.315 26.1582 146.498 26.1582C145.87 26.1582 145.339 26.0166 144.906 25.7334C144.662 25.5706 144.54 25.4014 144.54 25.2256C144.54 25.1475 144.558 25.0693 144.594 24.9912C144.649 24.8708 144.763 24.7031 144.936 24.4883C144.958 24.459 145.124 24.2832 145.434 23.9609C145.264 23.86 145.144 23.7705 145.072 23.6924C145.004 23.611 144.97 23.5199 144.97 23.4189C144.97 23.305 145.015 23.1715 145.106 23.0186C145.201 22.8656 145.416 22.6491 145.751 22.3691ZM146.601 19.6299C146.36 19.6299 146.158 19.7259 145.995 19.918C145.832 20.11 145.751 20.4046 145.751 20.8018C145.751 21.3161 145.862 21.7148 146.083 21.998C146.252 22.2129 146.467 22.3203 146.728 22.3203C146.975 22.3203 147.178 22.2275 147.338 22.042C147.497 21.8564 147.577 21.5651 147.577 21.168C147.577 20.6504 147.465 20.2451 147.24 19.9521C147.074 19.7373 146.861 19.6299 146.601 19.6299ZM145.702 24C145.549 24.166 145.434 24.3206 145.355 24.4639C145.277 24.6071 145.238 24.7389 145.238 24.8594C145.238 25.0156 145.333 25.1523 145.521 25.2695C145.847 25.4714 146.317 25.5723 146.933 25.5723C147.519 25.5723 147.95 25.4681 148.227 25.2598C148.507 25.0547 148.646 24.835 148.646 24.6006C148.646 24.4313 148.563 24.3109 148.397 24.2393C148.228 24.1676 147.893 24.1253 147.392 24.1123C146.659 24.0928 146.096 24.0553 145.702 24ZM150.751 22.3691C150.478 22.2357 150.268 22.0501 150.121 21.8125C149.975 21.5716 149.901 21.3063 149.901 21.0166C149.901 20.5739 150.067 20.193 150.399 19.874C150.735 19.555 151.163 19.3955 151.684 19.3955C152.11 19.3955 152.479 19.4997 152.792 19.708H153.739C153.879 19.708 153.961 19.7129 153.983 19.7227C154.006 19.7292 154.022 19.7422 154.032 19.7617C154.052 19.791 154.062 19.8431 154.062 19.918C154.062 20.0026 154.053 20.0612 154.037 20.0938C154.027 20.11 154.009 20.123 153.983 20.1328C153.961 20.1426 153.879 20.1475 153.739 20.1475H153.158C153.34 20.3818 153.432 20.6813 153.432 21.0459C153.432 21.4626 153.272 21.819 152.953 22.1152C152.634 22.4115 152.206 22.5596 151.669 22.5596C151.448 22.5596 151.221 22.527 150.99 22.4619C150.847 22.5856 150.749 22.6947 150.697 22.7891C150.648 22.8802 150.624 22.9583 150.624 23.0234C150.624 23.0788 150.65 23.1325 150.702 23.1846C150.757 23.2367 150.863 23.2741 151.02 23.2969C151.111 23.3099 151.339 23.3213 151.703 23.3311C152.374 23.3473 152.808 23.3701 153.007 23.3994C153.31 23.4417 153.55 23.554 153.729 23.7363C153.912 23.9186 154.003 24.1432 154.003 24.4102C154.003 24.778 153.83 25.123 153.485 25.4453C152.978 25.9206 152.315 26.1582 151.498 26.1582C150.87 26.1582 150.339 26.0166 149.906 25.7334C149.662 25.5706 149.54 25.4014 149.54 25.2256C149.54 25.1475 149.558 25.0693 149.594 24.9912C149.649 24.8708 149.763 24.7031 149.936 24.4883C149.958 24.459 150.124 24.2832 150.434 23.9609C150.264 23.86 150.144 23.7705 150.072 23.6924C150.004 23.611 149.97 23.5199 149.97 23.4189C149.97 23.305 150.015 23.1715 150.106 23.0186C150.201 22.8656 150.416 22.6491 150.751 22.3691ZM151.601 19.6299C151.36 19.6299 151.158 19.7259 150.995 19.918C150.832 20.11 150.751 20.4046 150.751 20.8018C150.751 21.3161 150.862 21.7148 151.083 21.998C151.252 22.2129 151.467 22.3203 151.728 22.3203C151.975 22.3203 152.178 22.2275 152.338 22.042C152.497 21.8564 152.577 21.5651 152.577 21.168C152.577 20.6504 152.465 20.2451 152.24 19.9521C152.074 19.7373 151.861 19.6299 151.601 19.6299ZM150.702 24C150.549 24.166 150.434 24.3206 150.355 24.4639C150.277 24.6071 150.238 24.7389 150.238 24.8594C150.238 25.0156 150.333 25.1523 150.521 25.2695C150.847 25.4714 151.317 25.5723 151.933 25.5723C152.519 25.5723 152.95 25.4681 153.227 25.2598C153.507 25.0547 153.646 24.835 153.646 24.6006C153.646 24.4313 153.563 24.3109 153.397 24.2393C153.228 24.1676 152.893 24.1253 152.392 24.1123C151.659 24.0928 151.096 24.0553 150.702 24ZM155.307 21.2119C155.303 21.876 155.465 22.3968 155.79 22.7744C156.116 23.152 156.498 23.3408 156.938 23.3408C157.23 23.3408 157.484 23.2611 157.699 23.1016C157.917 22.9388 158.1 22.6621 158.246 22.2715L158.397 22.3691C158.329 22.8151 158.131 23.222 157.802 23.5898C157.473 23.9544 157.061 24.1367 156.566 24.1367C156.029 24.1367 155.569 23.9284 155.185 23.5117C154.804 23.0918 154.613 22.5286 154.613 21.8223C154.613 21.0573 154.809 20.4616 155.199 20.0352C155.593 19.6055 156.086 19.3906 156.679 19.3906C157.18 19.3906 157.592 19.5566 157.914 19.8887C158.236 20.2174 158.397 20.6585 158.397 21.2119H155.307ZM155.307 20.9287H157.377C157.361 20.6423 157.326 20.4404 157.274 20.3232C157.193 20.141 157.071 19.9977 156.908 19.8936C156.749 19.7894 156.581 19.7373 156.405 19.7373C156.135 19.7373 155.893 19.8431 155.678 20.0547C155.466 20.263 155.342 20.5544 155.307 20.9287ZM160.307 19.3955V20.4014C160.681 19.7308 161.065 19.3955 161.459 19.3955C161.638 19.3955 161.786 19.4508 161.903 19.5615C162.021 19.6689 162.079 19.7943 162.079 19.9375C162.079 20.0645 162.037 20.1719 161.952 20.2598C161.868 20.3477 161.767 20.3916 161.649 20.3916C161.535 20.3916 161.407 20.3363 161.264 20.2256C161.124 20.1117 161.02 20.0547 160.951 20.0547C160.893 20.0547 160.829 20.0872 160.761 20.1523C160.614 20.2858 160.463 20.5055 160.307 20.8115V22.9551C160.307 23.2025 160.338 23.3896 160.399 23.5166C160.442 23.6045 160.517 23.6777 160.624 23.7363C160.731 23.7949 160.886 23.8242 161.088 23.8242V24H158.798V23.8242C159.026 23.8242 159.195 23.7884 159.306 23.7168C159.387 23.6647 159.444 23.5817 159.477 23.4678C159.493 23.4124 159.501 23.2546 159.501 22.9941V21.2607C159.501 20.7399 159.49 20.4307 159.467 20.333C159.447 20.2321 159.408 20.1589 159.35 20.1133C159.294 20.0677 159.224 20.0449 159.14 20.0449C159.039 20.0449 158.925 20.0693 158.798 20.1182L158.749 19.9424L160.102 19.3955H160.307ZM163.08 21.2119C163.077 21.876 163.238 22.3968 163.563 22.7744C163.889 23.152 164.271 23.3408 164.711 23.3408C165.004 23.3408 165.258 23.2611 165.473 23.1016C165.691 22.9388 165.873 22.6621 166.02 22.2715L166.171 22.3691C166.103 22.8151 165.904 23.222 165.575 23.5898C165.246 23.9544 164.835 24.1367 164.34 24.1367C163.803 24.1367 163.342 23.9284 162.958 23.5117C162.577 23.0918 162.387 22.5286 162.387 21.8223C162.387 21.0573 162.582 20.4616 162.973 20.0352C163.367 19.6055 163.86 19.3906 164.452 19.3906C164.953 19.3906 165.365 19.5566 165.688 19.8887C166.01 20.2174 166.171 20.6585 166.171 21.2119H163.08ZM163.08 20.9287H165.15C165.134 20.6423 165.1 20.4404 165.048 20.3232C164.966 20.141 164.844 19.9977 164.682 19.8936C164.522 19.7894 164.354 19.7373 164.179 19.7373C163.909 19.7373 163.666 19.8431 163.451 20.0547C163.24 20.263 163.116 20.5544 163.08 20.9287ZM169.931 23.4971C169.713 23.7249 169.499 23.8893 169.291 23.9902C169.083 24.0879 168.858 24.1367 168.617 24.1367C168.129 24.1367 167.702 23.9333 167.338 23.5264C166.973 23.1162 166.791 22.5905 166.791 21.9492C166.791 21.3079 166.993 20.722 167.396 20.1914C167.8 19.6576 168.319 19.3906 168.954 19.3906C169.348 19.3906 169.674 19.516 169.931 19.7666V18.9414C169.931 18.4303 169.918 18.1162 169.892 17.999C169.869 17.8818 169.831 17.8021 169.779 17.7598C169.727 17.7174 169.662 17.6963 169.584 17.6963C169.499 17.6963 169.387 17.7223 169.247 17.7744L169.184 17.6035L170.517 17.0566H170.736V22.2275C170.736 22.7516 170.748 23.0723 170.771 23.1895C170.797 23.3034 170.836 23.3831 170.888 23.4287C170.943 23.4743 171.007 23.4971 171.078 23.4971C171.166 23.4971 171.283 23.4694 171.43 23.4141L171.483 23.585L170.155 24.1367H169.931V23.4971ZM169.931 23.1553V20.8506C169.911 20.6292 169.853 20.4274 169.755 20.2451C169.657 20.0628 169.527 19.9261 169.364 19.835C169.205 19.7406 169.049 19.6934 168.896 19.6934C168.609 19.6934 168.354 19.8219 168.129 20.0791C167.833 20.4176 167.685 20.9124 167.685 21.5635C167.685 22.221 167.828 22.7256 168.114 23.0771C168.401 23.4255 168.72 23.5996 169.071 23.5996C169.368 23.5996 169.654 23.4515 169.931 23.1553Z" fill="black"/>
<circle cx="65" cy="129" r="3" fill="white" stroke="black" stroke-width="2"/>
<circle cx="134" cy="131" r="3" fill="white" stroke="black" stroke-width="2"/>
<path d="M81.8261 102.252L83.7236 101L81.8261 99.748L71.3261 92.8198L69 91.2849V94.0718V107.928V110.715L71.3261 109.18L81.8261 102.252Z" fill="white" stroke="black" stroke-width="3"/>
</svg>
