<svg width="200" height="200" viewBox="0 0 200 200" fill="none" xmlns="http://www.w3.org/2000/svg">
<rect width="200" height="200" fill="white"/>
<path d="M0 86H50" stroke="black" stroke-width="2"/>
<path d="M0 113H50" stroke="black" stroke-width="2"/>
<path d="M150 100H200" stroke="black" stroke-width="2"/>
<path d="M148.5 100C148.5 109.611 143.08 118.45 134.041 124.945C125.004 131.438 112.443 135.5 98.5 135.5C84.5572 135.5 71.9964 131.438 62.9592 124.945C53.9196 118.45 48.5 109.611 48.5 100C48.5 90.389 53.9196 81.5497 62.9592 75.0552C71.9964 68.5625 84.5572 64.5 98.5 64.5C112.443 64.5 125.004 68.5625 134.041 75.0552C143.08 81.5497 148.5 90.389 148.5 100Z" fill="white" stroke="black" stroke-width="3"/>
<mask id="path-5-inside-1_2_4" fill="white">
<path d="M47 63H97V137H47V63Z"/>
</mask>
<path d="M47 63H97V137H47V63Z" fill="white"/>
<path d="M47 63V60H44V63H47ZM47 137H44V140H47V137ZM47 66H97V60H47V66ZM97 134H47V140H97V134ZM50 137V63H44V137H50Z" fill="black" mask="url(#path-5-inside-1_2_4)"/>
</svg>
