<svg width="200" height="200" viewBox="0 0 200 200" fill="none" xmlns="http://www.w3.org/2000/svg">
<rect width="200" height="200" fill="white"/>
<path d="M150.114 100.006C150.005 100.148 149.882 100.306 149.746 100.479C149.053 101.361 148.028 102.631 146.705 104.171C144.058 107.253 140.227 111.409 135.491 115.701C126.008 124.298 113.07 133.287 98.8852 135.5C84.5647 135.478 71.667 131.415 62.382 124.933C53.0671 118.43 47.5 109.592 47.5 100C47.5 90.4906 53.9206 81.6411 63.7737 75.0859C73.5943 68.5524 86.5557 64.5 99 64.5C105.019 64.5 111.258 66.6898 117.297 70.0884C123.326 73.4815 129.061 78.0259 134.042 82.6044C139.019 87.1787 143.213 91.7579 146.165 95.1958C147.639 96.9136 148.801 98.3437 149.593 99.342C149.79 99.5909 149.964 99.8129 150.114 100.006Z" fill="white" stroke="black" stroke-width="3"/>
<rect x="41" y="60" width="43" height="82" fill="white"/>
<path d="M0 113H67" stroke="black" stroke-width="2"/>
<path d="M0 86H67" stroke="black" stroke-width="2"/>
<path d="M162 100H181L200 100" stroke="black" stroke-width="2"/>
<path d="M70.3568 100.256C70.3537 89.0254 63.524 77.9612 50.5692 64.5H95.5V135.5H50.629C63.5529 122.37 70.36 111.475 70.3568 100.256Z" fill="white" stroke="black" stroke-width="3" stroke-linejoin="bevel"/>
<rect x="94" y="66" width="3" height="68" fill="white"/>
<circle cx="156" cy="100" r="4.5" fill="white" stroke="black" stroke-width="3"/>
</svg>
