<svg width="200" height="200" viewBox="0 0 200 200" fill="none" xmlns="http://www.w3.org/2000/svg">
<rect width="200" height="200" fill="white"/>
<path d="M79.585 22.7256L79.1211 24H75.2148V23.8193C76.3639 22.7712 77.1729 21.915 77.6416 21.251C78.1104 20.5869 78.3447 19.9798 78.3447 19.4297C78.3447 19.0098 78.2161 18.6647 77.959 18.3945C77.7018 18.1243 77.3942 17.9893 77.0361 17.9893C76.7106 17.9893 76.4176 18.0853 76.1572 18.2773C75.9001 18.4661 75.7096 18.7445 75.5859 19.1123H75.4053C75.4867 18.5101 75.695 18.0479 76.0303 17.7256C76.3688 17.4033 76.7904 17.2422 77.2949 17.2422C77.832 17.2422 78.2796 17.4147 78.6377 17.7598C78.999 18.1048 79.1797 18.5117 79.1797 18.9805C79.1797 19.3158 79.1016 19.651 78.9453 19.9863C78.7044 20.5137 78.3138 21.0719 77.7734 21.6611C76.9629 22.5465 76.4567 23.0804 76.2549 23.2627H77.9834C78.335 23.2627 78.5807 23.2497 78.7207 23.2236C78.8639 23.1976 78.9925 23.1455 79.1064 23.0674C79.2204 22.986 79.3197 22.8721 79.4043 22.7256H79.585ZM82.6318 19.5273H84.7363V19.708C84.6029 19.708 84.5085 19.7308 84.4531 19.7764C84.401 19.8219 84.375 19.8822 84.375 19.957C84.375 20.0352 84.432 20.1556 84.5459 20.3184C84.5817 20.3704 84.6354 20.4518 84.707 20.5625L85.0244 21.0703L85.3906 20.5625C85.625 20.2402 85.7422 20.0368 85.7422 19.9521C85.7422 19.8838 85.7145 19.8268 85.6592 19.7812C85.6038 19.7324 85.5143 19.708 85.3906 19.708V19.5273H86.9043V19.708C86.7448 19.7178 86.6064 19.7617 86.4893 19.8398C86.3298 19.9505 86.1117 20.1914 85.835 20.5625L85.2246 21.3779L86.3379 22.9795C86.6113 23.3734 86.8066 23.611 86.9238 23.6924C87.041 23.7705 87.1924 23.8145 87.3779 23.8242V24H85.2686V23.8242C85.415 23.8242 85.529 23.7917 85.6104 23.7266C85.6722 23.681 85.7031 23.6208 85.7031 23.5459C85.7031 23.471 85.599 23.2822 85.3906 22.9795L84.7363 22.0225L84.0186 22.9795C83.7972 23.2757 83.6865 23.4515 83.6865 23.5068C83.6865 23.585 83.7223 23.6566 83.7939 23.7217C83.8688 23.7835 83.9795 23.8177 84.126 23.8242V24H82.666V23.8242C82.7832 23.8079 82.8857 23.7673 82.9736 23.7021C83.0973 23.6077 83.3057 23.3669 83.5986 22.9795L84.5361 21.7344L83.6865 20.5039C83.4456 20.1523 83.2585 19.9326 83.125 19.8447C82.9948 19.7536 82.8304 19.708 82.6318 19.708V19.5273ZM91.1719 18.0283L92.7832 17.2422H92.9443V22.833C92.9443 23.2041 92.959 23.4352 92.9883 23.5264C93.0208 23.6175 93.0859 23.6875 93.1836 23.7363C93.2812 23.7852 93.4798 23.8128 93.7793 23.8193V24H91.2891V23.8193C91.6016 23.8128 91.8034 23.7868 91.8945 23.7412C91.9857 23.6924 92.0492 23.6289 92.085 23.5508C92.1208 23.4694 92.1387 23.2301 92.1387 22.833V19.2588C92.1387 18.777 92.1224 18.4678 92.0898 18.3311C92.0671 18.2269 92.0247 18.1504 91.9629 18.1016C91.9043 18.0527 91.8327 18.0283 91.748 18.0283C91.6276 18.0283 91.46 18.0788 91.2451 18.1797L91.1719 18.0283ZM101.592 24L99.0332 18.4287V22.8525C99.0332 23.2594 99.0771 23.5133 99.165 23.6143C99.2855 23.751 99.4759 23.8193 99.7363 23.8193H99.9707V24H97.666V23.8193H97.9004C98.1803 23.8193 98.3789 23.7347 98.4961 23.5654C98.5677 23.4613 98.6035 23.2236 98.6035 22.8525V18.5264C98.6035 18.2334 98.571 18.0218 98.5059 17.8916C98.4603 17.7972 98.3757 17.7191 98.252 17.6572C98.1315 17.5921 97.9362 17.5596 97.666 17.5596V17.3789H99.541L101.943 22.5596L104.307 17.3789H106.182V17.5596H105.952C105.669 17.5596 105.469 17.6442 105.352 17.8135C105.28 17.9176 105.244 18.1553 105.244 18.5264V22.8525C105.244 23.2594 105.29 23.5133 105.381 23.6143C105.501 23.751 105.692 23.8193 105.952 23.8193H106.182V24H103.369V23.8193H103.604C103.887 23.8193 104.085 23.7347 104.199 23.5654C104.271 23.4613 104.307 23.2236 104.307 22.8525V18.4287L101.753 24H101.592ZM111.167 17.5596V17.3789H113.511V17.5596H113.262C113.001 17.5596 112.801 17.6686 112.661 17.8867C112.593 17.9876 112.559 18.222 112.559 18.5898V21.2754C112.559 21.9395 112.492 22.4554 112.358 22.8232C112.228 23.1878 111.969 23.502 111.582 23.7656C111.198 24.026 110.674 24.1562 110.01 24.1562C109.287 24.1562 108.739 24.0309 108.364 23.7803C107.99 23.5296 107.725 23.1927 107.568 22.7695C107.464 22.4798 107.412 21.9362 107.412 21.1387V18.5508C107.412 18.1439 107.355 17.877 107.241 17.75C107.131 17.623 106.95 17.5596 106.699 17.5596H106.45V17.3789H109.312V17.5596H109.058C108.784 17.5596 108.589 17.6458 108.472 17.8184C108.39 17.9355 108.35 18.1797 108.35 18.5508V21.4365C108.35 21.6937 108.372 21.9883 108.418 22.3203C108.467 22.6523 108.553 22.9111 108.677 23.0967C108.8 23.2822 108.978 23.4352 109.209 23.5557C109.443 23.6761 109.73 23.7363 110.068 23.7363C110.501 23.7363 110.889 23.6419 111.23 23.4531C111.572 23.2643 111.805 23.0234 111.929 22.7305C112.056 22.4342 112.119 21.9346 112.119 21.2314V18.5508C112.119 18.1374 112.074 17.8786 111.982 17.7744C111.855 17.6312 111.667 17.5596 111.416 17.5596H111.167ZM117.705 20.333L119.126 22.4521C119.52 23.0381 119.811 23.4092 120 23.5654C120.192 23.7184 120.435 23.8031 120.728 23.8193V24H117.886V23.8193C118.075 23.8161 118.215 23.7965 118.306 23.7607C118.374 23.7314 118.429 23.6875 118.472 23.6289C118.517 23.5671 118.54 23.5052 118.54 23.4434C118.54 23.3685 118.525 23.2936 118.496 23.2188C118.473 23.1634 118.384 23.0202 118.228 22.7891L117.104 21.0898L115.718 22.8672C115.571 23.056 115.483 23.1829 115.454 23.248C115.425 23.3099 115.41 23.375 115.41 23.4434C115.41 23.5475 115.454 23.6338 115.542 23.7021C115.63 23.7705 115.798 23.8096 116.045 23.8193V24H113.696V23.8193C113.862 23.8031 114.006 23.7689 114.126 23.7168C114.328 23.6322 114.52 23.5182 114.702 23.375C114.884 23.2318 115.093 23.012 115.327 22.7158L116.89 20.7432L115.586 18.834C115.231 18.3164 114.93 17.9779 114.683 17.8184C114.435 17.6556 114.15 17.5693 113.828 17.5596V17.3789H116.89V17.5596C116.629 17.5693 116.45 17.6117 116.353 17.6865C116.258 17.7614 116.211 17.8444 116.211 17.9355C116.211 18.056 116.289 18.2318 116.445 18.4629L117.461 19.9814L118.638 18.4922C118.774 18.3164 118.857 18.196 118.887 18.1309C118.919 18.0658 118.936 17.999 118.936 17.9307C118.936 17.8623 118.916 17.8021 118.877 17.75C118.828 17.6816 118.766 17.6344 118.691 17.6084C118.617 17.5791 118.462 17.5628 118.228 17.5596V17.3789H120.576V17.5596C120.391 17.5693 120.239 17.5986 120.122 17.6475C119.946 17.7223 119.785 17.8232 119.639 17.9502C119.492 18.0771 119.285 18.3115 119.019 18.6533L117.705 20.333Z" fill="black"/>
<path d="M60.5 40.1955L139.5 71.0248V129.963L60.5 159.829V40.1955Z" fill="white" stroke="black" stroke-width="3"/>
<line x1="60" y1="68" y2="68" stroke="black" stroke-width="2"/>
<line x1="200" y1="101" x2="140" y2="101" stroke="black" stroke-width="2"/>
<line x1="60" y1="136" y2="136" stroke="black" stroke-width="2"/>
<line x1="99" y1="182" x2="99" y2="146" stroke="black" stroke-width="2"/>
<path d="M131.766 96.3789H134.075V96.5596H133.948C133.864 96.5596 133.74 96.597 133.577 96.6719C133.414 96.7467 133.266 96.8542 133.133 96.9941C132.999 97.1341 132.835 97.362 132.64 97.6777L131.043 100.192V101.853C131.043 102.259 131.089 102.513 131.18 102.614C131.303 102.751 131.499 102.819 131.766 102.819H131.98V103H129.168V102.819H129.402C129.682 102.819 129.881 102.735 129.998 102.565C130.07 102.461 130.105 102.224 130.105 101.853V100.285L128.289 97.5117C128.074 97.1862 127.928 96.9827 127.85 96.9014C127.775 96.82 127.617 96.7223 127.376 96.6084C127.311 96.5758 127.216 96.5596 127.093 96.5596V96.3789H129.925V96.5596H129.778C129.625 96.5596 129.484 96.5954 129.354 96.667C129.227 96.7386 129.163 96.846 129.163 96.9893C129.163 97.1064 129.262 97.318 129.461 97.624L130.843 99.7578L132.142 97.7168C132.337 97.4108 132.435 97.1829 132.435 97.0332C132.435 96.9421 132.41 96.8607 132.361 96.7891C132.316 96.7174 132.249 96.6621 132.161 96.623C132.073 96.5807 131.941 96.5596 131.766 96.5596V96.3789Z" fill="black"/>
<path d="M66.1709 71V70.8193H66.4199C66.6999 70.8193 66.8984 70.7298 67.0156 70.5508C67.0872 70.4434 67.123 70.2025 67.123 69.8281V65.5508C67.123 65.1374 67.0775 64.8786 66.9863 64.7744C66.8594 64.6312 66.6706 64.5596 66.4199 64.5596H66.1709V64.3789H68.8662C69.8558 64.3789 70.6077 64.4912 71.1221 64.7158C71.6396 64.9404 72.0547 65.3148 72.3672 65.8389C72.6829 66.363 72.8408 66.9684 72.8408 67.6553C72.8408 68.5765 72.5609 69.3464 72.001 69.9648C71.3727 70.6549 70.4157 71 69.1299 71H66.1709ZM68.0605 70.5215C68.474 70.6126 68.8206 70.6582 69.1006 70.6582C69.8558 70.6582 70.4824 70.3929 70.9805 69.8623C71.4785 69.3317 71.7275 68.6123 71.7275 67.7041C71.7275 66.7894 71.4785 66.0684 70.9805 65.541C70.4824 65.0137 69.8428 64.75 69.0615 64.75C68.7686 64.75 68.4349 64.7972 68.0605 64.8916V70.5215ZM73.5879 67.7285C73.5879 66.9733 73.7018 66.3239 73.9297 65.7803C74.1576 65.2334 74.4603 64.8265 74.8379 64.5596C75.1309 64.348 75.4336 64.2422 75.7461 64.2422C76.2539 64.2422 76.7096 64.501 77.1133 65.0186C77.6178 65.6598 77.8701 66.529 77.8701 67.626C77.8701 68.3942 77.7594 69.0469 77.5381 69.584C77.3167 70.1211 77.0335 70.5117 76.6885 70.7559C76.3467 70.9967 76.0163 71.1172 75.6973 71.1172C75.0658 71.1172 74.54 70.7445 74.1201 69.999C73.7653 69.3708 73.5879 68.6139 73.5879 67.7285ZM74.5449 67.8506C74.5449 68.762 74.6572 69.5059 74.8818 70.082C75.0674 70.5671 75.3441 70.8096 75.7119 70.8096C75.8877 70.8096 76.07 70.7314 76.2588 70.5752C76.4476 70.4157 76.5908 70.1504 76.6885 69.7793C76.8382 69.2194 76.9131 68.43 76.9131 67.4111C76.9131 66.6559 76.835 66.026 76.6787 65.5215C76.5615 65.1471 76.4102 64.8818 76.2246 64.7256C76.0911 64.6182 75.93 64.5645 75.7412 64.5645C75.5199 64.5645 75.3229 64.6637 75.1504 64.8623C74.916 65.1325 74.7565 65.5573 74.6719 66.1367C74.5872 66.7161 74.5449 67.2874 74.5449 67.8506Z" fill="black"/>
<path d="M100.585 133.228V135.518H100.404C100.346 135.078 100.24 134.728 100.087 134.468C99.9372 134.207 99.7223 134.001 99.4424 133.848C99.1624 133.695 98.8727 133.618 98.5732 133.618C98.2347 133.618 97.9548 133.722 97.7334 133.931C97.512 134.136 97.4014 134.37 97.4014 134.634C97.4014 134.836 97.4714 135.02 97.6113 135.186C97.8132 135.43 98.2933 135.755 99.0518 136.162C99.6702 136.494 100.092 136.75 100.316 136.929C100.544 137.104 100.718 137.313 100.839 137.554C100.963 137.795 101.024 138.047 101.024 138.311C101.024 138.812 100.829 139.245 100.438 139.609C100.051 139.971 99.5514 140.151 98.9395 140.151C98.7474 140.151 98.5667 140.137 98.3975 140.107C98.2965 140.091 98.0866 140.033 97.7676 139.932C97.4518 139.827 97.2516 139.775 97.167 139.775C97.0856 139.775 97.0205 139.8 96.9717 139.849C96.9261 139.897 96.8919 139.998 96.8691 140.151H96.6885V137.881H96.8691C96.9538 138.356 97.0677 138.713 97.2109 138.95C97.3542 139.185 97.5723 139.38 97.8652 139.536C98.1615 139.692 98.4854 139.771 98.8369 139.771C99.2438 139.771 99.5645 139.663 99.7988 139.448C100.036 139.233 100.155 138.979 100.155 138.687C100.155 138.524 100.11 138.359 100.019 138.193C99.9307 138.027 99.7923 137.873 99.6035 137.729C99.4766 137.632 99.1299 137.425 98.5635 137.109C97.9971 136.79 97.5934 136.536 97.3525 136.348C97.1149 136.159 96.9342 135.951 96.8105 135.723C96.6868 135.495 96.625 135.244 96.625 134.971C96.625 134.495 96.8073 134.087 97.1719 133.745C97.5365 133.4 98.0003 133.228 98.5635 133.228C98.915 133.228 99.2878 133.314 99.6816 133.486C99.8639 133.568 99.9925 133.608 100.067 133.608C100.152 133.608 100.22 133.584 100.272 133.535C100.328 133.483 100.372 133.381 100.404 133.228H100.585Z" fill="black"/>
<path d="M66.1709 140V139.819H66.4199C66.6999 139.819 66.8984 139.73 67.0156 139.551C67.0872 139.443 67.123 139.202 67.123 138.828V134.551C67.123 134.137 67.0775 133.879 66.9863 133.774C66.8594 133.631 66.6706 133.56 66.4199 133.56H66.1709V133.379H68.8662C69.8558 133.379 70.6077 133.491 71.1221 133.716C71.6396 133.94 72.0547 134.315 72.3672 134.839C72.6829 135.363 72.8408 135.968 72.8408 136.655C72.8408 137.576 72.5609 138.346 72.001 138.965C71.3727 139.655 70.4157 140 69.1299 140H66.1709ZM68.0605 139.521C68.474 139.613 68.8206 139.658 69.1006 139.658C69.8558 139.658 70.4824 139.393 70.9805 138.862C71.4785 138.332 71.7275 137.612 71.7275 136.704C71.7275 135.789 71.4785 135.068 70.9805 134.541C70.4824 134.014 69.8428 133.75 69.0615 133.75C68.7686 133.75 68.4349 133.797 68.0605 133.892V139.521ZM74.3984 134.028L76.0098 133.242H76.1709V138.833C76.1709 139.204 76.1855 139.435 76.2148 139.526C76.2474 139.618 76.3125 139.688 76.4102 139.736C76.5078 139.785 76.7064 139.813 77.0059 139.819V140H74.5156V139.819C74.8281 139.813 75.0299 139.787 75.1211 139.741C75.2122 139.692 75.2757 139.629 75.3115 139.551C75.3473 139.469 75.3652 139.23 75.3652 138.833V135.259C75.3652 134.777 75.349 134.468 75.3164 134.331C75.2936 134.227 75.2513 134.15 75.1895 134.102C75.1309 134.053 75.0592 134.028 74.9746 134.028C74.8542 134.028 74.6865 134.079 74.4717 134.18L74.3984 134.028Z" fill="black"/>
</svg>
