<svg width="200" height="200" viewBox="0 0 200 200" fill="none" xmlns="http://www.w3.org/2000/svg">
<rect width="200" height="200" fill="white"/>
<line y1="44" x2="67" y2="44" stroke="black" stroke-width="2"/>
<line y1="58" x2="67" y2="58" stroke="black" stroke-width="2"/>
<line y1="73" x2="67" y2="73" stroke="black" stroke-width="2"/>
<line y1="88" x2="67" y2="88" stroke="black" stroke-width="2"/>
<line y1="109" x2="67" y2="109" stroke="black" stroke-width="2"/>
<line y1="123" x2="67" y2="123" stroke="black" stroke-width="2"/>
<line y1="138" x2="67" y2="138" stroke="black" stroke-width="2"/>
<line y1="153" x2="67" y2="153" stroke="black" stroke-width="2"/>
<line y1="171" x2="67" y2="171" stroke="black" stroke-width="2"/>
<line x1="130" y1="88" x2="200" y2="88" stroke="black" stroke-width="2"/>
<line x1="130" y1="106" x2="200" y2="106" stroke="black" stroke-width="2"/>
<line x1="130" y1="123" x2="200" y2="123" stroke="black" stroke-width="2"/>
<line x1="130" y1="140" x2="200" y2="140" stroke="black" stroke-width="2"/>
<line x1="130" y1="171" x2="200" y2="171" stroke="black" stroke-width="2"/>
<rect x="53.5" y="33.5" width="92" height="150" fill="white" stroke="black" stroke-width="3"/>
<path d="M64.4902 46.3398H61.4141L60.875 47.5938C60.7422 47.9023 60.6758 48.1328 60.6758 48.2852C60.6758 48.4062 60.7324 48.5137 60.8457 48.6074C60.9629 48.6973 61.2129 48.7559 61.5957 48.7832V49H59.0938V48.7832C59.4258 48.7246 59.6406 48.6484 59.7383 48.5547C59.9375 48.3672 60.1582 47.9863 60.4004 47.4121L63.1953 40.873H63.4004L66.166 47.4824C66.3887 48.0137 66.5898 48.3594 66.7695 48.5195C66.9531 48.6758 67.207 48.7637 67.5312 48.7832V49H64.3965V48.7832C64.7129 48.7676 64.9258 48.7148 65.0352 48.625C65.1484 48.5352 65.2051 48.4258 65.2051 48.2969C65.2051 48.125 65.127 47.8535 64.9707 47.4824L64.4902 46.3398ZM64.3262 45.9062L62.9785 42.6953L61.5957 45.9062H64.3262ZM68.1055 45.0742C68.1055 44.168 68.2422 43.3887 68.5156 42.7363C68.7891 42.0801 69.1523 41.5918 69.6055 41.2715C69.957 41.0176 70.3203 40.8906 70.6953 40.8906C71.3047 40.8906 71.8516 41.2012 72.3359 41.8223C72.9414 42.5918 73.2441 43.6348 73.2441 44.9512C73.2441 45.873 73.1113 46.6562 72.8457 47.3008C72.5801 47.9453 72.2402 48.4141 71.8262 48.707C71.416 48.9961 71.0195 49.1406 70.6367 49.1406C69.8789 49.1406 69.248 48.6934 68.7441 47.7988C68.3184 47.0449 68.1055 46.1367 68.1055 45.0742ZM69.2539 45.2207C69.2539 46.3145 69.3887 47.207 69.6582 47.8984C69.8809 48.4805 70.2129 48.7715 70.6543 48.7715C70.8652 48.7715 71.084 48.6777 71.3105 48.4902C71.5371 48.2988 71.709 47.9805 71.8262 47.5352C72.0059 46.8633 72.0957 45.916 72.0957 44.6934C72.0957 43.7871 72.002 43.0312 71.8145 42.4258C71.6738 41.9766 71.4922 41.6582 71.2695 41.4707C71.1094 41.3418 70.916 41.2773 70.6895 41.2773C70.4238 41.2773 70.1875 41.3965 69.9805 41.6348C69.6992 41.959 69.5078 42.4688 69.4062 43.1641C69.3047 43.8594 69.2539 44.5449 69.2539 45.2207Z" fill="black"/>
<path d="M64.4902 60.3398H61.4141L60.875 61.5938C60.7422 61.9023 60.6758 62.1328 60.6758 62.2852C60.6758 62.4062 60.7324 62.5137 60.8457 62.6074C60.9629 62.6973 61.2129 62.7559 61.5957 62.7832V63H59.0938V62.7832C59.4258 62.7246 59.6406 62.6484 59.7383 62.5547C59.9375 62.3672 60.1582 61.9863 60.4004 61.4121L63.1953 54.873H63.4004L66.166 61.4824C66.3887 62.0137 66.5898 62.3594 66.7695 62.5195C66.9531 62.6758 67.207 62.7637 67.5312 62.7832V63H64.3965V62.7832C64.7129 62.7676 64.9258 62.7148 65.0352 62.625C65.1484 62.5352 65.2051 62.4258 65.2051 62.2969C65.2051 62.125 65.127 61.8535 64.9707 61.4824L64.4902 60.3398ZM64.3262 59.9062L62.9785 56.6953L61.5957 59.9062H64.3262ZM69.0781 55.834L71.0117 54.8906H71.2051V61.5996C71.2051 62.0449 71.2227 62.3223 71.2578 62.4316C71.2969 62.541 71.375 62.625 71.4922 62.6836C71.6094 62.7422 71.8477 62.7754 72.207 62.7832V63H69.2188V62.7832C69.5938 62.7754 69.8359 62.7441 69.9453 62.6895C70.0547 62.6309 70.1309 62.5547 70.1738 62.4609C70.2168 62.3633 70.2383 62.0762 70.2383 61.5996V57.3105C70.2383 56.7324 70.2188 56.3613 70.1797 56.1973C70.1523 56.0723 70.1016 55.9805 70.0273 55.9219C69.957 55.8633 69.8711 55.834 69.7695 55.834C69.625 55.834 69.4238 55.8945 69.166 56.0156L69.0781 55.834Z" fill="black"/>
<path d="M64.4902 75.3398H61.4141L60.875 76.5938C60.7422 76.9023 60.6758 77.1328 60.6758 77.2852C60.6758 77.4062 60.7324 77.5137 60.8457 77.6074C60.9629 77.6973 61.2129 77.7559 61.5957 77.7832V78H59.0938V77.7832C59.4258 77.7246 59.6406 77.6484 59.7383 77.5547C59.9375 77.3672 60.1582 76.9863 60.4004 76.4121L63.1953 69.873H63.4004L66.166 76.4824C66.3887 77.0137 66.5898 77.3594 66.7695 77.5195C66.9531 77.6758 67.207 77.7637 67.5312 77.7832V78H64.3965V77.7832C64.7129 77.7676 64.9258 77.7148 65.0352 77.625C65.1484 77.5352 65.2051 77.4258 65.2051 77.2969C65.2051 77.125 65.127 76.8535 64.9707 76.4824L64.4902 75.3398ZM64.3262 74.9062L62.9785 71.6953L61.5957 74.9062H64.3262ZM73.1738 76.4707L72.6172 78H67.9297V77.7832C69.3086 76.5254 70.2793 75.498 70.8418 74.7012C71.4043 73.9043 71.6855 73.1758 71.6855 72.5156C71.6855 72.0117 71.5312 71.5977 71.2227 71.2734C70.9141 70.9492 70.5449 70.7871 70.1152 70.7871C69.7246 70.7871 69.373 70.9023 69.0605 71.1328C68.752 71.3594 68.5234 71.6934 68.375 72.1348H68.1582C68.2559 71.4121 68.5059 70.8574 68.9082 70.4707C69.3145 70.084 69.8203 69.8906 70.4258 69.8906C71.0703 69.8906 71.6074 70.0977 72.0371 70.5117C72.4707 70.9258 72.6875 71.4141 72.6875 71.9766C72.6875 72.3789 72.5938 72.7812 72.4062 73.1836C72.1172 73.8164 71.6484 74.4863 71 75.1934C70.0273 76.2559 69.4199 76.8965 69.1777 77.1152H71.252C71.6738 77.1152 71.9688 77.0996 72.1367 77.0684C72.3086 77.0371 72.4629 76.9746 72.5996 76.8809C72.7363 76.7832 72.8555 76.6465 72.957 76.4707H73.1738Z" fill="black"/>
<path d="M64.4902 90.3398H61.4141L60.875 91.5938C60.7422 91.9023 60.6758 92.1328 60.6758 92.2852C60.6758 92.4062 60.7324 92.5137 60.8457 92.6074C60.9629 92.6973 61.2129 92.7559 61.5957 92.7832V93H59.0938V92.7832C59.4258 92.7246 59.6406 92.6484 59.7383 92.5547C59.9375 92.3672 60.1582 91.9863 60.4004 91.4121L63.1953 84.873H63.4004L66.166 91.4824C66.3887 92.0137 66.5898 92.3594 66.7695 92.5195C66.9531 92.6758 67.207 92.7637 67.5312 92.7832V93H64.3965V92.7832C64.7129 92.7676 64.9258 92.7148 65.0352 92.625C65.1484 92.5352 65.2051 92.4258 65.2051 92.2969C65.2051 92.125 65.127 91.8535 64.9707 91.4824L64.4902 90.3398ZM64.3262 89.9062L62.9785 86.6953L61.5957 89.9062H64.3262ZM68.2812 86.5664C68.5078 86.0312 68.793 85.6191 69.1367 85.3301C69.4844 85.0371 69.916 84.8906 70.4316 84.8906C71.0684 84.8906 71.5566 85.0977 71.8965 85.5117C72.1543 85.8203 72.2832 86.1504 72.2832 86.502C72.2832 87.0801 71.9199 87.6777 71.1934 88.2949C71.6816 88.4863 72.0508 88.7598 72.3008 89.1152C72.5508 89.4707 72.6758 89.8887 72.6758 90.3691C72.6758 91.0566 72.457 91.6523 72.0195 92.1562C71.4492 92.8125 70.623 93.1406 69.541 93.1406C69.0059 93.1406 68.6406 93.0742 68.4453 92.9414C68.2539 92.8086 68.1582 92.666 68.1582 92.5137C68.1582 92.4004 68.2031 92.3008 68.293 92.2148C68.3867 92.1289 68.498 92.0859 68.627 92.0859C68.7246 92.0859 68.8242 92.1016 68.9258 92.1328C68.9922 92.1523 69.1426 92.2246 69.377 92.3496C69.6113 92.4707 69.7734 92.543 69.8633 92.5664C70.0078 92.6094 70.1621 92.6309 70.3262 92.6309C70.7246 92.6309 71.0703 92.4766 71.3633 92.168C71.6602 91.8594 71.8086 91.4941 71.8086 91.0723C71.8086 90.7637 71.7402 90.4629 71.6035 90.1699C71.502 89.9512 71.3906 89.7852 71.2695 89.6719C71.1016 89.5156 70.8711 89.375 70.5781 89.25C70.2852 89.1211 69.9863 89.0566 69.6816 89.0566H69.4941V88.8809C69.8027 88.8418 70.1113 88.7305 70.4199 88.5469C70.7324 88.3633 70.959 88.1426 71.0996 87.8848C71.2402 87.627 71.3105 87.3438 71.3105 87.0352C71.3105 86.6328 71.1836 86.3086 70.9297 86.0625C70.6797 85.8125 70.3672 85.6875 69.9922 85.6875C69.3867 85.6875 68.8809 86.0117 68.4746 86.6602L68.2812 86.5664Z" fill="black"/>
<path d="M64.543 109.945C65.0938 110.062 65.5059 110.25 65.7793 110.508C66.1582 110.867 66.3477 111.307 66.3477 111.826C66.3477 112.221 66.2227 112.6 65.9727 112.963C65.7227 113.322 65.3789 113.586 64.9414 113.754C64.5078 113.918 63.8438 114 62.9492 114H59.1992V113.783H59.498C59.8301 113.783 60.0684 113.678 60.2129 113.467C60.3027 113.33 60.3477 113.039 60.3477 112.594V107.461C60.3477 106.969 60.291 106.658 60.1777 106.529C60.0254 106.357 59.7988 106.271 59.498 106.271H59.1992V106.055H62.6328C63.2734 106.055 63.7871 106.102 64.1738 106.195C64.7598 106.336 65.207 106.586 65.5156 106.945C65.8242 107.301 65.9785 107.711 65.9785 108.176C65.9785 108.574 65.8574 108.932 65.6152 109.248C65.373 109.561 65.0156 109.793 64.543 109.945ZM61.4727 109.629C61.6172 109.656 61.7812 109.678 61.9648 109.693C62.1523 109.705 62.3574 109.711 62.5801 109.711C63.1504 109.711 63.5781 109.65 63.8633 109.529C64.1523 109.404 64.373 109.215 64.5254 108.961C64.6777 108.707 64.7539 108.43 64.7539 108.129C64.7539 107.664 64.5645 107.268 64.1855 106.939C63.8066 106.611 63.2539 106.447 62.5273 106.447C62.1367 106.447 61.7852 106.49 61.4727 106.576V109.629ZM61.4727 113.426C61.9258 113.531 62.373 113.584 62.8145 113.584C63.5215 113.584 64.0605 113.426 64.4316 113.109C64.8027 112.789 64.9883 112.395 64.9883 111.926C64.9883 111.617 64.9043 111.32 64.7363 111.035C64.5684 110.75 64.2949 110.525 63.916 110.361C63.5371 110.197 63.0684 110.115 62.5098 110.115C62.2676 110.115 62.0605 110.119 61.8887 110.127C61.7168 110.135 61.5781 110.148 61.4727 110.168V113.426ZM67.4375 110.074C67.4375 109.168 67.5742 108.389 67.8477 107.736C68.1211 107.08 68.4844 106.592 68.9375 106.271C69.2891 106.018 69.6523 105.891 70.0273 105.891C70.6367 105.891 71.1836 106.201 71.668 106.822C72.2734 107.592 72.5762 108.635 72.5762 109.951C72.5762 110.873 72.4434 111.656 72.1777 112.301C71.9121 112.945 71.5723 113.414 71.1582 113.707C70.748 113.996 70.3516 114.141 69.9688 114.141C69.2109 114.141 68.5801 113.693 68.0762 112.799C67.6504 112.045 67.4375 111.137 67.4375 110.074ZM68.5859 110.221C68.5859 111.314 68.7207 112.207 68.9902 112.898C69.2129 113.48 69.5449 113.771 69.9863 113.771C70.1973 113.771 70.416 113.678 70.6426 113.49C70.8691 113.299 71.041 112.98 71.1582 112.535C71.3379 111.863 71.4277 110.916 71.4277 109.693C71.4277 108.787 71.334 108.031 71.1465 107.426C71.0059 106.977 70.8242 106.658 70.6016 106.471C70.4414 106.342 70.248 106.277 70.0215 106.277C69.7559 106.277 69.5195 106.396 69.3125 106.635C69.0312 106.959 68.8398 107.469 68.7383 108.164C68.6367 108.859 68.5859 109.545 68.5859 110.221Z" fill="black"/>
<path d="M64.543 123.945C65.0938 124.062 65.5059 124.25 65.7793 124.508C66.1582 124.867 66.3477 125.307 66.3477 125.826C66.3477 126.221 66.2227 126.6 65.9727 126.963C65.7227 127.322 65.3789 127.586 64.9414 127.754C64.5078 127.918 63.8438 128 62.9492 128H59.1992V127.783H59.498C59.8301 127.783 60.0684 127.678 60.2129 127.467C60.3027 127.33 60.3477 127.039 60.3477 126.594V121.461C60.3477 120.969 60.291 120.658 60.1777 120.529C60.0254 120.357 59.7988 120.271 59.498 120.271H59.1992V120.055H62.6328C63.2734 120.055 63.7871 120.102 64.1738 120.195C64.7598 120.336 65.207 120.586 65.5156 120.945C65.8242 121.301 65.9785 121.711 65.9785 122.176C65.9785 122.574 65.8574 122.932 65.6152 123.248C65.373 123.561 65.0156 123.793 64.543 123.945ZM61.4727 123.629C61.6172 123.656 61.7812 123.678 61.9648 123.693C62.1523 123.705 62.3574 123.711 62.5801 123.711C63.1504 123.711 63.5781 123.65 63.8633 123.529C64.1523 123.404 64.373 123.215 64.5254 122.961C64.6777 122.707 64.7539 122.43 64.7539 122.129C64.7539 121.664 64.5645 121.268 64.1855 120.939C63.8066 120.611 63.2539 120.447 62.5273 120.447C62.1367 120.447 61.7852 120.49 61.4727 120.576V123.629ZM61.4727 127.426C61.9258 127.531 62.373 127.584 62.8145 127.584C63.5215 127.584 64.0605 127.426 64.4316 127.109C64.8027 126.789 64.9883 126.395 64.9883 125.926C64.9883 125.617 64.9043 125.32 64.7363 125.035C64.5684 124.75 64.2949 124.525 63.916 124.361C63.5371 124.197 63.0684 124.115 62.5098 124.115C62.2676 124.115 62.0605 124.119 61.8887 124.127C61.7168 124.135 61.5781 124.148 61.4727 124.168V127.426ZM68.4102 120.834L70.3438 119.891H70.5371V126.6C70.5371 127.045 70.5547 127.322 70.5898 127.432C70.6289 127.541 70.707 127.625 70.8242 127.684C70.9414 127.742 71.1797 127.775 71.5391 127.783V128H68.5508V127.783C68.9258 127.775 69.168 127.744 69.2773 127.689C69.3867 127.631 69.4629 127.555 69.5059 127.461C69.5488 127.363 69.5703 127.076 69.5703 126.6V122.311C69.5703 121.732 69.5508 121.361 69.5117 121.197C69.4844 121.072 69.4336 120.98 69.3594 120.922C69.2891 120.863 69.2031 120.834 69.1016 120.834C68.957 120.834 68.7559 120.895 68.498 121.016L68.4102 120.834Z" fill="black"/>
<path d="M64.543 138.945C65.0938 139.062 65.5059 139.25 65.7793 139.508C66.1582 139.867 66.3477 140.307 66.3477 140.826C66.3477 141.221 66.2227 141.6 65.9727 141.963C65.7227 142.322 65.3789 142.586 64.9414 142.754C64.5078 142.918 63.8438 143 62.9492 143H59.1992V142.783H59.498C59.8301 142.783 60.0684 142.678 60.2129 142.467C60.3027 142.33 60.3477 142.039 60.3477 141.594V136.461C60.3477 135.969 60.291 135.658 60.1777 135.529C60.0254 135.357 59.7988 135.271 59.498 135.271H59.1992V135.055H62.6328C63.2734 135.055 63.7871 135.102 64.1738 135.195C64.7598 135.336 65.207 135.586 65.5156 135.945C65.8242 136.301 65.9785 136.711 65.9785 137.176C65.9785 137.574 65.8574 137.932 65.6152 138.248C65.373 138.561 65.0156 138.793 64.543 138.945ZM61.4727 138.629C61.6172 138.656 61.7812 138.678 61.9648 138.693C62.1523 138.705 62.3574 138.711 62.5801 138.711C63.1504 138.711 63.5781 138.65 63.8633 138.529C64.1523 138.404 64.373 138.215 64.5254 137.961C64.6777 137.707 64.7539 137.43 64.7539 137.129C64.7539 136.664 64.5645 136.268 64.1855 135.939C63.8066 135.611 63.2539 135.447 62.5273 135.447C62.1367 135.447 61.7852 135.49 61.4727 135.576V138.629ZM61.4727 142.426C61.9258 142.531 62.373 142.584 62.8145 142.584C63.5215 142.584 64.0605 142.426 64.4316 142.109C64.8027 141.789 64.9883 141.395 64.9883 140.926C64.9883 140.617 64.9043 140.32 64.7363 140.035C64.5684 139.75 64.2949 139.525 63.916 139.361C63.5371 139.197 63.0684 139.115 62.5098 139.115C62.2676 139.115 62.0605 139.119 61.8887 139.127C61.7168 139.135 61.5781 139.148 61.4727 139.168V142.426ZM72.5059 141.471L71.9492 143H67.2617V142.783C68.6406 141.525 69.6113 140.498 70.1738 139.701C70.7363 138.904 71.0176 138.176 71.0176 137.516C71.0176 137.012 70.8633 136.598 70.5547 136.273C70.2461 135.949 69.877 135.787 69.4473 135.787C69.0566 135.787 68.7051 135.902 68.3926 136.133C68.084 136.359 67.8555 136.693 67.707 137.135H67.4902C67.5879 136.412 67.8379 135.857 68.2402 135.471C68.6465 135.084 69.1523 134.891 69.7578 134.891C70.4023 134.891 70.9395 135.098 71.3691 135.512C71.8027 135.926 72.0195 136.414 72.0195 136.977C72.0195 137.379 71.9258 137.781 71.7383 138.184C71.4492 138.816 70.9805 139.486 70.332 140.193C69.3594 141.256 68.752 141.896 68.5098 142.115H70.584C71.0059 142.115 71.3008 142.1 71.4688 142.068C71.6406 142.037 71.7949 141.975 71.9316 141.881C72.0684 141.783 72.1875 141.646 72.2891 141.471H72.5059Z" fill="black"/>
<path d="M64.543 153.945C65.0938 154.062 65.5059 154.25 65.7793 154.508C66.1582 154.867 66.3477 155.307 66.3477 155.826C66.3477 156.221 66.2227 156.6 65.9727 156.963C65.7227 157.322 65.3789 157.586 64.9414 157.754C64.5078 157.918 63.8438 158 62.9492 158H59.1992V157.783H59.498C59.8301 157.783 60.0684 157.678 60.2129 157.467C60.3027 157.33 60.3477 157.039 60.3477 156.594V151.461C60.3477 150.969 60.291 150.658 60.1777 150.529C60.0254 150.357 59.7988 150.271 59.498 150.271H59.1992V150.055H62.6328C63.2734 150.055 63.7871 150.102 64.1738 150.195C64.7598 150.336 65.207 150.586 65.5156 150.945C65.8242 151.301 65.9785 151.711 65.9785 152.176C65.9785 152.574 65.8574 152.932 65.6152 153.248C65.373 153.561 65.0156 153.793 64.543 153.945ZM61.4727 153.629C61.6172 153.656 61.7812 153.678 61.9648 153.693C62.1523 153.705 62.3574 153.711 62.5801 153.711C63.1504 153.711 63.5781 153.65 63.8633 153.529C64.1523 153.404 64.373 153.215 64.5254 152.961C64.6777 152.707 64.7539 152.43 64.7539 152.129C64.7539 151.664 64.5645 151.268 64.1855 150.939C63.8066 150.611 63.2539 150.447 62.5273 150.447C62.1367 150.447 61.7852 150.49 61.4727 150.576V153.629ZM61.4727 157.426C61.9258 157.531 62.373 157.584 62.8145 157.584C63.5215 157.584 64.0605 157.426 64.4316 157.109C64.8027 156.789 64.9883 156.395 64.9883 155.926C64.9883 155.617 64.9043 155.32 64.7363 155.035C64.5684 154.75 64.2949 154.525 63.916 154.361C63.5371 154.197 63.0684 154.115 62.5098 154.115C62.2676 154.115 62.0605 154.119 61.8887 154.127C61.7168 154.135 61.5781 154.148 61.4727 154.168V157.426ZM67.6133 151.566C67.8398 151.031 68.125 150.619 68.4688 150.33C68.8164 150.037 69.248 149.891 69.7637 149.891C70.4004 149.891 70.8887 150.098 71.2285 150.512C71.4863 150.82 71.6152 151.15 71.6152 151.502C71.6152 152.08 71.252 152.678 70.5254 153.295C71.0137 153.486 71.3828 153.76 71.6328 154.115C71.8828 154.471 72.0078 154.889 72.0078 155.369C72.0078 156.057 71.7891 156.652 71.3516 157.156C70.7812 157.812 69.9551 158.141 68.873 158.141C68.3379 158.141 67.9727 158.074 67.7773 157.941C67.5859 157.809 67.4902 157.666 67.4902 157.514C67.4902 157.4 67.5352 157.301 67.625 157.215C67.7188 157.129 67.8301 157.086 67.959 157.086C68.0566 157.086 68.1562 157.102 68.2578 157.133C68.3242 157.152 68.4746 157.225 68.709 157.35C68.9434 157.471 69.1055 157.543 69.1953 157.566C69.3398 157.609 69.4941 157.631 69.6582 157.631C70.0566 157.631 70.4023 157.477 70.6953 157.168C70.9922 156.859 71.1406 156.494 71.1406 156.072C71.1406 155.764 71.0723 155.463 70.9355 155.17C70.834 154.951 70.7227 154.785 70.6016 154.672C70.4336 154.516 70.2031 154.375 69.9102 154.25C69.6172 154.121 69.3184 154.057 69.0137 154.057H68.8262V153.881C69.1348 153.842 69.4434 153.73 69.752 153.547C70.0645 153.363 70.291 153.143 70.4316 152.885C70.5723 152.627 70.6426 152.344 70.6426 152.035C70.6426 151.633 70.5156 151.309 70.2617 151.062C70.0117 150.812 69.6992 150.688 69.3242 150.688C68.7188 150.688 68.2129 151.012 67.8066 151.66L67.6133 151.566Z" fill="black"/>
<path d="M66.2246 167.873L66.4062 170.574H66.2246C65.9824 169.766 65.6367 169.184 65.1875 168.828C64.7383 168.473 64.1992 168.295 63.5703 168.295C63.043 168.295 62.5664 168.43 62.1406 168.699C61.7148 168.965 61.3789 169.391 61.1328 169.977C60.8906 170.562 60.7695 171.291 60.7695 172.162C60.7695 172.881 60.8848 173.504 61.1152 174.031C61.3457 174.559 61.6914 174.963 62.1523 175.244C62.6172 175.525 63.1465 175.666 63.7402 175.666C64.2559 175.666 64.7109 175.557 65.1055 175.338C65.5 175.115 65.9336 174.676 66.4062 174.02L66.5879 174.137C66.1895 174.844 65.7246 175.361 65.1934 175.689C64.6621 176.018 64.0312 176.182 63.3008 176.182C61.9844 176.182 60.9648 175.693 60.2422 174.717C59.7031 173.99 59.4336 173.135 59.4336 172.15C59.4336 171.357 59.6113 170.629 59.9668 169.965C60.3223 169.301 60.8105 168.787 61.4316 168.424C62.0566 168.057 62.7383 167.873 63.4766 167.873C64.0508 167.873 64.6172 168.014 65.1758 168.295C65.3398 168.381 65.457 168.424 65.5273 168.424C65.6328 168.424 65.7246 168.387 65.8027 168.312C65.9043 168.207 65.9766 168.061 66.0195 167.873H66.2246ZM73.1094 178.59H66.9043V178.098H73.1094V178.59ZM76.707 175.783V176H73.3027V175.783H73.584C73.9121 175.783 74.1504 175.688 74.2988 175.496C74.3926 175.371 74.4395 175.07 74.4395 174.594V169.461C74.4395 169.059 74.4141 168.793 74.3633 168.664C74.3242 168.566 74.2441 168.482 74.123 168.412C73.9512 168.318 73.7715 168.271 73.584 168.271H73.3027V168.055H76.707V168.271H76.4199C76.0957 168.271 75.8594 168.367 75.7109 168.559C75.6133 168.684 75.5645 168.984 75.5645 169.461V174.594C75.5645 174.996 75.5898 175.262 75.6406 175.391C75.6797 175.488 75.7617 175.572 75.8867 175.643C76.0547 175.736 76.2324 175.783 76.4199 175.783H76.707ZM76.8418 168.055H78.998L83.8555 174.014V169.432C83.8555 168.943 83.8008 168.639 83.6914 168.518C83.5469 168.354 83.3184 168.271 83.0059 168.271H82.7305V168.055H85.4961V168.271H85.2148C84.8789 168.271 84.6406 168.373 84.5 168.576C84.4141 168.701 84.3711 168.986 84.3711 169.432V176.129H84.1602L78.9219 169.73V174.623C78.9219 175.111 78.9746 175.416 79.0801 175.537C79.2285 175.701 79.457 175.783 79.7656 175.783H80.0469V176H77.2812V175.783H77.5566C77.8965 175.783 78.1367 175.682 78.2773 175.479C78.3633 175.354 78.4062 175.068 78.4062 174.623V169.098C78.1758 168.828 78 168.65 77.8789 168.564C77.7617 168.479 77.5879 168.398 77.3574 168.324C77.2441 168.289 77.0723 168.271 76.8418 168.271V168.055Z" fill="black"/>
<path d="M132.502 84.873V87.6211H132.285C132.215 87.0938 132.088 86.6738 131.904 86.3613C131.725 86.0488 131.467 85.8008 131.131 85.6172C130.795 85.4336 130.447 85.3418 130.088 85.3418C129.682 85.3418 129.346 85.4668 129.08 85.7168C128.814 85.9629 128.682 86.2441 128.682 86.5605C128.682 86.8027 128.766 87.0234 128.934 87.2227C129.176 87.5156 129.752 87.9062 130.662 88.3945C131.404 88.793 131.91 89.0996 132.18 89.3145C132.453 89.5254 132.662 89.7754 132.807 90.0645C132.955 90.3535 133.029 90.6562 133.029 90.9727C133.029 91.5742 132.795 92.0938 132.326 92.5312C131.861 92.9648 131.262 93.1816 130.527 93.1816C130.297 93.1816 130.08 93.1641 129.877 93.1289C129.756 93.1094 129.504 93.0391 129.121 92.918C128.742 92.793 128.502 92.7305 128.4 92.7305C128.303 92.7305 128.225 92.7598 128.166 92.8184C128.111 92.877 128.07 92.998 128.043 93.1816H127.826V90.457H128.043C128.145 91.0273 128.281 91.4551 128.453 91.7402C128.625 92.0215 128.887 92.2559 129.238 92.4434C129.594 92.6309 129.982 92.7246 130.404 92.7246C130.893 92.7246 131.277 92.5957 131.559 92.3379C131.844 92.0801 131.986 91.7754 131.986 91.4238C131.986 91.2285 131.932 91.0312 131.822 90.832C131.717 90.6328 131.551 90.4473 131.324 90.2754C131.172 90.1582 130.756 89.9102 130.076 89.5312C129.396 89.1484 128.912 88.8438 128.623 88.6172C128.338 88.3906 128.121 88.1406 127.973 87.8672C127.824 87.5938 127.75 87.293 127.75 86.9648C127.75 86.3945 127.969 85.9043 128.406 85.4941C128.844 85.0801 129.4 84.873 130.076 84.873C130.498 84.873 130.945 84.9766 131.418 85.1836C131.637 85.2812 131.791 85.3301 131.881 85.3301C131.982 85.3301 132.064 85.3008 132.127 85.2422C132.193 85.1797 132.246 85.0566 132.285 84.873H132.502ZM134.113 89.0742C134.113 88.168 134.25 87.3887 134.523 86.7363C134.797 86.0801 135.16 85.5918 135.613 85.2715C135.965 85.0176 136.328 84.8906 136.703 84.8906C137.312 84.8906 137.859 85.2012 138.344 85.8223C138.949 86.5918 139.252 87.6348 139.252 88.9512C139.252 89.873 139.119 90.6562 138.854 91.3008C138.588 91.9453 138.248 92.4141 137.834 92.707C137.424 92.9961 137.027 93.1406 136.645 93.1406C135.887 93.1406 135.256 92.6934 134.752 91.7988C134.326 91.0449 134.113 90.1367 134.113 89.0742ZM135.262 89.2207C135.262 90.3145 135.396 91.207 135.666 91.8984C135.889 92.4805 136.221 92.7715 136.662 92.7715C136.873 92.7715 137.092 92.6777 137.318 92.4902C137.545 92.2988 137.717 91.9805 137.834 91.5352C138.014 90.8633 138.104 89.916 138.104 88.6934C138.104 87.7871 138.01 87.0312 137.822 86.4258C137.682 85.9766 137.5 85.6582 137.277 85.4707C137.117 85.3418 136.924 85.2773 136.697 85.2773C136.432 85.2773 136.195 85.3965 135.988 85.6348C135.707 85.959 135.516 86.4688 135.414 87.1641C135.312 87.8594 135.262 88.5449 135.262 89.2207Z" fill="black"/>
<path d="M132.502 101.873V104.621H132.285C132.215 104.094 132.088 103.674 131.904 103.361C131.725 103.049 131.467 102.801 131.131 102.617C130.795 102.434 130.447 102.342 130.088 102.342C129.682 102.342 129.346 102.467 129.08 102.717C128.814 102.963 128.682 103.244 128.682 103.561C128.682 103.803 128.766 104.023 128.934 104.223C129.176 104.516 129.752 104.906 130.662 105.395C131.404 105.793 131.91 106.1 132.18 106.314C132.453 106.525 132.662 106.775 132.807 107.064C132.955 107.354 133.029 107.656 133.029 107.973C133.029 108.574 132.795 109.094 132.326 109.531C131.861 109.965 131.262 110.182 130.527 110.182C130.297 110.182 130.08 110.164 129.877 110.129C129.756 110.109 129.504 110.039 129.121 109.918C128.742 109.793 128.502 109.73 128.4 109.73C128.303 109.73 128.225 109.76 128.166 109.818C128.111 109.877 128.07 109.998 128.043 110.182H127.826V107.457H128.043C128.145 108.027 128.281 108.455 128.453 108.74C128.625 109.021 128.887 109.256 129.238 109.443C129.594 109.631 129.982 109.725 130.404 109.725C130.893 109.725 131.277 109.596 131.559 109.338C131.844 109.08 131.986 108.775 131.986 108.424C131.986 108.229 131.932 108.031 131.822 107.832C131.717 107.633 131.551 107.447 131.324 107.275C131.172 107.158 130.756 106.91 130.076 106.531C129.396 106.148 128.912 105.844 128.623 105.617C128.338 105.391 128.121 105.141 127.973 104.867C127.824 104.594 127.75 104.293 127.75 103.965C127.75 103.395 127.969 102.904 128.406 102.494C128.844 102.08 129.4 101.873 130.076 101.873C130.498 101.873 130.945 101.977 131.418 102.184C131.637 102.281 131.791 102.33 131.881 102.33C131.982 102.33 132.064 102.301 132.127 102.242C132.193 102.18 132.246 102.057 132.285 101.873H132.502ZM135.086 102.834L137.02 101.891H137.213V108.6C137.213 109.045 137.23 109.322 137.266 109.432C137.305 109.541 137.383 109.625 137.5 109.684C137.617 109.742 137.855 109.775 138.215 109.783V110H135.227V109.783C135.602 109.775 135.844 109.744 135.953 109.689C136.062 109.631 136.139 109.555 136.182 109.461C136.225 109.363 136.246 109.076 136.246 108.6V104.311C136.246 103.732 136.227 103.361 136.188 103.197C136.16 103.072 136.109 102.98 136.035 102.922C135.965 102.863 135.879 102.834 135.777 102.834C135.633 102.834 135.432 102.895 135.174 103.016L135.086 102.834Z" fill="black"/>
<path d="M132.502 118.873V121.621H132.285C132.215 121.094 132.088 120.674 131.904 120.361C131.725 120.049 131.467 119.801 131.131 119.617C130.795 119.434 130.447 119.342 130.088 119.342C129.682 119.342 129.346 119.467 129.08 119.717C128.814 119.963 128.682 120.244 128.682 120.561C128.682 120.803 128.766 121.023 128.934 121.223C129.176 121.516 129.752 121.906 130.662 122.395C131.404 122.793 131.91 123.1 132.18 123.314C132.453 123.525 132.662 123.775 132.807 124.064C132.955 124.354 133.029 124.656 133.029 124.973C133.029 125.574 132.795 126.094 132.326 126.531C131.861 126.965 131.262 127.182 130.527 127.182C130.297 127.182 130.08 127.164 129.877 127.129C129.756 127.109 129.504 127.039 129.121 126.918C128.742 126.793 128.502 126.73 128.4 126.73C128.303 126.73 128.225 126.76 128.166 126.818C128.111 126.877 128.07 126.998 128.043 127.182H127.826V124.457H128.043C128.145 125.027 128.281 125.455 128.453 125.74C128.625 126.021 128.887 126.256 129.238 126.443C129.594 126.631 129.982 126.725 130.404 126.725C130.893 126.725 131.277 126.596 131.559 126.338C131.844 126.08 131.986 125.775 131.986 125.424C131.986 125.229 131.932 125.031 131.822 124.832C131.717 124.633 131.551 124.447 131.324 124.275C131.172 124.158 130.756 123.91 130.076 123.531C129.396 123.148 128.912 122.844 128.623 122.617C128.338 122.391 128.121 122.141 127.973 121.867C127.824 121.594 127.75 121.293 127.75 120.965C127.75 120.395 127.969 119.904 128.406 119.494C128.844 119.08 129.4 118.873 130.076 118.873C130.498 118.873 130.945 118.977 131.418 119.184C131.637 119.281 131.791 119.33 131.881 119.33C131.982 119.33 132.064 119.301 132.127 119.242C132.193 119.18 132.246 119.057 132.285 118.873H132.502ZM139.182 125.471L138.625 127H133.938V126.783C135.316 125.525 136.287 124.498 136.85 123.701C137.412 122.904 137.693 122.176 137.693 121.516C137.693 121.012 137.539 120.598 137.23 120.273C136.922 119.949 136.553 119.787 136.123 119.787C135.732 119.787 135.381 119.902 135.068 120.133C134.76 120.359 134.531 120.693 134.383 121.135H134.166C134.264 120.412 134.514 119.857 134.916 119.471C135.322 119.084 135.828 118.891 136.434 118.891C137.078 118.891 137.615 119.098 138.045 119.512C138.479 119.926 138.695 120.414 138.695 120.977C138.695 121.379 138.602 121.781 138.414 122.184C138.125 122.816 137.656 123.486 137.008 124.193C136.035 125.256 135.428 125.896 135.186 126.115H137.26C137.682 126.115 137.977 126.1 138.145 126.068C138.316 126.037 138.471 125.975 138.607 125.881C138.744 125.783 138.863 125.646 138.965 125.471H139.182Z" fill="black"/>
<path d="M132.502 135.873V138.621H132.285C132.215 138.094 132.088 137.674 131.904 137.361C131.725 137.049 131.467 136.801 131.131 136.617C130.795 136.434 130.447 136.342 130.088 136.342C129.682 136.342 129.346 136.467 129.08 136.717C128.814 136.963 128.682 137.244 128.682 137.561C128.682 137.803 128.766 138.023 128.934 138.223C129.176 138.516 129.752 138.906 130.662 139.395C131.404 139.793 131.91 140.1 132.18 140.314C132.453 140.525 132.662 140.775 132.807 141.064C132.955 141.354 133.029 141.656 133.029 141.973C133.029 142.574 132.795 143.094 132.326 143.531C131.861 143.965 131.262 144.182 130.527 144.182C130.297 144.182 130.08 144.164 129.877 144.129C129.756 144.109 129.504 144.039 129.121 143.918C128.742 143.793 128.502 143.73 128.4 143.73C128.303 143.73 128.225 143.76 128.166 143.818C128.111 143.877 128.07 143.998 128.043 144.182H127.826V141.457H128.043C128.145 142.027 128.281 142.455 128.453 142.74C128.625 143.021 128.887 143.256 129.238 143.443C129.594 143.631 129.982 143.725 130.404 143.725C130.893 143.725 131.277 143.596 131.559 143.338C131.844 143.08 131.986 142.775 131.986 142.424C131.986 142.229 131.932 142.031 131.822 141.832C131.717 141.633 131.551 141.447 131.324 141.275C131.172 141.158 130.756 140.91 130.076 140.531C129.396 140.148 128.912 139.844 128.623 139.617C128.338 139.391 128.121 139.141 127.973 138.867C127.824 138.594 127.75 138.293 127.75 137.965C127.75 137.395 127.969 136.904 128.406 136.494C128.844 136.08 129.4 135.873 130.076 135.873C130.498 135.873 130.945 135.977 131.418 136.184C131.637 136.281 131.791 136.33 131.881 136.33C131.982 136.33 132.064 136.301 132.127 136.242C132.193 136.18 132.246 136.057 132.285 135.873H132.502ZM134.289 137.566C134.516 137.031 134.801 136.619 135.145 136.33C135.492 136.037 135.924 135.891 136.439 135.891C137.076 135.891 137.564 136.098 137.904 136.512C138.162 136.82 138.291 137.15 138.291 137.502C138.291 138.08 137.928 138.678 137.201 139.295C137.689 139.486 138.059 139.76 138.309 140.115C138.559 140.471 138.684 140.889 138.684 141.369C138.684 142.057 138.465 142.652 138.027 143.156C137.457 143.812 136.631 144.141 135.549 144.141C135.014 144.141 134.648 144.074 134.453 143.941C134.262 143.809 134.166 143.666 134.166 143.514C134.166 143.4 134.211 143.301 134.301 143.215C134.395 143.129 134.506 143.086 134.635 143.086C134.732 143.086 134.832 143.102 134.934 143.133C135 143.152 135.15 143.225 135.385 143.35C135.619 143.471 135.781 143.543 135.871 143.566C136.016 143.609 136.17 143.631 136.334 143.631C136.732 143.631 137.078 143.477 137.371 143.168C137.668 142.859 137.816 142.494 137.816 142.072C137.816 141.764 137.748 141.463 137.611 141.17C137.51 140.951 137.398 140.785 137.277 140.672C137.109 140.516 136.879 140.375 136.586 140.25C136.293 140.121 135.994 140.057 135.689 140.057H135.502V139.881C135.811 139.842 136.119 139.73 136.428 139.547C136.74 139.363 136.967 139.143 137.107 138.885C137.248 138.627 137.318 138.344 137.318 138.035C137.318 137.633 137.191 137.309 136.938 137.062C136.688 136.812 136.375 136.688 136 136.688C135.395 136.688 134.889 137.012 134.482 137.66L134.289 137.566Z" fill="black"/>
<path d="M109.225 167.873L109.406 170.574H109.225C108.982 169.766 108.637 169.184 108.188 168.828C107.738 168.473 107.199 168.295 106.57 168.295C106.043 168.295 105.566 168.43 105.141 168.699C104.715 168.965 104.379 169.391 104.133 169.977C103.891 170.562 103.77 171.291 103.77 172.162C103.77 172.881 103.885 173.504 104.115 174.031C104.346 174.559 104.691 174.963 105.152 175.244C105.617 175.525 106.146 175.666 106.74 175.666C107.256 175.666 107.711 175.557 108.105 175.338C108.5 175.115 108.934 174.676 109.406 174.02L109.588 174.137C109.189 174.844 108.725 175.361 108.193 175.689C107.662 176.018 107.031 176.182 106.301 176.182C104.984 176.182 103.965 175.693 103.242 174.717C102.703 173.99 102.434 173.135 102.434 172.15C102.434 171.357 102.611 170.629 102.967 169.965C103.322 169.301 103.811 168.787 104.432 168.424C105.057 168.057 105.738 167.873 106.477 167.873C107.051 167.873 107.617 168.014 108.176 168.295C108.34 168.381 108.457 168.424 108.527 168.424C108.633 168.424 108.725 168.387 108.803 168.312C108.904 168.207 108.977 168.061 109.02 167.873H109.225ZM116.109 178.59H109.904V178.098H116.109V178.59ZM120.393 167.873C121.424 167.873 122.316 168.266 123.07 169.051C123.828 169.832 124.207 170.809 124.207 171.98C124.207 173.188 123.826 174.189 123.064 174.986C122.303 175.783 121.381 176.182 120.299 176.182C119.205 176.182 118.285 175.793 117.539 175.016C116.797 174.238 116.426 173.232 116.426 171.998C116.426 170.736 116.855 169.707 117.715 168.91C118.461 168.219 119.354 167.873 120.393 167.873ZM120.281 168.301C119.57 168.301 119 168.564 118.57 169.092C118.035 169.748 117.768 170.709 117.768 171.975C117.768 173.271 118.045 174.27 118.6 174.969C119.025 175.5 119.588 175.766 120.287 175.766C121.033 175.766 121.648 175.475 122.133 174.893C122.621 174.311 122.865 173.393 122.865 172.139C122.865 170.779 122.598 169.766 122.062 169.098C121.633 168.566 121.039 168.301 120.281 168.301ZM130.4 168.271V168.055H133.213V168.271H132.914C132.602 168.271 132.361 168.402 132.193 168.664C132.111 168.785 132.07 169.066 132.07 169.508V172.73C132.07 173.527 131.99 174.146 131.83 174.588C131.674 175.025 131.363 175.402 130.898 175.719C130.438 176.031 129.809 176.188 129.012 176.188C128.145 176.188 127.486 176.037 127.037 175.736C126.588 175.436 126.27 175.031 126.082 174.523C125.957 174.176 125.895 173.523 125.895 172.566V169.461C125.895 168.973 125.826 168.652 125.689 168.5C125.557 168.348 125.34 168.271 125.039 168.271H124.74V168.055H128.174V168.271H127.869C127.541 168.271 127.307 168.375 127.166 168.582C127.068 168.723 127.02 169.016 127.02 169.461V172.924C127.02 173.232 127.047 173.586 127.102 173.984C127.16 174.383 127.264 174.693 127.412 174.916C127.561 175.139 127.773 175.322 128.051 175.467C128.332 175.611 128.676 175.684 129.082 175.684C129.602 175.684 130.066 175.57 130.477 175.344C130.887 175.117 131.166 174.828 131.314 174.477C131.467 174.121 131.543 173.521 131.543 172.678V169.461C131.543 168.965 131.488 168.654 131.379 168.529C131.227 168.357 131 168.271 130.699 168.271H130.4ZM140.291 168.055L140.379 169.918H140.156C140.113 169.59 140.055 169.355 139.98 169.215C139.859 168.988 139.697 168.822 139.494 168.717C139.295 168.607 139.031 168.553 138.703 168.553H137.584V174.623C137.584 175.111 137.637 175.416 137.742 175.537C137.891 175.701 138.119 175.783 138.428 175.783H138.703V176H135.334V175.783H135.615C135.951 175.783 136.189 175.682 136.33 175.479C136.416 175.354 136.459 175.068 136.459 174.623V168.553H135.504C135.133 168.553 134.869 168.58 134.713 168.635C134.51 168.709 134.336 168.852 134.191 169.062C134.047 169.273 133.961 169.559 133.934 169.918H133.711L133.805 168.055H140.291Z" fill="black"/>
<path d="M52.6533 21.5586V22.252H51.7646V24H50.959V22.252H48.1562V21.627L51.2275 17.2422H51.7646V21.5586H52.6533ZM50.959 21.5586V18.2725L48.6348 21.5586H50.959ZM60.1191 20.6211C60.5781 20.7188 60.9215 20.875 61.1494 21.0898C61.4652 21.3893 61.623 21.7555 61.623 22.1885C61.623 22.5173 61.5189 22.833 61.3105 23.1357C61.1022 23.4352 60.8158 23.6549 60.4512 23.7949C60.0898 23.9316 59.5365 24 58.791 24H55.666V23.8193H55.915C56.1917 23.8193 56.3903 23.7314 56.5107 23.5557C56.5856 23.4417 56.623 23.1992 56.623 22.8281V18.5508C56.623 18.1406 56.5758 17.8818 56.4814 17.7744C56.3545 17.6312 56.1657 17.5596 55.915 17.5596H55.666V17.3789H58.5273C59.0612 17.3789 59.4893 17.418 59.8115 17.4961C60.2998 17.6133 60.6725 17.8216 60.9297 18.1211C61.1868 18.4173 61.3154 18.7591 61.3154 19.1465C61.3154 19.4785 61.2145 19.7764 61.0127 20.04C60.8109 20.3005 60.513 20.4941 60.1191 20.6211ZM57.5605 20.3574C57.681 20.3802 57.8177 20.3981 57.9707 20.4111C58.127 20.4209 58.2979 20.4258 58.4834 20.4258C58.9587 20.4258 59.3151 20.3753 59.5527 20.2744C59.7936 20.1702 59.9775 20.0124 60.1045 19.8008C60.2314 19.5892 60.2949 19.3581 60.2949 19.1074C60.2949 18.7201 60.137 18.3896 59.8213 18.1162C59.5055 17.8428 59.0449 17.7061 58.4395 17.7061C58.1139 17.7061 57.821 17.7419 57.5605 17.8135V20.3574ZM57.5605 23.5215C57.9382 23.6094 58.3109 23.6533 58.6787 23.6533C59.2679 23.6533 59.7171 23.5215 60.0264 23.2578C60.3356 22.9909 60.4902 22.6621 60.4902 22.2715C60.4902 22.0143 60.4202 21.7669 60.2803 21.5293C60.1403 21.2917 59.9124 21.1045 59.5967 20.9678C59.2809 20.8311 58.8903 20.7627 58.4248 20.7627C58.223 20.7627 58.0505 20.766 57.9072 20.7725C57.764 20.779 57.6484 20.7904 57.5605 20.8066V23.5215ZM63.6201 17.0566C63.7568 17.0566 63.8724 17.1055 63.9668 17.2031C64.0645 17.2975 64.1133 17.4131 64.1133 17.5498C64.1133 17.6865 64.0645 17.8037 63.9668 17.9014C63.8724 17.999 63.7568 18.0479 63.6201 18.0479C63.4834 18.0479 63.3662 17.999 63.2686 17.9014C63.1709 17.8037 63.1221 17.6865 63.1221 17.5498C63.1221 17.4131 63.1693 17.2975 63.2637 17.2031C63.3613 17.1055 63.4801 17.0566 63.6201 17.0566ZM64.0254 19.3955V22.9893C64.0254 23.2692 64.0449 23.4564 64.084 23.5508C64.1263 23.6419 64.1865 23.7103 64.2646 23.7559C64.346 23.8014 64.4925 23.8242 64.7041 23.8242V24H62.5312V23.8242C62.7493 23.8242 62.8958 23.8031 62.9707 23.7607C63.0456 23.7184 63.1042 23.6484 63.1465 23.5508C63.1921 23.4531 63.2148 23.266 63.2148 22.9893V21.2656C63.2148 20.7806 63.2002 20.4665 63.1709 20.3232C63.1481 20.2191 63.1123 20.1475 63.0635 20.1084C63.0146 20.0661 62.9479 20.0449 62.8633 20.0449C62.7721 20.0449 62.6615 20.0693 62.5312 20.1182L62.4629 19.9424L63.8105 19.3955H64.0254ZM66.5645 18.0576V19.5273H67.6094V19.8691H66.5645V22.7695C66.5645 23.0592 66.6051 23.2546 66.6865 23.3555C66.7712 23.4564 66.8786 23.5068 67.0088 23.5068C67.1162 23.5068 67.2204 23.4743 67.3213 23.4092C67.4222 23.3408 67.5003 23.2415 67.5557 23.1113H67.7461C67.6322 23.4303 67.471 23.6712 67.2627 23.834C67.0544 23.9935 66.8395 24.0732 66.6182 24.0732C66.4684 24.0732 66.3219 24.0326 66.1787 23.9512C66.0355 23.8665 65.9297 23.7477 65.8613 23.5947C65.793 23.4385 65.7588 23.1992 65.7588 22.877V19.8691H65.0508V19.708C65.2298 19.6364 65.4121 19.516 65.5977 19.3467C65.7865 19.1742 65.9541 18.9707 66.1006 18.7363C66.1755 18.6126 66.2796 18.3864 66.4131 18.0576H66.5645ZM76.9941 24H75.2266L72.9854 20.9043C72.8193 20.9108 72.6842 20.9141 72.5801 20.9141C72.5378 20.9141 72.4922 20.9141 72.4434 20.9141C72.3945 20.9108 72.3441 20.9076 72.292 20.9043V22.8281C72.292 23.2448 72.3376 23.5036 72.4287 23.6045C72.5524 23.7477 72.738 23.8193 72.9854 23.8193H73.2441V24H70.4072V23.8193H70.6562C70.9362 23.8193 71.1364 23.7282 71.2568 23.5459C71.3252 23.445 71.3594 23.2057 71.3594 22.8281V18.5508C71.3594 18.1341 71.3138 17.8753 71.2227 17.7744C71.0957 17.6312 70.9069 17.5596 70.6562 17.5596H70.4072V17.3789H72.8193C73.5225 17.3789 74.04 17.431 74.3721 17.5352C74.7074 17.6361 74.9906 17.8249 75.2217 18.1016C75.4561 18.375 75.5732 18.7021 75.5732 19.083C75.5732 19.4899 75.4398 19.8431 75.1729 20.1426C74.9092 20.4421 74.499 20.6536 73.9424 20.7773L75.3096 22.6768C75.6221 23.113 75.8906 23.4027 76.1152 23.5459C76.3398 23.6891 76.6328 23.7803 76.9941 23.8193V24ZM72.292 20.5967C72.3538 20.5967 72.4076 20.5983 72.4531 20.6016C72.4987 20.6016 72.5361 20.6016 72.5654 20.6016C73.1969 20.6016 73.6722 20.4648 73.9912 20.1914C74.3135 19.918 74.4746 19.5697 74.4746 19.1465C74.4746 18.7331 74.3444 18.3978 74.084 18.1406C73.8268 17.8802 73.485 17.75 73.0586 17.75C72.8698 17.75 72.6143 17.7809 72.292 17.8428V20.5967ZM78.3564 17.0566C78.4932 17.0566 78.6087 17.1055 78.7031 17.2031C78.8008 17.2975 78.8496 17.4131 78.8496 17.5498C78.8496 17.6865 78.8008 17.8037 78.7031 17.9014C78.6087 17.999 78.4932 18.0479 78.3564 18.0479C78.2197 18.0479 78.1025 17.999 78.0049 17.9014C77.9072 17.8037 77.8584 17.6865 77.8584 17.5498C77.8584 17.4131 77.9056 17.2975 78 17.2031C78.0977 17.1055 78.2165 17.0566 78.3564 17.0566ZM78.7617 19.3955V22.9893C78.7617 23.2692 78.7812 23.4564 78.8203 23.5508C78.8626 23.6419 78.9229 23.7103 79.001 23.7559C79.0824 23.8014 79.2288 23.8242 79.4404 23.8242V24H77.2676V23.8242C77.4857 23.8242 77.6322 23.8031 77.707 23.7607C77.7819 23.7184 77.8405 23.6484 77.8828 23.5508C77.9284 23.4531 77.9512 23.266 77.9512 22.9893V21.2656C77.9512 20.7806 77.9365 20.4665 77.9072 20.3232C77.8844 20.2191 77.8486 20.1475 77.7998 20.1084C77.751 20.0661 77.6842 20.0449 77.5996 20.0449C77.5085 20.0449 77.3978 20.0693 77.2676 20.1182L77.1992 19.9424L78.5469 19.3955H78.7617ZM79.6797 19.9717L81.0566 19.415H81.2422V20.46C81.4733 20.0661 81.7044 19.791 81.9355 19.6348C82.1699 19.4753 82.4157 19.3955 82.6729 19.3955C83.1221 19.3955 83.4964 19.5713 83.7959 19.9229C84.1637 20.3525 84.3477 20.9124 84.3477 21.6025C84.3477 22.374 84.1263 23.012 83.6836 23.5166C83.319 23.93 82.86 24.1367 82.3066 24.1367C82.0658 24.1367 81.8574 24.1025 81.6816 24.0342C81.5514 23.9854 81.4049 23.8877 81.2422 23.7412V25.1035C81.2422 25.4095 81.2601 25.6032 81.2959 25.6846C81.335 25.7692 81.4001 25.8359 81.4912 25.8848C81.5856 25.9336 81.7549 25.958 81.999 25.958V26.1387H79.6553V25.958H79.7773C79.9564 25.9613 80.1094 25.9271 80.2363 25.8555C80.2982 25.8197 80.3454 25.7611 80.3779 25.6797C80.4137 25.6016 80.4316 25.3997 80.4316 25.0742V20.8457C80.4316 20.556 80.4186 20.3721 80.3926 20.2939C80.3665 20.2158 80.3242 20.1572 80.2656 20.1182C80.2103 20.0791 80.1338 20.0596 80.0361 20.0596C79.958 20.0596 79.8587 20.0824 79.7383 20.1279L79.6797 19.9717ZM81.2422 20.748V22.418C81.2422 22.7793 81.2568 23.0169 81.2861 23.1309C81.3317 23.3197 81.4424 23.4857 81.6182 23.6289C81.7972 23.7721 82.0218 23.8438 82.292 23.8438C82.6175 23.8438 82.8812 23.7168 83.083 23.4629C83.3467 23.1309 83.4785 22.6637 83.4785 22.0615C83.4785 21.3779 83.3288 20.8522 83.0293 20.4844C82.821 20.2305 82.5736 20.1035 82.2871 20.1035C82.1309 20.1035 81.9762 20.1426 81.8232 20.2207C81.7061 20.2793 81.5124 20.4551 81.2422 20.748ZM84.6797 19.9717L86.0566 19.415H86.2422V20.46C86.4733 20.0661 86.7044 19.791 86.9355 19.6348C87.1699 19.4753 87.4157 19.3955 87.6729 19.3955C88.1221 19.3955 88.4964 19.5713 88.7959 19.9229C89.1637 20.3525 89.3477 20.9124 89.3477 21.6025C89.3477 22.374 89.1263 23.012 88.6836 23.5166C88.319 23.93 87.86 24.1367 87.3066 24.1367C87.0658 24.1367 86.8574 24.1025 86.6816 24.0342C86.5514 23.9854 86.4049 23.8877 86.2422 23.7412V25.1035C86.2422 25.4095 86.2601 25.6032 86.2959 25.6846C86.335 25.7692 86.4001 25.8359 86.4912 25.8848C86.5856 25.9336 86.7549 25.958 86.999 25.958V26.1387H84.6553V25.958H84.7773C84.9564 25.9613 85.1094 25.9271 85.2363 25.8555C85.2982 25.8197 85.3454 25.7611 85.3779 25.6797C85.4137 25.6016 85.4316 25.3997 85.4316 25.0742V20.8457C85.4316 20.556 85.4186 20.3721 85.3926 20.2939C85.3665 20.2158 85.3242 20.1572 85.2656 20.1182C85.2103 20.0791 85.1338 20.0596 85.0361 20.0596C84.958 20.0596 84.8587 20.0824 84.7383 20.1279L84.6797 19.9717ZM86.2422 20.748V22.418C86.2422 22.7793 86.2568 23.0169 86.2861 23.1309C86.3317 23.3197 86.4424 23.4857 86.6182 23.6289C86.7972 23.7721 87.0218 23.8438 87.292 23.8438C87.6175 23.8438 87.8812 23.7168 88.083 23.4629C88.3467 23.1309 88.4785 22.6637 88.4785 22.0615C88.4785 21.3779 88.3288 20.8522 88.0293 20.4844C87.821 20.2305 87.5736 20.1035 87.2871 20.1035C87.1309 20.1035 86.9762 20.1426 86.8232 20.2207C86.7061 20.2793 86.5124 20.4551 86.2422 20.748ZM91.54 17.0566V22.9893C91.54 23.2692 91.5596 23.4548 91.5986 23.5459C91.641 23.637 91.7044 23.707 91.7891 23.7559C91.8737 23.8014 92.0316 23.8242 92.2627 23.8242V24H90.0703V23.8242C90.2754 23.8242 90.4154 23.8031 90.4902 23.7607C90.5651 23.7184 90.6237 23.6484 90.666 23.5508C90.7083 23.4531 90.7295 23.266 90.7295 22.9893V18.9268C90.7295 18.4222 90.7181 18.113 90.6953 17.999C90.6725 17.8818 90.6351 17.8021 90.583 17.7598C90.5342 17.7174 90.4707 17.6963 90.3926 17.6963C90.3079 17.6963 90.2005 17.7223 90.0703 17.7744L89.9873 17.6035L91.3203 17.0566H91.54ZM93.5371 21.2119C93.5339 21.876 93.695 22.3968 94.0205 22.7744C94.346 23.152 94.7285 23.3408 95.168 23.3408C95.4609 23.3408 95.7148 23.2611 95.9297 23.1016C96.1478 22.9388 96.3301 22.6621 96.4766 22.2715L96.6279 22.3691C96.5596 22.8151 96.361 23.222 96.0322 23.5898C95.7035 23.9544 95.2917 24.1367 94.7969 24.1367C94.2598 24.1367 93.7992 23.9284 93.415 23.5117C93.0342 23.0918 92.8438 22.5286 92.8438 21.8223C92.8438 21.0573 93.0391 20.4616 93.4297 20.0352C93.8236 19.6055 94.3167 19.3906 94.9092 19.3906C95.4105 19.3906 95.8223 19.5566 96.1445 19.8887C96.4668 20.2174 96.6279 20.6585 96.6279 21.2119H93.5371ZM93.5371 20.9287H95.6074C95.5911 20.6423 95.557 20.4404 95.5049 20.3232C95.4235 20.141 95.3014 19.9977 95.1387 19.8936C94.9792 19.7894 94.8115 19.7373 94.6357 19.7373C94.3656 19.7373 94.123 19.8431 93.9082 20.0547C93.6966 20.263 93.5729 20.5544 93.5371 20.9287ZM105.437 17.2275L105.588 19.4785H105.437C105.235 18.8047 104.947 18.3197 104.572 18.0234C104.198 17.7272 103.749 17.5791 103.225 17.5791C102.785 17.5791 102.388 17.6914 102.033 17.916C101.678 18.1374 101.398 18.4922 101.193 18.9805C100.992 19.4688 100.891 20.0758 100.891 20.8018C100.891 21.4007 100.987 21.9199 101.179 22.3594C101.371 22.7988 101.659 23.1357 102.043 23.3701C102.43 23.6045 102.871 23.7217 103.366 23.7217C103.796 23.7217 104.175 23.6305 104.504 23.4482C104.833 23.2627 105.194 22.8965 105.588 22.3496L105.739 22.4473C105.407 23.0365 105.02 23.4678 104.577 23.7412C104.134 24.0146 103.609 24.1514 103 24.1514C101.903 24.1514 101.053 23.7445 100.451 22.9307C100.002 22.3252 99.7773 21.6123 99.7773 20.792C99.7773 20.1312 99.9255 19.5241 100.222 18.9707C100.518 18.4173 100.925 17.9893 101.442 17.6865C101.963 17.3805 102.531 17.2275 103.146 17.2275C103.625 17.2275 104.097 17.3447 104.562 17.5791C104.699 17.6507 104.797 17.6865 104.855 17.6865C104.943 17.6865 105.02 17.6556 105.085 17.5938C105.17 17.5059 105.23 17.3838 105.266 17.2275H105.437ZM108.933 23.3555C108.474 23.7103 108.186 23.9154 108.068 23.9707C107.893 24.0521 107.705 24.0928 107.507 24.0928C107.198 24.0928 106.942 23.987 106.74 23.7754C106.542 23.5638 106.442 23.2855 106.442 22.9404C106.442 22.7223 106.491 22.5335 106.589 22.374C106.722 22.1527 106.953 21.9443 107.282 21.749C107.614 21.5537 108.164 21.3161 108.933 21.0361V20.8604C108.933 20.4144 108.861 20.1084 108.718 19.9424C108.578 19.7764 108.373 19.6934 108.103 19.6934C107.897 19.6934 107.735 19.7487 107.614 19.8594C107.491 19.9701 107.429 20.097 107.429 20.2402L107.438 20.5234C107.438 20.6732 107.399 20.7887 107.321 20.8701C107.246 20.9515 107.147 20.9922 107.023 20.9922C106.903 20.9922 106.804 20.9499 106.726 20.8652C106.651 20.7806 106.613 20.665 106.613 20.5186C106.613 20.2386 106.757 19.9814 107.043 19.7471C107.329 19.5127 107.731 19.3955 108.249 19.3955C108.646 19.3955 108.972 19.4622 109.226 19.5957C109.418 19.6966 109.559 19.8545 109.65 20.0693C109.709 20.2093 109.738 20.4958 109.738 20.9287V22.4473C109.738 22.8737 109.746 23.1357 109.763 23.2334C109.779 23.3278 109.805 23.3913 109.841 23.4238C109.88 23.4564 109.924 23.4727 109.973 23.4727C110.025 23.4727 110.07 23.4613 110.109 23.4385C110.178 23.3962 110.31 23.2773 110.505 23.082V23.3555C110.14 23.8438 109.792 24.0879 109.46 24.0879C109.3 24.0879 109.174 24.0326 109.079 23.9219C108.985 23.8112 108.936 23.6224 108.933 23.3555ZM108.933 23.0381V21.334C108.441 21.5293 108.124 21.6676 107.98 21.749C107.723 21.8923 107.539 22.042 107.429 22.1982C107.318 22.3545 107.263 22.5254 107.263 22.7109C107.263 22.9453 107.333 23.1406 107.473 23.2969C107.613 23.4499 107.774 23.5264 107.956 23.5264C108.203 23.5264 108.529 23.3636 108.933 23.0381ZM112.15 19.3955V20.4014C112.525 19.7308 112.909 19.3955 113.303 19.3955C113.482 19.3955 113.63 19.4508 113.747 19.5615C113.864 19.6689 113.923 19.7943 113.923 19.9375C113.923 20.0645 113.881 20.1719 113.796 20.2598C113.711 20.3477 113.61 20.3916 113.493 20.3916C113.379 20.3916 113.251 20.3363 113.107 20.2256C112.967 20.1117 112.863 20.0547 112.795 20.0547C112.736 20.0547 112.673 20.0872 112.604 20.1523C112.458 20.2858 112.307 20.5055 112.15 20.8115V22.9551C112.15 23.2025 112.181 23.3896 112.243 23.5166C112.285 23.6045 112.36 23.6777 112.468 23.7363C112.575 23.7949 112.73 23.8242 112.932 23.8242V24H110.642V23.8242C110.869 23.8242 111.039 23.7884 111.149 23.7168C111.231 23.6647 111.288 23.5817 111.32 23.4678C111.337 23.4124 111.345 23.2546 111.345 22.9941V21.2607C111.345 20.7399 111.333 20.4307 111.311 20.333C111.291 20.2321 111.252 20.1589 111.193 20.1133C111.138 20.0677 111.068 20.0449 110.983 20.0449C110.882 20.0449 110.769 20.0693 110.642 20.1182L110.593 19.9424L111.945 19.3955H112.15ZM115.48 19.3955V20.4014C115.855 19.7308 116.239 19.3955 116.633 19.3955C116.812 19.3955 116.96 19.4508 117.077 19.5615C117.194 19.6689 117.253 19.7943 117.253 19.9375C117.253 20.0645 117.211 20.1719 117.126 20.2598C117.041 20.3477 116.94 20.3916 116.823 20.3916C116.709 20.3916 116.581 20.3363 116.438 20.2256C116.298 20.1117 116.193 20.0547 116.125 20.0547C116.066 20.0547 116.003 20.0872 115.935 20.1523C115.788 20.2858 115.637 20.5055 115.48 20.8115V22.9551C115.48 23.2025 115.511 23.3896 115.573 23.5166C115.616 23.6045 115.69 23.6777 115.798 23.7363C115.905 23.7949 116.06 23.8242 116.262 23.8242V24H113.972V23.8242C114.2 23.8242 114.369 23.7884 114.479 23.7168C114.561 23.6647 114.618 23.5817 114.65 23.4678C114.667 23.4124 114.675 23.2546 114.675 22.9941V21.2607C114.675 20.7399 114.663 20.4307 114.641 20.333C114.621 20.2321 114.582 20.1589 114.523 20.1133C114.468 20.0677 114.398 20.0449 114.313 20.0449C114.213 20.0449 114.099 20.0693 113.972 20.1182L113.923 19.9424L115.275 19.3955H115.48ZM117.248 19.5273H119.333V19.708H119.23C119.084 19.708 118.973 19.7406 118.898 19.8057C118.827 19.8675 118.791 19.9456 118.791 20.04C118.791 20.167 118.845 20.3428 118.952 20.5674L120.041 22.8232L121.042 20.3525C121.097 20.2191 121.125 20.0872 121.125 19.957C121.125 19.8984 121.114 19.8545 121.091 19.8252C121.065 19.7894 121.024 19.7617 120.969 19.7422C120.913 19.7194 120.816 19.708 120.676 19.708V19.5273H122.131V19.708C122.01 19.721 121.918 19.7471 121.853 19.7861C121.787 19.8252 121.716 19.8984 121.638 20.0059C121.608 20.0514 121.553 20.1768 121.472 20.3818L119.65 24.8447C119.475 25.2777 119.243 25.6048 118.957 25.8262C118.674 26.0475 118.4 26.1582 118.137 26.1582C117.945 26.1582 117.787 26.1029 117.663 25.9922C117.539 25.8815 117.478 25.7546 117.478 25.6113C117.478 25.4746 117.521 25.3639 117.609 25.2793C117.701 25.1979 117.824 25.1572 117.98 25.1572C118.088 25.1572 118.234 25.193 118.42 25.2646C118.55 25.3135 118.632 25.3379 118.664 25.3379C118.762 25.3379 118.868 25.2874 118.981 25.1865C119.099 25.0856 119.216 24.8903 119.333 24.6006L119.65 23.8242L118.044 20.4502C117.995 20.3493 117.917 20.224 117.81 20.0742C117.728 19.9603 117.661 19.8838 117.609 19.8447C117.535 19.7926 117.414 19.7471 117.248 19.708V19.5273ZM128.708 21.7832H126.145L125.695 22.8281C125.585 23.0853 125.529 23.2773 125.529 23.4043C125.529 23.5052 125.576 23.5947 125.671 23.6729C125.769 23.7477 125.977 23.7965 126.296 23.8193V24H124.211V23.8193C124.488 23.7705 124.667 23.707 124.748 23.6289C124.914 23.4727 125.098 23.1553 125.3 22.6768L127.629 17.2275H127.8L130.104 22.7354C130.29 23.1781 130.458 23.4661 130.607 23.5996C130.76 23.7298 130.972 23.8031 131.242 23.8193V24H128.63V23.8193C128.894 23.8063 129.071 23.7624 129.162 23.6875C129.257 23.6126 129.304 23.5215 129.304 23.4141C129.304 23.2708 129.239 23.0446 129.108 22.7354L128.708 21.7832ZM128.571 21.4219L127.448 18.7461L126.296 21.4219H128.571ZM134.831 23.4971C134.613 23.7249 134.4 23.8893 134.191 23.9902C133.983 24.0879 133.758 24.1367 133.518 24.1367C133.029 24.1367 132.603 23.9333 132.238 23.5264C131.874 23.1162 131.691 22.5905 131.691 21.9492C131.691 21.3079 131.893 20.722 132.297 20.1914C132.701 19.6576 133.22 19.3906 133.854 19.3906C134.248 19.3906 134.574 19.516 134.831 19.7666V18.9414C134.831 18.4303 134.818 18.1162 134.792 17.999C134.769 17.8818 134.732 17.8021 134.68 17.7598C134.628 17.7174 134.562 17.6963 134.484 17.6963C134.4 17.6963 134.287 17.7223 134.147 17.7744L134.084 17.6035L135.417 17.0566H135.637V22.2275C135.637 22.7516 135.648 23.0723 135.671 23.1895C135.697 23.3034 135.736 23.3831 135.788 23.4287C135.843 23.4743 135.907 23.4971 135.979 23.4971C136.066 23.4971 136.184 23.4694 136.33 23.4141L136.384 23.585L135.056 24.1367H134.831V23.4971ZM134.831 23.1553V20.8506C134.812 20.6292 134.753 20.4274 134.655 20.2451C134.558 20.0628 134.427 19.9261 134.265 19.835C134.105 19.7406 133.949 19.6934 133.796 19.6934C133.509 19.6934 133.254 19.8219 133.029 20.0791C132.733 20.4176 132.585 20.9124 132.585 21.5635C132.585 22.221 132.728 22.7256 133.015 23.0771C133.301 23.4255 133.62 23.5996 133.972 23.5996C134.268 23.5996 134.554 23.4515 134.831 23.1553ZM139.831 23.4971C139.613 23.7249 139.4 23.8893 139.191 23.9902C138.983 24.0879 138.758 24.1367 138.518 24.1367C138.029 24.1367 137.603 23.9333 137.238 23.5264C136.874 23.1162 136.691 22.5905 136.691 21.9492C136.691 21.3079 136.893 20.722 137.297 20.1914C137.701 19.6576 138.22 19.3906 138.854 19.3906C139.248 19.3906 139.574 19.516 139.831 19.7666V18.9414C139.831 18.4303 139.818 18.1162 139.792 17.999C139.769 17.8818 139.732 17.8021 139.68 17.7598C139.628 17.7174 139.562 17.6963 139.484 17.6963C139.4 17.6963 139.287 17.7223 139.147 17.7744L139.084 17.6035L140.417 17.0566H140.637V22.2275C140.637 22.7516 140.648 23.0723 140.671 23.1895C140.697 23.3034 140.736 23.3831 140.788 23.4287C140.843 23.4743 140.907 23.4971 140.979 23.4971C141.066 23.4971 141.184 23.4694 141.33 23.4141L141.384 23.585L140.056 24.1367H139.831V23.4971ZM139.831 23.1553V20.8506C139.812 20.6292 139.753 20.4274 139.655 20.2451C139.558 20.0628 139.427 19.9261 139.265 19.835C139.105 19.7406 138.949 19.6934 138.796 19.6934C138.509 19.6934 138.254 19.8219 138.029 20.0791C137.733 20.4176 137.585 20.9124 137.585 21.5635C137.585 22.221 137.728 22.7256 138.015 23.0771C138.301 23.4255 138.62 23.5996 138.972 23.5996C139.268 23.5996 139.554 23.4515 139.831 23.1553ZM142.424 21.2119C142.421 21.876 142.582 22.3968 142.907 22.7744C143.233 23.152 143.615 23.3408 144.055 23.3408C144.348 23.3408 144.602 23.2611 144.816 23.1016C145.035 22.9388 145.217 22.6621 145.363 22.2715L145.515 22.3691C145.446 22.8151 145.248 23.222 144.919 23.5898C144.59 23.9544 144.178 24.1367 143.684 24.1367C143.146 24.1367 142.686 23.9284 142.302 23.5117C141.921 23.0918 141.73 22.5286 141.73 21.8223C141.73 21.0573 141.926 20.4616 142.316 20.0352C142.71 19.6055 143.203 19.3906 143.796 19.3906C144.297 19.3906 144.709 19.5566 145.031 19.8887C145.354 20.2174 145.515 20.6585 145.515 21.2119H142.424ZM142.424 20.9287H144.494C144.478 20.6423 144.444 20.4404 144.392 20.3232C144.31 20.141 144.188 19.9977 144.025 19.8936C143.866 19.7894 143.698 19.7373 143.522 19.7373C143.252 19.7373 143.01 19.8431 142.795 20.0547C142.583 20.263 142.46 20.5544 142.424 20.9287ZM147.424 19.3955V20.4014C147.798 19.7308 148.182 19.3955 148.576 19.3955C148.755 19.3955 148.903 19.4508 149.021 19.5615C149.138 19.6689 149.196 19.7943 149.196 19.9375C149.196 20.0645 149.154 20.1719 149.069 20.2598C148.985 20.3477 148.884 20.3916 148.767 20.3916C148.653 20.3916 148.524 20.3363 148.381 20.2256C148.241 20.1117 148.137 20.0547 148.068 20.0547C148.01 20.0547 147.946 20.0872 147.878 20.1523C147.731 20.2858 147.58 20.5055 147.424 20.8115V22.9551C147.424 23.2025 147.455 23.3896 147.517 23.5166C147.559 23.6045 147.634 23.6777 147.741 23.7363C147.849 23.7949 148.003 23.8242 148.205 23.8242V24H145.915V23.8242C146.143 23.8242 146.312 23.7884 146.423 23.7168C146.504 23.6647 146.561 23.5817 146.594 23.4678C146.61 23.4124 146.618 23.2546 146.618 22.9941V21.2607C146.618 20.7399 146.607 20.4307 146.584 20.333C146.564 20.2321 146.525 20.1589 146.467 20.1133C146.411 20.0677 146.341 20.0449 146.257 20.0449C146.156 20.0449 146.042 20.0693 145.915 20.1182L145.866 19.9424L147.219 19.3955H147.424Z" fill="black"/>
</svg>
