<svg width="200" height="200" viewBox="0 0 200 200" fill="none" xmlns="http://www.w3.org/2000/svg">
<rect width="200" height="200" fill="white"/>
<path d="M79.6533 21.5586V22.252H78.7646V24H77.959V22.252H75.1562V21.627L78.2275 17.2422H78.7646V21.5586H79.6533ZM77.959 21.5586V18.2725L75.6348 21.5586H77.959ZM82.6318 19.5273H84.7363V19.708C84.6029 19.708 84.5085 19.7308 84.4531 19.7764C84.401 19.8219 84.375 19.8822 84.375 19.957C84.375 20.0352 84.432 20.1556 84.5459 20.3184C84.5817 20.3704 84.6354 20.4518 84.707 20.5625L85.0244 21.0703L85.3906 20.5625C85.625 20.2402 85.7422 20.0368 85.7422 19.9521C85.7422 19.8838 85.7145 19.8268 85.6592 19.7812C85.6038 19.7324 85.5143 19.708 85.3906 19.708V19.5273H86.9043V19.708C86.7448 19.7178 86.6064 19.7617 86.4893 19.8398C86.3298 19.9505 86.1117 20.1914 85.835 20.5625L85.2246 21.3779L86.3379 22.9795C86.6113 23.3734 86.8066 23.611 86.9238 23.6924C87.041 23.7705 87.1924 23.8145 87.3779 23.8242V24H85.2686V23.8242C85.415 23.8242 85.529 23.7917 85.6104 23.7266C85.6722 23.681 85.7031 23.6208 85.7031 23.5459C85.7031 23.471 85.599 23.2822 85.3906 22.9795L84.7363 22.0225L84.0186 22.9795C83.7972 23.2757 83.6865 23.4515 83.6865 23.5068C83.6865 23.585 83.7223 23.6566 83.7939 23.7217C83.8688 23.7835 83.9795 23.8177 84.126 23.8242V24H82.666V23.8242C82.7832 23.8079 82.8857 23.7673 82.9736 23.7021C83.0973 23.6077 83.3057 23.3669 83.5986 22.9795L84.5361 21.7344L83.6865 20.5039C83.4456 20.1523 83.2585 19.9326 83.125 19.8447C82.9948 19.7536 82.8304 19.708 82.6318 19.708V19.5273ZM91.1719 18.0283L92.7832 17.2422H92.9443V22.833C92.9443 23.2041 92.959 23.4352 92.9883 23.5264C93.0208 23.6175 93.0859 23.6875 93.1836 23.7363C93.2812 23.7852 93.4798 23.8128 93.7793 23.8193V24H91.2891V23.8193C91.6016 23.8128 91.8034 23.7868 91.8945 23.7412C91.9857 23.6924 92.0492 23.6289 92.085 23.5508C92.1208 23.4694 92.1387 23.2301 92.1387 22.833V19.2588C92.1387 18.777 92.1224 18.4678 92.0898 18.3311C92.0671 18.2269 92.0247 18.1504 91.9629 18.1016C91.9043 18.0527 91.8327 18.0283 91.748 18.0283C91.6276 18.0283 91.46 18.0788 91.2451 18.1797L91.1719 18.0283ZM101.592 24L99.0332 18.4287V22.8525C99.0332 23.2594 99.0771 23.5133 99.165 23.6143C99.2855 23.751 99.4759 23.8193 99.7363 23.8193H99.9707V24H97.666V23.8193H97.9004C98.1803 23.8193 98.3789 23.7347 98.4961 23.5654C98.5677 23.4613 98.6035 23.2236 98.6035 22.8525V18.5264C98.6035 18.2334 98.571 18.0218 98.5059 17.8916C98.4603 17.7972 98.3757 17.7191 98.252 17.6572C98.1315 17.5921 97.9362 17.5596 97.666 17.5596V17.3789H99.541L101.943 22.5596L104.307 17.3789H106.182V17.5596H105.952C105.669 17.5596 105.469 17.6442 105.352 17.8135C105.28 17.9176 105.244 18.1553 105.244 18.5264V22.8525C105.244 23.2594 105.29 23.5133 105.381 23.6143C105.501 23.751 105.692 23.8193 105.952 23.8193H106.182V24H103.369V23.8193H103.604C103.887 23.8193 104.085 23.7347 104.199 23.5654C104.271 23.4613 104.307 23.2236 104.307 22.8525V18.4287L101.753 24H101.592ZM111.167 17.5596V17.3789H113.511V17.5596H113.262C113.001 17.5596 112.801 17.6686 112.661 17.8867C112.593 17.9876 112.559 18.222 112.559 18.5898V21.2754C112.559 21.9395 112.492 22.4554 112.358 22.8232C112.228 23.1878 111.969 23.502 111.582 23.7656C111.198 24.026 110.674 24.1562 110.01 24.1562C109.287 24.1562 108.739 24.0309 108.364 23.7803C107.99 23.5296 107.725 23.1927 107.568 22.7695C107.464 22.4798 107.412 21.9362 107.412 21.1387V18.5508C107.412 18.1439 107.355 17.877 107.241 17.75C107.131 17.623 106.95 17.5596 106.699 17.5596H106.45V17.3789H109.312V17.5596H109.058C108.784 17.5596 108.589 17.6458 108.472 17.8184C108.39 17.9355 108.35 18.1797 108.35 18.5508V21.4365C108.35 21.6937 108.372 21.9883 108.418 22.3203C108.467 22.6523 108.553 22.9111 108.677 23.0967C108.8 23.2822 108.978 23.4352 109.209 23.5557C109.443 23.6761 109.73 23.7363 110.068 23.7363C110.501 23.7363 110.889 23.6419 111.23 23.4531C111.572 23.2643 111.805 23.0234 111.929 22.7305C112.056 22.4342 112.119 21.9346 112.119 21.2314V18.5508C112.119 18.1374 112.074 17.8786 111.982 17.7744C111.855 17.6312 111.667 17.5596 111.416 17.5596H111.167ZM117.705 20.333L119.126 22.4521C119.52 23.0381 119.811 23.4092 120 23.5654C120.192 23.7184 120.435 23.8031 120.728 23.8193V24H117.886V23.8193C118.075 23.8161 118.215 23.7965 118.306 23.7607C118.374 23.7314 118.429 23.6875 118.472 23.6289C118.517 23.5671 118.54 23.5052 118.54 23.4434C118.54 23.3685 118.525 23.2936 118.496 23.2188C118.473 23.1634 118.384 23.0202 118.228 22.7891L117.104 21.0898L115.718 22.8672C115.571 23.056 115.483 23.1829 115.454 23.248C115.425 23.3099 115.41 23.375 115.41 23.4434C115.41 23.5475 115.454 23.6338 115.542 23.7021C115.63 23.7705 115.798 23.8096 116.045 23.8193V24H113.696V23.8193C113.862 23.8031 114.006 23.7689 114.126 23.7168C114.328 23.6322 114.52 23.5182 114.702 23.375C114.884 23.2318 115.093 23.012 115.327 22.7158L116.89 20.7432L115.586 18.834C115.231 18.3164 114.93 17.9779 114.683 17.8184C114.435 17.6556 114.15 17.5693 113.828 17.5596V17.3789H116.89V17.5596C116.629 17.5693 116.45 17.6117 116.353 17.6865C116.258 17.7614 116.211 17.8444 116.211 17.9355C116.211 18.056 116.289 18.2318 116.445 18.4629L117.461 19.9814L118.638 18.4922C118.774 18.3164 118.857 18.196 118.887 18.1309C118.919 18.0658 118.936 17.999 118.936 17.9307C118.936 17.8623 118.916 17.8021 118.877 17.75C118.828 17.6816 118.766 17.6344 118.691 17.6084C118.617 17.5791 118.462 17.5628 118.228 17.5596V17.3789H120.576V17.5596C120.391 17.5693 120.239 17.5986 120.122 17.6475C119.946 17.7223 119.785 17.8232 119.639 17.9502C119.492 18.0771 119.285 18.3115 119.019 18.6533L117.705 20.333Z" fill="black"/>
<path d="M60.5 40.1415L145.5 71.0506V129.938L60.5 159.881V40.1415Z" fill="white" stroke="black" stroke-width="3"/>
<line x1="60" y1="68" y2="68" stroke="black" stroke-width="2"/>
<line x1="200" y1="101" x2="145" y2="101" stroke="black" stroke-width="2"/>
<line x1="60" y1="136" y2="136" stroke="black" stroke-width="2"/>
<line x1="60" y1="113" y2="113" stroke="black" stroke-width="2"/>
<line x1="60" y1="91" y2="91" stroke="black" stroke-width="2"/>
<line x1="99" y1="183" x2="99" y2="147" stroke="black" stroke-width="2"/>
<line x1="116" y1="183" x2="116" y2="140" stroke="black" stroke-width="2"/>
<path d="M131.766 96.3789H134.075V96.5596H133.948C133.864 96.5596 133.74 96.597 133.577 96.6719C133.414 96.7467 133.266 96.8542 133.133 96.9941C132.999 97.1341 132.835 97.362 132.64 97.6777L131.043 100.192V101.853C131.043 102.259 131.089 102.513 131.18 102.614C131.303 102.751 131.499 102.819 131.766 102.819H131.98V103H129.168V102.819H129.402C129.682 102.819 129.881 102.735 129.998 102.565C130.07 102.461 130.105 102.224 130.105 101.853V100.285L128.289 97.5117C128.074 97.1862 127.928 96.9827 127.85 96.9014C127.775 96.82 127.617 96.7223 127.376 96.6084C127.311 96.5758 127.216 96.5596 127.093 96.5596V96.3789H129.925V96.5596H129.778C129.625 96.5596 129.484 96.5954 129.354 96.667C129.227 96.7386 129.163 96.846 129.163 96.9893C129.163 97.1064 129.262 97.318 129.461 97.624L130.843 99.7578L132.142 97.7168C132.337 97.4108 132.435 97.1829 132.435 97.0332C132.435 96.9421 132.41 96.8607 132.361 96.7891C132.316 96.7174 132.249 96.6621 132.161 96.623C132.073 96.5807 131.941 96.5596 131.766 96.5596V96.3789Z" fill="black"/>
<path d="M66.1709 71V70.8193H66.4199C66.6999 70.8193 66.8984 70.7298 67.0156 70.5508C67.0872 70.4434 67.123 70.2025 67.123 69.8281V65.5508C67.123 65.1374 67.0775 64.8786 66.9863 64.7744C66.8594 64.6312 66.6706 64.5596 66.4199 64.5596H66.1709V64.3789H68.8662C69.8558 64.3789 70.6077 64.4912 71.1221 64.7158C71.6396 64.9404 72.0547 65.3148 72.3672 65.8389C72.6829 66.363 72.8408 66.9684 72.8408 67.6553C72.8408 68.5765 72.5609 69.3464 72.001 69.9648C71.3727 70.6549 70.4157 71 69.1299 71H66.1709ZM68.0605 70.5215C68.474 70.6126 68.8206 70.6582 69.1006 70.6582C69.8558 70.6582 70.4824 70.3929 70.9805 69.8623C71.4785 69.3317 71.7275 68.6123 71.7275 67.7041C71.7275 66.7894 71.4785 66.0684 70.9805 65.541C70.4824 65.0137 69.8428 64.75 69.0615 64.75C68.7686 64.75 68.4349 64.7972 68.0605 64.8916V70.5215ZM73.5879 67.7285C73.5879 66.9733 73.7018 66.3239 73.9297 65.7803C74.1576 65.2334 74.4603 64.8265 74.8379 64.5596C75.1309 64.348 75.4336 64.2422 75.7461 64.2422C76.2539 64.2422 76.7096 64.501 77.1133 65.0186C77.6178 65.6598 77.8701 66.529 77.8701 67.626C77.8701 68.3942 77.7594 69.0469 77.5381 69.584C77.3167 70.1211 77.0335 70.5117 76.6885 70.7559C76.3467 70.9967 76.0163 71.1172 75.6973 71.1172C75.0658 71.1172 74.54 70.7445 74.1201 69.999C73.7653 69.3708 73.5879 68.6139 73.5879 67.7285ZM74.5449 67.8506C74.5449 68.762 74.6572 69.5059 74.8818 70.082C75.0674 70.5671 75.3441 70.8096 75.7119 70.8096C75.8877 70.8096 76.07 70.7314 76.2588 70.5752C76.4476 70.4157 76.5908 70.1504 76.6885 69.7793C76.8382 69.2194 76.9131 68.43 76.9131 67.4111C76.9131 66.6559 76.835 66.026 76.6787 65.5215C76.5615 65.1471 76.4102 64.8818 76.2246 64.7256C76.0911 64.6182 75.93 64.5645 75.7412 64.5645C75.5199 64.5645 75.3229 64.6637 75.1504 64.8623C74.916 65.1325 74.7565 65.5573 74.6719 66.1367C74.5872 66.7161 74.5449 67.2874 74.5449 67.8506Z" fill="black"/>
<path d="M96.585 133.228V135.518H96.4043C96.3457 135.078 96.2399 134.728 96.0869 134.468C95.9372 134.207 95.7223 134.001 95.4424 133.848C95.1624 133.695 94.8727 133.618 94.5732 133.618C94.2347 133.618 93.9548 133.722 93.7334 133.931C93.512 134.136 93.4014 134.37 93.4014 134.634C93.4014 134.836 93.4714 135.02 93.6113 135.186C93.8132 135.43 94.2933 135.755 95.0518 136.162C95.6702 136.494 96.0918 136.75 96.3164 136.929C96.5443 137.104 96.7184 137.313 96.8389 137.554C96.9626 137.795 97.0244 138.047 97.0244 138.311C97.0244 138.812 96.8291 139.245 96.4385 139.609C96.0511 139.971 95.5514 140.151 94.9395 140.151C94.7474 140.151 94.5667 140.137 94.3975 140.107C94.2965 140.091 94.0866 140.033 93.7676 139.932C93.4518 139.827 93.2516 139.775 93.167 139.775C93.0856 139.775 93.0205 139.8 92.9717 139.849C92.9261 139.897 92.8919 139.998 92.8691 140.151H92.6885V137.881H92.8691C92.9538 138.356 93.0677 138.713 93.2109 138.95C93.3542 139.185 93.5723 139.38 93.8652 139.536C94.1615 139.692 94.4854 139.771 94.8369 139.771C95.2438 139.771 95.5645 139.663 95.7988 139.448C96.0365 139.233 96.1553 138.979 96.1553 138.687C96.1553 138.524 96.1097 138.359 96.0186 138.193C95.9307 138.027 95.7923 137.873 95.6035 137.729C95.4766 137.632 95.1299 137.425 94.5635 137.109C93.9971 136.79 93.5934 136.536 93.3525 136.348C93.1149 136.159 92.9342 135.951 92.8105 135.723C92.6868 135.495 92.625 135.244 92.625 134.971C92.625 134.495 92.8073 134.087 93.1719 133.745C93.5365 133.4 94.0003 133.228 94.5635 133.228C94.915 133.228 95.2878 133.314 95.6816 133.486C95.8639 133.568 95.9925 133.608 96.0674 133.608C96.152 133.608 96.2204 133.584 96.2725 133.535C96.3278 133.483 96.3717 133.381 96.4043 133.228H96.585ZM97.9277 136.729C97.9277 135.973 98.0417 135.324 98.2695 134.78C98.4974 134.233 98.8001 133.826 99.1777 133.56C99.4707 133.348 99.7734 133.242 100.086 133.242C100.594 133.242 101.049 133.501 101.453 134.019C101.958 134.66 102.21 135.529 102.21 136.626C102.21 137.394 102.099 138.047 101.878 138.584C101.657 139.121 101.373 139.512 101.028 139.756C100.687 139.997 100.356 140.117 100.037 140.117C99.4056 140.117 98.8799 139.744 98.46 138.999C98.1051 138.371 97.9277 137.614 97.9277 136.729ZM98.8848 136.851C98.8848 137.762 98.9971 138.506 99.2217 139.082C99.4072 139.567 99.6839 139.81 100.052 139.81C100.228 139.81 100.41 139.731 100.599 139.575C100.787 139.416 100.931 139.15 101.028 138.779C101.178 138.219 101.253 137.43 101.253 136.411C101.253 135.656 101.175 135.026 101.019 134.521C100.901 134.147 100.75 133.882 100.564 133.726C100.431 133.618 100.27 133.564 100.081 133.564C99.8597 133.564 99.6628 133.664 99.4902 133.862C99.2559 134.132 99.0964 134.557 99.0117 135.137C98.9271 135.716 98.8848 136.287 98.8848 136.851Z" fill="black"/>
<path d="M113.585 127.228V129.518H113.404C113.346 129.078 113.24 128.728 113.087 128.468C112.937 128.207 112.722 128.001 112.442 127.848C112.162 127.695 111.873 127.618 111.573 127.618C111.235 127.618 110.955 127.722 110.733 127.931C110.512 128.136 110.401 128.37 110.401 128.634C110.401 128.836 110.471 129.02 110.611 129.186C110.813 129.43 111.293 129.755 112.052 130.162C112.67 130.494 113.092 130.75 113.316 130.929C113.544 131.104 113.718 131.313 113.839 131.554C113.963 131.795 114.024 132.047 114.024 132.311C114.024 132.812 113.829 133.245 113.438 133.609C113.051 133.971 112.551 134.151 111.939 134.151C111.747 134.151 111.567 134.137 111.397 134.107C111.297 134.091 111.087 134.033 110.768 133.932C110.452 133.827 110.252 133.775 110.167 133.775C110.086 133.775 110.021 133.8 109.972 133.849C109.926 133.897 109.892 133.998 109.869 134.151H109.688V131.881H109.869C109.954 132.356 110.068 132.713 110.211 132.95C110.354 133.185 110.572 133.38 110.865 133.536C111.161 133.692 111.485 133.771 111.837 133.771C112.244 133.771 112.564 133.663 112.799 133.448C113.036 133.233 113.155 132.979 113.155 132.687C113.155 132.524 113.11 132.359 113.019 132.193C112.931 132.027 112.792 131.873 112.604 131.729C112.477 131.632 112.13 131.425 111.563 131.109C110.997 130.79 110.593 130.536 110.353 130.348C110.115 130.159 109.934 129.951 109.811 129.723C109.687 129.495 109.625 129.244 109.625 128.971C109.625 128.495 109.807 128.087 110.172 127.745C110.536 127.4 111 127.228 111.563 127.228C111.915 127.228 112.288 127.314 112.682 127.486C112.864 127.568 112.993 127.608 113.067 127.608C113.152 127.608 113.22 127.584 113.272 127.535C113.328 127.483 113.372 127.381 113.404 127.228H113.585ZM115.738 128.028L117.35 127.242H117.511V132.833C117.511 133.204 117.525 133.435 117.555 133.526C117.587 133.618 117.652 133.688 117.75 133.736C117.848 133.785 118.046 133.813 118.346 133.819V134H115.855V133.819C116.168 133.813 116.37 133.787 116.461 133.741C116.552 133.692 116.616 133.629 116.651 133.551C116.687 133.469 116.705 133.23 116.705 132.833V129.259C116.705 128.777 116.689 128.468 116.656 128.331C116.633 128.227 116.591 128.15 116.529 128.102C116.471 128.053 116.399 128.028 116.314 128.028C116.194 128.028 116.026 128.079 115.812 128.18L115.738 128.028Z" fill="black"/>
<path d="M66.1709 140V139.819H66.4199C66.6999 139.819 66.8984 139.73 67.0156 139.551C67.0872 139.443 67.123 139.202 67.123 138.828V134.551C67.123 134.137 67.0775 133.879 66.9863 133.774C66.8594 133.631 66.6706 133.56 66.4199 133.56H66.1709V133.379H68.8662C69.8558 133.379 70.6077 133.491 71.1221 133.716C71.6396 133.94 72.0547 134.315 72.3672 134.839C72.6829 135.363 72.8408 135.968 72.8408 136.655C72.8408 137.576 72.5609 138.346 72.001 138.965C71.3727 139.655 70.4157 140 69.1299 140H66.1709ZM68.0605 139.521C68.474 139.613 68.8206 139.658 69.1006 139.658C69.8558 139.658 70.4824 139.393 70.9805 138.862C71.4785 138.332 71.7275 137.612 71.7275 136.704C71.7275 135.789 71.4785 135.068 70.9805 134.541C70.4824 134.014 69.8428 133.75 69.0615 133.75C68.7686 133.75 68.4349 133.797 68.0605 133.892V139.521ZM73.7344 134.639C73.9232 134.193 74.1608 133.849 74.4473 133.608C74.737 133.364 75.0967 133.242 75.5264 133.242C76.057 133.242 76.4639 133.415 76.7471 133.76C76.9619 134.017 77.0693 134.292 77.0693 134.585C77.0693 135.067 76.7666 135.565 76.1611 136.079C76.568 136.239 76.8757 136.466 77.084 136.763C77.2923 137.059 77.3965 137.407 77.3965 137.808C77.3965 138.381 77.2142 138.877 76.8496 139.297C76.3743 139.844 75.6859 140.117 74.7842 140.117C74.3382 140.117 74.0339 140.062 73.8711 139.951C73.7116 139.84 73.6318 139.722 73.6318 139.595C73.6318 139.5 73.6693 139.417 73.7441 139.346C73.8223 139.274 73.915 139.238 74.0225 139.238C74.1038 139.238 74.1868 139.251 74.2715 139.277C74.3268 139.294 74.4521 139.354 74.6475 139.458C74.8428 139.559 74.9779 139.619 75.0527 139.639C75.1732 139.674 75.3018 139.692 75.4385 139.692C75.7705 139.692 76.0586 139.564 76.3027 139.307C76.5501 139.049 76.6738 138.745 76.6738 138.394C76.6738 138.136 76.6169 137.886 76.5029 137.642C76.4183 137.459 76.3255 137.321 76.2246 137.227C76.0846 137.096 75.8926 136.979 75.6484 136.875C75.4043 136.768 75.1553 136.714 74.9014 136.714H74.7451V136.567C75.0023 136.535 75.2594 136.442 75.5166 136.289C75.777 136.136 75.9658 135.952 76.083 135.737C76.2002 135.522 76.2588 135.286 76.2588 135.029C76.2588 134.694 76.153 134.424 75.9414 134.219C75.7331 134.01 75.4727 133.906 75.1602 133.906C74.6556 133.906 74.234 134.176 73.8955 134.717L73.7344 134.639Z" fill="black"/>
<path d="M66.1709 117V116.819H66.4199C66.6999 116.819 66.8984 116.73 67.0156 116.551C67.0872 116.443 67.123 116.202 67.123 115.828V111.551C67.123 111.137 67.0775 110.879 66.9863 110.774C66.8594 110.631 66.6706 110.56 66.4199 110.56H66.1709V110.379H68.8662C69.8558 110.379 70.6077 110.491 71.1221 110.716C71.6396 110.94 72.0547 111.315 72.3672 111.839C72.6829 112.363 72.8408 112.968 72.8408 113.655C72.8408 114.576 72.5609 115.346 72.001 115.965C71.3727 116.655 70.4157 117 69.1299 117H66.1709ZM68.0605 116.521C68.474 116.613 68.8206 116.658 69.1006 116.658C69.8558 116.658 70.4824 116.393 70.9805 115.862C71.4785 115.332 71.7275 114.612 71.7275 113.704C71.7275 112.789 71.4785 112.068 70.9805 111.541C70.4824 111.014 69.8428 110.75 69.0615 110.75C68.7686 110.75 68.4349 110.797 68.0605 110.892V116.521ZM77.8115 115.726L77.3477 117H73.4414V116.819C74.5905 115.771 75.3994 114.915 75.8682 114.251C76.3369 113.587 76.5713 112.98 76.5713 112.43C76.5713 112.01 76.4427 111.665 76.1855 111.395C75.9284 111.124 75.6208 110.989 75.2627 110.989C74.9372 110.989 74.6442 111.085 74.3838 111.277C74.1266 111.466 73.9362 111.744 73.8125 112.112H73.6318C73.7132 111.51 73.9215 111.048 74.2568 110.726C74.5954 110.403 75.0169 110.242 75.5215 110.242C76.0586 110.242 76.5062 110.415 76.8643 110.76C77.2256 111.105 77.4062 111.512 77.4062 111.98C77.4062 112.316 77.3281 112.651 77.1719 112.986C76.931 113.514 76.5404 114.072 76 114.661C75.1895 115.547 74.6833 116.08 74.4814 116.263H76.21C76.5615 116.263 76.8073 116.25 76.9473 116.224C77.0905 116.198 77.2191 116.146 77.333 116.067C77.4469 115.986 77.5462 115.872 77.6309 115.726H77.8115Z" fill="black"/>
<path d="M66.1709 94V93.8193H66.4199C66.6999 93.8193 66.8984 93.7298 67.0156 93.5508C67.0872 93.4434 67.123 93.2025 67.123 92.8281V88.5508C67.123 88.1374 67.0775 87.8786 66.9863 87.7744C66.8594 87.6312 66.6706 87.5596 66.4199 87.5596H66.1709V87.3789H68.8662C69.8558 87.3789 70.6077 87.4912 71.1221 87.7158C71.6396 87.9404 72.0547 88.3148 72.3672 88.8389C72.6829 89.363 72.8408 89.9684 72.8408 90.6553C72.8408 91.5765 72.5609 92.3464 72.001 92.9648C71.3727 93.6549 70.4157 94 69.1299 94H66.1709ZM68.0605 93.5215C68.474 93.6126 68.8206 93.6582 69.1006 93.6582C69.8558 93.6582 70.4824 93.3929 70.9805 92.8623C71.4785 92.3317 71.7275 91.6123 71.7275 90.7041C71.7275 89.7894 71.4785 89.0684 70.9805 88.541C70.4824 88.0137 69.8428 87.75 69.0615 87.75C68.7686 87.75 68.4349 87.7972 68.0605 87.8916V93.5215ZM74.3984 88.0283L76.0098 87.2422H76.1709V92.833C76.1709 93.2041 76.1855 93.4352 76.2148 93.5264C76.2474 93.6175 76.3125 93.6875 76.4102 93.7363C76.5078 93.7852 76.7064 93.8128 77.0059 93.8193V94H74.5156V93.8193C74.8281 93.8128 75.0299 93.7868 75.1211 93.7412C75.2122 93.6924 75.2757 93.6289 75.3115 93.5508C75.3473 93.4694 75.3652 93.2301 75.3652 92.833V89.2588C75.3652 88.777 75.349 88.4678 75.3164 88.3311C75.2936 88.2269 75.2513 88.1504 75.1895 88.1016C75.1309 88.0527 75.0592 88.0283 74.9746 88.0283C74.8542 88.0283 74.6865 88.0788 74.4717 88.1797L74.3984 88.0283Z" fill="black"/>
</svg>
