<svg width="200" height="200" viewBox="0 0 200 200" fill="none" xmlns="http://www.w3.org/2000/svg">
<g clip-path="url(#clip0_2_75)">
<rect width="200" height="200" fill="white"/>
<rect x="51.5" y="41.5" width="97" height="117" fill="white" stroke="black" stroke-width="3"/>
<path d="M64.2246 135.873L64.4062 138.574H64.2246C63.9824 137.766 63.6367 137.184 63.1875 136.828C62.7383 136.473 62.1992 136.295 61.5703 136.295C61.043 136.295 60.5664 136.43 60.1406 136.699C59.7148 136.965 59.3789 137.391 59.1328 137.977C58.8906 138.562 58.7695 139.291 58.7695 140.162C58.7695 140.881 58.8848 141.504 59.1152 142.031C59.3457 142.559 59.6914 142.963 60.1523 143.244C60.6172 143.525 61.1465 143.666 61.7402 143.666C62.2559 143.666 62.7109 143.557 63.1055 143.338C63.5 143.115 63.9336 142.676 64.4062 142.02L64.5879 142.137C64.1895 142.844 63.7246 143.361 63.1934 143.689C62.6621 144.018 62.0312 144.182 61.3008 144.182C59.9844 144.182 58.9648 143.693 58.2422 142.717C57.7031 141.99 57.4336 141.135 57.4336 140.15C57.4336 139.357 57.6113 138.629 57.9668 137.965C58.3223 137.301 58.8105 136.787 59.4316 136.424C60.0566 136.057 60.7383 135.873 61.4766 135.873C62.0508 135.873 62.6172 136.014 63.1758 136.295C63.3398 136.381 63.457 136.424 63.5273 136.424C63.6328 136.424 63.7246 136.387 63.8027 136.312C63.9043 136.207 63.9766 136.061 64.0195 135.873H64.2246ZM71.1094 146.59H64.9043V146.098H71.1094V146.59ZM74.707 143.783V144H71.3027V143.783H71.584C71.9121 143.783 72.1504 143.688 72.2988 143.496C72.3926 143.371 72.4395 143.07 72.4395 142.594V137.461C72.4395 137.059 72.4141 136.793 72.3633 136.664C72.3242 136.566 72.2441 136.482 72.123 136.412C71.9512 136.318 71.7715 136.271 71.584 136.271H71.3027V136.055H74.707V136.271H74.4199C74.0957 136.271 73.8594 136.367 73.7109 136.559C73.6133 136.684 73.5645 136.984 73.5645 137.461V142.594C73.5645 142.996 73.5898 143.262 73.6406 143.391C73.6797 143.488 73.7617 143.572 73.8867 143.643C74.0547 143.736 74.2324 143.783 74.4199 143.783H74.707ZM74.8418 136.055H76.998L81.8555 142.014V137.432C81.8555 136.943 81.8008 136.639 81.6914 136.518C81.5469 136.354 81.3184 136.271 81.0059 136.271H80.7305V136.055H83.4961V136.271H83.2148C82.8789 136.271 82.6406 136.373 82.5 136.576C82.4141 136.701 82.3711 136.986 82.3711 137.432V144.129H82.1602L76.9219 137.73V142.623C76.9219 143.111 76.9746 143.416 77.0801 143.537C77.2285 143.701 77.457 143.783 77.7656 143.783H78.0469V144H75.2812V143.783H75.5566C75.8965 143.783 76.1367 143.682 76.2773 143.479C76.3633 143.354 76.4062 143.068 76.4062 142.623V137.098C76.1758 136.828 76 136.65 75.8789 136.564C75.7617 136.479 75.5879 136.398 75.3574 136.324C75.2441 136.289 75.0723 136.271 74.8418 136.271V136.055Z" fill="black"/>
<path d="M63.543 99.9453C64.0938 100.062 64.5059 100.25 64.7793 100.508C65.1582 100.867 65.3477 101.307 65.3477 101.826C65.3477 102.221 65.2227 102.6 64.9727 102.963C64.7227 103.322 64.3789 103.586 63.9414 103.754C63.5078 103.918 62.8438 104 61.9492 104H58.1992V103.783H58.498C58.8301 103.783 59.0684 103.678 59.2129 103.467C59.3027 103.33 59.3477 103.039 59.3477 102.594V97.4609C59.3477 96.9688 59.291 96.6582 59.1777 96.5293C59.0254 96.3574 58.7988 96.2715 58.498 96.2715H58.1992V96.0547H61.6328C62.2734 96.0547 62.7871 96.1016 63.1738 96.1953C63.7598 96.3359 64.207 96.5859 64.5156 96.9453C64.8242 97.3008 64.9785 97.7109 64.9785 98.1758C64.9785 98.5742 64.8574 98.9316 64.6152 99.248C64.373 99.5605 64.0156 99.793 63.543 99.9453ZM60.4727 99.6289C60.6172 99.6562 60.7812 99.6777 60.9648 99.6934C61.1523 99.7051 61.3574 99.7109 61.5801 99.7109C62.1504 99.7109 62.5781 99.6504 62.8633 99.5293C63.1523 99.4043 63.373 99.2148 63.5254 98.9609C63.6777 98.707 63.7539 98.4297 63.7539 98.1289C63.7539 97.6641 63.5645 97.2676 63.1855 96.9395C62.8066 96.6113 62.2539 96.4473 61.5273 96.4473C61.1367 96.4473 60.7852 96.4902 60.4727 96.5762V99.6289ZM60.4727 103.426C60.9258 103.531 61.373 103.584 61.8145 103.584C62.5215 103.584 63.0605 103.426 63.4316 103.109C63.8027 102.789 63.9883 102.395 63.9883 101.926C63.9883 101.617 63.9043 101.32 63.7363 101.035C63.5684 100.75 63.2949 100.525 62.916 100.361C62.5371 100.197 62.0684 100.115 61.5098 100.115C61.2676 100.115 61.0605 100.119 60.8887 100.127C60.7168 100.135 60.5781 100.148 60.4727 100.168V103.426Z" fill="black"/>
<path d="M63.4902 61.3398H60.4141L59.875 62.5938C59.7422 62.9023 59.6758 63.1328 59.6758 63.2852C59.6758 63.4062 59.7324 63.5137 59.8457 63.6074C59.9629 63.6973 60.2129 63.7559 60.5957 63.7832V64H58.0938V63.7832C58.4258 63.7246 58.6406 63.6484 58.7383 63.5547C58.9375 63.3672 59.1582 62.9863 59.4004 62.4121L62.1953 55.873H62.4004L65.166 62.4824C65.3887 63.0137 65.5898 63.3594 65.7695 63.5195C65.9531 63.6758 66.207 63.7637 66.5312 63.7832V64H63.3965V63.7832C63.7129 63.7676 63.9258 63.7148 64.0352 63.625C64.1484 63.5352 64.2051 63.4258 64.2051 63.2969C64.2051 63.125 64.127 62.8535 63.9707 62.4824L63.4902 61.3398ZM63.3262 60.9062L61.9785 57.6953L60.5957 60.9062H63.3262Z" fill="black"/>
<path d="M140.502 55.873V58.6211H140.285C140.215 58.0938 140.088 57.6738 139.904 57.3613C139.725 57.0488 139.467 56.8008 139.131 56.6172C138.795 56.4336 138.447 56.3418 138.088 56.3418C137.682 56.3418 137.346 56.4668 137.08 56.7168C136.814 56.9629 136.682 57.2441 136.682 57.5605C136.682 57.8027 136.766 58.0234 136.934 58.2227C137.176 58.5156 137.752 58.9062 138.662 59.3945C139.404 59.793 139.91 60.0996 140.18 60.3145C140.453 60.5254 140.662 60.7754 140.807 61.0645C140.955 61.3535 141.029 61.6562 141.029 61.9727C141.029 62.5742 140.795 63.0938 140.326 63.5312C139.861 63.9648 139.262 64.1816 138.527 64.1816C138.297 64.1816 138.08 64.1641 137.877 64.1289C137.756 64.1094 137.504 64.0391 137.121 63.918C136.742 63.793 136.502 63.7305 136.4 63.7305C136.303 63.7305 136.225 63.7598 136.166 63.8184C136.111 63.877 136.07 63.998 136.043 64.1816H135.826V61.457H136.043C136.145 62.0273 136.281 62.4551 136.453 62.7402C136.625 63.0215 136.887 63.2559 137.238 63.4434C137.594 63.6309 137.982 63.7246 138.404 63.7246C138.893 63.7246 139.277 63.5957 139.559 63.3379C139.844 63.0801 139.986 62.7754 139.986 62.4238C139.986 62.2285 139.932 62.0312 139.822 61.832C139.717 61.6328 139.551 61.4473 139.324 61.2754C139.172 61.1582 138.756 60.9102 138.076 60.5312C137.396 60.1484 136.912 59.8438 136.623 59.6172C136.338 59.3906 136.121 59.1406 135.973 58.8672C135.824 58.5938 135.75 58.293 135.75 57.9648C135.75 57.3945 135.969 56.9043 136.406 56.4941C136.844 56.0801 137.4 55.873 138.076 55.873C138.498 55.873 138.945 55.9766 139.418 56.1836C139.637 56.2812 139.791 56.3301 139.881 56.3301C139.982 56.3301 140.064 56.3008 140.127 56.2422C140.193 56.1797 140.246 56.0566 140.285 55.873H140.502Z" fill="black"/>
<path d="M108.225 135.873L108.406 138.574H108.225C107.982 137.766 107.637 137.184 107.188 136.828C106.738 136.473 106.199 136.295 105.57 136.295C105.043 136.295 104.566 136.43 104.141 136.699C103.715 136.965 103.379 137.391 103.133 137.977C102.891 138.562 102.77 139.291 102.77 140.162C102.77 140.881 102.885 141.504 103.115 142.031C103.346 142.559 103.691 142.963 104.152 143.244C104.617 143.525 105.146 143.666 105.74 143.666C106.256 143.666 106.711 143.557 107.105 143.338C107.5 143.115 107.934 142.676 108.406 142.02L108.588 142.137C108.189 142.844 107.725 143.361 107.193 143.689C106.662 144.018 106.031 144.182 105.301 144.182C103.984 144.182 102.965 143.693 102.242 142.717C101.703 141.99 101.434 141.135 101.434 140.15C101.434 139.357 101.611 138.629 101.967 137.965C102.322 137.301 102.811 136.787 103.432 136.424C104.057 136.057 104.738 135.873 105.477 135.873C106.051 135.873 106.617 136.014 107.176 136.295C107.34 136.381 107.457 136.424 107.527 136.424C107.633 136.424 107.725 136.387 107.803 136.312C107.904 136.207 107.977 136.061 108.02 135.873H108.225ZM115.109 146.59H108.904V146.098H115.109V146.59ZM119.393 135.873C120.424 135.873 121.316 136.266 122.07 137.051C122.828 137.832 123.207 138.809 123.207 139.98C123.207 141.188 122.826 142.189 122.064 142.986C121.303 143.783 120.381 144.182 119.299 144.182C118.205 144.182 117.285 143.793 116.539 143.016C115.797 142.238 115.426 141.232 115.426 139.998C115.426 138.736 115.855 137.707 116.715 136.91C117.461 136.219 118.354 135.873 119.393 135.873ZM119.281 136.301C118.57 136.301 118 136.564 117.57 137.092C117.035 137.748 116.768 138.709 116.768 139.975C116.768 141.271 117.045 142.27 117.6 142.969C118.025 143.5 118.588 143.766 119.287 143.766C120.033 143.766 120.648 143.475 121.133 142.893C121.621 142.311 121.865 141.393 121.865 140.139C121.865 138.779 121.598 137.766 121.062 137.098C120.633 136.566 120.039 136.301 119.281 136.301ZM129.4 136.271V136.055H132.213V136.271H131.914C131.602 136.271 131.361 136.402 131.193 136.664C131.111 136.785 131.07 137.066 131.07 137.508V140.73C131.07 141.527 130.99 142.146 130.83 142.588C130.674 143.025 130.363 143.402 129.898 143.719C129.438 144.031 128.809 144.188 128.012 144.188C127.145 144.188 126.486 144.037 126.037 143.736C125.588 143.436 125.27 143.031 125.082 142.523C124.957 142.176 124.895 141.523 124.895 140.566V137.461C124.895 136.973 124.826 136.652 124.689 136.5C124.557 136.348 124.34 136.271 124.039 136.271H123.74V136.055H127.174V136.271H126.869C126.541 136.271 126.307 136.375 126.166 136.582C126.068 136.723 126.02 137.016 126.02 137.461V140.924C126.02 141.232 126.047 141.586 126.102 141.984C126.16 142.383 126.264 142.693 126.412 142.916C126.561 143.139 126.773 143.322 127.051 143.467C127.332 143.611 127.676 143.684 128.082 143.684C128.602 143.684 129.066 143.57 129.477 143.344C129.887 143.117 130.166 142.828 130.314 142.477C130.467 142.121 130.543 141.521 130.543 140.678V137.461C130.543 136.965 130.488 136.654 130.379 136.529C130.227 136.357 130 136.271 129.699 136.271H129.4ZM139.291 136.055L139.379 137.918H139.156C139.113 137.59 139.055 137.355 138.98 137.215C138.859 136.988 138.697 136.822 138.494 136.717C138.295 136.607 138.031 136.553 137.703 136.553H136.584V142.623C136.584 143.111 136.637 143.416 136.742 143.537C136.891 143.701 137.119 143.783 137.428 143.783H137.703V144H134.334V143.783H134.615C134.951 143.783 135.189 143.682 135.33 143.479C135.416 143.354 135.459 143.068 135.459 142.623V136.553H134.504C134.133 136.553 133.869 136.58 133.713 136.635C133.51 136.709 133.336 136.852 133.191 137.062C133.047 137.273 132.961 137.559 132.934 137.918H132.711L132.805 136.055H139.291Z" fill="black"/>
<path d="M80.0459 17.7402V20.3428H81.252C81.5286 20.3428 81.7305 20.2826 81.8574 20.1621C81.9876 20.0384 82.0739 19.7959 82.1162 19.4346H82.2969V21.6758H82.1162C82.113 21.4186 82.0788 21.2298 82.0137 21.1094C81.9518 20.9889 81.8639 20.8994 81.75 20.8408C81.6393 20.779 81.4733 20.748 81.252 20.748H80.0459V22.8281C80.0459 23.1634 80.0671 23.3848 80.1094 23.4922C80.1419 23.5736 80.2103 23.6436 80.3145 23.7021C80.4577 23.7803 80.6074 23.8193 80.7637 23.8193H81.0029V24H78.1611V23.8193H78.3955C78.6689 23.8193 78.8675 23.7396 78.9912 23.5801C79.0693 23.4759 79.1084 23.2253 79.1084 22.8281V18.5508C79.1084 18.2155 79.0872 17.9941 79.0449 17.8867C79.0124 17.8053 78.9456 17.7354 78.8447 17.6768C78.7048 17.5986 78.555 17.5596 78.3955 17.5596H78.1611V17.3789H83.0879L83.1514 18.834H82.9805C82.8958 18.5247 82.7965 18.2985 82.6826 18.1553C82.5719 18.0088 82.4336 17.903 82.2676 17.8379C82.1048 17.7728 81.8509 17.7402 81.5059 17.7402H80.0459ZM87.7998 19.5273V22.2373C87.7998 22.7549 87.8112 23.0723 87.834 23.1895C87.86 23.3034 87.8991 23.3831 87.9512 23.4287C88.0065 23.4743 88.07 23.4971 88.1416 23.4971C88.2425 23.4971 88.3564 23.4694 88.4834 23.4141L88.5518 23.585L87.2139 24.1367H86.9941V23.1895C86.61 23.6061 86.3171 23.8682 86.1152 23.9756C85.9134 24.083 85.7002 24.1367 85.4756 24.1367C85.2249 24.1367 85.0068 24.0651 84.8213 23.9219C84.639 23.7754 84.512 23.5882 84.4404 23.3604C84.3688 23.1325 84.333 22.8102 84.333 22.3936V20.3965C84.333 20.1849 84.3102 20.0384 84.2646 19.957C84.2191 19.8757 84.1507 19.8138 84.0596 19.7715C83.9717 19.7259 83.8105 19.7048 83.5762 19.708V19.5273H85.1436V22.5205C85.1436 22.9372 85.2152 23.2106 85.3584 23.3408C85.5049 23.471 85.6807 23.5361 85.8857 23.5361C86.0257 23.5361 86.1836 23.4922 86.3594 23.4043C86.5384 23.3164 86.75 23.1488 86.9941 22.9014V20.3672C86.9941 20.1133 86.9469 19.9424 86.8525 19.8545C86.7614 19.7633 86.5693 19.7145 86.2764 19.708V19.5273H87.7998ZM90.417 17.0566V22.9893C90.417 23.2692 90.4365 23.4548 90.4756 23.5459C90.5179 23.637 90.5814 23.707 90.666 23.7559C90.7507 23.8014 90.9085 23.8242 91.1396 23.8242V24H88.9473V23.8242C89.1523 23.8242 89.2923 23.8031 89.3672 23.7607C89.4421 23.7184 89.5007 23.6484 89.543 23.5508C89.5853 23.4531 89.6064 23.266 89.6064 22.9893V18.9268C89.6064 18.4222 89.5951 18.113 89.5723 17.999C89.5495 17.8818 89.512 17.8021 89.46 17.7598C89.4111 17.7174 89.3477 17.6963 89.2695 17.6963C89.1849 17.6963 89.0775 17.7223 88.9473 17.7744L88.8643 17.6035L90.1973 17.0566H90.417ZM93.2002 17.0566V22.9893C93.2002 23.2692 93.2197 23.4548 93.2588 23.5459C93.3011 23.637 93.3646 23.707 93.4492 23.7559C93.5339 23.8014 93.6917 23.8242 93.9229 23.8242V24H91.7305V23.8242C91.9355 23.8242 92.0755 23.8031 92.1504 23.7607C92.2253 23.7184 92.2839 23.6484 92.3262 23.5508C92.3685 23.4531 92.3896 23.266 92.3896 22.9893V18.9268C92.3896 18.4222 92.3783 18.113 92.3555 17.999C92.3327 17.8818 92.2952 17.8021 92.2432 17.7598C92.1943 17.7174 92.1309 17.6963 92.0527 17.6963C91.9681 17.6963 91.8607 17.7223 91.7305 17.7744L91.6475 17.6035L92.9805 17.0566H93.2002ZM100.651 21.7832H98.0879L97.6387 22.8281C97.528 23.0853 97.4727 23.2773 97.4727 23.4043C97.4727 23.5052 97.5199 23.5947 97.6143 23.6729C97.7119 23.7477 97.9202 23.7965 98.2393 23.8193V24H96.1543V23.8193C96.431 23.7705 96.61 23.707 96.6914 23.6289C96.8574 23.4727 97.0413 23.1553 97.2432 22.6768L99.5723 17.2275H99.7432L102.048 22.7354C102.233 23.1781 102.401 23.4661 102.551 23.5996C102.704 23.7298 102.915 23.8031 103.186 23.8193V24H100.573V23.8193C100.837 23.8063 101.014 23.7624 101.105 23.6875C101.2 23.6126 101.247 23.5215 101.247 23.4141C101.247 23.2708 101.182 23.0446 101.052 22.7354L100.651 21.7832ZM100.515 21.4219L99.3916 18.7461L98.2393 21.4219H100.515ZM106.774 23.4971C106.556 23.7249 106.343 23.8893 106.135 23.9902C105.926 24.0879 105.702 24.1367 105.461 24.1367C104.973 24.1367 104.546 23.9333 104.182 23.5264C103.817 23.1162 103.635 22.5905 103.635 21.9492C103.635 21.3079 103.837 20.722 104.24 20.1914C104.644 19.6576 105.163 19.3906 105.798 19.3906C106.192 19.3906 106.517 19.516 106.774 19.7666V18.9414C106.774 18.4303 106.761 18.1162 106.735 17.999C106.713 17.8818 106.675 17.8021 106.623 17.7598C106.571 17.7174 106.506 17.6963 106.428 17.6963C106.343 17.6963 106.231 17.7223 106.091 17.7744L106.027 17.6035L107.36 17.0566H107.58V22.2275C107.58 22.7516 107.591 23.0723 107.614 23.1895C107.64 23.3034 107.679 23.3831 107.731 23.4287C107.787 23.4743 107.85 23.4971 107.922 23.4971C108.01 23.4971 108.127 23.4694 108.273 23.4141L108.327 23.585L106.999 24.1367H106.774V23.4971ZM106.774 23.1553V20.8506C106.755 20.6292 106.696 20.4274 106.599 20.2451C106.501 20.0628 106.371 19.9261 106.208 19.835C106.049 19.7406 105.892 19.6934 105.739 19.6934C105.453 19.6934 105.197 19.8219 104.973 20.0791C104.676 20.4176 104.528 20.9124 104.528 21.5635C104.528 22.221 104.672 22.7256 104.958 23.0771C105.244 23.4255 105.563 23.5996 105.915 23.5996C106.211 23.5996 106.498 23.4515 106.774 23.1553ZM111.774 23.4971C111.556 23.7249 111.343 23.8893 111.135 23.9902C110.926 24.0879 110.702 24.1367 110.461 24.1367C109.973 24.1367 109.546 23.9333 109.182 23.5264C108.817 23.1162 108.635 22.5905 108.635 21.9492C108.635 21.3079 108.837 20.722 109.24 20.1914C109.644 19.6576 110.163 19.3906 110.798 19.3906C111.192 19.3906 111.517 19.516 111.774 19.7666V18.9414C111.774 18.4303 111.761 18.1162 111.735 17.999C111.713 17.8818 111.675 17.8021 111.623 17.7598C111.571 17.7174 111.506 17.6963 111.428 17.6963C111.343 17.6963 111.231 17.7223 111.091 17.7744L111.027 17.6035L112.36 17.0566H112.58V22.2275C112.58 22.7516 112.591 23.0723 112.614 23.1895C112.64 23.3034 112.679 23.3831 112.731 23.4287C112.787 23.4743 112.85 23.4971 112.922 23.4971C113.01 23.4971 113.127 23.4694 113.273 23.4141L113.327 23.585L111.999 24.1367H111.774V23.4971ZM111.774 23.1553V20.8506C111.755 20.6292 111.696 20.4274 111.599 20.2451C111.501 20.0628 111.371 19.9261 111.208 19.835C111.049 19.7406 110.892 19.6934 110.739 19.6934C110.453 19.6934 110.197 19.8219 109.973 20.0791C109.676 20.4176 109.528 20.9124 109.528 21.5635C109.528 22.221 109.672 22.7256 109.958 23.0771C110.244 23.4255 110.563 23.5996 110.915 23.5996C111.211 23.5996 111.498 23.4515 111.774 23.1553ZM114.367 21.2119C114.364 21.876 114.525 22.3968 114.851 22.7744C115.176 23.152 115.559 23.3408 115.998 23.3408C116.291 23.3408 116.545 23.2611 116.76 23.1016C116.978 22.9388 117.16 22.6621 117.307 22.2715L117.458 22.3691C117.39 22.8151 117.191 23.222 116.862 23.5898C116.534 23.9544 116.122 24.1367 115.627 24.1367C115.09 24.1367 114.629 23.9284 114.245 23.5117C113.864 23.0918 113.674 22.5286 113.674 21.8223C113.674 21.0573 113.869 20.4616 114.26 20.0352C114.654 19.6055 115.147 19.3906 115.739 19.3906C116.241 19.3906 116.652 19.5566 116.975 19.8887C117.297 20.2174 117.458 20.6585 117.458 21.2119H114.367ZM114.367 20.9287H116.438C116.421 20.6423 116.387 20.4404 116.335 20.3232C116.254 20.141 116.132 19.9977 115.969 19.8936C115.809 19.7894 115.642 19.7373 115.466 19.7373C115.196 19.7373 114.953 19.8431 114.738 20.0547C114.527 20.263 114.403 20.5544 114.367 20.9287ZM119.367 19.3955V20.4014C119.742 19.7308 120.126 19.3955 120.52 19.3955C120.699 19.3955 120.847 19.4508 120.964 19.5615C121.081 19.6689 121.14 19.7943 121.14 19.9375C121.14 20.0645 121.097 20.1719 121.013 20.2598C120.928 20.3477 120.827 20.3916 120.71 20.3916C120.596 20.3916 120.467 20.3363 120.324 20.2256C120.184 20.1117 120.08 20.0547 120.012 20.0547C119.953 20.0547 119.89 20.0872 119.821 20.1523C119.675 20.2858 119.523 20.5055 119.367 20.8115V22.9551C119.367 23.2025 119.398 23.3896 119.46 23.5166C119.502 23.6045 119.577 23.6777 119.685 23.7363C119.792 23.7949 119.947 23.8242 120.148 23.8242V24H117.858V23.8242C118.086 23.8242 118.256 23.7884 118.366 23.7168C118.448 23.6647 118.505 23.5817 118.537 23.4678C118.553 23.4124 118.562 23.2546 118.562 22.9941V21.2607C118.562 20.7399 118.55 20.4307 118.527 20.333C118.508 20.2321 118.469 20.1589 118.41 20.1133C118.355 20.0677 118.285 20.0449 118.2 20.0449C118.099 20.0449 117.985 20.0693 117.858 20.1182L117.81 19.9424L119.162 19.3955H119.367Z" fill="black"/>
<line x1="50.005" y1="60.5" x2="-0.00499344" y2="60.5" stroke="black" stroke-width="2"/>
<line x1="200.01" y1="60" x2="150" y2="60" stroke="black" stroke-width="2"/>
<line x1="200.01" y1="142" x2="150" y2="142" stroke="black" stroke-width="2"/>
<line x1="50.01" y1="101" x2="-3.8147e-06" y2="101" stroke="black" stroke-width="2"/>
<line x1="50.01" y1="142" x2="-3.8147e-06" y2="142" stroke="black" stroke-width="2"/>
</g>
<defs>
<clipPath id="clip0_2_75">
<rect width="200" height="200" fill="white"/>
</clipPath>
</defs>
</svg>
