<svg width="200" height="200" viewBox="0 0 200 200" fill="none" xmlns="http://www.w3.org/2000/svg">
<rect width="200" height="200" fill="white"/>
<rect x="68.5" y="51.5" width="62" height="97" fill="white" stroke="black" stroke-width="3"/>
<line y1="66" x2="67" y2="66" stroke="black" stroke-width="2"/>
<line y1="131" x2="67" y2="131" stroke="black" stroke-width="2"/>
<line x1="130" y1="66" x2="200" y2="66" stroke="black" stroke-width="2"/>
<line x1="130" y1="131" x2="200" y2="131" stroke="black" stroke-width="2"/>
<path d="M77.4902 69.3398H74.4141L73.875 70.5938C73.7422 70.9023 73.6758 71.1328 73.6758 71.2852C73.6758 71.4062 73.7324 71.5137 73.8457 71.6074C73.9629 71.6973 74.2129 71.7559 74.5957 71.7832V72H72.0938V71.7832C72.4258 71.7246 72.6406 71.6484 72.7383 71.5547C72.9375 71.3672 73.1582 70.9863 73.4004 70.4121L76.1953 63.873H76.4004L79.166 70.4824C79.3887 71.0137 79.5898 71.3594 79.7695 71.5195C79.9531 71.6758 80.207 71.7637 80.5312 71.7832V72H77.3965V71.7832C77.7129 71.7676 77.9258 71.7148 78.0352 71.625C78.1484 71.5352 78.2051 71.4258 78.2051 71.2969C78.2051 71.125 78.127 70.8535 77.9707 70.4824L77.4902 69.3398ZM77.3262 68.9062L75.9785 65.6953L74.5957 68.9062H77.3262Z" fill="black"/>
<path d="M77.543 127.945C78.0938 128.062 78.5059 128.25 78.7793 128.508C79.1582 128.867 79.3477 129.307 79.3477 129.826C79.3477 130.221 79.2227 130.6 78.9727 130.963C78.7227 131.322 78.3789 131.586 77.9414 131.754C77.5078 131.918 76.8438 132 75.9492 132H72.1992V131.783H72.498C72.8301 131.783 73.0684 131.678 73.2129 131.467C73.3027 131.33 73.3477 131.039 73.3477 130.594V125.461C73.3477 124.969 73.291 124.658 73.1777 124.529C73.0254 124.357 72.7988 124.271 72.498 124.271H72.1992V124.055H75.6328C76.2734 124.055 76.7871 124.102 77.1738 124.195C77.7598 124.336 78.207 124.586 78.5156 124.945C78.8242 125.301 78.9785 125.711 78.9785 126.176C78.9785 126.574 78.8574 126.932 78.6152 127.248C78.373 127.561 78.0156 127.793 77.543 127.945ZM74.4727 127.629C74.6172 127.656 74.7812 127.678 74.9648 127.693C75.1523 127.705 75.3574 127.711 75.5801 127.711C76.1504 127.711 76.5781 127.65 76.8633 127.529C77.1523 127.404 77.373 127.215 77.5254 126.961C77.6777 126.707 77.7539 126.43 77.7539 126.129C77.7539 125.664 77.5645 125.268 77.1855 124.939C76.8066 124.611 76.2539 124.447 75.5273 124.447C75.1367 124.447 74.7852 124.49 74.4727 124.576V127.629ZM74.4727 131.426C74.9258 131.531 75.373 131.584 75.8145 131.584C76.5215 131.584 77.0605 131.426 77.4316 131.109C77.8027 130.789 77.9883 130.395 77.9883 129.926C77.9883 129.617 77.9043 129.32 77.7363 129.035C77.5684 128.75 77.2949 128.525 76.916 128.361C76.5371 128.197 76.0684 128.115 75.5098 128.115C75.2676 128.115 75.0605 128.119 74.8887 128.127C74.7168 128.135 74.5781 128.148 74.4727 128.168V131.426Z" fill="black"/>
<path d="M122.502 63.873V66.6211H122.285C122.215 66.0938 122.088 65.6738 121.904 65.3613C121.725 65.0488 121.467 64.8008 121.131 64.6172C120.795 64.4336 120.447 64.3418 120.088 64.3418C119.682 64.3418 119.346 64.4668 119.08 64.7168C118.814 64.9629 118.682 65.2441 118.682 65.5605C118.682 65.8027 118.766 66.0234 118.934 66.2227C119.176 66.5156 119.752 66.9062 120.662 67.3945C121.404 67.793 121.91 68.0996 122.18 68.3145C122.453 68.5254 122.662 68.7754 122.807 69.0645C122.955 69.3535 123.029 69.6562 123.029 69.9727C123.029 70.5742 122.795 71.0938 122.326 71.5312C121.861 71.9648 121.262 72.1816 120.527 72.1816C120.297 72.1816 120.08 72.1641 119.877 72.1289C119.756 72.1094 119.504 72.0391 119.121 71.918C118.742 71.793 118.502 71.7305 118.4 71.7305C118.303 71.7305 118.225 71.7598 118.166 71.8184C118.111 71.877 118.07 71.998 118.043 72.1816H117.826V69.457H118.043C118.145 70.0273 118.281 70.4551 118.453 70.7402C118.625 71.0215 118.887 71.2559 119.238 71.4434C119.594 71.6309 119.982 71.7246 120.404 71.7246C120.893 71.7246 121.277 71.5957 121.559 71.3379C121.844 71.0801 121.986 70.7754 121.986 70.4238C121.986 70.2285 121.932 70.0312 121.822 69.832C121.717 69.6328 121.551 69.4473 121.324 69.2754C121.172 69.1582 120.756 68.9102 120.076 68.5312C119.396 68.1484 118.912 67.8438 118.623 67.6172C118.338 67.3906 118.121 67.1406 117.973 66.8672C117.824 66.5938 117.75 66.293 117.75 65.9648C117.75 65.3945 117.969 64.9043 118.406 64.4941C118.844 64.0801 119.4 63.873 120.076 63.873C120.498 63.873 120.945 63.9766 121.418 64.1836C121.637 64.2812 121.791 64.3301 121.881 64.3301C121.982 64.3301 122.064 64.3008 122.127 64.2422C122.193 64.1797 122.246 64.0566 122.285 63.873H122.502Z" fill="black"/>
<path d="M124.225 123.873L124.406 126.574H124.225C123.982 125.766 123.637 125.184 123.188 124.828C122.738 124.473 122.199 124.295 121.57 124.295C121.043 124.295 120.566 124.43 120.141 124.699C119.715 124.965 119.379 125.391 119.133 125.977C118.891 126.562 118.77 127.291 118.77 128.162C118.77 128.881 118.885 129.504 119.115 130.031C119.346 130.559 119.691 130.963 120.152 131.244C120.617 131.525 121.146 131.666 121.74 131.666C122.256 131.666 122.711 131.557 123.105 131.338C123.5 131.115 123.934 130.676 124.406 130.02L124.588 130.137C124.189 130.844 123.725 131.361 123.193 131.689C122.662 132.018 122.031 132.182 121.301 132.182C119.984 132.182 118.965 131.693 118.242 130.717C117.703 129.99 117.434 129.135 117.434 128.15C117.434 127.357 117.611 126.629 117.967 125.965C118.322 125.301 118.811 124.787 119.432 124.424C120.057 124.057 120.738 123.873 121.477 123.873C122.051 123.873 122.617 124.014 123.176 124.295C123.34 124.381 123.457 124.424 123.527 124.424C123.633 124.424 123.725 124.387 123.803 124.312C123.904 124.207 123.977 124.061 124.02 123.873H124.225Z" fill="black"/>
<path d="M79.0557 20.4502H82.1318V18.5557C82.1318 18.2171 82.1107 17.9941 82.0684 17.8867C82.0358 17.8053 81.9674 17.7354 81.8633 17.6768C81.7233 17.5986 81.5752 17.5596 81.4189 17.5596H81.1846V17.3789H84.0166V17.5596H83.7822C83.626 17.5596 83.4779 17.597 83.3379 17.6719C83.2337 17.724 83.1621 17.8037 83.123 17.9111C83.0872 18.0153 83.0693 18.2301 83.0693 18.5557V22.8281C83.0693 23.1634 83.0905 23.3848 83.1328 23.4922C83.1654 23.5736 83.2321 23.6436 83.333 23.7021C83.4762 23.7803 83.626 23.8193 83.7822 23.8193H84.0166V24H81.1846V23.8193H81.4189C81.6891 23.8193 81.8861 23.7396 82.0098 23.5801C82.0911 23.4759 82.1318 23.2253 82.1318 22.8281V20.8115H79.0557V22.8281C79.0557 23.1634 79.0768 23.3848 79.1191 23.4922C79.1517 23.5736 79.2201 23.6436 79.3242 23.7021C79.4642 23.7803 79.6123 23.8193 79.7686 23.8193H80.0078V24H77.1709V23.8193H77.4053C77.6787 23.8193 77.8773 23.7396 78.001 23.5801C78.0791 23.4759 78.1182 23.2253 78.1182 22.8281V18.5557C78.1182 18.2171 78.097 17.9941 78.0547 17.8867C78.0221 17.8053 77.9554 17.7354 77.8545 17.6768C77.7113 17.5986 77.5615 17.5596 77.4053 17.5596H77.1709V17.3789H80.0078V17.5596H79.7686C79.6123 17.5596 79.4642 17.597 79.3242 17.6719C79.2233 17.724 79.1533 17.8037 79.1143 17.9111C79.0752 18.0153 79.0557 18.2301 79.0557 18.5557V20.4502ZM87.0732 23.3555C86.6143 23.7103 86.3262 23.9154 86.209 23.9707C86.0332 24.0521 85.846 24.0928 85.6475 24.0928C85.3382 24.0928 85.0827 23.987 84.8809 23.7754C84.6823 23.5638 84.583 23.2855 84.583 22.9404C84.583 22.7223 84.6318 22.5335 84.7295 22.374C84.863 22.1527 85.0941 21.9443 85.4229 21.749C85.7549 21.5537 86.305 21.3161 87.0732 21.0361V20.8604C87.0732 20.4144 87.0016 20.1084 86.8584 19.9424C86.7184 19.7764 86.5133 19.6934 86.2432 19.6934C86.0381 19.6934 85.8753 19.7487 85.7549 19.8594C85.6312 19.9701 85.5693 20.097 85.5693 20.2402L85.5791 20.5234C85.5791 20.6732 85.54 20.7887 85.4619 20.8701C85.387 20.9515 85.2878 20.9922 85.1641 20.9922C85.0436 20.9922 84.9443 20.9499 84.8662 20.8652C84.7913 20.7806 84.7539 20.665 84.7539 20.5186C84.7539 20.2386 84.8971 19.9814 85.1836 19.7471C85.4701 19.5127 85.8721 19.3955 86.3896 19.3955C86.7868 19.3955 87.1123 19.4622 87.3662 19.5957C87.5583 19.6966 87.6999 19.8545 87.791 20.0693C87.8496 20.2093 87.8789 20.4958 87.8789 20.9287V22.4473C87.8789 22.8737 87.887 23.1357 87.9033 23.2334C87.9196 23.3278 87.9456 23.3913 87.9814 23.4238C88.0205 23.4564 88.0645 23.4727 88.1133 23.4727C88.1654 23.4727 88.2109 23.4613 88.25 23.4385C88.3184 23.3962 88.4502 23.2773 88.6455 23.082V23.3555C88.2809 23.8438 87.9326 24.0879 87.6006 24.0879C87.4411 24.0879 87.3141 24.0326 87.2197 23.9219C87.1253 23.8112 87.0765 23.6224 87.0732 23.3555ZM87.0732 23.0381V21.334C86.5817 21.5293 86.2643 21.6676 86.1211 21.749C85.8639 21.8923 85.68 22.042 85.5693 22.1982C85.4587 22.3545 85.4033 22.5254 85.4033 22.7109C85.4033 22.9453 85.4733 23.1406 85.6133 23.2969C85.7533 23.4499 85.9144 23.5264 86.0967 23.5264C86.3441 23.5264 86.6696 23.3636 87.0732 23.0381ZM90.5205 17.0566V22.9893C90.5205 23.2692 90.54 23.4548 90.5791 23.5459C90.6214 23.637 90.6849 23.707 90.7695 23.7559C90.8542 23.8014 91.012 23.8242 91.2432 23.8242V24H89.0508V23.8242C89.2559 23.8242 89.3958 23.8031 89.4707 23.7607C89.5456 23.7184 89.6042 23.6484 89.6465 23.5508C89.6888 23.4531 89.71 23.266 89.71 22.9893V18.9268C89.71 18.4222 89.6986 18.113 89.6758 17.999C89.653 17.8818 89.6156 17.8021 89.5635 17.7598C89.5146 17.7174 89.4512 17.6963 89.373 17.6963C89.2884 17.6963 89.181 17.7223 89.0508 17.7744L88.9678 17.6035L90.3008 17.0566H90.5205ZM93.5137 19.8789V22.8184C93.5137 23.235 93.5592 23.4987 93.6504 23.6094C93.7708 23.7526 93.932 23.8242 94.1338 23.8242H94.5391V24H91.8682V23.8242H92.0684C92.1986 23.8242 92.3174 23.7917 92.4248 23.7266C92.5322 23.6615 92.6055 23.5736 92.6445 23.4629C92.6868 23.3522 92.708 23.1374 92.708 22.8184V19.8789H91.8389V19.5273H92.708V19.2344C92.708 18.7884 92.7796 18.4108 92.9229 18.1016C93.0661 17.7923 93.2842 17.5433 93.5771 17.3545C93.8734 17.1624 94.2054 17.0664 94.5732 17.0664C94.915 17.0664 95.2292 17.1771 95.5156 17.3984C95.7044 17.5449 95.7988 17.7093 95.7988 17.8916C95.7988 17.9893 95.7565 18.082 95.6719 18.1699C95.5872 18.2546 95.4961 18.2969 95.3984 18.2969C95.3236 18.2969 95.2438 18.2708 95.1592 18.2188C95.0778 18.1634 94.9769 18.0479 94.8564 17.8721C94.736 17.693 94.6253 17.5726 94.5244 17.5107C94.4235 17.4489 94.3112 17.418 94.1875 17.418C94.0378 17.418 93.9108 17.4587 93.8066 17.54C93.7025 17.6182 93.6276 17.7419 93.582 17.9111C93.5365 18.0771 93.5137 18.5085 93.5137 19.2051V19.5273H94.666V19.8789H93.5137ZM101.302 21.7832H98.7383L98.2891 22.8281C98.1784 23.0853 98.123 23.2773 98.123 23.4043C98.123 23.5052 98.1702 23.5947 98.2646 23.6729C98.3623 23.7477 98.5706 23.7965 98.8896 23.8193V24H96.8047V23.8193C97.0814 23.7705 97.2604 23.707 97.3418 23.6289C97.5078 23.4727 97.6917 23.1553 97.8936 22.6768L100.223 17.2275H100.394L102.698 22.7354C102.884 23.1781 103.051 23.4661 103.201 23.5996C103.354 23.7298 103.566 23.8031 103.836 23.8193V24H101.224V23.8193C101.487 23.8063 101.665 23.7624 101.756 23.6875C101.85 23.6126 101.897 23.5215 101.897 23.4141C101.897 23.2708 101.832 23.0446 101.702 22.7354L101.302 21.7832ZM101.165 21.4219L100.042 18.7461L98.8896 21.4219H101.165ZM107.425 23.4971C107.207 23.7249 106.993 23.8893 106.785 23.9902C106.577 24.0879 106.352 24.1367 106.111 24.1367C105.623 24.1367 105.197 23.9333 104.832 23.5264C104.467 23.1162 104.285 22.5905 104.285 21.9492C104.285 21.3079 104.487 20.722 104.891 20.1914C105.294 19.6576 105.813 19.3906 106.448 19.3906C106.842 19.3906 107.168 19.516 107.425 19.7666V18.9414C107.425 18.4303 107.412 18.1162 107.386 17.999C107.363 17.8818 107.326 17.8021 107.273 17.7598C107.221 17.7174 107.156 17.6963 107.078 17.6963C106.993 17.6963 106.881 17.7223 106.741 17.7744L106.678 17.6035L108.011 17.0566H108.23V22.2275C108.23 22.7516 108.242 23.0723 108.265 23.1895C108.291 23.3034 108.33 23.3831 108.382 23.4287C108.437 23.4743 108.501 23.4971 108.572 23.4971C108.66 23.4971 108.777 23.4694 108.924 23.4141L108.978 23.585L107.649 24.1367H107.425V23.4971ZM107.425 23.1553V20.8506C107.405 20.6292 107.347 20.4274 107.249 20.2451C107.151 20.0628 107.021 19.9261 106.858 19.835C106.699 19.7406 106.543 19.6934 106.39 19.6934C106.103 19.6934 105.848 19.8219 105.623 20.0791C105.327 20.4176 105.179 20.9124 105.179 21.5635C105.179 22.221 105.322 22.7256 105.608 23.0771C105.895 23.4255 106.214 23.5996 106.565 23.5996C106.862 23.5996 107.148 23.4515 107.425 23.1553ZM112.425 23.4971C112.207 23.7249 111.993 23.8893 111.785 23.9902C111.577 24.0879 111.352 24.1367 111.111 24.1367C110.623 24.1367 110.197 23.9333 109.832 23.5264C109.467 23.1162 109.285 22.5905 109.285 21.9492C109.285 21.3079 109.487 20.722 109.891 20.1914C110.294 19.6576 110.813 19.3906 111.448 19.3906C111.842 19.3906 112.168 19.516 112.425 19.7666V18.9414C112.425 18.4303 112.412 18.1162 112.386 17.999C112.363 17.8818 112.326 17.8021 112.273 17.7598C112.221 17.7174 112.156 17.6963 112.078 17.6963C111.993 17.6963 111.881 17.7223 111.741 17.7744L111.678 17.6035L113.011 17.0566H113.23V22.2275C113.23 22.7516 113.242 23.0723 113.265 23.1895C113.291 23.3034 113.33 23.3831 113.382 23.4287C113.437 23.4743 113.501 23.4971 113.572 23.4971C113.66 23.4971 113.777 23.4694 113.924 23.4141L113.978 23.585L112.649 24.1367H112.425V23.4971ZM112.425 23.1553V20.8506C112.405 20.6292 112.347 20.4274 112.249 20.2451C112.151 20.0628 112.021 19.9261 111.858 19.835C111.699 19.7406 111.543 19.6934 111.39 19.6934C111.103 19.6934 110.848 19.8219 110.623 20.0791C110.327 20.4176 110.179 20.9124 110.179 21.5635C110.179 22.221 110.322 22.7256 110.608 23.0771C110.895 23.4255 111.214 23.5996 111.565 23.5996C111.862 23.5996 112.148 23.4515 112.425 23.1553ZM115.018 21.2119C115.014 21.876 115.175 22.3968 115.501 22.7744C115.826 23.152 116.209 23.3408 116.648 23.3408C116.941 23.3408 117.195 23.2611 117.41 23.1016C117.628 22.9388 117.811 22.6621 117.957 22.2715L118.108 22.3691C118.04 22.8151 117.841 23.222 117.513 23.5898C117.184 23.9544 116.772 24.1367 116.277 24.1367C115.74 24.1367 115.28 23.9284 114.896 23.5117C114.515 23.0918 114.324 22.5286 114.324 21.8223C114.324 21.0573 114.52 20.4616 114.91 20.0352C115.304 19.6055 115.797 19.3906 116.39 19.3906C116.891 19.3906 117.303 19.5566 117.625 19.8887C117.947 20.2174 118.108 20.6585 118.108 21.2119H115.018ZM115.018 20.9287H117.088C117.072 20.6423 117.037 20.4404 116.985 20.3232C116.904 20.141 116.782 19.9977 116.619 19.8936C116.46 19.7894 116.292 19.7373 116.116 19.7373C115.846 19.7373 115.604 19.8431 115.389 20.0547C115.177 20.263 115.053 20.5544 115.018 20.9287ZM120.018 19.3955V20.4014C120.392 19.7308 120.776 19.3955 121.17 19.3955C121.349 19.3955 121.497 19.4508 121.614 19.5615C121.731 19.6689 121.79 19.7943 121.79 19.9375C121.79 20.0645 121.748 20.1719 121.663 20.2598C121.578 20.3477 121.478 20.3916 121.36 20.3916C121.246 20.3916 121.118 20.3363 120.975 20.2256C120.835 20.1117 120.73 20.0547 120.662 20.0547C120.604 20.0547 120.54 20.0872 120.472 20.1523C120.325 20.2858 120.174 20.5055 120.018 20.8115V22.9551C120.018 23.2025 120.049 23.3896 120.11 23.5166C120.153 23.6045 120.228 23.6777 120.335 23.7363C120.442 23.7949 120.597 23.8242 120.799 23.8242V24H118.509V23.8242C118.737 23.8242 118.906 23.7884 119.017 23.7168C119.098 23.6647 119.155 23.5817 119.188 23.4678C119.204 23.4124 119.212 23.2546 119.212 22.9941V21.2607C119.212 20.7399 119.201 20.4307 119.178 20.333C119.158 20.2321 119.119 20.1589 119.061 20.1133C119.005 20.0677 118.935 20.0449 118.851 20.0449C118.75 20.0449 118.636 20.0693 118.509 20.1182L118.46 19.9424L119.812 19.3955H120.018Z" fill="black"/>
</svg>
